<svg width="20" height="22" viewBox="0 0 20 22" fill="none" xmlns="http://www.w3.org/2000/svg">
<path d="M19.3821 0.254883H0.728096C0.658905 0.255104 0.59044 0.268396 0.526626 0.293998C0.462813 0.3196 0.404905 0.357008 0.356226 0.404076C0.307546 0.451145 0.269051 0.506949 0.242949 0.568288C0.216846 0.629628 0.203649 0.695296 0.204113 0.761528V21.275C0.20519 21.408 0.260865 21.5353 0.359119 21.6293C0.457373 21.7234 0.590324 21.7767 0.729272 21.7777H19.3821C19.5214 21.7776 19.6548 21.7246 19.7533 21.6303C19.8517 21.5361 19.9071 21.4083 19.9073 21.275V0.761528C19.9078 0.695181 19.8946 0.629387 19.8685 0.567941C19.8423 0.506494 19.8037 0.450611 19.7549 0.403512C19.7061 0.356413 19.648 0.319032 19.584 0.293522C19.5201 0.268013 19.4514 0.254881 19.3821 0.254883ZM18.9746 4.42739H8.35084V1.14939H18.9746V4.42739ZM7.41814 1.14939V4.42907H1.13976V1.14939H7.41814ZM1.13976 20.8827V5.32133H18.9746V20.8827H1.13976Z" fill="#24459C"/>
<path d="M3.47906 3.23856H5.06219C5.12378 3.23856 5.18476 3.22688 5.24161 3.2042C5.29846 3.18152 5.35005 3.14829 5.39341 3.10642C5.43677 3.06455 5.47103 3.01487 5.49423 2.96025C5.51742 2.90564 5.52908 2.84716 5.52854 2.78821C5.52854 2.66981 5.4794 2.55627 5.39195 2.47255C5.30449 2.38883 5.18587 2.3418 5.06219 2.3418H3.47906C3.35538 2.3418 3.23676 2.38883 3.1493 2.47255C3.06185 2.55627 3.01271 2.66981 3.01271 2.78821C3.01217 2.84716 3.02383 2.90564 3.04702 2.96025C3.07022 3.01487 3.10448 3.06455 3.14784 3.10642C3.1912 3.14829 3.24279 3.18152 3.29964 3.2042C3.35649 3.22688 3.41747 3.23856 3.47906 3.23856Z" fill="#24459C"/>
<path d="M10.1613 3.35244C10.4861 3.35244 10.7494 3.1004 10.7494 2.7895C10.7494 2.4786 10.4861 2.22656 10.1613 2.22656C9.83654 2.22656 9.57324 2.4786 9.57324 2.7895C9.57324 3.1004 9.83654 3.35244 10.1613 3.35244Z" fill="#24459C"/>
<path d="M12.2292 3.35244C12.554 3.35244 12.8173 3.1004 12.8173 2.7895C12.8173 2.4786 12.554 2.22656 12.2292 2.22656C11.9044 2.22656 11.6411 2.4786 11.6411 2.7895C11.6411 3.1004 11.9044 3.35244 12.2292 3.35244Z" fill="#24459C"/>
<path d="M14.2971 3.35244C14.6219 3.35244 14.8852 3.1004 14.8852 2.7895C14.8852 2.4786 14.6219 2.22656 14.2971 2.22656C13.9723 2.22656 13.709 2.4786 13.709 2.7895C13.709 3.1004 13.9723 3.35244 14.2971 3.35244Z" fill="#24459C"/>
<path d="M10.0559 6.46387C8.21715 6.4658 6.45431 7.16586 5.15414 8.41045C3.85396 9.65503 3.12263 11.3425 3.12061 13.1026C3.12278 14.8627 3.85416 16.55 5.15431 17.7946C6.45445 19.0392 8.2172 19.7393 10.0559 19.7413C11.8946 19.7393 13.6573 19.0392 14.9574 17.7946C16.2576 16.55 16.989 14.8627 16.9912 13.1026C16.9891 11.3425 16.2578 9.65503 14.9576 8.41045C13.6574 7.16586 11.8946 6.4658 10.0559 6.46387ZM10.0559 18.8485C8.46447 18.8467 6.93878 18.2408 5.81348 17.1636C4.68819 16.0864 4.05518 14.626 4.05331 13.1026C4.05518 11.5792 4.68819 10.1188 5.81348 9.0416C6.93878 7.96442 8.46447 7.35848 10.0559 7.35669C11.6473 7.35848 13.173 7.96442 14.2983 9.0416C15.4236 10.1188 16.0566 11.5792 16.0584 13.1026C16.0566 14.626 15.4236 16.0864 14.2983 17.1636C13.173 18.2408 11.6473 18.8467 10.0559 18.8485Z" fill="#24459C"/>
<path d="M10.0556 9.22168C8.98086 9.22272 7.95042 9.63188 7.19045 10.3594C6.43048 11.0868 6.00305 12.0732 6.00196 13.102C6.00132 13.5939 6.09913 14.0814 6.29012 14.5381C6.31272 14.5926 6.34635 14.6422 6.38905 14.6842C6.43176 14.7263 6.48272 14.7598 6.539 14.7829C6.59528 14.806 6.65577 14.8183 6.71701 14.819C6.77824 14.8196 6.83902 14.8087 6.89584 14.7869C6.95271 14.7652 7.00455 14.733 7.0484 14.6921C7.09225 14.6512 7.12724 14.6024 7.15138 14.5486C7.17552 14.4947 7.18834 14.4368 7.18909 14.3782C7.18985 14.3196 7.17853 14.2615 7.15578 14.2071C7.00923 13.8556 6.93418 13.4805 6.93466 13.102C6.93559 12.31 7.26471 11.5506 7.8498 10.9905C8.43489 10.4304 9.22818 10.1154 10.0556 10.1145C10.8831 10.1154 11.6763 10.4304 12.2614 10.9905C12.8465 11.5506 13.1756 12.31 13.1766 13.102C13.1756 13.8941 12.8465 14.6534 12.2614 15.2135C11.6763 15.7736 10.8831 16.0886 10.0556 16.0895C9.628 16.0905 9.20484 16.0063 8.813 15.8424C8.75673 15.8186 8.6961 15.8057 8.6346 15.8044C8.5731 15.8032 8.51195 15.8136 8.45466 15.835C8.39738 15.8565 8.34509 15.8886 8.30081 15.9294C8.25654 15.9703 8.22115 16.0192 8.19669 16.0732C8.14719 16.1817 8.14472 16.3045 8.18983 16.4147C8.23493 16.5249 8.32392 16.6135 8.43721 16.6609C8.94685 16.8747 9.49742 16.9846 10.0539 16.9835C11.1286 16.9824 12.159 16.5733 12.919 15.8458C13.679 15.1183 14.1064 14.132 14.1075 13.1031C14.1067 12.0744 13.6797 11.088 12.9201 10.3604C12.1604 9.63268 11.1303 9.22317 10.0556 9.22168Z" fill="#24459C"/>
</svg>
