<svg width="32" height="26" viewBox="0 0 32 26" fill="none" xmlns="http://www.w3.org/2000/svg">
<path d="M31 13H1" stroke="white" stroke-width="2" stroke-linecap="round" stroke-linejoin="round"/>
<path d="M6.175 2.665L1 13V22C1 22.7956 1.31607 23.5587 1.87868 24.1213C2.44129 24.6839 3.20435 25 4 25H28C28.7956 25 29.5587 24.6839 30.1213 24.1213C30.6839 23.5587 31 22.7956 31 22V13L25.825 2.665C25.5766 2.16518 25.1938 1.74456 24.7194 1.45042C24.2451 1.15628 23.6981 1.0003 23.14 1H8.86C8.30187 1.0003 7.7549 1.15628 7.28057 1.45042C6.80624 1.74456 6.42337 2.16518 6.175 2.665V2.665Z" stroke="white" stroke-width="2" stroke-linecap="round" stroke-linejoin="round"/>
<path d="M7 19H7.015" stroke="white" stroke-width="2" stroke-linecap="round" stroke-linejoin="round"/>
<path d="M13 19H13.015" stroke="white" stroke-width="2" stroke-linecap="round" stroke-linejoin="round"/>
</svg>
