<svg width="480" height="612" viewBox="0 0 480 612" fill="none" xmlns="http://www.w3.org/2000/svg">
<g clip-path="url(#clip0_4553_94023)">
<path d="M345.878 240.629C340.157 246.652 334.744 250.536 330.467 253.605C280.193 289.677 220.705 279.162 208.062 276.595C189.393 272.803 153.305 265.474 127.214 234.791C87.7414 188.371 93.8874 115.239 124.505 66.9625C130.106 58.1325 159.689 9.12053 219.817 1.26053C256.206 -3.49647 298.624 6.09753 329.342 31.8335C393.823 85.8535 389.232 194.987 345.878 240.629Z" fill="url(#paint0_linear_4553_94023)"/>
<g opacity="0.3">
<path d="M144.786 228.093C144.694 228.667 144.18 229.09 143.587 229.057C142.289 228.985 140.975 228.856 139.682 228.673C139.053 228.584 138.615 228.002 138.704 227.372C138.705 227.364 138.706 227.357 138.708 227.35C138.807 226.733 139.383 226.306 140.005 226.394C141.234 226.568 142.482 226.691 143.715 226.759C144.349 226.794 144.836 227.337 144.8 227.972C144.797 228.013 144.793 228.053 144.786 228.093ZM134.902 226.425C134.895 226.469 134.885 226.514 134.872 226.558C134.698 227.169 134.061 227.524 133.45 227.35C132.195 226.992 130.942 226.577 129.728 226.117C129.134 225.892 128.836 225.23 129.06 224.633C129.285 224.039 129.95 223.74 130.544 223.965C131.699 224.403 132.888 224.797 134.082 225.136C134.648 225.298 134.993 225.858 134.902 226.425ZM125.63 222.623C125.61 222.749 125.568 222.875 125.502 222.993C125.196 223.55 124.497 223.754 123.94 223.448C122.798 222.821 121.669 222.137 120.585 221.414C120.056 221.061 119.914 220.347 120.266 219.818C120.618 219.289 121.333 219.146 121.862 219.499C122.892 220.185 123.964 220.835 125.048 221.43C125.486 221.672 125.706 222.156 125.63 222.623ZM117.44 216.842C117.406 217.051 117.315 217.253 117.163 217.423C116.741 217.898 116.013 217.94 115.539 217.517C114.566 216.65 113.618 215.731 112.722 214.784C112.286 214.322 112.306 213.595 112.767 213.157C113.228 212.72 113.957 212.74 114.394 213.202C115.244 214.101 116.144 214.974 117.07 215.798C117.374 216.07 117.501 216.466 117.44 216.842ZM110.745 209.379C110.698 209.672 110.538 209.947 110.277 210.133C109.76 210.502 109.041 210.382 108.672 209.864C107.917 208.805 107.197 207.699 106.531 206.577C106.207 206.031 106.387 205.325 106.934 205C107.481 204.676 108.186 204.856 108.511 205.403C109.143 206.47 109.828 207.521 110.545 208.527C110.729 208.785 110.792 209.091 110.745 209.379ZM105.868 200.622C105.807 201.002 105.557 201.342 105.176 201.501C104.59 201.746 103.916 201.47 103.67 200.884C103.167 199.683 102.709 198.445 102.31 197.205C102.115 196.6 102.448 195.952 103.053 195.757C103.658 195.562 104.306 195.895 104.501 196.499C104.881 197.677 105.315 198.853 105.793 199.995C105.879 200.201 105.901 200.417 105.868 200.622ZM109.869 158.56C109.844 158.717 109.785 158.872 109.691 159.013C109.007 160.043 108.359 161.116 107.765 162.204C107.46 162.762 106.761 162.967 106.204 162.662C105.646 162.358 105.441 161.658 105.746 161.101C106.372 159.956 107.054 158.825 107.774 157.74C108.126 157.211 108.84 157.067 109.369 157.418C109.758 157.675 109.939 158.128 109.869 158.56ZM103.055 191.008C102.979 191.479 102.613 191.872 102.116 191.958C101.49 192.067 100.894 191.648 100.785 191.022C100.562 189.739 100.391 188.43 100.279 187.133C100.227 186.5 100.693 185.942 101.326 185.887C101.959 185.832 102.517 186.301 102.572 186.934C102.678 188.166 102.84 189.409 103.052 190.627C103.074 190.757 103.074 190.886 103.055 191.008ZM105.301 167.482C105.289 167.557 105.27 167.632 105.242 167.706C104.806 168.863 104.414 170.055 104.076 171.248C103.903 171.86 103.267 172.215 102.656 172.042C102.045 171.869 101.686 171.233 101.862 170.622C102.217 169.367 102.629 168.113 103.088 166.895C103.312 166.3 103.976 166 104.571 166.224C105.091 166.419 105.386 166.953 105.301 167.482ZM102.459 181.007C102.367 181.58 101.855 182.003 101.262 181.972C100.627 181.938 100.141 181.396 100.174 180.761C100.244 179.462 100.37 178.148 100.551 176.856C100.552 176.848 100.553 176.84 100.554 176.832C100.653 176.216 101.228 175.789 101.849 175.876C102.479 175.964 102.918 176.545 102.829 177.175C102.658 178.402 102.538 179.65 102.472 180.884C102.47 180.926 102.466 180.967 102.459 181.007Z" fill="#91B3FA"/>
<path d="M114.93 152.264C114.894 152.488 114.792 152.703 114.623 152.879C114.211 153.306 113.801 153.749 113.404 154.195C112.982 154.67 112.254 154.713 111.78 154.29C111.305 153.868 111.261 153.14 111.685 152.666C112.102 152.197 112.533 151.731 112.966 151.282C113.407 150.825 114.136 150.811 114.593 151.252C114.875 151.524 114.988 151.905 114.93 152.264Z" fill="#91B3FA"/>
</g>
<g opacity="0.3">
<path d="M147.21 138.53C147.122 139.078 146.646 139.497 146.073 139.496C145.48 139.495 144.877 139.507 144.28 139.531C143.645 139.557 143.109 139.063 143.084 138.428C143.058 137.79 143.553 137.257 144.187 137.232C144.815 137.207 145.45 137.194 146.075 137.195C146.71 137.196 147.225 137.711 147.225 138.347C147.225 138.409 147.22 138.47 147.21 138.53Z" fill="#91B3FA"/>
<path d="M191.457 190.425C191.373 190.948 191.279 191.471 191.177 191.995C191.055 192.619 190.45 193.025 189.827 192.903C189.203 192.781 188.795 192.173 188.919 191.553C189.156 190.344 189.343 189.129 189.476 187.927C189.547 187.295 190.115 186.84 190.746 186.91C191.378 186.98 191.833 187.549 191.763 188.181C191.68 188.924 191.577 189.679 191.457 190.425ZM189.605 197.862C189.595 197.925 189.579 197.989 189.557 198.052C189.142 199.267 188.671 200.478 188.157 201.651C187.902 202.233 187.223 202.498 186.642 202.243C186.06 201.988 185.793 201.308 186.05 200.727C186.538 199.613 186.985 198.463 187.38 197.308C187.585 196.707 188.239 196.386 188.84 196.591C189.379 196.776 189.692 197.319 189.605 197.862ZM192.013 182.13C191.927 182.666 191.47 183.081 190.908 183.096C190.272 183.113 189.744 182.611 189.727 181.976C189.695 180.761 189.611 179.531 189.475 178.319C189.406 177.687 189.86 177.118 190.491 177.048C191.123 176.978 191.692 177.433 191.762 178.064C191.904 179.34 191.993 180.636 192.027 181.916C192.029 181.989 192.024 182.06 192.013 182.13ZM185.408 206.792C185.385 206.936 185.333 207.078 185.252 207.21C184.581 208.303 183.855 209.381 183.095 210.413C182.718 210.924 181.998 211.034 181.486 210.657C180.974 210.28 180.865 209.56 181.242 209.048C181.964 208.068 182.653 207.045 183.29 206.007C183.622 205.465 184.331 205.296 184.872 205.628C185.283 205.879 185.48 206.345 185.408 206.792ZM190.663 172.365C190.592 172.804 190.268 173.181 189.809 173.298C189.193 173.454 188.567 173.081 188.411 172.465C188.113 171.287 187.759 170.106 187.362 168.953C187.155 168.352 187.473 167.697 188.074 167.49C188.675 167.283 189.329 167.602 189.537 168.202C189.956 169.416 190.328 170.66 190.642 171.9C190.682 172.056 190.687 172.214 190.663 172.365ZM187.203 163.132C187.146 163.483 186.928 163.803 186.587 163.976C186.02 164.263 185.328 164.036 185.041 163.469C184.49 162.382 183.888 161.305 183.25 160.269C182.916 159.728 183.084 159.02 183.626 158.686C184.167 158.353 184.876 158.521 185.209 159.062C185.88 160.153 186.515 161.286 187.094 162.43C187.208 162.655 187.241 162.9 187.203 163.132ZM181.813 154.872C181.77 155.139 181.633 155.392 181.408 155.577C180.917 155.981 180.192 155.91 179.789 155.419C179.014 154.477 178.192 153.557 177.344 152.685C176.901 152.23 176.91 151.502 177.367 151.058C177.823 150.615 178.551 150.625 178.994 151.081C179.886 151.999 180.752 152.967 181.567 153.958C181.784 154.224 181.864 154.558 181.813 154.872ZM174.75 147.986C174.72 148.171 174.645 148.351 174.521 148.51C174.13 149.011 173.407 149.1 172.906 148.71C171.945 147.96 170.941 147.243 169.921 146.579C169.389 146.232 169.239 145.518 169.585 144.987C169.932 144.454 170.645 144.304 171.177 144.651C172.251 145.351 173.308 146.106 174.32 146.895C174.665 147.162 174.815 147.585 174.75 147.986ZM166.345 142.816C166.328 142.92 166.297 143.024 166.249 143.124C165.978 143.699 165.293 143.946 164.718 143.675C163.618 143.157 162.481 142.679 161.339 142.255C160.743 142.034 160.441 141.37 160.661 140.776C160.882 140.18 161.545 139.877 162.141 140.098C163.344 140.545 164.541 141.048 165.699 141.593C166.173 141.816 166.424 142.322 166.345 142.816ZM157.015 139.621C157.011 139.644 157.007 139.668 157.001 139.691C156.862 140.311 156.246 140.701 155.627 140.562C154.752 140.366 153.86 140.194 152.976 140.052C152.656 140 152.336 139.953 152.017 139.908C151.387 139.82 150.948 139.239 151.036 138.61C151.112 137.971 151.704 137.541 152.334 137.629C152.67 137.676 153.006 137.726 153.343 137.78C154.273 137.93 155.211 138.11 156.131 138.317C156.727 138.45 157.111 139.025 157.015 139.621Z" fill="#91B3FA"/>
<path d="M179.328 214.6C179.292 214.826 179.188 215.043 179.017 215.219C178.582 215.665 178.13 216.111 177.672 216.543C177.21 216.98 176.482 216.959 176.045 216.497C175.609 216.035 175.628 215.307 176.091 214.87C176.525 214.459 176.955 214.036 177.368 213.613C177.811 213.158 178.54 213.148 178.995 213.592C179.274 213.864 179.386 214.243 179.328 214.6Z" fill="#91B3FA"/>
</g>
<path d="M166.399 210.942C166.598 210.826 166.701 210.599 166.657 210.374L165.404 203.95C167.63 201.856 169.539 199.391 171.022 196.617L177.546 196.15C177.775 196.134 177.968 195.974 178.027 195.752L180.051 188.166C180.11 187.944 180.022 187.71 179.832 187.581L174.407 183.927C174.503 180.783 174.076 177.695 173.188 174.77L177.474 169.823C177.624 169.65 177.648 169.4 177.533 169.201L173.6 162.406C173.485 162.207 173.257 162.104 173.032 162.148L166.608 163.401C164.514 161.174 162.049 159.266 159.275 157.783L158.808 151.258C158.792 151.029 158.632 150.836 158.41 150.777L150.824 148.753C150.602 148.694 150.368 148.782 150.239 148.972L146.585 154.397C143.441 154.301 140.353 154.728 137.428 155.616L132.481 151.33C132.308 151.18 132.058 151.156 131.86 151.271L125.065 155.204C124.866 155.319 124.763 155.547 124.807 155.772L126.06 162.196C123.833 164.29 121.925 166.755 120.442 169.529L113.917 169.996C113.688 170.012 113.495 170.172 113.436 170.394L111.413 177.98C111.354 178.202 111.442 178.436 111.632 178.565L117.057 182.219C116.961 185.363 117.388 188.451 118.276 191.376L113.99 196.322C113.84 196.495 113.816 196.745 113.931 196.944L117.864 203.739C117.979 203.938 118.207 204.041 118.432 203.997L124.856 202.744C126.95 204.971 129.415 206.878 132.189 208.361L132.656 214.886C132.672 215.115 132.832 215.309 133.054 215.368L140.64 217.39C140.862 217.45 141.096 217.362 141.225 217.172L144.879 211.747C148.023 211.843 151.111 211.416 154.036 210.528L158.983 214.813C159.156 214.963 159.406 214.988 159.605 214.873L166.399 210.942Z" fill="#91B3FA"/>
<path d="M153.523 184.331C152.911 188.129 149.585 191.015 145.626 190.962C141.275 190.904 137.782 187.316 137.841 182.965C137.869 180.857 138.717 178.886 140.227 177.416C141.737 175.945 143.73 175.151 145.838 175.18C150.189 175.238 153.681 178.826 153.623 183.177C153.618 183.568 153.584 183.954 153.523 184.331ZM139.76 182.095C139.713 182.388 139.687 182.687 139.682 182.989C139.637 186.325 142.315 189.075 145.651 189.12C148.987 189.165 151.739 186.488 151.782 183.151C151.827 179.815 149.149 177.065 145.813 177.02C144.197 176.998 142.669 177.607 141.511 178.735C140.57 179.651 139.965 180.821 139.76 182.095Z" fill="#BDD0FB"/>
<path d="M164.802 185.989C164.697 186.641 164.558 187.292 164.386 187.939C164.332 188.143 164.274 188.346 164.213 188.547C163.913 189.542 163.534 190.512 163.082 191.442C163.076 191.455 163.07 191.467 163.064 191.48C163.046 191.516 163.029 191.552 163.011 191.587C162.977 191.657 162.941 191.726 162.906 191.795C162.813 191.977 162.615 192.071 162.424 192.04C162.377 192.032 162.331 192.018 162.287 191.995C162.061 191.879 161.972 191.602 162.087 191.376C162.683 190.212 163.157 188.975 163.497 187.701C165.186 181.373 163.363 174.92 159.231 170.42C156.933 167.916 153.921 166.017 150.401 165.078C149.784 164.913 149.163 164.781 148.541 164.681C144.354 164.007 140.098 164.787 136.378 166.94C132.105 169.413 129.051 173.403 127.778 178.173C125.151 188.025 131.026 198.17 140.873 200.797C141.48 200.959 142.093 201.09 142.71 201.189C145.381 201.619 148.116 201.459 150.719 200.713C150.786 200.694 150.854 200.69 150.919 200.701C151.089 200.728 151.238 200.851 151.288 201.028C151.357 201.273 151.218 201.527 150.972 201.597C148.239 202.381 145.367 202.549 142.563 202.097C141.916 201.993 141.273 201.856 140.635 201.686C130.296 198.928 124.13 188.271 126.887 177.936C128.223 172.928 131.429 168.74 135.915 166.143C139.82 163.882 144.288 163.063 148.684 163.771C149.337 163.876 149.989 164.015 150.637 164.188C155.645 165.524 159.833 168.73 162.43 173.216C164.692 177.123 165.51 181.593 164.802 185.989Z" fill="#BDD0FB"/>
<g opacity="0.3">
<path d="M168.479 271.683C168.43 271.987 168.187 272.234 167.866 272.275C167.268 272.351 166.658 272.409 166.056 272.449C165.665 272.475 165.326 272.179 165.3 271.787C165.273 271.395 165.571 271.057 165.962 271.031C166.536 270.993 167.117 270.937 167.688 270.865C168.077 270.816 168.432 271.091 168.482 271.481C168.491 271.55 168.489 271.618 168.479 271.683Z" fill="#91B3FA"/>
<path d="M163.014 271.868C162.957 272.224 162.638 272.485 162.271 272.464C161.234 272.404 160.188 272.289 159.163 272.124C158.947 272.089 158.731 272.052 158.515 272.012C158.129 271.941 157.891 271.553 157.943 271.185C158.014 270.799 158.384 270.543 158.77 270.613C158.977 270.651 159.183 270.687 159.39 270.72C160.368 270.878 161.365 270.987 162.354 271.044C162.746 271.067 163.045 271.403 163.023 271.795C163.02 271.82 163.018 271.845 163.014 271.868ZM155.755 270.541C155.75 270.574 155.742 270.608 155.732 270.641C155.615 271.016 155.216 271.225 154.841 271.108C153.639 270.733 152.449 270.28 151.306 269.761C150.948 269.599 150.791 269.176 150.952 268.82C151.114 268.462 151.535 268.304 151.893 268.466C152.984 268.961 154.118 269.393 155.265 269.75C155.607 269.857 155.811 270.197 155.755 270.541ZM149.035 267.493C149.021 267.582 148.989 267.67 148.939 267.751C148.734 268.086 148.296 268.19 147.961 267.985C146.889 267.327 145.847 266.596 144.863 265.809C144.556 265.564 144.506 265.118 144.752 264.81C144.997 264.504 145.444 264.454 145.751 264.699C146.689 265.449 147.682 266.146 148.705 266.773C148.958 266.929 149.08 267.217 149.035 267.493ZM143.27 262.886C143.247 263.031 143.178 263.17 143.065 263.281C142.784 263.555 142.334 263.55 142.06 263.268C141.18 262.366 140.349 261.402 139.59 260.402C139.353 260.089 139.415 259.643 139.726 259.406C140.038 259.168 140.484 259.229 140.722 259.542C141.446 260.495 142.239 261.415 143.077 262.275C143.241 262.443 143.305 262.671 143.27 262.886ZM138.805 257.01C138.772 257.213 138.652 257.4 138.461 257.512C138.122 257.709 137.687 257.594 137.489 257.255C136.856 256.167 136.285 255.031 135.79 253.876C135.634 253.515 135.802 253.097 136.163 252.943C136.524 252.788 136.942 252.956 137.096 253.316C137.568 254.418 138.113 255.502 138.717 256.539C138.804 256.688 138.831 256.854 138.805 257.01ZM135.902 250.231C135.86 250.494 135.67 250.722 135.397 250.801C135.02 250.91 134.626 250.693 134.517 250.316C134.168 249.108 133.89 247.866 133.694 246.626C133.634 246.237 133.897 245.874 134.285 245.813C134.672 245.751 135.037 246.016 135.098 246.403C135.286 247.586 135.55 248.769 135.883 249.921C135.913 250.025 135.918 250.13 135.902 250.231ZM134.745 242.949C134.692 243.278 134.412 243.534 134.068 243.546C133.676 243.559 133.347 243.252 133.334 242.859C133.292 241.606 133.328 240.334 133.441 239.077C133.483 238.686 133.823 238.398 134.213 238.433C134.604 238.468 134.892 238.814 134.857 239.205C134.748 240.403 134.714 241.617 134.754 242.811C134.755 242.858 134.752 242.904 134.745 242.949ZM136.411 232.041C136.404 232.081 136.394 232.122 136.38 232.163C136.039 233.141 135.745 234.156 135.508 235.178C135.471 235.333 135.437 235.485 135.404 235.637C135.321 236.021 134.944 236.265 134.56 236.183C134.175 236.101 133.921 235.718 134.014 235.339C134.049 235.177 134.085 235.015 134.124 234.853C134.373 233.785 134.68 232.722 135.038 231.696C135.167 231.325 135.572 231.13 135.943 231.259C136.273 231.373 136.464 231.707 136.411 232.041Z" fill="#91B3FA"/>
</g>
<g opacity="0.3">
<path d="M194.384 246.285C194.322 246.668 193.963 246.931 193.578 246.875C193.19 246.818 192.921 246.456 192.979 246.068C193.152 244.899 193.255 243.71 193.285 242.533C193.299 242.143 193.621 241.83 194.014 241.841C194.407 241.851 194.716 242.178 194.706 242.57C194.674 243.804 194.566 245.051 194.385 246.276C194.385 246.278 194.385 246.281 194.384 246.285ZM193.637 249.843C193.633 249.868 193.627 249.893 193.621 249.918C193.295 251.112 192.893 252.297 192.427 253.443C192.278 253.806 191.864 253.981 191.501 253.833C191.137 253.685 190.964 253.269 191.11 252.907C191.555 251.814 191.939 250.683 192.25 249.544C192.353 249.165 192.744 248.942 193.122 249.046C193.477 249.142 193.694 249.489 193.637 249.843ZM194.569 239.03C194.519 239.341 194.265 239.592 193.936 239.624C193.546 239.662 193.198 239.377 193.16 238.986C193.045 237.809 192.857 236.63 192.601 235.48C192.517 235.096 192.758 234.717 193.141 234.632C193.524 234.547 193.904 234.789 193.989 235.172C194.257 236.377 194.453 237.614 194.574 238.847C194.58 238.91 194.578 238.972 194.569 239.03ZM190.894 256.565C190.881 256.645 190.854 256.724 190.813 256.799C190.209 257.88 189.533 258.934 188.802 259.933C188.57 260.25 188.126 260.319 187.809 260.087C187.493 259.855 187.425 259.411 187.655 259.094C188.352 258.142 188.997 257.137 189.572 256.106C189.763 255.764 190.197 255.641 190.539 255.832C190.807 255.981 190.94 256.279 190.894 256.565ZM192.994 231.948C192.954 232.196 192.783 232.416 192.53 232.505C192.16 232.636 191.754 232.442 191.623 232.072C191.23 230.96 190.764 229.861 190.239 228.804C190.064 228.452 190.208 228.026 190.559 227.851C190.91 227.676 191.337 227.82 191.512 228.171C192.062 229.279 192.551 230.431 192.963 231.597C193.004 231.714 193.012 231.834 192.994 231.948ZM189.766 225.449C189.735 225.639 189.628 225.816 189.455 225.93C189.127 226.146 188.686 226.055 188.471 225.727C187.821 224.739 187.106 223.783 186.345 222.884C186.091 222.584 186.129 222.135 186.428 221.882C186.728 221.628 187.176 221.666 187.429 221.965C188.227 222.908 188.977 223.91 189.658 224.945C189.76 225.1 189.794 225.28 189.766 225.449ZM185.074 219.91C185.052 220.044 184.993 220.173 184.894 220.279C184.628 220.567 184.178 220.584 183.89 220.318C183.023 219.514 182.099 218.758 181.144 218.068C180.827 217.838 180.754 217.394 180.984 217.076C181.214 216.758 181.658 216.686 181.976 216.916C182.977 217.639 183.947 218.433 184.856 219.275C185.037 219.443 185.111 219.683 185.074 219.91Z" fill="#91B3FA"/>
<path d="M186.586 262.449C186.564 262.584 186.503 262.715 186.402 262.822C185.985 263.265 185.554 263.698 185.119 264.109C184.834 264.378 184.384 264.366 184.114 264.081C183.846 263.796 183.858 263.346 184.142 263.076C184.557 262.684 184.968 262.271 185.366 261.849C185.635 261.563 186.085 261.549 186.371 261.818C186.55 261.986 186.622 262.224 186.586 262.449Z" fill="#91B3FA"/>
</g>
<path d="M177.615 260.405C177.748 260.328 177.817 260.175 177.788 260.025L176.949 255.726C178.439 254.325 179.716 252.676 180.708 250.819L185.074 250.507C185.227 250.496 185.356 250.389 185.396 250.241L186.75 245.165C186.79 245.017 186.731 244.86 186.603 244.774L182.973 242.329C183.037 240.225 182.751 238.159 182.157 236.202L185.025 232.892C185.125 232.776 185.141 232.609 185.064 232.476L182.432 227.929C182.355 227.796 182.202 227.727 182.052 227.756L177.753 228.595C176.352 227.105 174.703 225.828 172.846 224.836L172.534 220.47C172.523 220.317 172.416 220.188 172.268 220.148L167.192 218.794C167.044 218.754 166.886 218.813 166.801 218.941L164.356 222.571C162.252 222.507 160.186 222.793 158.229 223.387L154.919 220.519C154.803 220.419 154.636 220.403 154.503 220.479L149.956 223.111C149.823 223.188 149.754 223.341 149.783 223.491L150.622 227.79C149.132 229.191 147.855 230.84 146.863 232.697L142.497 233.009C142.344 233.02 142.215 233.127 142.175 233.275L140.821 238.351C140.781 238.499 140.84 238.656 140.968 238.742L144.598 241.187C144.534 243.291 144.82 245.357 145.414 247.314L142.546 250.624C142.445 250.74 142.43 250.907 142.506 251.04L145.138 255.587C145.215 255.72 145.368 255.789 145.518 255.76L149.817 254.921C151.218 256.411 152.867 257.688 154.724 258.68L155.036 263.046C155.047 263.199 155.154 263.328 155.302 263.368L160.378 264.722C160.526 264.762 160.683 264.703 160.769 264.575L163.214 260.945C165.318 261.009 167.384 260.723 169.341 260.129L172.651 262.997C172.767 263.098 172.934 263.113 173.067 263.037L177.615 260.405Z" fill="#91B3FA"/>
<path d="M169.093 242.624C168.911 243.756 168.373 244.795 167.537 245.61C166.508 246.612 165.151 247.152 163.715 247.133C160.752 247.094 158.373 244.65 158.412 241.686C158.457 238.718 160.896 236.343 163.859 236.383C165.295 236.402 166.637 236.979 167.639 238.008C168.641 239.037 169.182 240.394 169.162 241.83C169.158 242.099 169.135 242.364 169.093 242.624ZM159.883 241.127C159.853 241.316 159.836 241.509 159.833 241.706C159.804 243.886 161.554 245.683 163.734 245.712C164.79 245.726 165.789 245.328 166.545 244.592C167.302 243.855 167.725 242.868 167.741 241.811C167.755 240.755 167.357 239.756 166.621 239C165.884 238.243 164.897 237.819 163.84 237.804C161.857 237.778 160.19 239.224 159.883 241.127Z" fill="#BDD0FB"/>
<path d="M176.942 243.787C176.87 244.231 176.776 244.675 176.658 245.118C176.423 245.999 176.099 246.856 175.692 247.669C175.673 247.705 175.655 247.742 175.636 247.778C175.492 248.059 175.187 248.204 174.891 248.156C174.819 248.144 174.748 248.121 174.679 248.086C174.33 247.907 174.193 247.479 174.37 247.13C174.757 246.375 175.063 245.574 175.283 244.751C175.295 244.706 175.307 244.66 175.318 244.615C175.819 242.662 175.814 240.659 175.333 238.755C175.072 237.721 174.67 236.717 174.131 235.766C174.127 235.758 174.122 235.751 174.118 235.743C174.104 235.719 174.091 235.696 174.077 235.672C172.476 232.906 169.893 230.929 166.805 230.105C166.405 229.998 166.004 229.913 165.601 229.848C162.89 229.412 160.135 229.917 157.726 231.311C154.96 232.912 152.983 235.495 152.16 238.583C151.338 241.669 151.764 244.895 153.365 247.662C154.966 250.428 157.549 252.405 160.637 253.229C161.03 253.334 161.427 253.418 161.826 253.483C163.555 253.761 165.326 253.658 167.011 253.175C167.115 253.145 167.22 253.14 167.32 253.156C167.583 253.198 167.812 253.388 167.89 253.662C167.997 254.04 167.781 254.433 167.402 254.541C165.517 255.082 163.535 255.197 161.601 254.887C161.154 254.815 160.71 254.721 160.271 254.603C156.815 253.681 153.926 251.469 152.135 248.374C150.344 245.279 149.862 241.674 150.786 238.217C151.707 234.762 153.919 231.872 157.015 230.081C159.709 228.521 162.792 227.956 165.825 228.444C166.275 228.517 166.725 228.612 167.172 228.731C173.863 230.517 178.021 237.093 176.942 243.787Z" fill="#BDD0FB"/>
<path d="M196.06 13.8732C195.142 57.2162 192.163 206.722 193.585 259.703C193.736 265.316 197.582 269.821 202.38 270.004C226.109 270.912 313.099 273.215 351.912 271.31C359.996 270.913 366.425 263.253 366.593 253.789C367.4 208.295 369.179 80.3382 364.95 21.7202C364.443 14.6972 359.731 9.10421 353.736 8.40222C327.893 5.37821 240.529 -2.01378 206.997 0.532215C200.949 0.991215 196.211 6.78622 196.06 13.8732Z" fill="url(#paint1_linear_4553_94023)"/>
<path d="M206.648 27.1712C205.371 62.1552 201.342 178.54 202.621 221.576C202.808 227.866 207.046 232.953 212.417 233.32C234.532 234.834 309.981 238.172 342.417 235.134C348.258 234.587 352.841 229.061 353.156 222.216C354.8 186.525 359.519 78.1552 358.294 35.6012C358.098 28.8122 353.603 23.2682 347.82 22.6612C323.896 20.1482 243.722 14.1692 216.159 15.9282C210.985 16.2582 206.869 21.1142 206.648 27.1712Z" fill="#91B3FA"/>
<path opacity="0.33" d="M212.843 34.0595C211.675 66.6025 207.99 174.865 209.159 214.898C209.33 220.749 213.206 225.481 218.118 225.823C238.344 227.231 307.351 230.336 337.018 227.51C342.36 227.001 346.552 221.861 346.84 215.494C348.343 182.293 352.66 81.4865 351.539 41.9015C351.36 35.5865 347.249 30.4295 341.96 29.8645C320.078 27.5265 246.75 21.9645 221.54 23.6015C216.809 23.9085 213.045 28.4255 212.843 34.0595Z" fill="white"/>
<path opacity="0.66" d="M254.705 8.1076C254.705 9.4376 255.591 10.5346 256.726 10.6036C262.331 10.9466 278.119 11.9186 285.175 12.3976C286.566 12.4916 287.658 11.0286 287.394 9.4286L287.349 9.1556C287.169 8.0636 286.395 7.2416 285.448 7.1396C280.678 6.6286 266.286 5.2106 256.751 5.6086C255.606 5.6566 254.705 6.7666 254.705 8.1076Z" fill="url(#paint2_linear_4553_94023)"/>
<path opacity="0.54" d="M315.433 194.499H246.645C245.941 194.499 245.37 193.928 245.37 193.224V174.619C245.37 173.915 245.941 173.344 246.645 173.344H315.433C316.137 173.344 316.708 173.915 316.708 174.619V193.224C316.708 193.929 316.137 194.499 315.433 194.499Z" fill="white"/>
<path opacity="0.54" d="M315.761 210.492H246.973C246.269 210.492 245.698 209.921 245.698 209.217V201.189C245.698 200.485 246.269 199.914 246.973 199.914H315.761C316.465 199.914 317.036 200.485 317.036 201.189V209.217C317.036 209.921 316.465 210.492 315.761 210.492Z" fill="white"/>
<path d="M273.519 154.595C286.161 154.595 296.41 144.346 296.41 131.704C296.41 119.061 286.161 108.812 273.519 108.812C260.877 108.812 250.628 119.061 250.628 131.704C250.628 144.346 260.877 154.595 273.519 154.595Z" fill="url(#paint3_linear_4553_94023)"/>
<path d="M273.519 153.83C285.741 153.83 295.649 143.922 295.649 131.7C295.649 119.478 285.741 109.57 273.519 109.57C261.297 109.57 251.389 119.478 251.389 131.7C251.389 143.922 261.297 153.83 273.519 153.83Z" fill="url(#paint4_linear_4553_94023)"/>
<path opacity="0.7" d="M255.093 123.64C254.981 123.642 254.867 123.62 254.759 123.568C254.39 123.392 254.234 122.95 254.411 122.581C257.881 115.323 265.029 110.709 273.066 110.536C274.349 110.509 275.635 110.597 276.891 110.797C277.294 110.861 277.569 111.241 277.505 111.644C277.441 112.048 277.063 112.326 276.657 112.258C275.49 112.072 274.292 111.99 273.098 112.015C265.623 112.175 258.975 116.468 255.746 123.218C255.621 123.479 255.364 123.634 255.093 123.64Z" fill="white"/>
<path opacity="0.78" d="M287.252 145.416C294.567 138.101 294.567 126.242 287.252 118.928C279.938 111.613 268.079 111.613 260.764 118.928C253.45 126.242 253.45 138.101 260.764 145.416C268.079 152.73 279.938 152.73 287.252 145.416Z" fill="white"/>
<path d="M272.482 146.036V140.26H267.476C266.945 140.26 266.514 139.829 266.514 139.298C266.514 138.767 266.945 138.336 267.476 138.336H272.482V135.565H267.476C266.945 135.565 266.514 135.134 266.514 134.603C266.514 134.072 266.945 133.641 267.476 133.641H271.52L265.845 123.406C265.489 122.765 265.953 121.977 266.687 121.977H268.078C268.441 121.977 268.773 122.181 268.937 122.506L272.673 129.908C273.291 131.215 273.751 132.256 274.212 133.409H274.328C274.714 132.331 275.215 131.139 275.87 129.829L279.756 122.489C279.923 122.174 280.25 121.977 280.607 121.977H281.883C282.628 121.977 283.091 122.787 282.711 123.429L276.676 133.641H280.72C281.251 133.641 281.682 134.072 281.682 134.603C281.682 135.134 281.251 135.565 280.72 135.565H275.676V138.336H280.72C281.251 138.336 281.682 138.767 281.682 139.298C281.682 139.829 281.251 140.26 280.72 140.26H275.676V146.036C275.676 146.567 275.245 146.998 274.714 146.998H273.444C272.913 146.998 272.482 146.567 272.482 146.036Z" fill="url(#paint5_linear_4553_94023)"/>
<path d="M301.904 132.588C318.04 132.588 331.12 119.508 331.12 103.372C331.12 87.2367 318.04 74.1562 301.904 74.1562C285.768 74.1562 272.688 87.2367 272.688 103.372C272.688 119.508 285.768 132.588 301.904 132.588Z" fill="url(#paint6_linear_4553_94023)"/>
<path d="M301.904 131.621C317.502 131.621 330.148 118.976 330.148 103.377C330.148 87.7781 317.502 75.1328 301.904 75.1328C286.305 75.1328 273.66 87.7781 273.66 103.377C273.66 118.976 286.305 131.621 301.904 131.621Z" fill="url(#paint7_linear_4553_94023)"/>
<path opacity="0.7" d="M278.383 92.8662C278.274 92.8682 278.163 92.8462 278.058 92.7962C277.699 92.6242 277.548 92.1952 277.719 91.8372C282.111 82.6512 291.159 76.8102 301.33 76.5922C302.951 76.5572 304.58 76.6692 306.171 76.9232C306.563 76.9862 306.83 77.3552 306.768 77.7472C306.705 78.1392 306.339 78.4122 305.944 78.3442C304.438 78.1042 302.896 77.9982 301.361 78.0312C291.736 78.2372 283.174 83.7652 279.017 92.4572C278.897 92.7102 278.646 92.8612 278.383 92.8662Z" fill="white"/>
<path opacity="0.78" d="M319.434 120.88C328.769 111.544 328.769 96.4087 319.434 87.0733C310.098 77.7379 294.963 77.7379 285.627 87.0733C276.292 96.4087 276.292 111.544 285.627 120.88C294.963 130.215 310.098 130.215 319.434 120.88Z" fill="white"/>
<path d="M300.611 121.388V113.809H294.041C293.344 113.809 292.778 113.243 292.778 112.545C292.778 111.849 293.343 111.282 294.041 111.282H300.611V107.646H294.041C293.344 107.646 292.778 107.08 292.778 106.382C292.778 105.686 293.343 105.12 294.041 105.12H299.348L291.901 91.6875C291.434 90.8455 292.043 89.8125 293.006 89.8125H294.832C295.309 89.8125 295.745 90.0805 295.959 90.5065L300.862 100.22C301.672 101.935 302.277 103.301 302.882 104.815H303.034C303.54 103.4 304.198 101.837 305.058 100.117L310.157 90.4845C310.376 90.0715 310.805 89.8125 311.273 89.8125H312.948C313.926 89.8125 314.533 90.8765 314.035 91.7175L306.115 105.12H311.422C312.119 105.12 312.685 105.685 312.685 106.382C312.685 107.08 312.12 107.646 311.422 107.646H304.803V111.282H311.422C312.119 111.282 312.685 111.847 312.685 112.545C312.685 113.243 312.12 113.809 311.422 113.809H304.803V121.388C304.803 122.085 304.238 122.651 303.54 122.651H301.874C301.177 122.651 300.611 122.086 300.611 121.388Z" fill="url(#paint8_linear_4553_94023)"/>
<path d="M341.535 101.788C363.02 101.788 380.437 84.3714 380.437 62.8864C380.437 41.4014 363.02 23.9844 341.535 23.9844C320.05 23.9844 302.633 41.4014 302.633 62.8864C302.633 84.3714 320.05 101.788 341.535 101.788Z" fill="url(#paint9_linear_4553_94023)"/>
<path d="M341.535 100.489C362.306 100.489 379.143 83.6518 379.143 62.8814C379.143 42.1111 362.306 25.2734 341.535 25.2734C320.765 25.2734 303.927 42.1111 303.927 62.8814C303.927 83.6518 320.765 100.489 341.535 100.489Z" fill="url(#paint10_linear_4553_94023)"/>
<path opacity="0.7" d="M310.21 48.635C310.104 48.637 309.995 48.616 309.893 48.566C309.543 48.399 309.395 47.979 309.563 47.63C315.369 35.487 327.33 27.765 340.777 27.477C342.923 27.431 345.076 27.578 347.177 27.915C347.56 27.976 347.821 28.336 347.759 28.719C347.698 29.102 347.34 29.364 346.955 29.301C344.937 28.978 342.869 28.836 340.807 28.881C327.893 29.158 316.406 36.574 310.83 48.236C310.711 48.483 310.467 48.63 310.21 48.635Z" fill="white"/>
<path opacity="0.78" d="M364.878 86.1952C377.309 73.7645 377.309 53.6105 364.878 41.1798C352.447 28.7492 332.293 28.7491 319.863 41.1798C307.432 53.6105 307.432 73.7645 319.863 86.1952C332.293 98.6259 352.447 98.6259 364.878 86.1952Z" fill="white"/>
<path d="M339.18 85.3453V74.8673H330.098C329.134 74.8673 328.352 74.0853 328.352 73.1213C328.352 72.1573 329.134 71.3753 330.098 71.3753H339.18V66.3483H330.098C329.134 66.3483 328.352 65.5663 328.352 64.6023C328.352 63.6383 329.134 62.8563 330.098 62.8563H337.434L327.14 44.2873C326.495 43.1233 327.336 41.6953 328.667 41.6953H331.191C331.85 41.6953 332.453 42.0663 332.75 42.6543L339.528 56.0833C340.648 58.4543 341.484 60.3423 342.32 62.4353H342.53C343.229 60.4793 344.139 58.3183 345.328 55.9413L352.377 42.6243C352.68 42.0523 353.273 41.6953 353.92 41.6953H356.235C357.587 41.6953 358.426 43.1653 357.738 44.3293L346.789 62.8563H354.125C355.089 62.8563 355.871 63.6383 355.871 64.6023C355.871 65.5663 355.089 66.3483 354.125 66.3483H344.975V71.3753H354.125C355.089 71.3753 355.871 72.1573 355.871 73.1213C355.871 74.0853 355.089 74.8673 354.125 74.8673H344.975V85.3453C344.975 86.3093 344.193 87.0913 343.229 87.0913H340.926C339.962 87.0913 339.18 86.3093 339.18 85.3453Z" fill="url(#paint11_linear_4553_94023)"/>
<path d="M252.053 69.3127H118.756C117.603 69.3127 116.669 68.3787 116.669 67.2257V2.18075C116.669 1.02775 117.603 0.09375 118.756 0.09375H252.053C253.206 0.09375 254.14 1.02775 254.14 2.18075V67.2247C254.14 68.3777 253.205 69.3127 252.053 69.3127Z" fill="#7D97F4"/>
<path opacity="0.41" d="M247.851 68.1161H121.657C120.504 68.1161 119.57 67.1821 119.57 66.0291V10.7511C119.57 9.59806 120.504 8.66406 121.657 8.66406H247.851C249.004 8.66406 249.938 9.59806 249.938 10.7511V66.0291C249.938 67.1821 249.003 68.1161 247.851 68.1161Z" fill="white"/>
<g opacity="0.67">
<path d="M131.717 19.8203H123.838V65.2783H131.717V19.8203Z" fill="white"/>
</g>
<g opacity="0.67">
<path d="M142.298 19.8203H134.419V65.2783H142.298V19.8203Z" fill="white"/>
</g>
<g opacity="0.67">
<path d="M152.658 19.8203H144.779V65.2783H152.658V19.8203Z" fill="white"/>
</g>
<g opacity="0.67">
<path d="M163.239 19.8203H155.36V65.2783H163.239V19.8203Z" fill="white"/>
</g>
<g opacity="0.67">
<path d="M173.285 19.8203H165.406V65.2783H173.285V19.8203Z" fill="white"/>
</g>
<g opacity="0.67">
<path d="M183.866 19.8203H175.987V65.2783H183.866V19.8203Z" fill="white"/>
</g>
<g opacity="0.67">
<path d="M194.226 19.8203H186.347V65.2783H194.226V19.8203Z" fill="white"/>
</g>
<g opacity="0.67">
<path d="M204.807 19.8203H196.928V65.2783H204.807V19.8203Z" fill="white"/>
</g>
<g opacity="0.67">
<path d="M215.354 19.8203H207.475V65.2783H215.354V19.8203Z" fill="white"/>
</g>
<g opacity="0.67">
<path d="M225.934 19.8203H218.055V65.2783H225.934V19.8203Z" fill="white"/>
</g>
<g opacity="0.67">
<path d="M236.295 19.8203H228.416V65.2783H236.295V19.8203Z" fill="white"/>
</g>
<g opacity="0.67">
<path d="M246.876 19.8203H238.997V65.2783H246.876V19.8203Z" fill="white"/>
</g>
<path d="M254.174 14.561V4.336C254.174 1.946 252.202 0 249.812 0H120.996C118.606 0 116.694 1.946 116.694 4.336V14.561H254.174Z" fill="#7D97F4"/>
<path d="M131.765 43.3359H123.886V65.2809H131.765V43.3359Z" fill="url(#paint12_linear_4553_94023)"/>
<path d="M142.346 36.6172H134.467V65.2812H142.346V36.6172Z" fill="url(#paint13_linear_4553_94023)"/>
<path d="M152.706 48.6797H144.827V65.2817H152.706V48.6797Z" fill="url(#paint14_linear_4553_94023)"/>
<path d="M163.287 30.6016H155.408V65.2786H163.287V30.6016Z" fill="url(#paint15_linear_4553_94023)"/>
<path d="M173.333 24.7969H165.454V65.2789H173.333V24.7969Z" fill="url(#paint16_linear_4553_94023)"/>
<path d="M183.914 52.9453H176.035V65.2813H183.914V52.9453Z" fill="url(#paint17_linear_4553_94023)"/>
<path d="M194.274 40.625H186.395V65.282H194.274V40.625Z" fill="url(#paint18_linear_4553_94023)"/>
<path d="M204.855 36.6172H196.976V65.2812H204.855V36.6172Z" fill="url(#paint19_linear_4553_94023)"/>
<path d="M215.4 42.5469H207.521V65.2759H215.4V42.5469Z" fill="url(#paint20_linear_4553_94023)"/>
<path d="M225.982 27.4922H218.103V65.2792H225.982V27.4922Z" fill="url(#paint21_linear_4553_94023)"/>
<path d="M236.342 30.6016H228.463V65.2786H236.342V30.6016Z" fill="url(#paint22_linear_4553_94023)"/>
<path d="M246.923 34.9531H239.044V65.2771H246.923V34.9531Z" fill="url(#paint23_linear_4553_94023)"/>
<path d="M188.842 271C184.922 271.339 178.119 271.889 172.755 272.125C169.531 272.267 167.675 271.951 166.606 271.523C166.608 271.644 166.611 271.757 166.616 271.863C166.641 272.427 167.1 272.879 167.67 272.911C177.804 273.477 185.864 273.107 188.734 272.932C189.327 272.896 189.681 272.251 189.377 271.745C189.225 271.493 189.041 271.245 188.842 271Z" fill="url(#paint24_linear_4553_94023)"/>
<path d="M172.755 272.126C178.118 271.89 184.922 271.34 188.842 271.001C184.988 266.273 172.755 263.086 172.755 263.086H169.3C166.924 266.511 166.58 269.772 166.606 271.525C167.675 271.953 169.531 272.268 172.755 272.126Z" fill="url(#paint25_linear_4553_94023)"/>
<path d="M168.718 257.445L169.041 263.843C169.076 264.536 169.595 265.118 170.288 265.217C170.978 265.316 171.903 265.328 172.883 265.002C173.486 264.801 173.934 264.293 174.045 263.673L175.162 257.445H168.718Z" fill="url(#paint26_linear_4553_94023)"/>
<path d="M128.621 278.387C126.921 278.081 126.152 276.939 125.829 275.719C125.827 275.73 125.825 275.741 125.823 275.752C125.573 277.039 126.153 278.373 127.312 279.007C128.713 279.774 130.245 279.904 131.434 279.841C132.71 279.773 133.881 279.091 134.525 277.999L134.534 277.983C133.252 278.801 131.455 278.898 128.621 278.387Z" fill="url(#paint27_linear_4553_94023)"/>
<path d="M136.635 259.423H133.786C129.446 259.308 126.721 271.139 125.829 275.72C126.151 276.94 126.921 278.081 128.621 278.388C131.456 278.899 133.254 278.803 134.534 277.984C136.879 273.996 138.041 268.156 138.6 264.748C139.235 260.871 136.635 259.423 136.635 259.423Z" fill="url(#paint28_linear_4553_94023)"/>
<path d="M134.151 253.484L132.569 259.777C132.375 260.549 132.744 261.347 133.458 261.713C134.343 262.167 135.589 262.644 136.734 262.506C137.273 262.441 137.72 262.062 137.898 261.555L140.221 254.935L134.151 253.484Z" fill="url(#paint29_linear_4553_94023)"/>
<path d="M189.808 170.606C189.808 170.606 175.669 258.984 175.902 259.47C175.902 259.47 171.997 261.245 167.74 259.696C167.74 259.696 169.019 212.452 172.014 194.337C172.014 194.337 147.884 236.564 140.222 257.605C140.222 257.605 136.225 257.128 132.917 254.951C132.917 254.951 158.898 178.944 165.829 168.82L189.808 170.606Z" fill="url(#paint30_linear_4553_94023)"/>
<path d="M172.579 194.022C172.476 194.022 172.372 193.994 172.278 193.935C172.012 193.769 171.931 193.418 172.098 193.152L177.382 184.713C177.465 184.581 177.598 184.488 177.751 184.457L181.639 183.675C181.947 183.613 182.246 183.812 182.308 184.12C182.37 184.428 182.171 184.727 181.863 184.789L178.214 185.523L173.061 193.755C172.953 193.927 172.768 194.022 172.579 194.022Z" fill="url(#paint31_linear_4553_94023)"/>
<path d="M254.688 84.0625C254.688 84.0625 245.148 86.1665 239.345 88.8455C238.192 89.3775 237.273 90.3085 236.75 91.4545C235.015 95.2565 229.822 104.79 219.752 109.339C221.202 111.264 223.537 115.266 224.554 121.996C230.602 117.495 235.823 109.978 238.33 97.6485C238.33 97.6485 240.239 98.6865 242.62 97.5295C243.878 96.9185 245.331 96.0515 246.421 95.3705C247.507 94.6915 248.317 93.6355 248.631 92.4025C249.046 90.7745 248.802 89.3425 248.802 87.8065L253.706 86.2875C253.706 86.2875 255.18 85.7315 254.688 84.0625Z" fill="url(#paint32_linear_4553_94023)"/>
<path d="M224.554 121.997C223.537 115.268 221.202 111.264 219.752 109.339C213.497 112.165 205.359 113.069 194.998 109.478C194.043 109.147 193.047 108.953 192.036 108.894C186.52 108.571 168.342 107.98 153.301 112.95C150.135 113.996 147.572 116.336 146.25 119.368C142.181 128.705 135.594 149.97 153.881 160.706C155.286 157.218 156.908 154.414 158.294 152.354C155.349 147.387 154.477 140.602 159.703 131.767C163.514 142.057 165.301 157.071 165.675 163.715C165.798 165.903 165.414 168.086 164.556 170.106L164.462 170.326C164.278 170.758 164.531 171.255 164.993 171.359C175.288 173.672 185.996 173.043 189.195 172.779C189.766 172.732 190.241 172.323 190.372 171.771C195.378 150.677 195.39 136.288 194.164 127.192C198.847 128.239 213.167 130.472 224.554 121.997Z" fill="url(#paint33_linear_4553_94023)"/>
<path d="M194.184 127.913C193.903 127.913 193.659 127.705 193.621 127.419C192.446 118.542 190.073 114.723 190.05 114.685C189.882 114.42 189.96 114.069 190.225 113.901C190.49 113.733 190.841 113.811 191.009 114.076C191.112 114.238 193.54 118.146 194.748 127.27C194.789 127.581 194.57 127.867 194.259 127.908C194.234 127.911 194.209 127.913 194.184 127.913Z" fill="url(#paint34_linear_4553_94023)"/>
<path d="M168.779 96.6094C168.779 96.6094 167.738 107.621 166.82 110.878C166.681 111.372 166.896 111.893 167.345 112.15C168.901 113.039 172.634 114.49 177.74 111.987C178.567 111.582 179.064 110.719 179.026 109.807L178.576 99.1664L168.779 96.6094Z" fill="url(#paint35_linear_4553_94023)"/>
<path d="M178.8 82.5156C178.8 82.5156 182.131 90.1676 182.355 94.1846C182.579 98.2006 183.444 100.808 178.8 101.616C174.156 102.425 170.244 100.111 168.124 96.1106C168.124 96.1106 164.803 89.9456 165.548 87.4216C166.293 84.8956 178.8 82.5156 178.8 82.5156Z" fill="url(#paint36_linear_4553_94023)"/>
<path d="M169.712 93.2366L169.976 93.1196C170.313 92.9716 170.457 92.5706 170.287 92.2436C169.632 90.9786 168.355 88.0786 170.005 87.4026C172.13 86.5306 180.55 84.8136 182.366 81.8266C184.112 78.9556 182.565 75.2496 180.24 74.1946C180.084 74.1236 179.901 74.1796 179.821 74.3306L179.627 74.6976C179.494 74.9486 179.124 74.9106 179.045 74.6376C178.969 74.3756 178.621 74.3256 178.477 74.5566C177.919 75.4506 176.411 76.8996 172.38 77.6436C166.651 78.7006 162.863 81.0196 162.769 84.9786C162.763 85.2306 162.495 85.3696 162.281 85.2386C161.858 84.9806 161.181 84.8596 160.276 85.6206C158.703 86.9436 159.346 90.3756 162.796 93.1986C162.96 93.3326 162.958 93.5886 162.781 93.7036C162.156 94.1106 161.223 95.0796 163.639 96.3706C166.137 97.7056 168.003 97.5966 168.721 97.4776C168.9 97.4476 169.015 97.2746 168.976 97.0986L168.209 93.6186C168.166 93.4216 168.316 93.2356 168.517 93.2356H169.712V93.2366Z" fill="url(#paint37_linear_4553_94023)"/>
<path d="M169.856 93.9712C169.856 93.9712 168.585 89.0832 166.394 90.4532C164.202 91.8242 167.531 95.9302 169.293 96.1132L169.856 93.9712Z" fill="url(#paint38_linear_4553_94023)"/>
<path d="M240.875 96.6639C240.749 96.6639 240.622 96.6219 240.517 96.5369C240.274 96.3389 240.237 95.9809 240.435 95.7379C240.798 95.2919 244.016 91.3569 245.273 90.6469C245.679 90.4179 245.928 90.1829 245.974 89.9869C245.98 89.9599 245.994 89.9029 245.967 89.8019L242.371 90.5229L240.27 92.3269C240.032 92.5309 239.673 92.5039 239.469 92.2659C239.265 92.0279 239.292 91.6689 239.53 91.4649L241.744 89.5649C241.818 89.5009 241.907 89.4579 242.002 89.4389L246.167 88.6049C246.391 88.5599 246.622 88.6539 246.75 88.8449C247.075 89.3279 247.187 89.8009 247.081 90.2509C246.956 90.7819 246.548 91.2359 245.833 91.6399C245.027 92.0959 242.635 94.8369 241.317 96.4589C241.203 96.5919 241.04 96.6639 240.875 96.6639Z" fill="url(#paint39_linear_4553_94023)"/>
<path d="M169.761 168.224L184.794 167.897C184.794 167.897 171.685 164.192 170.872 165.201C170.872 165.201 162.747 159.862 158.295 152.352C156.908 154.412 155.287 157.216 153.882 160.704C157.873 163.047 163.115 167.117 169.761 168.224Z" fill="url(#paint40_linear_4553_94023)"/>
<path d="M169.339 165.625C169.339 165.625 169.029 171.615 176.891 170.745C181.164 170.272 188.062 166.288 188.062 166.288C188.062 166.288 170.082 166.24 169.339 165.625Z" fill="url(#paint41_linear_4553_94023)"/>
<path d="M172.417 167.232C172.446 167.233 172.474 167.234 172.503 167.234L209.879 167.194C210.803 167.193 211.551 166.451 211.55 165.537C211.549 164.622 210.797 163.867 209.875 163.883L172.499 163.923C171.575 163.924 170.827 164.666 170.828 165.58C170.829 166.466 171.533 167.188 172.417 167.232Z" fill="url(#paint42_linear_4553_94023)"/>
<path d="M243.479 133.656H212.352C210.056 133.656 207.966 134.967 206.986 137.022L192.596 167.213H231.279C232.759 167.213 234.088 166.318 234.632 164.957L245.791 137.02C246.435 135.405 245.233 133.656 243.479 133.656Z" fill="url(#paint43_linear_4553_94023)"/>
<path d="M221.548 149.139C220.873 151.213 221.372 153.226 222.661 153.637C223.95 154.048 225.542 152.699 226.217 150.626C226.892 148.553 226.393 146.539 225.104 146.128C223.815 145.717 222.223 147.065 221.548 149.139Z" fill="#7D97F4"/>
</g>
<path d="M125.421 430V409.636H133.575C135.073 409.636 136.322 409.858 137.323 410.303C138.324 410.747 139.077 411.363 139.58 412.152C140.084 412.934 140.336 413.836 140.336 414.857C140.336 415.652 140.177 416.351 139.859 416.955C139.541 417.551 139.103 418.042 138.546 418.426C137.996 418.804 137.366 419.072 136.657 419.232V419.43C137.433 419.464 138.158 419.682 138.835 420.087C139.517 420.491 140.071 421.058 140.495 421.787C140.919 422.509 141.131 423.371 141.131 424.372C141.131 425.453 140.863 426.417 140.326 427.266C139.796 428.107 139.01 428.774 137.97 429.264C136.929 429.755 135.646 430 134.122 430H125.421ZM129.727 426.48H133.237C134.436 426.48 135.311 426.251 135.862 425.794C136.412 425.33 136.687 424.714 136.687 423.945C136.687 423.381 136.551 422.884 136.279 422.453C136.007 422.022 135.62 421.684 135.116 421.439C134.619 421.194 134.025 421.071 133.336 421.071H129.727V426.48ZM129.727 418.158H132.918C133.508 418.158 134.032 418.055 134.489 417.849C134.953 417.637 135.318 417.339 135.583 416.955C135.855 416.57 135.991 416.109 135.991 415.572C135.991 414.837 135.729 414.243 135.205 413.793C134.688 413.342 133.953 413.116 132.998 413.116H129.727V418.158ZM153.647 423.497V414.727H157.883V430H153.816V427.226H153.657C153.313 428.121 152.739 428.84 151.937 429.384C151.142 429.927 150.171 430.199 149.024 430.199C148.003 430.199 147.105 429.967 146.329 429.503C145.554 429.039 144.947 428.379 144.51 427.524C144.079 426.669 143.86 425.645 143.853 424.452V414.727H148.089V423.696C148.096 424.598 148.338 425.31 148.815 425.834C149.292 426.357 149.932 426.619 150.734 426.619C151.245 426.619 151.722 426.503 152.166 426.271C152.61 426.033 152.968 425.681 153.24 425.217C153.518 424.753 153.654 424.18 153.647 423.497ZM173.979 419.082L170.101 419.321C170.035 418.99 169.892 418.691 169.673 418.426C169.455 418.154 169.166 417.939 168.808 417.78C168.457 417.614 168.036 417.531 167.546 417.531C166.889 417.531 166.336 417.67 165.885 417.949C165.434 418.221 165.209 418.585 165.209 419.043C165.209 419.407 165.355 419.715 165.646 419.967C165.938 420.219 166.439 420.421 167.148 420.574L169.912 421.131C171.397 421.436 172.504 421.926 173.233 422.602C173.962 423.278 174.327 424.167 174.327 425.267C174.327 426.268 174.032 427.146 173.442 427.902C172.859 428.658 172.056 429.248 171.036 429.672C170.021 430.089 168.851 430.298 167.526 430.298C165.504 430.298 163.893 429.877 162.693 429.036C161.5 428.187 160.801 427.034 160.595 425.575L164.761 425.357C164.887 425.973 165.192 426.444 165.676 426.768C166.16 427.087 166.78 427.246 167.536 427.246C168.278 427.246 168.875 427.103 169.325 426.818C169.783 426.527 170.015 426.152 170.021 425.695C170.015 425.31 169.852 424.995 169.534 424.75C169.216 424.498 168.725 424.306 168.063 424.173L165.418 423.646C163.926 423.348 162.816 422.831 162.087 422.095C161.364 421.359 161.003 420.421 161.003 419.281C161.003 418.3 161.268 417.455 161.798 416.746C162.335 416.036 163.088 415.49 164.055 415.105C165.03 414.721 166.17 414.528 167.476 414.528C169.405 414.528 170.923 414.936 172.03 415.751C173.144 416.567 173.793 417.677 173.979 419.082ZM176.994 430V414.727H181.23V430H176.994ZM179.122 412.759C178.492 412.759 177.952 412.55 177.501 412.132C177.057 411.708 176.835 411.201 176.835 410.611C176.835 410.027 177.057 409.527 177.501 409.109C177.952 408.685 178.492 408.473 179.122 408.473C179.752 408.473 180.289 408.685 180.733 409.109C181.183 409.527 181.409 410.027 181.409 410.611C181.409 411.201 181.183 411.708 180.733 412.132C180.289 412.55 179.752 412.759 179.122 412.759ZM188.859 421.17V430H184.623V414.727H188.66V417.422H188.839C189.177 416.534 189.744 415.831 190.539 415.314C191.335 414.79 192.299 414.528 193.433 414.528C194.493 414.528 195.418 414.76 196.207 415.224C196.996 415.688 197.609 416.351 198.046 417.213C198.484 418.068 198.703 419.089 198.703 420.276V430H194.467V421.031C194.473 420.097 194.235 419.367 193.751 418.844C193.267 418.313 192.601 418.048 191.752 418.048C191.182 418.048 190.678 418.171 190.241 418.416C189.81 418.661 189.472 419.019 189.227 419.49C188.988 419.954 188.865 420.514 188.859 421.17ZM209.001 430.298C207.43 430.298 206.078 429.98 204.944 429.344C203.817 428.701 202.949 427.793 202.339 426.619C201.729 425.439 201.424 424.044 201.424 422.433C201.424 420.862 201.729 419.483 202.339 418.297C202.949 417.11 203.807 416.186 204.915 415.523C206.028 414.86 207.334 414.528 208.832 414.528C209.84 414.528 210.778 414.691 211.646 415.016C212.521 415.334 213.283 415.814 213.933 416.457C214.589 417.1 215.1 417.909 215.464 418.884C215.829 419.851 216.011 420.985 216.011 422.284V423.447H203.115V420.822H212.024C212.024 420.213 211.891 419.672 211.626 419.202C211.361 418.731 210.993 418.363 210.522 418.098C210.058 417.826 209.518 417.69 208.902 417.69C208.259 417.69 207.689 417.839 207.191 418.138C206.701 418.429 206.316 418.824 206.038 419.321C205.76 419.812 205.617 420.358 205.611 420.962V423.457C205.611 424.213 205.75 424.866 206.028 425.416C206.313 425.966 206.714 426.391 207.231 426.689C207.748 426.987 208.361 427.136 209.071 427.136C209.541 427.136 209.972 427.07 210.363 426.938C210.754 426.805 211.089 426.606 211.368 426.341C211.646 426.076 211.858 425.751 212.004 425.366L215.922 425.625C215.723 426.566 215.315 427.388 214.699 428.091C214.089 428.787 213.3 429.33 212.332 429.722C211.371 430.106 210.261 430.298 209.001 430.298ZM231.483 419.082L227.605 419.321C227.539 418.99 227.396 418.691 227.177 418.426C226.959 418.154 226.67 417.939 226.312 417.78C225.961 417.614 225.54 417.531 225.049 417.531C224.393 417.531 223.84 417.67 223.389 417.949C222.938 418.221 222.713 418.585 222.713 419.043C222.713 419.407 222.859 419.715 223.15 419.967C223.442 420.219 223.942 420.421 224.652 420.574L227.416 421.131C228.901 421.436 230.008 421.926 230.737 422.602C231.466 423.278 231.831 424.167 231.831 425.267C231.831 426.268 231.536 427.146 230.946 427.902C230.362 428.658 229.56 429.248 228.54 429.672C227.525 430.089 226.355 430.298 225.03 430.298C223.008 430.298 221.397 429.877 220.197 429.036C219.004 428.187 218.305 427.034 218.099 425.575L222.265 425.357C222.391 425.973 222.696 426.444 223.18 426.768C223.664 427.087 224.284 427.246 225.04 427.246C225.782 427.246 226.379 427.103 226.829 426.818C227.287 426.527 227.519 426.152 227.525 425.695C227.519 425.31 227.356 424.995 227.038 424.75C226.72 424.498 226.229 424.306 225.566 424.173L222.922 423.646C221.43 423.348 220.32 422.831 219.591 422.095C218.868 421.359 218.507 420.421 218.507 419.281C218.507 418.3 218.772 417.455 219.302 416.746C219.839 416.036 220.592 415.49 221.559 415.105C222.534 414.721 223.674 414.528 224.98 414.528C226.909 414.528 228.427 414.936 229.534 415.751C230.647 416.567 231.297 417.677 231.483 419.082ZM247.205 419.082L243.328 419.321C243.261 418.99 243.119 418.691 242.9 418.426C242.681 418.154 242.393 417.939 242.035 417.78C241.684 417.614 241.263 417.531 240.772 417.531C240.116 417.531 239.562 417.67 239.112 417.949C238.661 418.221 238.435 418.585 238.435 419.043C238.435 419.407 238.581 419.715 238.873 419.967C239.165 420.219 239.665 420.421 240.374 420.574L243.139 421.131C244.623 421.436 245.73 421.926 246.46 422.602C247.189 423.278 247.553 424.167 247.553 425.267C247.553 426.268 247.258 427.146 246.668 427.902C246.085 428.658 245.283 429.248 244.262 429.672C243.248 430.089 242.078 430.298 240.752 430.298C238.73 430.298 237.12 429.877 235.92 429.036C234.727 428.187 234.027 427.034 233.822 425.575L237.988 425.357C238.114 425.973 238.419 426.444 238.903 426.768C239.387 427.087 240.006 427.246 240.762 427.246C241.505 427.246 242.101 427.103 242.552 426.818C243.009 426.527 243.241 426.152 243.248 425.695C243.241 425.31 243.079 424.995 242.761 424.75C242.443 424.498 241.952 424.306 241.289 424.173L238.644 423.646C237.153 423.348 236.042 422.831 235.313 422.095C234.591 421.359 234.229 420.421 234.229 419.281C234.229 418.3 234.495 417.455 235.025 416.746C235.562 416.036 236.314 415.49 237.282 415.105C238.256 414.721 239.397 414.528 240.703 414.528C242.631 414.528 244.149 414.936 245.256 415.751C246.37 416.567 247.02 417.677 247.205 419.082ZM270.283 416.219C270.144 415.735 269.949 415.307 269.697 414.936C269.445 414.558 269.137 414.24 268.772 413.982C268.414 413.716 268.003 413.514 267.539 413.375C267.082 413.236 266.575 413.166 266.018 413.166C264.977 413.166 264.062 413.425 263.274 413.942C262.491 414.459 261.881 415.211 261.444 416.199C261.006 417.18 260.788 418.38 260.788 419.798C260.788 421.217 261.003 422.423 261.434 423.418C261.865 424.412 262.475 425.171 263.264 425.695C264.052 426.212 264.984 426.47 266.058 426.47C267.032 426.47 267.864 426.298 268.553 425.953C269.249 425.602 269.78 425.108 270.144 424.472C270.515 423.835 270.701 423.083 270.701 422.214L271.576 422.344H266.326V419.102H274.847V421.668C274.847 423.457 274.47 424.995 273.714 426.281C272.958 427.561 271.917 428.548 270.592 429.244C269.266 429.934 267.748 430.278 266.038 430.278C264.129 430.278 262.452 429.857 261.006 429.016C259.561 428.167 258.435 426.964 257.626 425.406C256.824 423.842 256.423 421.986 256.423 419.838C256.423 418.187 256.661 416.716 257.139 415.423C257.622 414.124 258.299 413.024 259.167 412.122C260.035 411.221 261.046 410.535 262.2 410.064C263.353 409.593 264.603 409.358 265.948 409.358C267.102 409.358 268.176 409.527 269.17 409.865C270.164 410.196 271.046 410.667 271.815 411.277C272.59 411.887 273.223 412.613 273.714 413.455C274.204 414.29 274.519 415.211 274.658 416.219H270.283ZM278.002 430V414.727H282.108V417.392H282.267C282.546 416.444 283.013 415.728 283.669 415.244C284.326 414.754 285.081 414.509 285.937 414.509C286.149 414.509 286.377 414.522 286.623 414.548C286.868 414.575 287.083 414.611 287.269 414.658V418.416C287.07 418.357 286.795 418.304 286.444 418.257C286.092 418.211 285.771 418.188 285.479 418.188C284.856 418.188 284.299 418.323 283.809 418.595C283.325 418.86 282.94 419.232 282.655 419.709C282.377 420.186 282.238 420.736 282.238 421.359V430H278.002ZM295.649 430.298C294.104 430.298 292.768 429.97 291.641 429.314C290.521 428.651 289.656 427.73 289.046 426.55C288.436 425.363 288.131 423.988 288.131 422.423C288.131 420.846 288.436 419.467 289.046 418.287C289.656 417.1 290.521 416.179 291.641 415.523C292.768 414.86 294.104 414.528 295.649 414.528C297.193 414.528 298.525 414.86 299.646 415.523C300.773 416.179 301.641 417.1 302.251 418.287C302.861 419.467 303.166 420.846 303.166 422.423C303.166 423.988 302.861 425.363 302.251 426.55C301.641 427.73 300.773 428.651 299.646 429.314C298.525 429.97 297.193 430.298 295.649 430.298ZM295.668 427.017C296.371 427.017 296.958 426.818 297.428 426.42C297.899 426.016 298.254 425.466 298.492 424.77C298.738 424.074 298.86 423.282 298.86 422.393C298.86 421.505 298.738 420.713 298.492 420.017C298.254 419.321 297.899 418.771 297.428 418.366C296.958 417.962 296.371 417.76 295.668 417.76C294.959 417.76 294.363 417.962 293.879 418.366C293.401 418.771 293.04 419.321 292.795 420.017C292.556 420.713 292.437 421.505 292.437 422.393C292.437 423.282 292.556 424.074 292.795 424.77C293.04 425.466 293.401 426.016 293.879 426.42C294.363 426.818 294.959 427.017 295.668 427.017ZM308.55 430L304.394 414.727H308.679L311.046 424.989H311.185L313.651 414.727H317.857L320.362 424.929H320.492L322.818 414.727H327.094L322.948 430H318.463L315.838 420.395H315.649L313.024 430H308.55ZM337.477 414.727V417.909H328.28V414.727H337.477ZM330.368 411.068H334.603V425.307C334.603 425.698 334.663 426.003 334.782 426.222C334.902 426.434 335.067 426.583 335.28 426.669C335.498 426.755 335.75 426.798 336.035 426.798C336.234 426.798 336.433 426.782 336.632 426.749C336.831 426.709 336.983 426.679 337.089 426.659L337.755 429.811C337.543 429.877 337.245 429.954 336.861 430.04C336.476 430.133 336.009 430.189 335.459 430.209C334.438 430.249 333.543 430.113 332.774 429.801C332.012 429.49 331.418 429.006 330.994 428.349C330.57 427.693 330.361 426.865 330.368 425.864V411.068ZM344.8 421.17V430H340.564V409.636H344.681V417.422H344.86C345.205 416.52 345.761 415.814 346.53 415.304C347.299 414.787 348.264 414.528 349.424 414.528C350.484 414.528 351.409 414.76 352.198 415.224C352.993 415.682 353.61 416.341 354.047 417.203C354.491 418.058 354.71 419.082 354.704 420.276V430H350.468V421.031C350.474 420.09 350.236 419.357 349.752 418.834C349.275 418.31 348.605 418.048 347.743 418.048C347.167 418.048 346.656 418.171 346.212 418.416C345.775 418.661 345.43 419.019 345.178 419.49C344.933 419.954 344.807 420.514 344.8 421.17Z" fill="#2F2F2F"/>
<path d="M135.76 462H134.175C134.081 461.544 133.917 461.143 133.683 460.798C133.452 460.453 133.171 460.163 132.839 459.929C132.511 459.69 132.146 459.511 131.746 459.392C131.345 459.273 130.928 459.213 130.493 459.213C129.7 459.213 128.982 459.413 128.339 459.814C127.7 460.214 127.19 460.805 126.811 461.585C126.436 462.364 126.249 463.321 126.249 464.455C126.249 465.588 126.436 466.545 126.811 467.325C127.19 468.104 127.7 468.695 128.339 469.095C128.982 469.496 129.7 469.696 130.493 469.696C130.928 469.696 131.345 469.636 131.746 469.517C132.146 469.398 132.511 469.221 132.839 468.987C133.171 468.748 133.452 468.456 133.683 468.111C133.917 467.761 134.081 467.361 134.175 466.909H135.76C135.641 467.578 135.423 468.177 135.108 468.705C134.793 469.234 134.401 469.683 133.932 470.054C133.463 470.42 132.937 470.7 132.353 470.891C131.773 471.083 131.153 471.179 130.493 471.179C129.376 471.179 128.384 470.906 127.514 470.361C126.645 469.815 125.961 469.04 125.462 468.034C124.964 467.028 124.714 465.835 124.714 464.455C124.714 463.074 124.964 461.881 125.462 460.875C125.961 459.869 126.645 459.094 127.514 458.548C128.384 458.003 129.376 457.73 130.493 457.73C131.153 457.73 131.773 457.826 132.353 458.018C132.937 458.21 133.463 458.491 133.932 458.862C134.401 459.228 134.793 459.675 135.108 460.204C135.423 460.728 135.641 461.327 135.76 462ZM139.266 465.094V471H137.757V457.909H139.266V462.716H139.393C139.623 462.209 139.969 461.806 140.429 461.508C140.893 461.205 141.511 461.054 142.283 461.054C142.952 461.054 143.538 461.188 144.04 461.457C144.543 461.721 144.933 462.128 145.21 462.678C145.491 463.223 145.632 463.918 145.632 464.761V471H144.123V464.864C144.123 464.084 143.921 463.481 143.516 463.055C143.116 462.624 142.56 462.409 141.848 462.409C141.354 462.409 140.91 462.513 140.518 462.722C140.131 462.931 139.824 463.236 139.598 463.636C139.376 464.037 139.266 464.523 139.266 465.094ZM152.148 471.205C151.202 471.205 150.386 470.996 149.7 470.578C149.018 470.156 148.492 469.568 148.121 468.814C147.755 468.055 147.572 467.173 147.572 466.168C147.572 465.162 147.755 464.276 148.121 463.509C148.492 462.737 149.008 462.136 149.668 461.706C150.333 461.271 151.108 461.054 151.995 461.054C152.506 461.054 153.011 461.139 153.51 461.31C154.008 461.48 154.462 461.757 154.871 462.141C155.28 462.52 155.606 463.023 155.849 463.649C156.092 464.276 156.214 465.047 156.214 465.963V466.602H148.645V465.298H154.68C154.68 464.744 154.569 464.25 154.347 463.815C154.13 463.381 153.819 463.038 153.414 462.786C153.013 462.535 152.54 462.409 151.995 462.409C151.394 462.409 150.874 462.558 150.435 462.857C150.001 463.151 149.666 463.534 149.432 464.007C149.197 464.48 149.08 464.987 149.08 465.528V466.398C149.08 467.139 149.208 467.768 149.464 468.283C149.724 468.795 150.084 469.185 150.544 469.453C151.004 469.717 151.539 469.849 152.148 469.849C152.545 469.849 152.903 469.794 153.222 469.683C153.546 469.568 153.825 469.398 154.059 469.172C154.294 468.942 154.475 468.656 154.603 468.315L156.06 468.724C155.907 469.219 155.649 469.653 155.287 470.028C154.925 470.399 154.477 470.689 153.944 470.898C153.412 471.102 152.813 471.205 152.148 471.205ZM162.137 471.205C161.217 471.205 160.424 470.987 159.759 470.553C159.094 470.118 158.583 469.519 158.225 468.756C157.867 467.994 157.688 467.122 157.688 466.142C157.688 465.145 157.871 464.265 158.238 463.502C158.609 462.735 159.124 462.136 159.785 461.706C160.449 461.271 161.225 461.054 162.111 461.054C162.802 461.054 163.424 461.182 163.978 461.438C164.532 461.693 164.986 462.051 165.339 462.511C165.693 462.972 165.913 463.509 165.998 464.122H164.489C164.374 463.675 164.119 463.278 163.722 462.933C163.33 462.584 162.802 462.409 162.137 462.409C161.549 462.409 161.033 462.562 160.59 462.869C160.151 463.172 159.808 463.6 159.561 464.154C159.318 464.704 159.197 465.349 159.197 466.091C159.197 466.849 159.316 467.51 159.555 468.072C159.797 468.635 160.138 469.072 160.577 469.383C161.02 469.694 161.54 469.849 162.137 469.849C162.529 469.849 162.885 469.781 163.204 469.645C163.524 469.509 163.795 469.312 164.016 469.057C164.238 468.801 164.395 468.494 164.489 468.136H165.998C165.913 468.716 165.702 469.238 165.365 469.702C165.033 470.163 164.592 470.529 164.042 470.802C163.496 471.07 162.861 471.205 162.137 471.205ZM169.249 467.42L169.224 465.554H169.531L173.826 461.182H175.692L171.116 465.81H170.988L169.249 467.42ZM167.843 471V457.909H169.352V471H167.843ZM174.082 471L170.246 466.142L171.32 465.094L175.999 471H174.082ZM182.948 474.682C182.692 474.682 182.464 474.661 182.264 474.618C182.064 474.58 181.925 474.541 181.849 474.503L182.232 473.173C182.599 473.267 182.923 473.301 183.204 473.276C183.485 473.25 183.734 473.124 183.952 472.898C184.173 472.677 184.376 472.317 184.559 471.818L184.84 471.051L181.209 461.182H182.846L185.556 469.006H185.658L188.369 461.182H190.005L185.837 472.432C185.65 472.939 185.418 473.359 185.141 473.691C184.864 474.028 184.542 474.277 184.175 474.439C183.813 474.601 183.404 474.682 182.948 474.682ZM195.273 471.205C194.387 471.205 193.609 470.994 192.94 470.572C192.275 470.15 191.755 469.56 191.38 468.801C191.01 468.043 190.824 467.156 190.824 466.142C190.824 465.119 191.01 464.227 191.38 463.464C191.755 462.701 192.275 462.109 192.94 461.687C193.609 461.265 194.387 461.054 195.273 461.054C196.16 461.054 196.935 461.265 197.6 461.687C198.269 462.109 198.789 462.701 199.16 463.464C199.535 464.227 199.722 465.119 199.722 466.142C199.722 467.156 199.535 468.043 199.16 468.801C198.789 469.56 198.269 470.15 197.6 470.572C196.935 470.994 196.16 471.205 195.273 471.205ZM195.273 469.849C195.946 469.849 196.5 469.677 196.935 469.332C197.37 468.987 197.691 468.533 197.9 467.97C198.109 467.408 198.213 466.798 198.213 466.142C198.213 465.486 198.109 464.874 197.9 464.308C197.691 463.741 197.37 463.283 196.935 462.933C196.5 462.584 195.946 462.409 195.273 462.409C194.6 462.409 194.046 462.584 193.611 462.933C193.177 463.283 192.855 463.741 192.646 464.308C192.437 464.874 192.333 465.486 192.333 466.142C192.333 466.798 192.437 467.408 192.646 467.97C192.855 468.533 193.177 468.987 193.611 469.332C194.046 469.677 194.6 469.849 195.273 469.849ZM207.852 466.986V461.182H209.361V471H207.852V469.338H207.75C207.52 469.837 207.162 470.261 206.676 470.61C206.19 470.955 205.577 471.128 204.835 471.128C204.222 471.128 203.676 470.994 203.199 470.725C202.722 470.452 202.347 470.043 202.074 469.498C201.801 468.948 201.665 468.256 201.665 467.42V461.182H203.173V467.318C203.173 468.034 203.374 468.605 203.774 469.031C204.179 469.457 204.695 469.67 205.321 469.67C205.696 469.67 206.077 469.575 206.465 469.383C206.857 469.191 207.185 468.897 207.45 468.501C207.718 468.104 207.852 467.599 207.852 466.986ZM211.764 471V461.182H213.221V462.665H213.323C213.502 462.179 213.826 461.785 214.295 461.482C214.764 461.18 215.292 461.028 215.88 461.028C215.991 461.028 216.13 461.031 216.296 461.035C216.462 461.039 216.588 461.045 216.673 461.054V462.588C216.622 462.575 216.505 462.556 216.321 462.531C216.142 462.501 215.953 462.486 215.752 462.486C215.275 462.486 214.849 462.586 214.474 462.786C214.103 462.982 213.809 463.255 213.592 463.604C213.379 463.95 213.272 464.344 213.272 464.787V471H211.764ZM223.008 471V457.909H224.517V462.741H224.644C224.755 462.571 224.909 462.354 225.105 462.089C225.305 461.821 225.59 461.582 225.961 461.374C226.336 461.161 226.843 461.054 227.482 461.054C228.309 461.054 229.038 461.261 229.669 461.674C230.299 462.087 230.791 462.673 231.145 463.432C231.499 464.19 231.676 465.085 231.676 466.116C231.676 467.156 231.499 468.058 231.145 468.82C230.791 469.579 230.301 470.167 229.675 470.585C229.049 470.998 228.326 471.205 227.508 471.205C226.877 471.205 226.372 471.1 225.993 470.891C225.614 470.678 225.322 470.437 225.117 470.169C224.913 469.896 224.755 469.67 224.644 469.491H224.465V471H223.008ZM224.491 466.091C224.491 466.832 224.6 467.487 224.817 468.053C225.034 468.616 225.352 469.057 225.769 469.376C226.187 469.692 226.698 469.849 227.304 469.849C227.934 469.849 228.46 469.683 228.882 469.351C229.308 469.014 229.628 468.562 229.841 467.996C230.058 467.425 230.167 466.79 230.167 466.091C230.167 465.401 230.061 464.778 229.848 464.224C229.639 463.666 229.321 463.225 228.895 462.901C228.473 462.573 227.943 462.409 227.304 462.409C226.69 462.409 226.174 462.565 225.757 462.876C225.339 463.183 225.024 463.613 224.811 464.167C224.598 464.717 224.491 465.358 224.491 466.091ZM239.811 466.986V461.182H241.319V471H239.811V469.338H239.708C239.478 469.837 239.12 470.261 238.635 470.61C238.149 470.955 237.535 471.128 236.794 471.128C236.18 471.128 235.635 470.994 235.157 470.725C234.68 470.452 234.305 470.043 234.032 469.498C233.76 468.948 233.623 468.256 233.623 467.42V461.182H235.132V467.318C235.132 468.034 235.332 468.605 235.733 469.031C236.137 469.457 236.653 469.67 237.279 469.67C237.654 469.67 238.036 469.575 238.424 469.383C238.816 469.191 239.144 468.897 239.408 468.501C239.676 468.104 239.811 467.599 239.811 466.986ZM250.677 463.381L249.322 463.764C249.236 463.538 249.111 463.319 248.944 463.106C248.783 462.888 248.561 462.71 248.28 462.569C247.998 462.428 247.638 462.358 247.199 462.358C246.599 462.358 246.098 462.496 245.697 462.773C245.301 463.046 245.103 463.393 245.103 463.815C245.103 464.19 245.239 464.487 245.512 464.704C245.785 464.921 246.211 465.102 246.79 465.247L248.248 465.605C249.126 465.818 249.78 466.144 250.21 466.583C250.64 467.018 250.856 467.578 250.856 468.264C250.856 468.827 250.694 469.33 250.37 469.773C250.05 470.216 249.603 470.565 249.028 470.821C248.452 471.077 247.783 471.205 247.02 471.205C246.019 471.205 245.19 470.987 244.534 470.553C243.878 470.118 243.462 469.483 243.288 468.648L244.719 468.29C244.856 468.818 245.114 469.214 245.493 469.479C245.876 469.743 246.377 469.875 246.995 469.875C247.698 469.875 248.256 469.726 248.67 469.428C249.087 469.125 249.296 468.763 249.296 468.341C249.296 468 249.177 467.714 248.938 467.484C248.699 467.25 248.333 467.075 247.839 466.96L246.202 466.577C245.303 466.364 244.643 466.033 244.221 465.586C243.803 465.134 243.594 464.57 243.594 463.892C243.594 463.338 243.75 462.848 244.061 462.422C244.376 461.996 244.805 461.661 245.346 461.418C245.891 461.175 246.509 461.054 247.199 461.054C248.171 461.054 248.934 461.267 249.488 461.693C250.046 462.119 250.442 462.682 250.677 463.381ZM252.766 471V461.182H254.275V471H252.766ZM253.534 459.545C253.239 459.545 252.986 459.445 252.773 459.245C252.564 459.045 252.46 458.804 252.46 458.523C252.46 458.241 252.564 458.001 252.773 457.8C252.986 457.6 253.239 457.5 253.534 457.5C253.828 457.5 254.079 457.6 254.288 457.8C254.501 458.001 254.607 458.241 254.607 458.523C254.607 458.804 254.501 459.045 254.288 459.245C254.079 459.445 253.828 459.545 253.534 459.545ZM258.186 465.094V471H256.678V461.182H258.135V462.716H258.263C258.493 462.217 258.843 461.817 259.311 461.514C259.78 461.207 260.385 461.054 261.127 461.054C261.792 461.054 262.373 461.19 262.872 461.463C263.37 461.732 263.758 462.141 264.035 462.69C264.312 463.236 264.451 463.926 264.451 464.761V471H262.942V464.864C262.942 464.092 262.742 463.491 262.341 463.061C261.941 462.626 261.391 462.409 260.692 462.409C260.211 462.409 259.78 462.513 259.401 462.722C259.026 462.931 258.73 463.236 258.512 463.636C258.295 464.037 258.186 464.523 258.186 465.094ZM270.964 471.205C270.018 471.205 269.202 470.996 268.516 470.578C267.834 470.156 267.307 469.568 266.937 468.814C266.57 468.055 266.387 467.173 266.387 466.168C266.387 465.162 266.57 464.276 266.937 463.509C267.307 462.737 267.823 462.136 268.484 461.706C269.148 461.271 269.924 461.054 270.81 461.054C271.322 461.054 271.827 461.139 272.325 461.31C272.824 461.48 273.278 461.757 273.687 462.141C274.096 462.52 274.422 463.023 274.665 463.649C274.908 464.276 275.029 465.047 275.029 465.963V466.602H267.461V465.298H273.495C273.495 464.744 273.384 464.25 273.163 463.815C272.945 463.381 272.634 463.038 272.229 462.786C271.829 462.535 271.356 462.409 270.81 462.409C270.209 462.409 269.69 462.558 269.251 462.857C268.816 463.151 268.481 463.534 268.247 464.007C268.013 464.48 267.896 464.987 267.896 465.528V466.398C267.896 467.139 268.023 467.768 268.279 468.283C268.539 468.795 268.899 469.185 269.359 469.453C269.82 469.717 270.354 469.849 270.964 469.849C271.36 469.849 271.718 469.794 272.038 469.683C272.361 469.568 272.641 469.398 272.875 469.172C273.109 468.942 273.29 468.656 273.418 468.315L274.876 468.724C274.722 469.219 274.464 469.653 274.102 470.028C273.74 470.399 273.293 470.689 272.76 470.898C272.227 471.102 271.628 471.205 270.964 471.205ZM283.918 463.381L282.563 463.764C282.478 463.538 282.352 463.319 282.186 463.106C282.024 462.888 281.803 462.71 281.521 462.569C281.24 462.428 280.88 462.358 280.441 462.358C279.84 462.358 279.34 462.496 278.939 462.773C278.543 463.046 278.344 463.393 278.344 463.815C278.344 464.19 278.481 464.487 278.754 464.704C279.026 464.921 279.452 465.102 280.032 465.247L281.489 465.605C282.367 465.818 283.021 466.144 283.452 466.583C283.882 467.018 284.097 467.578 284.097 468.264C284.097 468.827 283.935 469.33 283.612 469.773C283.292 470.216 282.844 470.565 282.269 470.821C281.694 471.077 281.025 471.205 280.262 471.205C279.261 471.205 278.432 470.987 277.776 470.553C277.119 470.118 276.704 469.483 276.529 468.648L277.961 468.29C278.097 468.818 278.355 469.214 278.734 469.479C279.118 469.743 279.619 469.875 280.237 469.875C280.94 469.875 281.498 469.726 281.911 469.428C282.329 469.125 282.538 468.763 282.538 468.341C282.538 468 282.418 467.714 282.18 467.484C281.941 467.25 281.575 467.075 281.08 466.96L279.444 466.577C278.545 466.364 277.884 466.033 277.462 465.586C277.045 465.134 276.836 464.57 276.836 463.892C276.836 463.338 276.992 462.848 277.303 462.422C277.618 461.996 278.046 461.661 278.587 461.418C279.133 461.175 279.751 461.054 280.441 461.054C281.413 461.054 282.175 461.267 282.729 461.693C283.288 462.119 283.684 462.682 283.918 463.381ZM292.963 463.381L291.608 463.764C291.522 463.538 291.397 463.319 291.23 463.106C291.068 462.888 290.847 462.71 290.566 462.569C290.284 462.428 289.924 462.358 289.485 462.358C288.885 462.358 288.384 462.496 287.983 462.773C287.587 463.046 287.389 463.393 287.389 463.815C287.389 464.19 287.525 464.487 287.798 464.704C288.071 464.921 288.497 465.102 289.076 465.247L290.534 465.605C291.412 465.818 292.066 466.144 292.496 466.583C292.926 467.018 293.142 467.578 293.142 468.264C293.142 468.827 292.98 469.33 292.656 469.773C292.336 470.216 291.889 470.565 291.314 470.821C290.738 471.077 290.069 471.205 289.306 471.205C288.305 471.205 287.476 470.987 286.82 470.553C286.164 470.118 285.748 469.483 285.573 468.648L287.005 468.29C287.142 468.818 287.399 469.214 287.779 469.479C288.162 469.743 288.663 469.875 289.281 469.875C289.984 469.875 290.542 469.726 290.956 469.428C291.373 469.125 291.582 468.763 291.582 468.341C291.582 468 291.463 467.714 291.224 467.484C290.985 467.25 290.619 467.075 290.125 466.96L288.488 466.577C287.589 466.364 286.929 466.033 286.507 465.586C286.089 465.134 285.88 464.57 285.88 463.892C285.88 463.338 286.036 462.848 286.347 462.422C286.662 461.996 287.091 461.661 287.632 461.418C288.177 461.175 288.795 461.054 289.485 461.054C290.457 461.054 291.22 461.267 291.774 461.693C292.332 462.119 292.728 462.682 292.963 463.381ZM303.718 474.886C302.989 474.886 302.363 474.793 301.839 474.605C301.315 474.422 300.878 474.179 300.528 473.876C300.183 473.578 299.908 473.259 299.704 472.918L300.905 472.074C301.042 472.253 301.214 472.457 301.423 472.688C301.632 472.922 301.918 473.124 302.28 473.295C302.646 473.469 303.126 473.557 303.718 473.557C304.511 473.557 305.165 473.365 305.68 472.982C306.196 472.598 306.454 471.997 306.454 471.179V469.185H306.326C306.215 469.364 306.057 469.585 305.853 469.849C305.653 470.109 305.363 470.342 304.984 470.546C304.609 470.746 304.101 470.847 303.462 470.847C302.67 470.847 301.958 470.659 301.327 470.284C300.701 469.909 300.204 469.364 299.838 468.648C299.476 467.932 299.295 467.062 299.295 466.04C299.295 465.034 299.472 464.158 299.825 463.413C300.179 462.663 300.671 462.083 301.302 461.674C301.932 461.261 302.661 461.054 303.488 461.054C304.127 461.054 304.634 461.161 305.009 461.374C305.388 461.582 305.678 461.821 305.878 462.089C306.083 462.354 306.241 462.571 306.351 462.741H306.505V461.182H307.962V471.281C307.962 472.125 307.771 472.811 307.387 473.339C307.008 473.872 306.496 474.262 305.853 474.509C305.214 474.761 304.502 474.886 303.718 474.886ZM303.667 469.491C304.272 469.491 304.783 469.353 305.201 469.076C305.619 468.799 305.936 468.401 306.153 467.881C306.371 467.361 306.479 466.739 306.479 466.014C306.479 465.307 306.373 464.683 306.16 464.141C305.947 463.6 305.631 463.176 305.214 462.869C304.796 462.562 304.28 462.409 303.667 462.409C303.028 462.409 302.495 462.571 302.069 462.895C301.647 463.219 301.329 463.653 301.116 464.199C300.908 464.744 300.803 465.349 300.803 466.014C300.803 466.696 300.91 467.299 301.123 467.823C301.34 468.343 301.66 468.752 302.082 469.05C302.508 469.344 303.036 469.491 303.667 469.491ZM310.364 471V461.182H311.821V462.665H311.923C312.102 462.179 312.426 461.785 312.895 461.482C313.364 461.18 313.892 461.028 314.48 461.028C314.591 461.028 314.729 461.031 314.896 461.035C315.062 461.039 315.188 461.045 315.273 461.054V462.588C315.222 462.575 315.104 462.556 314.921 462.531C314.742 462.501 314.553 462.486 314.352 462.486C313.875 462.486 313.449 462.586 313.074 462.786C312.703 462.982 312.409 463.255 312.192 463.604C311.979 463.95 311.872 464.344 311.872 464.787V471H310.364ZM320.391 471.205C319.504 471.205 318.727 470.994 318.058 470.572C317.393 470.15 316.873 469.56 316.498 468.801C316.127 468.043 315.942 467.156 315.942 466.142C315.942 465.119 316.127 464.227 316.498 463.464C316.873 462.701 317.393 462.109 318.058 461.687C318.727 461.265 319.504 461.054 320.391 461.054C321.277 461.054 322.053 461.265 322.717 461.687C323.386 462.109 323.906 462.701 324.277 463.464C324.652 464.227 324.84 465.119 324.84 466.142C324.84 467.156 324.652 468.043 324.277 468.801C323.906 469.56 323.386 470.15 322.717 470.572C322.053 470.994 321.277 471.205 320.391 471.205ZM320.391 469.849C321.064 469.849 321.618 469.677 322.053 469.332C322.487 468.987 322.809 468.533 323.018 467.97C323.227 467.408 323.331 466.798 323.331 466.142C323.331 465.486 323.227 464.874 323.018 464.308C322.809 463.741 322.487 463.283 322.053 462.933C321.618 462.584 321.064 462.409 320.391 462.409C319.717 462.409 319.163 462.584 318.729 462.933C318.294 463.283 317.972 463.741 317.764 464.308C317.555 464.874 317.45 465.486 317.45 466.142C317.45 466.798 317.555 467.408 317.764 467.97C317.972 468.533 318.294 468.987 318.729 469.332C319.163 469.677 319.717 469.849 320.391 469.849ZM328.673 471L325.681 461.182H327.267L329.389 468.699H329.491L331.588 461.182H333.198L335.269 468.673H335.372L337.494 461.182H339.079L336.088 471H334.605L332.457 463.457H332.303L330.156 471H328.673ZM344.983 461.182V462.46H339.895V461.182H344.983ZM341.378 458.83H342.887V468.188C342.887 468.614 342.948 468.933 343.072 469.146C343.2 469.355 343.362 469.496 343.558 469.568C343.758 469.636 343.969 469.67 344.191 469.67C344.357 469.67 344.493 469.662 344.6 469.645C344.706 469.624 344.791 469.607 344.855 469.594L345.162 470.949C345.06 470.987 344.917 471.026 344.734 471.064C344.551 471.107 344.318 471.128 344.037 471.128C343.611 471.128 343.193 471.036 342.784 470.853C342.38 470.67 342.043 470.391 341.774 470.016C341.51 469.641 341.378 469.168 341.378 468.597V458.83ZM348.612 465.094V471H347.103V457.909H348.612V462.716H348.74C348.97 462.209 349.315 461.806 349.775 461.508C350.24 461.205 350.858 461.054 351.629 461.054C352.298 461.054 352.884 461.188 353.387 461.457C353.89 461.721 354.279 462.128 354.556 462.678C354.838 463.223 354.978 463.918 354.978 464.761V471H353.47V464.864C353.47 464.084 353.267 463.481 352.863 463.055C352.462 462.624 351.906 462.409 351.194 462.409C350.7 462.409 350.257 462.513 349.865 462.722C349.477 462.931 349.17 463.236 348.944 463.636C348.723 464.037 348.612 464.523 348.612 465.094Z" fill="#24459C"/>
<rect opacity="0.45" x="193.999" y="600" width="12" height="12" rx="4.2" fill="#C9B7B7"/>
<rect opacity="0.45" x="213.999" y="600" width="12" height="12" rx="4.2" fill="#C9B7B7"/>
<rect opacity="0.45" x="233.999" y="600" width="12" height="12" rx="4.2" fill="#C9B7B7"/>
<rect x="253.999" y="600" width="12" height="12" rx="4.2" fill="#24459C"/>
<rect opacity="0.45" x="273.999" y="600" width="12" height="12" rx="4.2" fill="#C9B7B7"/>
<defs>
<linearGradient id="paint0_linear_4553_94023" x1="414.4" y1="362.618" x2="165.327" y2="53.2854" gradientUnits="userSpaceOnUse">
<stop stop-color="#DAE3FE"/>
<stop offset="1" stop-color="#E9EFFD"/>
</linearGradient>
<linearGradient id="paint1_linear_4553_94023" x1="193.207" y1="136.026" x2="367.66" y2="136.026" gradientUnits="userSpaceOnUse">
<stop stop-color="#09005D"/>
<stop offset="1" stop-color="#1A0F91"/>
</linearGradient>
<linearGradient id="paint2_linear_4553_94023" x1="254.705" y1="8.97056" x2="287.434" y2="8.97056" gradientUnits="userSpaceOnUse">
<stop stop-color="#4F52FF"/>
<stop offset="1" stop-color="#4042E2"/>
</linearGradient>
<linearGradient id="paint3_linear_4553_94023" x1="242.98" y1="168.724" x2="272.914" y2="132.436" gradientUnits="userSpaceOnUse">
<stop stop-color="#FF928E"/>
<stop offset="1" stop-color="#FE7062"/>
</linearGradient>
<linearGradient id="paint4_linear_4553_94023" x1="289.704" y1="106.074" x2="201.867" y2="245.148" gradientUnits="userSpaceOnUse">
<stop stop-color="#FF928E"/>
<stop offset="1" stop-color="#FE7062"/>
</linearGradient>
<linearGradient id="paint5_linear_4553_94023" x1="265.723" y1="134.486" x2="282.846" y2="134.486" gradientUnits="userSpaceOnUse">
<stop stop-color="#FF928E"/>
<stop offset="1" stop-color="#FE7062"/>
</linearGradient>
<linearGradient id="paint6_linear_4553_94023" x1="262.928" y1="150.621" x2="301.133" y2="104.308" gradientUnits="userSpaceOnUse">
<stop stop-color="#FF928E"/>
<stop offset="1" stop-color="#FE7062"/>
</linearGradient>
<linearGradient id="paint7_linear_4553_94023" x1="322.561" y1="70.6705" x2="210.455" y2="248.17" gradientUnits="userSpaceOnUse">
<stop stop-color="#FF928E"/>
<stop offset="1" stop-color="#FE7062"/>
</linearGradient>
<linearGradient id="paint8_linear_4553_94023" x1="291.741" y1="106.233" x2="314.212" y2="106.233" gradientUnits="userSpaceOnUse">
<stop stop-color="#FF928E"/>
<stop offset="1" stop-color="#FE7062"/>
</linearGradient>
<linearGradient id="paint9_linear_4553_94023" x1="289.636" y1="125.801" x2="340.508" y2="64.1321" gradientUnits="userSpaceOnUse">
<stop stop-color="#FF928E"/>
<stop offset="1" stop-color="#FE7062"/>
</linearGradient>
<linearGradient id="paint10_linear_4553_94023" x1="369.04" y1="19.3318" x2="219.767" y2="255.679" gradientUnits="userSpaceOnUse">
<stop stop-color="#FF928E"/>
<stop offset="1" stop-color="#FE7062"/>
</linearGradient>
<linearGradient id="paint11_linear_4553_94023" x1="326.919" y1="64.3931" x2="357.984" y2="64.3931" gradientUnits="userSpaceOnUse">
<stop stop-color="#FF928E"/>
<stop offset="1" stop-color="#FE7062"/>
</linearGradient>
<linearGradient id="paint12_linear_4553_94023" x1="141.165" y1="46.4524" x2="145.097" y2="21.0218" gradientUnits="userSpaceOnUse">
<stop stop-color="#4F52FF"/>
<stop offset="1" stop-color="#4042E2"/>
</linearGradient>
<linearGradient id="paint13_linear_4553_94023" x1="151.746" y1="40.6878" x2="158.345" y2="8.00961" gradientUnits="userSpaceOnUse">
<stop stop-color="#4F52FF"/>
<stop offset="1" stop-color="#4042E2"/>
</linearGradient>
<linearGradient id="paint14_linear_4553_94023" x1="162.106" y1="51.0374" x2="164.379" y2="31.6044" gradientUnits="userSpaceOnUse">
<stop stop-color="#4F52FF"/>
<stop offset="1" stop-color="#4042E2"/>
</linearGradient>
<linearGradient id="paint15_linear_4553_94023" x1="172.687" y1="35.5261" x2="182.173" y2="-3.30198" gradientUnits="userSpaceOnUse">
<stop stop-color="#4F52FF"/>
<stop offset="1" stop-color="#4042E2"/>
</linearGradient>
<linearGradient id="paint16_linear_4553_94023" x1="182.733" y1="30.5458" x2="195.401" y2="-13.8745" gradientUnits="userSpaceOnUse">
<stop stop-color="#4F52FF"/>
<stop offset="1" stop-color="#4042E2"/>
</linearGradient>
<linearGradient id="paint17_linear_4553_94023" x1="193.314" y1="54.6972" x2="194.576" y2="40.1698" gradientUnits="userSpaceOnUse">
<stop stop-color="#4F52FF"/>
<stop offset="1" stop-color="#4042E2"/>
</linearGradient>
<linearGradient id="paint18_linear_4553_94023" x1="203.674" y1="44.1266" x2="208.607" y2="15.7272" gradientUnits="userSpaceOnUse">
<stop stop-color="#4F52FF"/>
<stop offset="1" stop-color="#4042E2"/>
</linearGradient>
<linearGradient id="paint19_linear_4553_94023" x1="214.255" y1="40.6878" x2="220.854" y2="8.00961" gradientUnits="userSpaceOnUse">
<stop stop-color="#4F52FF"/>
<stop offset="1" stop-color="#4042E2"/>
</linearGradient>
<linearGradient id="paint20_linear_4553_94023" x1="224.8" y1="45.7747" x2="229.01" y2="19.4802" gradientUnits="userSpaceOnUse">
<stop stop-color="#4F52FF"/>
<stop offset="1" stop-color="#4042E2"/>
</linearGradient>
<linearGradient id="paint21_linear_4553_94023" x1="235.382" y1="32.8584" x2="246.527" y2="-9.01006" gradientUnits="userSpaceOnUse">
<stop stop-color="#4F52FF"/>
<stop offset="1" stop-color="#4042E2"/>
</linearGradient>
<linearGradient id="paint22_linear_4553_94023" x1="245.742" y1="35.5261" x2="255.228" y2="-3.30197" gradientUnits="userSpaceOnUse">
<stop stop-color="#4F52FF"/>
<stop offset="1" stop-color="#4042E2"/>
</linearGradient>
<linearGradient id="paint23_linear_4553_94023" x1="256.323" y1="39.2595" x2="263.674" y2="4.84949" gradientUnits="userSpaceOnUse">
<stop stop-color="#4F52FF"/>
<stop offset="1" stop-color="#4042E2"/>
</linearGradient>
<linearGradient id="paint24_linear_4553_94023" x1="166.606" y1="272.107" x2="189.488" y2="272.107" gradientUnits="userSpaceOnUse">
<stop stop-color="#09005D"/>
<stop offset="1" stop-color="#1A0F91"/>
</linearGradient>
<linearGradient id="paint25_linear_4553_94023" x1="166.605" y1="267.623" x2="188.842" y2="267.623" gradientUnits="userSpaceOnUse">
<stop stop-color="#09005D"/>
<stop offset="1" stop-color="#1A0F91"/>
</linearGradient>
<linearGradient id="paint26_linear_4553_94023" x1="168.718" y1="261.362" x2="175.164" y2="261.362" gradientUnits="userSpaceOnUse">
<stop stop-color="#FEBBBA"/>
<stop offset="1" stop-color="#FF928E"/>
</linearGradient>
<linearGradient id="paint27_linear_4553_94023" x1="125.765" y1="277.787" x2="134.534" y2="277.787" gradientUnits="userSpaceOnUse">
<stop stop-color="#09005D"/>
<stop offset="1" stop-color="#1A0F91"/>
</linearGradient>
<linearGradient id="paint28_linear_4553_94023" x1="125.829" y1="269.062" x2="138.699" y2="269.062" gradientUnits="userSpaceOnUse">
<stop stop-color="#09005D"/>
<stop offset="1" stop-color="#1A0F91"/>
</linearGradient>
<linearGradient id="paint29_linear_4553_94023" x1="132.518" y1="258.007" x2="140.221" y2="258.007" gradientUnits="userSpaceOnUse">
<stop stop-color="#FEBBBA"/>
<stop offset="1" stop-color="#FF928E"/>
</linearGradient>
<linearGradient id="paint30_linear_4553_94023" x1="58.886" y1="338.695" x2="208.269" y2="179.821" gradientUnits="userSpaceOnUse">
<stop stop-color="#4F52FF"/>
<stop offset="1" stop-color="#4042E2"/>
</linearGradient>
<linearGradient id="paint31_linear_4553_94023" x1="155.734" y1="28.4756" x2="170.463" y2="138.692" gradientUnits="userSpaceOnUse">
<stop stop-color="#4F52FF"/>
<stop offset="1" stop-color="#4042E2"/>
</linearGradient>
<linearGradient id="paint32_linear_4553_94023" x1="217.212" y1="129.722" x2="245.147" y2="84.518" gradientUnits="userSpaceOnUse">
<stop stop-color="#FEBBBA"/>
<stop offset="1" stop-color="#FF928E"/>
</linearGradient>
<linearGradient id="paint33_linear_4553_94023" x1="-401.193" y1="369.992" x2="-336.711" y2="273.443" gradientUnits="userSpaceOnUse">
<stop stop-color="#FF928E"/>
<stop offset="1" stop-color="#FE7062"/>
</linearGradient>
<linearGradient id="paint34_linear_4553_94023" x1="244.424" y1="14.6473" x2="142.838" y2="221.884" gradientUnits="userSpaceOnUse">
<stop stop-color="#E1473D"/>
<stop offset="1" stop-color="#E9605A"/>
</linearGradient>
<linearGradient id="paint35_linear_4553_94023" x1="170.468" y1="121.406" x2="173.805" y2="103.883" gradientUnits="userSpaceOnUse">
<stop stop-color="#FEBBBA"/>
<stop offset="1" stop-color="#FF928E"/>
</linearGradient>
<linearGradient id="paint36_linear_4553_94023" x1="179.498" y1="89.2508" x2="160.455" y2="103.822" gradientUnits="userSpaceOnUse">
<stop stop-color="#FEBBBA"/>
<stop offset="1" stop-color="#FF928E"/>
</linearGradient>
<linearGradient id="paint37_linear_4553_94023" x1="159.463" y1="85.8538" x2="183.115" y2="85.8538" gradientUnits="userSpaceOnUse">
<stop stop-color="#09005D"/>
<stop offset="1" stop-color="#1A0F91"/>
</linearGradient>
<linearGradient id="paint38_linear_4553_94023" x1="177.136" y1="86.1673" x2="158.093" y2="100.738" gradientUnits="userSpaceOnUse">
<stop stop-color="#FEBBBA"/>
<stop offset="1" stop-color="#FF928E"/>
</linearGradient>
<linearGradient id="paint39_linear_4553_94023" x1="265.37" y1="26.5546" x2="254.196" y2="59.0606" gradientUnits="userSpaceOnUse">
<stop stop-color="#FF928E"/>
<stop offset="1" stop-color="#FE7062"/>
</linearGradient>
<linearGradient id="paint40_linear_4553_94023" x1="182.309" y1="16.749" x2="186.373" y2="-29.4705" gradientUnits="userSpaceOnUse">
<stop stop-color="#FEBBBA"/>
<stop offset="1" stop-color="#FF928E"/>
</linearGradient>
<linearGradient id="paint41_linear_4553_94023" x1="165.636" y1="17.4956" x2="161.572" y2="-28.724" gradientUnits="userSpaceOnUse">
<stop stop-color="#FEBBBA"/>
<stop offset="1" stop-color="#FF928E"/>
</linearGradient>
<linearGradient id="paint42_linear_4553_94023" x1="166.078" y1="157.319" x2="195.746" y2="167.05" gradientUnits="userSpaceOnUse">
<stop stop-color="#09005D"/>
<stop offset="1" stop-color="#1A0F91"/>
</linearGradient>
<linearGradient id="paint43_linear_4553_94023" x1="206.912" y1="138.106" x2="228.152" y2="160.555" gradientUnits="userSpaceOnUse">
<stop stop-color="#09005D"/>
<stop offset="1" stop-color="#1A0F91"/>
</linearGradient>
<clipPath id="clip0_4553_94023">
<rect width="280.877" height="280" fill="white" transform="translate(99.5605)"/>
</clipPath>
</defs>
</svg>
