<svg width="480" height="612" viewBox="0 0 480 612" fill="none" xmlns="http://www.w3.org/2000/svg">
<g clip-path="url(#clip0_4553_94325)">
<path d="M346.197 237.533C338.961 244.99 332.488 249.375 327.531 252.684C279.191 284.961 223.762 281.13 206.678 277.951C179.114 272.821 156.016 263.729 136.025 245.668C90.5992 204.628 92.8081 119.014 127.52 65.9799C131.635 59.6916 166.293 8.3172 221.672 1.07755C223.027 0.900801 224.038 0.799801 224.923 0.705872C233.489 -0.201104 286.577 -4.98848 329.864 31.2774C336.06 36.4688 347.088 45.2022 355.28 60.1138C384.596 113.484 389.197 193.209 346.197 237.533Z" fill="url(#paint0_linear_4553_94325)"/>
<path d="M343.752 113.605C343.669 113.248 343.586 112.892 343.499 112.535C330.411 58.6521 275.642 25.698 221.168 38.9299L245.127 137.562L343.752 113.605Z" fill="#91B3FA"/>
<path d="M244.833 137.18L340.845 170.145C346.81 152.824 348.161 133.677 343.768 114.506C343.629 113.902 343.484 113.302 343.336 112.703L244.833 137.18Z" fill="#91B3FA"/>
<path d="M245.125 137.562L264.637 237.168C265.262 237.046 265.886 236.919 266.511 236.784C302.545 229.018 329.951 203.009 341.138 170.527L245.125 137.562Z" fill="#7D97F4"/>
<path d="M232.648 129.339L212.386 31.1484C166.569 40.603 134.396 79.5616 131.586 124.103L232.089 129.986C232.443 130.007 232.72 129.686 232.648 129.339Z" fill="url(#paint1_linear_4553_94325)"/>
<path d="M245.187 137.14L143.909 133.773C143.476 142.646 144.273 150.083 146.293 159.173C155.72 201.581 190.409 231.838 231.014 237.648L245.187 137.14Z" fill="url(#paint2_linear_4553_94325)"/>
<path d="M230.163 237.953C241.367 239.652 253.039 239.486 264.771 237.196L245.363 137.57L230.163 237.953Z" fill="url(#paint3_linear_4553_94325)"/>
<g opacity="0.61">
<path d="M208.937 228.635C208.851 228.635 208.765 228.619 208.681 228.584C194.663 222.795 181.993 213.712 172.041 202.316C161.757 190.54 154.358 176.23 150.642 160.934C150.309 159.562 150.002 158.171 149.73 156.798C149.658 156.434 149.895 156.078 150.261 156.005C150.628 155.933 150.981 156.17 151.053 156.536C151.322 157.89 151.625 159.263 151.953 160.616C155.619 175.702 162.916 189.816 173.058 201.429C182.874 212.669 195.371 221.628 209.198 227.337C209.541 227.48 209.706 227.874 209.564 228.217C209.453 228.479 209.203 228.635 208.937 228.635Z" fill="white"/>
</g>
<g opacity="0.61">
<path d="M282.211 229.068C281.943 229.068 281.689 228.907 281.584 228.643C281.447 228.296 281.617 227.905 281.962 227.768C307.033 217.818 326.964 197.586 336.644 172.262C336.776 171.914 337.166 171.74 337.514 171.873C337.861 172.006 338.036 172.395 337.903 172.742C328.089 198.419 307.88 218.932 282.458 229.02C282.378 229.053 282.294 229.068 282.211 229.068Z" fill="white"/>
</g>
<g opacity="0.61">
<path d="M324.015 79.6628C323.811 79.6628 323.609 79.5709 323.477 79.3952C311.364 63.3514 294.818 51.6163 275.628 45.4563C275.274 45.3422 275.079 44.9634 275.193 44.6089C275.307 44.2544 275.685 44.0585 276.04 44.1736C295.496 50.4184 312.271 62.3172 324.552 78.5832C324.777 78.8801 324.718 79.3033 324.421 79.5275C324.3 79.6184 324.157 79.6628 324.015 79.6628Z" fill="white"/>
</g>
<g opacity="0.74">
<path d="M186.756 123.632C186.742 123.632 186.727 123.632 186.712 123.631L135.146 120.305L135.259 119.577C136.617 110.834 138.849 102.369 142.285 92.9355C142.412 92.5861 142.8 92.4063 143.148 92.5325C143.498 92.6598 143.679 93.0466 143.55 93.3961C140.241 102.482 138.059 110.657 136.706 119.055L186.798 122.286C187.17 122.31 187.452 122.63 187.428 123.002C187.404 123.359 187.107 123.632 186.756 123.632Z" fill="white"/>
</g>
<g opacity="0.74">
<path d="M227.202 126.238C227.178 126.238 227.154 126.237 227.129 126.236L216.61 125.555C216.239 125.531 215.957 125.21 215.981 124.839C216.005 124.467 216.335 124.185 216.697 124.209L226.869 124.867L215.929 73.643C215.851 73.2784 216.083 72.9209 216.447 72.8431C216.81 72.7654 217.169 72.9977 217.247 73.3612L228.26 124.926C228.331 125.261 228.243 125.601 228.019 125.861C227.812 126.103 227.517 126.238 227.202 126.238Z" fill="white"/>
</g>
<path d="M245.793 116.044L245.308 115.157L278.082 97.2499L308.537 110.636L334.683 84.9906L334.736 84.9593L365.445 66.8359L365.959 67.7066L335.303 85.7986L308.757 111.837L278.13 98.3751L245.793 116.044Z" fill="url(#paint4_linear_4553_94325)"/>
<path d="M245.551 119.126C247.497 119.126 249.075 117.548 249.075 115.602C249.075 113.656 247.497 112.078 245.551 112.078C243.605 112.078 242.027 113.656 242.027 115.602C242.027 117.548 243.605 119.126 245.551 119.126Z" fill="url(#paint5_linear_4553_94325)"/>
<path d="M278.106 101.337C280.052 101.337 281.63 99.7591 281.63 97.8129C281.63 95.8668 280.052 94.2891 278.106 94.2891C276.16 94.2891 274.582 95.8668 274.582 97.8129C274.582 99.7591 276.16 101.337 278.106 101.337Z" fill="url(#paint6_linear_4553_94325)"/>
<path d="M308.647 114.095C310.593 114.095 312.171 112.517 312.171 110.571C312.171 108.625 310.593 107.047 308.647 107.047C306.701 107.047 305.123 108.625 305.123 110.571C305.123 112.517 306.701 114.095 308.647 114.095Z" fill="url(#paint7_linear_4553_94325)"/>
<path d="M334.154 88.9228C336.101 88.9228 337.678 87.3451 337.678 85.3989C337.678 83.4527 336.101 81.875 334.154 81.875C332.208 81.875 330.631 83.4527 330.631 85.3989C330.631 87.3451 332.208 88.9228 334.154 88.9228Z" fill="url(#paint8_linear_4553_94325)"/>
<path d="M365.703 70.7978C367.649 70.7978 369.227 69.2201 369.227 67.2739C369.227 65.3277 367.649 63.75 365.703 63.75C363.757 63.75 362.179 65.3277 362.179 67.2739C362.179 69.2201 363.757 70.7978 365.703 70.7978Z" fill="url(#paint9_linear_4553_94325)"/>
<path d="M156.115 277.875C152.844 278.158 147.169 278.616 142.695 278.813C140.005 278.931 138.457 278.668 137.565 278.311C137.566 278.412 137.569 278.507 137.573 278.595C137.594 279.066 137.977 279.443 138.453 279.469C146.908 279.94 153.631 279.632 156.025 279.486C156.52 279.456 156.815 278.918 156.562 278.496C156.434 278.286 156.281 278.079 156.115 277.875Z" fill="url(#paint10_linear_4553_94325)"/>
<path d="M142.695 278.807C147.169 278.61 152.844 278.151 156.115 277.869C152.9 273.924 142.695 271.266 142.695 271.266H139.812C137.83 274.123 137.543 276.844 137.565 278.305C138.456 278.663 140.005 278.926 142.695 278.807Z" fill="url(#paint11_linear_4553_94325)"/>
<path d="M139.326 266.564L139.596 271.9C139.625 272.478 140.058 272.964 140.636 273.047C141.212 273.129 141.984 273.14 142.802 272.867C143.305 272.699 143.678 272.275 143.771 271.758L144.704 266.562H139.326V266.564Z" fill="url(#paint12_linear_4553_94325)"/>
<path d="M101.891 278.777C100.473 278.579 99.8316 277.842 99.5619 277.055C99.5599 277.062 99.5579 277.069 99.5568 277.076C99.3478 277.907 99.8316 278.768 100.799 279.178C101.968 279.673 103.245 279.757 104.238 279.716C105.303 279.673 106.279 279.231 106.817 278.527L106.825 278.517C105.756 279.044 104.256 279.106 101.891 278.777Z" fill="url(#paint13_linear_4553_94325)"/>
<path d="M108.577 266.532H106.201C102.58 266.458 100.306 274.094 99.563 277.051C99.8316 277.839 100.474 278.575 101.892 278.773C104.257 279.103 105.756 279.041 106.825 278.512C108.781 275.939 109.751 272.169 110.216 269.969C110.747 267.467 108.577 266.532 108.577 266.532Z" fill="url(#paint14_linear_4553_94325)"/>
<path d="M106.507 261.578L105.186 266.827C105.025 267.47 105.333 268.136 105.928 268.442C106.666 268.821 107.705 269.219 108.661 269.104C109.11 269.049 109.483 268.733 109.631 268.31L111.57 262.787L106.507 261.578Z" fill="url(#paint15_linear_4553_94325)"/>
<path d="M104.932 263.09C106.574 264.546 111.915 264.739 111.915 264.739C131.155 218.562 139.026 212.002 139.026 212.002C136.247 229.432 138.578 268.018 138.578 268.018C141.753 269.418 145.846 268.018 145.846 268.018C146.104 239.483 150.49 214.599 155.671 194.981C142.668 194.689 135.752 190.239 133.495 188.453C122.654 205.928 104.932 263.09 104.932 263.09Z" fill="url(#paint16_linear_4553_94325)"/>
<path d="M136.795 135.355C134.334 147.633 135.216 169.606 135.795 179.629C135.958 182.445 133.992 186.351 132.402 189.015C132.152 189.434 132.307 189.969 132.739 190.191C135.4 191.559 144.416 195.798 154.865 196.325C155.562 196.36 156.184 195.885 156.364 195.212C164.115 166.271 173.117 147.778 173.117 147.778C163.179 131.907 136.795 135.355 136.795 135.355Z" fill="url(#paint17_linear_4553_94325)"/>
<path d="M140.338 210.909C140.228 210.909 140.117 210.879 140.017 210.819C139.727 210.641 139.635 210.263 139.811 209.973C139.914 209.802 142.404 205.78 147.44 203.35C147.746 203.204 148.114 203.33 148.263 203.637C148.41 203.943 148.282 204.311 147.976 204.459C143.281 206.724 140.888 210.574 140.865 210.613C140.749 210.804 140.546 210.909 140.338 210.909Z" fill="url(#paint18_linear_4553_94325)"/>
<path d="M121.357 170.588C122.148 176.308 124.483 182.545 129.157 189.172L130.933 187.724C130.933 187.724 128.883 179.404 130.048 169.963C127.165 169.4 123.761 169.98 121.357 170.588Z" fill="url(#paint19_linear_4553_94325)"/>
<path d="M139.544 150.499L136.795 135.352C136.795 135.352 118.427 149.392 121.356 170.586C123.76 169.978 127.165 169.398 130.047 169.961C130.888 163.159 133.396 155.776 139.544 150.499Z" fill="url(#paint20_linear_4553_94325)"/>
<path d="M173.118 147.773L166.028 163.043C167.174 172.261 172.126 176.247 177.466 177.776C177.799 173.575 178.862 170.18 179.847 167.833C173.025 160.788 173.118 147.773 173.118 147.773Z" fill="url(#paint21_linear_4553_94325)"/>
<path d="M179.847 167.828C178.862 170.176 177.799 173.57 177.466 177.772C191.712 183.299 195.481 172.579 195.481 172.579L192.848 172.115C186.903 172.742 182.75 170.825 179.847 167.828Z" fill="url(#paint22_linear_4553_94325)"/>
<path d="M166.586 128.925L163.163 141.507C162.779 142.921 161.249 143.68 159.89 143.136C158.422 142.55 156.56 141.749 154.956 140.883C153.245 139.959 152.71 137.758 153.793 136.142L160.909 125.531L166.586 128.925Z" fill="#FFB4B2"/>
<path d="M202.011 164.164L114.303 196.086C110.624 197.425 108.866 201.614 110.486 205.177L110.752 205.762C112.186 208.915 115.912 210.298 119.056 208.843L204.22 169.446L202.011 164.164Z" fill="url(#paint23_linear_4553_94325)"/>
<path opacity="0.23" d="M242.325 187.485C266.237 187.485 285.621 168.45 285.621 144.969C285.621 121.488 266.237 102.453 242.325 102.453C218.413 102.453 199.028 121.488 199.028 144.969C199.028 168.45 218.413 187.485 242.325 187.485Z" fill="url(#paint24_linear_4553_94325)"/>
<path d="M242.325 97.6562C215.717 97.6562 194.147 118.837 194.147 144.964C194.147 171.092 215.716 192.274 242.325 192.274C268.933 192.274 290.503 171.093 290.503 144.964C290.503 118.838 268.933 97.6562 242.325 97.6562ZM242.325 185.325C219.625 185.325 201.224 167.255 201.224 144.965C201.224 122.676 219.625 104.606 242.325 104.606C265.024 104.606 283.425 122.676 283.425 144.965C283.425 167.255 265.024 185.325 242.325 185.325Z" fill="url(#paint25_linear_4553_94325)"/>
<path d="M197.81 150.826C197.65 150.826 197.51 150.707 197.489 150.543C197.346 149.416 197.245 148.275 197.189 147.152C197.181 146.973 197.318 146.822 197.496 146.812C197.708 146.799 197.827 146.942 197.835 147.119C197.889 148.226 197.989 149.351 198.13 150.462C198.153 150.638 198.027 150.801 197.851 150.823C197.837 150.826 197.823 150.826 197.81 150.826ZM198.14 137.598C198.121 137.598 198.103 137.596 198.083 137.593C197.907 137.562 197.79 137.394 197.821 137.217C198.368 134.173 199.241 131.181 200.42 128.321L200.421 128.32C207.366 111.473 223.815 100.586 242.325 100.586C250.956 100.586 259.346 102.984 266.59 107.521C266.741 107.616 266.787 107.815 266.692 107.967C266.599 108.119 266.398 108.164 266.245 108.07C259.106 103.598 250.834 101.234 242.325 101.234C224.078 101.234 207.865 111.965 201.02 128.569C201.019 128.57 201.019 128.57 201.019 128.571C199.857 131.387 198.996 134.335 198.459 137.333C198.431 137.488 198.295 137.598 198.14 137.598Z" fill="#91B3FA"/>
<path d="M175.868 119.775C175.868 119.775 174.012 127.912 171.81 131.279C169.609 134.645 168.759 137.257 164.541 135.154C160.322 133.051 158.544 128.868 159.209 124.39C159.209 124.39 160.192 117.457 162.288 115.866C164.386 114.274 175.868 119.775 175.868 119.775Z" fill="url(#paint26_linear_4553_94325)"/>
<path d="M162.194 123.013L162.475 123.075C162.835 123.156 163.188 122.918 163.245 122.554C163.468 121.147 164.16 118.055 165.889 118.489C168.117 119.047 175.915 122.658 179.149 121.33C182.257 120.054 183.209 116.153 181.963 113.924C181.88 113.775 181.699 113.711 181.545 113.785L181.171 113.966C180.915 114.089 180.64 113.839 180.738 113.572C180.832 113.316 180.582 113.07 180.329 113.17C179.349 113.559 177.276 113.831 173.589 112.04C168.349 109.493 163.924 109.114 161.501 112.246C161.346 112.445 161.048 112.398 160.953 112.166C160.766 111.707 160.293 111.209 159.113 111.285C157.061 111.417 155.544 114.562 156.647 118.881C156.7 119.086 156.547 119.291 156.336 119.278C155.591 119.235 154.265 119.462 155.445 121.935C156.665 124.491 158.232 125.51 158.88 125.84C159.042 125.922 159.238 125.851 159.311 125.686L160.757 122.429C160.839 122.245 161.07 122.184 161.232 122.303L162.194 123.012L162.194 123.013Z" fill="url(#paint27_linear_4553_94325)"/>
<path d="M161.874 123.689C161.874 123.689 163.75 119 161.173 118.803C158.595 118.607 158.84 123.888 160.151 125.08L161.874 123.689Z" fill="url(#paint28_linear_4553_94325)"/>
<path d="M130.2 187.473L138.491 186.797L142.082 190.107C142.082 190.107 141.232 191.281 138.576 190.606C135.92 189.931 132.282 189.765 132.282 189.765C132.282 189.765 128.616 191.419 128.57 188.325L130.2 187.473Z" fill="url(#paint29_linear_4553_94325)"/>
<path d="M194.426 174.55C195.143 175.111 197.599 173.941 199.103 173.132C199.835 172.738 200.191 171.882 199.939 171.088C199.578 169.947 198.975 168.474 198.232 168.289C196.999 167.981 191.47 172.241 194.426 174.55Z" fill="url(#paint30_linear_4553_94325)"/>
<path d="M116.034 207.622C115.999 207.622 115.963 207.616 115.928 207.605C112.502 206.42 111.705 204.396 111.641 202.907C111.547 200.73 112.914 198.709 115.043 197.879L125.574 193.772C125.738 193.707 125.927 193.789 125.993 193.956C126.057 194.123 125.975 194.31 125.809 194.375L115.278 198.482C113.407 199.212 112.205 200.977 112.288 202.878C112.37 204.753 113.666 206.137 116.141 206.993C116.31 207.052 116.4 207.235 116.34 207.405C116.294 207.538 116.168 207.622 116.034 207.622Z" fill="#91B3FA"/>
<path d="M128.936 193.133C128.806 193.133 128.684 193.054 128.635 192.927C128.57 192.76 128.652 192.573 128.818 192.508L130.184 191.976C130.348 191.91 130.537 191.993 130.602 192.159C130.667 192.326 130.585 192.514 130.418 192.579L129.053 193.111C129.014 193.126 128.975 193.133 128.936 193.133Z" fill="#91B3FA"/>
<path d="M343.513 269C343.513 269 344.115 272.409 344.41 275.783C344.525 277.102 343.509 278.247 342.186 278.302C337.692 278.489 328.08 278.854 324.631 278.699C324.113 278.676 323.774 278.146 323.966 277.663C324.126 277.259 324.436 276.931 324.832 276.751L340.709 269.453L343.513 269Z" fill="url(#paint31_linear_4553_94325)"/>
<path d="M344.006 266.997L343.522 271.075C343.522 271.075 340.741 272.37 338.842 270.911L339.993 266.367L344.006 266.997Z" fill="url(#paint32_linear_4553_94325)"/>
<path d="M343.642 190.346C343.851 191.41 344.764 243.481 339.198 266.816C339.107 267.196 339.3 267.589 339.663 267.737C340.516 268.085 342.19 268.59 344.196 268.658C344.817 268.679 345.373 268.275 345.549 267.679C347.14 262.266 354.764 235.14 355.758 209.228C356.869 180.273 355.758 208.242 355.758 208.242L355.107 190.344L343.642 190.346Z" fill="url(#paint33_linear_4553_94325)"/>
<path d="M361.777 270.781C361.777 270.781 362.735 272.502 363.664 277.075C363.831 277.901 363.254 278.691 362.415 278.773C360.931 278.919 358.647 279.107 356.818 279.095C355.974 279.088 355.316 278.354 355.418 277.517C355.621 275.847 356.252 273.109 358.202 270.975L361.777 270.781Z" fill="url(#paint34_linear_4553_94325)"/>
<path d="M362.619 265.537L361.489 271.703C361.489 271.703 360.371 272.534 358.16 271.932L358.699 265.297L362.619 265.537Z" fill="url(#paint35_linear_4553_94325)"/>
<path d="M365.672 191.945C370.224 219.418 364.685 259.846 362.817 267.759C362.703 268.244 362.312 268.615 361.821 268.697C360.987 268.835 359.614 268.948 358.261 268.554C357.794 268.419 357.467 267.998 357.448 267.513C357.198 261.116 357.649 221.843 353.407 206.321C353.192 205.535 352.712 204.849 352.048 204.376L343.815 198.523L343.184 189.062L365.672 191.945Z" fill="url(#paint36_linear_4553_94325)"/>
<path d="M336.666 139.885C350.308 139.66 365.361 143.468 365.361 143.468C369.427 167.196 366.072 194.563 366.072 194.563C355.511 197.333 343.597 192.87 343.597 192.87C341.841 182.953 333.651 155.041 333.651 155.041C326.985 154.214 321.495 152.291 316.973 149.749C320.423 145.75 322.049 140.664 322.755 137.656C327.577 139.154 332.459 139.955 336.666 139.885Z" fill="url(#paint37_linear_4553_94325)"/>
<path d="M296.369 119.792C297.71 118.173 299.405 118.939 299.405 118.939C301.413 127.419 311.939 134.295 322.754 137.656C322.048 140.664 320.421 145.75 316.972 149.749C299.026 139.657 296.369 119.792 296.369 119.792Z" fill="url(#paint38_linear_4553_94325)"/>
<path d="M296.695 120.204C296.554 120.649 298.178 121.328 299.135 119.505C299.168 118.631 299.699 114.887 299.177 114.176C296.397 110.385 291.005 105.633 291.005 105.633C290.094 106.532 290.845 107.415 290.845 107.415L293.461 110.14C292.913 111.129 292.247 111.963 291.934 113.159C291.696 114.065 291.842 115.033 292.299 115.857C292.759 116.684 293.385 117.759 293.977 118.601C295.097 120.192 296.695 120.204 296.695 120.204Z" fill="url(#paint39_linear_4553_94325)"/>
<path d="M294.604 111.906L296.987 113.926L297.736 115.938L295.611 118.295C295.611 118.295 294.897 114.304 294.366 113.44C293.834 112.577 294.109 112.159 294.604 111.906Z" fill="url(#paint40_linear_4553_94325)"/>
<path d="M360.127 156.678L365.36 143.469C365.36 143.469 378.102 152.126 380.198 163.104C377.79 163.282 373.409 163.908 369.12 166.072C368.179 160.89 360.127 156.678 360.127 156.678Z" fill="url(#paint41_linear_4553_94325)"/>
<path d="M348.992 169.105C348.992 169.105 363.299 177.19 368.126 170.287C369.128 168.853 369.368 167.428 369.121 166.07C373.409 163.905 377.79 163.278 380.198 163.102C380.83 166.41 380.496 169.93 378.552 173.487C370.096 188.955 347.1 172.633 347.1 172.633L348.992 169.105Z" fill="url(#paint42_linear_4553_94325)"/>
<path d="M350.711 179.337L342.903 152.071C342.814 151.761 342.55 151.535 342.23 151.498C340.815 151.333 336.717 150.87 331.984 150.469C326.283 149.987 319.663 149.596 315.707 149.928C315.144 149.976 314.805 150.571 315.054 151.077C317.304 155.628 326.558 174.143 331.192 180.208C331.346 180.409 331.583 180.526 331.835 180.524L349.952 180.355C350.479 180.349 350.857 179.844 350.711 179.337Z" fill="url(#paint43_linear_4553_94325)"/>
<path d="M331.174 148.105L325.513 147.162C325.212 147.112 324.964 147.4 325.06 147.69L325.621 149.388C325.669 149.536 325.799 149.643 325.953 149.664L331.401 150.391C331.683 150.428 331.915 150.173 331.85 149.896L331.503 148.413C331.466 148.254 331.335 148.133 331.174 148.105Z" fill="url(#paint44_linear_4553_94325)"/>
<path d="M335.413 152.897L334.946 150.468C334.9 150.224 334.698 150.039 334.451 150.015L323.017 148.855C322.632 148.815 322.324 149.169 322.414 149.544L323.141 152.571C323.2 152.814 323.41 152.988 323.659 153.001L334.833 153.563C335.197 153.582 335.481 153.254 335.413 152.897Z" fill="url(#paint45_linear_4553_94325)"/>
<path d="M348.825 172.75C348.825 172.75 349.912 168.278 349.474 166.691C349.036 165.104 348.185 163.064 345.352 163.517C342.519 163.971 339.176 165.165 339.176 165.165C339.176 165.165 339.345 167.231 341.498 166.565L340.163 167.598C340.163 167.598 340.354 169.252 342.173 168.368L340.93 169.739C340.93 169.739 341.711 171.098 343.049 170.227C344.389 169.354 345.03 173.288 348.825 172.75Z" fill="url(#paint46_linear_4553_94325)"/>
<path d="M350.484 128.812L354.825 141.366C354.897 141.574 354.811 141.804 354.619 141.91C353.435 142.565 349.173 144.455 344.035 141.198C343.5 140.859 343.135 140.305 343.054 139.677L341.648 128.812H350.484Z" fill="url(#paint47_linear_4553_94325)"/>
<path d="M341.04 117.188C341.04 117.188 336.273 126.16 336.884 129.784C337.495 133.409 343.403 133.148 348.561 130.204L352.166 120.516L341.04 117.188Z" fill="url(#paint48_linear_4553_94325)"/>
<path d="M348.333 125.448C348.123 125.355 348.046 125.099 348.171 124.907C348.553 124.323 349.269 123.133 349.497 122.091C349.497 122.091 350.354 121.542 347.317 120.815C344.279 120.088 339.749 118.96 338.796 116.373C337.868 113.852 340.307 107.513 344.199 112.564C344.347 112.755 344.637 112.761 344.785 112.568C345.423 111.737 347.1 110.014 349.429 111.059C351.608 112.036 351.854 113.633 351.823 114.438C351.814 114.674 352.026 114.859 352.259 114.815C353.36 114.605 356.005 114.424 357.238 117.137C358.254 119.371 357.593 120.635 356.992 121.254C356.798 121.454 356.883 121.784 357.15 121.866C357.874 122.087 358.809 122.701 358.715 124.398C358.586 126.743 355.964 126.536 355.218 126.43C355.096 126.413 354.972 126.454 354.89 126.546C354.249 127.254 351.366 130.262 348.244 130.624C347.973 130.656 347.764 130.389 347.853 130.131L349.203 126.205C349.266 126.022 349.179 125.822 349.002 125.744L348.333 125.448Z" fill="url(#paint49_linear_4553_94325)"/>
<path d="M347.789 126.004C347.789 126.004 351.183 123.676 351.431 125.637C351.68 127.597 348.375 128.477 346.739 127.746L347.789 126.004Z" fill="url(#paint50_linear_4553_94325)"/>
<path d="M184.128 68.0041L197.171 68.8929C197.791 68.9464 198.129 68.1869 197.676 67.7617L185.169 58.5L184.128 68.0041Z" fill="#91B3FA"/>
<path d="M109.618 26.262L183.072 25.8126C184.754 25.8025 186.119 27.0488 186.107 28.581L185.798 65.564C185.785 67.1052 184.384 68.3364 182.694 68.2899L110.035 66.2992C108.421 66.2548 107.132 65.06 107.111 63.5874L106.624 29.0456C106.603 27.5215 107.946 26.2721 109.618 26.262Z" fill="#91B3FA"/>
<path opacity="0.14" d="M111.893 28.5258L180.675 28.1329C182.249 28.1238 183.529 29.2126 183.517 30.5518L183.227 62.8646C183.215 64.2119 184.367 66.1067 182.784 66.0663L112.282 63.5069C110.771 63.4686 109.563 62.4242 109.544 61.1375L109.088 30.9568C109.069 29.6256 110.327 28.5348 111.893 28.5258Z" fill="white"/>
<path opacity="0.77" d="M182.785 66.0634L110.106 64.0727C109.799 64.0646 109.556 63.8384 109.552 63.5586L109.066 29.0157C109.064 28.8753 109.121 28.7461 109.23 28.6451C109.339 28.5431 109.478 28.4885 109.635 28.4885L183.089 28.0391C183.247 28.0391 183.387 28.0916 183.498 28.1926C183.609 28.2946 183.666 28.4229 183.664 28.5663L183.355 65.5452C183.353 65.8311 183.098 66.0634 182.785 66.0634ZM110.137 63.5404L182.794 65.5301L183.078 28.5592L109.638 29.0198L110.137 63.5404Z" fill="white"/>
<path opacity="0.77" d="M113.855 36.8851C113.855 38.193 114.617 39.2545 115.557 39.2545H178.033C178.973 39.2545 179.734 38.194 179.734 36.8851C179.734 35.5771 178.973 34.5156 178.033 34.5156H115.557C114.617 34.5166 113.855 35.5771 113.855 36.8851Z" fill="white"/>
<path opacity="0.77" d="M117.277 43.2891H175.851C177.126 43.2891 178.159 43.9254 178.159 44.7101C178.159 45.4949 177.126 46.1312 175.851 46.1312H117.277C116.003 46.1312 114.969 45.4949 114.969 44.7101C114.969 43.9254 116.003 43.2891 117.277 43.2891Z" fill="white"/>
<path opacity="0.77" d="M114.969 51.1858C114.969 51.9695 116.001 52.6038 117.272 52.6038H175.855C177.127 52.6038 178.158 51.9685 178.158 51.1858V50.3091C178.158 49.5122 177.092 48.8719 175.798 48.891L117.217 49.7677C115.967 49.7869 114.969 50.4161 114.969 51.1858Z" fill="white"/>
<path opacity="0.77" d="M117.508 55.6562H176.081C177.356 55.6562 178.389 56.2925 178.389 57.0773C178.389 57.8621 177.356 58.4984 176.081 58.4984H117.508C116.233 58.4984 115.2 57.8621 115.2 57.0773C115.2 56.2925 116.234 55.6562 117.508 55.6562Z" fill="white"/>
</g>
<path d="M155.021 430H147.802V409.636H155.081C157.129 409.636 158.892 410.044 160.37 410.859C161.849 411.668 162.985 412.831 163.781 414.349C164.583 415.867 164.984 417.684 164.984 419.798C164.984 421.92 164.583 423.742 163.781 425.267C162.985 426.792 161.842 427.962 160.35 428.777C158.866 429.592 157.089 430 155.021 430ZM152.108 426.311H154.842C156.115 426.311 157.185 426.086 158.054 425.635C158.929 425.178 159.585 424.472 160.022 423.517C160.466 422.556 160.688 421.316 160.688 419.798C160.688 418.294 160.466 417.064 160.022 416.109C159.585 415.155 158.932 414.452 158.063 414.001C157.195 413.551 156.125 413.325 154.852 413.325H152.108V426.311ZM172.449 430.288C171.474 430.288 170.606 430.119 169.844 429.781C169.081 429.437 168.478 428.929 168.034 428.26C167.597 427.584 167.378 426.742 167.378 425.734C167.378 424.886 167.534 424.173 167.845 423.597C168.157 423.02 168.581 422.556 169.118 422.205C169.655 421.853 170.265 421.588 170.947 421.409C171.637 421.23 172.359 421.104 173.115 421.031C174.003 420.938 174.719 420.852 175.263 420.773C175.806 420.687 176.201 420.561 176.446 420.395C176.691 420.229 176.814 419.984 176.814 419.659V419.599C176.814 418.97 176.615 418.482 176.217 418.138C175.826 417.793 175.269 417.621 174.547 417.621C173.784 417.621 173.178 417.79 172.727 418.128C172.276 418.459 171.978 418.877 171.832 419.381L167.915 419.062C168.114 418.134 168.505 417.332 169.088 416.656C169.671 415.973 170.424 415.45 171.345 415.085C172.273 414.714 173.347 414.528 174.567 414.528C175.415 414.528 176.227 414.628 177.003 414.827C177.785 415.026 178.478 415.334 179.081 415.751C179.691 416.169 180.171 416.706 180.523 417.362C180.874 418.012 181.05 418.791 181.05 419.699V430H177.033V427.882H176.913C176.668 428.359 176.34 428.78 175.929 429.145C175.518 429.503 175.024 429.785 174.447 429.99C173.871 430.189 173.204 430.288 172.449 430.288ZM173.662 427.365C174.285 427.365 174.835 427.242 175.312 426.997C175.79 426.745 176.164 426.407 176.436 425.983C176.708 425.559 176.844 425.078 176.844 424.541V422.92C176.711 423.007 176.529 423.086 176.297 423.159C176.071 423.225 175.816 423.288 175.531 423.348C175.246 423.401 174.961 423.451 174.676 423.497C174.391 423.537 174.132 423.573 173.9 423.607C173.403 423.679 172.969 423.795 172.598 423.955C172.227 424.114 171.938 424.329 171.733 424.601C171.527 424.866 171.425 425.197 171.425 425.595C171.425 426.172 171.633 426.613 172.051 426.918C172.475 427.216 173.012 427.365 173.662 427.365ZM192.459 414.727V417.909H183.262V414.727H192.459ZM185.35 411.068H189.586V425.307C189.586 425.698 189.646 426.003 189.765 426.222C189.884 426.434 190.05 426.583 190.262 426.669C190.481 426.755 190.733 426.798 191.018 426.798C191.217 426.798 191.415 426.782 191.614 426.749C191.813 426.709 191.966 426.679 192.072 426.659L192.738 429.811C192.526 429.877 192.227 429.954 191.843 430.04C191.458 430.133 190.991 430.189 190.441 430.209C189.42 430.249 188.525 430.113 187.756 429.801C186.994 429.49 186.401 429.006 185.976 428.349C185.552 427.693 185.343 426.865 185.35 425.864V411.068ZM199.574 430.288C198.599 430.288 197.731 430.119 196.969 429.781C196.206 429.437 195.603 428.929 195.159 428.26C194.722 427.584 194.503 426.742 194.503 425.734C194.503 424.886 194.659 424.173 194.97 423.597C195.282 423.02 195.706 422.556 196.243 422.205C196.78 421.853 197.39 421.588 198.072 421.409C198.762 421.23 199.484 421.104 200.24 421.031C201.128 420.938 201.844 420.852 202.388 420.773C202.931 420.687 203.326 420.561 203.571 420.395C203.816 420.229 203.939 419.984 203.939 419.659V419.599C203.939 418.97 203.74 418.482 203.342 418.138C202.951 417.793 202.394 417.621 201.672 417.621C200.909 417.621 200.303 417.79 199.852 418.128C199.401 418.459 199.103 418.877 198.957 419.381L195.04 419.062C195.239 418.134 195.63 417.332 196.213 416.656C196.796 415.973 197.549 415.45 198.47 415.085C199.398 414.714 200.472 414.528 201.692 414.528C202.54 414.528 203.352 414.628 204.128 414.827C204.91 415.026 205.603 415.334 206.206 415.751C206.816 416.169 207.296 416.706 207.648 417.362C207.999 418.012 208.175 418.791 208.175 419.699V430H204.158V427.882H204.038C203.793 428.359 203.465 428.78 203.054 429.145C202.643 429.503 202.149 429.785 201.572 429.99C200.996 430.189 200.329 430.288 199.574 430.288ZM200.787 427.365C201.41 427.365 201.96 427.242 202.437 426.997C202.915 426.745 203.289 426.407 203.561 425.983C203.833 425.559 203.969 425.078 203.969 424.541V422.92C203.836 423.007 203.654 423.086 203.422 423.159C203.196 423.225 202.941 423.288 202.656 423.348C202.371 423.401 202.086 423.451 201.801 423.497C201.516 423.537 201.257 423.573 201.025 423.607C200.528 423.679 200.094 423.795 199.723 423.955C199.352 424.114 199.063 424.329 198.858 424.601C198.652 424.866 198.55 425.197 198.55 425.595C198.55 426.172 198.758 426.613 199.176 426.918C199.6 427.216 200.137 427.365 200.787 427.365ZM221.531 430H216.917L223.947 409.636H229.495L236.515 430H231.902L226.801 414.29H226.642L221.531 430ZM221.242 421.996H232.14V425.357H221.242V421.996ZM243.122 421.17V430H238.887V414.727H242.924V417.422H243.103C243.441 416.534 244.007 415.831 244.803 415.314C245.598 414.79 246.563 414.528 247.696 414.528C248.757 414.528 249.682 414.76 250.47 415.224C251.259 415.688 251.872 416.351 252.31 417.213C252.747 418.068 252.966 419.089 252.966 420.276V430H248.73V421.031C248.737 420.097 248.498 419.367 248.014 418.844C247.531 418.313 246.864 418.048 246.016 418.048C245.446 418.048 244.942 418.171 244.505 418.416C244.074 418.661 243.736 419.019 243.49 419.49C243.252 419.954 243.129 420.514 243.122 421.17ZM260.66 430.288C259.685 430.288 258.817 430.119 258.055 429.781C257.292 429.437 256.689 428.929 256.245 428.26C255.807 427.584 255.589 426.742 255.589 425.734C255.589 424.886 255.744 424.173 256.056 423.597C256.368 423.02 256.792 422.556 257.329 422.205C257.866 421.853 258.476 421.588 259.158 421.409C259.848 421.23 260.57 421.104 261.326 421.031C262.214 420.938 262.93 420.852 263.474 420.773C264.017 420.687 264.412 420.561 264.657 420.395C264.902 420.229 265.025 419.984 265.025 419.659V419.599C265.025 418.97 264.826 418.482 264.428 418.138C264.037 417.793 263.48 417.621 262.758 417.621C261.995 417.621 261.389 417.79 260.938 418.128C260.487 418.459 260.189 418.877 260.043 419.381L256.126 419.062C256.324 418.134 256.716 417.332 257.299 416.656C257.882 415.973 258.635 415.45 259.556 415.085C260.484 414.714 261.558 414.528 262.778 414.528C263.626 414.528 264.438 414.628 265.214 414.827C265.996 415.026 266.689 415.334 267.292 415.751C267.902 416.169 268.382 416.706 268.734 417.362C269.085 418.012 269.261 418.791 269.261 419.699V430H265.244V427.882H265.124C264.879 428.359 264.551 428.78 264.14 429.145C263.729 429.503 263.235 429.785 262.658 429.99C262.082 430.189 261.415 430.288 260.66 430.288ZM261.873 427.365C262.496 427.365 263.046 427.242 263.523 426.997C264.001 426.745 264.375 426.407 264.647 425.983C264.919 425.559 265.055 425.078 265.055 424.541V422.92C264.922 423.007 264.74 423.086 264.508 423.159C264.282 423.225 264.027 423.288 263.742 423.348C263.457 423.401 263.172 423.451 262.887 423.497C262.602 423.537 262.343 423.573 262.111 423.607C261.614 423.679 261.18 423.795 260.809 423.955C260.438 424.114 260.149 424.329 259.944 424.601C259.738 424.866 259.636 425.197 259.636 425.595C259.636 426.172 259.844 426.613 260.262 426.918C260.686 427.216 261.223 427.365 261.873 427.365ZM276.783 409.636V430H272.547V409.636H276.783ZM282.791 435.727C282.254 435.727 281.75 435.684 281.279 435.598C280.815 435.518 280.431 435.416 280.126 435.29L281.081 432.128C281.578 432.28 282.025 432.363 282.423 432.376C282.827 432.39 283.175 432.297 283.467 432.098C283.765 431.899 284.007 431.561 284.193 431.084L284.441 430.438L278.963 414.727H283.417L286.579 425.943H286.738L289.93 414.727H294.414L288.478 431.651C288.193 432.473 287.805 433.188 287.315 433.798C286.831 434.415 286.218 434.889 285.475 435.22C284.733 435.558 283.838 435.727 282.791 435.727ZM309.289 419.082L305.411 419.321C305.345 418.99 305.203 418.691 304.984 418.426C304.765 418.154 304.477 417.939 304.119 417.78C303.768 417.614 303.347 417.531 302.856 417.531C302.2 417.531 301.646 417.67 301.196 417.949C300.745 418.221 300.519 418.585 300.519 419.043C300.519 419.407 300.665 419.715 300.957 419.967C301.249 420.219 301.749 420.421 302.458 420.574L305.223 421.131C306.707 421.436 307.814 421.926 308.544 422.602C309.273 423.278 309.637 424.167 309.637 425.267C309.637 426.268 309.342 427.146 308.752 427.902C308.169 428.658 307.367 429.248 306.346 429.672C305.332 430.089 304.162 430.298 302.836 430.298C300.814 430.298 299.204 429.877 298.004 429.036C296.811 428.187 296.111 427.034 295.906 425.575L300.072 425.357C300.198 425.973 300.503 426.444 300.987 426.768C301.471 427.087 302.09 427.246 302.846 427.246C303.589 427.246 304.185 427.103 304.636 426.818C305.093 426.527 305.325 426.152 305.332 425.695C305.325 425.31 305.163 424.995 304.845 424.75C304.527 424.498 304.036 424.306 303.373 424.173L300.728 423.646C299.237 423.348 298.126 422.831 297.397 422.095C296.675 421.359 296.313 420.421 296.313 419.281C296.313 418.3 296.579 417.455 297.109 416.746C297.646 416.036 298.398 415.49 299.366 415.105C300.34 414.721 301.481 414.528 302.786 414.528C304.715 414.528 306.233 414.936 307.34 415.751C308.454 416.567 309.104 417.677 309.289 419.082ZM312.305 430V414.727H316.54V430H312.305ZM314.432 412.759C313.803 412.759 313.262 412.55 312.812 412.132C312.368 411.708 312.146 411.201 312.146 410.611C312.146 410.027 312.368 409.527 312.812 409.109C313.262 408.685 313.803 408.473 314.432 408.473C315.062 408.473 315.599 408.685 316.043 409.109C316.494 409.527 316.719 410.027 316.719 410.611C316.719 411.201 316.494 411.708 316.043 412.132C315.599 412.55 315.062 412.759 314.432 412.759ZM332.641 419.082L328.763 419.321C328.697 418.99 328.554 418.691 328.335 418.426C328.117 418.154 327.828 417.939 327.47 417.78C327.119 417.614 326.698 417.531 326.208 417.531C325.551 417.531 324.998 417.67 324.547 417.949C324.096 418.221 323.871 418.585 323.871 419.043C323.871 419.407 324.017 419.715 324.309 419.967C324.6 420.219 325.101 420.421 325.81 420.574L328.574 421.131C330.059 421.436 331.166 421.926 331.895 422.602C332.624 423.278 332.989 424.167 332.989 425.267C332.989 426.268 332.694 427.146 332.104 427.902C331.521 428.658 330.719 429.248 329.698 429.672C328.684 430.089 327.514 430.298 326.188 430.298C324.166 430.298 322.555 429.877 321.355 429.036C320.162 428.187 319.463 427.034 319.257 425.575L323.424 425.357C323.55 425.973 323.854 426.444 324.338 426.768C324.822 427.087 325.442 427.246 326.198 427.246C326.94 427.246 327.537 427.103 327.987 426.818C328.445 426.527 328.677 426.152 328.684 425.695C328.677 425.31 328.514 424.995 328.196 424.75C327.878 424.498 327.388 424.306 326.725 424.173L324.08 423.646C322.588 423.348 321.478 422.831 320.749 422.095C320.026 421.359 319.665 420.421 319.665 419.281C319.665 418.3 319.93 417.455 320.46 416.746C320.997 416.036 321.75 415.49 322.718 415.105C323.692 414.721 324.832 414.528 326.138 414.528C328.067 414.528 329.585 414.936 330.692 415.751C331.806 416.567 332.455 417.677 332.641 419.082Z" fill="#2F2F2F"/>
<path d="M149.349 471H147.687L152.494 457.909H154.13L158.937 471H157.275L153.363 459.98H153.261L149.349 471ZM149.962 465.886H156.661V467.293H149.962V465.886ZM161.92 465.094V471H160.411V461.182H161.869V462.716H161.997C162.227 462.217 162.576 461.817 163.045 461.514C163.514 461.207 164.119 461.054 164.86 461.054C165.525 461.054 166.107 461.19 166.605 461.463C167.104 461.732 167.492 462.141 167.769 462.69C168.046 463.236 168.184 463.926 168.184 464.761V471H166.676V464.864C166.676 464.092 166.475 463.491 166.075 463.061C165.674 462.626 165.124 462.409 164.426 462.409C163.944 462.409 163.514 462.513 163.134 462.722C162.759 462.931 162.463 463.236 162.246 463.636C162.029 464.037 161.92 464.523 161.92 465.094ZM173.47 471.23C172.848 471.23 172.283 471.113 171.776 470.879C171.269 470.64 170.866 470.297 170.568 469.849C170.27 469.398 170.12 468.852 170.12 468.213C170.12 467.651 170.231 467.195 170.453 466.845C170.674 466.491 170.971 466.214 171.341 466.014C171.712 465.814 172.121 465.665 172.569 465.567C173.02 465.464 173.474 465.384 173.93 465.324C174.527 465.247 175.01 465.19 175.381 465.151C175.756 465.109 176.029 465.038 176.199 464.94C176.374 464.842 176.461 464.672 176.461 464.429V464.378C176.461 463.747 176.289 463.257 175.944 462.908C175.603 462.558 175.085 462.384 174.39 462.384C173.67 462.384 173.105 462.541 172.696 462.857C172.287 463.172 172 463.509 171.833 463.866L170.402 463.355C170.657 462.759 170.998 462.294 171.424 461.962C171.855 461.625 172.324 461.391 172.831 461.259C173.342 461.122 173.845 461.054 174.339 461.054C174.654 461.054 175.017 461.092 175.426 461.169C175.839 461.241 176.238 461.393 176.621 461.623C177.009 461.853 177.331 462.2 177.586 462.665C177.842 463.129 177.97 463.751 177.97 464.531V471H176.461V469.67H176.385C176.282 469.884 176.112 470.112 175.873 470.354C175.635 470.597 175.317 470.804 174.921 470.974C174.525 471.145 174.041 471.23 173.47 471.23ZM173.7 469.875C174.297 469.875 174.799 469.758 175.208 469.523C175.622 469.289 175.933 468.987 176.142 468.616C176.355 468.245 176.461 467.855 176.461 467.446V466.065C176.397 466.142 176.257 466.212 176.039 466.276C175.826 466.336 175.579 466.389 175.298 466.436C175.021 466.479 174.75 466.517 174.486 466.551C174.226 466.581 174.015 466.607 173.853 466.628C173.461 466.679 173.095 466.762 172.754 466.877C172.417 466.988 172.145 467.156 171.936 467.382C171.731 467.604 171.629 467.906 171.629 468.29C171.629 468.814 171.823 469.21 172.211 469.479C172.603 469.743 173.099 469.875 173.7 469.875ZM181.872 457.909V471H180.363V457.909H181.872ZM185.246 474.682C184.991 474.682 184.763 474.661 184.562 474.618C184.362 474.58 184.224 474.541 184.147 474.503L184.53 473.173C184.897 473.267 185.221 473.301 185.502 473.276C185.783 473.25 186.033 473.124 186.25 472.898C186.471 472.677 186.674 472.317 186.857 471.818L187.138 471.051L183.508 461.182H185.144L187.854 469.006H187.957L190.667 461.182H192.303L188.135 472.432C187.948 472.939 187.716 473.359 187.439 473.691C187.162 474.028 186.84 474.277 186.474 474.439C186.111 474.601 185.702 474.682 185.246 474.682ZM200.889 463.381L199.534 463.764C199.448 463.538 199.323 463.319 199.157 463.106C198.995 462.888 198.773 462.71 198.492 462.569C198.211 462.428 197.85 462.358 197.411 462.358C196.811 462.358 196.31 462.496 195.909 462.773C195.513 463.046 195.315 463.393 195.315 463.815C195.315 464.19 195.451 464.487 195.724 464.704C195.997 464.921 196.423 465.102 197.002 465.247L198.46 465.605C199.338 465.818 199.992 466.144 200.422 466.583C200.853 467.018 201.068 467.578 201.068 468.264C201.068 468.827 200.906 469.33 200.582 469.773C200.262 470.216 199.815 470.565 199.24 470.821C198.664 471.077 197.995 471.205 197.233 471.205C196.231 471.205 195.402 470.987 194.746 470.553C194.09 470.118 193.674 469.483 193.5 468.648L194.931 468.29C195.068 468.818 195.326 469.214 195.705 469.479C196.088 469.743 196.589 469.875 197.207 469.875C197.91 469.875 198.468 469.726 198.882 469.428C199.299 469.125 199.508 468.763 199.508 468.341C199.508 468 199.389 467.714 199.15 467.484C198.911 467.25 198.545 467.075 198.051 466.96L196.414 466.577C195.515 466.364 194.855 466.033 194.433 465.586C194.015 465.134 193.806 464.57 193.806 463.892C193.806 463.338 193.962 462.848 194.273 462.422C194.588 461.996 195.017 461.661 195.558 461.418C196.103 461.175 196.721 461.054 197.411 461.054C198.383 461.054 199.146 461.267 199.7 461.693C200.258 462.119 200.654 462.682 200.889 463.381ZM202.979 471V461.182H204.487V471H202.979ZM203.746 459.545C203.452 459.545 203.198 459.445 202.985 459.245C202.776 459.045 202.672 458.804 202.672 458.523C202.672 458.241 202.776 458.001 202.985 457.8C203.198 457.6 203.452 457.5 203.746 457.5C204.04 457.5 204.291 457.6 204.5 457.8C204.713 458.001 204.819 458.241 204.819 458.523C204.819 458.804 204.713 459.045 204.5 459.245C204.291 459.445 204.04 459.545 203.746 459.545ZM213.845 463.381L212.489 463.764C212.404 463.538 212.278 463.319 212.112 463.106C211.95 462.888 211.729 462.71 211.448 462.569C211.166 462.428 210.806 462.358 210.367 462.358C209.766 462.358 209.266 462.496 208.865 462.773C208.469 463.046 208.271 463.393 208.271 463.815C208.271 464.19 208.407 464.487 208.68 464.704C208.953 464.921 209.379 465.102 209.958 465.247L211.416 465.605C212.293 465.818 212.948 466.144 213.378 466.583C213.808 467.018 214.024 467.578 214.024 468.264C214.024 468.827 213.862 469.33 213.538 469.773C213.218 470.216 212.771 470.565 212.195 470.821C211.62 471.077 210.951 471.205 210.188 471.205C209.187 471.205 208.358 470.987 207.702 470.553C207.046 470.118 206.63 469.483 206.455 468.648L207.887 468.29C208.024 468.818 208.281 469.214 208.661 469.479C209.044 469.743 209.545 469.875 210.163 469.875C210.866 469.875 211.424 469.726 211.837 469.428C212.255 469.125 212.464 468.763 212.464 468.341C212.464 468 212.345 467.714 212.106 467.484C211.867 467.25 211.501 467.075 211.006 466.96L209.37 466.577C208.471 466.364 207.81 466.033 207.389 465.586C206.971 465.134 206.762 464.57 206.762 463.892C206.762 463.338 206.918 462.848 207.229 462.422C207.544 461.996 207.972 461.661 208.514 461.418C209.059 461.175 209.677 461.054 210.367 461.054C211.339 461.054 212.102 461.267 212.656 461.693C213.214 462.119 213.61 462.682 213.845 463.381ZM220.841 471V457.909H222.35V462.741H222.478C222.589 462.571 222.742 462.354 222.938 462.089C223.138 461.821 223.424 461.582 223.794 461.374C224.169 461.161 224.677 461.054 225.316 461.054C226.142 461.054 226.871 461.261 227.502 461.674C228.133 462.087 228.625 462.673 228.978 463.432C229.332 464.19 229.509 465.085 229.509 466.116C229.509 467.156 229.332 468.058 228.978 468.82C228.625 469.579 228.135 470.167 227.508 470.585C226.882 470.998 226.16 471.205 225.341 471.205C224.711 471.205 224.206 471.1 223.826 470.891C223.447 470.678 223.155 470.437 222.951 470.169C222.746 469.896 222.589 469.67 222.478 469.491H222.299V471H220.841ZM222.324 466.091C222.324 466.832 222.433 467.487 222.65 468.053C222.868 468.616 223.185 469.057 223.603 469.376C224.02 469.692 224.532 469.849 225.137 469.849C225.767 469.849 226.294 469.683 226.716 469.351C227.142 469.014 227.461 468.562 227.674 467.996C227.892 467.425 228 466.79 228 466.091C228 465.401 227.894 464.778 227.681 464.224C227.472 463.666 227.155 463.225 226.728 462.901C226.307 462.573 225.776 462.409 225.137 462.409C224.523 462.409 224.008 462.565 223.59 462.876C223.172 463.183 222.857 463.613 222.644 464.167C222.431 464.717 222.324 465.358 222.324 466.091ZM237.644 466.986V461.182H239.153V471H237.644V469.338H237.542C237.312 469.837 236.954 470.261 236.468 470.61C235.982 470.955 235.368 471.128 234.627 471.128C234.013 471.128 233.468 470.994 232.991 470.725C232.513 470.452 232.138 470.043 231.866 469.498C231.593 468.948 231.456 468.256 231.456 467.42V461.182H232.965V467.318C232.965 468.034 233.165 468.605 233.566 469.031C233.971 469.457 234.486 469.67 235.113 469.67C235.488 469.67 235.869 469.575 236.257 469.383C236.649 469.191 236.977 468.897 237.241 468.501C237.51 468.104 237.644 467.599 237.644 466.986ZM248.51 463.381L247.155 463.764C247.07 463.538 246.944 463.319 246.778 463.106C246.616 462.888 246.394 462.71 246.113 462.569C245.832 462.428 245.472 462.358 245.033 462.358C244.432 462.358 243.931 462.496 243.531 462.773C243.134 463.046 242.936 463.393 242.936 463.815C242.936 464.19 243.073 464.487 243.345 464.704C243.618 464.921 244.044 465.102 244.624 465.247L246.081 465.605C246.959 465.818 247.613 466.144 248.043 466.583C248.474 467.018 248.689 467.578 248.689 468.264C248.689 468.827 248.527 469.33 248.203 469.773C247.884 470.216 247.436 470.565 246.861 470.821C246.286 471.077 245.617 471.205 244.854 471.205C243.852 471.205 243.024 470.987 242.367 470.553C241.711 470.118 241.296 469.483 241.121 468.648L242.553 468.29C242.689 468.818 242.947 469.214 243.326 469.479C243.71 469.743 244.21 469.875 244.828 469.875C245.531 469.875 246.09 469.726 246.503 469.428C246.921 469.125 247.129 468.763 247.129 468.341C247.129 468 247.01 467.714 246.771 467.484C246.533 467.25 246.166 467.075 245.672 466.96L244.036 466.577C243.136 466.364 242.476 466.033 242.054 465.586C241.636 465.134 241.428 464.57 241.428 463.892C241.428 463.338 241.583 462.848 241.894 462.422C242.21 461.996 242.638 461.661 243.179 461.418C243.725 461.175 244.342 461.054 245.033 461.054C246.004 461.054 246.767 461.267 247.321 461.693C247.879 462.119 248.276 462.682 248.51 463.381ZM250.6 471V461.182H252.108V471H250.6ZM251.367 459.545C251.073 459.545 250.819 459.445 250.606 459.245C250.397 459.045 250.293 458.804 250.293 458.523C250.293 458.241 250.397 458.001 250.606 457.8C250.819 457.6 251.073 457.5 251.367 457.5C251.661 457.5 251.912 457.6 252.121 457.8C252.334 458.001 252.441 458.241 252.441 458.523C252.441 458.804 252.334 459.045 252.121 459.245C251.912 459.445 251.661 459.545 251.367 459.545ZM256.02 465.094V471H254.511V461.182H255.969V462.716H256.096C256.327 462.217 256.676 461.817 257.145 461.514C257.614 461.207 258.219 461.054 258.96 461.054C259.625 461.054 260.207 461.19 260.705 461.463C261.204 461.732 261.592 462.141 261.869 462.69C262.145 463.236 262.284 463.926 262.284 464.761V471H260.775V464.864C260.775 464.092 260.575 463.491 260.175 463.061C259.774 462.626 259.224 462.409 258.525 462.409C258.044 462.409 257.614 462.513 257.234 462.722C256.859 462.931 256.563 463.236 256.346 463.636C256.128 464.037 256.02 464.523 256.02 465.094ZM268.797 471.205C267.851 471.205 267.035 470.996 266.349 470.578C265.667 470.156 265.141 469.568 264.77 468.814C264.404 468.055 264.22 467.173 264.22 466.168C264.22 465.162 264.404 464.276 264.77 463.509C265.141 462.737 265.656 462.136 266.317 461.706C266.982 461.271 267.757 461.054 268.644 461.054C269.155 461.054 269.66 461.139 270.159 461.31C270.657 461.48 271.111 461.757 271.52 462.141C271.929 462.52 272.255 463.023 272.498 463.649C272.741 464.276 272.862 465.047 272.862 465.963V466.602H265.294V465.298H271.328C271.328 464.744 271.217 464.25 270.996 463.815C270.779 463.381 270.467 463.038 270.063 462.786C269.662 462.535 269.189 462.409 268.644 462.409C268.043 462.409 267.523 462.558 267.084 462.857C266.649 463.151 266.315 463.534 266.08 464.007C265.846 464.48 265.729 464.987 265.729 465.528V466.398C265.729 467.139 265.857 467.768 266.112 468.283C266.372 468.795 266.732 469.185 267.193 469.453C267.653 469.717 268.188 469.849 268.797 469.849C269.193 469.849 269.551 469.794 269.871 469.683C270.195 469.568 270.474 469.398 270.708 469.172C270.943 468.942 271.124 468.656 271.252 468.315L272.709 468.724C272.556 469.219 272.298 469.653 271.936 470.028C271.573 470.399 271.126 470.689 270.593 470.898C270.061 471.102 269.462 471.205 268.797 471.205ZM281.752 463.381L280.397 463.764C280.311 463.538 280.186 463.319 280.019 463.106C279.857 462.888 279.636 462.71 279.355 462.569C279.073 462.428 278.713 462.358 278.274 462.358C277.674 462.358 277.173 462.496 276.772 462.773C276.376 463.046 276.178 463.393 276.178 463.815C276.178 464.19 276.314 464.487 276.587 464.704C276.86 464.921 277.286 465.102 277.865 465.247L279.323 465.605C280.201 465.818 280.855 466.144 281.285 466.583C281.715 467.018 281.931 467.578 281.931 468.264C281.931 468.827 281.769 469.33 281.445 469.773C281.125 470.216 280.678 470.565 280.103 470.821C279.527 471.077 278.858 471.205 278.095 471.205C277.094 471.205 276.265 470.987 275.609 470.553C274.953 470.118 274.537 469.483 274.362 468.648L275.794 468.29C275.931 468.818 276.188 469.214 276.568 469.479C276.951 469.743 277.452 469.875 278.07 469.875C278.773 469.875 279.331 469.726 279.745 469.428C280.162 469.125 280.371 468.763 280.371 468.341C280.371 468 280.252 467.714 280.013 467.484C279.774 467.25 279.408 467.075 278.914 466.96L277.277 466.577C276.378 466.364 275.718 466.033 275.296 465.586C274.878 465.134 274.669 464.57 274.669 463.892C274.669 463.338 274.825 462.848 275.136 462.422C275.451 461.996 275.88 461.661 276.421 461.418C276.966 461.175 277.584 461.054 278.274 461.054C279.246 461.054 280.009 461.267 280.563 461.693C281.121 462.119 281.517 462.682 281.752 463.381ZM290.796 463.381L289.441 463.764C289.356 463.538 289.23 463.319 289.064 463.106C288.902 462.888 288.68 462.71 288.399 462.569C288.118 462.428 287.758 462.358 287.319 462.358C286.718 462.358 286.217 462.496 285.817 462.773C285.42 463.046 285.222 463.393 285.222 463.815C285.222 464.19 285.358 464.487 285.631 464.704C285.904 464.921 286.33 465.102 286.91 465.247L288.367 465.605C289.245 465.818 289.899 466.144 290.329 466.583C290.76 467.018 290.975 467.578 290.975 468.264C290.975 468.827 290.813 469.33 290.489 469.773C290.17 470.216 289.722 470.565 289.147 470.821C288.572 471.077 287.903 471.205 287.14 471.205C286.138 471.205 285.309 470.987 284.653 470.553C283.997 470.118 283.581 469.483 283.407 468.648L284.839 468.29C284.975 468.818 285.233 469.214 285.612 469.479C285.996 469.743 286.496 469.875 287.114 469.875C287.817 469.875 288.376 469.726 288.789 469.428C289.206 469.125 289.415 468.763 289.415 468.341C289.415 468 289.296 467.714 289.057 467.484C288.819 467.25 288.452 467.075 287.958 466.96L286.322 466.577C285.422 466.364 284.762 466.033 284.34 465.586C283.922 465.134 283.714 464.57 283.714 463.892C283.714 463.338 283.869 462.848 284.18 462.422C284.496 461.996 284.924 461.661 285.465 461.418C286.01 461.175 286.628 461.054 287.319 461.054C288.29 461.054 289.053 461.267 289.607 461.693C290.165 462.119 290.562 462.682 290.796 463.381ZM301.296 471.205C300.477 471.205 299.755 470.998 299.129 470.585C298.502 470.167 298.012 469.579 297.659 468.82C297.305 468.058 297.128 467.156 297.128 466.116C297.128 465.085 297.305 464.19 297.659 463.432C298.012 462.673 298.504 462.087 299.135 461.674C299.766 461.261 300.494 461.054 301.321 461.054C301.96 461.054 302.465 461.161 302.836 461.374C303.211 461.582 303.497 461.821 303.693 462.089C303.893 462.354 304.048 462.571 304.159 462.741H304.287V457.909H305.796V471H304.338V469.491H304.159C304.048 469.67 303.891 469.896 303.686 470.169C303.482 470.437 303.19 470.678 302.811 470.891C302.431 471.1 301.926 471.205 301.296 471.205ZM301.5 469.849C302.105 469.849 302.617 469.692 303.034 469.376C303.452 469.057 303.769 468.616 303.987 468.053C304.204 467.487 304.313 466.832 304.313 466.091C304.313 465.358 304.206 464.717 303.993 464.167C303.78 463.613 303.465 463.183 303.047 462.876C302.629 462.565 302.114 462.409 301.5 462.409C300.861 462.409 300.328 462.573 299.902 462.901C299.48 463.225 299.163 463.666 298.95 464.224C298.741 464.778 298.636 465.401 298.636 466.091C298.636 466.79 298.743 467.425 298.956 467.996C299.173 468.562 299.493 469.014 299.915 469.351C300.341 469.683 300.869 469.849 301.5 469.849ZM311.297 471.23C310.675 471.23 310.11 471.113 309.603 470.879C309.096 470.64 308.693 470.297 308.395 469.849C308.097 469.398 307.948 468.852 307.948 468.213C307.948 467.651 308.058 467.195 308.28 466.845C308.502 466.491 308.798 466.214 309.169 466.014C309.539 465.814 309.948 465.665 310.396 465.567C310.848 465.464 311.301 465.384 311.757 465.324C312.354 465.247 312.838 465.19 313.208 465.151C313.583 465.109 313.856 465.038 314.027 464.94C314.201 464.842 314.289 464.672 314.289 464.429V464.378C314.289 463.747 314.116 463.257 313.771 462.908C313.43 462.558 312.912 462.384 312.218 462.384C311.497 462.384 310.933 462.541 310.524 462.857C310.115 463.172 309.827 463.509 309.661 463.866L308.229 463.355C308.485 462.759 308.826 462.294 309.252 461.962C309.682 461.625 310.151 461.391 310.658 461.259C311.169 461.122 311.672 461.054 312.166 461.054C312.482 461.054 312.844 461.092 313.253 461.169C313.666 461.241 314.065 461.393 314.448 461.623C314.836 461.853 315.158 462.2 315.414 462.665C315.669 463.129 315.797 463.751 315.797 464.531V471H314.289V469.67H314.212C314.11 469.884 313.939 470.112 313.701 470.354C313.462 470.597 313.144 470.804 312.748 470.974C312.352 471.145 311.868 471.23 311.297 471.23ZM311.527 469.875C312.124 469.875 312.627 469.758 313.036 469.523C313.449 469.289 313.76 468.987 313.969 468.616C314.182 468.245 314.289 467.855 314.289 467.446V466.065C314.225 466.142 314.084 466.212 313.867 466.276C313.654 466.336 313.406 466.389 313.125 466.436C312.848 466.479 312.578 466.517 312.313 466.551C312.054 466.581 311.843 466.607 311.681 466.628C311.289 466.679 310.922 466.762 310.581 466.877C310.245 466.988 309.972 467.156 309.763 467.382C309.558 467.604 309.456 467.906 309.456 468.29C309.456 468.814 309.65 469.21 310.038 469.479C310.43 469.743 310.926 469.875 311.527 469.875ZM322.46 461.182V462.46H317.372V461.182H322.46ZM318.855 458.83H320.364V468.188C320.364 468.614 320.426 468.933 320.549 469.146C320.677 469.355 320.839 469.496 321.035 469.568C321.235 469.636 321.446 469.67 321.668 469.67C321.834 469.67 321.97 469.662 322.077 469.645C322.183 469.624 322.269 469.607 322.333 469.594L322.639 470.949C322.537 470.987 322.394 471.026 322.211 471.064C322.028 471.107 321.796 471.128 321.514 471.128C321.088 471.128 320.671 471.036 320.262 470.853C319.857 470.67 319.52 470.391 319.252 470.016C318.987 469.641 318.855 469.168 318.855 468.597V458.83ZM327.259 471.23C326.637 471.23 326.072 471.113 325.565 470.879C325.058 470.64 324.655 470.297 324.357 469.849C324.058 469.398 323.909 468.852 323.909 468.213C323.909 467.651 324.02 467.195 324.242 466.845C324.463 466.491 324.759 466.214 325.13 466.014C325.501 465.814 325.91 465.665 326.357 465.567C326.809 465.464 327.263 465.384 327.719 465.324C328.316 465.247 328.799 465.19 329.17 465.151C329.545 465.109 329.818 465.038 329.988 464.94C330.163 464.842 330.25 464.672 330.25 464.429V464.378C330.25 463.747 330.078 463.257 329.732 462.908C329.392 462.558 328.874 462.384 328.179 462.384C327.459 462.384 326.894 462.541 326.485 462.857C326.076 463.172 325.789 463.509 325.622 463.866L324.191 463.355C324.446 462.759 324.787 462.294 325.213 461.962C325.644 461.625 326.112 461.391 326.62 461.259C327.131 461.122 327.634 461.054 328.128 461.054C328.443 461.054 328.806 461.092 329.215 461.169C329.628 461.241 330.027 461.393 330.41 461.623C330.798 461.853 331.12 462.2 331.375 462.665C331.631 463.129 331.759 463.751 331.759 464.531V471H330.25V469.67H330.174C330.071 469.884 329.901 470.112 329.662 470.354C329.424 470.597 329.106 470.804 328.71 470.974C328.313 471.145 327.83 471.23 327.259 471.23ZM327.489 469.875C328.085 469.875 328.588 469.758 328.997 469.523C329.411 469.289 329.722 468.987 329.931 468.616C330.144 468.245 330.25 467.855 330.25 467.446V466.065C330.186 466.142 330.046 466.212 329.828 466.276C329.615 466.336 329.368 466.389 329.087 466.436C328.81 466.479 328.539 466.517 328.275 466.551C328.015 466.581 327.804 466.607 327.642 466.628C327.25 466.679 326.884 466.762 326.543 466.877C326.206 466.988 325.933 467.156 325.725 467.382C325.52 467.604 325.418 467.906 325.418 468.29C325.418 468.814 325.612 469.21 326 469.479C326.392 469.743 326.888 469.875 327.489 469.875Z" fill="#24459C"/>
<rect x="193.999" y="600" width="12" height="12" rx="4.2" fill="#24459C"/>
<rect opacity="0.45" x="213.999" y="600" width="12" height="12" rx="4.2" fill="#C9B7B7"/>
<rect opacity="0.45" x="233.999" y="600" width="12" height="12" rx="4.2" fill="#C9B7B7"/>
<rect opacity="0.45" x="253.999" y="600" width="12" height="12" rx="4.2" fill="#C9B7B7"/>
<rect opacity="0.45" x="273.999" y="600" width="12" height="12" rx="4.2" fill="#C9B7B7"/>
<defs>
<linearGradient id="paint0_linear_4553_94325" x1="405.211" y1="321.079" x2="209.219" y2="112.442" gradientUnits="userSpaceOnUse">
<stop stop-color="#DAE3FE"/>
<stop offset="1" stop-color="#E9EFFD"/>
</linearGradient>
<linearGradient id="paint1_linear_4553_94325" x1="196.008" y1="14.9479" x2="167.03" y2="246.769" gradientUnits="userSpaceOnUse">
<stop stop-color="#FF928E"/>
<stop offset="1" stop-color="#FE7062"/>
</linearGradient>
<linearGradient id="paint2_linear_4553_94325" x1="399.997" y1="277.942" x2="211.98" y2="176.858" gradientUnits="userSpaceOnUse">
<stop stop-color="#4F52FF"/>
<stop offset="1" stop-color="#4042E2"/>
</linearGradient>
<linearGradient id="paint3_linear_4553_94325" x1="268.299" y1="173.45" x2="382.862" y2="52.8223" gradientUnits="userSpaceOnUse">
<stop stop-color="#4F52FF"/>
<stop offset="1" stop-color="#4042E2"/>
</linearGradient>
<linearGradient id="paint4_linear_4553_94325" x1="348.492" y1="49.5053" x2="262.753" y2="133.38" gradientUnits="userSpaceOnUse">
<stop stop-color="#2B3582"/>
<stop offset="1" stop-color="#150E42"/>
</linearGradient>
<linearGradient id="paint5_linear_4553_94325" x1="251.171" y1="110.103" x2="242.804" y2="118.289" gradientUnits="userSpaceOnUse">
<stop stop-color="#09005D"/>
<stop offset="1" stop-color="#1A0F91"/>
</linearGradient>
<linearGradient id="paint6_linear_4553_94325" x1="283.726" y1="92.3143" x2="275.359" y2="100.5" gradientUnits="userSpaceOnUse">
<stop stop-color="#09005D"/>
<stop offset="1" stop-color="#1A0F91"/>
</linearGradient>
<linearGradient id="paint7_linear_4553_94325" x1="314.268" y1="105.072" x2="305.9" y2="113.258" gradientUnits="userSpaceOnUse">
<stop stop-color="#09005D"/>
<stop offset="1" stop-color="#1A0F91"/>
</linearGradient>
<linearGradient id="paint8_linear_4553_94325" x1="339.775" y1="79.9002" x2="331.407" y2="88.0861" gradientUnits="userSpaceOnUse">
<stop stop-color="#09005D"/>
<stop offset="1" stop-color="#1A0F91"/>
</linearGradient>
<linearGradient id="paint9_linear_4553_94325" x1="371.323" y1="61.7751" x2="362.955" y2="69.961" gradientUnits="userSpaceOnUse">
<stop stop-color="#09005D"/>
<stop offset="1" stop-color="#1A0F91"/>
</linearGradient>
<linearGradient id="paint10_linear_4553_94325" x1="137.565" y1="278.798" x2="156.654" y2="278.798" gradientUnits="userSpaceOnUse">
<stop stop-color="#09005D"/>
<stop offset="1" stop-color="#1A0F91"/>
</linearGradient>
<linearGradient id="paint11_linear_4553_94325" x1="137.564" y1="275.051" x2="156.114" y2="275.051" gradientUnits="userSpaceOnUse">
<stop stop-color="#09005D"/>
<stop offset="1" stop-color="#1A0F91"/>
</linearGradient>
<linearGradient id="paint12_linear_4553_94325" x1="139.327" y1="269.831" x2="144.704" y2="269.831" gradientUnits="userSpaceOnUse">
<stop stop-color="#FEBBBA"/>
<stop offset="1" stop-color="#FF928E"/>
</linearGradient>
<linearGradient id="paint13_linear_4553_94325" x1="99.5087" y1="278.39" x2="106.825" y2="278.39" gradientUnits="userSpaceOnUse">
<stop stop-color="#09005D"/>
<stop offset="1" stop-color="#1A0F91"/>
</linearGradient>
<linearGradient id="paint14_linear_4553_94325" x1="99.5628" y1="272.754" x2="110.3" y2="272.754" gradientUnits="userSpaceOnUse">
<stop stop-color="#09005D"/>
<stop offset="1" stop-color="#1A0F91"/>
</linearGradient>
<linearGradient id="paint15_linear_4553_94325" x1="105.144" y1="265.351" x2="111.57" y2="265.351" gradientUnits="userSpaceOnUse">
<stop stop-color="#FEBBBA"/>
<stop offset="1" stop-color="#FF928E"/>
</linearGradient>
<linearGradient id="paint16_linear_4553_94325" x1="38.9069" y1="337.308" x2="169.643" y2="195.789" gradientUnits="userSpaceOnUse">
<stop stop-color="#4F52FF"/>
<stop offset="1" stop-color="#4042E2"/>
</linearGradient>
<linearGradient id="paint17_linear_4553_94325" x1="-135.198" y1="383.821" x2="-70.841" y2="333.953" gradientUnits="userSpaceOnUse">
<stop stop-color="#FF928E"/>
<stop offset="1" stop-color="#FE7062"/>
</linearGradient>
<linearGradient id="paint18_linear_4553_94325" x1="140.66" y1="152.728" x2="142.682" y2="185.412" gradientUnits="userSpaceOnUse">
<stop stop-color="#4F52FF"/>
<stop offset="1" stop-color="#4042E2"/>
</linearGradient>
<linearGradient id="paint19_linear_4553_94325" x1="134.584" y1="171.683" x2="111.708" y2="191.939" gradientUnits="userSpaceOnUse">
<stop stop-color="#FEBBBA"/>
<stop offset="1" stop-color="#FF928E"/>
</linearGradient>
<linearGradient id="paint20_linear_4553_94325" x1="-146.342" y1="369.436" x2="-81.9843" y2="319.567" gradientUnits="userSpaceOnUse">
<stop stop-color="#FF928E"/>
<stop offset="1" stop-color="#FE7062"/>
</linearGradient>
<linearGradient id="paint21_linear_4553_94325" x1="-125.734" y1="396.03" x2="-61.3765" y2="346.162" gradientUnits="userSpaceOnUse">
<stop stop-color="#FF928E"/>
<stop offset="1" stop-color="#FE7062"/>
</linearGradient>
<linearGradient id="paint22_linear_4553_94325" x1="177.466" y1="173.592" x2="195.482" y2="173.592" gradientUnits="userSpaceOnUse">
<stop stop-color="#FEBBBA"/>
<stop offset="1" stop-color="#FF928E"/>
</linearGradient>
<linearGradient id="paint23_linear_4553_94325" x1="209.156" y1="168.225" x2="109.082" y2="205.289" gradientUnits="userSpaceOnUse">
<stop stop-color="#09005D"/>
<stop offset="1" stop-color="#1A0F91"/>
</linearGradient>
<linearGradient id="paint24_linear_4553_94325" x1="199.028" y1="144.969" x2="285.622" y2="144.969" gradientUnits="userSpaceOnUse">
<stop stop-color="#B37CFF"/>
<stop offset="1" stop-color="#F895E7"/>
</linearGradient>
<linearGradient id="paint25_linear_4553_94325" x1="194.148" y1="144.965" x2="290.503" y2="144.965" gradientUnits="userSpaceOnUse">
<stop stop-color="#09005D"/>
<stop offset="1" stop-color="#1A0F91"/>
</linearGradient>
<linearGradient id="paint26_linear_4553_94325" x1="172.436" y1="125.612" x2="148.461" y2="126.051" gradientUnits="userSpaceOnUse">
<stop stop-color="#FEBBBA"/>
<stop offset="1" stop-color="#FF928E"/>
</linearGradient>
<linearGradient id="paint27_linear_4553_94325" x1="158.32" y1="110.99" x2="177.364" y2="125.017" gradientUnits="userSpaceOnUse">
<stop stop-color="#09005D"/>
<stop offset="1" stop-color="#1A0F91"/>
</linearGradient>
<linearGradient id="paint28_linear_4553_94325" x1="172.365" y1="121.723" x2="148.39" y2="122.162" gradientUnits="userSpaceOnUse">
<stop stop-color="#FEBBBA"/>
<stop offset="1" stop-color="#FF928E"/>
</linearGradient>
<linearGradient id="paint29_linear_4553_94325" x1="143.617" y1="181.885" x2="120.742" y2="202.142" gradientUnits="userSpaceOnUse">
<stop stop-color="#FEBBBA"/>
<stop offset="1" stop-color="#FF928E"/>
</linearGradient>
<linearGradient id="paint30_linear_4553_94325" x1="193.568" y1="171.485" x2="200.019" y2="171.485" gradientUnits="userSpaceOnUse">
<stop stop-color="#FEBBBA"/>
<stop offset="1" stop-color="#FF928E"/>
</linearGradient>
<linearGradient id="paint31_linear_4553_94325" x1="323.911" y1="273.868" x2="344.418" y2="273.868" gradientUnits="userSpaceOnUse">
<stop stop-color="#09005D"/>
<stop offset="1" stop-color="#1A0F91"/>
</linearGradient>
<linearGradient id="paint32_linear_4553_94325" x1="344.006" y1="268.986" x2="338.842" y2="268.986" gradientUnits="userSpaceOnUse">
<stop stop-color="#FEBBBA"/>
<stop offset="1" stop-color="#FF928E"/>
</linearGradient>
<linearGradient id="paint33_linear_4553_94325" x1="316.956" y1="335.723" x2="400.838" y2="304.434" gradientUnits="userSpaceOnUse">
<stop stop-color="#4F52FF"/>
<stop offset="1" stop-color="#4042E2"/>
</linearGradient>
<linearGradient id="paint34_linear_4553_94325" x1="355.407" y1="274.938" x2="363.692" y2="274.938" gradientUnits="userSpaceOnUse">
<stop stop-color="#09005D"/>
<stop offset="1" stop-color="#1A0F91"/>
</linearGradient>
<linearGradient id="paint35_linear_4553_94325" x1="362.619" y1="268.725" x2="358.16" y2="268.725" gradientUnits="userSpaceOnUse">
<stop stop-color="#FEBBBA"/>
<stop offset="1" stop-color="#FF928E"/>
</linearGradient>
<linearGradient id="paint36_linear_4553_94325" x1="311.64" y1="337.129" x2="418.423" y2="281.612" gradientUnits="userSpaceOnUse">
<stop stop-color="#4F52FF"/>
<stop offset="1" stop-color="#4042E2"/>
</linearGradient>
<linearGradient id="paint37_linear_4553_94325" x1="-13.1632" y1="372.335" x2="49.525" y2="308.778" gradientUnits="userSpaceOnUse">
<stop stop-color="#91B3FA"/>
<stop offset="1" stop-color="#7D97F4"/>
</linearGradient>
<linearGradient id="paint38_linear_4553_94325" x1="322.754" y1="134.253" x2="296.37" y2="134.253" gradientUnits="userSpaceOnUse">
<stop stop-color="#FEBBBA"/>
<stop offset="1" stop-color="#FF928E"/>
</linearGradient>
<linearGradient id="paint39_linear_4553_94325" x1="302.247" y1="129.831" x2="319.952" y2="170.113" gradientUnits="userSpaceOnUse">
<stop stop-color="#FEBBBA"/>
<stop offset="1" stop-color="#FF928E"/>
</linearGradient>
<linearGradient id="paint40_linear_4553_94325" x1="296.496" y1="116.415" x2="289.109" y2="105.056" gradientUnits="userSpaceOnUse">
<stop stop-color="#FEBBBA"/>
<stop offset="1" stop-color="#FF928E"/>
</linearGradient>
<linearGradient id="paint41_linear_4553_94325" x1="228.658" y1="235.223" x2="253.157" y2="209.924" gradientUnits="userSpaceOnUse">
<stop stop-color="#91B3FA"/>
<stop offset="1" stop-color="#7D97F4"/>
</linearGradient>
<linearGradient id="paint42_linear_4553_94325" x1="380.489" y1="171.624" x2="347.099" y2="171.624" gradientUnits="userSpaceOnUse">
<stop stop-color="#FEBBBA"/>
<stop offset="1" stop-color="#FF928E"/>
</linearGradient>
<linearGradient id="paint43_linear_4553_94325" x1="336.997" y1="147.888" x2="318.638" y2="224.388" gradientUnits="userSpaceOnUse">
<stop stop-color="#09005D"/>
<stop offset="1" stop-color="#1A0F91"/>
</linearGradient>
<linearGradient id="paint44_linear_4553_94325" x1="325.502" y1="135.831" x2="329.412" y2="153.002" gradientUnits="userSpaceOnUse">
<stop stop-color="#4F52FF"/>
<stop offset="1" stop-color="#4042E2"/>
</linearGradient>
<linearGradient id="paint45_linear_4553_94325" x1="327.549" y1="143.032" x2="329.419" y2="154.253" gradientUnits="userSpaceOnUse">
<stop stop-color="#4F52FF"/>
<stop offset="1" stop-color="#4042E2"/>
</linearGradient>
<linearGradient id="paint46_linear_4553_94325" x1="349.578" y1="168.127" x2="339.176" y2="168.127" gradientUnits="userSpaceOnUse">
<stop stop-color="#FEBBBA"/>
<stop offset="1" stop-color="#FF928E"/>
</linearGradient>
<linearGradient id="paint47_linear_4553_94325" x1="353.183" y1="155.835" x2="344.759" y2="125.51" gradientUnits="userSpaceOnUse">
<stop stop-color="#FEBBBA"/>
<stop offset="1" stop-color="#FF928E"/>
</linearGradient>
<linearGradient id="paint48_linear_4553_94325" x1="338.509" y1="127.533" x2="353.024" y2="118.68" gradientUnits="userSpaceOnUse">
<stop stop-color="#FEBBBA"/>
<stop offset="1" stop-color="#FF928E"/>
</linearGradient>
<linearGradient id="paint49_linear_4553_94325" x1="338.599" y1="120.645" x2="358.722" y2="120.645" gradientUnits="userSpaceOnUse">
<stop stop-color="#09005D"/>
<stop offset="1" stop-color="#1A0F91"/>
</linearGradient>
<linearGradient id="paint50_linear_4553_94325" x1="342.322" y1="130.835" x2="355.381" y2="122.869" gradientUnits="userSpaceOnUse">
<stop stop-color="#FEBBBA"/>
<stop offset="1" stop-color="#FF928E"/>
</linearGradient>
<clipPath id="clip0_4553_94325">
<rect width="280.98" height="280" fill="white" transform="translate(99.5093)"/>
</clipPath>
</defs>
</svg>
