<svg width="480" height="612" viewBox="0 0 480 612" fill="none" xmlns="http://www.w3.org/2000/svg">
<g clip-path="url(#clip0_4553_94431)">
<path d="M366.586 189.483C339.768 252.628 268.332 288.001 206.382 278.459C196.302 276.907 168.666 272.281 144.198 250.461C97.0968 208.456 87.0237 125.28 125.02 66.6638C152.674 24.0025 202.246 -0.181303 249.351 1.02764C259.497 1.2877 298.381 2.89426 332.554 31.0724C337.573 35.2113 348.644 45.0465 358.621 60.6482C382.05 97.2859 384.063 148.33 366.586 189.483Z" fill="url(#paint0_linear_4553_94431)"/>
<g opacity="0.3">
<path d="M272.396 42.2352C271.849 42.2131 271.423 41.7512 271.446 41.204C271.489 40.1406 271.488 39.0602 271.44 37.9908C271.416 37.4496 271.83 36.9918 272.368 36.9576C272.374 36.9576 272.381 36.9566 272.387 36.9566C272.934 36.9325 273.397 37.3563 273.421 37.9035C273.471 39.0281 273.473 40.1667 273.427 41.2853C273.406 41.7974 273 42.202 272.5 42.2342C272.466 42.2362 272.431 42.2372 272.396 42.2352ZM270.853 32.8047C270.66 31.7534 270.421 30.6991 270.141 29.6729C269.997 29.1447 270.308 28.5995 270.837 28.4549C271.368 28.3123 271.91 28.6226 272.055 29.1517C272.349 30.2321 272.601 31.3407 272.804 32.4472C272.902 32.9864 272.546 33.5025 272.006 33.6009C271.967 33.6079 271.928 33.613 271.89 33.615C271.395 33.6471 270.944 33.3037 270.853 32.8047ZM268.422 24.7477C268.001 23.7677 267.533 22.7948 267.029 21.8539C266.771 21.3709 266.953 20.7695 267.436 20.5114C267.919 20.2534 268.519 20.4351 268.778 20.9181C269.308 21.9081 269.801 22.9333 270.244 23.9655C270.46 24.4686 270.227 25.052 269.724 25.2679C269.617 25.3141 269.506 25.3392 269.396 25.3462C268.989 25.3723 268.591 25.1434 268.422 24.7477ZM264.251 17.4359C263.621 16.5733 262.946 15.7289 262.245 14.9246C261.886 14.5119 261.929 13.8854 262.342 13.5249C262.756 13.1654 263.381 13.2086 263.742 13.6213C264.479 14.4677 265.189 15.3574 265.852 16.2641C266.176 16.7059 266.079 17.3264 265.636 17.6497C265.478 17.7652 265.297 17.8275 265.115 17.8385C264.788 17.8606 264.458 17.72 264.251 17.4359ZM258.554 11.2365C257.751 10.5377 256.906 9.86292 256.043 9.23235C255.601 8.90903 255.505 8.28849 255.828 7.84669C256.152 7.40388 256.772 7.30849 257.214 7.63181C258.122 8.29552 259.011 9.00542 259.857 9.74042C260.27 10.0999 260.314 10.7265 259.954 11.1391C259.773 11.347 259.524 11.4615 259.268 11.4785C259.016 11.4936 258.759 11.4143 258.554 11.2365ZM251.628 6.45098C250.688 5.94592 249.715 5.476 248.736 5.05227C248.233 4.83538 248.002 4.25099 248.219 3.74894C248.436 3.24589 249.02 3.01494 249.523 3.23183C250.555 3.67765 251.579 4.17267 252.567 4.70384C253.049 4.9629 253.231 5.56436 252.972 6.04733C252.803 6.36061 252.491 6.54637 252.159 6.56746C251.982 6.5785 251.798 6.54236 251.628 6.45098ZM214.803 5.9891C214.545 5.50612 214.727 4.90466 215.211 4.64761C216.201 4.11946 217.229 3.62745 218.263 3.18564C218.767 2.97076 219.349 3.20472 219.564 3.70778C219.779 4.21083 219.545 4.79421 219.042 5.00909C218.06 5.42881 217.085 5.89571 216.145 6.39676C216.017 6.46504 215.879 6.5032 215.741 6.51123C215.365 6.53734 214.991 6.34354 214.803 5.9891ZM243.819 3.3222C242.791 3.03904 241.739 2.79705 240.69 2.60427C240.152 2.50486 239.796 1.98674 239.895 1.44854C239.995 0.909341 240.512 0.556901 241.051 0.653295C242.154 0.857128 243.263 1.11217 244.345 1.41039C244.873 1.55598 245.184 2.10121 245.038 2.63037C244.923 3.04908 244.555 3.33124 244.144 3.35734C244.038 3.36337 243.928 3.35232 243.819 3.3222ZM222.755 2.60226C222.613 2.0741 222.925 1.52887 223.454 1.38629C224.537 1.0941 225.647 0.844075 226.753 0.643254C227.293 0.542844 227.809 0.903317 227.906 1.44252C228.004 1.98172 227.646 2.49783 227.107 2.59523C226.056 2.78601 225.001 3.02298 223.972 3.30111C223.907 3.31919 223.841 3.32923 223.775 3.33324C223.313 3.36236 222.881 3.06515 222.755 2.60226ZM235.507 2.01787C234.443 1.97168 233.362 1.97168 232.295 2.01687C231.748 2.03996 231.285 1.61523 231.262 1.06799C231.239 0.527782 231.652 0.0699116 232.19 0.0367762C232.197 0.0367762 232.204 0.0357721 232.211 0.0357721C233.333 -0.0124248 234.471 -0.0114207 235.592 0.0357721C236.139 0.0598706 236.564 0.521758 236.539 1.06899C236.517 1.58008 236.112 1.98474 235.613 2.01586C235.579 2.01887 235.543 2.01887 235.507 2.01787Z" fill="#91B3FA"/>
<path d="M209.917 10.3335C210.112 10.3215 210.306 10.2512 210.471 10.1206C210.871 9.80234 211.285 9.48806 211.701 9.18382C212.144 8.8615 212.24 8.24096 211.918 7.79816C211.595 7.35535 210.974 7.25795 210.532 7.58227C210.095 7.90158 209.659 8.23193 209.238 8.5673C208.809 8.90769 208.737 9.53224 209.077 9.96099C209.287 10.2251 209.605 10.3536 209.917 10.3335Z" fill="#91B3FA"/>
</g>
<g opacity="0.3">
<path d="M195.46 36.8851C195.938 36.855 196.336 36.4815 196.383 35.9905C196.432 35.4814 196.492 34.9653 196.562 34.4552C196.636 33.912 196.258 33.4119 195.715 33.3376C195.17 33.2623 194.671 33.6429 194.597 34.1851C194.524 34.7213 194.46 35.2655 194.408 35.8017C194.356 36.3469 194.756 36.8309 195.301 36.8831C195.355 36.8881 195.407 36.8891 195.46 36.8851Z" fill="#91B3FA"/>
<path d="M234.363 79.2243C233.816 79.2324 233.365 78.7946 233.357 78.2463C233.349 77.6991 233.787 77.2493 234.334 77.2402C235.377 77.2252 236.435 77.1659 237.492 77.0625C238.034 77.0083 238.522 77.4089 238.576 77.9541C238.629 78.4994 238.23 78.9843 237.685 79.0376C237.227 79.0817 236.77 79.1189 236.315 79.148C235.665 79.1902 235.009 79.2153 234.363 79.2243ZM241.823 77.4149C241.696 76.8818 242.027 76.3476 242.559 76.2211C243.582 75.9781 244.606 75.6899 245.602 75.3636C246.122 75.1919 246.683 75.477 246.854 75.9971C247.024 76.5173 246.74 77.0776 246.22 77.2482C245.171 77.5917 244.093 77.8959 243.016 78.1509C242.96 78.164 242.904 78.172 242.849 78.176C242.376 78.2062 241.935 77.8919 241.823 77.4149ZM228.967 78.9321C227.872 78.7966 226.767 78.6128 225.685 78.3859C225.149 78.2734 224.805 77.7473 224.919 77.2111C225.031 76.6749 225.557 76.3325 226.094 76.445C227.122 76.6619 228.17 76.8356 229.21 76.9641C229.754 77.0314 230.14 77.5264 230.074 78.0696C230.015 78.5506 229.62 78.908 229.153 78.9382C229.092 78.9412 229.03 78.9402 228.967 78.9321ZM249.904 74.7601C249.664 74.2681 249.868 73.6736 250.36 73.4337C251.304 72.9728 252.239 72.4667 253.139 71.9285C253.61 71.6474 254.219 71.801 254.499 72.2709C254.78 72.7408 254.626 73.3493 254.156 73.6305C253.207 74.1968 252.223 74.731 251.229 75.216C251.109 75.2742 250.983 75.3073 250.858 75.3154C250.469 75.3405 250.086 75.1326 249.904 74.7601ZM220.489 76.9129C219.451 76.5404 218.414 76.1186 217.408 75.6578C216.91 75.4298 216.691 74.8424 216.918 74.3434C217.146 73.8453 217.735 73.6255 218.233 73.8534C219.188 74.2902 220.173 74.6918 221.159 75.0452C221.675 75.23 221.942 75.7983 221.757 76.3134C221.619 76.698 221.269 76.944 220.886 76.9681C220.756 76.9781 220.62 76.9601 220.489 76.9129ZM212.659 73.0842C211.725 72.4928 210.805 71.8542 209.926 71.1875C209.489 70.8561 209.404 70.2346 209.734 69.7978C210.065 69.361 210.687 69.2747 211.124 69.606C211.96 70.2396 212.834 70.8461 213.721 71.4084C214.184 71.7016 214.322 72.3141 214.028 72.777C213.852 73.0561 213.558 73.2168 213.253 73.2359C213.05 73.2489 212.843 73.2007 212.659 73.0842ZM205.849 67.639C205.066 66.8578 204.307 66.0344 203.594 65.193C203.239 64.7753 203.292 64.1497 203.709 63.7953C204.128 63.4408 204.753 63.4931 205.107 63.9108C205.785 64.711 206.506 65.4922 207.25 66.2353C207.637 66.6218 207.638 67.2504 207.251 67.638C207.073 67.8157 206.845 67.9121 206.612 67.9272C206.339 67.9442 206.059 67.8478 205.849 67.639ZM200.39 60.8382C199.796 59.9044 199.236 58.9344 198.725 57.9554C198.471 57.4704 198.66 56.871 199.145 56.617C199.63 56.3639 200.229 56.5517 200.483 57.0367C200.969 57.9665 201.5 58.8872 202.065 59.7739C202.359 60.2357 202.222 60.8493 201.759 61.1425C201.614 61.2348 201.452 61.285 201.291 61.2951C200.941 61.3192 200.59 61.1555 200.39 60.8382ZM196.556 53.0002C196.184 51.9609 195.852 50.8926 195.568 49.8242C195.427 49.295 195.743 48.7518 196.272 48.6112C196.8 48.4717 197.344 48.786 197.485 49.3151C197.754 50.3303 198.07 51.3454 198.424 52.3325C198.608 52.8476 198.34 53.4159 197.824 53.6006C197.735 53.6328 197.643 53.6518 197.552 53.6569C197.122 53.684 196.709 53.4259 196.556 53.0002ZM194.539 44.5205C194.438 43.7132 194.361 42.8939 194.309 42.0836C194.29 41.7904 194.275 41.4972 194.263 41.205C194.24 40.6578 194.657 40.1858 195.213 40.1728C195.76 40.1497 196.222 40.5754 196.245 41.1227C196.257 41.3998 196.271 41.6789 196.289 41.9571C196.338 42.7272 196.411 43.5064 196.507 44.2735C196.575 44.8167 196.19 45.3128 195.646 45.38C195.626 45.3821 195.605 45.3851 195.585 45.3861C195.065 45.4202 194.604 45.0437 194.539 44.5205Z" fill="#91B3FA"/>
<path d="M258.059 70.7498C258.255 70.7378 258.45 70.6665 258.616 70.5339C259.035 70.1976 259.454 69.8471 259.863 69.4897C260.276 69.1292 260.319 68.5026 259.958 68.09C259.598 67.6773 258.972 67.6341 258.559 67.9946C258.17 68.3329 257.771 68.6663 257.374 68.9856C256.947 69.328 256.878 69.9526 257.22 70.3793C257.432 70.6424 257.747 70.7699 258.059 70.7498Z" fill="#91B3FA"/>
</g>
<path d="M259.932 53.8529C260.048 53.6922 260.048 53.4764 259.933 53.3147L256.666 48.7159C257.67 46.28 258.292 43.6663 258.471 40.9612L263.428 38.2763C263.602 38.1819 263.698 37.9881 263.665 37.7933L262.558 31.118C262.526 30.9232 262.373 30.7696 262.178 30.7364L256.62 29.7956C255.577 27.2924 254.145 25.0201 252.408 23.039L254.016 17.6319C254.072 17.4421 254.002 17.2383 253.841 17.1228L248.338 13.1847C248.177 13.0693 247.961 13.0693 247.8 13.1837L243.201 16.4511C240.765 15.447 238.151 14.8244 235.446 14.6457L232.761 9.68845C232.667 9.51475 232.473 9.41936 232.278 9.45149L225.602 10.559C225.407 10.5911 225.253 10.7438 225.22 10.9386L224.279 16.4973C221.776 17.5395 219.504 18.9724 217.523 20.7085L212.116 19.1009C211.926 19.0447 211.722 19.115 211.607 19.2756L207.669 24.7791C207.553 24.9398 207.553 25.1556 207.668 25.3173L210.935 29.9161C209.931 32.3521 209.308 34.9657 209.13 37.6708L204.172 40.3558C203.999 40.4501 203.903 40.6439 203.935 40.8387L205.043 47.515C205.075 47.7098 205.228 47.8634 205.422 47.8966L210.981 48.8374C212.023 51.3406 213.456 53.6129 215.192 55.594L213.585 61.0011C213.529 61.1909 213.599 61.3947 213.76 61.5102L219.263 65.4483C219.424 65.5637 219.64 65.5637 219.801 65.4493L224.4 62.1819C226.836 63.186 229.45 63.8086 232.155 63.9873L234.84 68.9446C234.934 69.1183 235.128 69.2137 235.323 69.1805L241.999 68.073C242.194 68.0409 242.347 67.8882 242.38 67.6934L243.321 62.1347C245.825 61.0925 248.097 59.6596 250.078 57.9235L255.485 59.5311C255.675 59.5873 255.879 59.517 255.994 59.3564L259.932 53.8529Z" fill="#91B3FA"/>
<path d="M233.236 46.0962C229.499 45.785 226.71 42.4925 227.021 38.7542C227.171 36.9438 228.018 35.3001 229.404 34.1263C230.791 32.9525 232.551 32.3882 234.363 32.5398C238.1 32.8511 240.888 36.1436 240.578 39.8818C240.295 43.2827 237.544 45.8964 234.235 46.1073C233.907 46.1274 233.573 46.1243 233.236 46.0962ZM230.431 35.3373C229.367 36.2369 228.719 37.4971 228.603 38.8858C228.365 41.7515 230.503 44.2768 233.369 44.5148C236.235 44.7537 238.76 42.615 238.998 39.7493C239.236 36.8836 237.098 34.3583 234.232 34.1203C233.972 34.0992 233.714 34.0962 233.459 34.1123C232.348 34.1836 231.294 34.6053 230.431 35.3373Z" fill="#BDD0FB"/>
<path d="M234.719 55.9146C235.287 55.8784 235.857 55.8132 236.427 55.7188C236.606 55.6897 236.785 55.6565 236.963 55.6214C237.842 55.4467 238.705 55.2017 239.541 54.8914C239.552 54.8874 239.564 54.8834 239.575 54.8784C239.607 54.8663 239.639 54.8543 239.671 54.8412C239.734 54.8171 239.797 54.793 239.859 54.7679C240.023 54.7036 240.12 54.541 240.109 54.3743C240.106 54.3341 240.097 54.293 240.082 54.2528C240.002 54.049 239.771 53.9496 239.567 54.0299C238.519 54.4446 237.418 54.7488 236.297 54.9346C230.728 55.8594 225.344 53.7598 221.825 49.8428C219.867 47.6639 218.488 44.9217 217.975 41.824C217.884 41.2808 217.822 40.7366 217.788 40.1954C217.557 36.5475 218.579 32.9608 220.735 29.9475C223.211 26.4864 226.887 24.197 231.085 23.5012C239.756 22.0643 247.972 27.9453 249.409 36.6117C249.497 37.1459 249.559 37.6831 249.593 38.2203C249.74 40.5478 249.377 42.8813 248.52 45.0522C248.498 45.1084 248.49 45.1667 248.493 45.2229C248.502 45.3715 248.596 45.5091 248.743 45.5673C248.947 45.6466 249.178 45.5482 249.258 45.3434C250.157 43.0641 250.54 40.6141 250.385 38.1711C250.35 37.6078 250.286 37.0435 250.192 36.4832C248.683 27.385 240.052 21.2108 230.956 22.719C226.549 23.4499 222.69 25.8538 220.09 29.4866C217.827 32.6495 216.754 36.4149 216.997 40.2446C217.033 40.8139 217.098 41.3842 217.192 41.9546C217.923 46.3626 220.327 50.2213 223.96 52.8209C227.121 55.0852 230.888 56.1586 234.719 55.9146Z" fill="#BDD0FB"/>
<g opacity="0.3">
<path d="M307.932 66.1729C308.196 66.1559 308.429 65.9681 308.49 65.696C308.605 65.1889 308.706 64.6708 308.79 64.1577C308.844 63.8244 308.618 63.5091 308.283 63.4538C307.949 63.3976 307.635 63.6255 307.58 63.9599C307.499 64.4489 307.404 64.9429 307.294 65.4269C307.22 65.7562 307.427 66.0846 307.757 66.1589C307.817 66.1729 307.875 66.177 307.932 66.1729Z" fill="#91B3FA"/>
<path d="M308.481 61.498C308.143 61.485 307.88 61.2008 307.893 60.8624C307.925 60.0089 307.915 59.1444 307.861 58.2929C307.85 58.1132 307.836 57.9335 307.821 57.7527C307.792 57.4164 308.042 57.1191 308.38 57.091C308.699 57.077 309.013 57.3129 309.042 57.6503C309.058 57.8391 309.072 58.0278 309.084 58.2156C309.14 59.1083 309.152 60.015 309.118 60.9106C309.106 61.2269 308.855 61.4789 308.545 61.498C308.523 61.498 308.502 61.499 308.481 61.498ZM307.369 54.6741C307.157 53.661 306.88 52.6519 306.546 51.6749C306.437 51.3546 306.608 51.0072 306.928 50.8977C307.246 50.7893 307.597 50.959 307.705 51.2793C308.056 52.3035 308.345 53.3608 308.568 54.4231C308.637 54.7545 308.425 55.0788 308.094 55.1481C308.065 55.1541 308.035 55.1581 308.006 55.1591C307.707 55.1792 307.432 54.9754 307.369 54.6741ZM305.359 48.7991C304.907 47.8703 304.391 46.9596 303.825 46.0931C303.64 45.8099 303.721 45.4304 304.004 45.2456C304.288 45.0609 304.667 45.1402 304.851 45.4234C305.445 46.3321 305.986 47.287 306.461 48.2609C306.61 48.5652 306.483 48.9317 306.179 49.0803C306.105 49.1164 306.027 49.1365 305.949 49.1405C305.709 49.1576 305.471 49.0291 305.359 48.7991ZM301.967 43.5979C301.299 42.8077 300.575 42.0506 299.817 41.3507C299.568 41.1208 299.553 40.7332 299.783 40.4852C300.012 40.2372 300.399 40.2211 300.648 40.451C301.443 41.186 302.202 41.9783 302.902 42.8077C303.121 43.0657 303.088 43.4523 302.83 43.6712C302.726 43.7585 302.601 43.8057 302.475 43.8138C302.287 43.8258 302.097 43.7525 301.967 43.5979ZM297.408 39.3827C296.568 38.7782 295.683 38.2209 294.777 37.7249C294.481 37.5622 294.372 37.1907 294.534 36.8935C294.697 36.5963 295.068 36.4868 295.366 36.6505C296.316 37.1706 297.243 37.755 298.124 38.3876C298.398 38.5854 298.461 38.968 298.263 39.2421C298.152 39.3967 297.981 39.4851 297.805 39.4961C297.668 39.5052 297.527 39.468 297.408 39.3827ZM291.964 36.4015C291.003 36.0199 290.01 35.6956 289.011 35.4365C288.683 35.3522 288.487 35.0168 288.572 34.6905C288.657 34.3632 288.99 34.1674 289.319 34.2507C290.366 34.5218 291.408 34.8632 292.417 35.2628C292.731 35.3884 292.885 35.7438 292.76 36.0581C292.67 36.286 292.458 36.4296 292.229 36.4437C292.14 36.4487 292.05 36.4356 291.964 36.4015ZM285.958 34.8431C284.936 34.7096 283.893 34.6383 282.856 34.6323C282.517 34.6303 282.245 34.3541 282.247 34.0157C282.249 33.6774 282.524 33.4103 282.864 33.4062C283.951 33.4133 285.045 33.4876 286.117 33.6282C286.452 33.6723 286.689 33.9796 286.645 34.315C286.607 34.6102 286.364 34.8281 286.077 34.8471C286.038 34.8491 285.998 34.8481 285.958 34.8431ZM275.947 34.9054C275.867 34.577 276.069 34.2457 276.397 34.1654C277.307 33.9434 278.245 33.7677 279.182 33.6432C279.324 33.6231 279.466 33.6061 279.608 33.589C279.942 33.5398 280.249 33.7908 280.287 34.1272C280.326 34.4636 280.085 34.7668 279.749 34.806C279.615 34.821 279.482 34.8381 279.346 34.8572C278.45 34.9767 277.555 35.1444 276.687 35.3552C276.651 35.3643 276.616 35.3693 276.581 35.3713C276.29 35.3904 276.019 35.1976 275.947 34.9054Z" fill="#91B3FA"/>
</g>
<g opacity="0.3">
<path d="M283.985 86.2925C282.919 86.3467 281.84 86.3347 280.779 86.2604C280.442 86.2363 280.188 85.9441 280.212 85.6057C280.236 85.2683 280.531 85.0173 280.866 85.0384C281.879 85.1097 282.908 85.1207 283.925 85.0695C284.262 85.0524 284.55 85.3125 284.568 85.6499C284.585 85.9852 284.329 86.2714 283.995 86.2925C283.994 86.2915 283.988 86.2915 283.985 86.2925ZM286.467 85.438C286.41 85.1046 286.634 84.7884 286.967 84.7311C287.97 84.5584 288.973 84.3235 289.948 84.0323C290.27 83.9369 290.613 84.1196 290.71 84.444C290.807 84.7683 290.622 85.1087 290.298 85.2061C289.277 85.5113 288.227 85.7573 287.175 85.9381C287.153 85.9421 287.131 85.9441 287.109 85.9461C286.801 85.9652 286.521 85.7503 286.467 85.438ZM277.598 85.8376C276.55 85.6318 275.506 85.3607 274.493 85.0313C274.172 84.9269 273.995 84.5805 274.101 84.2592C274.205 83.9369 274.55 83.7622 274.873 83.8666C275.838 84.1809 276.834 84.4399 277.834 84.6367C278.166 84.702 278.382 85.0243 278.317 85.3557C278.262 85.6348 278.026 85.8316 277.755 85.8497C277.704 85.8517 277.651 85.8487 277.598 85.8376ZM292.504 83.7843C292.368 83.475 292.509 83.1135 292.819 82.977C293.751 82.5683 294.667 82.0984 295.541 81.5792C295.833 81.4075 296.208 81.5029 296.381 81.7931C296.554 82.0843 296.457 82.4598 296.167 82.6325C295.25 83.1768 294.289 83.6698 293.312 84.0985C293.245 84.1277 293.175 84.1447 293.105 84.1487C292.853 84.1658 292.609 84.0262 292.504 83.7843ZM271.512 83.8545C270.546 83.4037 269.598 82.8896 268.694 82.3253C268.407 82.1466 268.319 81.768 268.498 81.4808C268.677 81.1937 269.054 81.1053 269.342 81.285C270.205 81.8232 271.11 82.3142 272.031 82.744C272.338 82.8866 272.47 83.2511 272.328 83.5583C272.23 83.7682 272.027 83.8967 271.81 83.9108C271.71 83.9168 271.609 83.8987 271.512 83.8545ZM266.079 80.4677C265.248 79.798 264.449 79.071 263.707 78.3079C263.471 78.0659 263.476 77.6783 263.719 77.4423C263.961 77.2064 264.349 77.2114 264.586 77.4544C265.294 78.1814 266.056 78.8742 266.849 79.5138C267.112 79.7257 267.153 80.1123 266.942 80.3753C266.829 80.5139 266.668 80.5912 266.503 80.6023C266.354 80.6123 266.203 80.5681 266.079 80.4677ZM261.612 75.878C260.964 75.0275 260.364 74.1298 259.826 73.2111C259.656 72.9189 259.754 72.5433 260.046 72.3726C260.339 72.2019 260.713 72.3013 260.884 72.5925C261.396 73.4691 261.968 74.3246 262.586 75.1349C262.791 75.404 262.738 75.7886 262.469 75.9934C262.37 76.0697 262.254 76.1099 262.138 76.1179C261.941 76.13 261.741 76.0476 261.612 75.878Z" fill="#91B3FA"/>
<path d="M298.508 80.9369C298.626 80.9298 298.743 80.8877 298.844 80.8103C299.258 80.49 299.665 80.1557 300.054 79.8163C300.309 79.5944 300.335 79.2068 300.113 78.9518C299.89 78.6977 299.503 78.6706 299.248 78.8925C298.878 79.2158 298.489 79.5351 298.094 79.8414C297.826 80.0482 297.777 80.4328 297.984 80.7009C298.114 80.8676 298.313 80.9499 298.508 80.9369Z" fill="#91B3FA"/>
</g>
<path d="M300.134 69.3893C300.212 69.2818 300.212 69.1373 300.135 69.0288L297.949 65.9512C298.621 64.3216 299.038 62.5724 299.157 60.762L302.475 58.9657C302.591 58.9024 302.655 58.7729 302.634 58.6424L301.892 54.1751C301.871 54.0446 301.769 53.9422 301.638 53.9201L297.918 53.2905C297.221 51.6157 296.262 50.0945 295.1 48.769L296.175 45.1503C296.213 45.0237 296.166 44.8862 296.059 44.8099L292.376 42.1751C292.268 42.0978 292.124 42.0978 292.015 42.1741L288.938 44.36C287.308 43.6883 285.559 43.2716 283.748 43.1521L281.952 39.8345C281.889 39.7181 281.759 39.6548 281.629 39.6759L277.161 40.4169C277.031 40.439 276.929 40.5404 276.906 40.671L276.277 44.3912C274.602 45.088 273.081 46.0469 271.755 47.2097L268.137 46.1333C268.01 46.0951 267.873 46.1423 267.796 46.2498L265.161 49.9328C265.084 50.0402 265.084 50.1848 265.16 50.2933L267.346 53.3708C266.675 55.0005 266.258 56.7496 266.138 58.56L262.821 60.3564C262.704 60.4196 262.641 60.5492 262.662 60.6797L263.403 65.147C263.425 65.2775 263.527 65.3799 263.657 65.402L267.377 66.0316C268.074 67.7064 269.033 69.2276 270.196 70.553L269.121 74.1718C269.082 74.2983 269.13 74.4359 269.237 74.5122L272.92 77.147C273.028 77.2243 273.172 77.2243 273.281 77.148L276.358 74.9621C277.988 75.6338 279.737 76.0505 281.547 76.17L283.344 79.4875C283.407 79.604 283.537 79.6673 283.667 79.6462L288.134 78.9052C288.265 78.8831 288.367 78.7817 288.389 78.6511L289.019 74.9319C290.694 74.2351 292.215 73.2762 293.54 72.1134L297.159 73.1888C297.286 73.227 297.423 73.1798 297.5 73.0723L300.134 69.3893Z" fill="#91B3FA"/>
<path d="M282.264 64.2746C281.03 64.1722 279.911 63.5958 279.112 62.651C278.312 61.7071 277.928 60.5072 278.031 59.2732C278.243 56.7278 280.483 54.832 283.033 55.0389C285.579 55.2507 287.478 57.4949 287.266 60.0403C287.163 61.2733 286.587 62.3939 285.642 63.1932C284.874 63.8428 283.938 64.2184 282.952 64.2806C282.724 64.2957 282.494 64.2937 282.264 64.2746ZM279.251 59.3746C279.176 60.2823 279.458 61.1649 280.046 61.8597C280.635 62.5546 281.458 62.9783 282.366 63.0536C283.274 63.1279 284.155 62.8468 284.85 62.2584C285.545 61.671 285.969 60.8466 286.044 59.9399C286.2 58.0672 284.803 56.4165 282.93 56.2609C282.762 56.2468 282.594 56.2458 282.43 56.2558C280.772 56.3613 279.393 57.6716 279.251 59.3746Z" fill="#BDD0FB"/>
<path d="M283.297 71.1152C283.683 71.0911 284.072 71.0459 284.463 70.9817C285.238 70.8531 286 70.6463 286.731 70.3651C286.764 70.3521 286.796 70.339 286.829 70.327C287.082 70.2266 287.232 69.9776 287.216 69.7195C287.212 69.6572 287.198 69.594 287.174 69.5317C287.049 69.2174 286.694 69.0648 286.378 69.1873C285.699 69.4564 284.987 69.6532 284.262 69.7727C284.222 69.7797 284.182 69.7858 284.142 69.7918C282.425 70.0599 280.707 69.8892 279.114 69.3189C278.248 69.0096 277.42 68.5808 276.649 68.0396C276.643 68.0356 276.637 68.0306 276.63 68.0266C276.61 68.0125 276.591 67.9995 276.572 67.9854C274.332 66.3819 272.85 64.0021 272.399 61.285C272.341 60.9336 272.301 60.5812 272.279 60.2307C272.129 57.8691 272.791 55.5466 274.187 53.5956C275.79 51.3555 278.17 49.8734 280.887 49.4226C283.603 48.9737 286.335 49.6063 288.576 51.2089C290.816 52.8124 292.299 55.1921 292.749 57.9092C292.807 58.2547 292.847 58.6031 292.869 58.9505C292.964 60.4577 292.729 61.9678 292.174 63.3736C292.14 63.4599 292.127 63.5493 292.133 63.6367C292.147 63.8656 292.291 64.0785 292.519 64.1678C292.835 64.2913 293.19 64.1377 293.315 63.8224C293.935 62.25 294.198 60.5601 294.092 58.8742C294.067 58.4846 294.023 58.096 293.959 57.7094C293.455 54.668 291.796 52.0061 289.29 50.2128C286.784 48.4195 283.731 47.7076 280.688 48.2136C277.648 48.7177 274.985 50.3755 273.191 52.8827C271.63 55.0646 270.89 57.6622 271.057 60.305C271.082 60.6976 271.126 61.0913 271.191 61.4849C272.167 67.3729 277.465 71.4857 283.297 71.1152Z" fill="#BDD0FB"/>
<path d="M376.138 129.591C376.123 128.704 375.752 127.861 375.11 127.249C374.467 126.638 373.607 126.309 372.72 126.338L300.982 128.629C299.157 128.687 297.722 130.212 297.776 132.039L301.315 250.848C301.37 252.652 302.856 254.08 304.659 254.062L374.955 253.379C375.838 253.37 376.681 253.009 377.297 252.377C377.912 251.744 378.251 250.891 378.235 250.008L376.138 129.591Z" fill="#91B3FA"/>
<g opacity="0.43">
<path d="M368.654 135.398H304.771C304.15 135.398 303.652 135.73 303.658 136.319L303.719 141.897C303.725 142.488 304.238 143.127 304.861 143.128L368.925 143.179C369.56 143.18 370.051 142.491 370.03 141.894L369.835 136.333C369.816 135.739 369.287 135.398 368.654 135.398Z" fill="white"/>
<path d="M369.069 147.419L304.908 147.313C304.283 147.311 303.784 147.907 303.79 148.501L303.851 154.202C303.857 154.798 304.371 155.364 304.997 155.366L369.342 155.544C369.979 155.546 370.476 154.978 370.455 154.375L370.26 148.624C370.24 148.023 369.704 147.42 369.069 147.419Z" fill="white"/>
<path d="M369.502 160.266L305.05 160.047C304.424 160.045 303.919 160.334 303.925 160.934L303.987 166.683C303.993 167.285 304.508 167.74 305.137 167.743L369.764 168.03C370.403 168.034 370.907 167.579 370.886 166.971L370.689 161.168C370.668 160.564 370.14 160.268 369.502 160.266Z" fill="white"/>
<path d="M369.925 172.798L305.19 172.469C304.561 172.466 304.055 172.873 304.062 173.479L304.124 179.279C304.131 179.886 304.646 180.228 305.277 180.232L370.189 180.632C370.831 180.636 371.34 180.297 371.319 179.684L371.12 173.83C371.098 173.219 370.565 172.801 369.925 172.798Z" fill="white"/>
<path d="M370.35 185.435L305.329 184.992C304.697 184.988 304.191 185.517 304.197 186.127L304.26 191.978C304.267 192.59 304.788 193.254 305.422 193.259L370.63 193.776C371.276 193.781 371.777 193.119 371.756 192.501L371.554 186.595C371.534 185.98 370.994 185.44 370.35 185.435Z" fill="white"/>
<path d="M370.78 198.19L305.471 197.633C304.837 197.628 304.329 198.279 304.335 198.895L304.399 204.798C304.406 205.417 304.928 205.967 305.565 205.973L371.063 206.606C371.712 206.612 372.219 206.065 372.198 205.442L371.995 199.483C371.973 198.862 371.427 198.195 370.78 198.19Z" fill="white"/>
<path d="M371.228 211.506L305.619 210.828C304.981 210.821 304.467 211.157 304.474 211.778L304.538 217.733C304.545 218.357 305.069 218.793 305.708 218.801L371.499 219.552C372.151 219.559 372.664 219.131 372.643 218.502L372.438 212.489C372.416 211.861 371.878 211.512 371.228 211.506Z" fill="white"/>
<path d="M371.666 224.484L305.764 223.688C305.123 223.68 304.608 224.138 304.615 224.765L304.68 230.774C304.687 231.403 305.211 231.721 305.854 231.73L371.94 232.601C372.595 232.61 373.114 232.302 373.093 231.666L372.886 225.599C372.863 224.967 372.318 224.491 371.666 224.484Z" fill="white"/>
<path d="M372.107 237.589L305.908 236.672C305.265 236.663 304.749 237.247 304.755 237.879L304.821 243.942C304.828 244.576 305.358 245.229 306.004 245.238L372.398 246.235C373.055 246.245 373.567 245.602 373.544 244.962L373.336 238.84C373.315 238.202 372.762 237.598 372.107 237.589Z" fill="white"/>
</g>
<path d="M214.876 251.707C214.876 251.707 238.578 106.263 177.893 2.04974C177.102 0.691186 175.176 0.591779 174.264 1.87301C159.866 22.1087 74.5287 153.746 214.876 251.707Z" fill="#BDD0FB"/>
<path opacity="0.52" d="M172.463 44.4312C172.463 44.4312 172.376 45.2305 172.253 46.7356C172.127 48.2408 171.969 50.4508 171.809 53.2663C171.638 56.0818 171.506 59.5038 171.392 63.4299C171.359 65.3939 171.295 67.4824 171.293 69.6864C171.284 70.7879 171.275 71.9175 171.265 73.0743C171.269 74.231 171.273 75.4138 171.278 76.6228C171.276 77.8317 171.294 79.0647 171.32 80.3219C171.343 81.579 171.366 82.8592 171.389 84.1616C171.433 85.4639 171.476 86.7883 171.52 88.1318C171.542 88.8045 171.564 89.4813 171.587 90.1641C171.619 90.8459 171.653 91.5327 171.685 92.2245C171.752 93.6071 171.82 95.0089 171.89 96.4277C171.968 97.8465 172.072 99.2803 172.164 100.731C172.332 103.634 172.585 106.593 172.823 109.604C172.93 111.11 173.104 112.623 173.246 114.15C173.401 115.676 173.535 117.215 173.708 118.759C173.89 120.302 174.071 121.855 174.255 123.416C174.347 124.196 174.439 124.978 174.53 125.763C174.638 126.545 174.746 127.328 174.854 128.113C175.071 129.684 175.288 131.26 175.506 132.842C175.724 134.424 176.001 136.001 176.247 137.586C176.507 139.168 176.738 140.76 177.023 142.343C177.312 143.926 177.6 145.51 177.889 147.095L178.317 149.471C178.461 150.264 178.634 151.049 178.792 151.838C179.114 153.414 179.435 154.989 179.757 156.56C180.06 158.136 180.441 159.69 180.796 161.247C181.154 162.802 181.512 164.352 181.867 165.896C182.625 168.974 183.438 172.012 184.207 175.023C185.069 178.008 185.921 180.956 186.759 183.857C187.678 186.733 188.581 189.56 189.464 192.328C190.427 195.07 191.369 197.753 192.286 200.363C193.252 202.956 194.252 205.456 195.186 207.887C195.424 208.494 195.65 209.098 195.892 209.69C196.144 210.279 196.393 210.861 196.641 211.439C197.135 212.594 197.621 213.727 198.096 214.837C198.571 215.948 199.036 217.035 199.491 218.098C199.982 219.144 200.462 220.166 200.929 221.163C201.864 223.157 202.751 225.049 203.584 226.826C204.483 228.572 205.323 230.205 206.101 231.716C206.49 232.471 206.863 233.196 207.22 233.889C207.577 234.581 207.908 235.247 208.265 235.854C211.033 240.768 212.615 243.577 212.615 243.577L212.619 243.585C212.678 243.69 212.641 243.824 212.536 243.883C212.431 243.941 212.3 243.906 212.239 243.804C212.239 243.804 210.599 241.021 207.729 236.152C207.36 235.548 207.019 234.885 206.651 234.198C206.282 233.509 205.897 232.789 205.496 232.037C204.693 230.534 203.824 228.909 202.895 227.172C202.032 225.402 201.113 223.519 200.144 221.534C199.663 220.539 199.169 219.52 198.664 218.475C198.197 217.413 197.72 216.327 197.232 215.217C196.744 214.107 196.247 212.975 195.739 211.82C195.485 211.243 195.229 210.66 194.971 210.072C194.723 209.48 194.49 208.875 194.245 208.269C193.284 205.839 192.257 203.338 191.262 200.744C190.317 198.131 189.346 195.448 188.353 192.704C187.45 189.93 186.528 187.096 185.591 184.213C184.741 181.304 183.876 178.346 183.002 175.353C182.22 172.334 181.395 169.285 180.624 166.199C180.262 164.649 179.898 163.094 179.534 161.535C179.173 159.973 178.786 158.414 178.476 156.833C178.149 155.257 177.822 153.678 177.493 152.096C177.333 151.305 177.157 150.517 177.009 149.722L176.573 147.338C176.285 145.747 175.998 144.157 175.711 142.567C175.43 140.978 175.203 139.38 174.947 137.791C174.706 136.199 174.432 134.616 174.219 133.028C174.005 131.441 173.791 129.858 173.579 128.282C173.474 127.494 173.368 126.706 173.262 125.922C173.173 125.135 173.082 124.35 172.993 123.568C172.814 122.001 172.637 120.443 172.459 118.893C172.29 117.343 172.16 115.799 172.01 114.269C171.872 112.736 171.702 111.218 171.6 109.706C171.377 106.685 171.116 103.716 170.979 100.804C170.901 99.3476 170.811 97.9087 170.746 96.4859C170.691 95.0621 170.635 93.6563 170.581 92.2687C170.555 91.5748 170.529 90.886 170.503 90.2022C170.487 89.5184 170.471 88.8387 170.456 88.1649C170.425 86.8164 170.393 85.489 170.363 84.1826C170.352 82.8763 170.341 81.5921 170.331 80.3319C170.317 79.0718 170.311 77.8347 170.324 76.6238C170.321 71.778 170.463 67.3368 170.612 63.4037C170.788 59.4707 170.976 56.0437 171.192 53.2262C171.39 50.4066 171.609 48.1966 171.764 46.6895C171.919 45.1833 172.024 44.38 172.024 44.38V44.378C172.04 44.2585 172.15 44.1742 172.269 44.1892C172.393 44.2053 172.476 44.3127 172.463 44.4312Z" fill="white"/>
<path d="M193.394 265.927C193.394 265.927 192.87 96.1995 112.773 46.2605C111.351 45.3738 109.475 46.0516 108.938 47.6391C102.703 66.1035 76.1464 166.352 193.394 265.927Z" fill="#91B3FA"/>
<path opacity="0.52" d="M119.469 76.06C119.469 76.06 120.166 79.0673 121.548 84.2976C122.237 86.9123 123.095 90.0823 124.12 93.7071C125.134 97.3349 126.339 101.411 127.683 105.848C129.043 110.28 130.535 115.076 132.19 120.124C133.004 122.652 133.886 125.235 134.763 127.883C135.674 130.518 136.576 133.222 137.545 135.952C138.507 138.685 139.483 141.464 140.51 144.265C141.517 147.072 142.574 149.899 143.641 152.748C143.907 153.46 144.174 154.175 144.442 154.89C144.716 155.603 144.99 156.316 145.265 157.031C145.815 158.461 146.366 159.893 146.919 161.331C148.036 164.2 149.188 167.068 150.342 169.935C151.526 172.788 152.684 175.654 153.887 178.487C154.492 179.902 155.095 181.315 155.697 182.724C155.999 183.428 156.3 184.131 156.6 184.832C156.908 185.53 157.217 186.227 157.524 186.923C158.763 189.701 159.958 192.472 161.21 195.178C162.454 197.887 163.648 200.579 164.899 203.191C165.516 204.502 166.128 205.8 166.734 207.087C167.034 207.732 167.333 208.374 167.63 209.011C167.936 209.646 168.24 210.276 168.543 210.905C169.76 213.413 170.922 215.88 172.105 218.256C172.697 219.444 173.282 220.615 173.858 221.768C174.427 222.925 174.987 224.065 175.539 225.186C176.672 227.411 177.767 229.562 178.818 231.627C179.857 233.698 180.912 235.652 181.897 237.52C182.882 239.387 183.787 241.175 184.682 242.831C186.477 246.142 188.042 249.028 189.33 251.404C190.642 253.769 191.672 255.627 192.375 256.893C193.072 258.163 193.444 258.842 193.444 258.842L193.446 258.846C193.512 258.967 193.468 259.12 193.346 259.187C193.228 259.252 193.08 259.211 193.011 259.098C193.011 259.098 192.608 258.437 191.854 257.198C191.106 255.955 190.01 254.133 188.613 251.812C187.903 250.658 187.175 249.348 186.364 247.932C185.555 246.514 184.681 244.981 183.747 243.342C181.914 240.047 179.852 236.322 177.709 232.203C176.638 230.144 175.523 227.999 174.367 225.779C173.804 224.66 173.234 223.523 172.654 222.369C172.08 221.211 171.499 220.035 170.909 218.843C168.593 214.055 166.15 209.004 163.775 203.71C161.378 198.425 158.976 192.93 156.613 187.316C155.407 184.519 154.282 181.662 153.088 178.821C151.911 175.972 150.78 173.092 149.622 170.225C148.497 167.343 147.373 164.46 146.254 161.59C145.706 160.151 145.158 158.714 144.613 157.281C144.34 156.565 144.068 155.849 143.796 155.135C143.531 154.418 143.266 153.703 143.002 152.989C141.943 150.134 140.895 147.301 139.897 144.489C138.879 141.683 137.911 138.898 136.958 136.16C135.998 133.423 135.102 130.715 134.201 128.074C133.333 125.422 132.458 122.835 131.653 120.302C130.014 115.245 128.536 110.44 127.19 105.999C125.865 101.553 124.666 97.4725 123.645 93.8436C122.616 90.2168 121.755 87.0449 121.065 84.4272C119.68 79.1948 118.979 76.1775 118.979 76.1775C118.947 76.0419 119.032 75.9074 119.166 75.8752C119.303 75.8401 119.437 75.9234 119.469 76.06Z" fill="white"/>
<path d="M332.292 94.6971C332.275 93.935 331.942 93.2141 331.375 92.705C330.807 92.1959 330.054 91.9449 329.295 92.0102L252.559 98.6573C251.132 98.7808 249.993 99.9747 249.993 101.408V255.663C249.993 257.187 251.317 258.308 252.841 258.308H333.196C333.939 258.308 334.651 258.066 335.17 257.534C335.689 257.003 335.972 256.313 335.955 255.571L332.292 94.6971Z" fill="#91B3FA"/>
<g opacity="0.68">
<path d="M265.191 106.268L259.334 106.664C258.692 106.707 258.363 107.299 258.363 107.989V248.697C258.363 249.401 258.506 250.237 259.155 250.237H265.268C265.921 250.237 266.457 249.531 266.457 248.825L266.37 107.511C266.369 106.817 265.836 106.225 265.191 106.268Z" fill="#BDD0FB"/>
<path opacity="0.7" d="M279.4 105.33L273.273 105.732C272.622 105.774 271.996 106.379 271.997 107.071L272.143 248.815C272.144 249.523 272.779 250.23 273.436 250.23H279.63C280.291 250.23 280.731 249.52 280.729 248.809L280.492 106.585C280.49 105.89 280.053 105.287 279.4 105.33Z" fill="#BDD0FB"/>
<path d="M293.793 104.393L287.587 104.8C286.928 104.843 286.549 105.434 286.55 106.132L286.851 248.813C286.853 249.526 287.239 250.237 287.904 250.237H294.179C294.849 250.237 295.554 249.524 295.552 248.808L295.158 105.639C295.156 104.938 294.456 104.349 293.793 104.393Z" fill="#BDD0FB"/>
<path d="M308.376 103.432L302.087 103.845C301.42 103.889 300.933 104.49 300.935 105.193L301.39 248.801C301.392 249.519 301.889 250.234 302.564 250.234H308.922C309.601 250.234 310.209 249.517 310.206 248.796L309.655 104.693C309.653 103.987 309.048 103.388 308.376 103.432Z" fill="#BDD0FB"/>
<path d="M323.152 102.463L316.779 102.881C316.104 102.925 315.505 103.538 315.508 104.245L316.124 248.792C316.127 249.515 316.737 250.233 317.421 250.233H323.864C324.552 250.233 325.061 249.512 325.057 248.786L324.344 103.737C324.341 103.028 323.832 102.419 323.152 102.463Z" fill="#BDD0FB"/>
</g>
<path d="M272.214 126.767C272.203 125.96 271.867 125.193 271.281 124.639C270.696 124.085 269.912 123.791 269.106 123.823L207.899 126.277C206.849 126.319 206.026 127.195 206.051 128.247L209.158 259.094L271.047 258.339C271.841 258.329 272.598 258.005 273.151 257.437C273.704 256.868 274.01 256.103 273.998 255.31L272.214 126.767Z" fill="#BDD0FB"/>
<g opacity="0.5">
<path d="M222.92 150.885L213.071 150.888L212.954 134.055H222.825L222.92 150.885Z" fill="white"/>
<path d="M237.059 150.854L227.246 150.857L227.16 134.055H236.994L237.059 150.854Z" fill="white"/>
<path d="M251.925 150.821L242.151 150.824L242.098 134.055H251.894L251.925 150.821Z" fill="white"/>
<path d="M266.758 150.828L256.814 150.811L256.587 134.055H266.758V150.828Z" fill="white"/>
<path d="M223.054 174.79L213.236 174.842L213.12 158.133L222.961 158.102L223.054 174.79Z" fill="white"/>
<path d="M237.149 174.713L227.367 174.765L227.281 158.086L237.085 158.055L237.149 174.713Z" fill="white"/>
<path d="M251.969 174.633L242.226 174.685L242.173 158.038L251.938 158.008L251.969 174.633Z" fill="white"/>
<path d="M266.758 174.555L256.844 174.607L256.927 157.992L266.758 157.961V174.555Z" fill="white"/>
<path d="M223.193 199.285L213.406 199.369L213.291 182.766L223.1 182.703L223.193 199.285Z" fill="white"/>
<path d="M237.242 199.169L227.492 199.253L227.407 182.68L237.179 182.617L237.242 199.169Z" fill="white"/>
<path d="M252.016 199.043L242.303 199.126L242.251 182.586L251.985 182.523L252.016 199.043Z" fill="white"/>
<path d="M266.758 198.917L256.875 199L256.958 182.491L266.758 182.43V198.917Z" fill="white"/>
<path d="M223.328 223.249L213.571 223.363L213.46 207.258L223.237 207.164L223.328 223.249Z" fill="white"/>
<path d="M237.332 223.087L227.613 223.2L227.531 207.125L237.272 207.031L237.332 223.087Z" fill="white"/>
<path d="M252.059 222.916L242.377 223.03L242.327 206.984L252.029 206.891L252.059 222.916Z" fill="white"/>
<path d="M266.758 222.744L256.905 222.858L256.988 206.843L266.758 206.75V222.744Z" fill="white"/>
<path d="M223.464 247.436L213.739 247.582L213.629 231.579L223.375 231.453L223.464 247.436Z" fill="white"/>
<path d="M237.425 247.234L227.736 247.38L227.654 231.406L237.364 231.281L237.425 247.234Z" fill="white"/>
<path d="M252.105 247.009L242.454 247.154L242.403 231.209L252.076 231.086L252.105 247.009Z" fill="white"/>
<path d="M266.758 246.8L256.936 246.944L257.019 231.03L266.758 230.906V246.8Z" fill="white"/>
</g>
<path d="M222.703 183.649H130.307C129.105 183.649 128.131 182.675 128.131 181.473V117.66C128.131 116.458 129.105 115.484 130.307 115.484H222.703C223.905 115.484 224.879 116.458 224.879 117.66V181.473C224.878 182.675 223.904 183.649 222.703 183.649Z" fill="url(#paint1_linear_4553_94431)"/>
<path d="M226.463 183.649H134.066C132.864 183.649 131.89 182.675 131.89 181.473V117.66C131.89 116.458 132.864 115.484 134.066 115.484H226.463C227.664 115.484 228.638 116.458 228.638 117.66V181.473C228.638 182.675 227.664 183.649 226.463 183.649Z" fill="url(#paint2_linear_4553_94431)"/>
<path d="M159.506 174.677C158.762 174.677 158.134 174.668 157.635 174.658C156.785 174.641 156.088 174.015 155.98 173.169C155.87 172.318 156.391 171.533 157.217 171.3C161.638 170.061 166.459 167.955 170.008 166.25C153.08 164.871 149.7 156.176 149.047 152.199C147.4 142.17 156.104 130.821 168.451 126.901C181.05 122.904 193.813 124.344 200.971 130.572C204.774 133.883 208.899 140.221 206.954 151.626C203.316 172.967 170.035 174.677 159.506 174.677ZM157.699 171.585H157.703C157.703 171.585 157.701 171.585 157.699 171.585ZM182.158 163.24L176.795 166.23C176.513 166.387 171.791 169.005 166.051 171.406C179.12 170.618 201.231 166.926 203.927 151.109C205.294 143.082 203.622 136.951 198.955 132.889C191.715 126.587 178.886 126.813 169.381 129.827C158.616 133.245 150.693 143.26 152.08 151.699C153.338 159.359 162.062 163.644 176.02 163.351L182.158 163.24Z" fill="white"/>
<path d="M223.883 103.5H131.486C130.285 103.5 129.311 102.526 129.311 101.325V37.5118C129.311 36.3099 130.285 35.3359 131.486 35.3359H223.883C225.085 35.3359 226.059 36.3099 226.059 37.5118V101.325C226.059 102.526 225.085 103.5 223.883 103.5Z" fill="url(#paint3_linear_4553_94431)"/>
<path d="M227.629 103.836H135.233C134.031 103.836 133.057 102.862 133.057 101.66V37.8478C133.057 36.6459 134.031 35.6719 135.233 35.6719H227.629C228.831 35.6719 229.805 36.6459 229.805 37.8478V101.66C229.805 102.862 228.831 103.836 227.629 103.836Z" fill="url(#paint4_linear_4553_94431)"/>
<path d="M202.664 93.8396H157.064C153.328 93.8396 150.287 90.8002 150.287 87.0629V51.847C150.287 48.1107 153.327 45.0703 157.064 45.0703H202.664C206.4 45.0703 209.441 48.1097 209.441 51.847V87.0629C209.441 90.7991 206.401 93.8396 202.664 93.8396ZM157.064 47.4209C154.624 47.4209 152.638 49.406 152.638 51.847V87.0629C152.638 89.5029 154.623 91.489 157.064 91.489H202.664C205.104 91.489 207.09 89.5039 207.09 87.0629V51.847C207.09 49.407 205.105 47.4209 202.664 47.4209H157.064Z" fill="url(#paint5_linear_4553_94431)"/>
<path d="M179.757 69.5801L152.27 48.9588L153.681 47.0781L179.796 66.6702L206.574 47.6766L207.933 49.5934L179.757 69.5801Z" fill="url(#paint6_linear_4553_94431)"/>
<path d="M206.231 91.648L189.13 61.3422L191.177 60.1875L208.277 90.4923L206.231 91.648Z" fill="url(#paint7_linear_4553_94431)"/>
<path d="M153.622 91.3776L151.564 90.2419L168.37 59.7734L170.429 60.9091L153.622 91.3776Z" fill="url(#paint8_linear_4553_94431)"/>
<path d="M222.703 265.665H130.307C129.105 265.665 128.131 264.691 128.131 263.489V199.676C128.131 198.474 129.105 197.5 130.307 197.5H222.703C223.905 197.5 224.879 198.474 224.879 199.676V263.489C224.878 264.691 223.904 265.665 222.703 265.665Z" fill="url(#paint9_linear_4553_94431)"/>
<path d="M226.463 265.665H134.066C132.864 265.665 131.89 264.691 131.89 263.489V199.676C131.89 198.474 132.864 197.5 134.066 197.5H226.463C227.664 197.5 228.638 198.474 228.638 199.676V263.489C228.638 264.691 227.664 265.665 226.463 265.665Z" fill="url(#paint10_linear_4553_94431)"/>
<path d="M195.405 255.892C191.632 255.892 187.196 254.123 182.182 250.612C178.866 248.291 164.396 233.821 162.075 230.505C157.892 224.529 156.182 219.375 156.992 215.186C157.516 212.478 159.124 210.178 161.641 208.535L163.842 207.099C165.474 206.036 167.681 206.487 168.761 208.108L174.84 217.227C176.09 219.1 175.631 221.591 173.797 222.898L173.754 222.926L172.706 223.606C171.756 224.224 171.154 225.226 171.055 226.355C170.957 227.484 171.377 228.574 172.206 229.347L172.236 229.376L183.34 240.48C184.112 241.309 185.203 241.728 186.331 241.632C187.46 241.533 188.464 240.932 189.081 239.981L189.789 238.893C191.095 237.056 193.587 236.597 195.461 237.848L204.579 243.926C206.2 245.008 206.653 247.215 205.589 248.845L204.152 251.047C202.509 253.564 200.21 255.172 197.501 255.696C196.829 255.827 196.129 255.892 195.405 255.892ZM183.529 248.687C188.965 252.491 193.517 254.074 197.056 253.388C199.154 252.982 200.879 251.762 202.184 249.762L203.62 247.56C203.984 247.003 203.829 246.25 203.276 245.88L194.158 239.802C193.353 239.265 192.286 239.457 191.718 240.235L191.053 241.259C190.037 242.822 188.39 243.81 186.535 243.971C184.687 244.131 182.903 243.448 181.635 242.096L170.589 231.049C169.237 229.781 168.553 227.997 168.714 226.149C168.876 224.294 169.864 222.647 171.426 221.632L172.45 220.967C173.228 220.398 173.42 219.332 172.884 218.527L166.805 209.409C166.437 208.857 165.681 208.702 165.125 209.065L162.924 210.502C160.924 211.806 159.704 213.532 159.298 215.629C158.614 219.17 160.195 223.721 163.999 229.155C166.18 232.269 180.417 246.507 183.529 248.687Z" fill="url(#paint11_linear_4553_94431)"/>
<path d="M294.06 194.83C294.024 194.832 293.988 194.833 293.951 194.833L246.498 194.785C245.325 194.784 244.375 193.815 244.376 192.621C244.377 191.426 245.333 190.439 246.503 190.461L293.957 190.509C295.129 190.511 296.079 191.479 296.078 192.673C296.076 193.829 295.183 194.774 294.06 194.83Z" fill="url(#paint12_linear_4553_94431)"/>
<path d="M228.12 147.431C228.137 147.464 228.153 147.497 228.169 147.53L248.135 191.435C248.629 192.521 248.168 193.808 247.106 194.31C246.044 194.813 244.763 194.345 244.288 193.254L224.322 149.348C223.828 148.263 224.289 146.976 225.351 146.474C226.38 145.988 227.596 146.417 228.12 147.431Z" fill="url(#paint13_linear_4553_94431)"/>
<path d="M298.624 265.396C298.624 265.396 299.039 267.702 299.203 270.44C299.273 271.607 298.409 272.62 297.245 272.734C293.194 273.126 283.974 273.852 278.087 273.003C277.262 272.883 276.934 271.871 277.545 271.303C279.972 269.042 285.834 264.642 295.484 263.68L298.624 265.396Z" fill="url(#paint14_linear_4553_94431)"/>
<path d="M300.637 260.193L298.588 265.213C298.307 265.901 297.609 266.328 296.871 266.251C296.37 266.199 295.776 266.102 295.198 265.927C294.043 265.576 293.391 264.351 293.737 263.194L295.282 258.023L300.637 260.193Z" fill="url(#paint15_linear_4553_94431)"/>
<path d="M335.651 269.391C335.651 269.391 331.55 272.822 329.951 277.224C329.512 278.435 330.44 279.71 331.729 279.71H340.168C341.403 279.71 342.35 278.598 342.135 277.382C341.598 274.342 340.048 269.403 335.651 269.391Z" fill="url(#paint16_linear_4553_94431)"/>
<path d="M340.732 264.93C340.732 264.93 339.903 268.597 339.267 271.02C339.151 271.46 338.682 271.701 338.253 271.548C336.976 271.091 335.937 270.89 335.182 270.991C334.832 271.038 334.528 270.747 334.523 270.395L334.444 264.305L340.732 264.93Z" fill="url(#paint17_linear_4553_94431)"/>
<path d="M318.92 182.423L293.976 258.523C293.976 258.523 298.76 261.657 301.039 261.526L330.667 200.369C330.667 200.369 335.852 238.053 333.34 265.106L341.827 265.754C341.827 265.754 355.626 196.617 345.175 172.938L318.92 182.423Z" fill="url(#paint18_linear_4553_94431)"/>
<path d="M330.508 199.714C330.518 199.714 330.528 199.713 330.538 199.712C330.671 199.695 330.764 199.574 330.748 199.442L329.78 191.758C329.764 191.626 329.644 191.534 329.51 191.548C329.377 191.565 329.284 191.686 329.3 191.818L330.268 199.502C330.284 199.624 330.388 199.714 330.508 199.714Z" fill="url(#paint19_linear_4553_94431)"/>
<path d="M314.243 115.461C314.243 115.461 334.453 117.255 331.594 131.655C331.594 131.655 342.766 152.679 347.988 177.444C348.158 178.25 347.619 179.036 346.806 179.175L313.15 184.938C312.221 185.096 311.326 184.518 311.09 183.605L303.048 152.526L299.915 166.976L289.958 164.382L298.34 121.921C298.341 121.922 299.511 115.727 314.243 115.461Z" fill="url(#paint20_linear_4553_94431)"/>
<path d="M302.879 151.141C302.896 151.141 302.914 151.139 302.932 151.135C303.068 151.106 303.153 150.972 303.124 150.837L300.318 137.955C300.289 137.819 300.157 137.735 300.02 137.763C299.885 137.792 299.799 137.926 299.828 138.061L302.634 150.943C302.66 151.061 302.763 151.141 302.879 151.141Z" fill="url(#paint21_linear_4553_94431)"/>
<path d="M304.91 189.471C305.971 188.888 307.212 188.727 308.385 189.019L310.727 189.602C311.225 189.725 311.718 189.383 311.775 188.873L314.198 167.305C317.229 168.744 321.599 168.572 323.041 168.466L317.464 193.894H297.947L304.91 189.471Z" fill="url(#paint22_linear_4553_94431)"/>
<path d="M253.053 142.688L253.644 140.727C253.983 139.599 254.817 138.686 255.91 138.247L266.579 133.957C266.579 133.957 266.74 132.588 264.325 131.658C261.91 130.728 262.475 128.023 262.475 128.023C262.475 128.023 265.774 129.529 270.605 131.916C273.368 133.282 274.918 135.693 275.74 137.507L299.916 166.98L297.077 168.93C293.345 171.494 288.211 170.234 286.09 166.234L272.993 141.119C266.418 143.094 259.764 143.472 253.053 142.688Z" fill="url(#paint23_linear_4553_94431)"/>
<path d="M307.697 101.712L313.913 119.109C313.913 119.109 308.408 123.413 304.392 121.958L301.259 111.985C301.259 111.985 303.651 99.7963 307.697 101.712Z" fill="url(#paint24_linear_4553_94431)"/>
<path d="M291.896 97.8327C291.896 97.8327 293.742 105.972 295.94 109.341C298.137 112.71 298.984 115.323 303.205 113.225C307.426 111.127 309.209 106.946 308.549 102.467C308.549 102.467 307.575 95.5329 305.48 93.94C303.384 92.3454 291.896 97.8327 291.896 97.8327Z" fill="url(#paint25_linear_4553_94431)"/>
<path d="M305.567 101.087L305.285 101.149C304.925 101.229 304.572 100.991 304.515 100.627C304.294 99.2196 303.606 96.1265 301.876 96.5586C299.648 97.1141 291.845 100.716 288.613 99.3839C285.506 98.104 284.559 94.2015 285.808 91.9747C285.892 91.8251 286.072 91.7619 286.226 91.8362L286.6 92.0171C286.855 92.1406 287.131 91.8909 287.033 91.6241C286.939 91.368 287.19 91.1217 287.443 91.2226C288.422 91.6126 290.495 91.8875 294.184 90.1003C299.427 87.5601 303.853 87.186 306.272 90.3208C306.426 90.5204 306.725 90.4737 306.82 90.2414C307.008 89.7831 307.482 89.2847 308.662 89.3621C310.712 89.4969 312.226 92.6434 311.118 96.9611C311.065 97.1662 311.218 97.3713 311.429 97.3592C312.173 97.3171 313.499 97.5456 312.316 100.016C311.094 102.571 309.525 103.588 308.876 103.918C308.714 103.999 308.519 103.928 308.446 103.763L307.004 100.505C306.922 100.32 306.691 100.259 306.529 100.378L305.566 101.086L305.567 101.087Z" fill="url(#paint26_linear_4553_94431)"/>
<path d="M305.885 101.766C305.885 101.766 304.015 97.0741 306.592 96.8809C309.171 96.6879 308.919 101.968 307.607 103.159L305.885 101.766Z" fill="url(#paint27_linear_4553_94431)"/>
<path d="M321.08 168.789C322.46 168.789 323.444 168.685 323.55 168.672L323.73 168.652L331.089 134.342C331.118 134.207 331.032 134.073 330.896 134.045C330.76 134.015 330.628 134.102 330.599 134.238L323.316 168.193C322.221 168.289 316.373 168.678 313.285 166.49L319.66 136.681L318.33 134.174C318.265 134.051 318.113 134.005 317.991 134.069C317.868 134.134 317.822 134.286 317.886 134.408L319.131 136.755L312.727 166.701L312.855 166.798C315.087 168.472 318.68 168.789 321.08 168.789Z" fill="url(#paint28_linear_4553_94431)"/>
<path d="M280.815 198.852C281.008 199.504 299.385 255.963 304.044 270.276C304.581 271.926 303.081 273.546 301.02 273.546C299.583 273.546 298.33 272.734 297.983 271.579L277.583 203.826L280.815 198.852Z" fill="#7D97F4"/>
<path d="M270.75 198.852C270.558 199.504 252.181 255.963 247.522 270.276C246.984 271.926 248.484 273.546 250.545 273.546C251.982 273.546 253.235 272.734 253.582 271.579L273.983 203.826L270.75 198.852Z" fill="#7D97F4"/>
<path d="M269.985 196.602H281.431V205.793C281.431 207.115 280.373 208.185 279.067 208.185H277.497V228.83C277.497 229.83 276.696 230.641 275.708 230.641C274.72 230.641 273.918 229.83 273.918 228.83V208.185H273.122C271.39 208.185 269.985 206.763 269.985 205.01V196.602Z" fill="#7D97F4"/>
<path d="M316.398 194.391H236.313C235.193 194.391 234.216 195.002 233.936 195.878L232.818 199.377C232.415 200.636 233.598 201.862 235.208 201.854L317.384 201.473C318.977 201.466 320.139 200.254 319.75 199.006L318.777 195.889C318.504 195.008 317.523 194.391 316.398 194.391Z" fill="#7D97F4"/>
</g>
<path d="M180.07 416.766H175.715C175.636 416.202 175.473 415.702 175.228 415.264C174.983 414.82 174.668 414.442 174.283 414.131C173.899 413.819 173.455 413.58 172.951 413.415C172.454 413.249 171.914 413.166 171.33 413.166C170.276 413.166 169.358 413.428 168.576 413.952C167.794 414.469 167.187 415.224 166.756 416.219C166.325 417.206 166.11 418.406 166.11 419.818C166.11 421.27 166.325 422.49 166.756 423.477C167.194 424.465 167.804 425.211 168.586 425.714C169.368 426.218 170.273 426.47 171.3 426.47C171.877 426.47 172.411 426.394 172.901 426.241C173.398 426.089 173.839 425.867 174.224 425.575C174.608 425.277 174.926 424.916 175.178 424.491C175.437 424.067 175.616 423.583 175.715 423.04L180.07 423.06C179.958 423.994 179.676 424.896 179.225 425.764C178.781 426.626 178.181 427.398 177.425 428.081C176.676 428.757 175.781 429.294 174.741 429.692C173.707 430.083 172.537 430.278 171.231 430.278C169.414 430.278 167.79 429.867 166.359 429.045C164.933 428.223 163.806 427.034 162.978 425.476C162.156 423.918 161.745 422.032 161.745 419.818C161.745 417.598 162.163 415.708 162.998 414.151C163.833 412.593 164.967 411.406 166.398 410.591C167.83 409.769 169.441 409.358 171.231 409.358C172.411 409.358 173.504 409.524 174.512 409.855C175.526 410.187 176.424 410.67 177.207 411.307C177.989 411.937 178.625 412.709 179.116 413.624C179.613 414.538 179.931 415.586 180.07 416.766ZM189.979 430.298C188.434 430.298 187.098 429.97 185.972 429.314C184.851 428.651 183.986 427.73 183.376 426.55C182.766 425.363 182.462 423.988 182.462 422.423C182.462 420.846 182.766 419.467 183.376 418.287C183.986 417.1 184.851 416.179 185.972 415.523C187.098 414.86 188.434 414.528 189.979 414.528C191.523 414.528 192.855 414.86 193.976 415.523C195.103 416.179 195.971 417.1 196.581 418.287C197.191 419.467 197.496 420.846 197.496 422.423C197.496 423.988 197.191 425.363 196.581 426.55C195.971 427.73 195.103 428.651 193.976 429.314C192.855 429.97 191.523 430.298 189.979 430.298ZM189.998 427.017C190.701 427.017 191.288 426.818 191.758 426.42C192.229 426.016 192.584 425.466 192.822 424.77C193.068 424.074 193.19 423.282 193.19 422.393C193.19 421.505 193.068 420.713 192.822 420.017C192.584 419.321 192.229 418.771 191.758 418.366C191.288 417.962 190.701 417.76 189.998 417.76C189.289 417.76 188.693 417.962 188.209 418.366C187.731 418.771 187.37 419.321 187.125 420.017C186.886 420.713 186.767 421.505 186.767 422.393C186.767 423.282 186.886 424.074 187.125 424.77C187.37 425.466 187.731 426.016 188.209 426.42C188.693 426.818 189.289 427.017 189.998 427.017ZM204.486 421.17V430H200.25V414.727H204.287V417.422H204.466C204.804 416.534 205.371 415.831 206.166 415.314C206.962 414.79 207.926 414.528 209.06 414.528C210.12 414.528 211.045 414.76 211.834 415.224C212.623 415.688 213.236 416.351 213.673 417.213C214.111 418.068 214.329 419.089 214.329 420.276V430H210.094V421.031C210.1 420.097 209.862 419.367 209.378 418.844C208.894 418.313 208.228 418.048 207.379 418.048C206.809 418.048 206.305 418.171 205.868 418.416C205.437 418.661 205.099 419.019 204.854 419.49C204.615 419.954 204.492 420.514 204.486 421.17ZM221.904 421.17V430H217.668V414.727H221.705V417.422H221.884C222.222 416.534 222.789 415.831 223.584 415.314C224.38 414.79 225.344 414.528 226.478 414.528C227.538 414.528 228.463 414.76 229.252 415.224C230.041 415.688 230.654 416.351 231.091 417.213C231.529 418.068 231.747 419.089 231.747 420.276V430H227.512V421.031C227.518 420.097 227.28 419.367 226.796 418.844C226.312 418.313 225.646 418.048 224.797 418.048C224.227 418.048 223.723 418.171 223.286 418.416C222.855 418.661 222.517 419.019 222.272 419.49C222.033 419.954 221.91 420.514 221.904 421.17ZM242.046 430.298C240.475 430.298 239.123 429.98 237.989 429.344C236.862 428.701 235.994 427.793 235.384 426.619C234.774 425.439 234.469 424.044 234.469 422.433C234.469 420.862 234.774 419.483 235.384 418.297C235.994 417.11 236.852 416.186 237.959 415.523C239.073 414.86 240.379 414.528 241.877 414.528C242.885 414.528 243.823 414.691 244.691 415.016C245.566 415.334 246.328 415.814 246.978 416.457C247.634 417.1 248.145 417.909 248.509 418.884C248.874 419.851 249.056 420.985 249.056 422.284V423.447H236.16V420.822H245.069C245.069 420.213 244.936 419.672 244.671 419.202C244.406 418.731 244.038 418.363 243.567 418.098C243.103 417.826 242.563 417.69 241.947 417.69C241.304 417.69 240.734 417.839 240.236 418.138C239.746 418.429 239.361 418.824 239.083 419.321C238.805 419.812 238.662 420.358 238.655 420.962V423.457C238.655 424.213 238.795 424.866 239.073 425.416C239.358 425.966 239.759 426.391 240.276 426.689C240.793 426.987 241.406 427.136 242.116 427.136C242.586 427.136 243.017 427.07 243.408 426.938C243.799 426.805 244.134 426.606 244.413 426.341C244.691 426.076 244.903 425.751 245.049 425.366L248.967 425.625C248.768 426.566 248.36 427.388 247.744 428.091C247.134 428.787 246.345 429.33 245.377 429.722C244.416 430.106 243.306 430.298 242.046 430.298ZM258.721 430.298C257.156 430.298 255.811 429.967 254.684 429.304C253.564 428.634 252.702 427.706 252.099 426.52C251.502 425.333 251.204 423.968 251.204 422.423C251.204 420.859 251.505 419.487 252.109 418.307C252.718 417.12 253.583 416.196 254.704 415.533C255.824 414.863 257.156 414.528 258.701 414.528C260.033 414.528 261.2 414.77 262.201 415.254C263.202 415.738 263.994 416.418 264.577 417.293C265.161 418.168 265.482 419.195 265.542 420.375H261.545C261.432 419.613 261.134 419 260.65 418.536C260.172 418.065 259.546 417.83 258.771 417.83C258.114 417.83 257.541 418.009 257.05 418.366C256.566 418.718 256.189 419.232 255.917 419.908C255.645 420.584 255.509 421.402 255.509 422.364C255.509 423.338 255.642 424.167 255.907 424.849C256.179 425.532 256.56 426.053 257.05 426.411C257.541 426.768 258.114 426.947 258.771 426.947C259.254 426.947 259.689 426.848 260.073 426.649C260.464 426.45 260.786 426.162 261.038 425.784C261.296 425.4 261.465 424.939 261.545 424.402H265.542C265.476 425.569 265.157 426.596 264.587 427.484C264.024 428.366 263.245 429.055 262.251 429.553C261.256 430.05 260.08 430.298 258.721 430.298ZM276.377 414.727V417.909H267.18V414.727H276.377ZM269.268 411.068H273.504V425.307C273.504 425.698 273.563 426.003 273.683 426.222C273.802 426.434 273.968 426.583 274.18 426.669C274.399 426.755 274.651 426.798 274.936 426.798C275.134 426.798 275.333 426.782 275.532 426.749C275.731 426.709 275.884 426.679 275.99 426.659L276.656 429.811C276.444 429.877 276.145 429.954 275.761 430.04C275.376 430.133 274.909 430.189 274.359 430.209C273.338 430.249 272.443 430.113 271.674 429.801C270.912 429.49 270.319 429.006 269.894 428.349C269.47 427.693 269.261 426.865 269.268 425.864V411.068ZM279.137 430V414.727H283.372V430H279.137ZM281.264 412.759C280.635 412.759 280.094 412.55 279.644 412.132C279.2 411.708 278.978 411.201 278.978 410.611C278.978 410.027 279.2 409.527 279.644 409.109C280.094 408.685 280.635 408.473 281.264 408.473C281.894 408.473 282.431 408.685 282.875 409.109C283.326 409.527 283.551 410.027 283.551 410.611C283.551 411.201 283.326 411.708 282.875 412.132C282.431 412.55 281.894 412.759 281.264 412.759ZM293.666 430.298C292.122 430.298 290.786 429.97 289.659 429.314C288.539 428.651 287.674 427.73 287.064 426.55C286.454 425.363 286.149 423.988 286.149 422.423C286.149 420.846 286.454 419.467 287.064 418.287C287.674 417.1 288.539 416.179 289.659 415.523C290.786 414.86 292.122 414.528 293.666 414.528C295.211 414.528 296.543 414.86 297.663 415.523C298.79 416.179 299.659 417.1 300.268 418.287C300.878 419.467 301.183 420.846 301.183 422.423C301.183 423.988 300.878 425.363 300.268 426.55C299.659 427.73 298.79 428.651 297.663 429.314C296.543 429.97 295.211 430.298 293.666 430.298ZM293.686 427.017C294.389 427.017 294.975 426.818 295.446 426.42C295.917 426.016 296.271 425.466 296.51 424.77C296.755 424.074 296.878 423.282 296.878 422.393C296.878 421.505 296.755 420.713 296.51 420.017C296.271 419.321 295.917 418.771 295.446 418.366C294.975 417.962 294.389 417.76 293.686 417.76C292.977 417.76 292.38 417.962 291.896 418.366C291.419 418.771 291.058 419.321 290.812 420.017C290.574 420.713 290.454 421.505 290.454 422.393C290.454 423.282 290.574 424.074 290.812 424.77C291.058 425.466 291.419 426.016 291.896 426.42C292.38 426.818 292.977 427.017 293.686 427.017ZM308.173 421.17V430H303.937V414.727H307.974V417.422H308.153C308.491 416.534 309.058 415.831 309.854 415.314C310.649 414.79 311.614 414.528 312.747 414.528C313.808 414.528 314.732 414.76 315.521 415.224C316.31 415.688 316.923 416.351 317.361 417.213C317.798 418.068 318.017 419.089 318.017 420.276V430H313.781V421.031C313.788 420.097 313.549 419.367 313.065 418.844C312.581 418.313 311.915 418.048 311.067 418.048C310.497 418.048 309.993 418.171 309.555 418.416C309.124 418.661 308.786 419.019 308.541 419.49C308.302 419.954 308.18 420.514 308.173 421.17Z" fill="#2F2F2F"/>
<path d="M133.87 461.182C133.794 460.534 133.483 460.031 132.937 459.673C132.392 459.315 131.723 459.136 130.93 459.136C130.35 459.136 129.843 459.23 129.409 459.418C128.978 459.605 128.642 459.863 128.399 460.191C128.16 460.519 128.041 460.892 128.041 461.31C128.041 461.659 128.124 461.96 128.29 462.211C128.46 462.458 128.678 462.665 128.942 462.831C129.206 462.993 129.483 463.127 129.773 463.234C130.063 463.336 130.329 463.419 130.572 463.483L131.902 463.841C132.242 463.93 132.622 464.054 133.039 464.212C133.461 464.369 133.864 464.585 134.247 464.857C134.635 465.126 134.955 465.471 135.206 465.893C135.458 466.315 135.583 466.832 135.583 467.446C135.583 468.153 135.398 468.793 135.027 469.364C134.661 469.935 134.124 470.388 133.416 470.725C132.713 471.062 131.859 471.23 130.853 471.23C129.916 471.23 129.104 471.079 128.418 470.776C127.736 470.474 127.199 470.052 126.807 469.511C126.419 468.969 126.2 468.341 126.149 467.625H127.785C127.828 468.119 127.994 468.528 128.284 468.852C128.578 469.172 128.948 469.411 129.396 469.568C129.848 469.722 130.333 469.798 130.853 469.798C131.458 469.798 132.002 469.7 132.483 469.504C132.965 469.304 133.346 469.027 133.627 468.673C133.909 468.315 134.049 467.898 134.049 467.42C134.049 466.986 133.928 466.632 133.685 466.359C133.442 466.087 133.122 465.865 132.726 465.695C132.33 465.524 131.902 465.375 131.441 465.247L129.831 464.787C128.808 464.493 127.998 464.073 127.402 463.528C126.805 462.982 126.507 462.268 126.507 461.386C126.507 460.653 126.705 460.014 127.101 459.469C127.502 458.919 128.039 458.493 128.712 458.19C129.389 457.884 130.146 457.73 130.981 457.73C131.825 457.73 132.575 457.881 133.231 458.184C133.887 458.482 134.407 458.891 134.791 459.411C135.179 459.931 135.383 460.521 135.404 461.182H133.87ZM141.895 461.182V462.46H136.807V461.182H141.895ZM138.29 458.83H139.798V468.188C139.798 468.614 139.86 468.933 139.984 469.146C140.112 469.355 140.274 469.496 140.47 469.568C140.67 469.636 140.881 469.67 141.102 469.67C141.269 469.67 141.405 469.662 141.512 469.645C141.618 469.624 141.703 469.607 141.767 469.594L142.074 470.949C141.972 470.987 141.829 471.026 141.646 471.064C141.463 471.107 141.23 471.128 140.949 471.128C140.523 471.128 140.105 471.036 139.696 470.853C139.291 470.67 138.955 470.391 138.686 470.016C138.422 469.641 138.29 469.168 138.29 468.597V458.83ZM146.693 471.23C146.071 471.23 145.507 471.113 145 470.879C144.492 470.64 144.09 470.297 143.791 469.849C143.493 469.398 143.344 468.852 143.344 468.213C143.344 467.651 143.455 467.195 143.676 466.845C143.898 466.491 144.194 466.214 144.565 466.014C144.936 465.814 145.345 465.665 145.792 465.567C146.244 465.464 146.698 465.384 147.154 465.324C147.75 465.247 148.234 465.19 148.605 465.151C148.98 465.109 149.252 465.038 149.423 464.94C149.598 464.842 149.685 464.672 149.685 464.429V464.378C149.685 463.747 149.512 463.257 149.167 462.908C148.826 462.558 148.308 462.384 147.614 462.384C146.894 462.384 146.329 462.541 145.92 462.857C145.511 463.172 145.223 463.509 145.057 463.866L143.625 463.355C143.881 462.759 144.222 462.294 144.648 461.962C145.078 461.625 145.547 461.391 146.054 461.259C146.566 461.122 147.068 461.054 147.563 461.054C147.878 461.054 148.24 461.092 148.649 461.169C149.063 461.241 149.461 461.393 149.845 461.623C150.233 461.853 150.554 462.2 150.81 462.665C151.066 463.129 151.193 463.751 151.193 464.531V471H149.685V469.67H149.608C149.506 469.884 149.335 470.112 149.097 470.354C148.858 470.597 148.541 470.804 148.144 470.974C147.748 471.145 147.264 471.23 146.693 471.23ZM146.924 469.875C147.52 469.875 148.023 469.758 148.432 469.523C148.845 469.289 149.157 468.987 149.365 468.616C149.578 468.245 149.685 467.855 149.685 467.446V466.065C149.621 466.142 149.48 466.212 149.263 466.276C149.05 466.336 148.803 466.389 148.522 466.436C148.245 466.479 147.974 466.517 147.71 466.551C147.45 466.581 147.239 466.607 147.077 466.628C146.685 466.679 146.318 466.762 145.978 466.877C145.641 466.988 145.368 467.156 145.159 467.382C144.955 467.604 144.853 467.906 144.853 468.29C144.853 468.814 145.046 469.21 145.434 469.479C145.826 469.743 146.323 469.875 146.924 469.875ZM154.207 474.682C153.951 474.682 153.723 474.661 153.523 474.618C153.323 474.58 153.184 474.541 153.107 474.503L153.491 473.173C153.857 473.267 154.181 473.301 154.463 473.276C154.744 473.25 154.993 473.124 155.21 472.898C155.432 472.677 155.634 472.317 155.818 471.818L156.099 471.051L152.468 461.182H154.105L156.815 469.006H156.917L159.627 461.182H161.264L157.096 472.432C156.909 472.939 156.676 473.359 156.399 473.691C156.122 474.028 155.801 474.277 155.434 474.439C155.072 474.601 154.663 474.682 154.207 474.682ZM171.586 471.205C170.665 471.205 169.873 470.987 169.208 470.553C168.543 470.118 168.032 469.519 167.674 468.756C167.316 467.994 167.137 467.122 167.137 466.142C167.137 465.145 167.32 464.265 167.687 463.502C168.058 462.735 168.573 462.136 169.234 461.706C169.898 461.271 170.674 461.054 171.56 461.054C172.251 461.054 172.873 461.182 173.427 461.438C173.981 461.693 174.435 462.051 174.788 462.511C175.142 462.972 175.361 463.509 175.447 464.122H173.938C173.823 463.675 173.567 463.278 173.171 462.933C172.779 462.584 172.251 462.409 171.586 462.409C170.998 462.409 170.482 462.562 170.039 462.869C169.6 463.172 169.257 463.6 169.01 464.154C168.767 464.704 168.646 465.349 168.646 466.091C168.646 466.849 168.765 467.51 169.004 468.072C169.246 468.635 169.587 469.072 170.026 469.383C170.469 469.694 170.989 469.849 171.586 469.849C171.978 469.849 172.334 469.781 172.653 469.645C172.973 469.509 173.244 469.312 173.465 469.057C173.687 468.801 173.844 468.494 173.938 468.136H175.447C175.361 468.716 175.151 469.238 174.814 469.702C174.482 470.163 174.04 470.529 173.491 470.802C172.945 471.07 172.31 471.205 171.586 471.205ZM181.281 471.205C180.394 471.205 179.617 470.994 178.948 470.572C178.283 470.15 177.763 469.56 177.388 468.801C177.017 468.043 176.832 467.156 176.832 466.142C176.832 465.119 177.017 464.227 177.388 463.464C177.763 462.701 178.283 462.109 178.948 461.687C179.617 461.265 180.394 461.054 181.281 461.054C182.167 461.054 182.943 461.265 183.607 461.687C184.276 462.109 184.796 462.701 185.167 463.464C185.542 464.227 185.729 465.119 185.729 466.142C185.729 467.156 185.542 468.043 185.167 468.801C184.796 469.56 184.276 470.15 183.607 470.572C182.943 470.994 182.167 471.205 181.281 471.205ZM181.281 469.849C181.954 469.849 182.508 469.677 182.943 469.332C183.377 468.987 183.699 468.533 183.908 467.97C184.117 467.408 184.221 466.798 184.221 466.142C184.221 465.486 184.117 464.874 183.908 464.308C183.699 463.741 183.377 463.283 182.943 462.933C182.508 462.584 181.954 462.409 181.281 462.409C180.607 462.409 180.053 462.584 179.619 462.933C179.184 463.283 178.862 463.741 178.653 464.308C178.445 464.874 178.34 465.486 178.34 466.142C178.34 466.798 178.445 467.408 178.653 467.97C178.862 468.533 179.184 468.987 179.619 469.332C180.053 469.677 180.607 469.849 181.281 469.849ZM189.181 465.094V471H187.672V461.182H189.13V462.716H189.257C189.488 462.217 189.837 461.817 190.306 461.514C190.774 461.207 191.38 461.054 192.121 461.054C192.786 461.054 193.368 461.19 193.866 461.463C194.365 461.732 194.752 462.141 195.029 462.69C195.306 463.236 195.445 463.926 195.445 464.761V471H193.936V464.864C193.936 464.092 193.736 463.491 193.336 463.061C192.935 462.626 192.385 462.409 191.686 462.409C191.205 462.409 190.774 462.513 190.395 462.722C190.02 462.931 189.724 463.236 189.507 463.636C189.289 464.037 189.181 464.523 189.181 465.094ZM199.35 465.094V471H197.841V461.182H199.299V462.716H199.427C199.657 462.217 200.006 461.817 200.475 461.514C200.944 461.207 201.549 461.054 202.29 461.054C202.955 461.054 203.537 461.19 204.035 461.463C204.534 461.732 204.922 462.141 205.199 462.69C205.476 463.236 205.614 463.926 205.614 464.761V471H204.106V464.864C204.106 464.092 203.905 463.491 203.505 463.061C203.104 462.626 202.555 462.409 201.856 462.409C201.374 462.409 200.944 462.513 200.565 462.722C200.19 462.931 199.893 463.236 199.676 463.636C199.459 464.037 199.35 464.523 199.35 465.094ZM212.127 471.205C211.181 471.205 210.365 470.996 209.679 470.578C208.997 470.156 208.471 469.568 208.1 468.814C207.734 468.055 207.551 467.173 207.551 466.168C207.551 465.162 207.734 464.276 208.1 463.509C208.471 462.737 208.987 462.136 209.647 461.706C210.312 461.271 211.088 461.054 211.974 461.054C212.485 461.054 212.99 461.139 213.489 461.31C213.987 461.48 214.441 461.757 214.85 462.141C215.259 462.52 215.585 463.023 215.828 463.649C216.071 464.276 216.193 465.047 216.193 465.963V466.602H208.624V465.298H214.659C214.659 464.744 214.548 464.25 214.326 463.815C214.109 463.381 213.798 463.038 213.393 462.786C212.992 462.535 212.519 462.409 211.974 462.409C211.373 462.409 210.853 462.558 210.414 462.857C209.98 463.151 209.645 463.534 209.411 464.007C209.176 464.48 209.059 464.987 209.059 465.528V466.398C209.059 467.139 209.187 467.768 209.443 468.283C209.703 468.795 210.063 469.185 210.523 469.453C210.983 469.717 211.518 469.849 212.127 469.849C212.524 469.849 212.882 469.794 213.201 469.683C213.525 469.568 213.804 469.398 214.039 469.172C214.273 468.942 214.454 468.656 214.582 468.315L216.039 468.724C215.886 469.219 215.628 469.653 215.266 470.028C214.904 470.399 214.456 470.689 213.923 470.898C213.391 471.102 212.792 471.205 212.127 471.205ZM222.116 471.205C221.196 471.205 220.403 470.987 219.738 470.553C219.073 470.118 218.562 469.519 218.204 468.756C217.846 467.994 217.667 467.122 217.667 466.142C217.667 465.145 217.85 464.265 218.217 463.502C218.588 462.735 219.103 462.136 219.764 461.706C220.428 461.271 221.204 461.054 222.09 461.054C222.781 461.054 223.403 461.182 223.957 461.438C224.511 461.693 224.965 462.051 225.318 462.511C225.672 462.972 225.892 463.509 225.977 464.122H224.468C224.353 463.675 224.098 463.278 223.701 462.933C223.309 462.584 222.781 462.409 222.116 462.409C221.528 462.409 221.012 462.562 220.569 462.869C220.13 463.172 219.787 463.6 219.54 464.154C219.297 464.704 219.176 465.349 219.176 466.091C219.176 466.849 219.295 467.51 219.534 468.072C219.777 468.635 220.117 469.072 220.556 469.383C221 469.694 221.519 469.849 222.116 469.849C222.508 469.849 222.864 469.781 223.183 469.645C223.503 469.509 223.774 469.312 223.995 469.057C224.217 468.801 224.375 468.494 224.468 468.136H225.977C225.892 468.716 225.681 469.238 225.344 469.702C225.012 470.163 224.571 470.529 224.021 470.802C223.475 471.07 222.84 471.205 222.116 471.205ZM232.092 461.182V462.46H227.004V461.182H232.092ZM228.487 458.83H229.995V468.188C229.995 468.614 230.057 468.933 230.181 469.146C230.309 469.355 230.47 469.496 230.667 469.568C230.867 469.636 231.078 469.67 231.299 469.67C231.466 469.67 231.602 469.662 231.708 469.645C231.815 469.624 231.9 469.607 231.964 469.594L232.271 470.949C232.169 470.987 232.026 471.026 231.843 471.064C231.659 471.107 231.427 471.128 231.146 471.128C230.72 471.128 230.302 471.036 229.893 470.853C229.488 470.67 229.152 470.391 228.883 470.016C228.619 469.641 228.487 469.168 228.487 468.597V458.83ZM238.012 471.205C237.066 471.205 236.25 470.996 235.564 470.578C234.882 470.156 234.356 469.568 233.985 468.814C233.619 468.055 233.435 467.173 233.435 466.168C233.435 465.162 233.619 464.276 233.985 463.509C234.356 462.737 234.871 462.136 235.532 461.706C236.197 461.271 236.972 461.054 237.859 461.054C238.37 461.054 238.875 461.139 239.374 461.31C239.872 461.48 240.326 461.757 240.735 462.141C241.144 462.52 241.47 463.023 241.713 463.649C241.956 464.276 242.077 465.047 242.077 465.963V466.602H234.509V465.298H240.543C240.543 464.744 240.433 464.25 240.211 463.815C239.994 463.381 239.683 463.038 239.278 462.786C238.877 462.535 238.404 462.409 237.859 462.409C237.258 462.409 236.738 462.558 236.299 462.857C235.864 463.151 235.53 463.534 235.295 464.007C235.061 464.48 234.944 464.987 234.944 465.528V466.398C234.944 467.139 235.072 467.768 235.327 468.283C235.587 468.795 235.947 469.185 236.408 469.453C236.868 469.717 237.403 469.849 238.012 469.849C238.408 469.849 238.766 469.794 239.086 469.683C239.41 469.568 239.689 469.398 239.923 469.172C240.158 468.942 240.339 468.656 240.467 468.315L241.924 468.724C241.771 469.219 241.513 469.653 241.151 470.028C240.788 470.399 240.341 470.689 239.808 470.898C239.276 471.102 238.677 471.205 238.012 471.205ZM247.72 471.205C246.901 471.205 246.179 470.998 245.553 470.585C244.926 470.167 244.436 469.579 244.083 468.82C243.729 468.058 243.552 467.156 243.552 466.116C243.552 465.085 243.729 464.19 244.083 463.432C244.436 462.673 244.928 462.087 245.559 461.674C246.19 461.261 246.918 461.054 247.745 461.054C248.384 461.054 248.889 461.161 249.26 461.374C249.635 461.582 249.921 461.821 250.117 462.089C250.317 462.354 250.472 462.571 250.583 462.741H250.711V457.909H252.22V471H250.762V469.491H250.583C250.472 469.67 250.315 469.896 250.11 470.169C249.906 470.437 249.614 470.678 249.235 470.891C248.855 471.1 248.35 471.205 247.72 471.205ZM247.924 469.849C248.529 469.849 249.041 469.692 249.458 469.376C249.876 469.057 250.193 468.616 250.411 468.053C250.628 467.487 250.737 466.832 250.737 466.091C250.737 465.358 250.63 464.717 250.417 464.167C250.204 463.613 249.889 463.183 249.471 462.876C249.053 462.565 248.538 462.409 247.924 462.409C247.285 462.409 246.752 462.573 246.326 462.901C245.904 463.225 245.587 463.666 245.374 464.224C245.165 464.778 245.061 465.401 245.061 466.091C245.061 466.79 245.167 467.425 245.38 467.996C245.597 468.562 245.917 469.014 246.339 469.351C246.765 469.683 247.293 469.849 247.924 469.849ZM257.082 469.21L256.98 469.901C256.907 470.386 256.796 470.906 256.647 471.46C256.502 472.014 256.351 472.536 256.193 473.026C256.036 473.516 255.906 473.906 255.803 474.196H254.653C254.708 473.923 254.781 473.563 254.87 473.116C254.96 472.668 255.049 472.168 255.139 471.614C255.232 471.064 255.309 470.501 255.369 469.926L255.446 469.21H257.082ZM271.583 461.182C271.506 460.534 271.195 460.031 270.65 459.673C270.104 459.315 269.435 459.136 268.643 459.136C268.063 459.136 267.556 459.23 267.121 459.418C266.691 459.605 266.354 459.863 266.111 460.191C265.873 460.519 265.753 460.892 265.753 461.31C265.753 461.659 265.836 461.96 266.003 462.211C266.173 462.458 266.39 462.665 266.655 462.831C266.919 462.993 267.196 463.127 267.486 463.234C267.775 463.336 268.042 463.419 268.285 463.483L269.614 463.841C269.955 463.93 270.334 464.054 270.752 464.212C271.174 464.369 271.577 464.585 271.96 464.857C272.348 465.126 272.667 465.471 272.919 465.893C273.17 466.315 273.296 466.832 273.296 467.446C273.296 468.153 273.111 468.793 272.74 469.364C272.373 469.935 271.836 470.388 271.129 470.725C270.426 471.062 269.572 471.23 268.566 471.23C267.628 471.23 266.817 471.079 266.131 470.776C265.449 470.474 264.912 470.052 264.52 469.511C264.132 468.969 263.912 468.341 263.861 467.625H265.498C265.54 468.119 265.707 468.528 265.996 468.852C266.29 469.172 266.661 469.411 267.109 469.568C267.56 469.722 268.046 469.798 268.566 469.798C269.171 469.798 269.714 469.7 270.196 469.504C270.677 469.304 271.059 469.027 271.34 468.673C271.621 468.315 271.762 467.898 271.762 467.42C271.762 466.986 271.64 466.632 271.398 466.359C271.155 466.087 270.835 465.865 270.439 465.695C270.042 465.524 269.614 465.375 269.154 465.247L267.543 464.787C266.52 464.493 265.711 464.073 265.114 463.528C264.518 462.982 264.219 462.268 264.219 461.386C264.219 460.653 264.417 460.014 264.814 459.469C265.214 458.919 265.751 458.493 266.425 458.19C267.102 457.884 267.859 457.73 268.694 457.73C269.537 457.73 270.287 457.881 270.944 458.184C271.6 458.482 272.12 458.891 272.503 459.411C272.891 459.931 273.096 460.521 273.117 461.182H271.583ZM279.608 461.182V462.46H274.52V461.182H279.608ZM276.003 458.83H277.511V468.188C277.511 468.614 277.573 468.933 277.697 469.146C277.824 469.355 277.986 469.496 278.182 469.568C278.383 469.636 278.594 469.67 278.815 469.67C278.981 469.67 279.118 469.662 279.224 469.645C279.331 469.624 279.416 469.607 279.48 469.594L279.787 470.949C279.684 470.987 279.542 471.026 279.358 471.064C279.175 471.107 278.943 471.128 278.662 471.128C278.236 471.128 277.818 471.036 277.409 470.853C277.004 470.67 276.667 470.391 276.399 470.016C276.135 469.641 276.003 469.168 276.003 468.597V458.83ZM284.406 471.23C283.784 471.23 283.219 471.113 282.712 470.879C282.205 470.64 281.802 470.297 281.504 469.849C281.206 469.398 281.057 468.852 281.057 468.213C281.057 467.651 281.167 467.195 281.389 466.845C281.611 466.491 281.907 466.214 282.278 466.014C282.648 465.814 283.057 465.665 283.505 465.567C283.957 465.464 284.41 465.384 284.866 465.324C285.463 465.247 285.947 465.19 286.317 465.151C286.692 465.109 286.965 465.038 287.136 464.94C287.31 464.842 287.398 464.672 287.398 464.429V464.378C287.398 463.747 287.225 463.257 286.88 462.908C286.539 462.558 286.021 462.384 285.327 462.384C284.606 462.384 284.042 462.541 283.633 462.857C283.224 463.172 282.936 463.509 282.77 463.866L281.338 463.355C281.594 462.759 281.935 462.294 282.361 461.962C282.791 461.625 283.26 461.391 283.767 461.259C284.278 461.122 284.781 461.054 285.275 461.054C285.591 461.054 285.953 461.092 286.362 461.169C286.775 461.241 287.174 461.393 287.557 461.623C287.945 461.853 288.267 462.2 288.523 462.665C288.778 463.129 288.906 463.751 288.906 464.531V471H287.398V469.67H287.321C287.219 469.884 287.048 470.112 286.81 470.354C286.571 470.597 286.253 470.804 285.857 470.974C285.461 471.145 284.977 471.23 284.406 471.23ZM284.636 469.875C285.233 469.875 285.736 469.758 286.145 469.523C286.558 469.289 286.869 468.987 287.078 468.616C287.291 468.245 287.398 467.855 287.398 467.446V466.065C287.334 466.142 287.193 466.212 286.976 466.276C286.763 466.336 286.515 466.389 286.234 466.436C285.957 466.479 285.687 466.517 285.422 466.551C285.163 466.581 284.952 466.607 284.79 466.628C284.398 466.679 284.031 466.762 283.69 466.877C283.354 466.988 283.081 467.156 282.872 467.382C282.667 467.604 282.565 467.906 282.565 468.29C282.565 468.814 282.759 469.21 283.147 469.479C283.539 469.743 284.035 469.875 284.636 469.875ZM291.92 474.682C291.664 474.682 291.436 474.661 291.236 474.618C291.035 474.58 290.897 474.541 290.82 474.503L291.204 473.173C291.57 473.267 291.894 473.301 292.175 473.276C292.456 473.25 292.706 473.124 292.923 472.898C293.145 472.677 293.347 472.317 293.53 471.818L293.812 471.051L290.181 461.182H291.817L294.527 469.006H294.63L297.34 461.182H298.976L294.809 472.432C294.621 472.939 294.389 473.359 294.112 473.691C293.835 474.028 293.513 474.277 293.147 474.439C292.785 474.601 292.375 474.682 291.92 474.682ZM306.818 465.094V471H305.31V457.909H306.818V462.716H306.946C307.176 462.209 307.522 461.806 307.982 461.508C308.446 461.205 309.064 461.054 309.836 461.054C310.505 461.054 311.09 461.188 311.593 461.457C312.096 461.721 312.486 462.128 312.763 462.678C313.044 463.223 313.185 463.918 313.185 464.761V471H311.676V464.864C311.676 464.084 311.474 463.481 311.069 463.055C310.669 462.624 310.112 462.409 309.401 462.409C308.907 462.409 308.463 462.513 308.071 462.722C307.684 462.931 307.377 463.236 307.151 463.636C306.929 464.037 306.818 464.523 306.818 465.094ZM318.474 471.23C317.852 471.23 317.287 471.113 316.78 470.879C316.273 470.64 315.87 470.297 315.572 469.849C315.274 469.398 315.124 468.852 315.124 468.213C315.124 467.651 315.235 467.195 315.457 466.845C315.678 466.491 315.975 466.214 316.345 466.014C316.716 465.814 317.125 465.665 317.573 465.567C318.024 465.464 318.478 465.384 318.934 465.324C319.531 465.247 320.014 465.19 320.385 465.151C320.76 465.109 321.033 465.038 321.203 464.94C321.378 464.842 321.465 464.672 321.465 464.429V464.378C321.465 463.747 321.293 463.257 320.948 462.908C320.607 462.558 320.089 462.384 319.394 462.384C318.674 462.384 318.11 462.541 317.7 462.857C317.291 463.172 317.004 463.509 316.838 463.866L315.406 463.355C315.661 462.759 316.002 462.294 316.428 461.962C316.859 461.625 317.328 461.391 317.835 461.259C318.346 461.122 318.849 461.054 319.343 461.054C319.659 461.054 320.021 461.092 320.43 461.169C320.843 461.241 321.242 461.393 321.625 461.623C322.013 461.853 322.335 462.2 322.59 462.665C322.846 463.129 322.974 463.751 322.974 464.531V471H321.465V469.67H321.389C321.286 469.884 321.116 470.112 320.877 470.354C320.639 470.597 320.321 470.804 319.925 470.974C319.529 471.145 319.045 471.23 318.474 471.23ZM318.704 469.875C319.301 469.875 319.803 469.758 320.213 469.523C320.626 469.289 320.937 468.987 321.146 468.616C321.359 468.245 321.465 467.855 321.465 467.446V466.065C321.401 466.142 321.261 466.212 321.044 466.276C320.83 466.336 320.583 466.389 320.302 466.436C320.025 466.479 319.754 466.517 319.49 466.551C319.23 466.581 319.019 466.607 318.857 466.628C318.465 466.679 318.099 466.762 317.758 466.877C317.421 466.988 317.149 467.156 316.94 467.382C316.735 467.604 316.633 467.906 316.633 468.29C316.633 468.814 316.827 469.21 317.215 469.479C317.607 469.743 318.103 469.875 318.704 469.875ZM325.367 474.682V461.182H326.825V462.741H327.004C327.114 462.571 327.268 462.354 327.464 462.089C327.664 461.821 327.95 461.582 328.32 461.374C328.695 461.161 329.203 461.054 329.842 461.054C330.668 461.054 331.397 461.261 332.028 461.674C332.658 462.087 333.151 462.673 333.504 463.432C333.858 464.19 334.035 465.085 334.035 466.116C334.035 467.156 333.858 468.058 333.504 468.82C333.151 469.579 332.661 470.167 332.034 470.585C331.408 470.998 330.685 471.205 329.867 471.205C329.237 471.205 328.732 471.1 328.352 470.891C327.973 470.678 327.681 470.437 327.477 470.169C327.272 469.896 327.114 469.67 327.004 469.491H326.876V474.682H325.367ZM326.85 466.091C326.85 466.832 326.959 467.487 327.176 468.053C327.394 468.616 327.711 469.057 328.129 469.376C328.546 469.692 329.058 469.849 329.663 469.849C330.293 469.849 330.82 469.683 331.242 469.351C331.668 469.014 331.987 468.562 332.2 467.996C332.418 467.425 332.526 466.79 332.526 466.091C332.526 465.401 332.42 464.778 332.207 464.224C331.998 463.666 331.68 463.225 331.254 462.901C330.832 462.573 330.302 462.409 329.663 462.409C329.049 462.409 328.533 462.565 328.116 462.876C327.698 463.183 327.383 463.613 327.17 464.167C326.957 464.717 326.85 465.358 326.85 466.091ZM335.976 474.682V461.182H337.433V462.741H337.612C337.723 462.571 337.877 462.354 338.073 462.089C338.273 461.821 338.558 461.582 338.929 461.374C339.304 461.161 339.811 461.054 340.45 461.054C341.277 461.054 342.006 461.261 342.637 461.674C343.267 462.087 343.759 462.673 344.113 463.432C344.467 464.19 344.644 465.085 344.644 466.116C344.644 467.156 344.467 468.058 344.113 468.82C343.759 469.579 343.269 470.167 342.643 470.585C342.017 470.998 341.294 471.205 340.476 471.205C339.845 471.205 339.34 471.1 338.961 470.891C338.582 470.678 338.29 470.437 338.085 470.169C337.881 469.896 337.723 469.67 337.612 469.491H337.485V474.682H335.976ZM337.459 466.091C337.459 466.832 337.568 467.487 337.785 468.053C338.002 468.616 338.32 469.057 338.737 469.376C339.155 469.692 339.666 469.849 340.271 469.849C340.902 469.849 341.428 469.683 341.85 469.351C342.276 469.014 342.596 468.562 342.809 467.996C343.026 467.425 343.135 466.79 343.135 466.091C343.135 465.401 343.029 464.778 342.816 464.224C342.607 463.666 342.289 463.225 341.863 462.901C341.441 462.573 340.911 462.409 340.271 462.409C339.658 462.409 339.142 462.565 338.725 462.876C338.307 463.183 337.992 463.613 337.779 464.167C337.566 464.717 337.459 465.358 337.459 466.091ZM347.205 474.682C346.949 474.682 346.721 474.661 346.521 474.618C346.321 474.58 346.182 474.541 346.105 474.503L346.489 473.173C346.855 473.267 347.179 473.301 347.46 473.276C347.742 473.25 347.991 473.124 348.208 472.898C348.43 472.677 348.632 472.317 348.816 471.818L349.097 471.051L345.466 461.182H347.103L349.813 469.006H349.915L352.625 461.182H354.262L350.094 472.432C349.907 472.939 349.674 473.359 349.397 473.691C349.12 474.028 348.799 474.277 348.432 474.439C348.07 474.601 347.661 474.682 347.205 474.682Z" fill="#24459C"/>
<rect opacity="0.45" x="193.999" y="600" width="12" height="12" rx="4.2" fill="#C9B7B7"/>
<rect opacity="0.45" x="213.999" y="600" width="12" height="12" rx="4.2" fill="#C9B7B7"/>
<rect opacity="0.45" x="233.999" y="600" width="12" height="12" rx="4.2" fill="#C9B7B7"/>
<rect opacity="0.45" x="253.999" y="600" width="12" height="12" rx="4.2" fill="#C9B7B7"/>
<rect x="273.999" y="600" width="12" height="12" rx="4.2" fill="#24459C"/>
<defs>
<linearGradient id="paint0_linear_4553_94431" x1="401.851" y1="283.777" x2="194.348" y2="102.213" gradientUnits="userSpaceOnUse">
<stop stop-color="#DAE3FE"/>
<stop offset="1" stop-color="#E9EFFD"/>
</linearGradient>
<linearGradient id="paint1_linear_4553_94431" x1="319.758" y1="-50.9884" x2="270.093" y2="18.5432" gradientUnits="userSpaceOnUse">
<stop stop-color="#E1473D"/>
<stop offset="1" stop-color="#E9605A"/>
</linearGradient>
<linearGradient id="paint2_linear_4553_94431" x1="322.2" y1="-49.143" x2="272.535" y2="20.3886" gradientUnits="userSpaceOnUse">
<stop stop-color="#FF928E"/>
<stop offset="1" stop-color="#FE7062"/>
</linearGradient>
<linearGradient id="paint3_linear_4553_94431" x1="250.661" y1="7.7359" x2="75.1243" y2="156.106" gradientUnits="userSpaceOnUse">
<stop stop-color="#4F52FF"/>
<stop offset="1" stop-color="#4042E2"/>
</linearGradient>
<linearGradient id="paint4_linear_4553_94431" x1="149.499" y1="90.748" x2="300.123" y2="-8.27819" gradientUnits="userSpaceOnUse">
<stop stop-color="#4F52FF"/>
<stop offset="1" stop-color="#4042E2"/>
</linearGradient>
<linearGradient id="paint5_linear_4553_94431" x1="150.288" y1="69.4549" x2="209.441" y2="69.4549" gradientUnits="userSpaceOnUse">
<stop stop-color="#DAE3FE"/>
<stop offset="1" stop-color="#E9EFFD"/>
</linearGradient>
<linearGradient id="paint6_linear_4553_94431" x1="152.27" y1="58.3292" x2="207.934" y2="58.3292" gradientUnits="userSpaceOnUse">
<stop stop-color="#DAE3FE"/>
<stop offset="1" stop-color="#E9EFFD"/>
</linearGradient>
<linearGradient id="paint7_linear_4553_94431" x1="189.13" y1="75.9174" x2="208.277" y2="75.9174" gradientUnits="userSpaceOnUse">
<stop stop-color="#DAE3FE"/>
<stop offset="1" stop-color="#E9EFFD"/>
</linearGradient>
<linearGradient id="paint8_linear_4553_94431" x1="151.564" y1="75.5756" x2="170.429" y2="75.5756" gradientUnits="userSpaceOnUse">
<stop stop-color="#DAE3FE"/>
<stop offset="1" stop-color="#E9EFFD"/>
</linearGradient>
<linearGradient id="paint9_linear_4553_94431" x1="280.222" y1="93.0054" x2="91.9813" y2="344.515" gradientUnits="userSpaceOnUse">
<stop stop-color="#4F52FF"/>
<stop offset="1" stop-color="#4042E2"/>
</linearGradient>
<linearGradient id="paint10_linear_4553_94431" x1="137.216" y1="265.879" x2="293.873" y2="141.075" gradientUnits="userSpaceOnUse">
<stop stop-color="#4F52FF"/>
<stop offset="1" stop-color="#4042E2"/>
</linearGradient>
<linearGradient id="paint11_linear_4553_94431" x1="156.796" y1="231.207" x2="206.166" y2="231.207" gradientUnits="userSpaceOnUse">
<stop stop-color="#DAE3FE"/>
<stop offset="1" stop-color="#E9EFFD"/>
</linearGradient>
<linearGradient id="paint12_linear_4553_94431" x1="494.977" y1="-164.109" x2="458.687" y2="-106.288" gradientUnits="userSpaceOnUse">
<stop stop-color="#09005D"/>
<stop offset="1" stop-color="#1A0F91"/>
</linearGradient>
<linearGradient id="paint13_linear_4553_94431" x1="-4766.25" y1="-468.038" x2="-4698.52" y2="-459.514" gradientUnits="userSpaceOnUse">
<stop stop-color="#09005D"/>
<stop offset="1" stop-color="#1A0F91"/>
</linearGradient>
<linearGradient id="paint14_linear_4553_94431" x1="277.229" y1="268.539" x2="299.207" y2="268.539" gradientUnits="userSpaceOnUse">
<stop stop-color="#09005D"/>
<stop offset="1" stop-color="#1A0F91"/>
</linearGradient>
<linearGradient id="paint15_linear_4553_94431" x1="296.416" y1="267.609" x2="298.253" y2="253.244" gradientUnits="userSpaceOnUse">
<stop stop-color="#FEBBBA"/>
<stop offset="1" stop-color="#FF928E"/>
</linearGradient>
<linearGradient id="paint16_linear_4553_94431" x1="329.841" y1="274.55" x2="342.166" y2="274.55" gradientUnits="userSpaceOnUse">
<stop stop-color="#09005D"/>
<stop offset="1" stop-color="#1A0F91"/>
</linearGradient>
<linearGradient id="paint17_linear_4553_94431" x1="336.574" y1="272.539" x2="338.364" y2="258.541" gradientUnits="userSpaceOnUse">
<stop stop-color="#FEBBBA"/>
<stop offset="1" stop-color="#FF928E"/>
</linearGradient>
<linearGradient id="paint18_linear_4553_94431" x1="222.261" y1="345.236" x2="374.044" y2="191.059" gradientUnits="userSpaceOnUse">
<stop stop-color="#4F52FF"/>
<stop offset="1" stop-color="#4042E2"/>
</linearGradient>
<linearGradient id="paint19_linear_4553_94431" x1="409.288" y1="84.4976" x2="360.434" y2="152.994" gradientUnits="userSpaceOnUse">
<stop stop-color="#09005D"/>
<stop offset="1" stop-color="#1A0F91"/>
</linearGradient>
<linearGradient id="paint20_linear_4553_94431" x1="-90.3644" y1="397.591" x2="-15.0249" y2="324.397" gradientUnits="userSpaceOnUse">
<stop stop-color="#FF928E"/>
<stop offset="1" stop-color="#FE7062"/>
</linearGradient>
<linearGradient id="paint21_linear_4553_94431" x1="299.823" y1="144.449" x2="303.13" y2="144.449" gradientUnits="userSpaceOnUse">
<stop stop-color="#E1473D"/>
<stop offset="1" stop-color="#E9605A"/>
</linearGradient>
<linearGradient id="paint22_linear_4553_94431" x1="323.042" y1="180.6" x2="297.947" y2="180.6" gradientUnits="userSpaceOnUse">
<stop stop-color="#FEBBBA"/>
<stop offset="1" stop-color="#FF928E"/>
</linearGradient>
<linearGradient id="paint23_linear_4553_94431" x1="299.916" y1="149.144" x2="253.054" y2="149.144" gradientUnits="userSpaceOnUse">
<stop stop-color="#FEBBBA"/>
<stop offset="1" stop-color="#FF928E"/>
</linearGradient>
<linearGradient id="paint24_linear_4553_94431" x1="316.788" y1="122.857" x2="300.478" y2="106.124" gradientUnits="userSpaceOnUse">
<stop stop-color="#FEBBBA"/>
<stop offset="1" stop-color="#FF928E"/>
</linearGradient>
<linearGradient id="paint25_linear_4553_94431" x1="295.321" y1="103.674" x2="319.295" y2="104.141" gradientUnits="userSpaceOnUse">
<stop stop-color="#FEBBBA"/>
<stop offset="1" stop-color="#FF928E"/>
</linearGradient>
<linearGradient id="paint26_linear_4553_94431" x1="309.455" y1="89.0687" x2="290.394" y2="103.073" gradientUnits="userSpaceOnUse">
<stop stop-color="#09005D"/>
<stop offset="1" stop-color="#1A0F91"/>
</linearGradient>
<linearGradient id="paint27_linear_4553_94431" x1="295.397" y1="99.7878" x2="319.371" y2="100.255" gradientUnits="userSpaceOnUse">
<stop stop-color="#FEBBBA"/>
<stop offset="1" stop-color="#FF928E"/>
</linearGradient>
<linearGradient id="paint28_linear_4553_94431" x1="312.728" y1="151.414" x2="331.094" y2="151.414" gradientUnits="userSpaceOnUse">
<stop stop-color="#E1473D"/>
<stop offset="1" stop-color="#E9605A"/>
</linearGradient>
<clipPath id="clip0_4553_94431">
<rect width="276.475" height="280" fill="white" transform="translate(101.762)"/>
</clipPath>
</defs>
</svg>
