<svg width="480" height="612" viewBox="0 0 480 612" fill="none" xmlns="http://www.w3.org/2000/svg">
<g clip-path="url(#clip0_4553_94173)">
<path d="M342.8 229.842C325.876 247.695 303.415 260.787 276.47 266.073C214.427 278.243 130.564 259.692 111.678 191.286C100.167 149.593 108.227 100.829 131.871 64.704C157.859 24.997 204.776 -1.79603 252.793 0.0939746C299.774 1.94297 345.822 38.926 365.285 80.06C389.829 131.931 378.926 191.733 342.8 229.842Z" fill="url(#paint0_linear_4553_94173)"/>
<g opacity="0.3">
<path d="M178.407 29.0926C177.927 29.3826 177.304 29.2286 177.014 28.7496C176.451 27.8186 175.839 26.8976 175.195 26.0126C174.869 25.5646 174.963 24.9396 175.403 24.6075C175.408 24.6035 175.413 24.5996 175.419 24.5956C175.872 24.2656 176.506 24.3656 176.836 24.8196C177.514 25.7506 178.158 26.7206 178.751 27.7006C179.022 28.1486 178.905 28.7236 178.496 29.0336C178.468 29.0536 178.438 29.0736 178.407 29.0926ZM171.766 21.9206C171.008 21.1326 170.209 20.3686 169.391 19.6506C168.97 19.2816 168.928 18.6406 169.297 18.2196C169.669 17.7976 170.308 17.7566 170.729 18.1256C171.59 18.8806 172.431 19.6846 173.229 20.5136C173.617 20.9176 173.605 21.5596 173.201 21.9476C173.172 21.9756 173.141 22.0016 173.109 22.0256C172.704 22.3326 172.126 22.2946 171.766 21.9206ZM165.144 16.4206C164.232 15.8226 163.283 15.2566 162.322 14.7386C161.829 14.4726 161.645 13.8576 161.91 13.3646C162.176 12.8726 162.791 12.6876 163.284 12.9536C164.295 13.4986 165.295 14.0946 166.255 14.7246C166.723 15.0316 166.854 15.6606 166.547 16.1296C166.481 16.2296 166.401 16.3136 166.311 16.3826C165.98 16.6326 165.512 16.6626 165.144 16.4206ZM157.458 12.5396C156.434 12.1596 155.382 11.8206 154.33 11.5306C153.79 11.3816 153.473 10.8226 153.622 10.2826C153.772 9.74255 154.33 9.42655 154.87 9.57455C155.977 9.88055 157.085 10.2376 158.163 10.6376C158.688 10.8326 158.956 11.4166 158.762 11.9416C158.692 12.1296 158.573 12.2846 158.424 12.3976C158.156 12.5986 157.795 12.6646 157.458 12.5396ZM149.099 10.4676C148.019 10.3256 146.917 10.2266 145.825 10.1766C145.265 10.1506 144.833 9.67555 144.859 9.11555C144.885 8.55555 145.36 8.12355 145.92 8.14955C147.069 8.20255 148.228 8.30655 149.365 8.45655C149.92 8.52955 150.311 9.03955 150.238 9.59455C150.201 9.87455 150.053 10.1126 149.845 10.2706C149.639 10.4266 149.375 10.5046 149.099 10.4676ZM140.49 10.2976C139.404 10.3976 138.308 10.5456 137.234 10.7376C136.683 10.8356 136.155 10.4686 136.057 9.91755C135.958 9.36555 136.325 8.83855 136.877 8.74055C138.008 8.53855 139.161 8.38255 140.304 8.27755C140.862 8.22655 141.356 8.63655 141.407 9.19455C141.44 9.55655 141.279 9.89255 141.008 10.0966C140.863 10.2066 140.686 10.2796 140.49 10.2976ZM108.82 30.6956C108.327 30.4286 108.144 29.8136 108.411 29.3206C108.957 28.3116 109.556 27.3126 110.188 26.3516C110.496 25.8836 111.125 25.7546 111.593 26.0626C112.061 26.3706 112.19 26.9996 111.882 27.4676C111.281 28.3796 110.713 29.3286 110.195 30.2876C110.124 30.4186 110.028 30.5285 109.916 30.6136C109.609 30.8445 109.181 30.8906 108.82 30.6956ZM132.063 12.0376C131.027 12.3766 129.992 12.7646 128.989 13.1916C128.473 13.4106 127.877 13.1706 127.658 12.6546C127.439 12.1386 127.68 11.5456 128.195 11.3236C129.252 10.8746 130.341 10.4656 131.432 10.1086C131.964 9.93455 132.537 10.2246 132.712 10.7576C132.85 11.1796 132.696 11.6276 132.36 11.8816C132.273 11.9496 132.173 12.0016 132.063 12.0376ZM113.69 23.3166C113.27 22.9466 113.229 22.3056 113.599 21.8846C114.357 21.0236 115.163 20.1836 115.993 19.3876C116.396 18.9976 117.04 19.0136 117.427 19.4186C117.815 19.8226 117.801 20.4656 117.396 20.8526C116.607 21.6086 115.841 22.4066 115.121 23.2256C115.075 23.2776 115.025 23.3236 114.971 23.3646C114.596 23.6496 114.058 23.6406 113.69 23.3166ZM124.237 15.6176C123.303 16.1796 122.381 16.7896 121.497 17.4306C121.043 17.7596 120.409 17.6586 120.08 17.2046C119.756 16.7566 119.85 16.1336 120.289 15.8006C120.295 15.7966 120.301 15.7916 120.306 15.7876C121.237 15.1126 122.207 14.4706 123.19 13.8786C123.67 13.5896 124.294 13.7446 124.582 14.2246C124.852 14.6726 124.734 15.2466 124.326 15.5556C124.298 15.5786 124.268 15.5986 124.237 15.6176Z" fill="#91B3FA"/>
<path d="M107.106 37.1595C107.265 37.0385 107.391 36.8705 107.457 36.6655C107.619 36.1685 107.794 35.6665 107.977 35.1725C108.172 34.6475 107.905 34.0635 107.379 33.8685C106.854 33.6735 106.269 33.9405 106.075 34.4665C105.882 34.9855 105.698 35.5135 105.527 36.0365C105.353 36.5695 105.645 37.1415 106.177 37.3155C106.507 37.4225 106.85 37.3535 107.106 37.1595Z" fill="#91B3FA"/>
</g>
<g opacity="0.3">
<path d="M109.768 67.9658C110.158 67.6698 110.288 67.1268 110.05 66.6808C109.804 66.2188 109.564 65.7448 109.336 65.2708C109.093 64.7658 108.487 64.5528 107.982 64.7958C107.475 65.0398 107.264 65.6448 107.507 66.1498C107.747 66.6488 108 67.1488 108.259 67.6348C108.522 68.1288 109.137 68.3168 109.631 68.0538C109.68 68.0278 109.725 67.9978 109.768 67.9658Z" fill="#91B3FA"/>
<path d="M166.854 82.111C166.391 82.427 165.76 82.308 165.444 81.845C165.128 81.382 165.247 80.7519 165.71 80.4349C166.591 79.8339 167.46 79.185 168.304 78.501C168.736 78.148 169.377 78.215 169.73 78.65C170.083 79.085 170.017 79.724 169.582 80.077C169.217 80.373 168.848 80.663 168.476 80.944C167.944 81.346 167.399 81.739 166.854 82.111ZM172.194 76.356C171.786 75.9729 171.765 75.3309 172.148 74.9219C172.884 74.1369 173.594 73.3129 174.26 72.4719C174.606 72.0319 175.246 71.958 175.685 72.306C176.124 72.653 176.198 73.292 175.851 73.731C175.15 74.616 174.403 75.4839 173.628 76.3099C173.589 76.3529 173.545 76.391 173.5 76.426C173.112 76.718 172.56 76.699 172.194 76.356ZM162.086 84.908C161.076 85.411 160.031 85.878 158.979 86.295C158.458 86.501 157.868 86.247 157.661 85.726C157.455 85.205 157.71 84.6159 158.23 84.4089C159.229 84.0129 160.222 83.57 161.183 83.0919C161.685 82.8419 162.293 83.0459 162.543 83.5479C162.764 83.9919 162.629 84.519 162.248 84.808C162.197 84.846 162.143 84.879 162.086 84.908ZM177.587 69.5289C177.104 69.2449 176.943 68.6229 177.228 68.1399C177.772 67.2139 178.283 66.255 178.748 65.2869C178.99 64.7809 179.596 64.5689 180.101 64.8109C180.606 65.0529 180.819 65.659 180.577 66.164C180.089 67.183 179.549 68.1939 178.976 69.1679C178.908 69.2859 178.817 69.385 178.715 69.4619C178.397 69.7049 177.952 69.7439 177.587 69.5289ZM153.716 87.9729C152.62 88.2409 151.497 88.4669 150.379 88.642C149.826 88.729 149.308 88.351 149.22 87.7979C149.132 87.2439 149.511 86.725 150.064 86.638C151.125 86.471 152.192 86.257 153.233 86.002C153.777 85.869 154.327 86.202 154.46 86.746C154.559 87.151 154.399 87.56 154.086 87.796C153.979 87.878 153.854 87.9389 153.716 87.9729ZM144.875 89.1279C143.744 89.1499 142.6 89.1249 141.473 89.0539C140.914 89.018 140.489 88.536 140.524 87.977C140.561 87.417 141.043 86.9929 141.602 87.0289C142.673 87.0969 143.76 87.121 144.834 87.1C145.395 87.089 145.858 87.534 145.868 88.094C145.875 88.432 145.717 88.7339 145.467 88.9229C145.302 89.0479 145.097 89.1239 144.875 89.1279ZM135.993 88.3289C134.884 88.1049 133.771 87.8309 132.688 87.5159C132.149 87.3589 131.84 86.7969 131.997 86.2589C132.153 85.7199 132.717 85.412 133.253 85.568C134.284 85.868 135.34 86.1279 136.393 86.3409C136.942 86.4519 137.298 86.9869 137.187 87.5359C137.136 87.788 136.996 87.999 136.806 88.143C136.583 88.313 136.29 88.3889 135.993 88.3289ZM127.496 85.611C126.463 85.15 125.438 84.639 124.449 84.0919C123.959 83.8209 123.78 83.204 124.051 82.713C124.321 82.223 124.939 82.0449 125.429 82.3159C126.368 82.8349 127.342 83.32 128.323 83.758C128.835 83.986 129.064 84.5859 128.835 85.0979C128.763 85.2599 128.653 85.393 128.521 85.493C128.237 85.709 127.847 85.768 127.496 85.611ZM119.801 81.0909C118.897 80.4149 118.01 79.6909 117.165 78.9399C116.746 78.5679 116.708 77.926 117.081 77.508C117.452 77.091 118.094 77.051 118.513 77.4239C119.316 78.1379 120.158 78.825 121.017 79.468C121.466 79.803 121.557 80.439 121.222 80.888C121.164 80.966 121.096 81.0339 121.022 81.0899C120.67 81.3539 120.171 81.3679 119.801 81.0909ZM113.293 74.9969C112.751 74.3659 112.223 73.7099 111.721 73.0479C111.539 72.8079 111.361 72.567 111.186 72.325C110.858 71.871 110.947 71.2319 111.413 70.9089C111.867 70.5799 112.501 70.6819 112.83 71.1359C112.997 71.3659 113.166 71.5959 113.339 71.8229C113.816 72.4519 114.318 73.075 114.833 73.676C115.198 74.101 115.149 74.742 114.724 75.106C114.708 75.12 114.692 75.133 114.675 75.146C114.25 75.467 113.644 75.4059 113.293 74.9969Z" fill="#91B3FA"/>
<path d="M182.278 61.5028C182.439 61.3808 182.565 61.2108 182.631 61.0038C182.799 60.4808 182.958 59.9448 183.106 59.4088C183.255 58.8688 182.938 58.3098 182.397 58.1618C181.857 58.0128 181.298 58.3298 181.15 58.8708C181.01 59.3788 180.858 59.8888 180.699 60.3848C180.528 60.9178 180.822 61.4888 181.355 61.6598C181.682 61.7658 182.023 61.6958 182.278 61.5028Z" fill="#91B3FA"/>
</g>
<path d="M174.334 46.0319C174.341 45.8299 174.22 45.6449 174.031 45.5719L168.648 43.4949C168.129 40.8509 167.185 38.2699 165.809 35.8619L168.521 30.7729C168.616 30.5939 168.587 30.3749 168.45 30.2269L163.737 25.1579C163.599 25.0099 163.383 24.9649 163.198 25.0469L157.925 27.3829C155.623 25.8359 153.118 24.7069 150.518 23.9979L148.836 18.4779C148.777 18.2849 148.602 18.1499 148.4 18.1419L141.483 17.8909C141.281 17.8839 141.096 18.0049 141.023 18.1939L138.945 23.5769C136.301 24.0959 133.72 25.0399 131.312 26.4159L126.223 23.7039C126.044 23.6089 125.825 23.6369 125.677 23.7749L120.608 28.4879C120.46 28.6259 120.416 28.8419 120.497 29.0269L122.833 34.2999C121.286 36.6019 120.157 39.1069 119.448 41.7069L113.928 43.3889C113.735 43.4479 113.6 43.6229 113.592 43.8249L113.341 50.7419C113.334 50.9439 113.455 51.1289 113.644 51.2009L119.028 53.2789C119.547 55.9229 120.491 58.5039 121.867 60.9119L119.155 66.0009C119.06 66.1789 119.088 66.3989 119.226 66.5469L123.94 71.6159C124.078 71.7639 124.294 71.8089 124.479 71.7269L129.752 69.3909C132.054 70.9379 134.559 72.0669 137.159 72.7759L138.841 78.2959C138.9 78.4889 139.075 78.6239 139.277 78.6319L146.194 78.8829C146.396 78.8899 146.581 78.7689 146.653 78.5799L148.731 73.1959C151.375 72.6769 153.956 71.7329 156.364 70.3569L161.453 73.0689C161.631 73.1639 161.851 73.1349 161.999 72.9979L167.068 68.2839C167.216 68.1459 167.261 67.9299 167.179 67.7449L164.843 62.4719C166.39 60.1699 167.519 57.6649 168.228 55.0649L173.748 53.3829C173.941 53.3239 174.076 53.1489 174.084 52.9469L174.334 46.0319Z" fill="#91B3FA"/>
<path d="M147.184 54.4851C143.821 56.3301 139.583 55.0951 137.737 51.7321C136.843 50.1031 136.637 48.2231 137.157 46.4391C137.677 44.6551 138.86 43.1801 140.49 42.2861C143.854 40.4411 148.091 41.6761 149.937 45.0391C151.616 48.0991 150.745 51.8821 148.041 53.9301C147.774 54.1331 147.487 54.3191 147.184 54.4851ZM138.716 46.8931C138.317 48.2611 138.475 49.7021 139.161 50.9521C140.576 53.5301 143.825 54.4781 146.404 53.0631C148.984 51.6491 149.93 48.3991 148.515 45.8201C147.1 43.2421 143.851 42.2941 141.272 43.7091C141.038 43.8371 140.817 43.9811 140.608 44.1391C139.701 44.8261 139.04 45.7811 138.716 46.8931Z" fill="#BDD0FB"/>
<path d="M153.995 62.03C154.459 61.678 154.909 61.301 155.341 60.899C155.477 60.773 155.611 60.644 155.743 60.513C156.394 59.868 156.992 59.171 157.529 58.435C157.536 58.425 157.544 58.415 157.551 58.405C157.572 58.376 157.592 58.348 157.613 58.319C157.653 58.263 157.693 58.207 157.732 58.151C157.835 58.003 157.826 57.811 157.723 57.674C157.698 57.641 157.667 57.611 157.631 57.586C157.447 57.458 157.195 57.503 157.066 57.687C156.406 58.633 155.64 59.513 154.788 60.305C150.56 64.238 144.782 65.488 139.569 64.133C136.669 63.38 133.944 61.821 131.757 59.468C131.373 59.056 131.013 58.627 130.678 58.184C128.421 55.203 127.268 51.567 127.405 47.78C127.563 43.43 129.405 39.402 132.593 36.438C139.177 30.317 149.505 30.694 155.624 37.275C156.001 37.681 156.357 38.104 156.689 38.543C158.129 40.445 159.136 42.64 159.631 44.976C159.644 45.036 159.669 45.091 159.704 45.137C159.796 45.258 159.953 45.323 160.112 45.289C160.331 45.242 160.472 45.028 160.425 44.808C159.905 42.356 158.847 40.051 157.336 38.054C156.987 37.593 156.614 37.149 156.219 36.723C149.795 29.814 138.947 29.423 132.041 35.844C128.694 38.956 126.76 43.185 126.595 47.751C126.45 51.727 127.661 55.544 130.031 58.674C130.383 59.139 130.761 59.589 131.163 60.022C134.275 63.369 138.504 65.303 143.07 65.469C147.047 65.612 150.865 64.4 153.995 62.03Z" fill="#BDD0FB"/>
<g opacity="0.3">
<path d="M222.232 29.4473C222.448 29.2833 222.54 28.9923 222.439 28.7253C222.25 28.2283 222.044 27.7293 221.826 27.2443C221.684 26.9293 221.314 26.7883 220.998 26.9303C220.681 27.0713 220.542 27.4433 220.684 27.7583C220.892 28.2213 221.089 28.6963 221.269 29.1703C221.391 29.4933 221.753 29.6563 222.077 29.5343C222.134 29.5123 222.186 29.4823 222.232 29.4473Z" fill="#91B3FA"/>
<path d="M220.063 25.15C219.767 25.33 219.382 25.236 219.202 24.94C218.748 24.194 218.25 23.462 217.723 22.766C217.612 22.619 217.499 22.473 217.383 22.328C217.169 22.057 217.215 21.663 217.486 21.448C217.751 21.255 218.151 21.28 218.366 21.551C218.486 21.703 218.605 21.856 218.721 22.01C219.274 22.74 219.795 23.507 220.271 24.289C220.44 24.566 220.368 24.922 220.115 25.114C220.099 25.126 220.082 25.138 220.063 25.15ZM215.262 19.957C214.509 19.212 213.703 18.508 212.867 17.863C212.593 17.652 212.542 17.259 212.753 16.984C212.964 16.712 213.358 16.659 213.632 16.87C214.508 17.546 215.353 18.284 216.143 19.065C216.389 19.308 216.391 19.705 216.148 19.951C216.127 19.972 216.104 19.992 216.08 20.01C215.836 20.196 215.486 20.179 215.262 19.957ZM210.231 16.081C209.32 15.544 208.366 15.06 207.394 14.64C207.077 14.503 206.93 14.134 207.068 13.816C207.206 13.497 207.574 13.352 207.892 13.489C208.911 13.929 209.912 14.438 210.867 15.001C211.165 15.177 211.265 15.561 211.089 15.859C211.046 15.931 210.991 15.992 210.927 16.04C210.731 16.189 210.456 16.214 210.231 16.081ZM204.401 13.56C203.385 13.263 202.34 13.026 201.299 12.857C200.957 12.801 200.725 12.479 200.781 12.138C200.837 11.797 201.158 11.565 201.5 11.62C202.593 11.798 203.687 12.046 204.754 12.357C205.086 12.454 205.277 12.802 205.18 13.135C205.14 13.269 205.061 13.38 204.957 13.458C204.802 13.574 204.599 13.618 204.401 13.56ZM198.132 12.539C197.074 12.498 196.005 12.522 194.952 12.61C194.608 12.639 194.304 12.383 194.275 12.038C194.246 11.693 194.502 11.39 194.847 11.361C195.95 11.268 197.072 11.243 198.18 11.286C198.526 11.3 198.795 11.591 198.782 11.936C198.774 12.131 198.678 12.302 198.534 12.412C198.423 12.497 198.282 12.544 198.132 12.539ZM191.805 13.07C190.77 13.287 189.74 13.571 188.741 13.914C188.414 14.026 188.057 13.852 187.945 13.525C187.833 13.198 188.006 12.842 188.334 12.729C189.381 12.369 190.462 12.071 191.548 11.843C191.887 11.772 192.219 11.989 192.29 12.327C192.341 12.572 192.242 12.814 192.055 12.956C191.983 13.011 191.899 13.051 191.805 13.07ZM185.803 15.132C184.856 15.595 183.926 16.124 183.038 16.704C182.748 16.893 182.36 16.811 182.171 16.522C181.982 16.233 182.066 15.849 182.353 15.654C183.284 15.046 184.26 14.492 185.253 14.006C185.564 13.854 185.939 13.983 186.091 14.294C186.225 14.567 186.141 14.891 185.907 15.068C185.875 15.092 185.84 15.114 185.803 15.132ZM177.3 20.837C177.046 20.602 177.031 20.206 177.266 19.952C177.917 19.249 178.617 18.57 179.346 17.934C179.456 17.837 179.567 17.742 179.679 17.647C179.936 17.417 180.339 17.457 180.562 17.723C180.785 17.988 180.751 18.383 180.487 18.606C180.382 18.694 180.277 18.784 180.172 18.877C179.475 19.485 178.806 20.133 178.186 20.803C178.161 20.831 178.133 20.855 178.104 20.877C177.865 21.057 177.526 21.046 177.3 20.837Z" fill="#91B3FA"/>
</g>
<g opacity="0.3">
<path d="M213.168 60.1317C212.289 60.7797 211.363 61.3787 210.415 61.9147C210.114 62.0847 209.732 61.9787 209.561 61.6767C209.391 61.3747 209.501 60.9947 209.799 60.8227C210.703 60.3127 211.586 59.7407 212.425 59.1217C212.703 58.9167 213.096 58.9757 213.301 59.2547C213.505 59.5307 213.448 59.9197 213.175 60.1257C213.175 60.1257 213.171 60.1297 213.168 60.1317ZM214.803 58.0017C214.566 57.7497 214.578 57.3537 214.83 57.1167C215.588 56.4027 216.31 55.6367 216.977 54.8377C217.198 54.5747 217.594 54.5367 217.86 54.7587C218.126 54.9807 218.161 55.3747 217.939 55.6407C217.24 56.4777 216.483 57.2807 215.689 58.0287C215.672 58.0447 215.655 58.0587 215.637 58.0727C215.385 58.2637 215.025 58.2377 214.803 58.0017ZM207.464 63.3507C206.454 63.7667 205.41 64.1257 204.361 64.4157C204.027 64.5077 203.682 64.3117 203.59 63.9787C203.497 63.6447 203.693 63.3017 204.026 63.2077C205.027 62.9307 206.022 62.5897 206.986 62.1927C207.306 62.0607 207.672 62.2137 207.804 62.5327C207.915 62.8017 207.825 63.1037 207.603 63.2707C207.562 63.3027 207.515 63.3297 207.464 63.3507ZM219.017 53.1827C218.726 52.9957 218.643 52.6077 218.83 52.3167C219.394 51.4417 219.91 50.5237 220.363 49.5877C220.514 49.2767 220.889 49.1467 221.2 49.2967C221.512 49.4477 221.642 49.8227 221.491 50.1337C221.016 51.1157 220.475 52.0787 219.883 52.9957C219.842 53.0587 219.791 53.1127 219.735 53.1557C219.531 53.3107 219.245 53.3297 219.017 53.1827ZM201.153 65.0947C200.075 65.2557 198.976 65.3517 197.885 65.3817C197.539 65.3907 197.251 65.1177 197.242 64.7717C197.233 64.4257 197.505 64.1377 197.851 64.1287C198.891 64.1007 199.939 64.0087 200.968 63.8547C201.31 63.8037 201.629 64.0397 201.68 64.3827C201.715 64.6167 201.615 64.8407 201.438 64.9747C201.357 65.0357 201.26 65.0787 201.153 65.0947ZM194.607 65.2747C193.52 65.1727 192.429 65.0037 191.365 64.7717C191.027 64.6987 190.813 64.3647 190.886 64.0267C190.959 63.6887 191.293 63.4737 191.631 63.5477C192.646 63.7677 193.686 63.9287 194.724 64.0267C195.068 64.0587 195.322 64.3647 195.289 64.7097C195.272 64.8917 195.179 65.0487 195.043 65.1507C194.923 65.2417 194.769 65.2897 194.607 65.2747ZM188.205 63.8817C187.173 63.5217 186.154 63.0957 185.177 62.6157C184.866 62.4627 184.739 62.0877 184.891 61.7767C185.044 61.4667 185.419 61.3387 185.73 61.4907C186.662 61.9497 187.633 62.3557 188.618 62.6977C188.945 62.8117 189.118 63.1687 189.003 63.4957C188.961 63.6167 188.885 63.7167 188.79 63.7887C188.629 63.9107 188.411 63.9527 188.205 63.8817Z" fill="#91B3FA"/>
<path d="M222.534 47.3645C222.63 47.2915 222.707 47.1905 222.748 47.0665C222.921 46.5585 223.079 46.0435 223.219 45.5355C223.311 45.2015 223.115 44.8565 222.781 44.7645C222.448 44.6735 222.103 44.8685 222.01 45.2025C221.877 45.6875 221.725 46.1785 221.561 46.6635C221.45 46.9915 221.625 47.3475 221.953 47.4585C222.158 47.5285 222.374 47.4865 222.534 47.3645Z" fill="#91B3FA"/>
</g>
<path d="M217.401 36.5978C217.406 36.4628 217.324 36.3388 217.198 36.2898L213.595 34.8998C213.248 33.1298 212.616 31.4038 211.695 29.7918L213.51 26.3858C213.574 26.2668 213.554 26.1198 213.462 26.0208L210.308 22.6288C210.216 22.5298 210.071 22.4998 209.947 22.5548L206.419 24.1178C204.879 23.0828 203.202 22.3268 201.462 21.8528L200.337 18.1588C200.298 18.0288 200.18 17.9388 200.045 17.9338L195.416 17.7658C195.281 17.7608 195.157 17.8428 195.108 17.9688L193.718 21.5708C191.948 21.9178 190.221 22.5498 188.61 23.4708L185.205 21.6558C185.086 21.5918 184.939 21.6108 184.84 21.7038L181.448 24.8578C181.349 24.9498 181.319 25.0948 181.374 25.2188L182.937 28.7468C181.902 30.2868 181.146 31.9638 180.672 33.7038L176.978 34.8288C176.849 34.8678 176.758 34.9858 176.753 35.1208L176.585 39.7498C176.58 39.8848 176.662 40.0088 176.788 40.0568L180.39 41.4478C180.737 43.2178 181.369 44.9438 182.29 46.5558L180.475 49.9618C180.411 50.0808 180.43 50.2278 180.523 50.3268L183.677 53.7188C183.769 53.8178 183.914 53.8478 184.038 53.7928L187.566 52.2298C189.106 53.2648 190.783 54.0208 192.523 54.4948L193.648 58.1888C193.687 58.3178 193.805 58.4088 193.94 58.4138L198.569 58.5818C198.704 58.5868 198.828 58.5048 198.877 58.3788L200.267 54.7768C202.037 54.4298 203.763 53.7978 205.375 52.8768L208.78 54.6918C208.899 54.7558 209.046 54.7358 209.145 54.6438L212.537 51.4898C212.636 51.3978 212.666 51.2528 212.611 51.1288L211.049 47.5998C212.084 46.0598 212.839 44.3828 213.314 42.6428L217.008 41.5178C217.137 41.4788 217.228 41.3608 217.233 41.2258L217.401 36.5978Z" fill="#91B3FA"/>
<path d="M199.273 42.3305C198.163 42.9395 196.882 43.0805 195.667 42.7255C194.452 42.3715 193.447 41.5655 192.838 40.4555C191.581 38.1645 192.421 35.2834 194.713 34.0204C197.005 32.7644 199.891 33.6054 201.147 35.8954C201.756 37.0054 201.896 38.2854 201.542 39.5014C201.254 40.4894 200.667 41.3384 199.861 41.9485C199.678 42.0894 199.481 42.2165 199.273 42.3305ZM193.937 39.8525C194.385 40.6695 195.124 41.2625 196.018 41.5225C196.912 41.7825 197.854 41.6795 198.67 41.2315C199.486 40.7825 200.079 40.0445 200.34 39.1505C200.601 38.2565 200.497 37.3144 200.049 36.4984C199.124 34.8134 197.001 34.1945 195.316 35.1185C195.164 35.2025 195.021 35.2955 194.886 35.3975C193.532 36.4235 193.096 38.3195 193.937 39.8525Z" fill="#BDD0FB"/>
<path d="M204.014 47.5773C204.33 47.3383 204.636 47.0803 204.933 46.8053C205.522 46.2583 206.055 45.6513 206.52 44.9983C206.541 44.9693 206.561 44.9393 206.582 44.9103C206.742 44.6823 206.728 44.3843 206.568 44.1733C206.529 44.1223 206.482 44.0763 206.426 44.0373C206.142 43.8393 205.753 43.9103 205.554 44.1923C205.126 44.8063 204.63 45.3753 204.08 45.8873C204.05 45.9153 204.019 45.9433 203.989 45.9703C202.676 47.1683 201.114 47.9933 199.433 48.4063C198.52 48.6303 197.572 48.7333 196.608 48.7073C196.6 48.7073 196.592 48.7073 196.585 48.7063C196.561 48.7053 196.537 48.7053 196.513 48.7043C193.697 48.6013 191.089 47.4093 189.17 45.3453C188.921 45.0783 188.689 44.8013 188.472 44.5143C187.011 42.5843 186.264 40.2303 186.353 37.7783C186.455 34.9623 187.649 32.3553 189.712 30.4363C191.775 28.5193 194.463 27.5173 197.279 27.6193C200.095 27.7213 202.703 28.9143 204.622 30.9783C204.866 31.2403 205.096 31.5153 205.311 31.7983C206.243 33.0293 206.895 34.4503 207.216 35.9623C207.236 36.0553 207.275 36.1393 207.329 36.2103C207.471 36.3973 207.713 36.4973 207.958 36.4453C208.296 36.3723 208.513 36.0413 208.441 35.7023C208.082 34.0103 207.353 32.4203 206.31 31.0433C206.069 30.7253 205.812 30.4183 205.539 30.1253C203.392 27.8163 200.474 26.4823 197.324 26.3673C194.174 26.2533 191.167 27.3693 188.859 29.5193C186.55 31.6663 185.216 34.5833 185.102 37.7343C185.002 40.4773 185.838 43.1113 187.472 45.2703C187.715 45.5903 187.975 45.9013 188.253 46.2003C192.409 50.6693 199.249 51.1863 204.014 47.5773Z" fill="#BDD0FB"/>
<path d="M217.549 214.086L211.425 256.342H282.465L273.212 214.086H217.549Z" fill="url(#paint1_linear_4553_94173)"/>
<path d="M98.2136 78.7821V204.553C98.2136 214.899 106.459 223.36 116.802 223.627C162.74 224.812 323.408 227.684 367.138 227.039C374.654 226.928 380.743 220.914 380.959 213.4C381.802 184.182 383.172 113.921 378.104 81.3021C377.037 74.4331 371.238 69.2961 364.29 69.0741C325.8 67.8431 155.481 63.9331 111.772 64.9141C104.233 65.0841 98.2136 71.2421 98.2136 78.7821Z" fill="url(#paint2_linear_4553_94173)"/>
<path d="M106.106 78.1662V197.657C106.106 203.698 110.955 208.62 116.995 208.71L360.846 211.723C366.834 211.813 371.743 206.995 371.765 201.006L372.173 82.5822C372.189 78.3002 368.777 74.7912 364.496 74.6872L114.838 69.6432C110.05 69.5262 106.106 73.3762 106.106 78.1662Z" fill="#91B3FA"/>
<path d="M373.601 216.625C373.599 216.625 373.597 216.625 373.595 216.625L106.1 212.067C105.913 212.064 105.765 211.91 105.768 211.723C105.771 211.536 105.927 211.393 106.112 211.391L373.607 215.949C373.794 215.952 373.942 216.106 373.939 216.293C373.936 216.477 373.785 216.625 373.601 216.625Z" fill="#91B3FA"/>
<path d="M242.492 222.187C240.771 222.187 239.371 220.787 239.371 219.066C239.371 217.345 240.771 215.945 242.492 215.945C244.213 215.945 245.613 217.345 245.613 219.066C245.614 220.786 244.213 222.187 242.492 222.187ZM242.492 216.62C241.144 216.62 240.047 217.717 240.047 219.065C240.047 220.413 241.144 221.51 242.492 221.51C243.84 221.51 244.937 220.413 244.937 219.065C244.937 217.717 243.84 216.62 242.492 216.62Z" fill="#91B3FA"/>
<path d="M297.767 267.574H193.795C190.97 267.574 188.849 265.563 189.395 263.403L190.729 258.127C191.13 256.54 192.876 255.375 194.949 255.311L295.182 252.183C297.348 252.115 299.266 253.265 299.738 254.914L302.143 263.318C302.769 265.502 300.638 267.574 297.767 267.574Z" fill="url(#paint3_linear_4553_94173)"/>
<path d="M249.765 256.739C249.581 256.739 249.43 256.591 249.427 256.406C249.424 256.219 249.573 256.066 249.76 256.063L254.055 256C254.234 256.001 254.395 256.147 254.398 256.333C254.401 256.52 254.252 256.673 254.065 256.676L249.77 256.739H249.765Z" fill="#91B3FA"/>
<path d="M193.245 264.662C193.227 264.662 193.209 264.661 193.191 264.658C193.007 264.629 192.881 264.455 192.91 264.271L193.523 260.433C193.852 258.371 195.606 256.853 197.694 256.822L243.25 256.156H243.255C243.439 256.156 243.59 256.304 243.593 256.489C243.596 256.676 243.447 256.829 243.26 256.832L197.704 257.498C195.946 257.524 194.468 258.803 194.191 260.539L193.578 264.377C193.552 264.544 193.408 264.662 193.245 264.662Z" fill="#91B3FA"/>
<g opacity="0.53">
<path d="M247.896 86.5234H241.482V199.649H247.896V86.5234Z" fill="white"/>
<path d="M258.613 86.5234H252.199V199.649H258.613V86.5234Z" fill="white"/>
<path d="M269.331 86.5234H262.917V199.649H269.331V86.5234Z" fill="white"/>
<path d="M280.047 86.5234H273.633V199.649H280.047V86.5234Z" fill="white"/>
<path d="M290.764 86.5234H284.35V199.649H290.764V86.5234Z" fill="white"/>
<path d="M301.48 86.5234H295.066V199.649H301.48V86.5234Z" fill="white"/>
<path d="M312.197 86.5234H305.783V199.649H312.197V86.5234Z" fill="white"/>
</g>
<path d="M247.896 140.445H241.482V199.648H247.896V140.445Z" fill="url(#paint4_linear_4553_94173)"/>
<path d="M258.613 160.797H252.199V199.653H258.613V160.797Z" fill="url(#paint5_linear_4553_94173)"/>
<path d="M269.331 110.508H262.917V199.651H269.331V110.508Z" fill="url(#paint6_linear_4553_94173)"/>
<path d="M280.047 178.234H273.633V199.65H280.047V178.234Z" fill="url(#paint7_linear_4553_94173)"/>
<path d="M290.764 122.422H284.35V199.647H290.764V122.422Z" fill="url(#paint8_linear_4553_94173)"/>
<path d="M301.48 135.797H295.066V199.651H301.48V135.797Z" fill="url(#paint9_linear_4553_94173)"/>
<path d="M312.197 150.328H305.783V199.648H312.197V150.328Z" fill="url(#paint10_linear_4553_94173)"/>
<path opacity="0.57" d="M135.703 81.3516C127.098 81.3516 120.122 88.3276 120.122 96.9326C120.122 105.538 127.098 112.514 135.703 112.514C144.308 112.514 151.284 105.538 151.284 96.9326C151.284 88.3276 144.308 81.3516 135.703 81.3516ZM135.703 105.81C130.8 105.81 126.826 101.836 126.826 96.9326C126.826 92.0296 130.8 88.0556 135.703 88.0556C140.606 88.0556 144.58 92.0296 144.58 96.9326C144.58 101.836 140.605 105.81 135.703 105.81Z" fill="white"/>
<mask id="mask0_4553_94173" style="mask-type:luminance" maskUnits="userSpaceOnUse" x="120" y="81" width="32" height="32">
<path d="M135.703 81.3516C127.098 81.3516 120.122 88.3276 120.122 96.9326C120.122 105.538 127.098 112.514 135.703 112.514C144.308 112.514 151.284 105.538 151.284 96.9326C151.284 88.3276 144.308 81.3516 135.703 81.3516ZM135.703 105.81C130.8 105.81 126.826 101.836 126.826 96.9326C126.826 92.0296 130.8 88.0556 135.703 88.0556C140.606 88.0556 144.58 92.0296 144.58 96.9326C144.58 101.836 140.605 105.81 135.703 105.81Z" fill="white"/>
</mask>
<g mask="url(#mask0_4553_94173)">
<path d="M160.228 93.5078H113.944V113.095H160.228V93.5078Z" fill="url(#paint11_linear_4553_94173)"/>
</g>
<path opacity="0.57" d="M173.685 81.3516C165.08 81.3516 158.104 88.3276 158.104 96.9326C158.104 105.538 165.08 112.514 173.685 112.514C182.29 112.514 189.266 105.538 189.266 96.9326C189.267 88.3276 182.291 81.3516 173.685 81.3516ZM173.685 105.81C168.782 105.81 164.808 101.836 164.808 96.9326C164.808 92.0296 168.782 88.0556 173.685 88.0556C178.588 88.0556 182.562 92.0296 182.562 96.9326C182.562 101.836 178.588 105.81 173.685 105.81Z" fill="white"/>
<mask id="mask1_4553_94173" style="mask-type:luminance" maskUnits="userSpaceOnUse" x="158" y="81" width="32" height="32">
<path d="M173.685 81.3516C165.08 81.3516 158.104 88.3276 158.104 96.9326C158.104 105.538 165.08 112.514 173.685 112.514C182.29 112.514 189.266 105.538 189.266 96.9326C189.267 88.3276 182.291 81.3516 173.685 81.3516ZM173.685 105.81C168.782 105.81 164.808 101.836 164.808 96.9326C164.808 92.0296 168.782 88.0556 173.685 88.0556C178.588 88.0556 182.562 92.0296 182.562 96.9326C182.562 101.836 178.588 105.81 173.685 105.81Z" fill="white"/>
</mask>
<g mask="url(#mask1_4553_94173)">
<path d="M198.21 85.9375H151.926V113.096H198.21V85.9375Z" fill="url(#paint12_linear_4553_94173)"/>
</g>
<path opacity="0.57" d="M211.668 81.3516C203.063 81.3516 196.087 88.3276 196.087 96.9326C196.087 105.538 203.063 112.514 211.668 112.514C220.273 112.514 227.249 105.538 227.249 96.9326C227.249 88.3276 220.273 81.3516 211.668 81.3516ZM211.668 105.81C206.765 105.81 202.791 101.836 202.791 96.9326C202.791 92.0296 206.765 88.0556 211.668 88.0556C216.571 88.0556 220.545 92.0296 220.545 96.9326C220.545 101.836 216.57 105.81 211.668 105.81Z" fill="white"/>
<mask id="mask2_4553_94173" style="mask-type:luminance" maskUnits="userSpaceOnUse" x="196" y="81" width="32" height="32">
<path d="M211.668 81.3516C203.063 81.3516 196.087 88.3276 196.087 96.9326C196.087 105.538 203.063 112.514 211.668 112.514C220.273 112.514 227.249 105.538 227.249 96.9326C227.249 88.3276 220.273 81.3516 211.668 81.3516ZM211.668 105.81C206.765 105.81 202.791 101.836 202.791 96.9326C202.791 92.0296 206.765 88.0556 211.668 88.0556C216.571 88.0556 220.545 92.0296 220.545 96.9326C220.545 101.836 216.57 105.81 211.668 105.81Z" fill="white"/>
</mask>
<g mask="url(#mask2_4553_94173)">
<path d="M236.193 103.297H189.909V113.09H236.193V103.297Z" fill="url(#paint13_linear_4553_94173)"/>
</g>
<path opacity="0.44" d="M223.633 200.273L123.685 199.522C121.713 199.507 120.123 197.905 120.123 195.933V144.581C120.123 142.599 121.73 140.992 123.712 140.992H223.661C225.643 140.992 227.25 142.599 227.25 144.581V196.684C227.249 198.677 225.625 200.288 223.633 200.273Z" fill="white"/>
<path opacity="0.44" d="M208.13 164.174L195.278 150.586L176.85 170.63L163.847 156.599L151.652 170.385L142.3 159.023L123.869 178.212V192.088C123.869 193.922 125.348 195.413 127.182 195.426L220.141 196.124C221.994 196.138 223.504 194.639 223.504 192.786V155.037L208.13 164.174Z" fill="white"/>
<path d="M208.546 163.797H208.208V196.125H208.546V163.797Z" fill="white"/>
<path d="M195.446 150.586H195.108V195.938H195.446V150.586Z" fill="white"/>
<path d="M177.017 170.391H176.679V195.805H177.017V170.391Z" fill="white"/>
<path d="M164.359 157.102H164.021V195.805H164.359V157.102Z" fill="white"/>
<path d="M151.818 169.977H151.48V195.803H151.818V169.977Z" fill="white"/>
<path d="M142.665 158.062H142.327V195.555H142.665V158.062Z" fill="white"/>
<path d="M142.496 160.89C144.055 160.89 145.32 159.626 145.32 158.066C145.32 156.507 144.055 155.242 142.496 155.242C140.936 155.242 139.672 156.507 139.672 158.066C139.672 159.626 140.936 160.89 142.496 160.89Z" fill="url(#paint14_linear_4553_94173)"/>
<path d="M153.511 169.977C153.511 171.004 152.678 171.837 151.651 171.837C150.624 171.837 149.791 171.004 149.791 169.977C149.791 168.95 150.624 168.117 151.651 168.117C152.678 168.117 153.511 168.95 153.511 169.977Z" fill="url(#paint15_linear_4553_94173)"/>
<path d="M166.051 157.102C166.051 158.129 165.218 158.962 164.191 158.962C163.164 158.962 162.331 158.129 162.331 157.102C162.331 156.075 163.164 155.242 164.191 155.242C165.218 155.242 166.051 156.075 166.051 157.102Z" fill="url(#paint16_linear_4553_94173)"/>
<path d="M178.709 170.391C178.709 171.418 177.876 172.251 176.849 172.251C175.821 172.251 174.989 171.418 174.989 170.391C174.989 169.364 175.822 168.531 176.849 168.531C177.876 168.531 178.709 169.364 178.709 170.391Z" fill="url(#paint17_linear_4553_94173)"/>
<path d="M197.137 150.587C197.137 151.614 196.304 152.447 195.277 152.447C194.25 152.447 193.417 151.614 193.417 150.587C193.417 149.56 194.25 148.727 195.277 148.727C196.304 148.727 197.137 149.56 197.137 150.587Z" fill="url(#paint18_linear_4553_94173)"/>
<path d="M210.238 163.797C210.238 164.824 209.405 165.657 208.378 165.657C207.351 165.657 206.518 164.824 206.518 163.797C206.518 162.77 207.351 161.938 208.378 161.938C209.405 161.937 210.238 162.769 210.238 163.797Z" fill="url(#paint19_linear_4553_94173)"/>
<g opacity="0.48">
<path d="M149.002 132.445H121.603C120.457 132.445 119.528 133.092 119.528 133.89C119.528 134.688 120.457 135.335 121.603 135.335H149.002C150.148 135.335 151.077 134.688 151.077 133.89C151.077 133.092 150.148 132.445 149.002 132.445Z" fill="white"/>
<path d="M149.002 126.047H121.603C120.457 126.047 119.528 126.694 119.528 127.492C119.528 128.29 120.457 128.937 121.603 128.937H149.002C150.148 128.937 151.077 128.29 151.077 127.492C151.077 126.694 150.148 126.047 149.002 126.047Z" fill="white"/>
<path d="M149.002 119.648H121.603C120.457 119.648 119.528 120.295 119.528 121.093C119.528 121.891 120.457 122.538 121.603 122.538H149.002C150.148 122.538 151.077 121.891 151.077 121.093C151.077 120.295 150.148 119.648 149.002 119.648Z" fill="white"/>
</g>
<g opacity="0.48">
<path d="M187.088 132.445H159.689C158.543 132.445 157.614 133.092 157.614 133.89C157.614 134.688 158.543 135.335 159.689 135.335H187.088C188.234 135.335 189.163 134.688 189.163 133.89C189.163 133.092 188.234 132.445 187.088 132.445Z" fill="white"/>
<path d="M187.088 126.047H159.689C158.543 126.047 157.614 126.694 157.614 127.492C157.614 128.29 158.543 128.937 159.689 128.937H187.088C188.234 128.937 189.163 128.29 189.163 127.492C189.163 126.694 188.234 126.047 187.088 126.047Z" fill="white"/>
<path d="M187.088 119.648H159.689C158.543 119.648 157.614 120.295 157.614 121.093C157.614 121.891 158.543 122.538 159.689 122.538H187.088C188.234 122.538 189.163 121.891 189.163 121.093C189.163 120.295 188.234 119.648 187.088 119.648Z" fill="white"/>
</g>
<g opacity="0.48">
<path d="M225.174 132.445H197.775C196.629 132.445 195.7 133.092 195.7 133.89C195.7 134.688 196.629 135.335 197.775 135.335H225.174C226.32 135.335 227.249 134.688 227.249 133.89C227.249 133.092 226.32 132.445 225.174 132.445Z" fill="white"/>
<path d="M225.174 126.047H197.775C196.629 126.047 195.7 126.694 195.7 127.492C195.7 128.29 196.629 128.937 197.775 128.937H225.174C226.32 128.937 227.249 128.29 227.249 127.492C227.249 126.694 226.32 126.047 225.174 126.047Z" fill="white"/>
<path d="M225.174 119.648H197.775C196.629 119.648 195.7 120.295 195.7 121.093C195.7 121.891 196.629 122.538 197.775 122.538H225.174C226.32 122.538 227.249 121.891 227.249 121.093C227.249 120.295 226.32 119.648 225.174 119.648Z" fill="white"/>
</g>
<path d="M341.095 151.137C348.097 151.137 353.773 145.461 353.773 138.459C353.773 131.457 348.097 125.781 341.095 125.781C334.093 125.781 328.417 131.457 328.417 138.459C328.417 145.461 334.093 151.137 341.095 151.137Z" fill="url(#paint20_linear_4553_94173)"/>
<path d="M348.628 135.776C349.02 136.73 349.238 137.775 349.238 138.87C349.238 143.367 345.592 147.013 341.095 147.013C336.598 147.013 332.952 143.367 332.952 138.87C332.952 134.373 336.598 130.727 341.095 130.727C341.233 130.727 341.37 130.731 341.506 130.737V128.673C341.37 128.668 341.233 128.664 341.095 128.664C335.458 128.664 330.889 133.233 330.889 138.87C330.889 144.507 335.458 149.076 341.095 149.076C346.732 149.076 351.301 144.507 351.301 138.87C351.301 137.482 351.023 136.159 350.522 134.953L348.628 135.776Z" fill="#91B3FA"/>
<path opacity="0.5" d="M351.516 156.508H330.857C329.56 156.508 328.509 157.559 328.509 158.856C328.509 160.153 329.56 161.204 330.857 161.204H351.516C352.813 161.204 353.864 160.153 353.864 158.856C353.864 157.56 352.812 156.508 351.516 156.508Z" fill="white"/>
<path d="M341.041 110.387C348.043 110.387 353.719 104.711 353.719 97.7093C353.719 90.7074 348.043 85.0312 341.041 85.0312C334.039 85.0312 328.363 90.7074 328.363 97.7093C328.363 104.711 334.039 110.387 341.041 110.387Z" fill="url(#paint21_linear_4553_94173)"/>
<path d="M345.35 105.017C344.094 105.81 342.607 106.271 341.011 106.271C336.514 106.271 332.868 102.625 332.868 98.1279C332.868 93.6309 336.514 89.9849 341.011 89.9849C341.149 89.9849 341.286 89.9889 341.422 89.9949V87.9309C341.286 87.9259 341.149 87.9219 341.011 87.9219C335.374 87.9219 330.805 92.4909 330.805 98.1279C330.805 103.765 335.374 108.334 341.011 108.334C342.978 108.334 344.815 107.777 346.373 106.813L345.35 105.017Z" fill="#91B3FA"/>
<path opacity="0.5" d="M351.57 115.758H330.911C329.614 115.758 328.563 116.809 328.563 118.106C328.563 119.403 329.614 120.454 330.911 120.454H351.57C352.867 120.454 353.918 119.403 353.918 118.106C353.918 116.81 352.867 115.758 351.57 115.758Z" fill="white"/>
<path opacity="0.91" d="M350.102 188.379C355.053 183.428 355.053 175.4 350.102 170.449C345.151 165.498 337.124 165.498 332.173 170.449C327.222 175.4 327.222 183.428 332.173 188.379C337.124 193.33 345.151 193.33 350.102 188.379Z" fill="white"/>
<path d="M348.045 183.995C346.579 186.147 344.11 187.56 341.311 187.56C336.814 187.56 333.168 183.914 333.168 179.417C333.168 174.92 336.814 171.274 341.311 171.274C341.449 171.274 341.586 171.278 341.722 171.284V169.22C341.586 169.215 341.449 169.211 341.311 169.211C335.674 169.211 331.105 173.78 331.105 179.417C331.105 185.054 335.674 189.623 341.311 189.623C344.798 189.623 347.876 187.874 349.717 185.206L348.045 183.995Z" fill="url(#paint22_linear_4553_94173)"/>
<path opacity="0.5" d="M330.811 201.743H351.47C352.767 201.743 353.818 200.692 353.818 199.395C353.818 198.098 352.767 197.047 351.47 197.047H330.811C329.514 197.047 328.463 198.098 328.463 199.395C328.463 200.692 329.514 201.743 330.811 201.743Z" fill="white"/>
<path d="M345.514 270.828C345.514 270.828 346.061 273.925 346.329 276.992C346.434 278.19 345.51 279.231 344.308 279.281C340.225 279.451 331.491 279.782 328.357 279.642C327.886 279.621 327.578 279.139 327.752 278.7C327.898 278.333 328.18 278.036 328.539 277.871L342.966 271.24L345.514 270.828Z" fill="url(#paint23_linear_4553_94173)"/>
<path d="M345.962 269.01L345.522 272.715C345.522 272.715 342.995 273.891 341.269 272.567L342.316 268.438L345.962 269.01Z" fill="url(#paint24_linear_4553_94173)"/>
<path d="M345.632 199.354C345.822 200.322 346.651 247.636 341.594 268.839C341.511 269.185 341.687 269.542 342.016 269.676C342.792 269.993 344.312 270.452 346.135 270.513C346.699 270.532 347.205 270.165 347.365 269.623C348.811 264.704 355.738 240.056 356.642 216.511C357.652 190.201 356.642 215.615 356.642 215.615L356.05 199.352L345.632 199.354Z" fill="url(#paint25_linear_4553_94173)"/>
<path d="M362.11 272.445C362.11 272.445 362.981 274.009 363.824 278.164C363.976 278.914 363.452 279.633 362.69 279.708C361.342 279.841 359.266 280.011 357.604 280C356.838 279.995 356.239 279.327 356.332 278.567C356.516 277.05 357.09 274.562 358.862 272.623L362.11 272.445Z" fill="url(#paint26_linear_4553_94173)"/>
<path d="M362.875 267.678L361.848 273.281C361.848 273.281 360.832 274.036 358.823 273.489L359.313 267.461L362.875 267.678Z" fill="url(#paint27_linear_4553_94173)"/>
<path d="M365.649 200.805C369.785 225.768 364.752 262.504 363.054 269.694C362.95 270.134 362.595 270.471 362.149 270.545C361.391 270.671 360.144 270.773 358.914 270.416C358.49 270.293 358.193 269.911 358.175 269.47C357.947 263.657 358.357 227.971 354.503 213.868C354.308 213.153 353.871 212.531 353.267 212.102L345.786 206.784L345.212 198.188L365.649 200.805Z" fill="url(#paint28_linear_4553_94173)"/>
<path d="M339.293 153.51C351.689 153.305 365.366 156.765 365.366 156.765C369.061 178.325 366.012 203.193 366.012 203.193C356.415 205.71 345.59 201.654 345.59 201.654C343.995 192.642 336.553 167.281 336.553 167.281C330.496 166.529 325.507 164.782 321.398 162.472C324.532 158.839 326.01 154.216 326.651 151.484C331.034 152.846 335.469 153.573 339.293 153.51Z" fill="url(#paint29_linear_4553_94173)"/>
<path d="M302.677 135.252C303.895 133.781 305.436 134.477 305.436 134.477C307.26 142.182 316.825 148.43 326.652 151.484C326.01 154.217 324.533 158.839 321.399 162.472C305.09 153.302 302.677 135.252 302.677 135.252Z" fill="url(#paint30_linear_4553_94173)"/>
<path d="M302.973 135.623C302.846 136.028 304.321 136.645 305.19 134.988C305.22 134.194 305.703 130.792 305.229 130.146C302.702 126.701 297.803 122.383 297.803 122.383C296.975 123.2 297.657 124.003 297.657 124.003L300.034 126.479C299.537 127.377 298.931 128.136 298.646 129.222C298.431 130.045 298.562 130.924 298.978 131.673C299.395 132.425 299.964 133.402 300.502 134.166C301.52 135.612 302.973 135.623 302.973 135.623Z" fill="url(#paint31_linear_4553_94173)"/>
<path d="M301.073 128.086L303.239 129.922L303.919 131.75L301.988 133.892C301.988 133.892 301.339 130.265 300.856 129.48C300.373 128.695 300.623 128.315 301.073 128.086Z" fill="url(#paint32_linear_4553_94173)"/>
<path d="M360.611 168.769L365.366 156.766C365.366 156.766 376.944 164.633 378.849 174.608C376.661 174.769 372.68 175.338 368.784 177.306C367.927 172.595 360.611 168.769 360.611 168.769Z" fill="url(#paint33_linear_4553_94173)"/>
<path d="M350.492 180.058C350.492 180.058 363.492 187.405 367.878 181.131C368.789 179.828 369.006 178.534 368.782 177.3C372.679 175.332 376.66 174.763 378.847 174.602C379.421 177.609 379.118 180.807 377.351 184.039C369.668 198.094 348.771 183.262 348.771 183.262L350.492 180.058Z" fill="url(#paint34_linear_4553_94173)"/>
<path d="M352.055 189.35L344.96 164.574C344.879 164.293 344.64 164.088 344.349 164.054C343.064 163.904 339.339 163.483 335.038 163.119C329.858 162.681 323.842 162.326 320.247 162.628C319.736 162.671 319.427 163.211 319.654 163.671C321.698 167.807 330.107 184.63 334.318 190.141C334.457 190.324 334.673 190.43 334.903 190.428L351.364 190.275C351.844 190.27 352.187 189.81 352.055 189.35Z" fill="url(#paint35_linear_4553_94173)"/>
<path d="M334.303 160.972L329.159 160.115C328.885 160.069 328.661 160.331 328.748 160.595L329.257 162.138C329.301 162.272 329.419 162.37 329.559 162.388L334.509 163.049C334.765 163.083 334.976 162.851 334.917 162.599L334.602 161.252C334.567 161.107 334.449 160.997 334.303 160.972Z" fill="url(#paint36_linear_4553_94173)"/>
<path d="M338.154 165.323L337.73 163.116C337.687 162.895 337.505 162.727 337.28 162.705L326.891 161.651C326.541 161.615 326.261 161.936 326.343 162.278L327.004 165.028C327.057 165.248 327.248 165.407 327.474 165.418L337.627 165.929C337.958 165.945 338.216 165.648 338.154 165.323Z" fill="url(#paint37_linear_4553_94173)"/>
<path d="M350.341 183.362C350.341 183.362 351.329 179.298 350.931 177.856C350.532 176.414 349.76 174.56 347.185 174.972C344.61 175.384 341.573 176.469 341.573 176.469C341.573 176.469 341.726 178.347 343.683 177.741L342.47 178.68C342.47 178.68 342.643 180.184 344.296 179.38L343.167 180.625C343.167 180.625 343.877 181.86 345.093 181.068C346.309 180.276 346.892 183.851 350.341 183.362Z" fill="url(#paint38_linear_4553_94173)"/>
<path d="M351.849 143.445L355.793 154.851C355.858 155.04 355.781 155.249 355.606 155.346C354.531 155.94 350.657 157.659 345.989 154.699C345.503 154.391 345.172 153.888 345.098 153.317L343.821 143.445H351.849Z" fill="url(#paint39_linear_4553_94173)"/>
<path d="M339.778 132.516C339.778 132.516 336.447 140.168 336.223 144.185C335.999 148.201 335.134 150.808 339.778 151.616C344.422 152.425 348.334 150.111 350.454 146.111C350.454 146.111 353.775 139.946 353.03 137.422C352.285 134.896 339.778 132.516 339.778 132.516Z" fill="url(#paint40_linear_4553_94173)"/>
<path d="M348.867 143.237L348.603 143.12C348.266 142.972 348.122 142.571 348.292 142.244C348.947 140.979 350.224 138.079 348.574 137.403C346.449 136.531 338.029 134.814 336.213 131.827C334.467 128.956 336.014 125.25 338.339 124.195C338.495 124.124 338.678 124.18 338.758 124.331L338.952 124.698C339.085 124.949 339.455 124.911 339.534 124.638C339.61 124.376 339.958 124.326 340.102 124.557C340.66 125.451 342.168 126.9 346.199 127.644C351.928 128.701 355.716 131.02 355.81 134.979C355.816 135.231 356.084 135.37 356.298 135.239C356.721 134.981 357.398 134.86 358.303 135.621C359.876 136.944 359.233 140.376 355.783 143.199C355.619 143.333 355.621 143.589 355.798 143.704C356.423 144.111 357.356 145.08 354.94 146.371C352.442 147.706 350.576 147.597 349.858 147.478C349.679 147.448 349.564 147.275 349.603 147.099L350.37 143.619C350.413 143.422 350.263 143.236 350.062 143.236H348.867V143.237Z" fill="url(#paint41_linear_4553_94173)"/>
<path d="M348.723 143.971C348.723 143.971 349.994 139.083 352.185 140.453C354.377 141.824 351.048 145.93 349.286 146.113L348.723 143.971Z" fill="url(#paint42_linear_4553_94173)"/>
</g>
<path d="M122.495 409.636H127.805L133.413 423.318H133.652L139.26 409.636H144.569V430H140.393V416.746H140.224L134.954 429.901H132.111L126.841 416.696H126.672V430H122.495V409.636ZM154.938 430.298C153.393 430.298 152.057 429.97 150.93 429.314C149.81 428.651 148.945 427.73 148.335 426.55C147.725 425.363 147.421 423.988 147.421 422.423C147.421 420.846 147.725 419.467 148.335 418.287C148.945 417.1 149.81 416.179 150.93 415.523C152.057 414.86 153.393 414.528 154.938 414.528C156.482 414.528 157.814 414.86 158.935 415.523C160.062 416.179 160.93 417.1 161.54 418.287C162.15 419.467 162.455 420.846 162.455 422.423C162.455 423.988 162.15 425.363 161.54 426.55C160.93 427.73 160.062 428.651 158.935 429.314C157.814 429.97 156.482 430.298 154.938 430.298ZM154.957 427.017C155.66 427.017 156.247 426.818 156.717 426.42C157.188 426.016 157.543 425.466 157.781 424.77C158.027 424.074 158.149 423.282 158.149 422.393C158.149 421.505 158.027 420.713 157.781 420.017C157.543 419.321 157.188 418.771 156.717 418.366C156.247 417.962 155.66 417.76 154.957 417.76C154.248 417.76 153.652 417.962 153.168 418.366C152.69 418.771 152.329 419.321 152.084 420.017C151.845 420.713 151.726 421.505 151.726 422.393C151.726 423.282 151.845 424.074 152.084 424.77C152.329 425.466 152.69 426.016 153.168 426.42C153.652 426.818 154.248 427.017 154.957 427.017ZM169.445 421.17V430H165.209V414.727H169.246V417.422H169.425C169.763 416.534 170.33 415.831 171.125 415.314C171.921 414.79 172.885 414.528 174.019 414.528C175.079 414.528 176.004 414.76 176.793 415.224C177.582 415.688 178.195 416.351 178.632 417.213C179.07 418.068 179.288 419.089 179.288 420.276V430H175.053V421.031C175.059 420.097 174.821 419.367 174.337 418.844C173.853 418.313 173.187 418.048 172.338 418.048C171.768 418.048 171.264 418.171 170.827 418.416C170.396 418.661 170.058 419.019 169.813 419.49C169.574 419.954 169.451 420.514 169.445 421.17ZM182.627 430V414.727H186.863V430H182.627ZM184.755 412.759C184.125 412.759 183.585 412.55 183.134 412.132C182.69 411.708 182.468 411.201 182.468 410.611C182.468 410.027 182.69 409.527 183.134 409.109C183.585 408.685 184.125 408.473 184.755 408.473C185.384 408.473 185.921 408.685 186.366 409.109C186.816 409.527 187.042 410.027 187.042 410.611C187.042 411.201 186.816 411.708 186.366 412.132C185.921 412.55 185.384 412.759 184.755 412.759ZM198.379 414.727V417.909H189.182V414.727H198.379ZM191.27 411.068H195.506V425.307C195.506 425.698 195.565 426.003 195.685 426.222C195.804 426.434 195.97 426.583 196.182 426.669C196.401 426.755 196.653 426.798 196.938 426.798C197.136 426.798 197.335 426.782 197.534 426.749C197.733 426.709 197.886 426.679 197.992 426.659L198.658 429.811C198.446 429.877 198.147 429.954 197.763 430.04C197.378 430.133 196.911 430.189 196.361 430.209C195.34 430.249 194.445 430.113 193.676 429.801C192.914 429.49 192.321 429.006 191.896 428.349C191.472 427.693 191.263 426.865 191.27 425.864V411.068ZM207.875 430.298C206.331 430.298 204.995 429.97 203.868 429.314C202.748 428.651 201.883 427.73 201.273 426.55C200.663 425.363 200.358 423.988 200.358 422.423C200.358 420.846 200.663 419.467 201.273 418.287C201.883 417.1 202.748 416.179 203.868 415.523C204.995 414.86 206.331 414.528 207.875 414.528C209.42 414.528 210.752 414.86 211.872 415.523C212.999 416.179 213.868 417.1 214.477 418.287C215.087 419.467 215.392 420.846 215.392 422.423C215.392 423.988 215.087 425.363 214.477 426.55C213.868 427.73 212.999 428.651 211.872 429.314C210.752 429.97 209.42 430.298 207.875 430.298ZM207.895 427.017C208.598 427.017 209.184 426.818 209.655 426.42C210.126 426.016 210.48 425.466 210.719 424.77C210.964 424.074 211.087 423.282 211.087 422.393C211.087 421.505 210.964 420.713 210.719 420.017C210.48 419.321 210.126 418.771 209.655 418.366C209.184 417.962 208.598 417.76 207.895 417.76C207.186 417.76 206.589 417.962 206.105 418.366C205.628 418.771 205.267 419.321 205.021 420.017C204.783 420.713 204.663 421.505 204.663 422.393C204.663 423.282 204.783 424.074 205.021 424.77C205.267 425.466 205.628 426.016 206.105 426.42C206.589 426.818 207.186 427.017 207.895 427.017ZM218.146 430V414.727H222.253V417.392H222.412C222.69 416.444 223.158 415.728 223.814 415.244C224.47 414.754 225.226 414.509 226.081 414.509C226.293 414.509 226.522 414.522 226.767 414.548C227.012 414.575 227.228 414.611 227.413 414.658V418.416C227.215 418.357 226.939 418.304 226.588 418.257C226.237 418.211 225.915 418.188 225.624 418.188C225.001 418.188 224.444 418.323 223.953 418.595C223.469 418.86 223.085 419.232 222.8 419.709C222.521 420.186 222.382 420.736 222.382 421.359V430H218.146ZM236.163 430V409.636H244.317C245.815 409.636 247.064 409.858 248.065 410.303C249.066 410.747 249.819 411.363 250.323 412.152C250.826 412.934 251.078 413.836 251.078 414.857C251.078 415.652 250.919 416.351 250.601 416.955C250.283 417.551 249.845 418.042 249.288 418.426C248.738 418.804 248.109 419.072 247.399 419.232V419.43C248.175 419.464 248.901 419.682 249.577 420.087C250.26 420.491 250.813 421.058 251.237 421.787C251.662 422.509 251.874 423.371 251.874 424.372C251.874 425.453 251.605 426.417 251.068 427.266C250.538 428.107 249.752 428.774 248.712 429.264C247.671 429.755 246.388 430 244.864 430H236.163ZM240.469 426.48H243.979C245.179 426.48 246.054 426.251 246.604 425.794C247.154 425.33 247.429 424.714 247.429 423.945C247.429 423.381 247.293 422.884 247.021 422.453C246.75 422.022 246.362 421.684 245.858 421.439C245.361 421.194 244.768 421.071 244.078 421.071H240.469V426.48ZM240.469 418.158H243.661C244.251 418.158 244.774 418.055 245.232 417.849C245.696 417.637 246.06 417.339 246.325 416.955C246.597 416.57 246.733 416.109 246.733 415.572C246.733 414.837 246.471 414.243 245.948 413.793C245.43 413.342 244.695 413.116 243.74 413.116H240.469V418.158ZM264.39 423.497V414.727H268.625V430H264.559V427.226H264.4C264.055 428.121 263.482 428.84 262.679 429.384C261.884 429.927 260.913 430.199 259.766 430.199C258.745 430.199 257.847 429.967 257.071 429.503C256.296 429.039 255.689 428.379 255.252 427.524C254.821 426.669 254.602 425.645 254.596 424.452V414.727H258.831V423.696C258.838 424.598 259.08 425.31 259.557 425.834C260.035 426.357 260.674 426.619 261.476 426.619C261.987 426.619 262.464 426.503 262.908 426.271C263.352 426.033 263.71 425.681 263.982 425.217C264.26 424.753 264.396 424.18 264.39 423.497ZM284.721 419.082L280.843 419.321C280.777 418.99 280.634 418.691 280.416 418.426C280.197 418.154 279.908 417.939 279.551 417.78C279.199 417.614 278.778 417.531 278.288 417.531C277.631 417.531 277.078 417.67 276.627 417.949C276.176 418.221 275.951 418.585 275.951 419.043C275.951 419.407 276.097 419.715 276.389 419.967C276.68 420.219 277.181 420.421 277.89 420.574L280.654 421.131C282.139 421.436 283.246 421.926 283.975 422.602C284.704 423.278 285.069 424.167 285.069 425.267C285.069 426.268 284.774 427.146 284.184 427.902C283.601 428.658 282.799 429.248 281.778 429.672C280.764 430.089 279.594 430.298 278.268 430.298C276.246 430.298 274.635 429.877 273.435 429.036C272.242 428.187 271.543 427.034 271.337 425.575L275.504 425.357C275.63 425.973 275.935 426.444 276.418 426.768C276.902 427.087 277.522 427.246 278.278 427.246C279.02 427.246 279.617 427.103 280.068 426.818C280.525 426.527 280.757 426.152 280.764 425.695C280.757 425.31 280.595 424.995 280.276 424.75C279.958 424.498 279.468 424.306 278.805 424.173L276.16 423.646C274.668 423.348 273.558 422.831 272.829 422.095C272.106 421.359 271.745 420.421 271.745 419.281C271.745 418.3 272.01 417.455 272.541 416.746C273.078 416.036 273.83 415.49 274.798 415.105C275.772 414.721 276.912 414.528 278.218 414.528C280.147 414.528 281.665 414.936 282.772 415.751C283.886 416.567 284.535 417.677 284.721 419.082ZM287.736 430V414.727H291.972V430H287.736ZM289.864 412.759C289.234 412.759 288.694 412.55 288.243 412.132C287.799 411.708 287.577 411.201 287.577 410.611C287.577 410.027 287.799 409.527 288.243 409.109C288.694 408.685 289.234 408.473 289.864 408.473C290.494 408.473 291.031 408.685 291.475 409.109C291.926 409.527 292.151 410.027 292.151 410.611C292.151 411.201 291.926 411.708 291.475 412.132C291.031 412.55 290.494 412.759 289.864 412.759ZM299.601 421.17V430H295.365V414.727H299.402V417.422H299.581C299.919 416.534 300.486 415.831 301.281 415.314C302.077 414.79 303.041 414.528 304.175 414.528C305.235 414.528 306.16 414.76 306.949 415.224C307.738 415.688 308.351 416.351 308.788 417.213C309.226 418.068 309.445 419.089 309.445 420.276V430H305.209V421.031C305.216 420.097 304.977 419.367 304.493 418.844C304.009 418.313 303.343 418.048 302.494 418.048C301.924 418.048 301.421 418.171 300.983 418.416C300.552 418.661 300.214 419.019 299.969 419.49C299.73 419.954 299.608 420.514 299.601 421.17ZM319.743 430.298C318.172 430.298 316.82 429.98 315.687 429.344C314.56 428.701 313.691 427.793 313.081 426.619C312.472 425.439 312.167 424.044 312.167 422.433C312.167 420.862 312.472 419.483 313.081 418.297C313.691 417.11 314.55 416.186 315.657 415.523C316.77 414.86 318.076 414.528 319.574 414.528C320.582 414.528 321.52 414.691 322.388 415.016C323.263 415.334 324.026 415.814 324.675 416.457C325.331 417.1 325.842 417.909 326.206 418.884C326.571 419.851 326.753 420.985 326.753 422.284V423.447H313.857V420.822H322.766C322.766 420.213 322.633 419.672 322.368 419.202C322.103 418.731 321.735 418.363 321.265 418.098C320.801 417.826 320.26 417.69 319.644 417.69C319.001 417.69 318.431 417.839 317.934 418.138C317.443 418.429 317.059 418.824 316.78 419.321C316.502 419.812 316.359 420.358 316.353 420.962V423.457C316.353 424.213 316.492 424.866 316.77 425.416C317.055 425.966 317.456 426.391 317.973 426.689C318.491 426.987 319.104 427.136 319.813 427.136C320.284 427.136 320.714 427.07 321.106 426.938C321.497 426.805 321.831 426.606 322.11 426.341C322.388 426.076 322.6 425.751 322.746 425.366L326.664 425.625C326.465 426.566 326.057 427.388 325.441 428.091C324.831 428.787 324.042 429.33 323.074 429.722C322.113 430.106 321.003 430.298 319.743 430.298ZM342.225 419.082L338.347 419.321C338.281 418.99 338.138 418.691 337.919 418.426C337.701 418.154 337.412 417.939 337.054 417.78C336.703 417.614 336.282 417.531 335.792 417.531C335.135 417.531 334.582 417.67 334.131 417.949C333.68 418.221 333.455 418.585 333.455 419.043C333.455 419.407 333.601 419.715 333.892 419.967C334.184 420.219 334.685 420.421 335.394 420.574L338.158 421.131C339.643 421.436 340.75 421.926 341.479 422.602C342.208 423.278 342.573 424.167 342.573 425.267C342.573 426.268 342.278 427.146 341.688 427.902C341.105 428.658 340.303 429.248 339.282 429.672C338.267 430.089 337.098 430.298 335.772 430.298C333.75 430.298 332.139 429.877 330.939 429.036C329.746 428.187 329.047 427.034 328.841 425.575L333.008 425.357C333.133 425.973 333.438 426.444 333.922 426.768C334.406 427.087 335.026 427.246 335.782 427.246C336.524 427.246 337.121 427.103 337.571 426.818C338.029 426.527 338.261 426.152 338.267 425.695C338.261 425.31 338.098 424.995 337.78 424.75C337.462 424.498 336.972 424.306 336.309 424.173L333.664 423.646C332.172 423.348 331.062 422.831 330.333 422.095C329.61 421.359 329.249 420.421 329.249 419.281C329.249 418.3 329.514 417.455 330.044 416.746C330.581 416.036 331.334 415.49 332.302 415.105C333.276 414.721 334.416 414.528 335.722 414.528C337.651 414.528 339.169 414.936 340.276 415.751C341.39 416.567 342.039 417.677 342.225 419.082ZM357.948 419.082L354.07 419.321C354.003 418.99 353.861 418.691 353.642 418.426C353.423 418.154 353.135 417.939 352.777 417.78C352.426 417.614 352.005 417.531 351.514 417.531C350.858 417.531 350.305 417.67 349.854 417.949C349.403 418.221 349.178 418.585 349.178 419.043C349.178 419.407 349.323 419.715 349.615 419.967C349.907 420.219 350.407 420.421 351.117 420.574L353.881 421.131C355.366 421.436 356.473 421.926 357.202 422.602C357.931 423.278 358.296 424.167 358.296 425.267C358.296 426.268 358.001 427.146 357.411 427.902C356.827 428.658 356.025 429.248 355.004 429.672C353.99 430.089 352.82 430.298 351.494 430.298C349.473 430.298 347.862 429.877 346.662 429.036C345.469 428.187 344.77 427.034 344.564 425.575L348.73 425.357C348.856 425.973 349.161 426.444 349.645 426.768C350.129 427.087 350.749 427.246 351.504 427.246C352.247 427.246 352.843 427.103 353.294 426.818C353.752 426.527 353.984 426.152 353.99 425.695C353.984 425.31 353.821 424.995 353.503 424.75C353.185 424.498 352.694 424.306 352.031 424.173L349.386 423.646C347.895 423.348 346.785 422.831 346.055 422.095C345.333 421.359 344.972 420.421 344.972 419.281C344.972 418.3 345.237 417.455 345.767 416.746C346.304 416.036 347.056 415.49 348.024 415.105C348.999 414.721 350.139 414.528 351.445 414.528C353.374 414.528 354.892 414.936 355.999 415.751C357.112 416.567 357.762 417.677 357.948 419.082Z" fill="#2F2F2F"/>
<path d="M126.888 471H125.226L130.033 457.909H131.669L136.476 471H134.814L130.902 459.98H130.8L126.888 471ZM127.501 465.886H134.2V467.293H127.501V465.886ZM139.459 457.909V471H137.95V457.909H139.459ZM144.086 471L141.095 461.182H142.68L144.802 468.699H144.904L147.001 461.182H148.612L150.683 468.673H150.785L152.907 461.182H154.493L151.501 471H150.018L147.87 463.457H147.717L145.569 471H144.086ZM159.016 471.23C158.394 471.23 157.829 471.113 157.322 470.879C156.815 470.64 156.412 470.297 156.114 469.849C155.816 469.398 155.667 468.852 155.667 468.213C155.667 467.651 155.777 467.195 155.999 466.845C156.221 466.491 156.517 466.214 156.888 466.014C157.258 465.814 157.667 465.665 158.115 465.567C158.566 465.464 159.02 465.384 159.476 465.324C160.073 465.247 160.557 465.19 160.927 465.151C161.302 465.109 161.575 465.038 161.745 464.94C161.92 464.842 162.008 464.672 162.008 464.429V464.378C162.008 463.747 161.835 463.257 161.49 462.908C161.149 462.558 160.631 462.384 159.937 462.384C159.216 462.384 158.652 462.541 158.243 462.857C157.834 463.172 157.546 463.509 157.38 463.866L155.948 463.355C156.204 462.759 156.544 462.294 156.971 461.962C157.401 461.625 157.87 461.391 158.377 461.259C158.888 461.122 159.391 461.054 159.885 461.054C160.201 461.054 160.563 461.092 160.972 461.169C161.385 461.241 161.784 461.393 162.167 461.623C162.555 461.853 162.877 462.2 163.133 462.665C163.388 463.129 163.516 463.751 163.516 464.531V471H162.008V469.67H161.931C161.829 469.884 161.658 470.112 161.419 470.354C161.181 470.597 160.863 470.804 160.467 470.974C160.071 471.145 159.587 471.23 159.016 471.23ZM159.246 469.875C159.843 469.875 160.346 469.758 160.755 469.523C161.168 469.289 161.479 468.987 161.688 468.616C161.901 468.245 162.008 467.855 162.008 467.446V466.065C161.944 466.142 161.803 466.212 161.586 466.276C161.373 466.336 161.125 466.389 160.844 466.436C160.567 466.479 160.297 466.517 160.032 466.551C159.772 466.581 159.562 466.607 159.4 466.628C159.008 466.679 158.641 466.762 158.3 466.877C157.963 466.988 157.691 467.156 157.482 467.382C157.277 467.604 157.175 467.906 157.175 468.29C157.175 468.814 157.369 469.21 157.757 469.479C158.149 469.743 158.645 469.875 159.246 469.875ZM166.529 474.682C166.274 474.682 166.046 474.661 165.846 474.618C165.645 474.58 165.507 474.541 165.43 474.503L165.814 473.173C166.18 473.267 166.504 473.301 166.785 473.276C167.066 473.25 167.316 473.124 167.533 472.898C167.755 472.677 167.957 472.317 168.14 471.818L168.422 471.051L164.791 461.182H166.427L169.137 469.006H169.24L171.95 461.182H173.586L169.419 472.432C169.231 472.939 168.999 473.359 168.722 473.691C168.445 474.028 168.123 474.277 167.757 474.439C167.395 474.601 166.985 474.682 166.529 474.682ZM182.172 463.381L180.817 463.764C180.732 463.538 180.606 463.319 180.44 463.106C180.278 462.888 180.056 462.71 179.775 462.569C179.494 462.428 179.134 462.358 178.695 462.358C178.094 462.358 177.593 462.496 177.193 462.773C176.796 463.046 176.598 463.393 176.598 463.815C176.598 464.19 176.734 464.487 177.007 464.704C177.28 464.921 177.706 465.102 178.286 465.247L179.743 465.605C180.621 465.818 181.275 466.144 181.705 466.583C182.136 467.018 182.351 467.578 182.351 468.264C182.351 468.827 182.189 469.33 181.865 469.773C181.546 470.216 181.098 470.565 180.523 470.821C179.948 471.077 179.278 471.205 178.516 471.205C177.514 471.205 176.685 470.987 176.029 470.553C175.373 470.118 174.957 469.483 174.783 468.648L176.215 468.29C176.351 468.818 176.609 469.214 176.988 469.479C177.372 469.743 177.872 469.875 178.49 469.875C179.193 469.875 179.751 469.726 180.165 469.428C180.582 469.125 180.791 468.763 180.791 468.341C180.791 468 180.672 467.714 180.433 467.484C180.195 467.25 179.828 467.075 179.334 466.96L177.698 466.577C176.798 466.364 176.138 466.033 175.716 465.586C175.298 465.134 175.09 464.57 175.09 463.892C175.09 463.338 175.245 462.848 175.556 462.422C175.872 461.996 176.3 461.661 176.841 461.418C177.386 461.175 178.004 461.054 178.695 461.054C179.666 461.054 180.429 461.267 180.983 461.693C181.541 462.119 181.938 462.682 182.172 463.381ZM188.964 471V461.182H190.422V462.716H190.549C190.754 462.192 191.084 461.785 191.54 461.495C191.996 461.201 192.544 461.054 193.183 461.054C193.831 461.054 194.37 461.201 194.8 461.495C195.235 461.785 195.574 462.192 195.816 462.716H195.919C196.17 462.209 196.547 461.806 197.05 461.508C197.553 461.205 198.156 461.054 198.859 461.054C199.737 461.054 200.455 461.329 201.013 461.879C201.571 462.424 201.851 463.274 201.851 464.429V471H200.342V464.429C200.342 463.705 200.144 463.187 199.748 462.876C199.351 462.565 198.885 462.409 198.348 462.409C197.657 462.409 197.123 462.618 196.743 463.036C196.364 463.449 196.174 463.973 196.174 464.608V471H194.64V464.276C194.64 463.717 194.459 463.268 194.097 462.927C193.735 462.582 193.268 462.409 192.697 462.409C192.305 462.409 191.939 462.513 191.598 462.722C191.261 462.931 190.988 463.221 190.78 463.592C190.575 463.958 190.473 464.382 190.473 464.864V471H188.964ZM208.237 471.205C207.351 471.205 206.573 470.994 205.904 470.572C205.239 470.15 204.72 469.56 204.345 468.801C203.974 468.043 203.788 467.156 203.788 466.142C203.788 465.119 203.974 464.227 204.345 463.464C204.72 462.701 205.239 462.109 205.904 461.687C206.573 461.265 207.351 461.054 208.237 461.054C209.124 461.054 209.899 461.265 210.564 461.687C211.233 462.109 211.753 462.701 212.124 463.464C212.499 464.227 212.686 465.119 212.686 466.142C212.686 467.156 212.499 468.043 212.124 468.801C211.753 469.56 211.233 470.15 210.564 470.572C209.899 470.994 209.124 471.205 208.237 471.205ZM208.237 469.849C208.911 469.849 209.465 469.677 209.899 469.332C210.334 468.987 210.656 468.533 210.864 467.97C211.073 467.408 211.178 466.798 211.178 466.142C211.178 465.486 211.073 464.874 210.864 464.308C210.656 463.741 210.334 463.283 209.899 462.933C209.465 462.584 208.911 462.409 208.237 462.409C207.564 462.409 207.01 462.584 206.575 462.933C206.141 463.283 205.819 463.741 205.61 464.308C205.401 464.874 205.297 465.486 205.297 466.142C205.297 466.798 205.401 467.408 205.61 467.97C205.819 468.533 206.141 468.987 206.575 469.332C207.01 469.677 207.564 469.849 208.237 469.849ZM216.137 465.094V471H214.629V461.182H216.086V462.716H216.214C216.444 462.217 216.794 461.817 217.262 461.514C217.731 461.207 218.336 461.054 219.078 461.054C219.743 461.054 220.324 461.19 220.823 461.463C221.321 461.732 221.709 462.141 221.986 462.69C222.263 463.236 222.402 463.926 222.402 464.761V471H220.893V464.864C220.893 464.092 220.693 463.491 220.292 463.061C219.892 462.626 219.342 462.409 218.643 462.409C218.162 462.409 217.731 462.513 217.352 462.722C216.977 462.931 216.681 463.236 216.463 463.636C216.246 464.037 216.137 464.523 216.137 465.094ZM224.798 471V461.182H226.307V471H224.798ZM225.565 459.545C225.271 459.545 225.018 459.445 224.805 459.245C224.596 459.045 224.491 458.804 224.491 458.523C224.491 458.241 224.596 458.001 224.805 457.8C225.018 457.6 225.271 457.5 225.565 457.5C225.859 457.5 226.111 457.6 226.32 457.8C226.533 458.001 226.639 458.241 226.639 458.523C226.639 458.804 226.533 459.045 226.32 459.245C226.111 459.445 225.859 459.545 225.565 459.545ZM232.98 461.182V462.46H227.892V461.182H232.98ZM229.375 458.83H230.883V468.188C230.883 468.614 230.945 468.933 231.068 469.146C231.196 469.355 231.358 469.496 231.554 469.568C231.754 469.636 231.965 469.67 232.187 469.67C232.353 469.67 232.49 469.662 232.596 469.645C232.703 469.624 232.788 469.607 232.852 469.594L233.159 470.949C233.056 470.987 232.914 471.026 232.73 471.064C232.547 471.107 232.315 471.128 232.034 471.128C231.607 471.128 231.19 471.036 230.781 470.853C230.376 470.67 230.039 470.391 229.771 470.016C229.507 469.641 229.375 469.168 229.375 468.597V458.83ZM238.772 471.205C237.886 471.205 237.108 470.994 236.439 470.572C235.774 470.15 235.254 469.56 234.879 468.801C234.508 468.043 234.323 467.156 234.323 466.142C234.323 465.119 234.508 464.227 234.879 463.464C235.254 462.701 235.774 462.109 236.439 461.687C237.108 461.265 237.886 461.054 238.772 461.054C239.658 461.054 240.434 461.265 241.099 461.687C241.768 462.109 242.288 462.701 242.658 463.464C243.033 464.227 243.221 465.119 243.221 466.142C243.221 467.156 243.033 468.043 242.658 468.801C242.288 469.56 241.768 470.15 241.099 470.572C240.434 470.994 239.658 471.205 238.772 471.205ZM238.772 469.849C239.445 469.849 239.999 469.677 240.434 469.332C240.869 468.987 241.19 468.533 241.399 467.97C241.608 467.408 241.712 466.798 241.712 466.142C241.712 465.486 241.608 464.874 241.399 464.308C241.19 463.741 240.869 463.283 240.434 462.933C239.999 462.584 239.445 462.409 238.772 462.409C238.099 462.409 237.545 462.584 237.11 462.933C236.675 463.283 236.354 463.741 236.145 464.308C235.936 464.874 235.832 465.486 235.832 466.142C235.832 466.798 235.936 467.408 236.145 467.97C236.354 468.533 236.675 468.987 237.11 469.332C237.545 469.677 238.099 469.849 238.772 469.849ZM245.164 471V461.182H246.621V462.665H246.723C246.902 462.179 247.226 461.785 247.695 461.482C248.164 461.18 248.692 461.028 249.28 461.028C249.391 461.028 249.529 461.031 249.696 461.035C249.862 461.039 249.987 461.045 250.073 461.054V462.588C250.022 462.575 249.904 462.556 249.721 462.531C249.542 462.501 249.353 462.486 249.152 462.486C248.675 462.486 248.249 462.586 247.874 462.786C247.503 462.982 247.209 463.255 246.992 463.604C246.779 463.95 246.672 464.344 246.672 464.787V471H245.164ZM257.175 474.682C256.919 474.682 256.691 474.661 256.491 474.618C256.291 474.58 256.152 474.541 256.076 474.503L256.459 473.173C256.826 473.267 257.149 473.301 257.431 473.276C257.712 473.25 257.961 473.124 258.178 472.898C258.4 472.677 258.602 472.317 258.786 471.818L259.067 471.051L255.436 461.182H257.073L259.783 469.006H259.885L262.595 461.182H264.232L260.064 472.432C259.877 472.939 259.644 473.359 259.367 473.691C259.09 474.028 258.769 474.277 258.402 474.439C258.04 474.601 257.631 474.682 257.175 474.682ZM269.5 471.205C268.614 471.205 267.836 470.994 267.167 470.572C266.502 470.15 265.982 469.56 265.607 468.801C265.236 468.043 265.051 467.156 265.051 466.142C265.051 465.119 265.236 464.227 265.607 463.464C265.982 462.701 266.502 462.109 267.167 461.687C267.836 461.265 268.614 461.054 269.5 461.054C270.386 461.054 271.162 461.265 271.827 461.687C272.496 462.109 273.016 462.701 273.386 463.464C273.761 464.227 273.949 465.119 273.949 466.142C273.949 467.156 273.761 468.043 273.386 468.801C273.016 469.56 272.496 470.15 271.827 470.572C271.162 470.994 270.386 471.205 269.5 471.205ZM269.5 469.849C270.173 469.849 270.727 469.677 271.162 469.332C271.597 468.987 271.918 468.533 272.127 467.97C272.336 467.408 272.44 466.798 272.44 466.142C272.44 465.486 272.336 464.874 272.127 464.308C271.918 463.741 271.597 463.283 271.162 462.933C270.727 462.584 270.173 462.409 269.5 462.409C268.827 462.409 268.273 462.584 267.838 462.933C267.403 463.283 267.082 463.741 266.873 464.308C266.664 464.874 266.56 465.486 266.56 466.142C266.56 466.798 266.664 467.408 266.873 467.97C267.082 468.533 267.403 468.987 267.838 469.332C268.273 469.677 268.827 469.849 269.5 469.849ZM282.079 466.986V461.182H283.588V471H282.079V469.338H281.977C281.747 469.837 281.389 470.261 280.903 470.61C280.417 470.955 279.803 471.128 279.062 471.128C278.448 471.128 277.903 470.994 277.426 470.725C276.948 470.452 276.573 470.043 276.301 469.498C276.028 468.948 275.892 468.256 275.892 467.42V461.182H277.4V467.318C277.4 468.034 277.6 468.605 278.001 469.031C278.406 469.457 278.921 469.67 279.548 469.67C279.923 469.67 280.304 469.575 280.692 469.383C281.084 469.191 281.412 468.897 281.676 468.501C281.945 468.104 282.079 467.599 282.079 466.986ZM285.991 471V461.182H287.448V462.665H287.55C287.729 462.179 288.053 461.785 288.522 461.482C288.991 461.18 289.519 461.028 290.107 461.028C290.218 461.028 290.356 461.031 290.523 461.035C290.689 461.039 290.814 461.045 290.9 461.054V462.588C290.848 462.575 290.731 462.556 290.548 462.531C290.369 462.501 290.179 462.486 289.979 462.486C289.502 462.486 289.076 462.586 288.701 462.786C288.33 462.982 288.036 463.255 287.819 463.604C287.606 463.95 287.499 464.344 287.499 464.787V471H285.991ZM303.985 463.381L302.63 463.764C302.544 463.538 302.419 463.319 302.253 463.106C302.091 462.888 301.869 462.71 301.588 462.569C301.307 462.428 300.946 462.358 300.508 462.358C299.907 462.358 299.406 462.496 299.005 462.773C298.609 463.046 298.411 463.393 298.411 463.815C298.411 464.19 298.547 464.487 298.82 464.704C299.093 464.921 299.519 465.102 300.098 465.247L301.556 465.605C302.434 465.818 303.088 466.144 303.518 466.583C303.949 467.018 304.164 467.578 304.164 468.264C304.164 468.827 304.002 469.33 303.678 469.773C303.358 470.216 302.911 470.565 302.336 470.821C301.76 471.077 301.091 471.205 300.329 471.205C299.327 471.205 298.498 470.987 297.842 470.553C297.186 470.118 296.77 469.483 296.596 468.648L298.027 468.29C298.164 468.818 298.422 469.214 298.801 469.479C299.184 469.743 299.685 469.875 300.303 469.875C301.006 469.875 301.564 469.726 301.978 469.428C302.395 469.125 302.604 468.763 302.604 468.341C302.604 468 302.485 467.714 302.246 467.484C302.008 467.25 301.641 467.075 301.147 466.96L299.51 466.577C298.611 466.364 297.951 466.033 297.529 465.586C297.111 465.134 296.902 464.57 296.902 463.892C296.902 463.338 297.058 462.848 297.369 462.422C297.684 461.996 298.113 461.661 298.654 461.418C299.199 461.175 299.817 461.054 300.508 461.054C301.479 461.054 302.242 461.267 302.796 461.693C303.354 462.119 303.75 462.682 303.985 463.381ZM307.046 474.682C306.79 474.682 306.563 474.661 306.362 474.618C306.162 474.58 306.023 474.541 305.947 474.503L306.33 473.173C306.697 473.267 307.021 473.301 307.302 473.276C307.583 473.25 307.832 473.124 308.05 472.898C308.271 472.677 308.474 472.317 308.657 471.818L308.938 471.051L305.308 461.182H306.944L309.654 469.006H309.756L312.467 461.182H314.103L309.935 472.432C309.748 472.939 309.516 473.359 309.239 473.691C308.962 474.028 308.64 474.277 308.273 474.439C307.911 474.601 307.502 474.682 307.046 474.682ZM322.689 463.381L321.334 463.764C321.248 463.538 321.123 463.319 320.956 463.106C320.795 462.888 320.573 462.71 320.292 462.569C320.01 462.428 319.65 462.358 319.211 462.358C318.611 462.358 318.11 462.496 317.709 462.773C317.313 463.046 317.115 463.393 317.115 463.815C317.115 464.19 317.251 464.487 317.524 464.704C317.797 464.921 318.223 465.102 318.802 465.247L320.26 465.605C321.138 465.818 321.792 466.144 322.222 466.583C322.652 467.018 322.868 467.578 322.868 468.264C322.868 468.827 322.706 469.33 322.382 469.773C322.062 470.216 321.615 470.565 321.04 470.821C320.464 471.077 319.795 471.205 319.032 471.205C318.031 471.205 317.202 470.987 316.546 470.553C315.89 470.118 315.474 469.483 315.299 468.648L316.731 468.29C316.868 468.818 317.125 469.214 317.505 469.479C317.888 469.743 318.389 469.875 319.007 469.875C319.71 469.875 320.268 469.726 320.682 469.428C321.099 469.125 321.308 468.763 321.308 468.341C321.308 468 321.189 467.714 320.95 467.484C320.711 467.25 320.345 467.075 319.851 466.96L318.214 466.577C317.315 466.364 316.655 466.033 316.233 465.586C315.815 465.134 315.606 464.57 315.606 463.892C315.606 463.338 315.762 462.848 316.073 462.422C316.388 461.996 316.817 461.661 317.358 461.418C317.903 461.175 318.521 461.054 319.211 461.054C320.183 461.054 320.946 461.267 321.5 461.693C322.058 462.119 322.454 462.682 322.689 463.381ZM329.048 461.182V462.46H323.96V461.182H329.048ZM325.443 458.83H326.952V468.188C326.952 468.614 327.014 468.933 327.137 469.146C327.265 469.355 327.427 469.496 327.623 469.568C327.823 469.636 328.034 469.67 328.256 469.67C328.422 469.67 328.558 469.662 328.665 469.645C328.771 469.624 328.857 469.607 328.92 469.594L329.227 470.949C329.125 470.987 328.982 471.026 328.799 471.064C328.616 471.107 328.384 471.128 328.102 471.128C327.676 471.128 327.259 471.036 326.849 470.853C326.445 470.67 326.108 470.391 325.839 470.016C325.575 469.641 325.443 469.168 325.443 468.597V458.83ZM334.968 471.205C334.022 471.205 333.206 470.996 332.52 470.578C331.839 470.156 331.312 469.568 330.941 468.814C330.575 468.055 330.392 467.173 330.392 466.168C330.392 465.162 330.575 464.276 330.941 463.509C331.312 462.737 331.828 462.136 332.488 461.706C333.153 461.271 333.929 461.054 334.815 461.054C335.326 461.054 335.831 461.139 336.33 461.31C336.829 461.48 337.282 461.757 337.691 462.141C338.101 462.52 338.427 463.023 338.669 463.649C338.912 464.276 339.034 465.047 339.034 465.963V466.602H331.466V465.298H337.5C337.5 464.744 337.389 464.25 337.167 463.815C336.95 463.381 336.639 463.038 336.234 462.786C335.834 462.535 335.361 462.409 334.815 462.409C334.214 462.409 333.694 462.558 333.255 462.857C332.821 463.151 332.486 463.534 332.252 464.007C332.017 464.48 331.9 464.987 331.9 465.528V466.398C331.9 467.139 332.028 467.768 332.284 468.283C332.544 468.795 332.904 469.185 333.364 469.453C333.824 469.717 334.359 469.849 334.968 469.849C335.365 469.849 335.723 469.794 336.042 469.683C336.366 469.568 336.645 469.398 336.88 469.172C337.114 468.942 337.295 468.656 337.423 468.315L338.88 468.724C338.727 469.219 338.469 469.653 338.107 470.028C337.745 470.399 337.297 470.689 336.765 470.898C336.232 471.102 335.633 471.205 334.968 471.205ZM340.969 471V461.182H342.426V462.716H342.554C342.758 462.192 343.089 461.785 343.545 461.495C344.001 461.201 344.548 461.054 345.187 461.054C345.835 461.054 346.374 461.201 346.805 461.495C347.239 461.785 347.578 462.192 347.821 462.716H347.923C348.175 462.209 348.552 461.806 349.055 461.508C349.557 461.205 350.16 461.054 350.863 461.054C351.741 461.054 352.459 461.329 353.018 461.879C353.576 462.424 353.855 463.274 353.855 464.429V471H352.346V464.429C352.346 463.705 352.148 463.187 351.752 462.876C351.356 462.565 350.889 462.409 350.352 462.409C349.662 462.409 349.127 462.618 348.748 463.036C348.368 463.449 348.179 463.973 348.179 464.608V471H346.645V464.276C346.645 463.717 346.464 463.268 346.101 462.927C345.739 462.582 345.273 462.409 344.702 462.409C344.309 462.409 343.943 462.513 343.602 462.722C343.265 462.931 342.993 463.221 342.784 463.592C342.579 463.958 342.477 464.382 342.477 464.864V471H340.969Z" fill="#24459C"/>
<rect opacity="0.45" x="193.999" y="600" width="12" height="12" rx="4.2" fill="#C9B7B7"/>
<rect opacity="0.45" x="213.999" y="600" width="12" height="12" rx="4.2" fill="#C9B7B7"/>
<rect x="233.999" y="600" width="12" height="12" rx="4.2" fill="#24459C"/>
<rect opacity="0.45" x="253.999" y="600" width="12" height="12" rx="4.2" fill="#C9B7B7"/>
<rect opacity="0.45" x="273.999" y="600" width="12" height="12" rx="4.2" fill="#C9B7B7"/>
<defs>
<linearGradient id="paint0_linear_4553_94173" x1="399.684" y1="310.414" x2="210.909" y2="109.461" gradientUnits="userSpaceOnUse">
<stop stop-color="#DAE3FE"/>
<stop offset="1" stop-color="#E9EFFD"/>
</linearGradient>
<linearGradient id="paint1_linear_4553_94173" x1="258.56" y1="198.807" x2="231.77" y2="312.837" gradientUnits="userSpaceOnUse">
<stop stop-color="#09005D"/>
<stop offset="1" stop-color="#1A0F91"/>
</linearGradient>
<linearGradient id="paint2_linear_4553_94173" x1="245.264" y1="10.5486" x2="236.335" y2="223.494" gradientUnits="userSpaceOnUse">
<stop stop-color="#09005D"/>
<stop offset="1" stop-color="#1A0F91"/>
</linearGradient>
<linearGradient id="paint3_linear_4553_94173" x1="244.479" y1="184.653" x2="245.853" y2="268.457" gradientUnits="userSpaceOnUse">
<stop stop-color="#09005D"/>
<stop offset="1" stop-color="#1A0F91"/>
</linearGradient>
<linearGradient id="paint4_linear_4553_94173" x1="255.548" y1="148.853" x2="284.056" y2="93.2121" gradientUnits="userSpaceOnUse">
<stop stop-color="#4F52FF"/>
<stop offset="1" stop-color="#4042E2"/>
</linearGradient>
<linearGradient id="paint5_linear_4553_94173" x1="268.165" y1="155.322" x2="296.673" y2="99.6809" gradientUnits="userSpaceOnUse">
<stop stop-color="#4F52FF"/>
<stop offset="1" stop-color="#4042E2"/>
</linearGradient>
<linearGradient id="paint6_linear_4553_94173" x1="266.45" y1="154.441" x2="294.958" y2="98.8001" gradientUnits="userSpaceOnUse">
<stop stop-color="#4F52FF"/>
<stop offset="1" stop-color="#4042E2"/>
</linearGradient>
<linearGradient id="paint7_linear_4553_94173" x1="288.681" y1="165.829" x2="317.189" y2="110.189" gradientUnits="userSpaceOnUse">
<stop stop-color="#4F52FF"/>
<stop offset="1" stop-color="#4042E2"/>
</linearGradient>
<linearGradient id="paint8_linear_4553_94173" x1="285.846" y1="164.374" x2="314.353" y2="108.733" gradientUnits="userSpaceOnUse">
<stop stop-color="#4F52FF"/>
<stop offset="1" stop-color="#4042E2"/>
</linearGradient>
<linearGradient id="paint9_linear_4553_94173" x1="297.047" y1="170.117" x2="325.554" y2="114.476" gradientUnits="userSpaceOnUse">
<stop stop-color="#4F52FF"/>
<stop offset="1" stop-color="#4042E2"/>
</linearGradient>
<linearGradient id="paint10_linear_4553_94173" x1="308.485" y1="175.974" x2="336.992" y2="120.333" gradientUnits="userSpaceOnUse">
<stop stop-color="#4F52FF"/>
<stop offset="1" stop-color="#4042E2"/>
</linearGradient>
<linearGradient id="paint11_linear_4553_94173" x1="202.967" y1="5.66138" x2="116.758" y2="133.429" gradientUnits="userSpaceOnUse">
<stop stop-color="#FF928E"/>
<stop offset="1" stop-color="#FE7062"/>
</linearGradient>
<linearGradient id="paint12_linear_4553_94173" x1="227.311" y1="22.0875" x2="141.102" y2="149.855" gradientUnits="userSpaceOnUse">
<stop stop-color="#FF928E"/>
<stop offset="1" stop-color="#FE7062"/>
</linearGradient>
<linearGradient id="paint13_linear_4553_94173" x1="257.437" y1="42.4096" x2="171.228" y2="170.177" gradientUnits="userSpaceOnUse">
<stop stop-color="#FF928E"/>
<stop offset="1" stop-color="#FE7062"/>
</linearGradient>
<linearGradient id="paint14_linear_4553_94173" x1="144.858" y1="150.925" x2="133.008" y2="186.75" gradientUnits="userSpaceOnUse">
<stop stop-color="#FEBBBA"/>
<stop offset="1" stop-color="#FF928E"/>
</linearGradient>
<linearGradient id="paint15_linear_4553_94173" x1="153.206" y1="165.274" x2="145.4" y2="188.874" gradientUnits="userSpaceOnUse">
<stop stop-color="#FEBBBA"/>
<stop offset="1" stop-color="#FF928E"/>
</linearGradient>
<linearGradient id="paint16_linear_4553_94173" x1="165.747" y1="152.398" x2="157.94" y2="175.998" gradientUnits="userSpaceOnUse">
<stop stop-color="#FEBBBA"/>
<stop offset="1" stop-color="#FF928E"/>
</linearGradient>
<linearGradient id="paint17_linear_4553_94173" x1="178.404" y1="165.687" x2="170.598" y2="189.287" gradientUnits="userSpaceOnUse">
<stop stop-color="#FEBBBA"/>
<stop offset="1" stop-color="#FF928E"/>
</linearGradient>
<linearGradient id="paint18_linear_4553_94173" x1="196.833" y1="145.883" x2="189.027" y2="169.483" gradientUnits="userSpaceOnUse">
<stop stop-color="#FEBBBA"/>
<stop offset="1" stop-color="#FF928E"/>
</linearGradient>
<linearGradient id="paint19_linear_4553_94173" x1="209.933" y1="159.093" x2="202.127" y2="182.693" gradientUnits="userSpaceOnUse">
<stop stop-color="#4F52FF"/>
<stop offset="1" stop-color="#4042E2"/>
</linearGradient>
<linearGradient id="paint20_linear_4553_94173" x1="328.418" y1="138.459" x2="353.773" y2="138.459" gradientUnits="userSpaceOnUse">
<stop stop-color="#DAE3FE"/>
<stop offset="1" stop-color="#E9EFFD"/>
</linearGradient>
<linearGradient id="paint21_linear_4553_94173" x1="328.363" y1="97.7088" x2="353.718" y2="97.7088" gradientUnits="userSpaceOnUse">
<stop stop-color="#DAE3FE"/>
<stop offset="1" stop-color="#E9EFFD"/>
</linearGradient>
<linearGradient id="paint22_linear_4553_94173" x1="355.805" y1="165.66" x2="316.568" y2="202.897" gradientUnits="userSpaceOnUse">
<stop stop-color="#FDF53F"/>
<stop offset="1" stop-color="#D93C65"/>
</linearGradient>
<linearGradient id="paint23_linear_4553_94173" x1="328.814" y1="266.547" x2="381.645" y2="324.013" gradientUnits="userSpaceOnUse">
<stop stop-color="#09005D"/>
<stop offset="1" stop-color="#1A0F91"/>
</linearGradient>
<linearGradient id="paint24_linear_4553_94173" x1="345.962" y1="270.816" x2="341.269" y2="270.816" gradientUnits="userSpaceOnUse">
<stop stop-color="#FEBBBA"/>
<stop offset="1" stop-color="#FF928E"/>
</linearGradient>
<linearGradient id="paint25_linear_4553_94173" x1="357.089" y1="234.932" x2="341.573" y2="234.932" gradientUnits="userSpaceOnUse">
<stop stop-color="#4F52FF"/>
<stop offset="1" stop-color="#4042E2"/>
</linearGradient>
<linearGradient id="paint26_linear_4553_94173" x1="340.666" y1="255.652" x2="393.497" y2="313.118" gradientUnits="userSpaceOnUse">
<stop stop-color="#09005D"/>
<stop offset="1" stop-color="#1A0F91"/>
</linearGradient>
<linearGradient id="paint27_linear_4553_94173" x1="362.875" y1="270.574" x2="358.823" y2="270.574" gradientUnits="userSpaceOnUse">
<stop stop-color="#FEBBBA"/>
<stop offset="1" stop-color="#FF928E"/>
</linearGradient>
<linearGradient id="paint28_linear_4553_94173" x1="316.546" y1="332.725" x2="413.581" y2="282.269" gradientUnits="userSpaceOnUse">
<stop stop-color="#4F52FF"/>
<stop offset="1" stop-color="#4042E2"/>
</linearGradient>
<linearGradient id="paint29_linear_4553_94173" x1="21.4165" y1="364.727" x2="78.3787" y2="306.976" gradientUnits="userSpaceOnUse">
<stop stop-color="#FF928E"/>
<stop offset="1" stop-color="#FE7062"/>
</linearGradient>
<linearGradient id="paint30_linear_4553_94173" x1="326.651" y1="148.392" x2="302.677" y2="148.392" gradientUnits="userSpaceOnUse">
<stop stop-color="#FEBBBA"/>
<stop offset="1" stop-color="#FF928E"/>
</linearGradient>
<linearGradient id="paint31_linear_4553_94173" x1="308.018" y1="144.37" x2="324.105" y2="180.973" gradientUnits="userSpaceOnUse">
<stop stop-color="#FEBBBA"/>
<stop offset="1" stop-color="#FF928E"/>
</linearGradient>
<linearGradient id="paint32_linear_4553_94173" x1="302.792" y1="132.182" x2="296.079" y2="121.862" gradientUnits="userSpaceOnUse">
<stop stop-color="#FEBBBA"/>
<stop offset="1" stop-color="#FF928E"/>
</linearGradient>
<linearGradient id="paint33_linear_4553_94173" x1="241.145" y1="240.143" x2="263.408" y2="217.153" gradientUnits="userSpaceOnUse">
<stop stop-color="#FF928E"/>
<stop offset="1" stop-color="#FE7062"/>
</linearGradient>
<linearGradient id="paint34_linear_4553_94173" x1="379.112" y1="182.347" x2="348.772" y2="182.347" gradientUnits="userSpaceOnUse">
<stop stop-color="#FEBBBA"/>
<stop offset="1" stop-color="#FF928E"/>
</linearGradient>
<linearGradient id="paint35_linear_4553_94173" x1="339.594" y1="160.773" x2="322.911" y2="230.285" gradientUnits="userSpaceOnUse">
<stop stop-color="#09005D"/>
<stop offset="1" stop-color="#1A0F91"/>
</linearGradient>
<linearGradient id="paint36_linear_4553_94173" x1="329.148" y1="149.818" x2="332.701" y2="165.42" gradientUnits="userSpaceOnUse">
<stop stop-color="#4F52FF"/>
<stop offset="1" stop-color="#4042E2"/>
</linearGradient>
<linearGradient id="paint37_linear_4553_94173" x1="331.008" y1="156.359" x2="332.708" y2="166.555" gradientUnits="userSpaceOnUse">
<stop stop-color="#4F52FF"/>
<stop offset="1" stop-color="#4042E2"/>
</linearGradient>
<linearGradient id="paint38_linear_4553_94173" x1="351.025" y1="179.161" x2="341.573" y2="179.161" gradientUnits="userSpaceOnUse">
<stop stop-color="#FEBBBA"/>
<stop offset="1" stop-color="#FF928E"/>
</linearGradient>
<linearGradient id="paint39_linear_4553_94173" x1="355.816" y1="149.914" x2="343.82" y2="149.914" gradientUnits="userSpaceOnUse">
<stop stop-color="#FEBBBA"/>
<stop offset="1" stop-color="#FF928E"/>
</linearGradient>
<linearGradient id="paint40_linear_4553_94173" x1="339.08" y1="139.251" x2="358.123" y2="153.822" gradientUnits="userSpaceOnUse">
<stop stop-color="#FEBBBA"/>
<stop offset="1" stop-color="#FF928E"/>
</linearGradient>
<linearGradient id="paint41_linear_4553_94173" x1="359.116" y1="135.854" x2="335.463" y2="135.854" gradientUnits="userSpaceOnUse">
<stop stop-color="#09005D"/>
<stop offset="1" stop-color="#1A0F91"/>
</linearGradient>
<linearGradient id="paint42_linear_4553_94173" x1="341.442" y1="136.167" x2="360.485" y2="150.738" gradientUnits="userSpaceOnUse">
<stop stop-color="#FEBBBA"/>
<stop offset="1" stop-color="#FF928E"/>
</linearGradient>
<clipPath id="clip0_4553_94173">
<rect width="283.571" height="280" fill="white" transform="translate(98.2136)"/>
</clipPath>
</defs>
</svg>
