<svg width="17" height="17" viewBox="0 0 17 17" fill="none" xmlns="http://www.w3.org/2000/svg">
<g id="Apple">
<path id="Vector" d="M14.739 5.59948C14.6462 5.67148 13.0077 6.59478 13.0077 8.64778C13.0077 11.0224 15.0927 11.8625 15.1551 11.8833C15.1455 11.9345 14.8238 13.0338 14.0558 14.1539C13.3709 15.1396 12.6556 16.1237 11.5675 16.1237C10.4794 16.1237 10.1994 15.4917 8.94326 15.4917C7.71913 15.4917 7.28389 16.1445 6.28859 16.1445C5.29329 16.1445 4.59882 15.2324 3.80034 14.1123C2.87545 12.797 2.12817 10.7536 2.12817 8.8142C2.12817 5.70349 4.15078 4.05372 6.14138 4.05372C7.19908 4.05372 8.08077 4.74819 8.74484 4.74819C9.3769 4.74819 10.3626 4.01212 11.5659 4.01212C12.022 4.01212 13.6605 4.05372 14.739 5.59948ZM10.9947 2.69519C11.4923 2.10473 11.8443 1.28545 11.8443 0.466163C11.8443 0.352552 11.8347 0.237341 11.8139 0.144531C11.0043 0.174934 10.041 0.683785 9.46011 1.35745C9.00406 1.8759 8.57842 2.69519 8.57842 3.52567C8.57842 3.65048 8.59922 3.77529 8.60882 3.8153C8.66003 3.8249 8.74324 3.8361 8.82644 3.8361C9.55292 3.8361 10.4666 3.34965 10.9947 2.69519Z" fill="black"/>
</g>
</svg>
