<svg width="17" height="17" viewBox="0 0 17 17" fill="none" xmlns="http://www.w3.org/2000/svg">
<g id="Frame 9">
<g id="Group 1478">
<g id="Group">
<path id="Vector" d="M16.6416 8.32584C16.6416 7.79917 16.5939 7.29917 16.5122 6.8125H8.81531V9.81919H13.2223C13.0247 10.8059 12.4458 11.6392 11.5875 12.2059V14.2059H14.2167C15.7561 12.8125 16.6416 10.7592 16.6416 8.32584Z" fill="#4285F4"/>
<path id="Vector_2" d="M8.81464 16.1453C11.0215 16.1453 12.8674 15.4253 14.2161 14.2052L11.5869 12.2052C10.8512 12.6852 9.91809 12.9786 8.81464 12.9786C6.68268 12.9786 4.87767 11.5719 4.23058 9.67188H1.51965V11.7319C2.8615 14.3452 5.62011 16.1453 8.81464 16.1453Z" fill="#34A853"/>
<path id="Vector_3" d="M4.2312 9.66806C4.06092 9.18805 3.97237 8.67472 3.97237 8.14138C3.97237 7.60804 4.06773 7.09471 4.2312 6.6147V4.55469H1.52027C0.961736 5.6347 0.641602 6.84804 0.641602 8.14138C0.641602 9.43472 0.961736 10.6481 1.52027 11.7281L4.2312 9.66806Z" fill="#FBBC05"/>
<path id="Vector_4" d="M8.81464 3.31122C10.0203 3.31122 11.0965 3.71789 11.9479 4.51123L14.2774 2.23121C12.8674 0.937871 11.0215 0.144531 8.81464 0.144531C5.62011 0.144531 2.8615 1.94455 1.51965 4.5579L4.23058 6.61792C4.87767 4.7179 6.68268 3.31122 8.81464 3.31122Z" fill="#EA4335"/>
</g>
</g>
</g>
</svg>
