<svg width="36" height="25" viewBox="0 0 36 25" fill="none" xmlns="http://www.w3.org/2000/svg">
<g id="Group 2783">
<path id="Vector" d="M0 0.265625H36V24.2656H0V0.265625Z" fill="white"/>
<g id="Group">
<path id="Vector_2" d="M0 0.265625H36V2.11124H0V0.265625ZM0 3.95685H36V5.80247H0V3.95685ZM0 7.64808H36V9.4937H0V7.64808ZM0 11.3393H36V13.1849H0V11.3393ZM0 15.0376H36V16.8832H0V15.0376ZM0 18.7288H36V20.5744H0V18.7288ZM0 22.42H36V24.2656H0V22.42Z" fill="#D80027"/>
</g>
<path id="Vector_3" d="M0 0.265625H18V13.1849H0V0.265625Z" fill="#2E52B2"/>
<g id="Group_2">
<path id="Vector_4" d="M3.35438 10.014L3.07368 9.11579L2.76491 10.014H1.83859L2.58947 10.5544L2.30877 11.4526L3.07368 10.8982L3.81754 11.4526L3.52982 10.5544L4.29473 10.014H3.35438ZM7.30526 10.014L7.01754 9.11579L6.7228 10.014H5.79649L6.54736 10.5544L6.26666 11.4526L7.01754 10.8982L7.77543 11.4526L7.49473 10.5544L8.24561 10.014H7.30526ZM11.2702 10.014L10.9684 9.11579L10.6877 10.014H9.74035L10.5123 10.5544L10.2175 11.4526L10.9684 10.8982L11.7403 11.4526L11.4456 10.5544L12.1965 10.014H11.2702ZM15.214 10.014L14.9333 9.11579L14.6386 10.014H13.7053L14.4632 10.5544L14.1825 11.4526L14.9333 10.8982L15.6912 11.4526L15.3895 10.5544L16.1614 10.014H15.214ZM7.01754 5.55088L6.7228 6.44912H5.79649L6.54736 7.00351L6.26666 7.88772L7.01754 7.34035L7.77543 7.88772L7.49473 7.00351L8.24561 6.44912H7.30526L7.01754 5.55088ZM3.07368 5.55088L2.76491 6.44912H1.83859L2.58947 7.00351L2.30877 7.88772L3.07368 7.34035L3.81754 7.88772L3.52982 7.00351L4.29473 6.44912H3.35438L3.07368 5.55088ZM10.9684 5.55088L10.6877 6.44912H9.74035L10.5123 7.00351L10.2175 7.88772L10.9684 7.34035L11.7403 7.88772L11.4456 7.00351L12.1965 6.44912H11.2702L10.9684 5.55088ZM14.9333 5.55088L14.6386 6.44912H13.7053L14.4632 7.00351L14.1825 7.88772L14.9333 7.34035L15.6912 7.88772L15.3895 7.00351L16.1614 6.44912H15.214L14.9333 5.55088ZM3.07368 2L2.76491 2.88421H1.83859L2.58947 3.4386L2.30877 4.32982L3.07368 3.77544L3.81754 4.32982L3.52982 3.4386L4.29473 2.88421H3.35438L3.07368 2ZM7.01754 2L6.7228 2.88421H5.79649L6.54736 3.4386L6.26666 4.32982L7.01754 3.77544L7.77543 4.32982L7.49473 3.4386L8.24561 2.88421H7.30526L7.01754 2ZM10.9684 2L10.6877 2.88421H9.74035L10.5123 3.4386L10.2175 4.32982L10.9684 3.77544L11.7403 4.32982L11.4456 3.4386L12.1965 2.88421H11.2702L10.9684 2ZM14.9333 2L14.6386 2.88421H13.7053L14.4632 3.4386L14.1825 4.32982L14.9333 3.77544L15.6912 4.32982L15.3895 3.4386L16.1614 2.88421H15.214L14.9333 2Z" fill="white"/>
</g>
</g>
</svg>
