<svg width="284" height="280" viewBox="0 0 284 280" fill="none" xmlns="http://www.w3.org/2000/svg">
<g clip-path="url(#clip0_4553_94174)">
<path d="M244.8 229.842C227.876 247.695 205.415 260.787 178.47 266.073C116.427 278.243 32.5637 259.692 13.6777 191.286C2.16669 149.593 10.2267 100.829 33.8707 64.704C59.8587 24.997 106.776 -1.79603 154.793 0.0939746C201.774 1.94297 247.822 38.926 267.285 80.06C291.829 131.931 280.926 191.733 244.8 229.842Z" fill="url(#paint0_linear_4553_94174)"/>
<g opacity="0.3">
<path d="M80.4066 29.0926C79.9266 29.3826 79.3036 29.2286 79.0136 28.7496C78.4506 27.8186 77.8386 26.8976 77.1946 26.0126C76.8686 25.5646 76.9626 24.9396 77.4026 24.6075C77.4076 24.6035 77.4126 24.5996 77.4186 24.5956C77.8716 24.2656 78.5056 24.3656 78.8356 24.8196C79.5136 25.7506 80.1576 26.7206 80.7506 27.7006C81.0216 28.1486 80.9046 28.7236 80.4956 29.0336C80.4676 29.0536 80.4376 29.0736 80.4066 29.0926ZM73.7656 21.9206C73.0076 21.1326 72.2086 20.3686 71.3906 19.6506C70.9696 19.2816 70.9276 18.6406 71.2966 18.2196C71.6686 17.7976 72.3076 17.7566 72.7286 18.1256C73.5896 18.8806 74.4306 19.6846 75.2286 20.5136C75.6166 20.9176 75.6046 21.5596 75.2006 21.9476C75.1716 21.9756 75.1406 22.0016 75.1086 22.0256C74.7036 22.3326 74.1256 22.2946 73.7656 21.9206ZM67.1436 16.4206C66.2316 15.8226 65.2826 15.2566 64.3216 14.7386C63.8286 14.4726 63.6446 13.8576 63.9096 13.3646C64.1756 12.8726 64.7906 12.6876 65.2836 12.9536C66.2946 13.4986 67.2946 14.0946 68.2546 14.7246C68.7226 15.0316 68.8536 15.6606 68.5466 16.1296C68.4806 16.2296 68.4006 16.3136 68.3106 16.3826C67.9796 16.6326 67.5116 16.6626 67.1436 16.4206ZM59.4576 12.5396C58.4336 12.1596 57.3816 11.8206 56.3296 11.5306C55.7896 11.3816 55.4726 10.8226 55.6216 10.2826C55.7716 9.74255 56.3296 9.42655 56.8696 9.57455C57.9766 9.88055 59.0846 10.2376 60.1626 10.6376C60.6876 10.8326 60.9556 11.4166 60.7616 11.9416C60.6916 12.1296 60.5726 12.2846 60.4236 12.3976C60.1556 12.5986 59.7946 12.6646 59.4576 12.5396ZM51.0986 10.4676C50.0186 10.3256 48.9166 10.2266 47.8246 10.1766C47.2646 10.1506 46.8326 9.67555 46.8586 9.11555C46.8846 8.55555 47.3596 8.12355 47.9196 8.14955C49.0686 8.20255 50.2276 8.30655 51.3646 8.45655C51.9196 8.52955 52.3106 9.03955 52.2376 9.59455C52.2006 9.87455 52.0526 10.1126 51.8446 10.2706C51.6386 10.4266 51.3746 10.5046 51.0986 10.4676ZM42.4896 10.2976C41.4036 10.3976 40.3076 10.5456 39.2336 10.7376C38.6826 10.8356 38.1546 10.4686 38.0566 9.91755C37.9576 9.36555 38.3246 8.83855 38.8766 8.74055C40.0076 8.53855 41.1606 8.38255 42.3036 8.27755C42.8616 8.22655 43.3556 8.63655 43.4066 9.19455C43.4396 9.55655 43.2786 9.89255 43.0076 10.0966C42.8626 10.2066 42.6856 10.2796 42.4896 10.2976ZM10.8196 30.6956C10.3266 30.4286 10.1436 29.8136 10.4106 29.3206C10.9566 28.3116 11.5556 27.3126 12.1876 26.3516C12.4956 25.8836 13.1246 25.7546 13.5926 26.0626C14.0606 26.3706 14.1896 26.9996 13.8816 27.4676C13.2806 28.3796 12.7126 29.3286 12.1946 30.2876C12.1236 30.4186 12.0276 30.5285 11.9156 30.6136C11.6086 30.8445 11.1806 30.8906 10.8196 30.6956ZM34.0626 12.0376C33.0266 12.3766 31.9916 12.7646 30.9886 13.1916C30.4726 13.4106 29.8766 13.1706 29.6576 12.6546C29.4386 12.1386 29.6796 11.5456 30.1946 11.3236C31.2516 10.8746 32.3406 10.4656 33.4316 10.1086C33.9636 9.93455 34.5366 10.2246 34.7116 10.7576C34.8496 11.1796 34.6956 11.6276 34.3596 11.8816C34.2726 11.9496 34.1726 12.0016 34.0626 12.0376ZM15.6896 23.3166C15.2696 22.9466 15.2286 22.3056 15.5986 21.8846C16.3566 21.0236 17.1626 20.1836 17.9926 19.3876C18.3956 18.9976 19.0396 19.0136 19.4266 19.4186C19.8146 19.8226 19.8006 20.4656 19.3956 20.8526C18.6066 21.6086 17.8406 22.4066 17.1206 23.2256C17.0746 23.2776 17.0246 23.3236 16.9706 23.3646C16.5956 23.6496 16.0576 23.6406 15.6896 23.3166ZM26.2366 15.6176C25.3026 16.1796 24.3806 16.7896 23.4966 17.4306C23.0426 17.7596 22.4086 17.6586 22.0796 17.2046C21.7556 16.7566 21.8496 16.1336 22.2886 15.8006C22.2946 15.7966 22.3006 15.7916 22.3056 15.7876C23.2366 15.1126 24.2066 14.4706 25.1896 13.8786C25.6696 13.5896 26.2936 13.7446 26.5816 14.2246C26.8516 14.6726 26.7336 15.2466 26.3256 15.5556C26.2976 15.5786 26.2676 15.5986 26.2366 15.6176Z" fill="#91B3FA"/>
<path d="M9.10563 37.1595C9.26463 37.0385 9.39063 36.8705 9.45663 36.6655C9.61863 36.1685 9.79363 35.6665 9.97663 35.1725C10.1716 34.6475 9.90463 34.0635 9.37863 33.8685C8.85363 33.6735 8.26863 33.9405 8.07463 34.4665C7.88163 34.9855 7.69763 35.5135 7.52663 36.0365C7.35263 36.5695 7.64463 37.1415 8.17663 37.3155C8.50663 37.4225 8.84963 37.3535 9.10563 37.1595Z" fill="#91B3FA"/>
</g>
<g opacity="0.3">
<path d="M11.7676 67.9658C12.1576 67.6698 12.2876 67.1268 12.0496 66.6808C11.8036 66.2188 11.5636 65.7448 11.3356 65.2708C11.0926 64.7658 10.4866 64.5528 9.98157 64.7958C9.47457 65.0398 9.26357 65.6448 9.50657 66.1498C9.74657 66.6488 9.99957 67.1488 10.2586 67.6348C10.5216 68.1288 11.1366 68.3168 11.6306 68.0538C11.6796 68.0278 11.7246 67.9978 11.7676 67.9658Z" fill="#91B3FA"/>
<path d="M68.8545 82.111C68.3915 82.427 67.7605 82.308 67.4445 81.845C67.1285 81.382 67.2475 80.7519 67.7105 80.4349C68.5915 79.8339 69.4605 79.185 70.3035 78.501C70.7355 78.148 71.3775 78.215 71.7305 78.65C72.0835 79.085 72.0175 79.724 71.5825 80.077C71.2175 80.373 70.8485 80.663 70.4765 80.944C69.9445 81.346 69.3995 81.739 68.8545 82.111ZM74.1945 76.356C73.7865 75.9729 73.7655 75.3309 74.1485 74.9219C74.8845 74.1369 75.5945 73.3129 76.2605 72.4719C76.6065 72.0319 77.2465 71.958 77.6855 72.306C78.1245 72.653 78.1985 73.292 77.8515 73.731C77.1505 74.616 76.4025 75.4839 75.6285 76.3099C75.5885 76.3529 75.5455 76.391 75.5005 76.426C75.1125 76.718 74.5605 76.699 74.1945 76.356ZM64.0865 84.908C63.0765 85.411 62.0305 85.878 60.9785 86.295C60.4575 86.501 59.8685 86.247 59.6615 85.726C59.4555 85.205 59.7105 84.6159 60.2305 84.4089C61.2295 84.0129 62.2225 83.57 63.1825 83.0919C63.6845 82.8419 64.2935 83.0459 64.5435 83.5479C64.7645 83.9919 64.6295 84.519 64.2485 84.808C64.1975 84.846 64.1435 84.879 64.0865 84.908ZM79.5875 69.5289C79.1045 69.2449 78.9435 68.6229 79.2275 68.1399C79.7725 67.2139 80.2835 66.255 80.7485 65.2869C80.9905 64.7809 81.5965 64.5689 82.1015 64.8109C82.6065 65.0529 82.8195 65.659 82.5775 66.164C82.0885 67.183 81.5495 68.1939 80.9765 69.1679C80.9075 69.2859 80.8175 69.385 80.7155 69.4619C80.3975 69.7049 79.9525 69.7439 79.5875 69.5289ZM55.7155 87.9729C54.6195 88.2409 53.4975 88.4669 52.3795 88.642C51.8265 88.729 51.3075 88.351 51.2195 87.7979C51.1325 87.2439 51.5105 86.725 52.0635 86.638C53.1255 86.471 54.1915 86.257 55.2325 86.002C55.7765 85.869 56.3265 86.202 56.4595 86.746C56.5585 87.151 56.3995 87.56 56.0865 87.796C55.9795 87.878 55.8535 87.9389 55.7155 87.9729ZM46.8745 89.1279C45.7445 89.1499 44.5995 89.1249 43.4725 89.0539C42.9135 89.018 42.4885 88.536 42.5245 87.977C42.5605 87.417 43.0425 86.9929 43.6015 87.0289C44.6725 87.0969 45.7595 87.121 46.8345 87.1C47.3945 87.089 47.8575 87.534 47.8685 88.094C47.8755 88.432 47.7165 88.7339 47.4665 88.9229C47.3015 89.0479 47.0975 89.1239 46.8745 89.1279ZM37.9925 88.3289C36.8835 88.1049 35.7715 87.8309 34.6875 87.5159C34.1495 87.3589 33.8405 86.7969 33.9965 86.2589C34.1535 85.7199 34.7165 85.412 35.2535 85.568C36.2835 85.868 37.3395 86.1279 38.3935 86.3409C38.9425 86.4519 39.2975 86.9869 39.1865 87.5359C39.1355 87.788 38.9955 87.999 38.8055 88.143C38.5825 88.313 38.2895 88.3889 37.9925 88.3289ZM29.4955 85.611C28.4625 85.15 27.4375 84.639 26.4485 84.0919C25.9585 83.8209 25.7795 83.204 26.0505 82.713C26.3205 82.223 26.9385 82.0449 27.4285 82.3159C28.3675 82.8349 29.3415 83.32 30.3225 83.758C30.8345 83.986 31.0635 84.5859 30.8345 85.0979C30.7625 85.2599 30.6535 85.393 30.5215 85.493C30.2375 85.709 29.8465 85.768 29.4955 85.611ZM21.8005 81.0909C20.8965 80.4149 20.0095 79.6909 19.1645 78.9399C18.7455 78.5679 18.7075 77.926 19.0805 77.508C19.4515 77.091 20.0935 77.051 20.5125 77.4239C21.3155 78.1379 22.1575 78.825 23.0165 79.468C23.4655 79.803 23.5565 80.439 23.2215 80.888C23.1635 80.966 23.0955 81.0339 23.0215 81.0899C22.6695 81.3539 22.1705 81.3679 21.8005 81.0909ZM15.2925 74.9969C14.7505 74.3659 14.2225 73.7099 13.7205 73.0479C13.5385 72.8079 13.3605 72.567 13.1855 72.325C12.8575 71.871 12.9465 71.2319 13.4125 70.9089C13.8665 70.5799 14.5005 70.6819 14.8295 71.1359C14.9965 71.3659 15.1655 71.5959 15.3385 71.8229C15.8155 72.4519 16.3175 73.075 16.8325 73.676C17.1975 74.101 17.1485 74.742 16.7235 75.106C16.7075 75.12 16.6915 75.133 16.6745 75.146C16.2495 75.467 15.6435 75.4059 15.2925 74.9969Z" fill="#91B3FA"/>
<path d="M84.2776 61.5028C84.4386 61.3808 84.5646 61.2108 84.6306 61.0038C84.7986 60.4808 84.9576 59.9448 85.1056 59.4088C85.2546 58.8688 84.9376 58.3098 84.3966 58.1618C83.8566 58.0128 83.2976 58.3298 83.1496 58.8708C83.0096 59.3788 82.8576 59.8888 82.6986 60.3848C82.5276 60.9178 82.8216 61.4888 83.3546 61.6598C83.6816 61.7658 84.0226 61.6958 84.2776 61.5028Z" fill="#91B3FA"/>
</g>
<path d="M76.3336 46.0319C76.3406 45.8299 76.2196 45.6449 76.0306 45.5719L70.6476 43.4949C70.1286 40.8509 69.1846 38.2699 67.8086 35.8619L70.5206 30.7729C70.6156 30.5939 70.5866 30.3749 70.4496 30.2269L65.7366 25.1579C65.5986 25.0099 65.3826 24.9649 65.1976 25.0469L59.9246 27.3829C57.6226 25.8359 55.1176 24.7069 52.5176 23.9979L50.8356 18.4779C50.7766 18.2849 50.6016 18.1499 50.3996 18.1419L43.4826 17.8909C43.2806 17.8839 43.0956 18.0049 43.0226 18.1939L40.9446 23.5769C38.3006 24.0959 35.7196 25.0399 33.3116 26.4159L28.2226 23.7039C28.0436 23.6089 27.8246 23.6369 27.6766 23.7749L22.6076 28.4879C22.4596 28.6259 22.4156 28.8419 22.4966 29.0269L24.8326 34.2999C23.2856 36.6019 22.1566 39.1069 21.4476 41.7069L15.9276 43.3889C15.7346 43.4479 15.5996 43.6229 15.5916 43.8249L15.3406 50.7419C15.3336 50.9439 15.4546 51.1289 15.6436 51.2009L21.0276 53.2789C21.5466 55.9229 22.4906 58.5039 23.8666 60.9119L21.1546 66.0009C21.0596 66.1789 21.0876 66.3989 21.2256 66.5469L25.9396 71.6159C26.0776 71.7639 26.2936 71.8089 26.4786 71.7269L31.7516 69.3909C34.0536 70.9379 36.5586 72.0669 39.1586 72.7759L40.8406 78.2959C40.8996 78.4889 41.0746 78.6239 41.2766 78.6319L48.1936 78.8829C48.3956 78.8899 48.5806 78.7689 48.6526 78.5799L50.7306 73.1959C53.3746 72.6769 55.9556 71.7329 58.3636 70.3569L63.4526 73.0689C63.6306 73.1639 63.8506 73.1349 63.9986 72.9979L69.0676 68.2839C69.2156 68.1459 69.2606 67.9299 69.1786 67.7449L66.8426 62.4719C68.3896 60.1699 69.5186 57.6649 70.2276 55.0649L75.7476 53.3829C75.9406 53.3239 76.0756 53.1489 76.0836 52.9469L76.3336 46.0319Z" fill="#91B3FA"/>
<path d="M49.1836 54.4851C45.8206 56.3301 41.5826 55.0951 39.7366 51.7321C38.8426 50.1031 38.6366 48.2231 39.1566 46.4391C39.6766 44.6551 40.8596 43.1801 42.4896 42.2861C45.8536 40.4411 50.0906 41.6761 51.9366 45.0391C53.6156 48.0991 52.7446 51.8821 50.0406 53.9301C49.7736 54.1331 49.4866 54.3191 49.1836 54.4851ZM40.7156 46.8931C40.3166 48.2611 40.4746 49.7021 41.1606 50.9521C42.5756 53.5301 45.8246 54.4781 48.4036 53.0631C50.9836 51.6491 51.9296 48.3991 50.5146 45.8201C49.0996 43.2421 45.8506 42.2941 43.2716 43.7091C43.0376 43.8371 42.8166 43.9811 42.6076 44.1391C41.7006 44.8261 41.0396 45.7811 40.7156 46.8931Z" fill="#BDD0FB"/>
<path d="M55.9947 62.03C56.4587 61.678 56.9087 61.301 57.3407 60.899C57.4767 60.773 57.6107 60.644 57.7427 60.513C58.3937 59.868 58.9917 59.171 59.5287 58.435C59.5357 58.425 59.5437 58.415 59.5507 58.405C59.5717 58.376 59.5917 58.348 59.6127 58.319C59.6527 58.263 59.6927 58.207 59.7317 58.151C59.8347 58.003 59.8257 57.811 59.7227 57.674C59.6977 57.641 59.6667 57.611 59.6307 57.586C59.4467 57.458 59.1947 57.503 59.0657 57.687C58.4057 58.633 57.6397 59.513 56.7877 60.305C52.5597 64.238 46.7817 65.488 41.5687 64.133C38.6687 63.38 35.9437 61.821 33.7567 59.468C33.3727 59.056 33.0127 58.627 32.6777 58.184C30.4207 55.203 29.2677 51.567 29.4047 47.78C29.5627 43.43 31.4047 39.402 34.5927 36.438C41.1767 30.317 51.5047 30.694 57.6237 37.275C58.0007 37.681 58.3567 38.104 58.6887 38.543C60.1287 40.445 61.1357 42.64 61.6307 44.976C61.6437 45.036 61.6687 45.091 61.7037 45.137C61.7957 45.258 61.9527 45.323 62.1117 45.289C62.3307 45.242 62.4717 45.028 62.4247 44.808C61.9047 42.356 60.8467 40.051 59.3357 38.054C58.9867 37.593 58.6137 37.149 58.2187 36.723C51.7947 29.814 40.9467 29.423 34.0407 35.844C30.6937 38.956 28.7597 43.185 28.5947 47.751C28.4497 51.727 29.6607 55.544 32.0307 58.674C32.3827 59.139 32.7607 59.589 33.1627 60.022C36.2747 63.369 40.5037 65.303 45.0697 65.469C49.0467 65.612 52.8647 64.4 55.9947 62.03Z" fill="#BDD0FB"/>
<g opacity="0.3">
<path d="M124.232 29.4473C124.448 29.2833 124.54 28.9923 124.439 28.7253C124.25 28.2283 124.044 27.7293 123.826 27.2443C123.684 26.9293 123.314 26.7883 122.998 26.9303C122.681 27.0713 122.542 27.4433 122.684 27.7583C122.892 28.2213 123.089 28.6963 123.269 29.1703C123.391 29.4933 123.753 29.6563 124.077 29.5343C124.134 29.5123 124.186 29.4823 124.232 29.4473Z" fill="#91B3FA"/>
<path d="M122.063 25.15C121.767 25.33 121.382 25.236 121.202 24.94C120.748 24.194 120.25 23.462 119.723 22.766C119.612 22.619 119.499 22.473 119.383 22.328C119.169 22.057 119.215 21.663 119.486 21.448C119.751 21.255 120.151 21.28 120.366 21.551C120.486 21.703 120.605 21.856 120.721 22.01C121.274 22.74 121.795 23.507 122.271 24.289C122.44 24.566 122.368 24.922 122.115 25.114C122.099 25.126 122.082 25.138 122.063 25.15ZM117.262 19.957C116.509 19.212 115.703 18.508 114.867 17.863C114.593 17.652 114.542 17.259 114.753 16.984C114.964 16.712 115.358 16.659 115.632 16.87C116.508 17.546 117.353 18.284 118.143 19.065C118.389 19.308 118.391 19.705 118.148 19.951C118.127 19.972 118.104 19.992 118.08 20.01C117.836 20.196 117.486 20.179 117.262 19.957ZM112.231 16.081C111.32 15.544 110.366 15.06 109.394 14.64C109.077 14.503 108.93 14.134 109.068 13.816C109.206 13.497 109.574 13.352 109.892 13.489C110.911 13.929 111.912 14.438 112.867 15.001C113.165 15.177 113.265 15.561 113.089 15.859C113.046 15.931 112.991 15.992 112.927 16.04C112.731 16.189 112.456 16.214 112.231 16.081ZM106.401 13.56C105.385 13.263 104.34 13.026 103.299 12.857C102.957 12.801 102.725 12.479 102.781 12.138C102.837 11.797 103.158 11.565 103.5 11.62C104.593 11.798 105.687 12.046 106.754 12.357C107.086 12.454 107.277 12.802 107.18 13.135C107.14 13.269 107.061 13.38 106.957 13.458C106.802 13.574 106.599 13.618 106.401 13.56ZM100.132 12.539C99.0737 12.498 98.0047 12.522 96.9517 12.61C96.6077 12.639 96.3037 12.383 96.2747 12.038C96.2457 11.693 96.5017 11.39 96.8467 11.361C97.9497 11.268 99.0717 11.243 100.18 11.286C100.526 11.3 100.795 11.591 100.782 11.936C100.774 12.131 100.678 12.302 100.534 12.412C100.423 12.497 100.282 12.544 100.132 12.539ZM93.8047 13.07C92.7697 13.287 91.7397 13.571 90.7407 13.914C90.4137 14.026 90.0567 13.852 89.9447 13.525C89.8327 13.198 90.0057 12.842 90.3337 12.729C91.3807 12.369 92.4617 12.071 93.5477 11.843C93.8867 11.772 94.2187 11.989 94.2897 12.327C94.3407 12.572 94.2417 12.814 94.0547 12.956C93.9827 13.011 93.8987 13.051 93.8047 13.07ZM87.8027 15.132C86.8557 15.595 85.9257 16.124 85.0377 16.704C84.7477 16.893 84.3597 16.811 84.1707 16.522C83.9817 16.233 84.0657 15.849 84.3527 15.654C85.2837 15.046 86.2597 14.492 87.2527 14.006C87.5637 13.854 87.9387 13.983 88.0907 14.294C88.2247 14.567 88.1407 14.891 87.9067 15.068C87.8747 15.092 87.8397 15.114 87.8027 15.132ZM79.2997 20.837C79.0457 20.602 79.0307 20.206 79.2657 19.952C79.9167 19.249 80.6167 18.57 81.3457 17.934C81.4557 17.837 81.5667 17.742 81.6787 17.647C81.9357 17.417 82.3387 17.457 82.5617 17.723C82.7847 17.988 82.7507 18.383 82.4867 18.606C82.3817 18.694 82.2767 18.784 82.1717 18.877C81.4747 19.485 80.8057 20.133 80.1857 20.803C80.1607 20.831 80.1327 20.855 80.1037 20.877C79.8647 21.057 79.5257 21.046 79.2997 20.837Z" fill="#91B3FA"/>
</g>
<g opacity="0.3">
<path d="M115.168 60.1317C114.289 60.7797 113.363 61.3787 112.415 61.9147C112.114 62.0847 111.732 61.9787 111.561 61.6767C111.391 61.3747 111.501 60.9947 111.799 60.8227C112.703 60.3127 113.586 59.7407 114.425 59.1217C114.703 58.9167 115.096 58.9757 115.301 59.2547C115.505 59.5307 115.448 59.9197 115.175 60.1257C115.175 60.1257 115.171 60.1297 115.168 60.1317ZM116.803 58.0017C116.566 57.7497 116.578 57.3537 116.83 57.1167C117.588 56.4027 118.31 55.6367 118.977 54.8377C119.198 54.5747 119.594 54.5367 119.86 54.7587C120.126 54.9807 120.161 55.3747 119.939 55.6407C119.24 56.4777 118.483 57.2807 117.689 58.0287C117.672 58.0447 117.655 58.0587 117.637 58.0727C117.385 58.2637 117.025 58.2377 116.803 58.0017ZM109.464 63.3507C108.454 63.7667 107.41 64.1257 106.361 64.4157C106.027 64.5077 105.682 64.3117 105.59 63.9787C105.497 63.6447 105.693 63.3017 106.026 63.2077C107.027 62.9307 108.022 62.5897 108.986 62.1927C109.306 62.0607 109.672 62.2137 109.804 62.5327C109.915 62.8017 109.825 63.1037 109.603 63.2707C109.562 63.3027 109.515 63.3297 109.464 63.3507ZM121.017 53.1827C120.726 52.9957 120.643 52.6077 120.83 52.3167C121.394 51.4417 121.91 50.5237 122.363 49.5877C122.514 49.2767 122.889 49.1467 123.2 49.2967C123.512 49.4477 123.642 49.8227 123.491 50.1337C123.016 51.1157 122.475 52.0787 121.883 52.9957C121.842 53.0587 121.791 53.1127 121.735 53.1557C121.531 53.3107 121.245 53.3297 121.017 53.1827ZM103.153 65.0947C102.075 65.2557 100.976 65.3517 99.8846 65.3817C99.5386 65.3907 99.2506 65.1177 99.2416 64.7717C99.2326 64.4257 99.5046 64.1377 99.8506 64.1287C100.891 64.1007 101.939 64.0087 102.968 63.8547C103.31 63.8037 103.629 64.0397 103.68 64.3827C103.715 64.6167 103.615 64.8407 103.438 64.9747C103.357 65.0357 103.26 65.0787 103.153 65.0947ZM96.6066 65.2747C95.5196 65.1727 94.4286 65.0037 93.3646 64.7717C93.0266 64.6987 92.8126 64.3647 92.8856 64.0267C92.9586 63.6887 93.2926 63.4737 93.6306 63.5477C94.6456 63.7677 95.6856 63.9287 96.7236 64.0267C97.0676 64.0587 97.3216 64.3647 97.2886 64.7097C97.2716 64.8917 97.1786 65.0487 97.0426 65.1507C96.9226 65.2417 96.7686 65.2897 96.6066 65.2747ZM90.2046 63.8817C89.1726 63.5217 88.1536 63.0957 87.1766 62.6157C86.8656 62.4627 86.7386 62.0877 86.8906 61.7767C87.0436 61.4667 87.4186 61.3387 87.7296 61.4907C88.6616 61.9497 89.6326 62.3557 90.6176 62.6977C90.9446 62.8117 91.1176 63.1687 91.0026 63.4957C90.9606 63.6167 90.8846 63.7167 90.7896 63.7887C90.6286 63.9107 90.4106 63.9527 90.2046 63.8817Z" fill="#91B3FA"/>
<path d="M124.534 47.3645C124.63 47.2915 124.707 47.1905 124.748 47.0665C124.921 46.5585 125.079 46.0435 125.219 45.5355C125.311 45.2015 125.115 44.8565 124.781 44.7645C124.448 44.6735 124.103 44.8685 124.01 45.2025C123.877 45.6875 123.725 46.1785 123.561 46.6635C123.45 46.9915 123.625 47.3475 123.953 47.4585C124.158 47.5285 124.374 47.4865 124.534 47.3645Z" fill="#91B3FA"/>
</g>
<path d="M119.401 36.5978C119.406 36.4628 119.324 36.3388 119.198 36.2898L115.595 34.8998C115.248 33.1298 114.616 31.4038 113.695 29.7918L115.51 26.3858C115.574 26.2668 115.554 26.1198 115.462 26.0208L112.308 22.6288C112.216 22.5298 112.071 22.4998 111.947 22.5548L108.419 24.1178C106.879 23.0828 105.202 22.3268 103.462 21.8528L102.337 18.1588C102.298 18.0288 102.18 17.9388 102.045 17.9338L97.4157 17.7658C97.2807 17.7608 97.1567 17.8428 97.1077 17.9688L95.7177 21.5708C93.9477 21.9178 92.2207 22.5498 90.6097 23.4708L87.2047 21.6558C87.0857 21.5918 86.9387 21.6108 86.8397 21.7038L83.4477 24.8578C83.3487 24.9498 83.3187 25.0948 83.3737 25.2188L84.9367 28.7468C83.9017 30.2868 83.1457 31.9638 82.6717 33.7038L78.9777 34.8288C78.8487 34.8678 78.7577 34.9858 78.7527 35.1208L78.5847 39.7498C78.5797 39.8848 78.6617 40.0088 78.7877 40.0568L82.3897 41.4478C82.7367 43.2178 83.3687 44.9438 84.2897 46.5558L82.4747 49.9618C82.4107 50.0808 82.4297 50.2278 82.5227 50.3268L85.6767 53.7188C85.7687 53.8178 85.9137 53.8478 86.0377 53.7928L89.5657 52.2298C91.1057 53.2648 92.7827 54.0208 94.5227 54.4948L95.6477 58.1888C95.6867 58.3178 95.8047 58.4088 95.9397 58.4138L100.569 58.5818C100.704 58.5868 100.828 58.5048 100.877 58.3788L102.267 54.7768C104.037 54.4298 105.763 53.7978 107.375 52.8768L110.78 54.6918C110.899 54.7558 111.046 54.7358 111.145 54.6438L114.537 51.4898C114.636 51.3978 114.666 51.2528 114.611 51.1288L113.049 47.5998C114.084 46.0598 114.839 44.3828 115.314 42.6428L119.008 41.5178C119.137 41.4788 119.228 41.3608 119.233 41.2258L119.401 36.5978Z" fill="#91B3FA"/>
<path d="M101.273 42.3305C100.163 42.9395 98.8817 43.0805 97.6667 42.7255C96.4517 42.3715 95.4467 41.5655 94.8377 40.4555C93.5807 38.1645 94.4207 35.2834 96.7127 34.0204C99.0047 32.7644 101.891 33.6054 103.147 35.8954C103.756 37.0054 103.896 38.2854 103.542 39.5014C103.254 40.4894 102.667 41.3384 101.861 41.9485C101.678 42.0894 101.481 42.2165 101.273 42.3305ZM95.9367 39.8525C96.3847 40.6695 97.1237 41.2625 98.0177 41.5225C98.9117 41.7825 99.8537 41.6795 100.67 41.2315C101.486 40.7825 102.079 40.0445 102.34 39.1505C102.601 38.2565 102.497 37.3144 102.049 36.4984C101.124 34.8134 99.0007 34.1945 97.3157 35.1185C97.1637 35.2025 97.0207 35.2955 96.8857 35.3975C95.5317 36.4235 95.0957 38.3195 95.9367 39.8525Z" fill="#BDD0FB"/>
<path d="M106.014 47.5773C106.33 47.3383 106.636 47.0803 106.933 46.8053C107.522 46.2583 108.055 45.6513 108.52 44.9983C108.541 44.9693 108.561 44.9393 108.582 44.9103C108.742 44.6823 108.728 44.3843 108.568 44.1733C108.529 44.1223 108.482 44.0763 108.426 44.0373C108.142 43.8393 107.753 43.9103 107.554 44.1923C107.126 44.8063 106.63 45.3753 106.08 45.8873C106.05 45.9153 106.019 45.9433 105.989 45.9703C104.676 47.1683 103.114 47.9933 101.433 48.4063C100.52 48.6303 99.5718 48.7333 98.6078 48.7073C98.5998 48.7073 98.5918 48.7073 98.5848 48.7063C98.5608 48.7053 98.5368 48.7053 98.5128 48.7043C95.6968 48.6013 93.0888 47.4093 91.1698 45.3453C90.9208 45.0783 90.6888 44.8013 90.4718 44.5143C89.0108 42.5843 88.2638 40.2303 88.3528 37.7783C88.4548 34.9623 89.6488 32.3553 91.7118 30.4363C93.7748 28.5193 96.4628 27.5173 99.2788 27.6193C102.095 27.7213 104.703 28.9143 106.622 30.9783C106.866 31.2403 107.096 31.5153 107.311 31.7983C108.243 33.0293 108.895 34.4503 109.216 35.9623C109.236 36.0553 109.275 36.1393 109.329 36.2103C109.471 36.3973 109.713 36.4973 109.958 36.4453C110.296 36.3723 110.513 36.0413 110.441 35.7023C110.082 34.0103 109.353 32.4203 108.31 31.0433C108.069 30.7253 107.812 30.4183 107.539 30.1253C105.392 27.8163 102.474 26.4823 99.3238 26.3673C96.1738 26.2533 93.1668 27.3693 90.8588 29.5193C88.5498 31.6663 87.2158 34.5833 87.1018 37.7343C87.0018 40.4773 87.8378 43.1113 89.4718 45.2703C89.7148 45.5903 89.9748 45.9013 90.2528 46.2003C94.4088 50.6693 101.249 51.1863 106.014 47.5773Z" fill="#BDD0FB"/>
<path d="M119.549 214.086L113.425 256.342H184.465L175.212 214.086H119.549Z" fill="url(#paint1_linear_4553_94174)"/>
<path d="M0.213623 78.7821V204.553C0.213623 214.899 8.45862 223.36 18.8016 223.627C64.7396 224.812 225.408 227.684 269.138 227.039C276.654 226.928 282.743 220.914 282.959 213.4C283.802 184.182 285.172 113.921 280.104 81.3021C279.037 74.4331 273.238 69.2961 266.29 69.0741C227.8 67.8431 57.4806 63.9331 13.7716 64.9141C6.23262 65.0841 0.213623 71.2421 0.213623 78.7821Z" fill="url(#paint2_linear_4553_94174)"/>
<path d="M8.10571 78.1662V197.657C8.10571 203.698 12.9547 208.62 18.9947 208.71L262.846 211.723C268.834 211.813 273.743 206.995 273.765 201.006L274.173 82.5822C274.189 78.3002 270.777 74.7912 266.496 74.6872L16.8377 69.6432C12.0497 69.5262 8.10571 73.3762 8.10571 78.1662Z" fill="#91B3FA"/>
<path d="M275.601 216.625C275.599 216.625 275.597 216.625 275.595 216.625L8.09962 212.067C7.91262 212.064 7.76462 211.91 7.76762 211.723C7.77062 211.536 7.92662 211.393 8.11162 211.391L275.607 215.949C275.794 215.952 275.942 216.106 275.939 216.293C275.936 216.477 275.785 216.625 275.601 216.625Z" fill="#91B3FA"/>
<path d="M144.492 222.187C142.771 222.187 141.371 220.787 141.371 219.066C141.371 217.345 142.771 215.945 144.492 215.945C146.213 215.945 147.613 217.345 147.613 219.066C147.614 220.786 146.213 222.187 144.492 222.187ZM144.492 216.62C143.144 216.62 142.047 217.717 142.047 219.065C142.047 220.413 143.144 221.51 144.492 221.51C145.84 221.51 146.937 220.413 146.937 219.065C146.937 217.717 145.84 216.62 144.492 216.62Z" fill="#91B3FA"/>
<path d="M199.767 267.574H95.7947C92.9697 267.574 90.8487 265.563 91.3947 263.403L92.7287 258.127C93.1297 256.54 94.8757 255.375 96.9487 255.311L197.182 252.183C199.348 252.115 201.266 253.265 201.738 254.914L204.143 263.318C204.769 265.502 202.638 267.574 199.767 267.574Z" fill="url(#paint3_linear_4553_94174)"/>
<path d="M151.765 256.739C151.581 256.739 151.43 256.591 151.427 256.406C151.424 256.219 151.573 256.066 151.76 256.063L156.055 256C156.234 256.001 156.395 256.147 156.398 256.333C156.401 256.52 156.252 256.673 156.065 256.676L151.77 256.739H151.765Z" fill="#91B3FA"/>
<path d="M95.2447 264.662C95.2267 264.662 95.2087 264.661 95.1907 264.658C95.0067 264.629 94.8807 264.455 94.9097 264.271L95.5227 260.433C95.8517 258.371 97.6057 256.853 99.6937 256.822L145.25 256.156H145.255C145.439 256.156 145.59 256.304 145.593 256.489C145.596 256.676 145.447 256.829 145.26 256.832L99.7037 257.498C97.9457 257.524 96.4677 258.803 96.1907 260.539L95.5777 264.377C95.5517 264.544 95.4077 264.662 95.2447 264.662Z" fill="#91B3FA"/>
<g opacity="0.53">
<path d="M149.896 86.5234H143.482V199.649H149.896V86.5234Z" fill="white"/>
<path d="M160.613 86.5234H154.199V199.649H160.613V86.5234Z" fill="white"/>
<path d="M171.331 86.5234H164.917V199.649H171.331V86.5234Z" fill="white"/>
<path d="M182.047 86.5234H175.633V199.649H182.047V86.5234Z" fill="white"/>
<path d="M192.764 86.5234H186.35V199.649H192.764V86.5234Z" fill="white"/>
<path d="M203.48 86.5234H197.066V199.649H203.48V86.5234Z" fill="white"/>
<path d="M214.197 86.5234H207.783V199.649H214.197V86.5234Z" fill="white"/>
</g>
<path d="M149.896 140.445H143.482V199.648H149.896V140.445Z" fill="url(#paint4_linear_4553_94174)"/>
<path d="M160.613 160.797H154.199V199.653H160.613V160.797Z" fill="url(#paint5_linear_4553_94174)"/>
<path d="M171.331 110.508H164.917V199.651H171.331V110.508Z" fill="url(#paint6_linear_4553_94174)"/>
<path d="M182.047 178.234H175.633V199.65H182.047V178.234Z" fill="url(#paint7_linear_4553_94174)"/>
<path d="M192.764 122.422H186.35V199.647H192.764V122.422Z" fill="url(#paint8_linear_4553_94174)"/>
<path d="M203.48 135.797H197.066V199.651H203.48V135.797Z" fill="url(#paint9_linear_4553_94174)"/>
<path d="M214.197 150.328H207.783V199.648H214.197V150.328Z" fill="url(#paint10_linear_4553_94174)"/>
<path opacity="0.57" d="M37.7026 81.3516C29.0976 81.3516 22.1216 88.3276 22.1216 96.9326C22.1216 105.538 29.0976 112.514 37.7026 112.514C46.3076 112.514 53.2836 105.538 53.2836 96.9326C53.2836 88.3276 46.3076 81.3516 37.7026 81.3516ZM37.7026 105.81C32.7996 105.81 28.8256 101.836 28.8256 96.9326C28.8256 92.0296 32.7996 88.0556 37.7026 88.0556C42.6056 88.0556 46.5796 92.0296 46.5796 96.9326C46.5796 101.836 42.6046 105.81 37.7026 105.81Z" fill="white"/>
<mask id="mask0_4553_94174" style="mask-type:luminance" maskUnits="userSpaceOnUse" x="22" y="81" width="32" height="32">
<path d="M37.7026 81.3516C29.0976 81.3516 22.1216 88.3276 22.1216 96.9326C22.1216 105.538 29.0976 112.514 37.7026 112.514C46.3076 112.514 53.2836 105.538 53.2836 96.9326C53.2836 88.3276 46.3076 81.3516 37.7026 81.3516ZM37.7026 105.81C32.7996 105.81 28.8256 101.836 28.8256 96.9326C28.8256 92.0296 32.7996 88.0556 37.7026 88.0556C42.6056 88.0556 46.5796 92.0296 46.5796 96.9326C46.5796 101.836 42.6046 105.81 37.7026 105.81Z" fill="white"/>
</mask>
<g mask="url(#mask0_4553_94174)">
<path d="M62.2276 93.5078H15.9436V113.095H62.2276V93.5078Z" fill="url(#paint11_linear_4553_94174)"/>
</g>
<path opacity="0.57" d="M75.6845 81.3516C67.0795 81.3516 60.1035 88.3276 60.1035 96.9326C60.1035 105.538 67.0795 112.514 75.6845 112.514C84.2895 112.514 91.2655 105.538 91.2655 96.9326C91.2665 88.3276 84.2905 81.3516 75.6845 81.3516ZM75.6845 105.81C70.7815 105.81 66.8075 101.836 66.8075 96.9326C66.8075 92.0296 70.7815 88.0556 75.6845 88.0556C80.5875 88.0556 84.5615 92.0296 84.5615 96.9326C84.5615 101.836 80.5875 105.81 75.6845 105.81Z" fill="white"/>
<mask id="mask1_4553_94174" style="mask-type:luminance" maskUnits="userSpaceOnUse" x="60" y="81" width="32" height="32">
<path d="M75.6845 81.3516C67.0795 81.3516 60.1035 88.3276 60.1035 96.9326C60.1035 105.538 67.0795 112.514 75.6845 112.514C84.2895 112.514 91.2655 105.538 91.2655 96.9326C91.2665 88.3276 84.2905 81.3516 75.6845 81.3516ZM75.6845 105.81C70.7815 105.81 66.8075 101.836 66.8075 96.9326C66.8075 92.0296 70.7815 88.0556 75.6845 88.0556C80.5875 88.0556 84.5615 92.0296 84.5615 96.9326C84.5615 101.836 80.5875 105.81 75.6845 105.81Z" fill="white"/>
</mask>
<g mask="url(#mask1_4553_94174)">
<path d="M100.21 85.9375H53.9255V113.096H100.21V85.9375Z" fill="url(#paint12_linear_4553_94174)"/>
</g>
<path opacity="0.57" d="M113.668 81.3516C105.063 81.3516 98.0867 88.3276 98.0867 96.9326C98.0867 105.538 105.063 112.514 113.668 112.514C122.273 112.514 129.249 105.538 129.249 96.9326C129.249 88.3276 122.273 81.3516 113.668 81.3516ZM113.668 105.81C108.765 105.81 104.791 101.836 104.791 96.9326C104.791 92.0296 108.765 88.0556 113.668 88.0556C118.571 88.0556 122.545 92.0296 122.545 96.9326C122.545 101.836 118.57 105.81 113.668 105.81Z" fill="white"/>
<mask id="mask2_4553_94174" style="mask-type:luminance" maskUnits="userSpaceOnUse" x="98" y="81" width="32" height="32">
<path d="M113.668 81.3516C105.063 81.3516 98.0867 88.3276 98.0867 96.9326C98.0867 105.538 105.063 112.514 113.668 112.514C122.273 112.514 129.249 105.538 129.249 96.9326C129.249 88.3276 122.273 81.3516 113.668 81.3516ZM113.668 105.81C108.765 105.81 104.791 101.836 104.791 96.9326C104.791 92.0296 108.765 88.0556 113.668 88.0556C118.571 88.0556 122.545 92.0296 122.545 96.9326C122.545 101.836 118.57 105.81 113.668 105.81Z" fill="white"/>
</mask>
<g mask="url(#mask2_4553_94174)">
<path d="M138.193 103.297H91.9087V113.09H138.193V103.297Z" fill="url(#paint13_linear_4553_94174)"/>
</g>
<path opacity="0.44" d="M125.633 200.273L25.6846 199.522C23.7126 199.507 22.1226 197.905 22.1226 195.933V144.581C22.1226 142.599 23.7296 140.992 25.7116 140.992H125.661C127.643 140.992 129.25 142.599 129.25 144.581V196.684C129.249 198.677 127.625 200.288 125.633 200.273Z" fill="white"/>
<path opacity="0.44" d="M110.13 164.174L97.2777 150.586L78.8497 170.63L65.8467 156.599L53.6517 170.385L44.2997 159.023L25.8687 178.212V192.088C25.8687 193.922 27.3477 195.413 29.1817 195.426L122.141 196.124C123.994 196.138 125.504 194.639 125.504 192.786V155.037L110.13 164.174Z" fill="white"/>
<path d="M110.546 163.797H110.208V196.125H110.546V163.797Z" fill="white"/>
<path d="M97.4457 150.586H97.1077V195.938H97.4457V150.586Z" fill="white"/>
<path d="M79.0174 170.391H78.6794V195.805H79.0174V170.391Z" fill="white"/>
<path d="M66.3595 157.102H66.0215V195.805H66.3595V157.102Z" fill="white"/>
<path d="M53.8185 169.977H53.4805V195.803H53.8185V169.977Z" fill="white"/>
<path d="M44.6647 158.062H44.3267V195.555H44.6647V158.062Z" fill="white"/>
<path d="M44.4956 160.89C46.0553 160.89 47.3196 159.626 47.3196 158.066C47.3196 156.507 46.0553 155.242 44.4956 155.242C42.936 155.242 41.6716 156.507 41.6716 158.066C41.6716 159.626 42.936 160.89 44.4956 160.89Z" fill="url(#paint14_linear_4553_94174)"/>
<path d="M55.5105 169.977C55.5105 171.004 54.6775 171.837 53.6505 171.837C52.6235 171.837 51.7905 171.004 51.7905 169.977C51.7905 168.95 52.6235 168.117 53.6505 168.117C54.6775 168.117 55.5105 168.95 55.5105 169.977Z" fill="url(#paint15_linear_4553_94174)"/>
<path d="M68.0506 157.102C68.0506 158.129 67.2176 158.962 66.1906 158.962C65.1636 158.962 64.3306 158.129 64.3306 157.102C64.3306 156.075 65.1636 155.242 66.1906 155.242C67.2176 155.242 68.0506 156.075 68.0506 157.102Z" fill="url(#paint16_linear_4553_94174)"/>
<path d="M80.7085 170.391C80.7085 171.418 79.8755 172.251 78.8485 172.251C77.8205 172.251 76.9885 171.418 76.9885 170.391C76.9885 169.364 77.8215 168.531 78.8485 168.531C79.8755 168.531 80.7085 169.364 80.7085 170.391Z" fill="url(#paint17_linear_4553_94174)"/>
<path d="M99.1375 150.587C99.1375 151.614 98.3045 152.447 97.2775 152.447C96.2505 152.447 95.4175 151.614 95.4175 150.587C95.4175 149.56 96.2505 148.727 97.2775 148.727C98.3045 148.727 99.1375 149.56 99.1375 150.587Z" fill="url(#paint18_linear_4553_94174)"/>
<path d="M112.238 163.797C112.238 164.824 111.405 165.657 110.378 165.657C109.351 165.657 108.518 164.824 108.518 163.797C108.518 162.77 109.351 161.938 110.378 161.938C111.405 161.937 112.238 162.769 112.238 163.797Z" fill="url(#paint19_linear_4553_94174)"/>
<g opacity="0.48">
<path d="M51.0016 132.445H23.6026C22.4566 132.445 21.5276 133.092 21.5276 133.89C21.5276 134.688 22.4566 135.335 23.6026 135.335H51.0016C52.1476 135.335 53.0766 134.688 53.0766 133.89C53.0766 133.092 52.1476 132.445 51.0016 132.445Z" fill="white"/>
<path d="M51.0016 126.047H23.6026C22.4566 126.047 21.5276 126.694 21.5276 127.492C21.5276 128.29 22.4566 128.937 23.6026 128.937H51.0016C52.1476 128.937 53.0766 128.29 53.0766 127.492C53.0766 126.694 52.1476 126.047 51.0016 126.047Z" fill="white"/>
<path d="M51.0016 119.648H23.6026C22.4566 119.648 21.5276 120.295 21.5276 121.093C21.5276 121.891 22.4566 122.538 23.6026 122.538H51.0016C52.1476 122.538 53.0766 121.891 53.0766 121.093C53.0766 120.295 52.1476 119.648 51.0016 119.648Z" fill="white"/>
</g>
<g opacity="0.48">
<path d="M89.0875 132.445H61.6885C60.5425 132.445 59.6135 133.092 59.6135 133.89C59.6135 134.688 60.5425 135.335 61.6885 135.335H89.0875C90.2335 135.335 91.1625 134.688 91.1625 133.89C91.1625 133.092 90.2335 132.445 89.0875 132.445Z" fill="white"/>
<path d="M89.0875 126.047H61.6885C60.5425 126.047 59.6135 126.694 59.6135 127.492C59.6135 128.29 60.5425 128.937 61.6885 128.937H89.0875C90.2335 128.937 91.1625 128.29 91.1625 127.492C91.1625 126.694 90.2335 126.047 89.0875 126.047Z" fill="white"/>
<path d="M89.0875 119.648H61.6885C60.5425 119.648 59.6135 120.295 59.6135 121.093C59.6135 121.891 60.5425 122.538 61.6885 122.538H89.0875C90.2335 122.538 91.1625 121.891 91.1625 121.093C91.1625 120.295 90.2335 119.648 89.0875 119.648Z" fill="white"/>
</g>
<g opacity="0.48">
<path d="M127.174 132.445H99.7747C98.6287 132.445 97.6997 133.092 97.6997 133.89C97.6997 134.688 98.6287 135.335 99.7747 135.335H127.174C128.32 135.335 129.249 134.688 129.249 133.89C129.249 133.092 128.32 132.445 127.174 132.445Z" fill="white"/>
<path d="M127.174 126.047H99.7747C98.6287 126.047 97.6997 126.694 97.6997 127.492C97.6997 128.29 98.6287 128.937 99.7747 128.937H127.174C128.32 128.937 129.249 128.29 129.249 127.492C129.249 126.694 128.32 126.047 127.174 126.047Z" fill="white"/>
<path d="M127.174 119.648H99.7747C98.6287 119.648 97.6997 120.295 97.6997 121.093C97.6997 121.891 98.6287 122.538 99.7747 122.538H127.174C128.32 122.538 129.249 121.891 129.249 121.093C129.249 120.295 128.32 119.648 127.174 119.648Z" fill="white"/>
</g>
<path d="M243.095 151.137C250.097 151.137 255.773 145.461 255.773 138.459C255.773 131.457 250.097 125.781 243.095 125.781C236.093 125.781 230.417 131.457 230.417 138.459C230.417 145.461 236.093 151.137 243.095 151.137Z" fill="url(#paint20_linear_4553_94174)"/>
<path d="M250.628 135.776C251.02 136.73 251.238 137.775 251.238 138.87C251.238 143.367 247.592 147.013 243.095 147.013C238.598 147.013 234.952 143.367 234.952 138.87C234.952 134.373 238.598 130.727 243.095 130.727C243.233 130.727 243.37 130.731 243.506 130.737V128.673C243.37 128.668 243.233 128.664 243.095 128.664C237.458 128.664 232.889 133.233 232.889 138.87C232.889 144.507 237.458 149.076 243.095 149.076C248.732 149.076 253.301 144.507 253.301 138.87C253.301 137.482 253.023 136.159 252.522 134.953L250.628 135.776Z" fill="#91B3FA"/>
<path opacity="0.5" d="M253.516 156.508H232.857C231.56 156.508 230.509 157.559 230.509 158.856C230.509 160.153 231.56 161.204 232.857 161.204H253.516C254.813 161.204 255.864 160.153 255.864 158.856C255.864 157.56 254.812 156.508 253.516 156.508Z" fill="white"/>
<path d="M243.041 110.387C250.043 110.387 255.719 104.711 255.719 97.7093C255.719 90.7074 250.043 85.0312 243.041 85.0312C236.039 85.0312 230.363 90.7074 230.363 97.7093C230.363 104.711 236.039 110.387 243.041 110.387Z" fill="url(#paint21_linear_4553_94174)"/>
<path d="M247.35 105.017C246.094 105.81 244.607 106.271 243.011 106.271C238.514 106.271 234.868 102.625 234.868 98.1279C234.868 93.6309 238.514 89.9849 243.011 89.9849C243.149 89.9849 243.286 89.9889 243.422 89.9949V87.9309C243.286 87.9259 243.149 87.9219 243.011 87.9219C237.374 87.9219 232.805 92.4909 232.805 98.1279C232.805 103.765 237.374 108.334 243.011 108.334C244.978 108.334 246.815 107.777 248.373 106.813L247.35 105.017Z" fill="#91B3FA"/>
<path opacity="0.5" d="M253.57 115.758H232.911C231.614 115.758 230.563 116.809 230.563 118.106C230.563 119.403 231.614 120.454 232.911 120.454H253.57C254.867 120.454 255.918 119.403 255.918 118.106C255.918 116.81 254.867 115.758 253.57 115.758Z" fill="white"/>
<path opacity="0.91" d="M252.102 188.379C257.053 183.428 257.053 175.4 252.102 170.449C247.151 165.498 239.124 165.498 234.173 170.449C229.222 175.4 229.222 183.428 234.173 188.379C239.124 193.33 247.151 193.33 252.102 188.379Z" fill="white"/>
<path d="M250.045 183.995C248.579 186.147 246.11 187.56 243.311 187.56C238.814 187.56 235.168 183.914 235.168 179.417C235.168 174.92 238.814 171.274 243.311 171.274C243.449 171.274 243.586 171.278 243.722 171.284V169.22C243.586 169.215 243.449 169.211 243.311 169.211C237.674 169.211 233.105 173.78 233.105 179.417C233.105 185.054 237.674 189.623 243.311 189.623C246.798 189.623 249.876 187.874 251.717 185.206L250.045 183.995Z" fill="url(#paint22_linear_4553_94174)"/>
<path opacity="0.5" d="M232.811 201.743H253.47C254.767 201.743 255.818 200.692 255.818 199.395C255.818 198.098 254.767 197.047 253.47 197.047H232.811C231.514 197.047 230.463 198.098 230.463 199.395C230.463 200.692 231.514 201.743 232.811 201.743Z" fill="white"/>
<path d="M247.514 270.828C247.514 270.828 248.061 273.925 248.329 276.992C248.434 278.19 247.51 279.231 246.308 279.281C242.225 279.451 233.491 279.782 230.357 279.642C229.886 279.621 229.578 279.139 229.752 278.7C229.898 278.333 230.18 278.036 230.539 277.871L244.966 271.24L247.514 270.828Z" fill="url(#paint23_linear_4553_94174)"/>
<path d="M247.962 269.01L247.522 272.715C247.522 272.715 244.995 273.891 243.269 272.567L244.316 268.438L247.962 269.01Z" fill="url(#paint24_linear_4553_94174)"/>
<path d="M247.632 199.354C247.822 200.322 248.651 247.636 243.594 268.839C243.511 269.185 243.687 269.542 244.016 269.676C244.792 269.993 246.312 270.452 248.135 270.513C248.699 270.532 249.205 270.165 249.365 269.623C250.811 264.704 257.738 240.056 258.642 216.511C259.652 190.201 258.642 215.615 258.642 215.615L258.05 199.352L247.632 199.354Z" fill="url(#paint25_linear_4553_94174)"/>
<path d="M264.11 272.445C264.11 272.445 264.981 274.009 265.824 278.164C265.976 278.914 265.452 279.633 264.69 279.708C263.342 279.841 261.266 280.011 259.604 280C258.838 279.995 258.239 279.327 258.332 278.567C258.516 277.05 259.09 274.562 260.862 272.623L264.11 272.445Z" fill="url(#paint26_linear_4553_94174)"/>
<path d="M264.875 267.678L263.848 273.281C263.848 273.281 262.832 274.036 260.823 273.489L261.313 267.461L264.875 267.678Z" fill="url(#paint27_linear_4553_94174)"/>
<path d="M267.649 200.805C271.785 225.768 266.752 262.504 265.054 269.694C264.95 270.134 264.595 270.471 264.149 270.545C263.391 270.671 262.144 270.773 260.914 270.416C260.49 270.293 260.193 269.911 260.175 269.47C259.947 263.657 260.357 227.971 256.503 213.868C256.308 213.153 255.871 212.531 255.267 212.102L247.786 206.784L247.212 198.188L267.649 200.805Z" fill="url(#paint28_linear_4553_94174)"/>
<path d="M241.293 153.51C253.689 153.305 267.366 156.765 267.366 156.765C271.061 178.325 268.012 203.193 268.012 203.193C258.415 205.71 247.59 201.654 247.59 201.654C245.995 192.642 238.553 167.281 238.553 167.281C232.496 166.529 227.507 164.782 223.398 162.472C226.532 158.839 228.01 154.216 228.651 151.484C233.034 152.846 237.469 153.573 241.293 153.51Z" fill="url(#paint29_linear_4553_94174)"/>
<path d="M204.677 135.252C205.895 133.781 207.436 134.477 207.436 134.477C209.26 142.182 218.825 148.43 228.652 151.484C228.01 154.217 226.533 158.839 223.399 162.472C207.09 153.302 204.677 135.252 204.677 135.252Z" fill="url(#paint30_linear_4553_94174)"/>
<path d="M204.973 135.623C204.846 136.028 206.321 136.645 207.19 134.988C207.22 134.194 207.703 130.792 207.229 130.146C204.702 126.701 199.803 122.383 199.803 122.383C198.975 123.2 199.657 124.003 199.657 124.003L202.034 126.479C201.537 127.377 200.931 128.136 200.646 129.222C200.431 130.045 200.562 130.924 200.978 131.673C201.395 132.425 201.964 133.402 202.502 134.166C203.52 135.612 204.973 135.623 204.973 135.623Z" fill="url(#paint31_linear_4553_94174)"/>
<path d="M203.073 128.086L205.239 129.922L205.919 131.75L203.988 133.892C203.988 133.892 203.339 130.265 202.856 129.48C202.373 128.695 202.623 128.315 203.073 128.086Z" fill="url(#paint32_linear_4553_94174)"/>
<path d="M262.611 168.769L267.366 156.766C267.366 156.766 278.944 164.633 280.849 174.608C278.661 174.769 274.68 175.338 270.784 177.306C269.927 172.595 262.611 168.769 262.611 168.769Z" fill="url(#paint33_linear_4553_94174)"/>
<path d="M252.492 180.058C252.492 180.058 265.492 187.405 269.878 181.131C270.789 179.828 271.006 178.534 270.782 177.3C274.679 175.332 278.66 174.763 280.847 174.602C281.421 177.609 281.118 180.807 279.351 184.039C271.668 198.094 250.771 183.262 250.771 183.262L252.492 180.058Z" fill="url(#paint34_linear_4553_94174)"/>
<path d="M254.055 189.35L246.96 164.574C246.879 164.293 246.64 164.088 246.349 164.054C245.064 163.904 241.339 163.483 237.038 163.119C231.858 162.681 225.842 162.326 222.247 162.628C221.736 162.671 221.427 163.211 221.654 163.671C223.698 167.807 232.107 184.63 236.318 190.141C236.457 190.324 236.673 190.43 236.903 190.428L253.364 190.275C253.844 190.27 254.187 189.81 254.055 189.35Z" fill="url(#paint35_linear_4553_94174)"/>
<path d="M236.303 160.972L231.159 160.115C230.885 160.069 230.661 160.331 230.748 160.595L231.257 162.138C231.301 162.272 231.419 162.37 231.559 162.388L236.509 163.049C236.765 163.083 236.976 162.851 236.917 162.599L236.602 161.252C236.567 161.107 236.449 160.997 236.303 160.972Z" fill="url(#paint36_linear_4553_94174)"/>
<path d="M240.154 165.323L239.73 163.116C239.687 162.895 239.505 162.727 239.28 162.705L228.891 161.651C228.541 161.615 228.261 161.936 228.343 162.278L229.004 165.028C229.057 165.248 229.248 165.407 229.474 165.418L239.627 165.929C239.958 165.945 240.216 165.648 240.154 165.323Z" fill="url(#paint37_linear_4553_94174)"/>
<path d="M252.341 183.362C252.341 183.362 253.329 179.298 252.931 177.856C252.532 176.414 251.76 174.56 249.185 174.972C246.61 175.384 243.573 176.469 243.573 176.469C243.573 176.469 243.726 178.347 245.683 177.741L244.47 178.68C244.47 178.68 244.643 180.184 246.296 179.38L245.167 180.625C245.167 180.625 245.877 181.86 247.093 181.068C248.309 180.276 248.892 183.851 252.341 183.362Z" fill="url(#paint38_linear_4553_94174)"/>
<path d="M253.849 143.445L257.793 154.851C257.858 155.04 257.781 155.249 257.606 155.346C256.531 155.94 252.657 157.659 247.989 154.699C247.503 154.391 247.172 153.888 247.098 153.317L245.821 143.445H253.849Z" fill="url(#paint39_linear_4553_94174)"/>
<path d="M241.778 132.516C241.778 132.516 238.447 140.168 238.223 144.185C237.999 148.201 237.134 150.808 241.778 151.616C246.422 152.425 250.334 150.111 252.454 146.111C252.454 146.111 255.775 139.946 255.03 137.422C254.285 134.896 241.778 132.516 241.778 132.516Z" fill="url(#paint40_linear_4553_94174)"/>
<path d="M250.867 143.237L250.603 143.12C250.266 142.972 250.122 142.571 250.292 142.244C250.947 140.979 252.224 138.079 250.574 137.403C248.449 136.531 240.029 134.814 238.213 131.827C236.467 128.956 238.014 125.25 240.339 124.195C240.495 124.124 240.678 124.18 240.758 124.331L240.952 124.698C241.085 124.949 241.455 124.911 241.534 124.638C241.61 124.376 241.958 124.326 242.102 124.557C242.66 125.451 244.168 126.9 248.199 127.644C253.928 128.701 257.716 131.02 257.81 134.979C257.816 135.231 258.084 135.37 258.298 135.239C258.721 134.981 259.398 134.86 260.303 135.621C261.876 136.944 261.233 140.376 257.783 143.199C257.619 143.333 257.621 143.589 257.798 143.704C258.423 144.111 259.356 145.08 256.94 146.371C254.442 147.706 252.576 147.597 251.858 147.478C251.679 147.448 251.564 147.275 251.603 147.099L252.37 143.619C252.413 143.422 252.263 143.236 252.062 143.236H250.867V143.237Z" fill="url(#paint41_linear_4553_94174)"/>
<path d="M250.723 143.971C250.723 143.971 251.994 139.083 254.185 140.453C256.377 141.824 253.048 145.93 251.286 146.113L250.723 143.971Z" fill="url(#paint42_linear_4553_94174)"/>
</g>
<defs>
<linearGradient id="paint0_linear_4553_94174" x1="301.684" y1="310.414" x2="112.909" y2="109.461" gradientUnits="userSpaceOnUse">
<stop stop-color="#DAE3FE"/>
<stop offset="1" stop-color="#E9EFFD"/>
</linearGradient>
<linearGradient id="paint1_linear_4553_94174" x1="160.56" y1="198.807" x2="133.77" y2="312.837" gradientUnits="userSpaceOnUse">
<stop stop-color="#09005D"/>
<stop offset="1" stop-color="#1A0F91"/>
</linearGradient>
<linearGradient id="paint2_linear_4553_94174" x1="147.264" y1="10.5486" x2="138.335" y2="223.494" gradientUnits="userSpaceOnUse">
<stop stop-color="#09005D"/>
<stop offset="1" stop-color="#1A0F91"/>
</linearGradient>
<linearGradient id="paint3_linear_4553_94174" x1="146.479" y1="184.653" x2="147.853" y2="268.457" gradientUnits="userSpaceOnUse">
<stop stop-color="#09005D"/>
<stop offset="1" stop-color="#1A0F91"/>
</linearGradient>
<linearGradient id="paint4_linear_4553_94174" x1="157.548" y1="148.853" x2="186.056" y2="93.2121" gradientUnits="userSpaceOnUse">
<stop stop-color="#4F52FF"/>
<stop offset="1" stop-color="#4042E2"/>
</linearGradient>
<linearGradient id="paint5_linear_4553_94174" x1="170.165" y1="155.322" x2="198.673" y2="99.6809" gradientUnits="userSpaceOnUse">
<stop stop-color="#4F52FF"/>
<stop offset="1" stop-color="#4042E2"/>
</linearGradient>
<linearGradient id="paint6_linear_4553_94174" x1="168.45" y1="154.441" x2="196.958" y2="98.8001" gradientUnits="userSpaceOnUse">
<stop stop-color="#4F52FF"/>
<stop offset="1" stop-color="#4042E2"/>
</linearGradient>
<linearGradient id="paint7_linear_4553_94174" x1="190.681" y1="165.829" x2="219.189" y2="110.189" gradientUnits="userSpaceOnUse">
<stop stop-color="#4F52FF"/>
<stop offset="1" stop-color="#4042E2"/>
</linearGradient>
<linearGradient id="paint8_linear_4553_94174" x1="187.846" y1="164.374" x2="216.353" y2="108.733" gradientUnits="userSpaceOnUse">
<stop stop-color="#4F52FF"/>
<stop offset="1" stop-color="#4042E2"/>
</linearGradient>
<linearGradient id="paint9_linear_4553_94174" x1="199.047" y1="170.117" x2="227.554" y2="114.476" gradientUnits="userSpaceOnUse">
<stop stop-color="#4F52FF"/>
<stop offset="1" stop-color="#4042E2"/>
</linearGradient>
<linearGradient id="paint10_linear_4553_94174" x1="210.485" y1="175.974" x2="238.992" y2="120.333" gradientUnits="userSpaceOnUse">
<stop stop-color="#4F52FF"/>
<stop offset="1" stop-color="#4042E2"/>
</linearGradient>
<linearGradient id="paint11_linear_4553_94174" x1="104.967" y1="5.66138" x2="18.7576" y2="133.429" gradientUnits="userSpaceOnUse">
<stop stop-color="#FF928E"/>
<stop offset="1" stop-color="#FE7062"/>
</linearGradient>
<linearGradient id="paint12_linear_4553_94174" x1="129.311" y1="22.0875" x2="43.1022" y2="149.855" gradientUnits="userSpaceOnUse">
<stop stop-color="#FF928E"/>
<stop offset="1" stop-color="#FE7062"/>
</linearGradient>
<linearGradient id="paint13_linear_4553_94174" x1="159.437" y1="42.4096" x2="73.228" y2="170.177" gradientUnits="userSpaceOnUse">
<stop stop-color="#FF928E"/>
<stop offset="1" stop-color="#FE7062"/>
</linearGradient>
<linearGradient id="paint14_linear_4553_94174" x1="46.8579" y1="150.925" x2="35.0082" y2="186.75" gradientUnits="userSpaceOnUse">
<stop stop-color="#FEBBBA"/>
<stop offset="1" stop-color="#FF928E"/>
</linearGradient>
<linearGradient id="paint15_linear_4553_94174" x1="55.2057" y1="165.274" x2="47.3995" y2="188.874" gradientUnits="userSpaceOnUse">
<stop stop-color="#FEBBBA"/>
<stop offset="1" stop-color="#FF928E"/>
</linearGradient>
<linearGradient id="paint16_linear_4553_94174" x1="67.7465" y1="152.398" x2="59.9404" y2="175.998" gradientUnits="userSpaceOnUse">
<stop stop-color="#FEBBBA"/>
<stop offset="1" stop-color="#FF928E"/>
</linearGradient>
<linearGradient id="paint17_linear_4553_94174" x1="80.4044" y1="165.687" x2="72.5983" y2="189.287" gradientUnits="userSpaceOnUse">
<stop stop-color="#FEBBBA"/>
<stop offset="1" stop-color="#FF928E"/>
</linearGradient>
<linearGradient id="paint18_linear_4553_94174" x1="98.8328" y1="145.883" x2="91.0267" y2="169.483" gradientUnits="userSpaceOnUse">
<stop stop-color="#FEBBBA"/>
<stop offset="1" stop-color="#FF928E"/>
</linearGradient>
<linearGradient id="paint19_linear_4553_94174" x1="111.933" y1="159.093" x2="104.127" y2="182.693" gradientUnits="userSpaceOnUse">
<stop stop-color="#4F52FF"/>
<stop offset="1" stop-color="#4042E2"/>
</linearGradient>
<linearGradient id="paint20_linear_4553_94174" x1="230.418" y1="138.459" x2="255.773" y2="138.459" gradientUnits="userSpaceOnUse">
<stop stop-color="#DAE3FE"/>
<stop offset="1" stop-color="#E9EFFD"/>
</linearGradient>
<linearGradient id="paint21_linear_4553_94174" x1="230.363" y1="97.7088" x2="255.718" y2="97.7088" gradientUnits="userSpaceOnUse">
<stop stop-color="#DAE3FE"/>
<stop offset="1" stop-color="#E9EFFD"/>
</linearGradient>
<linearGradient id="paint22_linear_4553_94174" x1="257.805" y1="165.66" x2="218.568" y2="202.897" gradientUnits="userSpaceOnUse">
<stop stop-color="#FDF53F"/>
<stop offset="1" stop-color="#D93C65"/>
</linearGradient>
<linearGradient id="paint23_linear_4553_94174" x1="230.814" y1="266.547" x2="283.645" y2="324.013" gradientUnits="userSpaceOnUse">
<stop stop-color="#09005D"/>
<stop offset="1" stop-color="#1A0F91"/>
</linearGradient>
<linearGradient id="paint24_linear_4553_94174" x1="247.962" y1="270.816" x2="243.269" y2="270.816" gradientUnits="userSpaceOnUse">
<stop stop-color="#FEBBBA"/>
<stop offset="1" stop-color="#FF928E"/>
</linearGradient>
<linearGradient id="paint25_linear_4553_94174" x1="259.089" y1="234.932" x2="243.573" y2="234.932" gradientUnits="userSpaceOnUse">
<stop stop-color="#4F52FF"/>
<stop offset="1" stop-color="#4042E2"/>
</linearGradient>
<linearGradient id="paint26_linear_4553_94174" x1="242.666" y1="255.652" x2="295.497" y2="313.118" gradientUnits="userSpaceOnUse">
<stop stop-color="#09005D"/>
<stop offset="1" stop-color="#1A0F91"/>
</linearGradient>
<linearGradient id="paint27_linear_4553_94174" x1="264.875" y1="270.574" x2="260.823" y2="270.574" gradientUnits="userSpaceOnUse">
<stop stop-color="#FEBBBA"/>
<stop offset="1" stop-color="#FF928E"/>
</linearGradient>
<linearGradient id="paint28_linear_4553_94174" x1="218.546" y1="332.725" x2="315.581" y2="282.269" gradientUnits="userSpaceOnUse">
<stop stop-color="#4F52FF"/>
<stop offset="1" stop-color="#4042E2"/>
</linearGradient>
<linearGradient id="paint29_linear_4553_94174" x1="-76.5835" y1="364.727" x2="-19.6213" y2="306.976" gradientUnits="userSpaceOnUse">
<stop stop-color="#FF928E"/>
<stop offset="1" stop-color="#FE7062"/>
</linearGradient>
<linearGradient id="paint30_linear_4553_94174" x1="228.651" y1="148.392" x2="204.677" y2="148.392" gradientUnits="userSpaceOnUse">
<stop stop-color="#FEBBBA"/>
<stop offset="1" stop-color="#FF928E"/>
</linearGradient>
<linearGradient id="paint31_linear_4553_94174" x1="210.018" y1="144.37" x2="226.105" y2="180.973" gradientUnits="userSpaceOnUse">
<stop stop-color="#FEBBBA"/>
<stop offset="1" stop-color="#FF928E"/>
</linearGradient>
<linearGradient id="paint32_linear_4553_94174" x1="204.792" y1="132.182" x2="198.079" y2="121.862" gradientUnits="userSpaceOnUse">
<stop stop-color="#FEBBBA"/>
<stop offset="1" stop-color="#FF928E"/>
</linearGradient>
<linearGradient id="paint33_linear_4553_94174" x1="143.145" y1="240.143" x2="165.408" y2="217.153" gradientUnits="userSpaceOnUse">
<stop stop-color="#FF928E"/>
<stop offset="1" stop-color="#FE7062"/>
</linearGradient>
<linearGradient id="paint34_linear_4553_94174" x1="281.112" y1="182.347" x2="250.772" y2="182.347" gradientUnits="userSpaceOnUse">
<stop stop-color="#FEBBBA"/>
<stop offset="1" stop-color="#FF928E"/>
</linearGradient>
<linearGradient id="paint35_linear_4553_94174" x1="241.594" y1="160.773" x2="224.911" y2="230.285" gradientUnits="userSpaceOnUse">
<stop stop-color="#09005D"/>
<stop offset="1" stop-color="#1A0F91"/>
</linearGradient>
<linearGradient id="paint36_linear_4553_94174" x1="231.148" y1="149.818" x2="234.701" y2="165.42" gradientUnits="userSpaceOnUse">
<stop stop-color="#4F52FF"/>
<stop offset="1" stop-color="#4042E2"/>
</linearGradient>
<linearGradient id="paint37_linear_4553_94174" x1="233.008" y1="156.359" x2="234.708" y2="166.555" gradientUnits="userSpaceOnUse">
<stop stop-color="#4F52FF"/>
<stop offset="1" stop-color="#4042E2"/>
</linearGradient>
<linearGradient id="paint38_linear_4553_94174" x1="253.025" y1="179.161" x2="243.573" y2="179.161" gradientUnits="userSpaceOnUse">
<stop stop-color="#FEBBBA"/>
<stop offset="1" stop-color="#FF928E"/>
</linearGradient>
<linearGradient id="paint39_linear_4553_94174" x1="257.816" y1="149.914" x2="245.82" y2="149.914" gradientUnits="userSpaceOnUse">
<stop stop-color="#FEBBBA"/>
<stop offset="1" stop-color="#FF928E"/>
</linearGradient>
<linearGradient id="paint40_linear_4553_94174" x1="241.08" y1="139.251" x2="260.123" y2="153.822" gradientUnits="userSpaceOnUse">
<stop stop-color="#FEBBBA"/>
<stop offset="1" stop-color="#FF928E"/>
</linearGradient>
<linearGradient id="paint41_linear_4553_94174" x1="261.116" y1="135.854" x2="237.463" y2="135.854" gradientUnits="userSpaceOnUse">
<stop stop-color="#09005D"/>
<stop offset="1" stop-color="#1A0F91"/>
</linearGradient>
<linearGradient id="paint42_linear_4553_94174" x1="243.442" y1="136.167" x2="262.485" y2="150.738" gradientUnits="userSpaceOnUse">
<stop stop-color="#FEBBBA"/>
<stop offset="1" stop-color="#FF928E"/>
</linearGradient>
<clipPath id="clip0_4553_94174">
<rect width="283.571" height="280" fill="white" transform="translate(0.213623)"/>
</clipPath>
</defs>
</svg>
