<svg width="278" height="280" viewBox="0 0 278 280" fill="none" xmlns="http://www.w3.org/2000/svg">
<g clip-path="url(#clip0_4553_94432)">
<path d="M265.586 189.483C238.768 252.628 167.332 288.001 105.382 278.459C95.3022 276.907 67.6663 272.281 43.1983 250.461C-3.90316 208.456 -13.9763 125.28 24.0199 66.6638C51.6739 24.0025 101.246 -0.181303 148.351 1.02764C158.497 1.2877 197.381 2.89426 231.554 31.0724C236.573 35.2113 247.644 45.0465 257.621 60.6482C281.05 97.2859 283.063 148.33 265.586 189.483Z" fill="url(#paint0_linear_4553_94432)"/>
<g opacity="0.3">
<path d="M171.396 42.2352C170.849 42.2131 170.423 41.7512 170.446 41.204C170.489 40.1406 170.488 39.0602 170.44 37.9908C170.416 37.4496 170.83 36.9918 171.368 36.9576C171.374 36.9576 171.381 36.9566 171.387 36.9566C171.934 36.9325 172.397 37.3563 172.421 37.9035C172.471 39.0281 172.473 40.1667 172.427 41.2853C172.406 41.7974 172 42.202 171.5 42.2342C171.466 42.2362 171.431 42.2372 171.396 42.2352ZM169.853 32.8047C169.66 31.7534 169.421 30.6991 169.141 29.6729C168.997 29.1447 169.308 28.5995 169.837 28.4549C170.368 28.3123 170.91 28.6226 171.055 29.1517C171.349 30.2321 171.601 31.3407 171.804 32.4472C171.902 32.9864 171.546 33.5025 171.006 33.6009C170.967 33.6079 170.928 33.613 170.89 33.615C170.395 33.6471 169.944 33.3037 169.853 32.8047ZM167.422 24.7477C167.001 23.7677 166.533 22.7948 166.029 21.8539C165.771 21.3709 165.953 20.7695 166.436 20.5114C166.919 20.2534 167.519 20.4351 167.778 20.9181C168.308 21.9081 168.801 22.9333 169.244 23.9655C169.46 24.4686 169.227 25.052 168.724 25.2679C168.617 25.3141 168.506 25.3392 168.396 25.3462C167.989 25.3723 167.591 25.1434 167.422 24.7477ZM163.251 17.4359C162.621 16.5733 161.946 15.7289 161.245 14.9246C160.886 14.5119 160.929 13.8854 161.342 13.5249C161.756 13.1654 162.381 13.2086 162.742 13.6213C163.479 14.4677 164.189 15.3574 164.852 16.2641C165.176 16.7059 165.079 17.3264 164.636 17.6497C164.478 17.7652 164.297 17.8275 164.115 17.8385C163.788 17.8606 163.458 17.72 163.251 17.4359ZM157.554 11.2365C156.751 10.5377 155.906 9.86292 155.043 9.23235C154.601 8.90903 154.505 8.28849 154.828 7.84669C155.152 7.40388 155.772 7.30849 156.214 7.63181C157.122 8.29552 158.011 9.00542 158.857 9.74042C159.27 10.0999 159.314 10.7265 158.954 11.1391C158.773 11.347 158.524 11.4615 158.268 11.4785C158.016 11.4936 157.759 11.4143 157.554 11.2365ZM150.628 6.45098C149.688 5.94592 148.715 5.476 147.736 5.05227C147.233 4.83538 147.002 4.25099 147.219 3.74894C147.436 3.24589 148.02 3.01494 148.523 3.23183C149.555 3.67765 150.579 4.17267 151.567 4.70384C152.049 4.9629 152.231 5.56436 151.972 6.04733C151.803 6.36061 151.491 6.54637 151.159 6.56746C150.982 6.5785 150.798 6.54236 150.628 6.45098ZM113.803 5.9891C113.545 5.50612 113.727 4.90466 114.211 4.64761C115.201 4.11946 116.229 3.62745 117.263 3.18564C117.767 2.97076 118.349 3.20472 118.564 3.70778C118.779 4.21083 118.545 4.79421 118.042 5.00909C117.06 5.42881 116.085 5.89571 115.145 6.39676C115.017 6.46504 114.879 6.5032 114.741 6.51123C114.365 6.53734 113.991 6.34354 113.803 5.9891ZM142.819 3.3222C141.791 3.03904 140.739 2.79705 139.69 2.60427C139.152 2.50486 138.796 1.98674 138.895 1.44854C138.995 0.909341 139.512 0.556901 140.051 0.653295C141.154 0.857128 142.263 1.11217 143.345 1.41039C143.873 1.55598 144.184 2.10121 144.038 2.63037C143.923 3.04908 143.555 3.33124 143.144 3.35734C143.038 3.36337 142.928 3.35232 142.819 3.3222ZM121.755 2.60226C121.613 2.0741 121.925 1.52887 122.454 1.38629C123.537 1.0941 124.647 0.844075 125.753 0.643254C126.293 0.542844 126.809 0.903317 126.906 1.44252C127.004 1.98172 126.646 2.49783 126.107 2.59523C125.056 2.78601 124.001 3.02298 122.972 3.30111C122.907 3.31919 122.841 3.32923 122.775 3.33324C122.313 3.36236 121.881 3.06515 121.755 2.60226ZM134.507 2.01787C133.443 1.97168 132.362 1.97168 131.295 2.01687C130.748 2.03996 130.285 1.61523 130.262 1.06799C130.239 0.527782 130.652 0.0699116 131.19 0.0367762C131.197 0.0367762 131.204 0.0357721 131.211 0.0357721C132.333 -0.0124248 133.471 -0.0114207 134.592 0.0357721C135.139 0.0598706 135.564 0.521758 135.539 1.06899C135.517 1.58008 135.112 1.98474 134.613 2.01586C134.579 2.01887 134.543 2.01887 134.507 2.01787Z" fill="#91B3FA"/>
<path d="M108.917 10.3335C109.112 10.3215 109.306 10.2512 109.471 10.1206C109.871 9.80234 110.285 9.48806 110.701 9.18382C111.144 8.8615 111.24 8.24096 110.918 7.79816C110.595 7.35535 109.974 7.25795 109.532 7.58227C109.095 7.90158 108.659 8.23193 108.238 8.5673C107.809 8.90769 107.737 9.53224 108.077 9.96099C108.287 10.2251 108.605 10.3536 108.917 10.3335Z" fill="#91B3FA"/>
</g>
<g opacity="0.3">
<path d="M94.4597 36.8851C94.9376 36.855 95.3363 36.4815 95.3835 35.9905C95.4317 35.4814 95.4919 34.9653 95.5622 34.4552C95.6365 33.912 95.258 33.4119 94.7147 33.3376C94.1695 33.2623 93.6715 33.6429 93.5972 34.1851C93.5239 34.7213 93.4596 35.2655 93.4084 35.8017C93.3562 36.3469 93.7558 36.8309 94.301 36.8831C94.3553 36.8881 94.4075 36.8891 94.4597 36.8851Z" fill="#91B3FA"/>
<path d="M133.363 79.2243C132.816 79.2324 132.365 78.7946 132.357 78.2463C132.349 77.6991 132.787 77.2493 133.334 77.2402C134.377 77.2252 135.435 77.1659 136.492 77.0625C137.034 77.0083 137.522 77.4089 137.576 77.9541C137.629 78.4994 137.23 78.9843 136.685 79.0376C136.227 79.0817 135.77 79.1189 135.315 79.148C134.665 79.1902 134.009 79.2153 133.363 79.2243ZM140.823 77.4149C140.696 76.8818 141.027 76.3476 141.559 76.2211C142.582 75.9781 143.606 75.6899 144.602 75.3636C145.122 75.1919 145.683 75.477 145.854 75.9971C146.024 76.5173 145.74 77.0776 145.22 77.2482C144.171 77.5917 143.093 77.8959 142.016 78.1509C141.96 78.164 141.904 78.172 141.849 78.176C141.376 78.2062 140.935 77.8919 140.823 77.4149ZM127.967 78.9321C126.872 78.7966 125.767 78.6128 124.685 78.3859C124.149 78.2734 123.805 77.7473 123.919 77.2111C124.031 76.6749 124.557 76.3325 125.094 76.445C126.122 76.6619 127.17 76.8356 128.21 76.9641C128.754 77.0314 129.14 77.5264 129.074 78.0696C129.015 78.5506 128.62 78.908 128.153 78.9382C128.092 78.9412 128.03 78.9402 127.967 78.9321ZM148.904 74.7601C148.664 74.2681 148.868 73.6736 149.36 73.4337C150.304 72.9728 151.239 72.4667 152.139 71.9285C152.61 71.6474 153.219 71.801 153.499 72.2709C153.78 72.7408 153.626 73.3493 153.156 73.6305C152.207 74.1968 151.223 74.731 150.229 75.216C150.109 75.2742 149.983 75.3073 149.858 75.3154C149.469 75.3405 149.086 75.1326 148.904 74.7601ZM119.489 76.9129C118.451 76.5404 117.414 76.1186 116.408 75.6578C115.91 75.4298 115.691 74.8424 115.918 74.3434C116.146 73.8453 116.735 73.6255 117.233 73.8534C118.188 74.2902 119.173 74.6918 120.159 75.0452C120.675 75.23 120.942 75.7983 120.757 76.3134C120.619 76.698 120.269 76.944 119.886 76.9681C119.756 76.9781 119.62 76.9601 119.489 76.9129ZM111.659 73.0842C110.725 72.4928 109.805 71.8542 108.926 71.1875C108.489 70.8561 108.404 70.2346 108.734 69.7978C109.065 69.361 109.687 69.2747 110.124 69.606C110.96 70.2396 111.834 70.8461 112.721 71.4084C113.184 71.7016 113.322 72.3141 113.028 72.777C112.852 73.0561 112.558 73.2168 112.253 73.2359C112.05 73.2489 111.843 73.2007 111.659 73.0842ZM104.849 67.639C104.066 66.8578 103.307 66.0344 102.594 65.193C102.239 64.7753 102.292 64.1497 102.709 63.7953C103.128 63.4408 103.753 63.4931 104.107 63.9108C104.785 64.711 105.506 65.4922 106.25 66.2353C106.637 66.6218 106.638 67.2504 106.251 67.638C106.073 67.8157 105.845 67.9121 105.612 67.9272C105.339 67.9442 105.059 67.8478 104.849 67.639ZM99.3897 60.8382C98.7962 59.9044 98.236 58.9344 97.7249 57.9554C97.4708 57.4704 97.6596 56.871 98.1446 56.617C98.6296 56.3639 99.229 56.5517 99.483 57.0367C99.969 57.9665 100.5 58.8872 101.065 59.7739C101.359 60.2357 101.222 60.8493 100.759 61.1425C100.614 61.2348 100.452 61.285 100.291 61.2951C99.9409 61.3192 99.5905 61.1555 99.3897 60.8382ZM95.556 53.0002C95.1845 51.9609 94.8521 50.8926 94.568 49.8242C94.4274 49.295 94.7427 48.7518 95.2718 48.6112C95.8 48.4717 96.3442 48.786 96.4848 49.3151C96.7539 50.3303 97.0702 51.3454 97.4236 52.3325C97.6084 52.8476 97.3403 53.4159 96.8242 53.6006C96.7348 53.6328 96.6434 53.6518 96.5521 53.6569C96.1223 53.684 95.7086 53.4259 95.556 53.0002ZM93.5388 44.5205C93.4383 43.7132 93.361 42.8939 93.3088 42.0836C93.2897 41.7904 93.2747 41.4972 93.2626 41.205C93.2395 40.6578 93.6572 40.1858 94.2125 40.1728C94.7598 40.1497 95.2216 40.5754 95.2447 41.1227C95.2568 41.3998 95.2708 41.6789 95.2889 41.9571C95.3381 42.7272 95.4114 43.5064 95.5068 44.2735C95.5751 44.8167 95.1895 45.3128 94.6463 45.38C94.6262 45.3821 94.6051 45.3851 94.585 45.3861C94.0649 45.4202 93.604 45.0437 93.5388 44.5205Z" fill="#91B3FA"/>
<path d="M157.059 70.7498C157.255 70.7378 157.45 70.6665 157.616 70.5339C158.035 70.1976 158.454 69.8471 158.863 69.4897C159.276 69.1292 159.319 68.5026 158.958 68.09C158.598 67.6773 157.972 67.6341 157.559 67.9946C157.17 68.3329 156.771 68.6663 156.374 68.9856C155.947 69.328 155.878 69.9526 156.22 70.3793C156.432 70.6424 156.747 70.7699 157.059 70.7498Z" fill="#91B3FA"/>
</g>
<path d="M158.932 53.8529C159.048 53.6922 159.048 53.4764 158.933 53.3147L155.666 48.7159C156.67 46.28 157.292 43.6663 157.471 40.9612L162.428 38.2763C162.602 38.1819 162.698 37.9881 162.665 37.7933L161.558 31.118C161.526 30.9232 161.373 30.7696 161.178 30.7364L155.62 29.7956C154.577 27.2924 153.145 25.0201 151.408 23.039L153.016 17.6319C153.072 17.4421 153.002 17.2383 152.841 17.1228L147.338 13.1847C147.177 13.0693 146.961 13.0693 146.8 13.1837L142.201 16.4511C139.765 15.447 137.151 14.8244 134.446 14.6457L131.761 9.68845C131.667 9.51475 131.473 9.41936 131.278 9.45149L124.602 10.559C124.407 10.5911 124.253 10.7438 124.22 10.9386L123.279 16.4973C120.776 17.5395 118.504 18.9724 116.523 20.7085L111.116 19.1009C110.926 19.0447 110.722 19.115 110.607 19.2756L106.669 24.7791C106.553 24.9398 106.553 25.1556 106.668 25.3173L109.935 29.9161C108.931 32.3521 108.308 34.9657 108.13 37.6708L103.172 40.3558C102.999 40.4501 102.903 40.6439 102.935 40.8387L104.043 47.515C104.075 47.7098 104.228 47.8634 104.422 47.8966L109.981 48.8374C111.023 51.3406 112.456 53.6129 114.192 55.594L112.585 61.0011C112.529 61.1909 112.599 61.3947 112.76 61.5102L118.263 65.4483C118.424 65.5637 118.64 65.5637 118.801 65.4493L123.4 62.1819C125.836 63.186 128.45 63.8086 131.155 63.9873L133.84 68.9446C133.934 69.1183 134.128 69.2137 134.323 69.1805L140.999 68.073C141.194 68.0409 141.347 67.8882 141.38 67.6934L142.321 62.1347C144.825 61.0925 147.097 59.6596 149.078 57.9235L154.485 59.5311C154.675 59.5873 154.879 59.517 154.994 59.3564L158.932 53.8529Z" fill="#91B3FA"/>
<path d="M132.236 46.0962C128.499 45.785 125.71 42.4925 126.021 38.7542C126.171 36.9438 127.018 35.3001 128.404 34.1263C129.791 32.9525 131.551 32.3882 133.363 32.5398C137.1 32.8511 139.888 36.1436 139.578 39.8818C139.295 43.2827 136.544 45.8964 133.235 46.1073C132.907 46.1274 132.573 46.1243 132.236 46.0962ZM129.431 35.3373C128.367 36.2369 127.719 37.4971 127.603 38.8858C127.365 41.7515 129.503 44.2768 132.369 44.5148C135.235 44.7537 137.76 42.615 137.998 39.7493C138.236 36.8836 136.098 34.3583 133.232 34.1203C132.972 34.0992 132.714 34.0962 132.459 34.1123C131.348 34.1836 130.294 34.6053 129.431 35.3373Z" fill="#BDD0FB"/>
<path d="M133.719 55.9146C134.287 55.8784 134.857 55.8132 135.427 55.7188C135.606 55.6897 135.785 55.6565 135.963 55.6214C136.842 55.4467 137.705 55.2017 138.541 54.8914C138.552 54.8874 138.564 54.8834 138.575 54.8784C138.607 54.8663 138.639 54.8543 138.671 54.8412C138.734 54.8171 138.797 54.793 138.859 54.7679C139.023 54.7036 139.12 54.541 139.109 54.3743C139.106 54.3341 139.097 54.293 139.082 54.2528C139.002 54.049 138.771 53.9496 138.567 54.0299C137.519 54.4446 136.418 54.7488 135.297 54.9346C129.728 55.8594 124.344 53.7598 120.825 49.8428C118.867 47.6639 117.488 44.9217 116.975 41.824C116.884 41.2808 116.822 40.7366 116.788 40.1954C116.557 36.5475 117.579 32.9608 119.735 29.9475C122.211 26.4864 125.887 24.197 130.085 23.5012C138.756 22.0643 146.972 27.9453 148.409 36.6117C148.497 37.1459 148.559 37.6831 148.593 38.2203C148.74 40.5478 148.377 42.8813 147.52 45.0522C147.498 45.1084 147.49 45.1667 147.493 45.2229C147.502 45.3715 147.596 45.5091 147.743 45.5673C147.947 45.6466 148.178 45.5482 148.258 45.3434C149.157 43.0641 149.54 40.6141 149.385 38.1711C149.35 37.6078 149.286 37.0435 149.192 36.4832C147.683 27.385 139.052 21.2108 129.956 22.719C125.549 23.4499 121.69 25.8538 119.09 29.4866C116.827 32.6495 115.754 36.4149 115.997 40.2446C116.033 40.8139 116.098 41.3842 116.192 41.9546C116.923 46.3626 119.327 50.2213 122.96 52.8209C126.121 55.0852 129.888 56.1586 133.719 55.9146Z" fill="#BDD0FB"/>
<g opacity="0.3">
<path d="M206.932 66.1729C207.196 66.1559 207.429 65.9681 207.49 65.696C207.605 65.1889 207.706 64.6708 207.79 64.1577C207.844 63.8244 207.618 63.5091 207.283 63.4538C206.949 63.3976 206.635 63.6255 206.58 63.9599C206.499 64.4489 206.404 64.9429 206.294 65.4269C206.22 65.7562 206.427 66.0846 206.757 66.1589C206.817 66.1729 206.875 66.177 206.932 66.1729Z" fill="#91B3FA"/>
<path d="M207.481 61.498C207.143 61.485 206.88 61.2008 206.893 60.8624C206.925 60.0089 206.915 59.1444 206.861 58.2929C206.85 58.1132 206.836 57.9335 206.821 57.7527C206.792 57.4164 207.042 57.1191 207.38 57.091C207.699 57.077 208.013 57.3129 208.042 57.6503C208.058 57.8391 208.072 58.0278 208.084 58.2156C208.14 59.1083 208.152 60.015 208.118 60.9106C208.106 61.2269 207.855 61.4789 207.545 61.498C207.523 61.498 207.502 61.499 207.481 61.498ZM206.369 54.6741C206.157 53.661 205.88 52.6519 205.546 51.6749C205.437 51.3546 205.608 51.0072 205.928 50.8977C206.246 50.7893 206.597 50.959 206.705 51.2793C207.056 52.3035 207.345 53.3608 207.568 54.4231C207.637 54.7545 207.425 55.0788 207.094 55.1481C207.065 55.1541 207.035 55.1581 207.006 55.1591C206.707 55.1792 206.432 54.9754 206.369 54.6741ZM204.359 48.7991C203.907 47.8703 203.391 46.9596 202.825 46.0931C202.64 45.8099 202.721 45.4304 203.004 45.2456C203.288 45.0609 203.667 45.1402 203.851 45.4234C204.445 46.3321 204.986 47.287 205.461 48.2609C205.61 48.5652 205.483 48.9317 205.179 49.0803C205.105 49.1164 205.027 49.1365 204.949 49.1405C204.709 49.1576 204.471 49.0291 204.359 48.7991ZM200.967 43.5979C200.299 42.8077 199.575 42.0506 198.817 41.3507C198.568 41.1208 198.553 40.7332 198.783 40.4852C199.012 40.2372 199.399 40.2211 199.648 40.451C200.443 41.186 201.202 41.9783 201.902 42.8077C202.121 43.0657 202.088 43.4523 201.83 43.6712C201.726 43.7585 201.601 43.8057 201.475 43.8138C201.287 43.8258 201.097 43.7525 200.967 43.5979ZM196.408 39.3827C195.568 38.7782 194.683 38.2209 193.777 37.7249C193.481 37.5622 193.372 37.1907 193.534 36.8935C193.697 36.5963 194.068 36.4868 194.366 36.6505C195.316 37.1706 196.243 37.755 197.124 38.3876C197.398 38.5854 197.461 38.968 197.263 39.2421C197.152 39.3967 196.981 39.4851 196.805 39.4961C196.668 39.5052 196.527 39.468 196.408 39.3827ZM190.964 36.4015C190.003 36.0199 189.01 35.6956 188.011 35.4365C187.683 35.3522 187.487 35.0168 187.572 34.6905C187.657 34.3632 187.99 34.1674 188.319 34.2507C189.366 34.5218 190.408 34.8632 191.417 35.2628C191.731 35.3884 191.885 35.7438 191.76 36.0581C191.67 36.286 191.458 36.4296 191.229 36.4437C191.14 36.4487 191.05 36.4356 190.964 36.4015ZM184.958 34.8431C183.936 34.7096 182.893 34.6383 181.856 34.6323C181.517 34.6303 181.245 34.3541 181.247 34.0157C181.249 33.6774 181.524 33.4103 181.864 33.4062C182.951 33.4133 184.045 33.4876 185.117 33.6282C185.452 33.6723 185.689 33.9796 185.645 34.315C185.607 34.6102 185.364 34.8281 185.077 34.8471C185.038 34.8491 184.998 34.8481 184.958 34.8431ZM174.947 34.9054C174.867 34.577 175.069 34.2457 175.397 34.1654C176.307 33.9434 177.245 33.7677 178.182 33.6432C178.324 33.6231 178.466 33.6061 178.608 33.589C178.942 33.5398 179.249 33.7908 179.287 34.1272C179.326 34.4636 179.085 34.7668 178.749 34.806C178.615 34.821 178.482 34.8381 178.346 34.8572C177.45 34.9767 176.555 35.1444 175.687 35.3552C175.651 35.3643 175.616 35.3693 175.581 35.3713C175.29 35.3904 175.019 35.1976 174.947 34.9054Z" fill="#91B3FA"/>
</g>
<g opacity="0.3">
<path d="M182.985 86.2925C181.919 86.3467 180.84 86.3347 179.779 86.2604C179.442 86.2363 179.188 85.9441 179.212 85.6057C179.236 85.2683 179.531 85.0173 179.866 85.0384C180.879 85.1097 181.908 85.1207 182.925 85.0695C183.262 85.0524 183.55 85.3125 183.568 85.6499C183.585 85.9852 183.329 86.2714 182.995 86.2925C182.994 86.2915 182.988 86.2915 182.985 86.2925ZM185.467 85.438C185.41 85.1046 185.634 84.7884 185.967 84.7311C186.97 84.5584 187.973 84.3235 188.948 84.0323C189.27 83.9369 189.613 84.1196 189.71 84.444C189.807 84.7683 189.622 85.1087 189.298 85.2061C188.277 85.5113 187.227 85.7573 186.175 85.9381C186.153 85.9421 186.131 85.9441 186.109 85.9461C185.801 85.9652 185.521 85.7503 185.467 85.438ZM176.598 85.8376C175.55 85.6318 174.506 85.3607 173.493 85.0313C173.172 84.9269 172.995 84.5805 173.101 84.2592C173.205 83.9369 173.55 83.7622 173.873 83.8666C174.838 84.1809 175.834 84.4399 176.834 84.6367C177.166 84.702 177.382 85.0243 177.317 85.3557C177.262 85.6348 177.026 85.8316 176.755 85.8497C176.704 85.8517 176.651 85.8487 176.598 85.8376ZM191.504 83.7843C191.368 83.475 191.509 83.1135 191.819 82.977C192.751 82.5683 193.667 82.0984 194.541 81.5792C194.833 81.4075 195.208 81.5029 195.381 81.7931C195.554 82.0843 195.457 82.4598 195.167 82.6325C194.25 83.1768 193.289 83.6698 192.312 84.0985C192.245 84.1277 192.175 84.1447 192.105 84.1487C191.853 84.1658 191.609 84.0262 191.504 83.7843ZM170.512 83.8545C169.546 83.4037 168.598 82.8896 167.694 82.3253C167.407 82.1466 167.319 81.768 167.498 81.4808C167.677 81.1937 168.054 81.1053 168.342 81.285C169.205 81.8232 170.11 82.3142 171.031 82.744C171.338 82.8866 171.47 83.2511 171.328 83.5583C171.23 83.7682 171.027 83.8967 170.81 83.9108C170.71 83.9168 170.609 83.8987 170.512 83.8545ZM165.079 80.4677C164.248 79.798 163.449 79.071 162.707 78.3079C162.471 78.0659 162.476 77.6783 162.719 77.4423C162.961 77.2064 163.349 77.2114 163.586 77.4544C164.294 78.1814 165.056 78.8742 165.849 79.5138C166.112 79.7257 166.153 80.1123 165.942 80.3753C165.829 80.5139 165.668 80.5912 165.503 80.6023C165.354 80.6123 165.203 80.5681 165.079 80.4677ZM160.612 75.878C159.964 75.0275 159.364 74.1298 158.826 73.2111C158.656 72.9189 158.754 72.5433 159.046 72.3726C159.339 72.2019 159.713 72.3013 159.884 72.5925C160.396 73.4691 160.968 74.3246 161.586 75.1349C161.791 75.404 161.738 75.7886 161.469 75.9934C161.37 76.0697 161.254 76.1099 161.138 76.1179C160.941 76.13 160.741 76.0476 160.612 75.878Z" fill="#91B3FA"/>
<path d="M197.508 80.9369C197.626 80.9298 197.743 80.8877 197.844 80.8103C198.258 80.49 198.665 80.1557 199.054 79.8163C199.309 79.5944 199.335 79.2068 199.113 78.9518C198.89 78.6977 198.503 78.6706 198.248 78.8925C197.878 79.2158 197.489 79.5351 197.094 79.8414C196.826 80.0482 196.777 80.4328 196.984 80.7009C197.114 80.8676 197.313 80.9499 197.508 80.9369Z" fill="#91B3FA"/>
</g>
<path d="M199.134 69.3893C199.212 69.2818 199.212 69.1373 199.135 69.0288L196.949 65.9512C197.621 64.3216 198.038 62.5724 198.157 60.762L201.475 58.9657C201.591 58.9024 201.655 58.7729 201.634 58.6424L200.892 54.1751C200.871 54.0446 200.769 53.9422 200.638 53.9201L196.918 53.2905C196.221 51.6157 195.262 50.0945 194.1 48.769L195.175 45.1503C195.213 45.0237 195.166 44.8862 195.059 44.8099L191.376 42.1751C191.268 42.0978 191.124 42.0978 191.015 42.1741L187.938 44.36C186.308 43.6883 184.559 43.2716 182.748 43.1521L180.952 39.8345C180.889 39.7181 180.759 39.6548 180.629 39.6759L176.161 40.4169C176.031 40.439 175.929 40.5404 175.906 40.671L175.277 44.3912C173.602 45.088 172.081 46.0469 170.755 47.2097L167.137 46.1333C167.01 46.0951 166.873 46.1423 166.796 46.2498L164.161 49.9328C164.084 50.0402 164.084 50.1848 164.16 50.2933L166.346 53.3708C165.675 55.0005 165.258 56.7496 165.138 58.56L161.821 60.3564C161.704 60.4196 161.641 60.5492 161.662 60.6797L162.403 65.147C162.425 65.2775 162.527 65.3799 162.657 65.402L166.377 66.0316C167.074 67.7064 168.033 69.2276 169.196 70.553L168.121 74.1718C168.082 74.2983 168.13 74.4359 168.237 74.5122L171.92 77.147C172.028 77.2243 172.172 77.2243 172.281 77.148L175.358 74.9621C176.988 75.6338 178.737 76.0505 180.547 76.17L182.344 79.4875C182.407 79.604 182.537 79.6673 182.667 79.6462L187.134 78.9052C187.265 78.8831 187.367 78.7817 187.389 78.6511L188.019 74.9319C189.694 74.2351 191.215 73.2762 192.54 72.1134L196.159 73.1888C196.286 73.227 196.423 73.1798 196.5 73.0723L199.134 69.3893Z" fill="#91B3FA"/>
<path d="M181.264 64.2746C180.03 64.1722 178.911 63.5958 178.112 62.651C177.312 61.7071 176.928 60.5072 177.031 59.2732C177.243 56.7278 179.483 54.832 182.033 55.0389C184.579 55.2507 186.478 57.4949 186.266 60.0403C186.163 61.2733 185.587 62.3939 184.642 63.1932C183.874 63.8428 182.938 64.2184 181.952 64.2806C181.724 64.2957 181.494 64.2937 181.264 64.2746ZM178.251 59.3746C178.176 60.2823 178.458 61.1649 179.046 61.8597C179.635 62.5546 180.458 62.9783 181.366 63.0536C182.274 63.1279 183.155 62.8468 183.85 62.2584C184.545 61.671 184.969 60.8466 185.044 59.9399C185.2 58.0672 183.803 56.4165 181.93 56.2609C181.762 56.2468 181.594 56.2458 181.43 56.2558C179.772 56.3613 178.393 57.6716 178.251 59.3746Z" fill="#BDD0FB"/>
<path d="M182.297 71.1152C182.683 71.0911 183.072 71.0459 183.463 70.9817C184.238 70.8531 185 70.6463 185.731 70.3651C185.764 70.3521 185.796 70.339 185.829 70.327C186.082 70.2266 186.232 69.9776 186.216 69.7195C186.212 69.6572 186.198 69.594 186.174 69.5317C186.049 69.2174 185.694 69.0648 185.378 69.1873C184.699 69.4564 183.987 69.6532 183.262 69.7727C183.222 69.7797 183.182 69.7858 183.142 69.7918C181.425 70.0599 179.707 69.8892 178.114 69.3189C177.248 69.0096 176.42 68.5808 175.649 68.0396C175.643 68.0356 175.637 68.0306 175.63 68.0266C175.61 68.0125 175.591 67.9995 175.572 67.9854C173.332 66.3819 171.85 64.0021 171.399 61.285C171.341 60.9336 171.301 60.5812 171.279 60.2307C171.129 57.8691 171.791 55.5466 173.187 53.5956C174.79 51.3555 177.17 49.8734 179.887 49.4226C182.603 48.9737 185.335 49.6063 187.576 51.2089C189.816 52.8124 191.299 55.1921 191.749 57.9092C191.807 58.2547 191.847 58.6031 191.869 58.9505C191.964 60.4577 191.729 61.9678 191.174 63.3736C191.14 63.4599 191.127 63.5493 191.133 63.6367C191.147 63.8656 191.291 64.0785 191.519 64.1678C191.835 64.2913 192.19 64.1377 192.315 63.8224C192.935 62.25 193.198 60.5601 193.092 58.8742C193.067 58.4846 193.023 58.096 192.959 57.7094C192.455 54.668 190.796 52.0061 188.29 50.2128C185.784 48.4195 182.731 47.7076 179.688 48.2136C176.648 48.7177 173.985 50.3755 172.191 52.8827C170.63 55.0646 169.89 57.6622 170.057 60.305C170.082 60.6976 170.126 61.0913 170.191 61.4849C171.167 67.3729 176.465 71.4857 182.297 71.1152Z" fill="#BDD0FB"/>
<path d="M275.138 129.591C275.123 128.704 274.752 127.861 274.11 127.249C273.467 126.638 272.607 126.309 271.72 126.338L199.982 128.629C198.157 128.687 196.722 130.212 196.776 132.039L200.315 250.848C200.37 252.652 201.856 254.08 203.659 254.062L273.955 253.379C274.838 253.37 275.681 253.009 276.297 252.377C276.912 251.744 277.251 250.891 277.235 250.008L275.138 129.591Z" fill="#91B3FA"/>
<g opacity="0.43">
<path d="M267.654 135.398H203.771C203.15 135.398 202.652 135.73 202.658 136.319L202.719 141.897C202.725 142.488 203.238 143.127 203.861 143.128L267.925 143.179C268.56 143.18 269.051 142.491 269.03 141.894L268.835 136.333C268.816 135.739 268.287 135.398 267.654 135.398Z" fill="white"/>
<path d="M268.069 147.419L203.908 147.313C203.283 147.311 202.784 147.907 202.79 148.501L202.851 154.202C202.857 154.798 203.371 155.364 203.997 155.366L268.342 155.544C268.979 155.546 269.476 154.978 269.455 154.375L269.26 148.624C269.24 148.023 268.704 147.42 268.069 147.419Z" fill="white"/>
<path d="M268.502 160.266L204.05 160.047C203.424 160.045 202.919 160.334 202.925 160.934L202.987 166.683C202.993 167.285 203.508 167.74 204.137 167.743L268.764 168.03C269.403 168.034 269.907 167.579 269.886 166.971L269.689 161.168C269.668 160.564 269.14 160.268 268.502 160.266Z" fill="white"/>
<path d="M268.925 172.798L204.19 172.469C203.561 172.466 203.055 172.873 203.062 173.479L203.124 179.279C203.131 179.886 203.646 180.228 204.277 180.232L269.189 180.632C269.831 180.636 270.34 180.297 270.319 179.684L270.12 173.83C270.098 173.219 269.565 172.801 268.925 172.798Z" fill="white"/>
<path d="M269.35 185.435L204.329 184.992C203.697 184.988 203.191 185.517 203.197 186.127L203.26 191.978C203.267 192.59 203.788 193.254 204.422 193.259L269.63 193.776C270.276 193.781 270.777 193.119 270.756 192.501L270.554 186.595C270.534 185.98 269.994 185.44 269.35 185.435Z" fill="white"/>
<path d="M269.78 198.19L204.471 197.633C203.837 197.628 203.329 198.279 203.335 198.895L203.399 204.798C203.406 205.417 203.928 205.967 204.565 205.973L270.063 206.606C270.712 206.612 271.219 206.065 271.198 205.442L270.995 199.483C270.973 198.862 270.427 198.195 269.78 198.19Z" fill="white"/>
<path d="M270.228 211.506L204.619 210.828C203.981 210.821 203.467 211.157 203.474 211.778L203.538 217.733C203.545 218.357 204.069 218.793 204.708 218.801L270.499 219.552C271.151 219.559 271.664 219.131 271.643 218.502L271.438 212.489C271.416 211.861 270.878 211.512 270.228 211.506Z" fill="white"/>
<path d="M270.666 224.484L204.764 223.688C204.123 223.68 203.608 224.138 203.615 224.765L203.68 230.774C203.687 231.403 204.211 231.721 204.854 231.73L270.94 232.601C271.595 232.61 272.114 232.302 272.093 231.666L271.886 225.599C271.863 224.967 271.318 224.491 270.666 224.484Z" fill="white"/>
<path d="M271.107 237.589L204.908 236.672C204.265 236.663 203.749 237.247 203.755 237.879L203.821 243.942C203.828 244.576 204.358 245.229 205.004 245.238L271.398 246.235C272.055 246.245 272.567 245.602 272.544 244.962L272.336 238.84C272.315 238.202 271.762 237.598 271.107 237.589Z" fill="white"/>
</g>
<path d="M113.876 251.707C113.876 251.707 137.578 106.263 76.893 2.04974C76.1018 0.691186 74.1759 0.591779 73.2642 1.87301C58.8664 22.1087 -26.4713 153.746 113.876 251.707Z" fill="#BDD0FB"/>
<path opacity="0.52" d="M71.4629 44.4312C71.4629 44.4312 71.3755 45.2305 71.253 46.7356C71.1275 48.2408 70.9688 50.4508 70.8092 53.2663C70.6385 56.0818 70.5059 59.5038 70.3925 63.4299C70.3593 65.3939 70.2951 67.4824 70.2931 69.6864C70.284 70.7879 70.275 71.9175 70.265 73.0743C70.269 74.231 70.273 75.4138 70.278 76.6228C70.276 77.8317 70.2941 79.0647 70.3202 80.3219C70.3433 81.579 70.3664 82.8592 70.3895 84.1616C70.4326 85.4639 70.4758 86.7883 70.52 88.1318C70.5421 88.8045 70.5642 89.4813 70.5873 90.1641C70.6194 90.8459 70.6525 91.5327 70.6847 92.2245C70.752 93.6071 70.8202 95.0089 70.8895 96.4277C70.9678 97.8465 71.0723 99.2803 71.1636 100.731C71.3323 103.634 71.5854 106.593 71.8233 109.604C71.9298 111.11 72.1045 112.623 72.2461 114.15C72.4007 115.676 72.5352 117.215 72.7079 118.759C72.8897 120.302 73.0714 121.855 73.2552 123.416C73.3465 124.196 73.4389 124.978 73.5303 125.763C73.6377 126.545 73.7462 127.328 73.8536 128.113C74.0705 129.684 74.2884 131.26 74.5063 132.842C74.7242 134.424 75.0013 136.001 75.2473 137.586C75.5074 139.168 75.7383 140.76 76.0235 142.343C76.3117 143.926 76.5998 145.51 76.889 147.095L77.3168 149.471C77.4614 150.264 77.6341 151.049 77.7917 151.838C78.114 153.414 78.4353 154.989 78.7567 156.56C79.0599 158.136 79.4415 159.69 79.7959 161.247C80.1544 162.802 80.5118 164.352 80.8673 165.896C81.6254 168.974 82.4377 172.012 83.2068 175.023C84.0694 178.008 84.9208 180.956 85.7593 183.857C86.678 186.733 87.5807 189.56 88.4643 192.328C89.4273 195.07 90.3691 197.753 91.2858 200.363C92.2518 202.956 93.2519 205.456 94.1857 207.887C94.4237 208.494 94.6496 209.098 94.8916 209.69C95.1436 210.279 95.3926 210.861 95.6406 211.439C96.1347 212.594 96.6206 213.727 97.0956 214.837C97.5705 215.948 98.0364 217.035 98.4913 218.098C98.9823 219.144 99.4623 220.166 99.9292 221.163C100.864 223.157 101.751 225.049 102.584 226.826C103.483 228.572 104.323 230.205 105.101 231.716C105.49 232.471 105.863 233.196 106.22 233.889C106.577 234.581 106.908 235.247 107.265 235.854C110.033 240.768 111.615 243.577 111.615 243.577L111.619 243.585C111.678 243.69 111.641 243.824 111.536 243.883C111.431 243.941 111.3 243.906 111.239 243.804C111.239 243.804 109.599 241.021 106.729 236.152C106.36 235.548 106.019 234.885 105.651 234.198C105.282 233.509 104.897 232.789 104.496 232.037C103.693 230.534 102.824 228.909 101.895 227.172C101.032 225.402 100.113 223.519 99.1439 221.534C98.663 220.539 98.169 219.52 97.6639 218.475C97.197 217.413 96.72 216.327 96.2321 215.217C95.7441 214.107 95.247 212.975 94.739 211.82C94.4849 211.243 94.2289 210.66 93.9708 210.072C93.7228 209.48 93.4898 208.875 93.2448 208.269C92.2839 205.839 91.2567 203.338 90.2617 200.744C89.3168 198.131 88.3458 195.448 87.3528 192.704C86.4501 189.93 85.5283 187.096 84.5915 184.213C83.741 181.304 82.8765 178.346 82.0019 175.353C81.2197 172.334 80.3954 169.285 79.6242 166.199C79.2617 164.649 78.8982 163.094 78.5337 161.535C78.1733 159.973 77.7857 158.414 77.4764 156.833C77.1491 155.257 76.8217 153.678 76.4934 152.096C76.3327 151.305 76.157 150.517 76.0094 149.722L75.5726 147.338C75.2855 145.747 74.9983 144.157 74.7111 142.567C74.43 140.978 74.203 139.38 73.947 137.791C73.706 136.199 73.4319 134.616 73.219 133.028C73.0052 131.441 72.7913 129.858 72.5794 128.282C72.474 127.494 72.3676 126.706 72.2621 125.922C72.1728 125.135 72.0824 124.35 71.993 123.568C71.8143 122.001 71.6366 120.443 71.4588 118.893C71.2902 117.343 71.1596 115.799 71.01 114.269C70.8724 112.736 70.7017 111.218 70.6003 109.706C70.3774 106.685 70.1164 103.716 69.9788 100.804C69.9015 99.3476 69.8111 97.9087 69.7458 96.4859C69.6906 95.0621 69.6354 93.6563 69.5812 92.2687C69.5551 91.5748 69.529 90.886 69.5028 90.2022C69.4868 89.5184 69.4707 88.8387 69.4557 88.1649C69.4245 86.8164 69.3934 85.489 69.3633 84.1826C69.3522 82.8763 69.3412 81.5921 69.3311 80.3319C69.3171 79.0718 69.3111 77.8347 69.3241 76.6238C69.3211 71.778 69.4627 67.3368 69.6123 63.4037C69.788 59.4707 69.9758 56.0437 70.1917 53.2262C70.3905 50.4066 70.6094 48.1966 70.764 46.6895C70.9186 45.1833 71.0241 44.38 71.0241 44.38V44.378C71.0401 44.2585 71.1496 44.1742 71.2691 44.1892C71.3926 44.2053 71.4759 44.3127 71.4629 44.4312Z" fill="white"/>
<path d="M92.3944 265.927C92.3944 265.927 91.8703 96.1995 11.7731 46.2605C10.3512 45.3738 8.47458 46.0516 7.93839 47.6391C1.70291 66.1035 -24.8536 166.352 92.3944 265.927Z" fill="#91B3FA"/>
<path opacity="0.52" d="M18.4695 76.06C18.4695 76.06 19.1663 79.0673 20.548 84.2976C21.2368 86.9123 22.0953 90.0823 23.1205 93.7071C24.1336 97.3349 25.3386 101.411 26.683 105.848C28.0426 110.28 29.5347 115.076 31.1905 120.124C32.0038 122.652 32.8864 125.235 33.763 127.883C34.6737 130.518 35.5764 133.222 36.5453 135.952C37.5073 138.685 38.4833 141.464 39.5105 144.265C40.5166 147.072 41.5739 149.899 42.6412 152.748C42.9073 153.46 43.1744 154.175 43.4415 154.89C43.7156 155.603 43.9898 156.316 44.2649 157.031C44.8151 158.461 45.3664 159.893 45.9186 161.331C47.0362 164.2 48.1879 167.068 49.3416 169.935C50.5265 172.788 51.6842 175.654 52.8871 178.487C53.4916 179.902 54.095 181.315 54.6965 182.724C54.9987 183.428 55.3 184.131 55.6002 184.832C55.9085 185.53 56.2167 186.227 56.524 186.923C57.763 189.701 58.9579 192.472 60.21 195.178C61.4541 197.887 62.648 200.579 63.8991 203.191C64.5156 204.502 65.1281 205.8 65.7336 207.087C66.0338 207.732 66.333 208.374 66.6303 209.011C66.9355 209.646 67.2398 210.276 67.543 210.905C68.76 213.413 69.9217 215.88 71.1045 218.256C71.697 219.444 72.2824 220.615 72.8577 221.768C73.427 222.925 73.9873 224.065 74.5386 225.186C75.6722 227.411 76.7667 229.562 77.818 231.627C78.8572 233.698 79.9115 235.652 80.8965 237.52C81.8816 239.387 82.7873 241.175 83.6819 242.831C85.4773 246.142 87.0416 249.028 88.3299 251.404C89.6423 253.769 90.6725 255.627 91.3754 256.893C92.0722 258.163 92.4437 258.842 92.4437 258.842L92.4457 258.846C92.512 258.967 92.4678 259.12 92.3463 259.187C92.2278 259.252 92.0802 259.211 92.011 259.098C92.011 259.098 91.6083 258.437 90.8542 257.198C90.1062 255.955 89.0097 254.133 87.613 251.812C86.9031 250.658 86.1751 249.348 85.3638 247.932C84.5555 246.514 83.6809 244.981 82.7471 243.342C80.9136 240.047 78.8522 236.322 76.7094 232.203C75.6381 230.144 74.5225 227.999 73.3668 225.779C72.8045 224.66 72.2342 223.523 71.6538 222.369C71.0804 221.211 70.4991 220.035 69.9087 218.843C67.5932 214.055 65.1502 209.004 62.7745 203.71C60.3777 198.425 57.9759 192.93 55.6133 187.316C54.4073 184.519 53.2817 181.662 52.0878 178.821C50.911 175.972 49.7804 173.092 48.6217 170.225C47.4971 167.343 46.3735 164.46 45.2539 161.59C44.7057 160.151 44.1584 158.714 43.6132 157.281C43.3401 156.565 43.068 155.849 42.7959 155.135C42.5308 154.418 42.2657 153.703 42.0016 152.989C40.9433 150.134 39.895 147.301 38.897 144.489C37.8788 141.683 36.9108 138.898 35.9579 136.16C34.998 133.423 34.1024 130.715 33.2007 128.074C32.3331 125.422 31.4576 122.835 30.6533 120.302C29.0136 115.245 27.5355 110.44 26.19 105.999C24.8646 101.553 23.6657 97.4725 22.6445 93.8436C21.6163 90.2168 20.7548 87.0449 20.065 84.4272C18.6804 79.1948 17.9795 76.1775 17.9795 76.1775C17.9474 76.0419 18.0317 75.9074 18.1663 75.8752C18.3028 75.8401 18.4374 75.9234 18.4695 76.06Z" fill="white"/>
<path d="M231.292 94.6971C231.275 93.935 230.942 93.2141 230.375 92.705C229.807 92.1959 229.054 91.9449 228.295 92.0102L151.559 98.6573C150.132 98.7808 148.993 99.9747 148.993 101.408V255.663C148.993 257.187 150.317 258.308 151.841 258.308H232.196C232.939 258.308 233.651 258.066 234.17 257.534C234.689 257.003 234.972 256.313 234.955 255.571L231.292 94.6971Z" fill="#91B3FA"/>
<g opacity="0.68">
<path d="M164.191 106.268L158.334 106.664C157.692 106.707 157.363 107.299 157.363 107.989V248.697C157.363 249.401 157.506 250.237 158.155 250.237H164.268C164.921 250.237 165.457 249.531 165.457 248.825L165.37 107.511C165.369 106.817 164.836 106.225 164.191 106.268Z" fill="#BDD0FB"/>
<path opacity="0.7" d="M178.4 105.33L172.273 105.732C171.622 105.774 170.996 106.379 170.997 107.071L171.143 248.815C171.144 249.523 171.779 250.23 172.436 250.23H178.63C179.291 250.23 179.731 249.52 179.729 248.809L179.492 106.585C179.49 105.89 179.053 105.287 178.4 105.33Z" fill="#BDD0FB"/>
<path d="M192.793 104.393L186.587 104.8C185.928 104.843 185.549 105.434 185.55 106.132L185.851 248.813C185.853 249.526 186.239 250.237 186.904 250.237H193.179C193.849 250.237 194.554 249.524 194.552 248.808L194.158 105.639C194.156 104.938 193.456 104.349 192.793 104.393Z" fill="#BDD0FB"/>
<path d="M207.376 103.432L201.087 103.845C200.42 103.889 199.933 104.49 199.935 105.193L200.39 248.801C200.392 249.519 200.889 250.234 201.564 250.234H207.922C208.601 250.234 209.209 249.517 209.206 248.796L208.655 104.693C208.653 103.987 208.048 103.388 207.376 103.432Z" fill="#BDD0FB"/>
<path d="M222.152 102.463L215.779 102.881C215.104 102.925 214.505 103.538 214.508 104.245L215.124 248.792C215.127 249.515 215.737 250.233 216.421 250.233H222.864C223.552 250.233 224.061 249.512 224.057 248.786L223.344 103.737C223.341 103.028 222.832 102.419 222.152 102.463Z" fill="#BDD0FB"/>
</g>
<path d="M171.214 126.767C171.203 125.96 170.867 125.193 170.281 124.639C169.696 124.085 168.912 123.791 168.106 123.823L106.899 126.277C105.849 126.319 105.026 127.195 105.051 128.247L108.158 259.094L170.047 258.339C170.841 258.329 171.598 258.005 172.151 257.437C172.704 256.868 173.01 256.103 172.998 255.31L171.214 126.767Z" fill="#BDD0FB"/>
<g opacity="0.5">
<path d="M121.92 150.885L112.071 150.888L111.954 134.055H121.825L121.92 150.885Z" fill="white"/>
<path d="M136.059 150.854L126.246 150.857L126.16 134.055H135.994L136.059 150.854Z" fill="white"/>
<path d="M150.925 150.821L141.151 150.824L141.098 134.055H150.894L150.925 150.821Z" fill="white"/>
<path d="M165.758 150.828L155.814 150.811L155.587 134.055H165.758V150.828Z" fill="white"/>
<path d="M122.054 174.79L112.236 174.842L112.12 158.133L121.961 158.102L122.054 174.79Z" fill="white"/>
<path d="M136.149 174.713L126.367 174.765L126.281 158.086L136.085 158.055L136.149 174.713Z" fill="white"/>
<path d="M150.969 174.633L141.226 174.685L141.173 158.038L150.938 158.008L150.969 174.633Z" fill="white"/>
<path d="M165.758 174.555L155.844 174.607L155.927 157.992L165.758 157.961V174.555Z" fill="white"/>
<path d="M122.193 199.285L112.406 199.369L112.291 182.766L122.1 182.703L122.193 199.285Z" fill="white"/>
<path d="M136.242 199.169L126.492 199.253L126.407 182.68L136.179 182.617L136.242 199.169Z" fill="white"/>
<path d="M151.016 199.043L141.303 199.126L141.251 182.586L150.985 182.523L151.016 199.043Z" fill="white"/>
<path d="M165.758 198.917L155.875 199L155.958 182.491L165.758 182.43V198.917Z" fill="white"/>
<path d="M122.328 223.249L112.571 223.363L112.46 207.258L122.237 207.164L122.328 223.249Z" fill="white"/>
<path d="M136.332 223.087L126.613 223.2L126.531 207.125L136.272 207.031L136.332 223.087Z" fill="white"/>
<path d="M151.059 222.916L141.377 223.03L141.327 206.984L151.029 206.891L151.059 222.916Z" fill="white"/>
<path d="M165.758 222.744L155.905 222.858L155.988 206.843L165.758 206.75V222.744Z" fill="white"/>
<path d="M122.464 247.436L112.739 247.582L112.629 231.579L122.375 231.453L122.464 247.436Z" fill="white"/>
<path d="M136.425 247.234L126.736 247.38L126.654 231.406L136.364 231.281L136.425 247.234Z" fill="white"/>
<path d="M151.105 247.009L141.454 247.154L141.403 231.209L151.076 231.086L151.105 247.009Z" fill="white"/>
<path d="M165.758 246.8L155.936 246.944L156.019 231.03L165.758 230.906V246.8Z" fill="white"/>
</g>
<path d="M121.703 183.649H29.3068C28.1048 183.649 27.1309 182.675 27.1309 181.473V117.66C27.1309 116.458 28.1048 115.484 29.3068 115.484H121.703C122.905 115.484 123.879 116.458 123.879 117.66V181.473C123.878 182.675 122.904 183.649 121.703 183.649Z" fill="url(#paint1_linear_4553_94432)"/>
<path d="M125.463 183.649H33.066C31.8641 183.649 30.8901 182.675 30.8901 181.473V117.66C30.8901 116.458 31.8641 115.484 33.066 115.484H125.463C126.664 115.484 127.638 116.458 127.638 117.66V181.473C127.638 182.675 126.664 183.649 125.463 183.649Z" fill="url(#paint2_linear_4553_94432)"/>
<path d="M58.5061 174.677C57.7621 174.677 57.1335 174.668 56.6355 174.658C55.785 174.641 55.0882 174.015 54.9797 173.169C54.8703 172.318 55.3914 171.533 56.2168 171.3C60.6378 170.061 65.4585 167.955 69.008 166.25C52.0799 164.871 48.7001 156.176 48.0474 152.199C46.3997 142.17 55.1042 130.821 67.4507 126.901C80.0501 122.904 92.8133 124.344 99.9705 130.572C103.774 133.883 107.899 140.221 105.954 151.626C102.316 172.967 69.0351 174.677 58.5061 174.677ZM56.6987 171.585H56.7027C56.7027 171.585 56.7007 171.585 56.6987 171.585ZM81.1577 163.24L75.7948 166.23C75.5126 166.387 70.7913 169.005 65.0509 171.406C78.1203 170.618 100.231 166.926 102.927 151.109C104.294 143.082 102.622 136.951 97.9553 132.889C90.7147 126.587 77.8863 126.813 68.3815 129.827C57.6165 133.245 49.6931 143.26 51.0798 151.699C52.3379 159.359 61.0616 163.644 75.0196 163.351L81.1577 163.24Z" fill="white"/>
<path d="M122.883 103.5H30.4864C29.2845 103.5 28.3105 102.526 28.3105 101.325V37.5118C28.3105 36.3099 29.2845 35.3359 30.4864 35.3359H122.883C124.085 35.3359 125.059 36.3099 125.059 37.5118V101.325C125.059 102.526 124.085 103.5 122.883 103.5Z" fill="url(#paint3_linear_4553_94432)"/>
<path d="M126.629 103.836H34.2325C33.0306 103.836 32.0566 102.862 32.0566 101.66V37.8478C32.0566 36.6459 33.0306 35.6719 34.2325 35.6719H126.629C127.831 35.6719 128.805 36.6459 128.805 37.8478V101.66C128.805 102.862 127.831 103.836 126.629 103.836Z" fill="url(#paint4_linear_4553_94432)"/>
<path d="M101.664 93.8396H56.0638C52.3275 93.8396 49.2871 90.8002 49.2871 87.0629V51.847C49.2871 48.1107 52.3265 45.0703 56.0638 45.0703H101.664C105.4 45.0703 108.441 48.1097 108.441 51.847V87.0629C108.441 90.7991 105.401 93.8396 101.664 93.8396ZM56.0638 47.4209C53.6238 47.4209 51.6377 49.406 51.6377 51.847V87.0629C51.6377 89.5029 53.6228 91.489 56.0638 91.489H101.664C104.104 91.489 106.09 89.5039 106.09 87.0629V51.847C106.09 49.407 104.105 47.4209 101.664 47.4209H56.0638Z" fill="url(#paint5_linear_4553_94432)"/>
<path d="M78.7573 69.5801L51.27 48.9588L52.6808 47.0781L78.7965 66.6702L105.574 47.6766L106.933 49.5934L78.7573 69.5801Z" fill="url(#paint6_linear_4553_94432)"/>
<path d="M105.231 91.648L88.1299 61.3422L90.1772 60.1875L107.277 90.4923L105.231 91.648Z" fill="url(#paint7_linear_4553_94432)"/>
<path d="M52.6219 91.3776L50.5645 90.2419L67.3701 59.7734L69.4285 60.9091L52.6219 91.3776Z" fill="url(#paint8_linear_4553_94432)"/>
<path d="M121.703 265.665H29.3068C28.1048 265.665 27.1309 264.691 27.1309 263.489V199.676C27.1309 198.474 28.1048 197.5 29.3068 197.5H121.703C122.905 197.5 123.879 198.474 123.879 199.676V263.489C123.878 264.691 122.904 265.665 121.703 265.665Z" fill="url(#paint9_linear_4553_94432)"/>
<path d="M125.463 265.665H33.066C31.8641 265.665 30.8901 264.691 30.8901 263.489V199.676C30.8901 198.474 31.8641 197.5 33.066 197.5H125.463C126.664 197.5 127.638 198.474 127.638 199.676V263.489C127.638 264.691 126.664 265.665 125.463 265.665Z" fill="url(#paint10_linear_4553_94432)"/>
<path d="M94.4049 255.892C90.6315 255.892 86.1964 254.123 81.1819 250.612C77.8663 248.291 63.3962 233.821 61.0747 230.505C56.8917 224.529 55.1817 219.375 55.992 215.186C56.5161 212.478 58.1237 210.178 60.641 208.535L62.842 207.099C64.4736 206.036 66.6806 206.487 67.7611 208.108L73.8399 217.227C75.09 219.1 74.6311 221.591 72.7966 222.898L72.7545 222.926L71.7062 223.606C70.7563 224.224 70.1538 225.226 70.0554 226.355C69.957 227.484 70.3768 228.574 71.2061 229.347L71.2363 229.376L82.3396 240.48C83.1118 241.309 84.2032 241.728 85.3308 241.632C86.4605 241.533 87.4636 240.932 88.0811 239.981L88.789 238.893C90.0953 237.056 92.5875 236.597 94.4611 237.848L103.579 243.926C105.2 245.008 105.653 247.215 104.589 248.845L103.152 251.047C101.509 253.564 99.2095 255.172 96.5015 255.696C95.8287 255.827 95.1289 255.892 94.4049 255.892ZM82.5294 248.687C87.9646 252.491 92.5172 254.074 96.0557 253.388C98.1542 252.982 99.8793 251.762 101.184 249.762L102.62 247.56C102.984 247.003 102.829 246.25 102.276 245.88L93.1578 239.802C92.3525 239.265 91.2862 239.457 90.7179 240.235L90.0531 241.259C89.037 242.822 87.3903 243.81 85.5347 243.971C83.6871 244.131 81.9028 243.448 80.6347 242.096L69.5885 231.049C68.237 229.781 67.5532 227.997 67.7139 226.149C67.8755 224.294 68.8636 222.647 70.426 221.632L71.4501 220.967C72.2283 220.398 72.4201 219.332 71.8839 218.527L65.8051 209.409C65.4366 208.857 64.6815 208.702 64.1252 209.065L61.9242 210.502C59.924 211.806 58.7041 213.532 58.2984 215.629C57.6136 219.17 59.1951 223.721 62.9986 229.155C65.1795 232.269 79.4167 246.507 82.5294 248.687Z" fill="url(#paint11_linear_4553_94432)"/>
<path d="M193.06 194.83C193.024 194.832 192.988 194.833 192.951 194.833L145.498 194.785C144.325 194.784 143.375 193.815 143.376 192.621C143.377 191.426 144.333 190.439 145.503 190.461L192.957 190.509C194.129 190.511 195.079 191.479 195.078 192.673C195.076 193.829 194.183 194.774 193.06 194.83Z" fill="url(#paint12_linear_4553_94432)"/>
<path d="M127.12 147.431C127.137 147.464 127.153 147.497 127.169 147.53L147.135 191.435C147.629 192.521 147.168 193.808 146.106 194.31C145.044 194.813 143.763 194.345 143.288 193.254L123.322 149.348C122.828 148.263 123.289 146.976 124.351 146.474C125.38 145.988 126.596 146.417 127.12 147.431Z" fill="url(#paint13_linear_4553_94432)"/>
<path d="M197.624 265.396C197.624 265.396 198.039 267.702 198.203 270.44C198.273 271.607 197.409 272.62 196.245 272.734C192.194 273.126 182.974 273.852 177.087 273.003C176.262 272.883 175.934 271.871 176.545 271.303C178.972 269.042 184.834 264.642 194.484 263.68L197.624 265.396Z" fill="url(#paint14_linear_4553_94432)"/>
<path d="M199.637 260.193L197.588 265.213C197.307 265.901 196.609 266.328 195.871 266.251C195.37 266.199 194.776 266.102 194.198 265.927C193.043 265.576 192.391 264.351 192.737 263.194L194.282 258.023L199.637 260.193Z" fill="url(#paint15_linear_4553_94432)"/>
<path d="M234.651 269.391C234.651 269.391 230.55 272.822 228.951 277.224C228.512 278.435 229.44 279.71 230.729 279.71H239.168C240.403 279.71 241.35 278.598 241.135 277.382C240.598 274.342 239.048 269.403 234.651 269.391Z" fill="url(#paint16_linear_4553_94432)"/>
<path d="M239.732 264.93C239.732 264.93 238.903 268.597 238.267 271.02C238.151 271.46 237.682 271.701 237.253 271.548C235.976 271.091 234.937 270.89 234.182 270.991C233.832 271.038 233.528 270.747 233.523 270.395L233.444 264.305L239.732 264.93Z" fill="url(#paint17_linear_4553_94432)"/>
<path d="M217.92 182.423L192.976 258.523C192.976 258.523 197.76 261.657 200.039 261.526L229.667 200.369C229.667 200.369 234.852 238.053 232.34 265.106L240.827 265.754C240.827 265.754 254.626 196.617 244.175 172.938L217.92 182.423Z" fill="url(#paint18_linear_4553_94432)"/>
<path d="M229.508 199.714C229.518 199.714 229.528 199.713 229.538 199.712C229.671 199.695 229.764 199.574 229.748 199.442L228.78 191.758C228.764 191.626 228.644 191.534 228.51 191.548C228.377 191.565 228.284 191.686 228.3 191.818L229.268 199.502C229.284 199.624 229.388 199.714 229.508 199.714Z" fill="url(#paint19_linear_4553_94432)"/>
<path d="M213.243 115.461C213.243 115.461 233.453 117.255 230.594 131.655C230.594 131.655 241.766 152.679 246.988 177.444C247.158 178.25 246.619 179.036 245.806 179.175L212.15 184.938C211.221 185.096 210.326 184.518 210.09 183.605L202.048 152.526L198.915 166.976L188.958 164.382L197.34 121.921C197.341 121.922 198.511 115.727 213.243 115.461Z" fill="url(#paint20_linear_4553_94432)"/>
<path d="M201.879 151.141C201.896 151.141 201.914 151.139 201.932 151.135C202.068 151.106 202.153 150.972 202.124 150.837L199.318 137.955C199.289 137.819 199.157 137.735 199.02 137.763C198.885 137.792 198.799 137.926 198.828 138.061L201.634 150.943C201.66 151.061 201.763 151.141 201.879 151.141Z" fill="url(#paint21_linear_4553_94432)"/>
<path d="M203.91 189.471C204.971 188.888 206.212 188.727 207.385 189.019L209.727 189.602C210.225 189.725 210.718 189.383 210.775 188.873L213.198 167.305C216.229 168.744 220.599 168.572 222.041 168.466L216.464 193.894H196.947L203.91 189.471Z" fill="url(#paint22_linear_4553_94432)"/>
<path d="M152.053 142.688L152.644 140.727C152.983 139.599 153.817 138.686 154.91 138.247L165.579 133.957C165.579 133.957 165.74 132.588 163.325 131.658C160.91 130.728 161.475 128.023 161.475 128.023C161.475 128.023 164.774 129.529 169.605 131.916C172.368 133.282 173.918 135.693 174.74 137.507L198.916 166.98L196.077 168.93C192.345 171.494 187.211 170.234 185.09 166.234L171.993 141.119C165.418 143.094 158.764 143.472 152.053 142.688Z" fill="url(#paint23_linear_4553_94432)"/>
<path d="M206.697 101.712L212.913 119.109C212.913 119.109 207.408 123.413 203.392 121.958L200.259 111.985C200.259 111.985 202.651 99.7963 206.697 101.712Z" fill="url(#paint24_linear_4553_94432)"/>
<path d="M190.896 97.8327C190.896 97.8327 192.742 105.972 194.94 109.341C197.137 112.71 197.984 115.323 202.205 113.225C206.426 111.127 208.209 106.946 207.549 102.467C207.549 102.467 206.575 95.5329 204.48 93.94C202.384 92.3454 190.896 97.8327 190.896 97.8327Z" fill="url(#paint25_linear_4553_94432)"/>
<path d="M204.567 101.087L204.285 101.149C203.925 101.229 203.572 100.991 203.515 100.627C203.294 99.2196 202.606 96.1265 200.876 96.5586C198.648 97.1141 190.845 100.716 187.613 99.3839C184.506 98.104 183.559 94.2015 184.808 91.9747C184.892 91.8251 185.072 91.7619 185.226 91.8362L185.6 92.0171C185.855 92.1406 186.131 91.8909 186.033 91.6241C185.939 91.368 186.19 91.1217 186.443 91.2226C187.422 91.6126 189.495 91.8875 193.184 90.1003C198.427 87.5601 202.853 87.186 205.272 90.3208C205.426 90.5204 205.725 90.4737 205.82 90.2414C206.008 89.7831 206.482 89.2847 207.662 89.3621C209.712 89.4969 211.226 92.6434 210.118 96.9611C210.065 97.1662 210.218 97.3713 210.429 97.3592C211.173 97.3171 212.499 97.5456 211.316 100.016C210.094 102.571 208.525 103.588 207.876 103.918C207.714 103.999 207.519 103.928 207.446 103.763L206.004 100.505C205.922 100.32 205.691 100.259 205.529 100.378L204.566 101.086L204.567 101.087Z" fill="url(#paint26_linear_4553_94432)"/>
<path d="M204.885 101.766C204.885 101.766 203.015 97.0741 205.592 96.8809C208.171 96.6879 207.919 101.968 206.607 103.159L204.885 101.766Z" fill="url(#paint27_linear_4553_94432)"/>
<path d="M220.08 168.789C221.46 168.789 222.444 168.685 222.55 168.672L222.73 168.652L230.089 134.342C230.118 134.207 230.032 134.073 229.896 134.045C229.76 134.015 229.628 134.102 229.599 134.238L222.316 168.193C221.221 168.289 215.373 168.678 212.285 166.49L218.66 136.681L217.33 134.174C217.265 134.051 217.113 134.005 216.991 134.069C216.868 134.134 216.822 134.286 216.886 134.408L218.131 136.755L211.727 166.701L211.855 166.798C214.087 168.472 217.68 168.789 220.08 168.789Z" fill="url(#paint28_linear_4553_94432)"/>
<path d="M179.815 198.852C180.008 199.504 198.385 255.963 203.044 270.276C203.581 271.926 202.081 273.546 200.02 273.546C198.583 273.546 197.33 272.734 196.983 271.579L176.583 203.826L179.815 198.852Z" fill="#7D97F4"/>
<path d="M169.75 198.852C169.558 199.504 151.181 255.963 146.522 270.276C145.984 271.926 147.484 273.546 149.545 273.546C150.982 273.546 152.235 272.734 152.582 271.579L172.983 203.826L169.75 198.852Z" fill="#7D97F4"/>
<path d="M168.985 196.602H180.431V205.793C180.431 207.115 179.373 208.185 178.067 208.185H176.497V228.83C176.497 229.83 175.696 230.641 174.708 230.641C173.72 230.641 172.918 229.83 172.918 228.83V208.185H172.122C170.39 208.185 168.985 206.763 168.985 205.01V196.602Z" fill="#7D97F4"/>
<path d="M215.398 194.391H135.313C134.193 194.391 133.216 195.002 132.936 195.878L131.818 199.377C131.415 200.636 132.598 201.862 134.208 201.854L216.384 201.473C217.977 201.466 219.139 200.254 218.75 199.006L217.777 195.889C217.504 195.008 216.523 194.391 215.398 194.391Z" fill="#7D97F4"/>
</g>
<defs>
<linearGradient id="paint0_linear_4553_94432" x1="300.851" y1="283.777" x2="93.3483" y2="102.213" gradientUnits="userSpaceOnUse">
<stop stop-color="#DAE3FE"/>
<stop offset="1" stop-color="#E9EFFD"/>
</linearGradient>
<linearGradient id="paint1_linear_4553_94432" x1="218.758" y1="-50.9884" x2="169.093" y2="18.5432" gradientUnits="userSpaceOnUse">
<stop stop-color="#E1473D"/>
<stop offset="1" stop-color="#E9605A"/>
</linearGradient>
<linearGradient id="paint2_linear_4553_94432" x1="221.2" y1="-49.143" x2="171.535" y2="20.3886" gradientUnits="userSpaceOnUse">
<stop stop-color="#FF928E"/>
<stop offset="1" stop-color="#FE7062"/>
</linearGradient>
<linearGradient id="paint3_linear_4553_94432" x1="149.661" y1="7.7359" x2="-25.8757" y2="156.106" gradientUnits="userSpaceOnUse">
<stop stop-color="#4F52FF"/>
<stop offset="1" stop-color="#4042E2"/>
</linearGradient>
<linearGradient id="paint4_linear_4553_94432" x1="48.4989" y1="90.748" x2="199.123" y2="-8.27819" gradientUnits="userSpaceOnUse">
<stop stop-color="#4F52FF"/>
<stop offset="1" stop-color="#4042E2"/>
</linearGradient>
<linearGradient id="paint5_linear_4553_94432" x1="49.2877" y1="69.4549" x2="108.441" y2="69.4549" gradientUnits="userSpaceOnUse">
<stop stop-color="#DAE3FE"/>
<stop offset="1" stop-color="#E9EFFD"/>
</linearGradient>
<linearGradient id="paint6_linear_4553_94432" x1="51.2698" y1="58.3292" x2="106.934" y2="58.3292" gradientUnits="userSpaceOnUse">
<stop stop-color="#DAE3FE"/>
<stop offset="1" stop-color="#E9EFFD"/>
</linearGradient>
<linearGradient id="paint7_linear_4553_94432" x1="88.1301" y1="75.9174" x2="107.277" y2="75.9174" gradientUnits="userSpaceOnUse">
<stop stop-color="#DAE3FE"/>
<stop offset="1" stop-color="#E9EFFD"/>
</linearGradient>
<linearGradient id="paint8_linear_4553_94432" x1="50.5641" y1="75.5756" x2="69.4286" y2="75.5756" gradientUnits="userSpaceOnUse">
<stop stop-color="#DAE3FE"/>
<stop offset="1" stop-color="#E9EFFD"/>
</linearGradient>
<linearGradient id="paint9_linear_4553_94432" x1="179.222" y1="93.0054" x2="-9.01869" y2="344.515" gradientUnits="userSpaceOnUse">
<stop stop-color="#4F52FF"/>
<stop offset="1" stop-color="#4042E2"/>
</linearGradient>
<linearGradient id="paint10_linear_4553_94432" x1="36.2158" y1="265.879" x2="192.873" y2="141.075" gradientUnits="userSpaceOnUse">
<stop stop-color="#4F52FF"/>
<stop offset="1" stop-color="#4042E2"/>
</linearGradient>
<linearGradient id="paint11_linear_4553_94432" x1="55.796" y1="231.207" x2="105.166" y2="231.207" gradientUnits="userSpaceOnUse">
<stop stop-color="#DAE3FE"/>
<stop offset="1" stop-color="#E9EFFD"/>
</linearGradient>
<linearGradient id="paint12_linear_4553_94432" x1="393.977" y1="-164.109" x2="357.687" y2="-106.288" gradientUnits="userSpaceOnUse">
<stop stop-color="#09005D"/>
<stop offset="1" stop-color="#1A0F91"/>
</linearGradient>
<linearGradient id="paint13_linear_4553_94432" x1="-4867.25" y1="-468.038" x2="-4799.52" y2="-459.514" gradientUnits="userSpaceOnUse">
<stop stop-color="#09005D"/>
<stop offset="1" stop-color="#1A0F91"/>
</linearGradient>
<linearGradient id="paint14_linear_4553_94432" x1="176.229" y1="268.539" x2="198.207" y2="268.539" gradientUnits="userSpaceOnUse">
<stop stop-color="#09005D"/>
<stop offset="1" stop-color="#1A0F91"/>
</linearGradient>
<linearGradient id="paint15_linear_4553_94432" x1="195.416" y1="267.609" x2="197.253" y2="253.244" gradientUnits="userSpaceOnUse">
<stop stop-color="#FEBBBA"/>
<stop offset="1" stop-color="#FF928E"/>
</linearGradient>
<linearGradient id="paint16_linear_4553_94432" x1="228.841" y1="274.55" x2="241.166" y2="274.55" gradientUnits="userSpaceOnUse">
<stop stop-color="#09005D"/>
<stop offset="1" stop-color="#1A0F91"/>
</linearGradient>
<linearGradient id="paint17_linear_4553_94432" x1="235.574" y1="272.539" x2="237.364" y2="258.541" gradientUnits="userSpaceOnUse">
<stop stop-color="#FEBBBA"/>
<stop offset="1" stop-color="#FF928E"/>
</linearGradient>
<linearGradient id="paint18_linear_4553_94432" x1="121.261" y1="345.236" x2="273.044" y2="191.059" gradientUnits="userSpaceOnUse">
<stop stop-color="#4F52FF"/>
<stop offset="1" stop-color="#4042E2"/>
</linearGradient>
<linearGradient id="paint19_linear_4553_94432" x1="308.288" y1="84.4976" x2="259.434" y2="152.994" gradientUnits="userSpaceOnUse">
<stop stop-color="#09005D"/>
<stop offset="1" stop-color="#1A0F91"/>
</linearGradient>
<linearGradient id="paint20_linear_4553_94432" x1="-191.364" y1="397.591" x2="-116.025" y2="324.397" gradientUnits="userSpaceOnUse">
<stop stop-color="#FF928E"/>
<stop offset="1" stop-color="#FE7062"/>
</linearGradient>
<linearGradient id="paint21_linear_4553_94432" x1="198.823" y1="144.449" x2="202.13" y2="144.449" gradientUnits="userSpaceOnUse">
<stop stop-color="#E1473D"/>
<stop offset="1" stop-color="#E9605A"/>
</linearGradient>
<linearGradient id="paint22_linear_4553_94432" x1="222.042" y1="180.6" x2="196.947" y2="180.6" gradientUnits="userSpaceOnUse">
<stop stop-color="#FEBBBA"/>
<stop offset="1" stop-color="#FF928E"/>
</linearGradient>
<linearGradient id="paint23_linear_4553_94432" x1="198.916" y1="149.144" x2="152.054" y2="149.144" gradientUnits="userSpaceOnUse">
<stop stop-color="#FEBBBA"/>
<stop offset="1" stop-color="#FF928E"/>
</linearGradient>
<linearGradient id="paint24_linear_4553_94432" x1="215.788" y1="122.857" x2="199.478" y2="106.124" gradientUnits="userSpaceOnUse">
<stop stop-color="#FEBBBA"/>
<stop offset="1" stop-color="#FF928E"/>
</linearGradient>
<linearGradient id="paint25_linear_4553_94432" x1="194.321" y1="103.674" x2="218.295" y2="104.141" gradientUnits="userSpaceOnUse">
<stop stop-color="#FEBBBA"/>
<stop offset="1" stop-color="#FF928E"/>
</linearGradient>
<linearGradient id="paint26_linear_4553_94432" x1="208.455" y1="89.0687" x2="189.394" y2="103.073" gradientUnits="userSpaceOnUse">
<stop stop-color="#09005D"/>
<stop offset="1" stop-color="#1A0F91"/>
</linearGradient>
<linearGradient id="paint27_linear_4553_94432" x1="194.397" y1="99.7878" x2="218.371" y2="100.255" gradientUnits="userSpaceOnUse">
<stop stop-color="#FEBBBA"/>
<stop offset="1" stop-color="#FF928E"/>
</linearGradient>
<linearGradient id="paint28_linear_4553_94432" x1="211.728" y1="151.414" x2="230.094" y2="151.414" gradientUnits="userSpaceOnUse">
<stop stop-color="#E1473D"/>
<stop offset="1" stop-color="#E9605A"/>
</linearGradient>
<clipPath id="clip0_4553_94432">
<rect width="276.475" height="280" fill="white" transform="translate(0.761719)"/>
</clipPath>
</defs>
</svg>
