<svg width="282" height="280" viewBox="0 0 282 280" fill="none" xmlns="http://www.w3.org/2000/svg">
<g clip-path="url(#clip0_4553_94024)">
<path d="M246.878 240.629C241.157 246.652 235.744 250.536 231.467 253.605C181.193 289.677 121.705 279.162 109.062 276.595C90.3934 272.803 54.3054 265.474 28.2144 234.791C-11.2586 188.371 -5.11255 115.239 25.5054 66.9625C31.1064 58.1325 60.6894 9.12053 120.817 1.26053C157.206 -3.49647 199.624 6.09753 230.342 31.8335C294.823 85.8535 290.232 194.987 246.878 240.629Z" fill="url(#paint0_linear_4553_94024)"/>
<g opacity="0.3">
<path d="M45.7864 228.093C45.6944 228.667 45.1804 229.09 44.5874 229.057C43.2894 228.985 41.9754 228.856 40.6824 228.673C40.0534 228.584 39.6154 228.002 39.7044 227.372C39.7054 227.364 39.7064 227.357 39.7084 227.35C39.8074 226.733 40.3834 226.306 41.0054 226.394C42.2344 226.568 43.4824 226.691 44.7154 226.759C45.3494 226.794 45.8364 227.337 45.8004 227.972C45.7974 228.013 45.7934 228.053 45.7864 228.093ZM35.9024 226.425C35.8954 226.469 35.8854 226.514 35.8724 226.558C35.6984 227.169 35.0614 227.524 34.4504 227.35C33.1954 226.992 31.9424 226.577 30.7284 226.117C30.1344 225.892 29.8364 225.23 30.0604 224.633C30.2854 224.039 30.9504 223.74 31.5444 223.965C32.6994 224.403 33.8884 224.797 35.0824 225.136C35.6484 225.298 35.9934 225.858 35.9024 226.425ZM26.6304 222.623C26.6104 222.749 26.5684 222.875 26.5024 222.993C26.1964 223.55 25.4974 223.754 24.9404 223.448C23.7984 222.821 22.6694 222.137 21.5854 221.414C21.0564 221.061 20.9144 220.347 21.2664 219.818C21.6184 219.289 22.3334 219.146 22.8624 219.499C23.8924 220.185 24.9644 220.835 26.0484 221.43C26.4864 221.672 26.7064 222.156 26.6304 222.623ZM18.4404 216.842C18.4064 217.051 18.3154 217.253 18.1634 217.423C17.7414 217.898 17.0134 217.94 16.5394 217.517C15.5664 216.65 14.6184 215.731 13.7224 214.784C13.2864 214.322 13.3064 213.595 13.7674 213.157C14.2284 212.72 14.9574 212.74 15.3944 213.202C16.2444 214.101 17.1444 214.974 18.0704 215.798C18.3744 216.07 18.5014 216.466 18.4404 216.842ZM11.7454 209.379C11.6984 209.672 11.5384 209.947 11.2774 210.133C10.7604 210.502 10.0414 210.382 9.67244 209.864C8.91744 208.805 8.19744 207.699 7.53144 206.577C7.20744 206.031 7.38744 205.325 7.93444 205C8.48144 204.676 9.18644 204.856 9.51144 205.403C10.1434 206.47 10.8284 207.521 11.5454 208.527C11.7294 208.785 11.7924 209.091 11.7454 209.379ZM6.86844 200.622C6.80744 201.002 6.55744 201.342 6.17644 201.501C5.59044 201.746 4.91644 201.47 4.67044 200.884C4.16744 199.683 3.70944 198.445 3.31044 197.205C3.11544 196.6 3.44844 195.952 4.05344 195.757C4.65844 195.562 5.30644 195.895 5.50144 196.499C5.88144 197.677 6.31544 198.853 6.79344 199.995C6.87944 200.201 6.90144 200.417 6.86844 200.622ZM10.8694 158.56C10.8444 158.717 10.7854 158.872 10.6914 159.013C10.0074 160.043 9.35944 161.116 8.76544 162.204C8.46044 162.762 7.76144 162.967 7.20444 162.662C6.64644 162.358 6.44144 161.658 6.74644 161.101C7.37244 159.956 8.05444 158.825 8.77444 157.74C9.12644 157.211 9.84044 157.067 10.3694 157.418C10.7584 157.675 10.9394 158.128 10.8694 158.56ZM4.05544 191.008C3.97944 191.479 3.61344 191.872 3.11644 191.958C2.49044 192.067 1.89444 191.648 1.78544 191.022C1.56244 189.739 1.39144 188.43 1.27944 187.133C1.22744 186.5 1.69344 185.942 2.32644 185.887C2.95944 185.832 3.51744 186.301 3.57244 186.934C3.67844 188.166 3.84044 189.409 4.05244 190.627C4.07444 190.757 4.07444 190.886 4.05544 191.008ZM6.30144 167.482C6.28944 167.557 6.27044 167.632 6.24244 167.706C5.80644 168.863 5.41444 170.055 5.07644 171.248C4.90344 171.86 4.26744 172.215 3.65644 172.042C3.04544 171.869 2.68644 171.233 2.86244 170.622C3.21744 169.367 3.62944 168.113 4.08844 166.895C4.31244 166.3 4.97644 166 5.57144 166.224C6.09144 166.419 6.38644 166.953 6.30144 167.482ZM3.45944 181.007C3.36744 181.58 2.85544 182.003 2.26244 181.972C1.62744 181.938 1.14144 181.396 1.17444 180.761C1.24444 179.462 1.37044 178.148 1.55144 176.856C1.55244 176.848 1.55344 176.84 1.55444 176.832C1.65344 176.216 2.22844 175.789 2.84944 175.876C3.47944 175.964 3.91844 176.545 3.82944 177.175C3.65844 178.402 3.53844 179.65 3.47244 180.884C3.47044 180.926 3.46644 180.967 3.45944 181.007Z" fill="#91B3FA"/>
<path d="M15.9302 152.264C15.8942 152.488 15.7922 152.703 15.6232 152.879C15.2112 153.306 14.8012 153.749 14.4042 154.195C13.9822 154.67 13.2542 154.713 12.7802 154.29C12.3052 153.868 12.2612 153.14 12.6852 152.666C13.1022 152.197 13.5332 151.731 13.9662 151.282C14.4072 150.825 15.1362 150.811 15.5932 151.252C15.8752 151.524 15.9882 151.905 15.9302 152.264Z" fill="#91B3FA"/>
</g>
<g opacity="0.3">
<path d="M48.2105 138.53C48.1225 139.078 47.6465 139.497 47.0735 139.496C46.4805 139.495 45.8775 139.507 45.2805 139.531C44.6455 139.557 44.1095 139.063 44.0845 138.428C44.0585 137.79 44.5535 137.257 45.1875 137.232C45.8155 137.207 46.4505 137.194 47.0755 137.195C47.7105 137.196 48.2255 137.711 48.2255 138.347C48.2255 138.409 48.2205 138.47 48.2105 138.53Z" fill="#91B3FA"/>
<path d="M92.4566 190.425C92.3726 190.948 92.2786 191.471 92.1766 191.995C92.0546 192.619 91.4496 193.025 90.8266 192.903C90.2026 192.781 89.7946 192.173 89.9186 191.553C90.1556 190.344 90.3426 189.129 90.4756 187.927C90.5466 187.295 91.1146 186.84 91.7456 186.91C92.3776 186.98 92.8326 187.549 92.7626 188.181C92.6796 188.924 92.5766 189.679 92.4566 190.425ZM90.6046 197.862C90.5946 197.925 90.5786 197.989 90.5566 198.052C90.1416 199.267 89.6706 200.478 89.1566 201.651C88.9016 202.233 88.2226 202.498 87.6416 202.243C87.0596 201.988 86.7926 201.308 87.0496 200.727C87.5376 199.613 87.9846 198.463 88.3796 197.308C88.5846 196.707 89.2386 196.386 89.8396 196.591C90.3786 196.776 90.6916 197.319 90.6046 197.862ZM93.0126 182.13C92.9266 182.666 92.4696 183.081 91.9076 183.096C91.2716 183.113 90.7436 182.611 90.7266 181.976C90.6946 180.761 90.6106 179.531 90.4746 178.319C90.4056 177.687 90.8596 177.118 91.4906 177.048C92.1226 176.978 92.6916 177.433 92.7616 178.064C92.9036 179.34 92.9926 180.636 93.0266 181.916C93.0286 181.989 93.0236 182.06 93.0126 182.13ZM86.4076 206.792C86.3846 206.936 86.3326 207.078 86.2516 207.21C85.5806 208.303 84.8546 209.381 84.0946 210.413C83.7176 210.924 82.9976 211.034 82.4856 210.657C81.9736 210.28 81.8646 209.56 82.2416 209.048C82.9636 208.068 83.6526 207.045 84.2896 206.007C84.6216 205.465 85.3306 205.296 85.8716 205.628C86.2826 205.879 86.4796 206.345 86.4076 206.792ZM91.6626 172.365C91.5916 172.804 91.2676 173.181 90.8086 173.298C90.1926 173.454 89.5666 173.081 89.4106 172.465C89.1126 171.287 88.7586 170.106 88.3616 168.953C88.1546 168.352 88.4726 167.697 89.0736 167.49C89.6746 167.283 90.3286 167.602 90.5366 168.202C90.9556 169.416 91.3276 170.66 91.6416 171.9C91.6816 172.056 91.6866 172.214 91.6626 172.365ZM88.2026 163.132C88.1456 163.483 87.9276 163.803 87.5866 163.976C87.0196 164.263 86.3276 164.036 86.0406 163.469C85.4896 162.382 84.8876 161.305 84.2496 160.269C83.9156 159.728 84.0836 159.02 84.6256 158.686C85.1666 158.353 85.8756 158.521 86.2086 159.062C86.8796 160.153 87.5146 161.286 88.0936 162.43C88.2076 162.655 88.2406 162.9 88.2026 163.132ZM82.8126 154.872C82.7696 155.139 82.6326 155.392 82.4076 155.577C81.9166 155.981 81.1916 155.91 80.7886 155.419C80.0136 154.477 79.1916 153.557 78.3436 152.685C77.9006 152.23 77.9096 151.502 78.3666 151.058C78.8226 150.615 79.5506 150.625 79.9936 151.081C80.8856 151.999 81.7516 152.967 82.5666 153.958C82.7836 154.224 82.8636 154.558 82.8126 154.872ZM75.7496 147.986C75.7196 148.171 75.6446 148.351 75.5206 148.51C75.1296 149.011 74.4066 149.1 73.9056 148.71C72.9446 147.96 71.9406 147.243 70.9206 146.579C70.3886 146.232 70.2386 145.518 70.5846 144.987C70.9316 144.454 71.6446 144.304 72.1766 144.651C73.2506 145.351 74.3076 146.106 75.3196 146.895C75.6646 147.162 75.8146 147.585 75.7496 147.986ZM67.3446 142.816C67.3276 142.92 67.2966 143.024 67.2486 143.124C66.9776 143.699 66.2926 143.946 65.7176 143.675C64.6176 143.157 63.4806 142.679 62.3386 142.255C61.7426 142.034 61.4406 141.37 61.6606 140.776C61.8816 140.18 62.5446 139.877 63.1406 140.098C64.3436 140.545 65.5406 141.048 66.6986 141.593C67.1726 141.816 67.4236 142.322 67.3446 142.816ZM58.0146 139.621C58.0106 139.644 58.0066 139.668 58.0006 139.691C57.8616 140.311 57.2456 140.701 56.6266 140.562C55.7516 140.366 54.8596 140.194 53.9756 140.052C53.6556 140 53.3356 139.953 53.0166 139.908C52.3866 139.82 51.9476 139.239 52.0356 138.61C52.1116 137.971 52.7036 137.541 53.3336 137.629C53.6696 137.676 54.0056 137.726 54.3426 137.78C55.2726 137.93 56.2106 138.11 57.1306 138.317C57.7266 138.45 58.1106 139.025 58.0146 139.621Z" fill="#91B3FA"/>
<path d="M80.3275 214.6C80.2915 214.826 80.1875 215.043 80.0165 215.219C79.5815 215.665 79.1295 216.111 78.6715 216.543C78.2095 216.98 77.4815 216.959 77.0445 216.497C76.6085 216.035 76.6275 215.307 77.0905 214.87C77.5245 214.459 77.9545 214.036 78.3675 213.613C78.8105 213.158 79.5395 213.148 79.9945 213.592C80.2735 213.864 80.3855 214.243 80.3275 214.6Z" fill="#91B3FA"/>
</g>
<path d="M67.3987 210.942C67.5977 210.826 67.7007 210.599 67.6567 210.374L66.4037 203.95C68.6297 201.856 70.5387 199.391 72.0217 196.617L78.5457 196.15C78.7747 196.134 78.9677 195.974 79.0267 195.752L81.0507 188.166C81.1097 187.944 81.0217 187.71 80.8317 187.581L75.4067 183.927C75.5027 180.783 75.0757 177.695 74.1877 174.77L78.4737 169.823C78.6237 169.65 78.6477 169.4 78.5327 169.201L74.5997 162.406C74.4847 162.207 74.2567 162.104 74.0317 162.148L67.6077 163.401C65.5137 161.174 63.0487 159.266 60.2747 157.783L59.8077 151.258C59.7917 151.029 59.6317 150.836 59.4097 150.777L51.8237 148.753C51.6017 148.694 51.3677 148.782 51.2387 148.972L47.5847 154.397C44.4407 154.301 41.3527 154.728 38.4277 155.616L33.4807 151.33C33.3077 151.18 33.0577 151.156 32.8597 151.271L26.0647 155.204C25.8657 155.319 25.7627 155.547 25.8067 155.772L27.0597 162.196C24.8327 164.29 22.9247 166.755 21.4417 169.529L14.9167 169.996C14.6877 170.012 14.4947 170.172 14.4357 170.394L12.4127 177.98C12.3537 178.202 12.4417 178.436 12.6317 178.565L18.0567 182.219C17.9607 185.363 18.3877 188.451 19.2757 191.376L14.9897 196.322C14.8397 196.495 14.8157 196.745 14.9307 196.944L18.8637 203.739C18.9787 203.938 19.2067 204.041 19.4317 203.997L25.8557 202.744C27.9497 204.971 30.4147 206.878 33.1887 208.361L33.6557 214.886C33.6717 215.115 33.8317 215.309 34.0537 215.368L41.6397 217.39C41.8617 217.45 42.0957 217.362 42.2247 217.172L45.8787 211.747C49.0227 211.843 52.1107 211.416 55.0357 210.528L59.9827 214.813C60.1557 214.963 60.4057 214.988 60.6047 214.873L67.3987 210.942Z" fill="#91B3FA"/>
<path d="M54.5226 184.331C53.9106 188.129 50.5846 191.015 46.6256 190.962C42.2746 190.904 38.7816 187.316 38.8406 182.965C38.8686 180.857 39.7166 178.886 41.2266 177.416C42.7366 175.945 44.7296 175.151 46.8376 175.18C51.1886 175.238 54.6806 178.826 54.6226 183.177C54.6176 183.568 54.5836 183.954 54.5226 184.331ZM40.7596 182.095C40.7126 182.388 40.6866 182.687 40.6816 182.989C40.6366 186.325 43.3146 189.075 46.6506 189.12C49.9866 189.165 52.7386 186.488 52.7816 183.151C52.8266 179.815 50.1486 177.065 46.8126 177.02C45.1966 176.998 43.6686 177.607 42.5106 178.735C41.5696 179.651 40.9646 180.821 40.7596 182.095Z" fill="#BDD0FB"/>
<path d="M65.8016 185.989C65.6966 186.641 65.5576 187.292 65.3856 187.939C65.3316 188.143 65.2736 188.346 65.2126 188.547C64.9126 189.542 64.5336 190.512 64.0816 191.442C64.0756 191.455 64.0696 191.467 64.0636 191.48C64.0456 191.516 64.0286 191.552 64.0106 191.587C63.9766 191.657 63.9406 191.726 63.9056 191.795C63.8126 191.977 63.6146 192.071 63.4236 192.04C63.3766 192.032 63.3306 192.018 63.2866 191.995C63.0606 191.879 62.9716 191.602 63.0866 191.376C63.6826 190.212 64.1566 188.975 64.4966 187.701C66.1856 181.373 64.3626 174.92 60.2306 170.42C57.9326 167.916 54.9206 166.017 51.4006 165.078C50.7836 164.913 50.1626 164.781 49.5406 164.681C45.3536 164.007 41.0976 164.787 37.3776 166.94C33.1046 169.413 30.0506 173.403 28.7776 178.173C26.1506 188.025 32.0256 198.17 41.8726 200.797C42.4796 200.959 43.0926 201.09 43.7096 201.189C46.3806 201.619 49.1156 201.459 51.7186 200.713C51.7856 200.694 51.8536 200.69 51.9186 200.701C52.0886 200.728 52.2376 200.851 52.2876 201.028C52.3566 201.273 52.2176 201.527 51.9716 201.597C49.2386 202.381 46.3666 202.549 43.5626 202.097C42.9156 201.993 42.2726 201.856 41.6346 201.686C31.2956 198.928 25.1296 188.271 27.8866 177.936C29.2226 172.928 32.4286 168.74 36.9146 166.143C40.8196 163.882 45.2876 163.063 49.6836 163.771C50.3366 163.876 50.9886 164.015 51.6366 164.188C56.6446 165.524 60.8326 168.73 63.4296 173.216C65.6916 177.123 66.5096 181.593 65.8016 185.989Z" fill="#BDD0FB"/>
<g opacity="0.3">
<path d="M69.4785 271.683C69.4295 271.987 69.1865 272.234 68.8655 272.275C68.2675 272.351 67.6576 272.409 67.0556 272.449C66.6646 272.475 66.3256 272.179 66.2996 271.787C66.2726 271.395 66.5706 271.057 66.9616 271.031C67.5356 270.993 68.1166 270.937 68.6876 270.865C69.0766 270.816 69.4316 271.091 69.4816 271.481C69.4906 271.55 69.4885 271.618 69.4785 271.683Z" fill="#91B3FA"/>
<path d="M64.0144 271.868C63.9574 272.224 63.6384 272.485 63.2714 272.464C62.2344 272.404 61.1884 272.289 60.1634 272.124C59.9474 272.089 59.7314 272.052 59.5154 272.012C59.1294 271.941 58.8914 271.553 58.9434 271.185C59.0144 270.799 59.3844 270.543 59.7704 270.613C59.9774 270.651 60.1834 270.687 60.3904 270.72C61.3684 270.878 62.3654 270.987 63.3544 271.044C63.7464 271.067 64.0454 271.403 64.0234 271.795C64.0204 271.82 64.0184 271.845 64.0144 271.868ZM56.7554 270.541C56.7504 270.574 56.7424 270.608 56.7324 270.641C56.6154 271.016 56.2164 271.225 55.8414 271.108C54.6394 270.733 53.4494 270.28 52.3064 269.761C51.9484 269.599 51.7914 269.176 51.9524 268.82C52.1144 268.462 52.5354 268.304 52.8934 268.466C53.9844 268.961 55.1184 269.393 56.2654 269.75C56.6074 269.857 56.8114 270.197 56.7554 270.541ZM50.0354 267.493C50.0214 267.582 49.9894 267.67 49.9394 267.751C49.7344 268.086 49.2964 268.19 48.9614 267.985C47.8894 267.327 46.8474 266.596 45.8634 265.809C45.5564 265.564 45.5064 265.118 45.7524 264.81C45.9974 264.504 46.4444 264.454 46.7514 264.699C47.6894 265.449 48.6824 266.146 49.7054 266.773C49.9584 266.929 50.0804 267.217 50.0354 267.493ZM44.2704 262.886C44.2474 263.031 44.1784 263.17 44.0654 263.281C43.7844 263.555 43.3344 263.55 43.0604 263.268C42.1804 262.366 41.3494 261.402 40.5904 260.402C40.3534 260.089 40.4154 259.643 40.7264 259.406C41.0384 259.168 41.4844 259.229 41.7224 259.542C42.4464 260.495 43.2394 261.415 44.0774 262.275C44.2414 262.443 44.3054 262.671 44.2704 262.886ZM39.8054 257.01C39.7724 257.213 39.6524 257.4 39.4614 257.512C39.1224 257.709 38.6874 257.594 38.4894 257.255C37.8564 256.167 37.2854 255.031 36.7904 253.876C36.6344 253.515 36.8024 253.097 37.1634 252.943C37.5244 252.788 37.9424 252.956 38.0964 253.316C38.5684 254.418 39.1134 255.502 39.7174 256.539C39.8044 256.688 39.8314 256.854 39.8054 257.01ZM36.9024 250.231C36.8604 250.494 36.6704 250.722 36.3974 250.801C36.0204 250.91 35.6264 250.693 35.5174 250.316C35.1684 249.108 34.8904 247.866 34.6944 246.626C34.6344 246.237 34.8974 245.874 35.2854 245.813C35.6724 245.751 36.0374 246.016 36.0984 246.403C36.2864 247.586 36.5504 248.769 36.8834 249.921C36.9134 250.025 36.9184 250.13 36.9024 250.231ZM35.7454 242.949C35.6924 243.278 35.4124 243.534 35.0684 243.546C34.6764 243.559 34.3474 243.252 34.3344 242.859C34.2924 241.606 34.3284 240.334 34.4414 239.077C34.4834 238.686 34.8234 238.398 35.2134 238.433C35.6044 238.468 35.8924 238.814 35.8574 239.205C35.7484 240.403 35.7144 241.617 35.7544 242.811C35.7554 242.858 35.7524 242.904 35.7454 242.949ZM37.4114 232.041C37.4044 232.081 37.3944 232.122 37.3804 232.163C37.0394 233.141 36.7454 234.156 36.5084 235.178C36.4714 235.333 36.4374 235.485 36.4044 235.637C36.3214 236.021 35.9444 236.265 35.5604 236.183C35.1754 236.101 34.9214 235.718 35.0144 235.339C35.0494 235.177 35.0854 235.015 35.1244 234.853C35.3734 233.785 35.6804 232.722 36.0384 231.696C36.1674 231.325 36.5724 231.13 36.9434 231.259C37.2734 231.373 37.4644 231.707 37.4114 232.041Z" fill="#91B3FA"/>
</g>
<g opacity="0.3">
<path d="M95.3845 246.285C95.3225 246.668 94.9635 246.931 94.5785 246.875C94.1905 246.818 93.9215 246.456 93.9795 246.068C94.1525 244.899 94.2555 243.71 94.2855 242.533C94.2995 242.143 94.6215 241.83 95.0145 241.841C95.4075 241.851 95.7165 242.178 95.7065 242.57C95.6745 243.804 95.5665 245.051 95.3855 246.276C95.3855 246.278 95.3855 246.281 95.3845 246.285ZM94.6375 249.843C94.6335 249.868 94.6275 249.893 94.6215 249.918C94.2955 251.112 93.8935 252.297 93.4275 253.443C93.2785 253.806 92.8645 253.981 92.5015 253.833C92.1375 253.685 91.9645 253.269 92.1105 252.907C92.5555 251.814 92.9395 250.683 93.2505 249.544C93.3535 249.165 93.7445 248.942 94.1225 249.046C94.4775 249.142 94.6945 249.489 94.6375 249.843ZM95.5695 239.03C95.5195 239.341 95.2655 239.592 94.9365 239.624C94.5465 239.662 94.1985 239.377 94.1605 238.986C94.0455 237.809 93.8575 236.63 93.6015 235.48C93.5175 235.096 93.7585 234.717 94.1415 234.632C94.5245 234.547 94.9045 234.789 94.9895 235.172C95.2575 236.377 95.4535 237.614 95.5745 238.847C95.5805 238.91 95.5785 238.972 95.5695 239.03ZM91.8945 256.565C91.8815 256.645 91.8545 256.724 91.8135 256.799C91.2095 257.88 90.5335 258.934 89.8025 259.933C89.5705 260.25 89.1265 260.319 88.8095 260.087C88.4935 259.855 88.4255 259.411 88.6555 259.094C89.3525 258.142 89.9975 257.137 90.5725 256.106C90.7635 255.764 91.1975 255.641 91.5395 255.832C91.8075 255.981 91.9405 256.279 91.8945 256.565ZM93.9945 231.948C93.9545 232.196 93.7835 232.416 93.5305 232.505C93.1605 232.636 92.7545 232.442 92.6235 232.072C92.2305 230.96 91.7645 229.861 91.2395 228.804C91.0645 228.452 91.2085 228.026 91.5595 227.851C91.9105 227.676 92.3375 227.82 92.5125 228.171C93.0625 229.279 93.5515 230.431 93.9635 231.597C94.0045 231.714 94.0125 231.834 93.9945 231.948ZM90.7665 225.449C90.7355 225.639 90.6285 225.816 90.4555 225.93C90.1275 226.146 89.6865 226.055 89.4715 225.727C88.8215 224.739 88.1065 223.783 87.3455 222.884C87.0915 222.584 87.1295 222.135 87.4285 221.882C87.7285 221.628 88.1765 221.666 88.4295 221.965C89.2275 222.908 89.9775 223.91 90.6585 224.945C90.7605 225.1 90.7945 225.28 90.7665 225.449ZM86.0745 219.91C86.0525 220.044 85.9935 220.173 85.8945 220.279C85.6285 220.567 85.1785 220.584 84.8905 220.318C84.0235 219.514 83.0995 218.758 82.1445 218.068C81.8275 217.838 81.7545 217.394 81.9845 217.076C82.2145 216.758 82.6585 216.686 82.9765 216.916C83.9775 217.639 84.9475 218.433 85.8565 219.275C86.0375 219.443 86.1115 219.683 86.0745 219.91Z" fill="#91B3FA"/>
<path d="M87.5857 262.449C87.5637 262.584 87.5027 262.715 87.4017 262.822C86.9847 263.265 86.5537 263.698 86.1187 264.109C85.8337 264.378 85.3837 264.366 85.1137 264.081C84.8457 263.796 84.8577 263.346 85.1417 263.076C85.5567 262.684 85.9677 262.271 86.3657 261.849C86.6347 261.563 87.0847 261.549 87.3707 261.818C87.5497 261.986 87.6217 262.224 87.5857 262.449Z" fill="#91B3FA"/>
</g>
<path d="M78.6155 260.405C78.7485 260.328 78.8175 260.175 78.7885 260.025L77.9495 255.726C79.4395 254.325 80.7165 252.676 81.7085 250.819L86.0745 250.507C86.2275 250.496 86.3565 250.389 86.3965 250.241L87.7505 245.165C87.7905 245.017 87.7315 244.86 87.6035 244.774L83.9735 242.329C84.0375 240.225 83.7515 238.159 83.1575 236.202L86.0255 232.892C86.1255 232.776 86.1415 232.609 86.0645 232.476L83.4325 227.929C83.3555 227.796 83.2025 227.727 83.0525 227.756L78.7535 228.595C77.3525 227.105 75.7035 225.828 73.8465 224.836L73.5345 220.47C73.5235 220.317 73.4165 220.188 73.2685 220.148L68.1925 218.794C68.0445 218.754 67.8865 218.813 67.8015 218.941L65.3565 222.571C63.2525 222.507 61.1865 222.793 59.2295 223.387L55.9195 220.519C55.8035 220.419 55.6365 220.403 55.5035 220.479L50.9565 223.111C50.8235 223.188 50.7545 223.341 50.7835 223.491L51.6225 227.79C50.1325 229.191 48.8555 230.84 47.8635 232.697L43.4975 233.009C43.3445 233.02 43.2155 233.127 43.1755 233.275L41.8215 238.351C41.7815 238.499 41.8405 238.656 41.9685 238.742L45.5985 241.187C45.5345 243.291 45.8205 245.357 46.4145 247.314L43.5465 250.624C43.4455 250.74 43.4305 250.907 43.5065 251.04L46.1385 255.587C46.2155 255.72 46.3685 255.789 46.5185 255.76L50.8175 254.921C52.2185 256.411 53.8675 257.688 55.7245 258.68L56.0365 263.046C56.0475 263.199 56.1545 263.328 56.3025 263.368L61.3785 264.722C61.5265 264.762 61.6835 264.703 61.7695 264.575L64.2145 260.945C66.3185 261.009 68.3845 260.723 70.3415 260.129L73.6515 262.997C73.7675 263.098 73.9345 263.113 74.0675 263.037L78.6155 260.405Z" fill="#91B3FA"/>
<path d="M70.0926 242.624C69.9106 243.756 69.3726 244.795 68.5366 245.61C67.5076 246.612 66.1506 247.152 64.7146 247.133C61.7516 247.094 59.3726 244.65 59.4116 241.686C59.4566 238.718 61.8956 236.343 64.8586 236.383C66.2946 236.402 67.6366 236.979 68.6386 238.008C69.6406 239.037 70.1816 240.394 70.1616 241.83C70.1576 242.099 70.1346 242.364 70.0926 242.624ZM60.8826 241.127C60.8526 241.316 60.8356 241.509 60.8326 241.706C60.8036 243.886 62.5536 245.683 64.7336 245.712C65.7896 245.726 66.7886 245.328 67.5446 244.592C68.3016 243.855 68.7246 242.868 68.7406 241.811C68.7546 240.755 68.3566 239.756 67.6206 239C66.8836 238.243 65.8966 237.819 64.8396 237.804C62.8566 237.778 61.1896 239.224 60.8826 241.127Z" fill="#BDD0FB"/>
<path d="M77.9416 243.787C77.8696 244.231 77.7756 244.675 77.6576 245.118C77.4226 245.999 77.0986 246.856 76.6916 247.669C76.6726 247.705 76.6546 247.742 76.6356 247.778C76.4916 248.059 76.1866 248.204 75.8906 248.156C75.8186 248.144 75.7476 248.121 75.6786 248.086C75.3296 247.907 75.1926 247.479 75.3696 247.13C75.7566 246.375 76.0626 245.574 76.2826 244.751C76.2946 244.706 76.3066 244.66 76.3176 244.615C76.8186 242.662 76.8136 240.659 76.3326 238.755C76.0716 237.721 75.6696 236.717 75.1306 235.766C75.1266 235.758 75.1216 235.751 75.1176 235.743C75.1036 235.719 75.0906 235.696 75.0766 235.672C73.4756 232.906 70.8926 230.929 67.8046 230.105C67.4046 229.998 67.0036 229.913 66.6006 229.848C63.8896 229.412 61.1346 229.917 58.7256 231.311C55.9596 232.912 53.9826 235.495 53.1596 238.583C52.3376 241.669 52.7636 244.895 54.3646 247.662C55.9656 250.428 58.5486 252.405 61.6366 253.229C62.0296 253.334 62.4266 253.418 62.8256 253.483C64.5546 253.761 66.3256 253.658 68.0106 253.175C68.1146 253.145 68.2196 253.14 68.3196 253.156C68.5826 253.198 68.8116 253.388 68.8896 253.662C68.9966 254.04 68.7806 254.433 68.4016 254.541C66.5166 255.082 64.5346 255.197 62.6006 254.887C62.1536 254.815 61.7096 254.721 61.2706 254.603C57.8146 253.681 54.9256 251.469 53.1346 248.374C51.3436 245.279 50.8616 241.674 51.7856 238.217C52.7066 234.762 54.9186 231.872 58.0146 230.081C60.7086 228.521 63.7916 227.956 66.8246 228.444C67.2746 228.517 67.7246 228.612 68.1716 228.731C74.8626 230.517 79.0206 237.093 77.9416 243.787Z" fill="#BDD0FB"/>
<path d="M97.0603 13.8732C96.1423 57.2162 93.1633 206.722 94.5853 259.703C94.7363 265.316 98.5823 269.821 103.38 270.004C127.109 270.912 214.099 273.215 252.912 271.31C260.996 270.913 267.425 263.253 267.593 253.789C268.4 208.295 270.179 80.3382 265.95 21.7202C265.443 14.6972 260.731 9.10421 254.736 8.40222C228.893 5.37821 141.529 -2.01378 107.997 0.532215C101.949 0.991215 97.2113 6.78622 97.0603 13.8732Z" fill="url(#paint1_linear_4553_94024)"/>
<path d="M107.648 27.1712C106.371 62.1552 102.342 178.54 103.621 221.576C103.808 227.866 108.046 232.953 113.417 233.32C135.532 234.834 210.981 238.172 243.417 235.134C249.258 234.587 253.841 229.061 254.156 222.216C255.8 186.525 260.519 78.1552 259.294 35.6012C259.098 28.8122 254.603 23.2682 248.82 22.6612C224.896 20.1482 144.722 14.1692 117.159 15.9282C111.985 16.2582 107.869 21.1142 107.648 27.1712Z" fill="#91B3FA"/>
<path opacity="0.33" d="M113.843 34.0595C112.675 66.6025 108.99 174.865 110.159 214.898C110.33 220.749 114.206 225.481 119.118 225.823C139.344 227.231 208.351 230.336 238.018 227.51C243.36 227.001 247.552 221.861 247.84 215.494C249.343 182.293 253.66 81.4865 252.539 41.9015C252.36 35.5865 248.249 30.4295 242.96 29.8645C221.078 27.5265 147.75 21.9645 122.54 23.6015C117.809 23.9085 114.045 28.4255 113.843 34.0595Z" fill="white"/>
<path opacity="0.66" d="M155.705 8.1076C155.705 9.4376 156.591 10.5346 157.726 10.6036C163.331 10.9466 179.119 11.9186 186.175 12.3976C187.566 12.4916 188.658 11.0286 188.394 9.4286L188.349 9.1556C188.169 8.0636 187.395 7.2416 186.448 7.1396C181.678 6.6286 167.286 5.2106 157.751 5.6086C156.606 5.6566 155.705 6.7666 155.705 8.1076Z" fill="url(#paint2_linear_4553_94024)"/>
<path opacity="0.54" d="M216.433 194.499H147.645C146.941 194.499 146.37 193.928 146.37 193.224V174.619C146.37 173.915 146.941 173.344 147.645 173.344H216.433C217.137 173.344 217.708 173.915 217.708 174.619V193.224C217.708 193.929 217.137 194.499 216.433 194.499Z" fill="white"/>
<path opacity="0.54" d="M216.761 210.492H147.973C147.269 210.492 146.698 209.921 146.698 209.217V201.189C146.698 200.485 147.269 199.914 147.973 199.914H216.761C217.465 199.914 218.036 200.485 218.036 201.189V209.217C218.036 209.921 217.465 210.492 216.761 210.492Z" fill="white"/>
<path d="M174.519 154.595C187.161 154.595 197.41 144.346 197.41 131.704C197.41 119.061 187.161 108.812 174.519 108.812C161.877 108.812 151.628 119.061 151.628 131.704C151.628 144.346 161.877 154.595 174.519 154.595Z" fill="url(#paint3_linear_4553_94024)"/>
<path d="M174.519 153.83C186.741 153.83 196.649 143.922 196.649 131.7C196.649 119.478 186.741 109.57 174.519 109.57C162.297 109.57 152.389 119.478 152.389 131.7C152.389 143.922 162.297 153.83 174.519 153.83Z" fill="url(#paint4_linear_4553_94024)"/>
<path opacity="0.7" d="M156.093 123.64C155.981 123.642 155.867 123.62 155.759 123.568C155.39 123.392 155.234 122.95 155.411 122.581C158.881 115.323 166.029 110.709 174.066 110.536C175.349 110.509 176.635 110.597 177.891 110.797C178.294 110.861 178.569 111.241 178.505 111.644C178.441 112.048 178.063 112.326 177.657 112.258C176.49 112.072 175.292 111.99 174.098 112.015C166.623 112.175 159.975 116.468 156.746 123.218C156.621 123.479 156.364 123.634 156.093 123.64Z" fill="white"/>
<path opacity="0.78" d="M188.252 145.416C195.567 138.101 195.567 126.242 188.252 118.928C180.938 111.613 169.079 111.613 161.764 118.928C154.45 126.242 154.45 138.101 161.764 145.416C169.079 152.73 180.938 152.73 188.252 145.416Z" fill="white"/>
<path d="M173.482 146.036V140.26H168.476C167.945 140.26 167.514 139.829 167.514 139.298C167.514 138.767 167.945 138.336 168.476 138.336H173.482V135.565H168.476C167.945 135.565 167.514 135.134 167.514 134.603C167.514 134.072 167.945 133.641 168.476 133.641H172.52L166.845 123.406C166.489 122.765 166.953 121.977 167.687 121.977H169.078C169.441 121.977 169.773 122.181 169.937 122.506L173.673 129.908C174.291 131.215 174.751 132.256 175.212 133.409H175.328C175.714 132.331 176.215 131.139 176.87 129.829L180.756 122.489C180.923 122.174 181.25 121.977 181.607 121.977H182.883C183.628 121.977 184.091 122.787 183.711 123.429L177.676 133.641H181.72C182.251 133.641 182.682 134.072 182.682 134.603C182.682 135.134 182.251 135.565 181.72 135.565H176.676V138.336H181.72C182.251 138.336 182.682 138.767 182.682 139.298C182.682 139.829 182.251 140.26 181.72 140.26H176.676V146.036C176.676 146.567 176.245 146.998 175.714 146.998H174.444C173.913 146.998 173.482 146.567 173.482 146.036Z" fill="url(#paint5_linear_4553_94024)"/>
<path d="M202.904 132.588C219.04 132.588 232.12 119.508 232.12 103.372C232.12 87.2367 219.04 74.1562 202.904 74.1562C186.768 74.1562 173.688 87.2367 173.688 103.372C173.688 119.508 186.768 132.588 202.904 132.588Z" fill="url(#paint6_linear_4553_94024)"/>
<path d="M202.904 131.621C218.502 131.621 231.148 118.976 231.148 103.377C231.148 87.7781 218.502 75.1328 202.904 75.1328C187.305 75.1328 174.66 87.7781 174.66 103.377C174.66 118.976 187.305 131.621 202.904 131.621Z" fill="url(#paint7_linear_4553_94024)"/>
<path opacity="0.7" d="M179.383 92.8662C179.274 92.8682 179.163 92.8462 179.058 92.7962C178.699 92.6242 178.548 92.1952 178.719 91.8372C183.111 82.6512 192.159 76.8102 202.33 76.5922C203.951 76.5572 205.58 76.6692 207.171 76.9232C207.563 76.9862 207.83 77.3552 207.768 77.7472C207.705 78.1392 207.339 78.4122 206.944 78.3442C205.438 78.1042 203.896 77.9982 202.361 78.0312C192.736 78.2372 184.174 83.7652 180.017 92.4572C179.897 92.7102 179.646 92.8612 179.383 92.8662Z" fill="white"/>
<path opacity="0.78" d="M220.434 120.88C229.769 111.544 229.769 96.4087 220.434 87.0733C211.098 77.7379 195.963 77.7379 186.627 87.0733C177.292 96.4087 177.292 111.544 186.627 120.88C195.963 130.215 211.098 130.215 220.434 120.88Z" fill="white"/>
<path d="M201.611 121.388V113.809H195.041C194.344 113.809 193.778 113.243 193.778 112.545C193.778 111.849 194.343 111.282 195.041 111.282H201.611V107.646H195.041C194.344 107.646 193.778 107.08 193.778 106.382C193.778 105.686 194.343 105.12 195.041 105.12H200.348L192.901 91.6875C192.434 90.8455 193.043 89.8125 194.006 89.8125H195.832C196.309 89.8125 196.745 90.0805 196.959 90.5065L201.862 100.22C202.672 101.935 203.277 103.301 203.882 104.815H204.034C204.54 103.4 205.198 101.837 206.058 100.117L211.157 90.4845C211.376 90.0715 211.805 89.8125 212.273 89.8125H213.948C214.926 89.8125 215.533 90.8765 215.035 91.7175L207.115 105.12H212.422C213.119 105.12 213.685 105.685 213.685 106.382C213.685 107.08 213.12 107.646 212.422 107.646H205.803V111.282H212.422C213.119 111.282 213.685 111.847 213.685 112.545C213.685 113.243 213.12 113.809 212.422 113.809H205.803V121.388C205.803 122.085 205.238 122.651 204.54 122.651H202.874C202.177 122.651 201.611 122.086 201.611 121.388Z" fill="url(#paint8_linear_4553_94024)"/>
<path d="M242.535 101.788C264.02 101.788 281.437 84.3714 281.437 62.8864C281.437 41.4014 264.02 23.9844 242.535 23.9844C221.05 23.9844 203.633 41.4014 203.633 62.8864C203.633 84.3714 221.05 101.788 242.535 101.788Z" fill="url(#paint9_linear_4553_94024)"/>
<path d="M242.535 100.489C263.306 100.489 280.143 83.6518 280.143 62.8814C280.143 42.1111 263.306 25.2734 242.535 25.2734C221.765 25.2734 204.927 42.1111 204.927 62.8814C204.927 83.6518 221.765 100.489 242.535 100.489Z" fill="url(#paint10_linear_4553_94024)"/>
<path opacity="0.7" d="M211.21 48.635C211.104 48.637 210.995 48.616 210.893 48.566C210.543 48.399 210.395 47.979 210.563 47.63C216.369 35.487 228.33 27.765 241.777 27.477C243.923 27.431 246.076 27.578 248.177 27.915C248.56 27.976 248.821 28.336 248.759 28.719C248.698 29.102 248.34 29.364 247.955 29.301C245.937 28.978 243.869 28.836 241.807 28.881C228.893 29.158 217.406 36.574 211.83 48.236C211.711 48.483 211.467 48.63 211.21 48.635Z" fill="white"/>
<path opacity="0.78" d="M265.878 86.1952C278.309 73.7645 278.309 53.6105 265.878 41.1798C253.447 28.7492 233.293 28.7491 220.863 41.1798C208.432 53.6105 208.432 73.7645 220.863 86.1952C233.293 98.6259 253.447 98.6259 265.878 86.1952Z" fill="white"/>
<path d="M240.18 85.3453V74.8673H231.098C230.134 74.8673 229.352 74.0853 229.352 73.1213C229.352 72.1573 230.134 71.3753 231.098 71.3753H240.18V66.3483H231.098C230.134 66.3483 229.352 65.5663 229.352 64.6023C229.352 63.6383 230.134 62.8563 231.098 62.8563H238.434L228.14 44.2873C227.495 43.1233 228.336 41.6953 229.667 41.6953H232.191C232.85 41.6953 233.453 42.0663 233.75 42.6543L240.528 56.0833C241.648 58.4543 242.484 60.3423 243.32 62.4353H243.53C244.229 60.4793 245.139 58.3183 246.328 55.9413L253.377 42.6243C253.68 42.0523 254.273 41.6953 254.92 41.6953H257.235C258.587 41.6953 259.426 43.1653 258.738 44.3293L247.789 62.8563H255.125C256.089 62.8563 256.871 63.6383 256.871 64.6023C256.871 65.5663 256.089 66.3483 255.125 66.3483H245.975V71.3753H255.125C256.089 71.3753 256.871 72.1573 256.871 73.1213C256.871 74.0853 256.089 74.8673 255.125 74.8673H245.975V85.3453C245.975 86.3093 245.193 87.0913 244.229 87.0913H241.926C240.962 87.0913 240.18 86.3093 240.18 85.3453Z" fill="url(#paint11_linear_4553_94024)"/>
<path d="M153.053 69.3127H19.7564C18.6034 69.3127 17.6694 68.3787 17.6694 67.2257V2.18075C17.6694 1.02775 18.6034 0.09375 19.7564 0.09375H153.053C154.206 0.09375 155.14 1.02775 155.14 2.18075V67.2247C155.14 68.3777 154.205 69.3127 153.053 69.3127Z" fill="#7D97F4"/>
<path opacity="0.41" d="M148.851 68.1161H22.6573C21.5043 68.1161 20.5703 67.1821 20.5703 66.0291V10.7511C20.5703 9.59806 21.5043 8.66406 22.6573 8.66406H148.851C150.004 8.66406 150.938 9.59806 150.938 10.7511V66.0291C150.938 67.1821 150.003 68.1161 148.851 68.1161Z" fill="white"/>
<g opacity="0.67">
<path d="M32.7174 19.8203H24.8384V65.2783H32.7174V19.8203Z" fill="white"/>
</g>
<g opacity="0.67">
<path d="M43.2984 19.8203H35.4194V65.2783H43.2984V19.8203Z" fill="white"/>
</g>
<g opacity="0.67">
<path d="M53.6583 19.8203H45.7793V65.2783H53.6583V19.8203Z" fill="white"/>
</g>
<g opacity="0.67">
<path d="M64.2393 19.8203H56.3604V65.2783H64.2393V19.8203Z" fill="white"/>
</g>
<g opacity="0.67">
<path d="M74.2852 19.8203H66.4062V65.2783H74.2852V19.8203Z" fill="white"/>
</g>
<g opacity="0.67">
<path d="M84.8663 19.8203H76.9873V65.2783H84.8663V19.8203Z" fill="white"/>
</g>
<g opacity="0.67">
<path d="M95.2262 19.8203H87.3472V65.2783H95.2262V19.8203Z" fill="white"/>
</g>
<g opacity="0.67">
<path d="M105.807 19.8203H97.9282V65.2783H105.807V19.8203Z" fill="white"/>
</g>
<g opacity="0.67">
<path d="M116.354 19.8203H108.475V65.2783H116.354V19.8203Z" fill="white"/>
</g>
<g opacity="0.67">
<path d="M126.934 19.8203H119.055V65.2783H126.934V19.8203Z" fill="white"/>
</g>
<g opacity="0.67">
<path d="M137.295 19.8203H129.416V65.2783H137.295V19.8203Z" fill="white"/>
</g>
<g opacity="0.67">
<path d="M147.876 19.8203H139.997V65.2783H147.876V19.8203Z" fill="white"/>
</g>
<path d="M155.174 14.561V4.336C155.174 1.946 153.202 0 150.812 0H21.9963C19.6063 0 17.6943 1.946 17.6943 4.336V14.561H155.174Z" fill="#7D97F4"/>
<path d="M32.7652 43.3359H24.8862V65.2809H32.7652V43.3359Z" fill="url(#paint12_linear_4553_94024)"/>
<path d="M43.3463 36.6172H35.4673V65.2812H43.3463V36.6172Z" fill="url(#paint13_linear_4553_94024)"/>
<path d="M53.7061 48.6797H45.8271V65.2817H53.7061V48.6797Z" fill="url(#paint14_linear_4553_94024)"/>
<path d="M64.2872 30.6016H56.4082V65.2786H64.2872V30.6016Z" fill="url(#paint15_linear_4553_94024)"/>
<path d="M74.3331 24.7969H66.4541V65.2789H74.3331V24.7969Z" fill="url(#paint16_linear_4553_94024)"/>
<path d="M84.9142 52.9453H77.0352V65.2813H84.9142V52.9453Z" fill="url(#paint17_linear_4553_94024)"/>
<path d="M95.274 40.625H87.395V65.282H95.274V40.625Z" fill="url(#paint18_linear_4553_94024)"/>
<path d="M105.855 36.6172H97.9761V65.2812H105.855V36.6172Z" fill="url(#paint19_linear_4553_94024)"/>
<path d="M116.4 42.5469H108.521V65.2759H116.4V42.5469Z" fill="url(#paint20_linear_4553_94024)"/>
<path d="M126.982 27.4922H119.103V65.2792H126.982V27.4922Z" fill="url(#paint21_linear_4553_94024)"/>
<path d="M137.342 30.6016H129.463V65.2786H137.342V30.6016Z" fill="url(#paint22_linear_4553_94024)"/>
<path d="M147.923 34.9531H140.044V65.2771H147.923V34.9531Z" fill="url(#paint23_linear_4553_94024)"/>
<path d="M89.8424 271C85.9224 271.339 79.1194 271.889 73.7554 272.125C70.5314 272.267 68.6754 271.951 67.6064 271.523C67.6084 271.644 67.6114 271.757 67.6164 271.863C67.6414 272.427 68.1004 272.879 68.6704 272.911C78.8044 273.477 86.8644 273.107 89.7344 272.932C90.3274 272.896 90.6814 272.251 90.3774 271.745C90.2254 271.493 90.0414 271.245 89.8424 271Z" fill="url(#paint24_linear_4553_94024)"/>
<path d="M73.7553 272.126C79.1183 271.89 85.9223 271.34 89.8423 271.001C85.9883 266.273 73.7553 263.086 73.7553 263.086H70.3003C67.9243 266.511 67.5803 269.772 67.6063 271.525C68.6753 271.953 70.5313 272.268 73.7553 272.126Z" fill="url(#paint25_linear_4553_94024)"/>
<path d="M69.7183 257.445L70.0413 263.843C70.0763 264.536 70.5953 265.118 71.2883 265.217C71.9783 265.316 72.9033 265.328 73.8833 265.002C74.4863 264.801 74.9343 264.293 75.0453 263.673L76.1623 257.445H69.7183Z" fill="url(#paint26_linear_4553_94024)"/>
<path d="M29.6205 278.387C27.9205 278.081 27.1515 276.939 26.8285 275.719C26.8265 275.73 26.8245 275.741 26.8225 275.752C26.5725 277.039 27.1525 278.373 28.3115 279.007C29.7125 279.774 31.2445 279.904 32.4335 279.841C33.7095 279.773 34.8805 279.091 35.5245 277.999L35.5345 277.983C34.2525 278.801 32.4545 278.898 29.6205 278.387Z" fill="url(#paint27_linear_4553_94024)"/>
<path d="M37.6346 259.423H34.7856C30.4456 259.308 27.7206 271.139 26.8286 275.72C27.1506 276.94 27.9206 278.081 29.6206 278.388C32.4556 278.899 34.2536 278.803 35.5336 277.984C37.8786 273.996 39.0406 268.156 39.5996 264.748C40.2346 260.871 37.6346 259.423 37.6346 259.423Z" fill="url(#paint28_linear_4553_94024)"/>
<path d="M35.1514 253.484L33.5694 259.777C33.3754 260.549 33.7444 261.347 34.4584 261.713C35.3434 262.167 36.5894 262.644 37.7344 262.506C38.2734 262.441 38.7204 262.062 38.8984 261.555L41.2214 254.935L35.1514 253.484Z" fill="url(#paint29_linear_4553_94024)"/>
<path d="M90.8075 170.606C90.8075 170.606 76.6685 258.984 76.9015 259.47C76.9015 259.47 72.9965 261.245 68.7395 259.696C68.7395 259.696 70.0185 212.452 73.0135 194.337C73.0135 194.337 48.8835 236.564 41.2215 257.605C41.2215 257.605 37.2245 257.128 33.9165 254.951C33.9165 254.951 59.8975 178.944 66.8285 168.82L90.8075 170.606Z" fill="url(#paint30_linear_4553_94024)"/>
<path d="M73.5787 194.022C73.4757 194.022 73.3717 193.994 73.2777 193.935C73.0117 193.769 72.9307 193.418 73.0977 193.152L78.3817 184.713C78.4647 184.581 78.5977 184.488 78.7507 184.457L82.6387 183.675C82.9467 183.613 83.2457 183.812 83.3077 184.12C83.3697 184.428 83.1707 184.727 82.8627 184.789L79.2137 185.523L74.0607 193.755C73.9527 193.927 73.7677 194.022 73.5787 194.022Z" fill="url(#paint31_linear_4553_94024)"/>
<path d="M155.688 84.0625C155.688 84.0625 146.148 86.1665 140.345 88.8455C139.192 89.3775 138.273 90.3085 137.75 91.4545C136.015 95.2565 130.822 104.79 120.752 109.339C122.202 111.264 124.537 115.266 125.554 121.996C131.602 117.495 136.823 109.978 139.33 97.6485C139.33 97.6485 141.239 98.6865 143.62 97.5295C144.878 96.9185 146.331 96.0515 147.421 95.3705C148.507 94.6915 149.317 93.6355 149.631 92.4025C150.046 90.7745 149.802 89.3425 149.802 87.8065L154.706 86.2875C154.706 86.2875 156.18 85.7315 155.688 84.0625Z" fill="url(#paint32_linear_4553_94024)"/>
<path d="M125.554 121.997C124.537 115.268 122.202 111.264 120.752 109.339C114.497 112.165 106.359 113.069 95.9984 109.478C95.0434 109.147 94.0474 108.953 93.0364 108.894C87.5204 108.571 69.3423 107.98 54.3013 112.95C51.1353 113.996 48.5723 116.336 47.2503 119.368C43.1813 128.705 36.5944 149.97 54.8814 160.706C56.2864 157.218 57.9084 154.414 59.2944 152.354C56.3494 147.387 55.4773 140.602 60.7033 131.767C64.5143 142.057 66.3014 157.071 66.6754 163.715C66.7984 165.903 66.4144 168.086 65.5564 170.106L65.4624 170.326C65.2784 170.758 65.5314 171.255 65.9934 171.359C76.2883 173.672 86.9963 173.043 90.1953 172.779C90.7663 172.732 91.2413 172.323 91.3723 171.771C96.3783 150.677 96.3904 136.288 95.1643 127.192C99.8474 128.239 114.167 130.472 125.554 121.997Z" fill="url(#paint33_linear_4553_94024)"/>
<path d="M95.1845 127.913C94.9035 127.913 94.6595 127.705 94.6215 127.419C93.4465 118.542 91.0735 114.723 91.0505 114.685C90.8825 114.42 90.9605 114.069 91.2255 113.901C91.4905 113.733 91.8415 113.811 92.0095 114.076C92.1125 114.238 94.5405 118.146 95.7485 127.27C95.7895 127.581 95.5705 127.867 95.2595 127.908C95.2345 127.911 95.2095 127.913 95.1845 127.913Z" fill="url(#paint34_linear_4553_94024)"/>
<path d="M69.7787 96.6094C69.7787 96.6094 68.7377 107.621 67.8197 110.878C67.6807 111.372 67.8957 111.893 68.3447 112.15C69.9007 113.039 73.6337 114.49 78.7397 111.987C79.5667 111.582 80.0637 110.719 80.0257 109.807L79.5757 99.1664L69.7787 96.6094Z" fill="url(#paint35_linear_4553_94024)"/>
<path d="M79.8004 82.5156C79.8004 82.5156 83.1314 90.1676 83.3554 94.1846C83.5794 98.2006 84.4444 100.808 79.8004 101.616C75.1564 102.425 71.2444 100.111 69.1244 96.1106C69.1244 96.1106 65.8034 89.9456 66.5484 87.4216C67.2934 84.8956 79.8004 82.5156 79.8004 82.5156Z" fill="url(#paint36_linear_4553_94024)"/>
<path d="M70.7116 93.2366L70.9756 93.1196C71.3126 92.9716 71.4566 92.5706 71.2866 92.2436C70.6316 90.9786 69.3546 88.0786 71.0046 87.4026C73.1296 86.5306 81.5496 84.8136 83.3656 81.8266C85.1116 78.9556 83.5646 75.2496 81.2396 74.1946C81.0836 74.1236 80.9006 74.1796 80.8206 74.3306L80.6266 74.6976C80.4936 74.9486 80.1236 74.9106 80.0446 74.6376C79.9686 74.3756 79.6206 74.3256 79.4766 74.5566C78.9186 75.4506 77.4106 76.8996 73.3796 77.6436C67.6506 78.7006 63.8626 81.0196 63.7686 84.9786C63.7626 85.2306 63.4946 85.3696 63.2806 85.2386C62.8576 84.9806 62.1806 84.8596 61.2756 85.6206C59.7026 86.9436 60.3456 90.3756 63.7956 93.1986C63.9596 93.3326 63.9576 93.5886 63.7806 93.7036C63.1556 94.1106 62.2226 95.0796 64.6386 96.3706C67.1366 97.7056 69.0026 97.5966 69.7206 97.4776C69.8996 97.4476 70.0146 97.2746 69.9756 97.0986L69.2086 93.6186C69.1656 93.4216 69.3156 93.2356 69.5166 93.2356H70.7116V93.2366Z" fill="url(#paint37_linear_4553_94024)"/>
<path d="M70.8556 93.9712C70.8556 93.9712 69.5846 89.0832 67.3936 90.4532C65.2016 91.8242 68.5306 95.9302 70.2926 96.1132L70.8556 93.9712Z" fill="url(#paint38_linear_4553_94024)"/>
<path d="M141.875 96.6639C141.749 96.6639 141.622 96.6219 141.517 96.5369C141.274 96.3389 141.237 95.9809 141.435 95.7379C141.798 95.2919 145.016 91.3569 146.273 90.6469C146.679 90.4179 146.928 90.1829 146.974 89.9869C146.98 89.9599 146.994 89.9029 146.967 89.8019L143.371 90.5229L141.27 92.3269C141.032 92.5309 140.673 92.5039 140.469 92.2659C140.265 92.0279 140.292 91.6689 140.53 91.4649L142.744 89.5649C142.818 89.5009 142.907 89.4579 143.002 89.4389L147.167 88.6049C147.391 88.5599 147.622 88.6539 147.75 88.8449C148.075 89.3279 148.187 89.8009 148.081 90.2509C147.956 90.7819 147.548 91.2359 146.833 91.6399C146.027 92.0959 143.635 94.8369 142.317 96.4589C142.203 96.5919 142.04 96.6639 141.875 96.6639Z" fill="url(#paint39_linear_4553_94024)"/>
<path d="M70.7613 168.224L85.7943 167.897C85.7943 167.897 72.6853 164.192 71.8723 165.201C71.8723 165.201 63.7473 159.862 59.2953 152.352C57.9083 154.412 56.2873 157.216 54.8823 160.704C58.8733 163.047 64.1153 167.117 70.7613 168.224Z" fill="url(#paint40_linear_4553_94024)"/>
<path d="M70.3386 165.625C70.3386 165.625 70.0286 171.615 77.8906 170.745C82.1636 170.272 89.0616 166.288 89.0616 166.288C89.0616 166.288 71.0816 166.24 70.3386 165.625Z" fill="url(#paint41_linear_4553_94024)"/>
<path d="M73.4166 167.232C73.4456 167.233 73.4736 167.234 73.5026 167.234L110.879 167.194C111.803 167.193 112.551 166.451 112.55 165.537C112.549 164.622 111.797 163.867 110.875 163.883L73.4986 163.923C72.5746 163.924 71.8266 164.666 71.8276 165.58C71.8286 166.466 72.5326 167.188 73.4166 167.232Z" fill="url(#paint42_linear_4553_94024)"/>
<path d="M144.479 133.656H113.352C111.056 133.656 108.966 134.967 107.986 137.022L93.5957 167.213H132.279C133.759 167.213 135.088 166.318 135.632 164.957L146.791 137.02C147.435 135.405 146.233 133.656 144.479 133.656Z" fill="url(#paint43_linear_4553_94024)"/>
<path d="M122.548 149.139C121.873 151.213 122.372 153.226 123.661 153.637C124.95 154.048 126.542 152.699 127.217 150.626C127.892 148.553 127.393 146.539 126.104 146.128C124.815 145.717 123.223 147.065 122.548 149.139Z" fill="#7D97F4"/>
</g>
<defs>
<linearGradient id="paint0_linear_4553_94024" x1="315.4" y1="362.618" x2="66.3272" y2="53.2854" gradientUnits="userSpaceOnUse">
<stop stop-color="#DAE3FE"/>
<stop offset="1" stop-color="#E9EFFD"/>
</linearGradient>
<linearGradient id="paint1_linear_4553_94024" x1="94.2071" y1="136.026" x2="268.66" y2="136.026" gradientUnits="userSpaceOnUse">
<stop stop-color="#09005D"/>
<stop offset="1" stop-color="#1A0F91"/>
</linearGradient>
<linearGradient id="paint2_linear_4553_94024" x1="155.705" y1="8.97056" x2="188.434" y2="8.97056" gradientUnits="userSpaceOnUse">
<stop stop-color="#4F52FF"/>
<stop offset="1" stop-color="#4042E2"/>
</linearGradient>
<linearGradient id="paint3_linear_4553_94024" x1="143.98" y1="168.724" x2="173.914" y2="132.436" gradientUnits="userSpaceOnUse">
<stop stop-color="#FF928E"/>
<stop offset="1" stop-color="#FE7062"/>
</linearGradient>
<linearGradient id="paint4_linear_4553_94024" x1="190.704" y1="106.074" x2="102.867" y2="245.148" gradientUnits="userSpaceOnUse">
<stop stop-color="#FF928E"/>
<stop offset="1" stop-color="#FE7062"/>
</linearGradient>
<linearGradient id="paint5_linear_4553_94024" x1="166.723" y1="134.486" x2="183.846" y2="134.486" gradientUnits="userSpaceOnUse">
<stop stop-color="#FF928E"/>
<stop offset="1" stop-color="#FE7062"/>
</linearGradient>
<linearGradient id="paint6_linear_4553_94024" x1="163.928" y1="150.621" x2="202.133" y2="104.308" gradientUnits="userSpaceOnUse">
<stop stop-color="#FF928E"/>
<stop offset="1" stop-color="#FE7062"/>
</linearGradient>
<linearGradient id="paint7_linear_4553_94024" x1="223.561" y1="70.6705" x2="111.455" y2="248.17" gradientUnits="userSpaceOnUse">
<stop stop-color="#FF928E"/>
<stop offset="1" stop-color="#FE7062"/>
</linearGradient>
<linearGradient id="paint8_linear_4553_94024" x1="192.741" y1="106.233" x2="215.212" y2="106.233" gradientUnits="userSpaceOnUse">
<stop stop-color="#FF928E"/>
<stop offset="1" stop-color="#FE7062"/>
</linearGradient>
<linearGradient id="paint9_linear_4553_94024" x1="190.636" y1="125.801" x2="241.508" y2="64.1321" gradientUnits="userSpaceOnUse">
<stop stop-color="#FF928E"/>
<stop offset="1" stop-color="#FE7062"/>
</linearGradient>
<linearGradient id="paint10_linear_4553_94024" x1="270.04" y1="19.3318" x2="120.767" y2="255.679" gradientUnits="userSpaceOnUse">
<stop stop-color="#FF928E"/>
<stop offset="1" stop-color="#FE7062"/>
</linearGradient>
<linearGradient id="paint11_linear_4553_94024" x1="227.919" y1="64.3931" x2="258.984" y2="64.3931" gradientUnits="userSpaceOnUse">
<stop stop-color="#FF928E"/>
<stop offset="1" stop-color="#FE7062"/>
</linearGradient>
<linearGradient id="paint12_linear_4553_94024" x1="42.165" y1="46.4524" x2="46.0966" y2="21.0218" gradientUnits="userSpaceOnUse">
<stop stop-color="#4F52FF"/>
<stop offset="1" stop-color="#4042E2"/>
</linearGradient>
<linearGradient id="paint13_linear_4553_94024" x1="52.746" y1="40.6878" x2="59.3449" y2="8.00961" gradientUnits="userSpaceOnUse">
<stop stop-color="#4F52FF"/>
<stop offset="1" stop-color="#4042E2"/>
</linearGradient>
<linearGradient id="paint14_linear_4553_94024" x1="63.1059" y1="51.0374" x2="65.3788" y2="31.6044" gradientUnits="userSpaceOnUse">
<stop stop-color="#4F52FF"/>
<stop offset="1" stop-color="#4042E2"/>
</linearGradient>
<linearGradient id="paint15_linear_4553_94024" x1="73.6869" y1="35.5261" x2="83.1725" y2="-3.30198" gradientUnits="userSpaceOnUse">
<stop stop-color="#4F52FF"/>
<stop offset="1" stop-color="#4042E2"/>
</linearGradient>
<linearGradient id="paint16_linear_4553_94024" x1="83.7328" y1="30.5458" x2="96.4012" y2="-13.8745" gradientUnits="userSpaceOnUse">
<stop stop-color="#4F52FF"/>
<stop offset="1" stop-color="#4042E2"/>
</linearGradient>
<linearGradient id="paint17_linear_4553_94024" x1="94.3139" y1="54.6972" x2="95.5764" y2="40.1698" gradientUnits="userSpaceOnUse">
<stop stop-color="#4F52FF"/>
<stop offset="1" stop-color="#4042E2"/>
</linearGradient>
<linearGradient id="paint18_linear_4553_94024" x1="104.674" y1="44.1266" x2="109.607" y2="15.7272" gradientUnits="userSpaceOnUse">
<stop stop-color="#4F52FF"/>
<stop offset="1" stop-color="#4042E2"/>
</linearGradient>
<linearGradient id="paint19_linear_4553_94024" x1="115.255" y1="40.6878" x2="121.854" y2="8.00961" gradientUnits="userSpaceOnUse">
<stop stop-color="#4F52FF"/>
<stop offset="1" stop-color="#4042E2"/>
</linearGradient>
<linearGradient id="paint20_linear_4553_94024" x1="125.8" y1="45.7747" x2="130.01" y2="19.4802" gradientUnits="userSpaceOnUse">
<stop stop-color="#4F52FF"/>
<stop offset="1" stop-color="#4042E2"/>
</linearGradient>
<linearGradient id="paint21_linear_4553_94024" x1="136.382" y1="32.8584" x2="147.527" y2="-9.01006" gradientUnits="userSpaceOnUse">
<stop stop-color="#4F52FF"/>
<stop offset="1" stop-color="#4042E2"/>
</linearGradient>
<linearGradient id="paint22_linear_4553_94024" x1="146.742" y1="35.5261" x2="156.228" y2="-3.30197" gradientUnits="userSpaceOnUse">
<stop stop-color="#4F52FF"/>
<stop offset="1" stop-color="#4042E2"/>
</linearGradient>
<linearGradient id="paint23_linear_4553_94024" x1="157.323" y1="39.2595" x2="164.674" y2="4.84949" gradientUnits="userSpaceOnUse">
<stop stop-color="#4F52FF"/>
<stop offset="1" stop-color="#4042E2"/>
</linearGradient>
<linearGradient id="paint24_linear_4553_94024" x1="67.6061" y1="272.107" x2="90.4882" y2="272.107" gradientUnits="userSpaceOnUse">
<stop stop-color="#09005D"/>
<stop offset="1" stop-color="#1A0F91"/>
</linearGradient>
<linearGradient id="paint25_linear_4553_94024" x1="67.6046" y1="267.623" x2="89.8419" y2="267.623" gradientUnits="userSpaceOnUse">
<stop stop-color="#09005D"/>
<stop offset="1" stop-color="#1A0F91"/>
</linearGradient>
<linearGradient id="paint26_linear_4553_94024" x1="69.7184" y1="261.362" x2="76.1639" y2="261.362" gradientUnits="userSpaceOnUse">
<stop stop-color="#FEBBBA"/>
<stop offset="1" stop-color="#FF928E"/>
</linearGradient>
<linearGradient id="paint27_linear_4553_94024" x1="26.765" y1="277.787" x2="35.5343" y2="277.787" gradientUnits="userSpaceOnUse">
<stop stop-color="#09005D"/>
<stop offset="1" stop-color="#1A0F91"/>
</linearGradient>
<linearGradient id="paint28_linear_4553_94024" x1="26.8285" y1="269.062" x2="39.6994" y2="269.062" gradientUnits="userSpaceOnUse">
<stop stop-color="#09005D"/>
<stop offset="1" stop-color="#1A0F91"/>
</linearGradient>
<linearGradient id="paint29_linear_4553_94024" x1="33.5184" y1="258.007" x2="41.2213" y2="258.007" gradientUnits="userSpaceOnUse">
<stop stop-color="#FEBBBA"/>
<stop offset="1" stop-color="#FF928E"/>
</linearGradient>
<linearGradient id="paint30_linear_4553_94024" x1="-40.114" y1="338.695" x2="109.269" y2="179.821" gradientUnits="userSpaceOnUse">
<stop stop-color="#4F52FF"/>
<stop offset="1" stop-color="#4042E2"/>
</linearGradient>
<linearGradient id="paint31_linear_4553_94024" x1="56.7336" y1="28.4756" x2="71.4628" y2="138.692" gradientUnits="userSpaceOnUse">
<stop stop-color="#4F52FF"/>
<stop offset="1" stop-color="#4042E2"/>
</linearGradient>
<linearGradient id="paint32_linear_4553_94024" x1="118.212" y1="129.722" x2="146.147" y2="84.518" gradientUnits="userSpaceOnUse">
<stop stop-color="#FEBBBA"/>
<stop offset="1" stop-color="#FF928E"/>
</linearGradient>
<linearGradient id="paint33_linear_4553_94024" x1="-500.193" y1="369.992" x2="-435.711" y2="273.443" gradientUnits="userSpaceOnUse">
<stop stop-color="#FF928E"/>
<stop offset="1" stop-color="#FE7062"/>
</linearGradient>
<linearGradient id="paint34_linear_4553_94024" x1="145.424" y1="14.6473" x2="43.8376" y2="221.884" gradientUnits="userSpaceOnUse">
<stop stop-color="#E1473D"/>
<stop offset="1" stop-color="#E9605A"/>
</linearGradient>
<linearGradient id="paint35_linear_4553_94024" x1="71.4676" y1="121.406" x2="74.8052" y2="103.883" gradientUnits="userSpaceOnUse">
<stop stop-color="#FEBBBA"/>
<stop offset="1" stop-color="#FF928E"/>
</linearGradient>
<linearGradient id="paint36_linear_4553_94024" x1="80.4983" y1="89.2508" x2="61.4552" y2="103.822" gradientUnits="userSpaceOnUse">
<stop stop-color="#FEBBBA"/>
<stop offset="1" stop-color="#FF928E"/>
</linearGradient>
<linearGradient id="paint37_linear_4553_94024" x1="60.4625" y1="85.8538" x2="84.1154" y2="85.8538" gradientUnits="userSpaceOnUse">
<stop stop-color="#09005D"/>
<stop offset="1" stop-color="#1A0F91"/>
</linearGradient>
<linearGradient id="paint38_linear_4553_94024" x1="78.1365" y1="86.1673" x2="59.0933" y2="100.738" gradientUnits="userSpaceOnUse">
<stop stop-color="#FEBBBA"/>
<stop offset="1" stop-color="#FF928E"/>
</linearGradient>
<linearGradient id="paint39_linear_4553_94024" x1="166.37" y1="26.5546" x2="155.196" y2="59.0606" gradientUnits="userSpaceOnUse">
<stop stop-color="#FF928E"/>
<stop offset="1" stop-color="#FE7062"/>
</linearGradient>
<linearGradient id="paint40_linear_4553_94024" x1="83.3094" y1="16.749" x2="87.3727" y2="-29.4705" gradientUnits="userSpaceOnUse">
<stop stop-color="#FEBBBA"/>
<stop offset="1" stop-color="#FF928E"/>
</linearGradient>
<linearGradient id="paint41_linear_4553_94024" x1="66.6356" y1="17.4956" x2="62.5723" y2="-28.724" gradientUnits="userSpaceOnUse">
<stop stop-color="#FEBBBA"/>
<stop offset="1" stop-color="#FF928E"/>
</linearGradient>
<linearGradient id="paint42_linear_4553_94024" x1="67.0778" y1="157.319" x2="96.7455" y2="167.05" gradientUnits="userSpaceOnUse">
<stop stop-color="#09005D"/>
<stop offset="1" stop-color="#1A0F91"/>
</linearGradient>
<linearGradient id="paint43_linear_4553_94024" x1="107.912" y1="138.106" x2="129.152" y2="160.555" gradientUnits="userSpaceOnUse">
<stop stop-color="#09005D"/>
<stop offset="1" stop-color="#1A0F91"/>
</linearGradient>
<clipPath id="clip0_4553_94024">
<rect width="280.877" height="280" fill="white" transform="translate(0.560547)"/>
</clipPath>
</defs>
</svg>
