<svg width="282" height="280" viewBox="0 0 282 280" fill="none" xmlns="http://www.w3.org/2000/svg">
<g clip-path="url(#clip0_4553_94326)">
<path d="M247.197 237.533C239.961 244.99 233.488 249.375 228.531 252.684C180.191 284.961 124.762 281.13 107.678 277.951C80.1142 272.821 57.0156 263.729 37.0248 245.668C-8.40075 204.628 -6.19189 119.014 28.5196 65.9799C32.6354 59.6916 67.2934 8.3172 122.672 1.07755C124.027 0.900801 125.038 0.799801 125.923 0.705872C134.489 -0.201104 187.577 -4.98848 230.864 31.2774C237.06 36.4688 248.088 45.2022 256.28 60.1138C285.596 113.484 290.197 193.209 247.197 237.533Z" fill="url(#paint0_linear_4553_94326)"/>
<path d="M244.752 113.605C244.669 113.248 244.586 112.892 244.499 112.535C231.411 58.6521 176.642 25.698 122.168 38.9299L146.127 137.562L244.752 113.605Z" fill="#91B3FA"/>
<path d="M145.833 137.18L241.845 170.145C247.81 152.824 249.161 133.677 244.768 114.506C244.629 113.902 244.484 113.302 244.336 112.703L145.833 137.18Z" fill="#91B3FA"/>
<path d="M146.125 137.562L165.637 237.168C166.262 237.046 166.886 236.919 167.511 236.784C203.545 229.018 230.951 203.009 242.138 170.527L146.125 137.562Z" fill="#7D97F4"/>
<path d="M133.648 129.339L113.386 31.1484C67.5691 40.603 35.3957 79.5616 32.5859 124.103L133.089 129.986C133.443 130.007 133.72 129.686 133.648 129.339Z" fill="url(#paint1_linear_4553_94326)"/>
<path d="M146.187 137.14L44.9088 133.773C44.4756 142.646 45.2735 150.083 47.2934 159.173C56.7197 201.581 91.409 231.838 132.014 237.648L146.187 137.14Z" fill="url(#paint2_linear_4553_94326)"/>
<path d="M131.163 237.953C142.367 239.652 154.039 239.486 165.771 237.196L146.363 137.57L131.163 237.953Z" fill="url(#paint3_linear_4553_94326)"/>
<g opacity="0.61">
<path d="M109.937 228.635C109.851 228.635 109.765 228.619 109.681 228.584C95.6631 222.795 82.9927 213.712 73.0412 202.316C62.7574 190.54 55.3582 176.23 51.6424 160.934C51.3091 159.562 51.0021 158.171 50.7304 156.798C50.6577 156.434 50.895 156.078 51.2606 156.005C51.6283 155.933 51.9808 156.17 52.0535 156.536C52.3221 157.89 52.6251 159.263 52.9534 160.616C56.6187 175.702 63.9159 189.816 74.0583 201.429C83.8744 212.669 96.3711 221.628 110.198 227.337C110.541 227.48 110.706 227.874 110.564 228.217C110.453 228.479 110.203 228.635 109.937 228.635Z" fill="white"/>
</g>
<g opacity="0.61">
<path d="M183.211 229.068C182.943 229.068 182.689 228.907 182.584 228.643C182.447 228.296 182.617 227.905 182.962 227.768C208.033 217.818 227.964 197.586 237.644 172.262C237.776 171.914 238.166 171.74 238.514 171.873C238.861 172.006 239.036 172.395 238.903 172.742C229.089 198.419 208.88 218.932 183.458 229.02C183.378 229.053 183.294 229.068 183.211 229.068Z" fill="white"/>
</g>
<g opacity="0.61">
<path d="M225.015 79.6628C224.811 79.6628 224.609 79.5709 224.477 79.3952C212.364 63.3514 195.818 51.6163 176.628 45.4563C176.274 45.3422 176.079 44.9634 176.193 44.6089C176.307 44.2544 176.685 44.0585 177.04 44.1736C196.496 50.4184 213.271 62.3172 225.552 78.5832C225.777 78.8801 225.718 79.3033 225.421 79.5275C225.3 79.6184 225.157 79.6628 225.015 79.6628Z" fill="white"/>
</g>
<g opacity="0.74">
<path d="M87.756 123.632C87.7419 123.632 87.7267 123.632 87.7116 123.631L36.1462 120.305L36.2594 119.577C37.6168 110.834 39.8489 102.369 43.2849 92.9355C43.4121 92.5861 43.8 92.4063 44.1484 92.5325C44.4979 92.6598 44.6787 93.0466 44.5504 93.3961C41.2407 102.482 39.0591 110.657 37.7057 119.055L87.7984 122.286C88.1701 122.31 88.4519 122.63 88.4276 123.002C88.4044 123.359 88.1075 123.632 87.756 123.632Z" fill="white"/>
</g>
<g opacity="0.74">
<path d="M128.202 126.238C128.178 126.238 128.154 126.237 128.129 126.236L117.61 125.555C117.239 125.531 116.957 125.21 116.981 124.839C117.005 124.467 117.335 124.185 117.697 124.209L127.869 124.867L116.929 73.643C116.851 73.2784 117.083 72.9209 117.447 72.8431C117.81 72.7654 118.169 72.9977 118.247 73.3612L129.26 124.926C129.331 125.261 129.243 125.601 129.019 125.861C128.812 126.103 128.517 126.238 128.202 126.238Z" fill="white"/>
</g>
<path d="M146.793 116.044L146.308 115.157L179.082 97.2499L209.537 110.636L235.683 84.9906L235.736 84.9593L266.445 66.8359L266.959 67.7066L236.303 85.7986L209.757 111.837L179.13 98.3751L146.793 116.044Z" fill="url(#paint4_linear_4553_94326)"/>
<path d="M146.551 119.126C148.497 119.126 150.075 117.548 150.075 115.602C150.075 113.656 148.497 112.078 146.551 112.078C144.605 112.078 143.027 113.656 143.027 115.602C143.027 117.548 144.605 119.126 146.551 119.126Z" fill="url(#paint5_linear_4553_94326)"/>
<path d="M179.106 101.337C181.052 101.337 182.63 99.7591 182.63 97.8129C182.63 95.8668 181.052 94.2891 179.106 94.2891C177.16 94.2891 175.582 95.8668 175.582 97.8129C175.582 99.7591 177.16 101.337 179.106 101.337Z" fill="url(#paint6_linear_4553_94326)"/>
<path d="M209.647 114.095C211.593 114.095 213.171 112.517 213.171 110.571C213.171 108.625 211.593 107.047 209.647 107.047C207.701 107.047 206.123 108.625 206.123 110.571C206.123 112.517 207.701 114.095 209.647 114.095Z" fill="url(#paint7_linear_4553_94326)"/>
<path d="M235.154 88.9228C237.101 88.9228 238.678 87.3451 238.678 85.3989C238.678 83.4527 237.101 81.875 235.154 81.875C233.208 81.875 231.631 83.4527 231.631 85.3989C231.631 87.3451 233.208 88.9228 235.154 88.9228Z" fill="url(#paint8_linear_4553_94326)"/>
<path d="M266.703 70.7978C268.649 70.7978 270.227 69.2201 270.227 67.2739C270.227 65.3277 268.649 63.75 266.703 63.75C264.757 63.75 263.179 65.3277 263.179 67.2739C263.179 69.2201 264.757 70.7978 266.703 70.7978Z" fill="url(#paint9_linear_4553_94326)"/>
<path d="M57.1148 277.875C53.8444 278.158 48.1692 278.616 43.6949 278.813C41.0053 278.931 39.457 278.668 38.5652 278.311C38.5662 278.412 38.5692 278.507 38.5733 278.595C38.5945 279.066 38.9773 279.443 39.453 279.469C47.9076 279.94 54.6312 279.632 57.0249 279.486C57.5198 279.456 57.8147 278.918 57.5622 278.496C57.4339 278.286 57.2814 278.079 57.1148 277.875Z" fill="url(#paint10_linear_4553_94326)"/>
<path d="M43.6949 278.807C48.1691 278.61 53.8443 278.151 57.1147 277.869C53.8999 273.924 43.6949 271.266 43.6949 271.266H40.8123C38.8297 274.123 38.5429 276.844 38.5651 278.305C39.4559 278.663 41.0053 278.926 43.6949 278.807Z" fill="url(#paint11_linear_4553_94326)"/>
<path d="M40.3264 266.564L40.5961 271.9C40.6254 272.478 41.0577 272.964 41.6364 273.047C42.2121 273.129 42.9837 273.14 43.8018 272.867C44.3048 272.699 44.6785 272.275 44.7714 271.758L45.7036 266.562H40.3264V266.564Z" fill="url(#paint12_linear_4553_94326)"/>
<path d="M2.89095 278.777C1.47291 278.579 0.831566 277.842 0.561898 277.055C0.559878 277.062 0.557858 277.069 0.556848 277.076C0.347779 277.907 0.831566 278.768 1.79914 279.178C2.96771 279.673 4.24535 279.757 5.23818 279.716C6.30271 279.673 7.27938 279.231 7.81669 278.527L7.82477 278.517C6.7562 279.044 5.25636 279.106 2.89095 278.777Z" fill="url(#paint13_linear_4553_94326)"/>
<path d="M9.5772 266.532H7.20068C3.57984 266.458 1.30634 274.094 0.562988 277.051C0.831647 277.839 1.474 278.575 2.89204 278.773C5.25745 279.103 6.75628 279.041 7.82485 278.512C9.78122 275.939 10.7508 272.169 11.2164 269.969C11.7467 267.467 9.5772 266.532 9.5772 266.532Z" fill="url(#paint14_linear_4553_94326)"/>
<path d="M7.50655 261.578L6.18648 266.827C6.02488 267.47 6.33293 268.136 6.92782 268.442C7.66613 268.821 8.70541 269.219 9.66087 269.104C10.1103 269.049 10.483 268.733 10.6315 268.31L12.5697 262.787L7.50655 261.578Z" fill="url(#paint15_linear_4553_94326)"/>
<path d="M5.93213 263.09C7.57438 264.546 12.9152 264.739 12.9152 264.739C32.1546 218.562 40.0255 212.002 40.0255 212.002C37.247 229.432 39.5781 268.018 39.5781 268.018C42.7525 269.418 46.846 268.018 46.846 268.018C47.1036 239.483 51.49 214.599 56.6713 194.981C43.6676 194.689 36.7521 190.239 34.4948 188.453C23.6535 205.928 5.93213 263.09 5.93213 263.09Z" fill="url(#paint16_linear_4553_94326)"/>
<path d="M37.7953 135.355C35.3339 147.633 36.2156 169.606 36.7954 179.629C36.958 182.445 34.9915 186.351 33.4018 189.015C33.1523 189.434 33.3068 189.969 33.7391 190.191C36.4005 191.559 45.4157 195.798 55.8651 196.325C56.562 196.36 57.1841 195.885 57.3639 195.212C65.1146 166.271 74.1167 147.778 74.1167 147.778C64.1794 131.907 37.7953 135.355 37.7953 135.355Z" fill="url(#paint17_linear_4553_94326)"/>
<path d="M41.3375 210.909C41.2284 210.909 41.1173 210.879 41.0174 210.819C40.7275 210.641 40.6346 210.263 40.8113 209.973C40.9143 209.802 43.404 205.78 48.4398 203.35C48.7458 203.204 49.1145 203.33 49.2629 203.637C49.4104 203.943 49.2821 204.311 48.9761 204.459C44.2806 206.724 41.888 210.574 41.8647 210.613C41.7486 210.804 41.5456 210.909 41.3375 210.909Z" fill="url(#paint18_linear_4553_94326)"/>
<path d="M22.3574 170.588C23.1482 176.308 25.4834 182.545 30.1566 189.172L31.9332 187.724C31.9332 187.724 29.8829 179.404 31.0484 169.963C28.1649 169.4 24.7612 169.98 22.3574 170.588Z" fill="url(#paint19_linear_4553_94326)"/>
<path d="M40.5445 150.499L37.7953 135.352C37.7953 135.352 19.4275 149.392 22.3565 170.586C24.7603 169.978 28.165 169.398 31.0475 169.961C31.8878 163.159 34.3956 155.776 40.5445 150.499Z" fill="url(#paint20_linear_4553_94326)"/>
<path d="M74.1178 147.773L67.0276 163.043C68.1739 172.261 73.1259 176.247 78.4658 177.776C78.7991 173.575 79.8616 170.18 80.8474 167.833C74.0248 160.788 74.1178 147.773 74.1178 147.773Z" fill="url(#paint21_linear_4553_94326)"/>
<path d="M80.8474 167.828C79.8616 170.176 78.7991 173.57 78.4658 177.772C92.7118 183.299 96.4811 172.579 96.4811 172.579L93.8481 172.115C87.9032 172.742 83.7501 170.825 80.8474 167.828Z" fill="url(#paint22_linear_4553_94326)"/>
<path d="M67.5863 128.925L64.1634 141.507C63.7786 142.921 62.2494 143.68 60.89 143.136C59.4225 142.55 57.56 141.749 55.9562 140.883C54.2452 139.959 53.7099 137.758 54.7927 136.142L61.9091 125.531L67.5863 128.925Z" fill="#FFB4B2"/>
<path d="M103.011 164.164L15.3028 196.086C11.6244 197.425 9.86604 201.614 11.4861 205.177L11.7517 205.762C13.1859 208.915 16.9118 210.298 20.0559 208.843L105.22 169.446L103.011 164.164Z" fill="url(#paint23_linear_4553_94326)"/>
<path opacity="0.23" d="M143.325 187.485C167.237 187.485 186.621 168.45 186.621 144.969C186.621 121.488 167.237 102.453 143.325 102.453C119.413 102.453 100.028 121.488 100.028 144.969C100.028 168.45 119.413 187.485 143.325 187.485Z" fill="url(#paint24_linear_4553_94326)"/>
<path d="M143.325 97.6562C116.717 97.6562 95.147 118.837 95.147 144.964C95.147 171.092 116.716 192.274 143.325 192.274C169.933 192.274 191.503 171.093 191.503 144.964C191.503 118.838 169.933 97.6562 143.325 97.6562ZM143.325 185.325C120.625 185.325 102.224 167.255 102.224 144.965C102.224 122.676 120.625 104.606 143.325 104.606C166.024 104.606 184.425 122.676 184.425 144.965C184.425 167.255 166.024 185.325 143.325 185.325Z" fill="url(#paint25_linear_4553_94326)"/>
<path d="M98.8102 150.826C98.6496 150.826 98.5102 150.707 98.489 150.543C98.3456 149.416 98.2446 148.275 98.1891 147.152C98.181 146.973 98.3183 146.822 98.4961 146.812C98.7082 146.799 98.8274 146.942 98.8355 147.119C98.889 148.226 98.989 149.351 99.1304 150.462C99.1526 150.638 99.0274 150.801 98.8506 150.823C98.8375 150.826 98.8233 150.826 98.8102 150.826ZM99.1405 137.598C99.1213 137.598 99.1031 137.596 99.0829 137.593C98.9072 137.562 98.79 137.394 98.8213 137.217C99.3677 134.173 100.241 131.181 101.42 128.321L101.421 128.32C108.366 111.473 124.815 100.586 143.325 100.586C151.956 100.586 160.346 102.984 167.59 107.521C167.741 107.616 167.787 107.815 167.692 107.967C167.599 108.119 167.398 108.164 167.245 108.07C160.106 103.598 151.834 101.234 143.325 101.234C125.078 101.234 108.865 111.965 102.02 128.569C102.019 128.57 102.019 128.57 102.019 128.571C100.857 131.387 99.9959 134.335 99.4586 137.333C99.4314 137.488 99.295 137.598 99.1405 137.598Z" fill="#91B3FA"/>
<path d="M76.8679 119.775C76.8679 119.775 75.0119 127.912 72.81 131.279C70.6087 134.645 69.7591 137.257 65.5407 135.154C61.3217 133.051 59.5442 128.868 60.2094 124.39C60.2094 124.39 61.1916 117.457 63.2883 115.866C65.3862 114.274 76.8679 119.775 76.8679 119.775Z" fill="url(#paint26_linear_4553_94326)"/>
<path d="M63.1935 123.013L63.4755 123.075C63.8346 123.156 64.1883 122.918 64.2454 122.554C64.4682 121.147 65.1598 118.055 66.8893 118.489C69.1174 119.047 76.9151 122.658 80.1488 121.33C83.2572 120.054 84.2095 116.153 82.9631 113.924C82.8796 113.775 82.699 113.711 82.5451 113.785L82.1712 113.966C81.9153 114.089 81.6399 113.839 81.7382 113.572C81.8324 113.316 81.5818 113.07 81.3289 113.17C80.3494 113.559 78.2759 113.831 74.5891 112.04C69.3494 109.493 64.9242 109.114 62.5006 112.246C62.3463 112.445 62.0481 112.398 61.9535 112.166C61.7659 111.707 61.2926 111.209 60.1126 111.285C58.0615 111.417 56.5438 114.562 57.6475 118.881C57.7001 119.086 57.5466 119.291 57.3359 119.278C56.5913 119.235 55.2654 119.462 56.4451 121.935C57.6647 124.491 59.2318 125.51 59.8805 125.84C60.0424 125.922 60.2376 125.851 60.3106 125.686L61.7568 122.429C61.839 122.245 62.0701 122.184 62.2319 122.303L63.1941 123.012L63.1935 123.013Z" fill="url(#paint27_linear_4553_94326)"/>
<path d="M62.8742 123.689C62.8742 123.689 64.7497 119 62.1731 118.803C59.5951 118.607 59.8404 123.888 61.1506 125.08L62.8742 123.689Z" fill="url(#paint28_linear_4553_94326)"/>
<path d="M31.2002 187.473L39.4913 186.797L43.0818 190.107C43.0818 190.107 42.2324 191.281 39.5761 190.606C36.9198 189.931 33.2818 189.765 33.2818 189.765C33.2818 189.765 29.6155 191.419 29.5701 188.325L31.2002 187.473Z" fill="url(#paint29_linear_4553_94326)"/>
<path d="M95.4256 174.55C96.1427 175.111 98.599 173.941 100.103 173.132C100.835 172.738 101.191 171.882 100.939 171.088C100.578 169.947 99.9746 168.474 99.2323 168.289C97.9991 167.981 92.4704 172.241 95.4256 174.55Z" fill="url(#paint30_linear_4553_94326)"/>
<path d="M17.034 207.622C16.9987 207.622 16.9633 207.616 16.928 207.605C13.5021 206.42 12.7052 204.396 12.6405 202.907C12.5466 200.73 13.9141 198.709 16.0432 197.879L26.5744 193.772C26.7381 193.707 26.9269 193.789 26.9926 193.956C27.0572 194.123 26.9754 194.31 26.8088 194.375L16.2775 198.482C14.407 199.212 13.2051 200.977 13.2879 202.878C13.3698 204.753 14.6656 206.137 17.1411 206.993C17.3097 207.052 17.3996 207.235 17.34 207.405C17.2936 207.538 17.1683 207.622 17.034 207.622Z" fill="#91B3FA"/>
<path d="M29.9356 193.133C29.8064 193.133 29.6841 193.054 29.6347 192.927C29.57 192.76 29.6518 192.573 29.8185 192.508L31.184 191.976C31.3476 191.91 31.5375 191.993 31.6021 192.159C31.6668 192.326 31.585 192.514 31.4183 192.579L30.0528 193.111C30.0144 193.126 29.975 193.133 29.9356 193.133Z" fill="#91B3FA"/>
<path d="M244.513 269C244.513 269 245.115 272.409 245.41 275.783C245.525 277.102 244.509 278.247 243.186 278.302C238.692 278.489 229.08 278.854 225.631 278.699C225.113 278.676 224.774 278.146 224.966 277.663C225.126 277.259 225.436 276.931 225.832 276.751L241.709 269.453L244.513 269Z" fill="url(#paint31_linear_4553_94326)"/>
<path d="M245.006 266.997L244.522 271.075C244.522 271.075 241.741 272.37 239.842 270.911L240.993 266.367L245.006 266.997Z" fill="url(#paint32_linear_4553_94326)"/>
<path d="M244.642 190.346C244.851 191.41 245.764 243.481 240.198 266.816C240.107 267.196 240.3 267.589 240.663 267.737C241.516 268.085 243.19 268.59 245.196 268.658C245.817 268.679 246.373 268.275 246.549 267.679C248.14 262.266 255.764 235.14 256.758 209.228C257.869 180.273 256.758 208.242 256.758 208.242L256.107 190.344L244.642 190.346Z" fill="url(#paint33_linear_4553_94326)"/>
<path d="M262.777 270.781C262.777 270.781 263.735 272.502 264.664 277.075C264.831 277.901 264.254 278.691 263.415 278.773C261.931 278.919 259.647 279.107 257.818 279.095C256.974 279.088 256.316 278.354 256.418 277.517C256.621 275.847 257.252 273.109 259.202 270.975L262.777 270.781Z" fill="url(#paint34_linear_4553_94326)"/>
<path d="M263.619 265.537L262.489 271.703C262.489 271.703 261.371 272.534 259.16 271.932L259.699 265.297L263.619 265.537Z" fill="url(#paint35_linear_4553_94326)"/>
<path d="M266.672 191.945C271.224 219.418 265.685 259.846 263.817 267.759C263.703 268.244 263.312 268.615 262.821 268.697C261.987 268.835 260.614 268.948 259.261 268.554C258.794 268.419 258.467 267.998 258.448 267.513C258.198 261.116 258.649 221.843 254.407 206.321C254.192 205.535 253.712 204.849 253.048 204.376L244.815 198.523L244.184 189.062L266.672 191.945Z" fill="url(#paint36_linear_4553_94326)"/>
<path d="M237.666 139.885C251.308 139.66 266.361 143.468 266.361 143.468C270.427 167.196 267.072 194.563 267.072 194.563C256.511 197.333 244.597 192.87 244.597 192.87C242.841 182.953 234.651 155.041 234.651 155.041C227.985 154.214 222.495 152.291 217.973 149.749C221.423 145.75 223.049 140.664 223.755 137.656C228.577 139.154 233.459 139.955 237.666 139.885Z" fill="url(#paint37_linear_4553_94326)"/>
<path d="M197.369 119.792C198.71 118.173 200.405 118.939 200.405 118.939C202.413 127.419 212.939 134.295 223.754 137.656C223.048 140.664 221.421 145.75 217.972 149.749C200.026 139.657 197.369 119.792 197.369 119.792Z" fill="url(#paint38_linear_4553_94326)"/>
<path d="M197.695 120.204C197.554 120.649 199.178 121.328 200.135 119.505C200.168 118.631 200.699 114.887 200.177 114.176C197.397 110.385 192.005 105.633 192.005 105.633C191.094 106.532 191.845 107.415 191.845 107.415L194.461 110.14C193.913 111.129 193.247 111.963 192.934 113.159C192.696 114.065 192.842 115.033 193.299 115.857C193.759 116.684 194.385 117.759 194.977 118.601C196.097 120.192 197.695 120.204 197.695 120.204Z" fill="url(#paint39_linear_4553_94326)"/>
<path d="M195.604 111.906L197.987 113.926L198.736 115.938L196.611 118.295C196.611 118.295 195.897 114.304 195.366 113.44C194.834 112.577 195.109 112.159 195.604 111.906Z" fill="url(#paint40_linear_4553_94326)"/>
<path d="M261.127 156.678L266.36 143.469C266.36 143.469 279.102 152.126 281.198 163.104C278.79 163.282 274.409 163.908 270.12 166.072C269.179 160.89 261.127 156.678 261.127 156.678Z" fill="url(#paint41_linear_4553_94326)"/>
<path d="M249.992 169.105C249.992 169.105 264.299 177.19 269.126 170.287C270.128 168.853 270.368 167.428 270.121 166.07C274.409 163.905 278.79 163.278 281.198 163.102C281.83 166.41 281.496 169.93 279.552 173.487C271.096 188.955 248.1 172.633 248.1 172.633L249.992 169.105Z" fill="url(#paint42_linear_4553_94326)"/>
<path d="M251.711 179.337L243.903 152.071C243.814 151.761 243.55 151.535 243.23 151.498C241.815 151.333 237.717 150.87 232.984 150.469C227.283 149.987 220.663 149.596 216.707 149.928C216.144 149.976 215.805 150.571 216.054 151.077C218.304 155.628 227.558 174.143 232.192 180.208C232.346 180.409 232.583 180.526 232.835 180.524L250.952 180.355C251.479 180.349 251.857 179.844 251.711 179.337Z" fill="url(#paint43_linear_4553_94326)"/>
<path d="M232.174 148.105L226.513 147.162C226.212 147.112 225.964 147.4 226.06 147.69L226.621 149.388C226.669 149.536 226.799 149.643 226.953 149.664L232.401 150.391C232.683 150.428 232.915 150.173 232.85 149.896L232.503 148.413C232.466 148.254 232.335 148.133 232.174 148.105Z" fill="url(#paint44_linear_4553_94326)"/>
<path d="M236.413 152.897L235.946 150.468C235.9 150.224 235.698 150.039 235.451 150.015L224.017 148.855C223.632 148.815 223.324 149.169 223.414 149.544L224.141 152.571C224.2 152.814 224.41 152.988 224.659 153.001L235.833 153.563C236.197 153.582 236.481 153.254 236.413 152.897Z" fill="url(#paint45_linear_4553_94326)"/>
<path d="M249.825 172.75C249.825 172.75 250.912 168.278 250.474 166.691C250.036 165.104 249.185 163.064 246.352 163.517C243.519 163.971 240.176 165.165 240.176 165.165C240.176 165.165 240.345 167.231 242.498 166.565L241.163 167.598C241.163 167.598 241.354 169.252 243.173 168.368L241.93 169.739C241.93 169.739 242.711 171.098 244.049 170.227C245.389 169.354 246.03 173.288 249.825 172.75Z" fill="url(#paint46_linear_4553_94326)"/>
<path d="M251.484 128.812L255.825 141.366C255.897 141.574 255.811 141.804 255.619 141.91C254.435 142.565 250.173 144.455 245.035 141.198C244.5 140.859 244.135 140.305 244.054 139.677L242.648 128.812H251.484Z" fill="url(#paint47_linear_4553_94326)"/>
<path d="M242.04 117.188C242.04 117.188 237.273 126.16 237.884 129.784C238.495 133.409 244.403 133.148 249.561 130.204L253.166 120.516L242.04 117.188Z" fill="url(#paint48_linear_4553_94326)"/>
<path d="M249.333 125.448C249.123 125.355 249.046 125.099 249.171 124.907C249.553 124.323 250.269 123.133 250.497 122.091C250.497 122.091 251.354 121.542 248.317 120.815C245.279 120.088 240.749 118.96 239.796 116.373C238.868 113.852 241.307 107.513 245.199 112.564C245.347 112.755 245.637 112.761 245.785 112.568C246.423 111.737 248.1 110.014 250.429 111.059C252.608 112.036 252.854 113.633 252.823 114.438C252.814 114.674 253.026 114.859 253.259 114.815C254.36 114.605 257.005 114.424 258.238 117.137C259.254 119.371 258.593 120.635 257.992 121.254C257.798 121.454 257.883 121.784 258.15 121.866C258.874 122.087 259.809 122.701 259.715 124.398C259.586 126.743 256.964 126.536 256.218 126.43C256.096 126.413 255.972 126.454 255.89 126.546C255.249 127.254 252.366 130.262 249.244 130.624C248.973 130.656 248.764 130.389 248.853 130.131L250.203 126.205C250.266 126.022 250.179 125.822 250.002 125.744L249.333 125.448Z" fill="url(#paint49_linear_4553_94326)"/>
<path d="M248.789 126.004C248.789 126.004 252.183 123.676 252.431 125.637C252.68 127.597 249.375 128.477 247.739 127.746L248.789 126.004Z" fill="url(#paint50_linear_4553_94326)"/>
<path d="M85.1277 68.0041L98.1708 68.8929C98.7909 68.9464 99.1293 68.1869 98.6758 67.7617L86.169 58.5L85.1277 68.0041Z" fill="#91B3FA"/>
<path d="M10.6184 26.262L84.0723 25.8126C85.754 25.8025 87.1195 27.0488 87.1074 28.581L86.7983 65.564C86.7852 67.1052 85.3843 68.3364 83.6936 68.2899L11.0345 66.2992C9.42056 66.2548 8.13181 65.06 8.1106 63.5874L7.62378 29.0456C7.60257 27.5215 8.94587 26.2721 10.6184 26.262Z" fill="#91B3FA"/>
<path opacity="0.14" d="M12.8929 28.5258L81.6746 28.1329C83.2491 28.1238 84.5288 29.2126 84.5167 30.5518L84.2268 62.8646C84.2147 64.2119 85.3671 66.1067 83.7844 66.0663L13.2817 63.5069C11.7708 63.4686 10.5628 62.4242 10.5436 61.1375L10.0881 30.9568C10.0689 29.6256 11.3274 28.5348 12.8929 28.5258Z" fill="white"/>
<path opacity="0.77" d="M83.7845 66.0634L11.1063 64.0727C10.7992 64.0646 10.5558 63.8384 10.5518 63.5586L10.066 29.0157C10.064 28.8753 10.1205 28.7461 10.2296 28.6451C10.3387 28.5431 10.478 28.4885 10.6346 28.4885L84.0885 28.0391C84.2471 28.0391 84.3875 28.0916 84.4976 28.1926C84.6087 28.2946 84.6662 28.4229 84.6642 28.5663L84.3552 65.5452C84.3531 65.8311 84.0976 66.0634 83.7845 66.0634ZM11.1366 63.5404L83.7936 65.5301L84.0784 28.5592L10.6376 29.0198L11.1366 63.5404Z" fill="white"/>
<path opacity="0.77" d="M14.8555 36.8851C14.8555 38.193 15.617 39.2545 16.5573 39.2545H79.0326C79.9729 39.2545 80.7344 38.194 80.7344 36.8851C80.7344 35.5771 79.9729 34.5156 79.0326 34.5156H16.5573C15.617 34.5166 14.8555 35.5771 14.8555 36.8851Z" fill="white"/>
<path opacity="0.77" d="M18.2773 43.2891H76.851C78.1256 43.2891 79.1588 43.9254 79.1588 44.7101C79.1588 45.4949 78.1256 46.1312 76.851 46.1312H18.2773C17.0027 46.1312 15.9695 45.4949 15.9695 44.7101C15.9695 43.9254 17.0027 43.2891 18.2773 43.2891Z" fill="white"/>
<path opacity="0.77" d="M15.9695 51.1858C15.9695 51.9695 17.0007 52.6038 18.2723 52.6038H76.855C78.1266 52.6038 79.1578 51.9685 79.1578 51.1858V50.3091C79.1578 49.5122 78.0923 48.8719 76.7985 48.891L18.2167 49.7677C16.9674 49.7869 15.9695 50.4161 15.9695 51.1858Z" fill="white"/>
<path opacity="0.77" d="M18.5075 55.6562H77.0812C78.3558 55.6562 79.3891 56.2925 79.3891 57.0773C79.3891 57.8621 78.3558 58.4984 77.0812 58.4984H18.5075C17.2329 58.4984 16.1997 57.8621 16.1997 57.0773C16.1997 56.2925 17.2339 55.6562 18.5075 55.6562Z" fill="white"/>
</g>
<defs>
<linearGradient id="paint0_linear_4553_94326" x1="306.211" y1="321.079" x2="110.219" y2="112.442" gradientUnits="userSpaceOnUse">
<stop stop-color="#DAE3FE"/>
<stop offset="1" stop-color="#E9EFFD"/>
</linearGradient>
<linearGradient id="paint1_linear_4553_94326" x1="97.0078" y1="14.9479" x2="68.0303" y2="246.769" gradientUnits="userSpaceOnUse">
<stop stop-color="#FF928E"/>
<stop offset="1" stop-color="#FE7062"/>
</linearGradient>
<linearGradient id="paint2_linear_4553_94326" x1="300.997" y1="277.942" x2="112.98" y2="176.858" gradientUnits="userSpaceOnUse">
<stop stop-color="#4F52FF"/>
<stop offset="1" stop-color="#4042E2"/>
</linearGradient>
<linearGradient id="paint3_linear_4553_94326" x1="169.299" y1="173.45" x2="283.862" y2="52.8223" gradientUnits="userSpaceOnUse">
<stop stop-color="#4F52FF"/>
<stop offset="1" stop-color="#4042E2"/>
</linearGradient>
<linearGradient id="paint4_linear_4553_94326" x1="249.492" y1="49.5053" x2="163.753" y2="133.38" gradientUnits="userSpaceOnUse">
<stop stop-color="#2B3582"/>
<stop offset="1" stop-color="#150E42"/>
</linearGradient>
<linearGradient id="paint5_linear_4553_94326" x1="152.171" y1="110.103" x2="143.804" y2="118.289" gradientUnits="userSpaceOnUse">
<stop stop-color="#09005D"/>
<stop offset="1" stop-color="#1A0F91"/>
</linearGradient>
<linearGradient id="paint6_linear_4553_94326" x1="184.726" y1="92.3143" x2="176.359" y2="100.5" gradientUnits="userSpaceOnUse">
<stop stop-color="#09005D"/>
<stop offset="1" stop-color="#1A0F91"/>
</linearGradient>
<linearGradient id="paint7_linear_4553_94326" x1="215.268" y1="105.072" x2="206.9" y2="113.258" gradientUnits="userSpaceOnUse">
<stop stop-color="#09005D"/>
<stop offset="1" stop-color="#1A0F91"/>
</linearGradient>
<linearGradient id="paint8_linear_4553_94326" x1="240.775" y1="79.9002" x2="232.407" y2="88.0861" gradientUnits="userSpaceOnUse">
<stop stop-color="#09005D"/>
<stop offset="1" stop-color="#1A0F91"/>
</linearGradient>
<linearGradient id="paint9_linear_4553_94326" x1="272.323" y1="61.7751" x2="263.955" y2="69.961" gradientUnits="userSpaceOnUse">
<stop stop-color="#09005D"/>
<stop offset="1" stop-color="#1A0F91"/>
</linearGradient>
<linearGradient id="paint10_linear_4553_94326" x1="38.5649" y1="278.798" x2="57.654" y2="278.798" gradientUnits="userSpaceOnUse">
<stop stop-color="#09005D"/>
<stop offset="1" stop-color="#1A0F91"/>
</linearGradient>
<linearGradient id="paint11_linear_4553_94326" x1="38.5637" y1="275.051" x2="57.1143" y2="275.051" gradientUnits="userSpaceOnUse">
<stop stop-color="#09005D"/>
<stop offset="1" stop-color="#1A0F91"/>
</linearGradient>
<linearGradient id="paint12_linear_4553_94326" x1="40.3268" y1="269.831" x2="45.7037" y2="269.831" gradientUnits="userSpaceOnUse">
<stop stop-color="#FEBBBA"/>
<stop offset="1" stop-color="#FF928E"/>
</linearGradient>
<linearGradient id="paint13_linear_4553_94326" x1="0.508672" y1="278.39" x2="7.82464" y2="278.39" gradientUnits="userSpaceOnUse">
<stop stop-color="#09005D"/>
<stop offset="1" stop-color="#1A0F91"/>
</linearGradient>
<linearGradient id="paint14_linear_4553_94326" x1="0.562817" y1="272.754" x2="11.2997" y2="272.754" gradientUnits="userSpaceOnUse">
<stop stop-color="#09005D"/>
<stop offset="1" stop-color="#1A0F91"/>
</linearGradient>
<linearGradient id="paint15_linear_4553_94326" x1="6.14354" y1="265.351" x2="12.5695" y2="265.351" gradientUnits="userSpaceOnUse">
<stop stop-color="#FEBBBA"/>
<stop offset="1" stop-color="#FF928E"/>
</linearGradient>
<linearGradient id="paint16_linear_4553_94326" x1="-60.0931" y1="337.308" x2="70.6428" y2="195.789" gradientUnits="userSpaceOnUse">
<stop stop-color="#4F52FF"/>
<stop offset="1" stop-color="#4042E2"/>
</linearGradient>
<linearGradient id="paint17_linear_4553_94326" x1="-234.198" y1="383.821" x2="-169.841" y2="333.953" gradientUnits="userSpaceOnUse">
<stop stop-color="#FF928E"/>
<stop offset="1" stop-color="#FE7062"/>
</linearGradient>
<linearGradient id="paint18_linear_4553_94326" x1="41.6602" y1="152.728" x2="43.682" y2="185.412" gradientUnits="userSpaceOnUse">
<stop stop-color="#4F52FF"/>
<stop offset="1" stop-color="#4042E2"/>
</linearGradient>
<linearGradient id="paint19_linear_4553_94326" x1="35.5837" y1="171.683" x2="12.7084" y2="191.939" gradientUnits="userSpaceOnUse">
<stop stop-color="#FEBBBA"/>
<stop offset="1" stop-color="#FF928E"/>
</linearGradient>
<linearGradient id="paint20_linear_4553_94326" x1="-245.342" y1="369.436" x2="-180.984" y2="319.567" gradientUnits="userSpaceOnUse">
<stop stop-color="#FF928E"/>
<stop offset="1" stop-color="#FE7062"/>
</linearGradient>
<linearGradient id="paint21_linear_4553_94326" x1="-224.734" y1="396.03" x2="-160.377" y2="346.162" gradientUnits="userSpaceOnUse">
<stop stop-color="#FF928E"/>
<stop offset="1" stop-color="#FE7062"/>
</linearGradient>
<linearGradient id="paint22_linear_4553_94326" x1="78.4663" y1="173.592" x2="96.4816" y2="173.592" gradientUnits="userSpaceOnUse">
<stop stop-color="#FEBBBA"/>
<stop offset="1" stop-color="#FF928E"/>
</linearGradient>
<linearGradient id="paint23_linear_4553_94326" x1="110.156" y1="168.225" x2="10.0819" y2="205.289" gradientUnits="userSpaceOnUse">
<stop stop-color="#09005D"/>
<stop offset="1" stop-color="#1A0F91"/>
</linearGradient>
<linearGradient id="paint24_linear_4553_94326" x1="100.028" y1="144.969" x2="186.622" y2="144.969" gradientUnits="userSpaceOnUse">
<stop stop-color="#B37CFF"/>
<stop offset="1" stop-color="#F895E7"/>
</linearGradient>
<linearGradient id="paint25_linear_4553_94326" x1="95.1475" y1="144.965" x2="191.503" y2="144.965" gradientUnits="userSpaceOnUse">
<stop stop-color="#09005D"/>
<stop offset="1" stop-color="#1A0F91"/>
</linearGradient>
<linearGradient id="paint26_linear_4553_94326" x1="73.4356" y1="125.612" x2="49.4615" y2="126.051" gradientUnits="userSpaceOnUse">
<stop stop-color="#FEBBBA"/>
<stop offset="1" stop-color="#FF928E"/>
</linearGradient>
<linearGradient id="paint27_linear_4553_94326" x1="59.3196" y1="110.99" x2="78.3641" y2="125.017" gradientUnits="userSpaceOnUse">
<stop stop-color="#09005D"/>
<stop offset="1" stop-color="#1A0F91"/>
</linearGradient>
<linearGradient id="paint28_linear_4553_94326" x1="73.3647" y1="121.723" x2="49.3905" y2="122.162" gradientUnits="userSpaceOnUse">
<stop stop-color="#FEBBBA"/>
<stop offset="1" stop-color="#FF928E"/>
</linearGradient>
<linearGradient id="paint29_linear_4553_94326" x1="44.6175" y1="181.885" x2="21.7422" y2="202.142" gradientUnits="userSpaceOnUse">
<stop stop-color="#FEBBBA"/>
<stop offset="1" stop-color="#FF928E"/>
</linearGradient>
<linearGradient id="paint30_linear_4553_94326" x1="94.5676" y1="171.485" x2="101.019" y2="171.485" gradientUnits="userSpaceOnUse">
<stop stop-color="#FEBBBA"/>
<stop offset="1" stop-color="#FF928E"/>
</linearGradient>
<linearGradient id="paint31_linear_4553_94326" x1="224.911" y1="273.868" x2="245.418" y2="273.868" gradientUnits="userSpaceOnUse">
<stop stop-color="#09005D"/>
<stop offset="1" stop-color="#1A0F91"/>
</linearGradient>
<linearGradient id="paint32_linear_4553_94326" x1="245.006" y1="268.986" x2="239.842" y2="268.986" gradientUnits="userSpaceOnUse">
<stop stop-color="#FEBBBA"/>
<stop offset="1" stop-color="#FF928E"/>
</linearGradient>
<linearGradient id="paint33_linear_4553_94326" x1="217.956" y1="335.723" x2="301.838" y2="304.434" gradientUnits="userSpaceOnUse">
<stop stop-color="#4F52FF"/>
<stop offset="1" stop-color="#4042E2"/>
</linearGradient>
<linearGradient id="paint34_linear_4553_94326" x1="256.407" y1="274.938" x2="264.692" y2="274.938" gradientUnits="userSpaceOnUse">
<stop stop-color="#09005D"/>
<stop offset="1" stop-color="#1A0F91"/>
</linearGradient>
<linearGradient id="paint35_linear_4553_94326" x1="263.619" y1="268.725" x2="259.16" y2="268.725" gradientUnits="userSpaceOnUse">
<stop stop-color="#FEBBBA"/>
<stop offset="1" stop-color="#FF928E"/>
</linearGradient>
<linearGradient id="paint36_linear_4553_94326" x1="212.64" y1="337.129" x2="319.423" y2="281.612" gradientUnits="userSpaceOnUse">
<stop stop-color="#4F52FF"/>
<stop offset="1" stop-color="#4042E2"/>
</linearGradient>
<linearGradient id="paint37_linear_4553_94326" x1="-112.163" y1="372.335" x2="-49.475" y2="308.778" gradientUnits="userSpaceOnUse">
<stop stop-color="#91B3FA"/>
<stop offset="1" stop-color="#7D97F4"/>
</linearGradient>
<linearGradient id="paint38_linear_4553_94326" x1="223.754" y1="134.253" x2="197.37" y2="134.253" gradientUnits="userSpaceOnUse">
<stop stop-color="#FEBBBA"/>
<stop offset="1" stop-color="#FF928E"/>
</linearGradient>
<linearGradient id="paint39_linear_4553_94326" x1="203.247" y1="129.831" x2="220.952" y2="170.113" gradientUnits="userSpaceOnUse">
<stop stop-color="#FEBBBA"/>
<stop offset="1" stop-color="#FF928E"/>
</linearGradient>
<linearGradient id="paint40_linear_4553_94326" x1="197.496" y1="116.415" x2="190.109" y2="105.056" gradientUnits="userSpaceOnUse">
<stop stop-color="#FEBBBA"/>
<stop offset="1" stop-color="#FF928E"/>
</linearGradient>
<linearGradient id="paint41_linear_4553_94326" x1="129.658" y1="235.223" x2="154.157" y2="209.924" gradientUnits="userSpaceOnUse">
<stop stop-color="#91B3FA"/>
<stop offset="1" stop-color="#7D97F4"/>
</linearGradient>
<linearGradient id="paint42_linear_4553_94326" x1="281.489" y1="171.624" x2="248.099" y2="171.624" gradientUnits="userSpaceOnUse">
<stop stop-color="#FEBBBA"/>
<stop offset="1" stop-color="#FF928E"/>
</linearGradient>
<linearGradient id="paint43_linear_4553_94326" x1="237.997" y1="147.888" x2="219.638" y2="224.388" gradientUnits="userSpaceOnUse">
<stop stop-color="#09005D"/>
<stop offset="1" stop-color="#1A0F91"/>
</linearGradient>
<linearGradient id="paint44_linear_4553_94326" x1="226.502" y1="135.831" x2="230.412" y2="153.002" gradientUnits="userSpaceOnUse">
<stop stop-color="#4F52FF"/>
<stop offset="1" stop-color="#4042E2"/>
</linearGradient>
<linearGradient id="paint45_linear_4553_94326" x1="228.549" y1="143.032" x2="230.419" y2="154.253" gradientUnits="userSpaceOnUse">
<stop stop-color="#4F52FF"/>
<stop offset="1" stop-color="#4042E2"/>
</linearGradient>
<linearGradient id="paint46_linear_4553_94326" x1="250.578" y1="168.127" x2="240.176" y2="168.127" gradientUnits="userSpaceOnUse">
<stop stop-color="#FEBBBA"/>
<stop offset="1" stop-color="#FF928E"/>
</linearGradient>
<linearGradient id="paint47_linear_4553_94326" x1="254.183" y1="155.835" x2="245.759" y2="125.51" gradientUnits="userSpaceOnUse">
<stop stop-color="#FEBBBA"/>
<stop offset="1" stop-color="#FF928E"/>
</linearGradient>
<linearGradient id="paint48_linear_4553_94326" x1="239.509" y1="127.533" x2="254.024" y2="118.68" gradientUnits="userSpaceOnUse">
<stop stop-color="#FEBBBA"/>
<stop offset="1" stop-color="#FF928E"/>
</linearGradient>
<linearGradient id="paint49_linear_4553_94326" x1="239.599" y1="120.645" x2="259.722" y2="120.645" gradientUnits="userSpaceOnUse">
<stop stop-color="#09005D"/>
<stop offset="1" stop-color="#1A0F91"/>
</linearGradient>
<linearGradient id="paint50_linear_4553_94326" x1="243.322" y1="130.835" x2="256.381" y2="122.869" gradientUnits="userSpaceOnUse">
<stop stop-color="#FEBBBA"/>
<stop offset="1" stop-color="#FF928E"/>
</linearGradient>
<clipPath id="clip0_4553_94326">
<rect width="280.98" height="280" fill="white" transform="translate(0.509277)"/>
</clipPath>
</defs>
</svg>
