<svg fill="none" height="180" viewBox="0 0 182 180" width="182" xmlns="http://www.w3.org/2000/svg" xmlns:xlink="http://www.w3.org/1999/xlink"><linearGradient id="a" gradientUnits="userSpaceOnUse" x1="150.203" x2="82.2396" y1="61.2443" y2="123.697"><stop offset="0" stop-color="#aa80f9"/><stop offset="1" stop-color="#6165d7"/></linearGradient><linearGradient id="b"><stop offset="0" stop-color="#e38ddd"/><stop offset="1" stop-color="#9571f6"/></linearGradient><linearGradient id="c" gradientUnits="userSpaceOnUse" x1="181.854" x2="116.688" xlink:href="#b" y1="119.641" y2="121.596"/><linearGradient id="d"><stop offset="0" stop-color="#ab316d"/><stop offset="1" stop-color="#792d3d"/></linearGradient><linearGradient id="e" gradientUnits="userSpaceOnUse" x1="7.26425" x2="72.6324" xlink:href="#d" y1="50.1855" y2="67.033"/><linearGradient id="f" gradientUnits="userSpaceOnUse" x1="59345.6" x2="89793.6" xlink:href="#d" y1="107294" y2="107294"/><linearGradient id="g"><stop offset="0" stop-color="#ff9085"/><stop offset="1" stop-color="#fb6fbb"/></linearGradient><linearGradient id="h" gradientUnits="userSpaceOnUse" x1="69.9728" x2="-49.5519" xlink:href="#g" y1="30.8938" y2="155.333"/><linearGradient id="i" gradientUnits="userSpaceOnUse" x1="79170.7" x2="112393" xlink:href="#d" y1="54455.8" y2="54455.8"/><linearGradient id="j" gradientUnits="userSpaceOnUse" x1="68012.5" x2="82664.3" xlink:href="#d" y1="48203.5" y2="48203.5"/><linearGradient id="k" gradientUnits="userSpaceOnUse" x1="106694" x2="63544.6" xlink:href="#g" y1="37616.30000000001" y2="112475"/><linearGradient id="l" gradientUnits="userSpaceOnUse" x1="6.6806" x2="179.423" y1="164.855" y2="164.855"><stop offset=".49" stop-color="#ebeff2"/><stop offset="1" stop-color="#fff"/></linearGradient><linearGradient id="m"><stop offset="0" stop-color="#40447e"/><stop offset="1" stop-color="#3c3b6b"/></linearGradient><linearGradient id="n" gradientUnits="userSpaceOnUse" x1="68.4789" x2="34.9907" xlink:href="#m" y1="121.356" y2="91.6278"/><linearGradient id="o" gradientUnits="userSpaceOnUse" x1="-30218.8" x2="-28971.9" xlink:href="#b" y1="42167.7" y2="43115.5"/><linearGradient id="p" gradientUnits="userSpaceOnUse" x1="-57847.1" x2="-67254.1" xlink:href="#b" y1="133050" y2="145387"/><linearGradient id="q" gradientUnits="userSpaceOnUse" x1="-32044" x2="-45749.5" xlink:href="#b" y1="88116.6" y2="76337.3"/><linearGradient id="r" gradientUnits="userSpaceOnUse" x1="-34687.30000000001" x2="-48392.7" xlink:href="#b" y1="91201.4" y2="79422.1"/><linearGradient id="s" gradientUnits="userSpaceOnUse" x1="44734.5" x2="44541.2" xlink:href="#m" y1="-1905.74" y2="-4747.03"/><linearGradient id="t" gradientUnits="userSpaceOnUse" x1="-30646.1" x2="-53903.7" xlink:href="#b" y1="123497" y2="102425"/><linearGradient id="u" gradientUnits="userSpaceOnUse" x1="-86030.3" x2="-57641.4" xlink:href="#m" y1="2500.87" y2="49815.5"/><linearGradient id="v" gradientUnits="userSpaceOnUse" x1="-155234" x2="-116108" xlink:href="#m" y1="24034.3" y2="89960.2"/><linearGradient id="w"><stop offset="0" stop-color="#f36f56"/><stop offset="1" stop-color="#ffc444"/></linearGradient><linearGradient id="x" gradientUnits="userSpaceOnUse" x1="557.403" x2="509.62" xlink:href="#w" y1="483.388" y2="443.681"/><linearGradient id="y" gradientUnits="userSpaceOnUse" x1="-83724.8" x2="-88624.7" xlink:href="#w" y1="474102" y2="419741"/><linearGradient id="z" gradientUnits="userSpaceOnUse" x1="-11228.7" x2="-11156.3" xlink:href="#w" y1="-5918.61" y2="-7439.99"/><linearGradient id="A" gradientUnits="userSpaceOnUse" x1="-97473.3" x2="-96967.4" xlink:href="#w" y1="-40865.4" y2="-51440.9"/><path d="m178.347 76.8818c-4.907-32.1133-25.022-71.56641-64.762-75.69392 0 0-30.1729-3.6702-59.916 1.89202-17.6529 3.30123-33.1319 13.1283-42.9263 27.2524-9.794435 14.1241-13.06622 31.3459-9.09376 47.765 2.57896 10.6639 4.32116 21.702 3.84292 32.6607-.83217 19.072-.35328 36.874 18.15544 48.248 16.5264 10.156 37.3255 19.113 57.1675 20.681 13.4842 1.066 28.6062-.659 41.6032-4.17 66.232-17.896 60.835-66.525 55.929-98.6352z" fill="#f4f7fa"/><path d="m137.479 154.628c-3.459 1.505-9.283 4.04-16.272 2.644-12.706-2.538-21.014-16.421-23.3248-27.786-1.9849-9.764 1.1325-19.864 7.3678-40.064 5.872-19.0249 9.444-23.683 6.309-29.571-4.468-8.3931-16.2479-7.4196-19.992-17.9912-.4495-1.2692-1.9928-5.6264-.0458-9.4209 3.3326-6.4978 14.5528-6.7889 21.0408-5.4772 6.257 1.266 15.452 5.508 17.852 13.2317 1.739 5.5956-1.567 8.2649.964 12.6168 2.546 4.3794 6.66 2.9977 13.402 8.0273 2.694 2.0092 8.1 6.0425 9.568 12.2288 1.898 7.9992-4.504 12.3577-1.621 17.8977 2.083 4.0025 6.107 3.0356 9.35 6.9616 4.268 5.1684 2.494 13.1404.929 19.7574-1.842 7.785-6.813 28.8-25.527 36.945z" fill="url(#a)"/><path d="m95.3347 32.9237c-1.0062 4.3545 14.4823 5.6591 22.3303 18.7854 8.444 14.1235 2.891 33.3171.327 42.1871-4.378 15.1338-9.785 17.6638-9.918 30.3678-.053 5.028-.162 15.505 7.589 22.882.719.685 8.866 8.207 18.686 6.364 11.138-2.09 15.963-14.639 20.12-25.449 2.511-6.534 7.529-19.587 2.209-24.117-3.253-2.77-9.617-1.718-13.608.528-5.688 3.206-7.305 9.284-8.474 8.849-1.053-.393-.755-5.698 1.235-11.231 3.979-11.0671 10.654-11.7246 12.911-20.713.275-1.09 2.317-9.7539-2.747-15.5601-2.921-3.3484-8.282-5.8338-11.551-4.0961-3.696 1.9626-3.122 8.4833-4.405 8.4702-1.228-.0124-2.499-5.9796-2.894-12.06-.58-8.9354 1.215-10.671-.237-15.3461-2.215-7.1311-8.766-10.7437-9.719-11.2488-8.893-4.7399-20.9959-2.3349-21.8543 1.3876z" fill="#fff" opacity=".16"/><path d="m130.671 163.178c-2.552-.805-6.852-2.159-9.945-6.161-5.62-7.276-3.604-18.576.453-25.738 3.483-6.149 9.855-10.106 22.6-18.017 12.004-7.45 16.084-8.281 17.148-12.892 1.516-6.5745-5.244-11.5381-2.325-18.9426.35-.8885 1.553-3.9398 4.363-5.0657 4.811-1.9267 10.953 3.1403 13.815 6.8694 2.761 3.591 5.707 10.1404 3.396 15.3958-1.675 3.8061-4.688 3.6961-5.359 7.2041-.676 3.533 2.17 4.706 3.437 10.538.506 2.33 1.522 7.007-.573 11.003-2.708 5.168-8.166 4.518-9.202 8.826-.748 3.113 1.856 4.469 1.766 8.081-.121 4.754-4.783 8.196-8.701 11.009-4.617 3.307-17.064 12.245-30.873 7.89z" fill="url(#c)"/><path d="m164.78 78.3983c-2.566 1.8625 5.119 9.7741 3.206 20.4556-2.056 11.4931-13.967 19.1821-19.471 22.7361-9.392 6.062-13.464 4.899-19.452 11.638-2.369 2.668-7.306 8.225-6.59 15.785.065.702.923 8.522 7.039 12.109 6.935 4.068 15.363-.404 22.623-4.257 4.387-2.328 13.15-6.979 12.413-11.882-.451-2.997-4.35-5.399-7.53-6.052-4.538-.933-8.233 1.57-8.657.791-.381-.7 2.25-3.402 5.888-5.438 7.283-4.072 11.164-1.315 16.558-5.076.654-.458 5.782-4.143 5.775-9.61-.005-3.153-1.718-6.979-4.277-7.571-2.894-.67-5.622 3.088-6.303 2.483-.651-.578 1.447-4.365 4.067-7.804 3.851-5.053 5.62-5.147 7.019-8.3257 2.136-4.8498.309-9.835.036-10.5481-2.555-6.6796-10.15-11.0263-12.344-9.4339z" fill="#fff" opacity=".16"/><path d="m56.5548 81.1957c2.1243 1.8868 5.5027 1.5512 7.5452-.7484s1.9771-5.6918-.1472-7.5812c-.1099-.0974-.2257-.1858-.3422-.2715.8306-1.3307 1.5625-2.7205 2.1897-4.1582.1407.036.2827.0706.4292.0955 2.8609.4841 5.7533-1.5047 6.4605-4.4389s-1.0396-5.7068-3.9005-6.1903c-.1498-.0255-.299-.0399-.4488-.0523.0878-1.5141.0585-3.0327-.0877-4.5423.1479-.0412.2964-.0857.4443-.1407 2.8314-1.0467 4.4631-4.155 3.6446-6.9394-.8184-2.7843-3.7761-4.187-6.6076-3.1402-.1453.0536-.2846.1164-.4233.1805-.6755-1.2998-1.4592-2.5404-2.3428-3.7088.1125-.1086.2244-.2191.3271-.3382 2.0432-2.3003 4.5632-4.7373 2.4095-6.59-4.9813-4.2872-8.0587-2.5423-10.1019-.2421-.106.1191-.2021.2427-.297.3677-1.2644-.7397-2.5889-1.3715-3.9594-1.8888.0478-.1452.0929-.2911.1309-.4416.7065-2.9348 1.9875-4.2884-.8047-5.0787-6.0882-1.7232-8.8491.3925-9.5563 3.3267-.0366.1538-.0654.3062-.087.458-1.5164.0332-3.028.1832-4.5213.4488-.0295-.1466-.0615-.2938-.1041-.439-.8184-2.7837-3.7768-4.187-6.6076-3.1403-2.8309 1.0468-4.4632 4.155-3.6447 6.9394.0418.1426.0929.2787.1459.4141-1.3537.7927-2.6476 1.6836-3.8711 2.6653-.0988-.1053-.2002-.2093-.3101-.3075-2.1243-1.8861-5.502-1.5511-7.5452.7491-2.0431 2.3003-1.9764 5.6918.1479 7.5805.1099.0975.225.1858.3415.2715-.8305 1.331-1.5623 2.7211-2.1897 4.159-.1407-.0367-.282-.0714-.4285-.0962-2.86096-.4835-5.75329 1.5047-6.46051 4.4389-.70721 2.9342 1.03957 5.7068 3.9005 6.1903.14911.0255.29901.0405.44811.0523-.0875 1.5141-.058 3.0327.0884 4.5423-.1486.0419-.2971.0857-.44492.1407-2.83084 1.0467-4.46313 4.1556-3.64469 6.9393.81843 2.7838 5.32151 5.154 8.15101 4.1073.1452-.0537-1.2594-1.0834-1.1207-1.1476.6754 1.2998 1.4588 2.5404 2.3421 3.7089-.1125.1086-.2237.2191-.3271.3382-2.0425 2.3002-1.9764 5.6917.1479 7.5805 2.1242 1.8887 5.502 1.5512 7.5445-.7484.106-.1191.2028-.2434.297-.3677 1.2644.7393 2.5886 1.3711 3.9587 1.8887-.0471.1453-.0929.2912-.1308.4416-.7072 2.9355 1.0389 5.7068 3.9005 6.191 2.8616.4841 5.7532-1.5047 6.4605-4.4389.0366-.1531.0654-.3062.087-.458 1.5162-.0329 3.0276-.1829 4.5207-.4488.0294.1472.0621.2937.1046.439.8185 2.7837 3.7769 4.1909 6.6077 3.1403 2.8308-1.0507 4.4631-4.1557 3.6454-6.9394-.0426-.1426-.0936-.2794-.1459-.4148 1.3536-.7925 2.6472-1.6833 3.8704-2.6653.1014.106.2021.2107.312.3081zm-30.6485-7.621c-7.7126-6.8498-7.9521-19.1728-.5351-27.5239 7.4169-8.3512 19.6817-9.5681 27.3943-2.7184 7.7127 6.8498 7.9522 19.1689.5359 27.5233-7.4163 8.3545-19.6824 9.5687-27.3951 2.719z" fill="url(#e)"/><path d="m66.2295 68.5319c2.861.4841 5.7533-1.5047 6.4605-4.4389s-1.0396-5.7068-3.9005-6.1903c-.1498-.0255-.299-.0399-.4488-.0523.0878-1.5141.0585-3.0327-.0877-4.5423.1479-.0412.2964-.0857.4443-.1407 2.8315-1.0467 6.8523-4.3218 5.7526-7.0067-2.087-5.0964-5.8841-4.1216-8.7156-3.0749-.1453.0537-.2846.1158-.4233.1806-.6752-1.3-1.4589-2.5407-2.3428-3.7088.1125-.1086.2244-.2192.3271-.3383 1.1122-1.2521 1.5944-2.8269 1.4648-4.3074-3.3762 3.4604-6.723 6.9496-10.0404 10.4676 5.7337 7.0657 5.3065 17.9042-1.4216 25.4788-5.7009 6.4193-14.2621 8.6182-21.4246 6.1838-.5469.7589-1.0893 1.5237-1.6565 2.2682-1.5413 2.0209-3.1985 3.9613-4.8563 5.8985.6438.3053 1.298.5831 1.9627.8335-.0478.1452-.0936.2911-.1309.4416-.7072 2.9355.4155 5.8808 5.5525 6.9406 2.8419.5888 4.1013-2.2531 4.8085-5.1886.0367-.1531.0654-.3055.087-.458 1.5162-.0329 3.0276-.1829 4.5207-.4488.0295.1472.0622.2938.1047.439.8184 2.7844 5.5753 5.1232 8.4068 4.0745s2.664-5.0879 1.8462-7.8716c-.0425-.1426-.0935-.2794-.1459-.4148 1.3537-.7925 2.6473-1.6833 3.8704-2.6653.0995.1053.2002.21.3101.3075 2.1243 1.8868 5.5027 1.5511 7.5452-.7491 2.0425-2.3003 1.9771-5.6918-.1472-7.5805-.1099-.0975-.2257-.1858-.3422-.2715.8306-1.3307 1.5625-2.7205 2.1897-4.1583.142.0334.284.0687.4305.0929z" fill="url(#f)"/><path d="m59.1122 82.1862c2.1243 1.8868 5.502 1.5518 7.5452-.7484 2.0431-2.3003 1.9764-5.6918-.1479-7.5805-.1099-.0982-.225-.1865-.3415-.2722.8303-1.3308 1.5622-2.7206 2.1897-4.1582.1407.0366.282.0713.4285.0955 2.861.4841 5.7533-1.5047 6.4605-4.4383.7072-2.9335-1.0389-5.7074-3.9005-6.1909-.1492-.0255-.299-.0399-.4481-.0517.0872-1.5141.0577-3.0327-.0884-4.5423.1486-.0419.2964-.0863.4449-.1406 2.8309-1.0468 4.4632-4.1557 3.6447-6.9394-.8184-2.7838-3.7768-4.191-6.6077-3.1403-.1445.0536-.2846.1164-.4232.1806-.6754-1.2999-1.4591-2.5406-2.3428-3.7088.1132-.1086.2244-.2192.3271-.3383 2.0425-2.3002 1.9764-5.6917-.1479-7.5805-2.1242-1.8887-5.502-1.5518-7.5445.7484-.106.1191-.2028.2428-.297.3677-1.2645-.7393-2.589-1.3709-3.9594-1.8881.0471-.1459.0929-.2918.1309-.4422.7072-2.9349-1.039-5.7068-3.9005-6.1903-2.8616-.4835-5.7533 1.5047-6.4605 4.4383-.0367.1537-.0654.3061-.087.4579-1.5162.0329-3.0276.183-4.5207.4488-.0295-.1472-.0654-.2937-.1047-.4396-.8178-2.7838-3.7768-4.1871-6.6077-3.1403-2.8308 1.0468-4.4618 4.153-3.6447 6.9367.0426.1427.0936.2794.1459.4142-1.3533.7929-2.6469 1.6837-3.8704 2.6653-.0994-.1053-.2002-.2094-.3101-.3068-2.1242-1.8868-5.5027-1.5519-7.5452.7484-2.0424 2.3002-1.977 5.6917.1472 7.5805.11.0981.2258.1858.3422.2722-.8307 1.3306-1.5625 2.7204-2.1897 4.1582-.1406-.0366-.2826-.0713-.4292-.0962-2.8609-.4834-5.75322 1.5048-6.46043 4.439-.70722 2.9342 1.03956 5.7068 3.90053 6.1909.1491.0249.2989.0399.4481.0517-.0875 1.5141-.0581 3.0327.0877 4.5423-.1479.0418-.2964.0857-.4442.1406-2.83154 1.0468-4.46318 4.1557-3.64474 6.9394s3.77614 4.191 6.60764 3.1403c.1453-.0537.2846-.1165.4233-.1806.6756 1.2998 1.4593 2.5404 2.3428 3.7088-.1125.1086-.2244.2192-.3271.3383-2.0425 2.3002-1.9764 5.6917.1478 7.5805 2.1243 1.8887 5.5021 1.5518 7.5452-.7485.1054-.119.2022-.2427.297-.3677 1.2644.7395 2.5889 1.3711 3.9594 1.8881-.0477.1453-.0929.2918-.1308.4423-.7066 2.9349 1.0395 5.7068 3.9005 6.1903 2.8609.4834 5.7532-1.5047 6.4604-4.4383.0367-.1537.0655-.3062.0871-.4579 1.5162-.0329 3.0276-.1829 4.5206-.4488.0301.1472.0655.2937.1047.4396.8185 2.7837 3.7769 4.187 6.6077 3.1403 2.8308-1.0468 4.4631-4.1557 3.6447-6.9394-.0419-.1426-.0929-.2793-.1459-.4141 1.3536-.793 2.6473-1.6838 3.871-2.6653.0995.1079.1996.2119.3095.3094zm-30.6485-7.6211c-7.7127-6.8497-7.9528-19.1727-.5358-27.5239 7.4169-8.3512 19.6824-9.568 27.395-2.7183 7.7127 6.8498 7.9521 19.1728.5352 27.5239-7.417 8.3512-19.6817 9.5681-27.3944 2.7183z" fill="url(#h)"/><path d="m109.317 46.8227c1.473 1.3085 3.817 1.0762 5.234-.5195 1.417-1.5956 1.373-3.9502-.102-5.2586-.077-.0654-.157-.1309-.237-.1884.576-.9231 1.083-1.8872 1.518-2.8845.098.0248.196.0491.298.0654 1.985.3356 3.991-1.0428 4.481-3.0794.491-2.0366-.719-3.9587-2.705-4.2944-.104-.0176-.207-.0274-.311-.0359.061-1.0505.04-2.1041-.061-3.1514.103-.0288.205-.0596.308-.0975 1.963-.7275 3.096-2.8825 2.529-4.8138-.568-1.9313-2.621-2.9067-4.585-2.1792-.1.0372-.196.0804-.293.1249-.469-.9022-1.013-1.7633-1.625-2.5744.078-.0752.155-.1517.229-.2348 1.417-1.595 3.165-3.2856 1.671-4.5711-3.456-2.9741-5.591-1.7664-7.008-.1681-.073.083-.141.1688-.206.2551-.878-.5125-1.797-.9502-2.748-1.3084.033-.1008.066-.2022.09-.3069.49-2.03592 1.378-2.97474-.558-3.52298-4.224-1.19527-6.1395.2715-6.6295 2.30808-.0255.106-.0438.212-.0609.3173-1.0517.0229-2.1.127-3.1357.3114-.0209-.102-.0431-.2034-.0726-.3048-.5678-1.9313-2.6169-2.90675-4.5841-2.17925-1.9673.72749-3.0965 2.88255-2.5286 4.81375.0288.0988.0654.1963.1014.2879-.9382.5497-1.8348 1.1676-2.6823 1.8488-.0655-.0732-.1387-.1452-.2153-.2132-1.4733-1.3085-3.8167-1.0762-5.2338.5194-1.417 1.5957-1.3738 3.9502.1021 5.2587.0765.0654.1563.1308.2375.1884-.5763.9233-1.084 1.8876-1.5191 2.8851-.0975-.0255-.1963-.0497-.2977-.0654-1.9849-.3356-3.9908 1.0428-4.4815 3.0794-.4906 2.0366.7197 3.9588 2.7059 4.2944.1034.0176.2074.0275.3108.036-.0608 1.0504-.0403 2.1041.0615 3.1514-.1034.0288-.2061.0595-.3088.0974-1.9627.7275-3.0958 2.8826-2.5286 4.8138.5672 1.9313 3.6918 3.578 5.6558 2.8512.1001-.0373-.8741-.7524-.7779-.7969.4685.9018 1.0121 1.7625 1.6251 2.5731-.0779.0752-.1557.1518-.229.2348-1.417 1.5957-1.3739 3.9496.1027 5.2587s3.8168 1.0762 5.2338-.5194c.0733-.0825.1407-.1688.2061-.2552.8777.5123 1.7968.95 2.7478 1.3085-.0327.1007-.0655.2015-.0897.3061-.49 2.036.7197 3.9587 2.7059 4.2944 1.9862.3356 3.9908-1.0429 4.4815-3.0788.0261-.1067.0444-.2126.0608-.318 1.0519-.0228 2.1005-.1269 3.1364-.3114.0202.1021.0425.2035.0726.3049.5672 1.9313 2.6164 2.9067 4.5834 2.1792s3.097-2.8825 2.529-4.8138c-.029-.0988-.066-.1962-.101-.2872.938-.5503 1.834-1.1684 2.682-1.8495.068.0746.138.1472.215.2146zm-21.2625-5.2868c-5.3503-4.7516-5.5164-13.3004-.371-19.0936 5.1455-5.7931 13.6535-6.6377 19.0035-1.8861 5.351 4.7516 5.517 13.3004.372 19.0936-5.145 5.7931-13.6529 6.6377-19.0039 1.8861z" fill="url(#i)"/><path d="m116.028 38.0378c1.985.3356 3.991-1.0429 4.481-3.0795.491-2.0366-.719-3.9587-2.705-4.2943-.104-.0177-.207-.0275-.311-.036.061-1.0505.04-2.1041-.061-3.1514.103-.0288.205-.0595.308-.0975 1.963-.7275 4.754-2.9976 3.991-4.8609-1.448-3.5328-4.083-2.8596-6.047-2.1321-.1.0373-.196.0805-.293.125-.469-.9024-1.012-1.7638-1.625-2.5751.078-.0752.155-.1517.229-.2342.363-.4029.641-.8757.816-1.3895.174-.5139.242-1.0579.2-1.599-2.343 2.3988-4.664 4.8195-6.966 7.2619 3.978 4.8989 3.681 12.4198-.986 17.6746-3.955 4.4533-9.8951 5.9783-14.8626 4.2897-.3795.5234-.755 1.0573-1.1488 1.5702-1.069 1.402-2.2185 2.7477-3.3686 4.0915.4461.212.8991.4047 1.3588.5783-.0327.1014-.0654.2022-.0896.3069-.4901 2.0359.2885 4.0797 3.852 4.8144 1.9719.4069 2.8453-1.5629 3.3366-3.5982.0262-.106.0445-.212.0608-.3173 1.0519-.0229 2.1005-.127 3.1364-.3114.0203.102.0425.2034.0726.3048.5672 1.9313 3.8674 3.5538 5.8314 2.8263s1.849-3.5328 1.281-5.4608c-.029-.0988-.066-.1963-.101-.2872.938-.5503 1.834-1.1685 2.682-1.8495.069.0732.139.1459.216.2132 1.473 1.3085 3.816 1.0762 5.233-.5194 1.417-1.5957 1.374-3.9502-.102-5.2587-.076-.0654-.156-.1308-.237-.1884.576-.923 1.084-1.8871 1.519-2.8845.099.0268.197.0511.299.0681z" fill="url(#j)"/><path d="m111.09 47.5103c1.474 1.3085 3.818 1.0762 5.234-.5194 1.417-1.5957 1.374-3.9502-.103-5.2593-.075-.0655-.156-.1309-.236-.1885.576-.9231 1.083-1.8871 1.519-2.8844.097.0255.196.049.297.0654 1.985.3356 3.991-1.0468 4.482-3.0795.491-2.0326-.72-3.9593-2.706-4.2949-.103-.017-.207-.0275-.311-.036.061-1.0503.04-2.1037-.061-3.1508.102-.0288.206-.0595.308-.0975 1.963-.7275 3.096-2.8825 2.528-4.8137-.567-1.9313-2.616-2.9074-4.584-2.1799-.1.0373-.196.0804-.293.1249-.469-.9016-1.012-1.7621-1.626-2.5724.079-.0752.156-.1524.229-.2348 1.417-1.5957 1.374-3.9503-.102-5.2587-1.476-1.3085-3.816-1.0762-5.233.5194-.074.0825-.141.1682-.207.2552-.877-.5126-1.796-.9503-2.747-1.3085.032-.1007.065-.2021.089-.3061.491-2.0366-.719-3.95941-2.706-4.29503-1.986-.33561-3.99 1.04676-4.481 3.07943-.025.1067-.044.212-.06.318-1.0521.0228-2.1006.1269-3.1365.3114-.0203-.1021-.0432-.2041-.0726-.3049-.5672-1.93126-2.6169-2.90737-4.5842-2.17987-1.9672.7275-3.0958 2.88317-2.5286 4.81447.0295.0988.0654.1962.1014.2872-.9379.5501-1.8344 1.168-2.6823 1.8488-.0654-.0726-.1393-.1452-.2152-.2133-1.474-1.3084-3.8174-1.0762-5.2338.5195s-1.3739 3.9502.1027 5.2593c.0759.0654.1563.1309.2368.1884-.5765.9221-1.0849 1.8851-1.5211 2.8812-.0974-.0248-.1962-.049-.297-.0654-1.9849-.3349-3.9908 1.0468-4.4821 3.0795-.4913 2.0326.7197 3.9593 2.7059 4.2949.1034.0171.2074.0275.3107.036-.0604 1.0503-.0398 2.1037.0615 3.1508-.1027.0288-.206.0595-.3087.0975-1.9627.7275-3.0958 2.8831-2.528 4.8138.5679 1.9306 2.6169 2.9073 4.5835 2.1798.1008-.0373.1963-.0804.2938-.1249.4687.9014 1.0123 1.7619 1.6251 2.5724-.0779.0752-.1551.1524-.2283.2348-1.4178 1.5957-1.3739 3.9503.102 5.2587 1.4759 1.3085 3.8168 1.0762 5.2338-.5194.0739-.0825.1407-.1682.2061-.2545.8776.5123 1.7968.95 2.7477 1.3084-.0327.1008-.0654.2022-.0896.3062-.4907 2.0366.7197 3.9594 2.7052 4.295 1.9856.3356 3.9908-1.0468 4.4821-3.0795.0255-.1066.0439-.2119.0602-.3179 1.0519-.0228 2.1005-.127 3.1365-.3114.02.102.043.2041.072.3049.568 1.9312 2.617 2.9073 4.585 2.1798 1.967-.7275 3.095-2.8831 2.528-4.8144-.029-.0988-.065-.1963-.101-.2872.938-.5501 1.834-1.1681 2.682-1.8489.071.0759.141.1472.217.2159zm-21.262-5.2874c-5.3502-4.7517-5.5171-13.2998-.3716-19.0936s13.6536-6.6378 19.0036-1.8855c5.351 4.7523 5.517 13.3004.372 19.0936s-13.6524 6.6378-19.0027 1.8855z" fill="url(#k)"/><path d="m179.423 163.581-172.7424-1.493v4.418c0 1.199.75367 2.219 1.77426 2.4l48.84644 8.702c.578.103 1.1669.13 1.752.081l118.4927-9.92c1.058-.089 1.877-1.112 1.877-2.344z" fill="#bfc8d6"/><path d="m115.854 156.501-109.79234 8.082c-1.96267.145-3.5616-1.392-3.5616-3.432v-81.7596c0-2.0406 1.59697-3.6951 3.5616-3.6951l3.88414 2.2387 105.9082-2.2387c1.618 0 2.927 1.4955 2.927 3.3405v73.9082c0 1.845-1.309 3.437-2.927 3.556z" fill="#bfc8d6"/><path d="m117.605 156.501-109.7926 8.082c-1.96268.145-3.56161-1.392-3.56161-3.432v-81.7596c0-2.0406 1.59697-3.6951 3.56161-3.6951h109.7926c1.618 0 2.927 1.4955 2.927 3.3405v73.9082c-.002 1.845-1.31 3.437-2.927 3.556z" fill="#fff"/><path d="m114.184 151.29-102.2598 7.021c-1.5982.11-2.89753-1.152-2.89753-2.817v-71.5806c0-1.6663 1.29933-3.0219 2.89753-3.0291l102.2598-.4409c1.336-.0059 2.415 1.2195 2.415 2.7373v65.1963c0 1.516-1.079 2.825-2.415 2.913z" fill="#d8dee8"/><g fill="#fff"><path d="m48.1925 87.6019-27.5978.0719-.0039-2.6313 27.5978.0092z"/><path d="m61.1874 86.8405-6.3747.0111-.0033-1.7978 6.3754.0019z"/><path d="m61.1913 89.3199-6.3747.0295-.0033-1.7978 6.3754-.0164z"/><path d="m92.9618 89.1721-24.733.1151-.0026-1.7703 24.733-.0635z"/><path d="m97.0213 91.5286-24.487.1845-.0026-1.7605 24.487-.1334z"/><path d="m97.0252 93.9041-24.487.2558-.0026-1.7611 24.487-.2042z"/><path d="m97.0292 96.2803-24.487.3258-.0026-1.7605 24.4869-.2755z"/><path d="m61.1952 91.7988-6.3747.0484-.0033-1.7978 6.3754-.0347z"/><path d="m61.1992 94.2783-6.3754.0661-.0026-1.7978 6.3754-.053z"/><path d="m61.2031 96.7572-6.3754.0851-.0026-1.7978 6.3754-.0714z"/><path d="m61.207 99.2367-6.3754.1034-.0026-1.7979 6.3754-.0902z"/><path d="m78.2902 98.96-15.6922.2538-.0027-1.7814 15.6923-.2218z"/><path d="m61.211 101.716-6.3754.122-.0027-1.798 6.3748-.1085z"/><path d="m61.2149 104.195-6.3754.141-.0026-1.798 6.3747-.127z"/><path d="m61.2181 106.675-6.3747.158-.0026-1.797 6.3747-.146z"/><path d="m85.6456 101.249-17.3978.332-.0026-1.7693 17.3978-.2963z"/><path d="m94.6883 103.459-22.135.487-.0026-1.761 22.135-.441z"/><path d="m94.6916 105.841-22.1344.551-.0026-1.761 22.1344-.505z"/><path d="m61.2221 109.153-6.3748.178-.0026-1.798 6.3748-.164z"/><path d="m61.226 111.633-6.3748.196-.0032-1.798 6.3754-.183z"/><path d="m61.2299 114.112-6.3748.214-.0032-1.797 6.3754-.201z"/><path d="m61.2339 116.591-6.3748.233-.0033-1.798 6.3755-.219z"/><path d="m61.2378 119.071-6.3748.25-.0033-1.797 6.3748-.238z"/><path d="m61.2417 121.55-6.3754.269-.0027-1.798 6.3748-.255z"/><path d="m61.245 124.029-6.3748.288-.0026-1.798 6.3748-.274z"/><path d="m61.2489 126.509-6.3748.305-.0026-1.797 6.3748-.293z"/><path d="m61.2528 128.988-6.3748.324-.0026-1.798 6.3748-.31z"/><path d="m61.2568 131.467-6.3748.343-.0026-1.798 6.3748-.33z"/><path d="m61.2607 133.946-6.3748.362-.0026-1.798 6.3748-.348z"/><path d="m61.2646 136.425-6.3748.381-.0026-1.798 6.3741-.367z"/><path d="m61.2679 138.905-6.3741.398-.0033-1.797 6.3748-.386z"/><path d="m61.2718 141.384-6.3741.417-.0033-1.798 6.3748-.403z"/><path d="m61.2757 143.863-6.3741.435-.0033-1.797 6.3748-.422z"/><path d="m61.2797 146.342-6.3748.454-.0026-1.798 6.3748-.44z"/><path d="m61.2836 148.822-6.3748.472-.0026-1.798 6.3748-.458z"/><path d="m61.2875 151.301-6.3748.49-.0026-1.797 6.3748-.477z"/><path d="m79.9225 86.8077-17.3867.0301-.0027-1.7815 17.3867.0059z"/><path d="m93.0358 136.92-24.7311 1.545-.0026-1.769 24.7311-1.494z"/><path d="m97.0945 139.042-24.4843 1.601-.0027-1.761 24.4851-1.549z"/><path d="m97.0985 141.418-24.4844 1.671-.0033-1.76 24.4851-1.621z"/><path d="m107.653 143.043-23.8503 1.697-.0027-1.738 23.85-1.647z"/><path d="m107.657 145.388-23.8504 1.766-.0033-1.737 23.8507-1.716z"/><path d="m107.66 147.733-23.8501 1.835-.0026-1.737 23.8507-1.786z"/><path d="m79.9977 135.309-17.3854 1.036-.0032-1.781 17.386-1z"/><path d="m92.9952 110.659-24.7323.758-.0026-1.77 24.7323-.707z"/><path d="m97.0546 112.91-24.4863.822-.0026-1.761 24.4863-.771z"/><path d="m97.0579 115.286-24.4856.892-.0027-1.761 24.4857-.841z"/><path d="m97.0619 117.661-24.4857.964-.0027-1.761 24.4857-.912z"/><path d="m78.3236 120.829-15.691.662-.0026-1.781 15.6909-.631z"/><path d="m85.6797 122.927-17.3979.785-.0026-1.77 17.3978-.749z"/><path d="m94.721 124.901-22.1337 1.063-.0026-1.761 22.1337-1.016z"/><path d="m94.725 127.284-22.1338 1.127-.0026-1.762 22.1338-1.08z"/><path d="m99.6356 129.402-21.8675 1.177-.0026-1.75 21.8675-1.132z"/><path d="m99.6388 131.771-21.8668 1.239-.0033-1.75 21.8675-1.194z"/><path d="m79.9565 108.633-17.3867.483-.0026-1.781 17.3867-.447z"/><path d="m48.1984 91.5869-15.7963.1138-.0039-2.5966 15.7963-.0674z"/><path d="m28.3165 91.7301 2.9754-.0216-.0039-2.5999-2.9754.0125z"/><path d="m48.2043 95.2531-15.7963.1799-.0039-2.5966 15.7963-.1335z"/><path d="m28.3224 95.4802 2.9754-.0341-.0039-2.5998-2.9754.0248z"/><path d="m48.2095 98.9194-15.7956.2466-.0039-2.5966 15.7956-.2002z"/><path d="m28.3283 99.2295 2.9754-.0465-.0046-2.5999-2.9748.038z"/><path d="m48.2501 124.943-27.5959 1.256-.0039-2.632 27.5958-1.175z"/><path d="m48.256 128.928-15.795.791-.0039-2.597 15.795-.744z"/><path d="m28.3761 129.924 2.9747-.149-.0039-2.6-2.9748.14z"/><path d="m48.2619 132.594-15.795.857-.0039-2.596 15.795-.811z"/><path d="m28.3813 133.674 2.9754-.162-.0039-2.6-2.9754.153z"/><path d="m48.2678 136.261-15.795.923-.0039-2.596 15.7949-.878z"/><path d="m28.3872 137.423 2.9747-.174-.0039-2.6-2.9748.166z"/><path d="m48.2155 102.611-27.5966.547-.0039-2.631 27.5965-.467z"/><path d="m48.2219 106.595-15.7962.386-.0039-2.596 15.7956-.34z"/><path d="m28.3407 107.081 2.9748-.073-.004-2.6-2.9754.064z"/><path d="m48.2272 110.262-15.7956.452-.0039-2.597 15.7956-.405z"/><path d="m28.3466 110.831 2.9748-.085-.0039-2.6-2.9755.076z"/><path d="m48.239 117.642-15.7956.586-.0039-2.597 15.7956-.54z"/><path d="m28.3577 118.379 2.9755-.11-.0046-2.599-2.9748.101z"/><path d="m48.2442 121.308-15.795.653-.0039-2.597 15.795-.606z"/><path d="m28.3636 122.129 2.9754-.123-.0046-2.6-2.9747.115z"/><path d="m48.2331 113.928-15.7956.519-.004-2.597 15.7957-.472z"/><path d="m28.3518 114.581 2.9754-.098-.0039-2.599-2.9754.089z"/><path d="m48.273 139.926-27.5946 1.73-.0039-2.631 27.5946-1.65z"/><path d="m48.2795 143.911-15.7949 1.062-.0039-2.597 15.7949-1.016z"/><path d="m28.3996 145.248 2.9748-.2-.0039-2.6-2.9748.191z"/><path d="m48.2847 147.577-15.7943 1.129-.0039-2.597 15.7943-1.083z"/><path d="m28.4055 148.998 2.9747-.213-.0039-2.6-2.9754.204z"/><path d="m48.2907 151.242-15.7943 1.196-.004-2.596 15.7943-1.15z"/><path d="m28.4114 152.748 2.9747-.225-.0045-2.6-2.9748.216z"/><path d="m51.6442 151.002-.6078.045-.102-65.9946.6078.0007z"/><path d="m66.5861 77.9331c0 .7596-.5653 1.3739-1.2627 1.3791-.6974.0053-1.2659-.613-1.2659-1.3738 0-.7609.5672-1.3792 1.2659-1.3798.6987-.0007 1.2627.6143 1.2627 1.3745z"/><path d="m7.8124 164.583 109.2356-8.041.557-.041c.742-.055 1.417-.422 1.933-.981-7.861-.43-12.743-3.22-15.893-6.102-6.3247-5.789-5.2276-11.498-12.0486-15.303-8.5049-4.747-15.1963 1.268-21.6548-4.667-3.9136-3.598-1.9921-6.28-6.8079-11.658-5.3339-5.954-8.8065-3.954-14.1673-9.313-6.7777-6.777-3.3875-12.0503-9.2245-16.9164-7.0827-5.9024-14.7201-.439-21.4632-6.1-2.908-2.4416-4.5037-5.9914-5.3372-9.7669h-5.1291c-1.96268 0-3.56161 1.6545-3.56161 3.695v81.7623c0 2.04 1.59697 3.577 3.56161 3.432z" opacity=".48"/></g><path d="m122.777 156.053-116.0964 8.505 50.6207 9.018c.578.104 1.1669.131 1.752.082l120.3697-10.075-54.799-7.475c-.612-.082-1.231-.101-1.847-.055z" fill="url(#l)"/><path d="m23.6211 164.633 96.6529-7.188 29.914 4.045-95.8209 7.684z" fill="#d8dee8"/><path d="m67.5 119.668c.2099.16.4491.276.7041.344.255.067.5207.083.7819.047.2612-.035.5129-.122.7406-.255s.427-.309.5866-.519l.2191-.288c.1596-.21.2763-.449.3434-.704s.0833-.521.0477-.782-.1223-.513-.2552-.741c-.1329-.227-.3093-.427-.5193-.586l-32.3076-24.5612c-.2098-.1597-.4491-.2765-.704-.3436-.255-.0672-.5208-.0834-.782-.0478-.2613.0356-.513.1224-.7407.2553s-.427.3094-.5864.5195l-.2192.2878c-.1597.2098-.2764.4491-.3436.7041s-.0834.5207-.0478.782c.0356.2612.1224.5129.2553.7406s.3095.427.5195.5865z" fill="url(#n)"/><path d="m69.3446 110.426-7.66 10.078c-.6708.882-.4992 2.141.3833 2.812l1.4495 1.102c.8825.671 2.1417.499 2.8125-.383l7.6601-10.077c.6708-.883.4992-2.142-.3833-2.813l-1.4495-1.102c-.8825-.671-2.1417-.499-2.8126.383z" fill="url(#o)"/><path d="m63.9449 127.63 31.427 23.891c.8509.642 1.9214.92 2.9771.775 1.0558-.146 2.011-.703 2.656-1.552l7.998-10.519c.644-.848.925-1.917.781-2.972s-.7-2.01-1.548-2.655l-31.4271-23.893c-.8489-.643-1.9178-.924-2.9732-.781-1.0554.142-2.0115.696-2.6596 1.541l-7.9973 10.52c-.645.851-.9266 1.923-.783 2.981s.7006 2.016 1.5491 2.664z" fill="url(#p)"/><g opacity=".5"><path d="m101.915 139.217c.152.116.326.201.511.249.186.049.379.061.568.035.19-.026.373-.088.538-.185.166-.096.311-.225.427-.377.116-.153.2-.326.249-.512.049-.185.061-.378.035-.568s-.089-.373-.185-.538c-.097-.166-.225-.311-.377-.427l-26.0477-19.801c-.3081-.234-.6965-.336-1.0799-.284s-.7303.255-.9645.563c-.2341.308-.3362.696-.2839 1.08.0523.383.2546.73.5625.964z" fill="url(#q)" opacity=".5"/><path d="m96.3651 146.517c.1525.116.3264.201.5116.249.1853.049.3784.061.5682.035.1899-.026.3728-.089.5383-.185.1655-.097.3104-.225.4264-.377.1159-.153.2007-.327.2494-.512.0488-.185.0606-.378.0347-.568s-.0889-.373-.1855-.538c-.0966-.166-.2248-.311-.3773-.427l-26.0474-19.801c-.308-.234-.6963-.336-1.0796-.284-.3832.052-.73.255-.9642.563-.1159.152-.2007.326-.2494.511s-.0605.378-.0346.568.0889.373.1854.538c.0966.166.2248.31.3773.426z" fill="url(#r)" opacity=".5"/></g><path d="m29.7623 94.466-6.1229-6.9917c-.1319-.1512-.2074-.3434-.2137-.544-.0063-.2005.057-.3971.179-.5564l.9729-1.2796.8099-1.0651.9859-1.2973c.1206-.1605.2931-.2743.4881-.322s.4005-.0264.5816.0603l8.3741 4.032c.2605.1262.4737.3325.6084.5888l1.1174 2.138c.371.6987.2702 1.525-.2087 2.1543l-.8348 1.0978-.8099 1.0658-.8211 1.0801c-.4782.6293-1.2482.9473-2.0202.7765l-2.3755-.5168c-.2765-.0587-.526-.2065-.7105-.4207z" fill="url(#s)"/><path d="m97.8829 152.328c.6064-.011 1.2025-.159 1.7434-.433.5407-.274 1.0127-.668 1.3797-1.151l7.997-10.519c.644-.848.925-1.917.781-2.972s-.7-2.01-1.548-2.655l-31.427-23.893c-.6113-.464-1.3431-.744-2.1085-.805s-1.5322.099-2.2094.461c2.4102 1.23 6.0038 2.913 7.2318 5.496 1.1717 2.467 4.5724 6.838 9.447 8.439 4.8746 1.602 13.9771 7.182 14.9161 12.3.94 5.118 1.551 9.089-6.2031 15.732z" fill="url(#t)" opacity=".3"/><path d="m88.0695 96.992-13.0583-3.4635-3.5328-13.0406 13.7236-12.3289c.8296-.8341-.6542-2.7883-1.8318-2.8361-2.9442-.1243-5.8808.384-8.6119 1.4907-2.7311 1.1066-5.1932 2.7859-7.2203 4.9247-7.7199 8.1202-7.5282 21.0084.4239 28.9027 8.0934 8.036 21.1681 7.998 29.2144-.089 4.2527-4.2744 6.9717-9.3218 6.7167-14.9049-.053-1.1776-2.2-2.3513-3.031-1.5165z" fill="url(#u)"/><path d="m67.9737 93.2374-47.5903 44.5196c-.725.695-1.3037 1.528-1.7022 2.45-.3984.921-.6086 1.913-.618 2.917s.182 2 .563 2.929.944 1.773 1.6558 2.481c.7117.708 1.5577 1.266 2.4884 1.643.9306.376 1.9271.562 2.9308.548 1.0038-.014 1.9945-.229 2.914-.632.9196-.402 1.7493-.985 2.4405-1.713l44.3094-47.788z" fill="url(#v)"/><path d="m88.8225 97.834-13.059-3.4674-3.5328-13.0407 12.7967-12.8614c.8295-.8341.2702-2.2551-.9055-2.3035-2.9442-.1243-5.8808.3842-8.6119 1.4909-2.7311 1.1068-5.1932 2.7862-7.2203 4.925-7.7199 8.1203-7.5282 21.0079.4233 28.9031 8.0934 8.035 21.1687 7.997 29.2144-.09 2.0233-2.029 3.6016-4.4573 4.6336-7.1301 1.032-2.6729 1.495-5.5316 1.36-8.3937-.053-1.1776-1.476-1.7324-2.307-.8969z" fill="url(#x)"/><path d="m68.7267 94.0801-47.5904 44.5209c-.725.694-1.3038 1.527-1.7023 2.449-.3985.921-.6086 1.913-.6181 2.917-.0094 1.004.182 2 .5631 2.929s.9441 1.772 1.6559 2.481c.7116.708 1.5575 1.266 2.4881 1.643.9306.376 1.927.562 2.9307.548s1.9945-.229 2.914-.631c.9195-.403 1.7492-.986 2.4404-1.714l44.31-47.788z" fill="url(#y)"/><path d="m71.0708 99.0862c.4286.4264.7211.9708.8406 1.5628.1194.593.0604 1.208-.1695 1.767-.23.559-.6206 1.038-1.1225 1.375s-1.0925.518-1.6971.52c-.6046.001-1.1962-.177-1.6998-.511-.5036-.335-.8967-.811-1.1295-1.369s-.295-1.173-.1786-1.766c.1164-.594.4062-1.139.8326-1.5677.2831-.2847.6196-.5107.9902-.6654.3705-.1546.7679-.2347 1.1694-.2357.4015-.0011.7993.077 1.1706.2297s.7089.3771.9936.6603z" fill="url(#z)" opacity=".4"/><path d="m67.1598 105.581-38.5103 38.706c-.1675.169-.3664.302-.5856.394-.2192.091-.4542.139-.6917.139-.2375.001-.4728-.045-.6925-.135-.2196-.091-.4193-.224-.5876-.391-.1684-.168-.3022-.367-.3937-.586s-.1389-.454-.1395-.691c-.0006-.238.0456-.473.136-.693.0903-.22.2231-.419.3907-.588l38.5083-38.705z" fill="url(#A)" opacity=".4"/></svg>