<svg fill="none" height="180" viewBox="0 0 174 180" width="174" xmlns="http://www.w3.org/2000/svg"><path d="m145.141 118.407h-35.89l-17.9183 21.688c-.6344.768-1.4335 1.383-2.3381 1.799-.9045.417-1.8913.625-2.887.608-.9958-.017-1.9749-.258-2.8649-.704-.89-.447-1.668-1.089-2.2762-1.877l-16.5895-21.514h-35.5191c-15.9375 0-28.8579-12.92-28.8579-28.858v-60.6911c0-15.9375 12.9204-28.8579 28.8579-28.8579h116.2831c15.938 0 28.858 12.9204 28.858 28.8579v60.6911c-.001 15.938-12.921 28.858-28.858 28.858z" fill="#fc636b"/><path d="m120.127 69.0869-27.6243 24.4794c-1.1085.982-2.5382 1.5243-4.0191 1.5243s-2.9106-.5423-4.0191-1.5243l-27.6221-24.4794c-27.6878-24.4757 6.7904-60.42668 31.643-31.6429 21.5886-30.58904 56.7886 7.4112 31.6416 31.6429z" fill="#fff"/><path d="m89.72 180c24.778 0 44.865-2.815 44.865-6.287s-20.087-6.286-44.865-6.286c-24.7781 0-44.8648 2.814-44.8648 6.286s20.0867 6.287 44.8648 6.287z" fill="#ed1c24" opacity=".16"/></svg>