<svg fill="none" height="180" viewBox="0 0 250 180" width="250" xmlns="http://www.w3.org/2000/svg" xmlns:xlink="http://www.w3.org/1999/xlink"><clipPath id="a"><path d="m0 0h250v180h-250z"/></clipPath><g clip-path="url(#a)"><g fill="#000"><path d="m250 55.2v2.5c-.3 1.4-.5 2.7-.8 4.1-.1.6-.3 1.2-.5 1.8-.1.3-.2.5-.4.7l-.3-.3c.2-1.2.5-2.5.7-3.8.5-2.2.5-4.5-.1-6.7-.4-1.3-1.2-2.5-2.3-3.2-1-.7-2.2-.7-3.3-.2-.2.1-.7-.1-.7-.3 0-.1-.1-.2-.1-.3l.4-.1c1.7-1.1 3.4-.8 5 .6 1.3 1.2 2.1 2.8 2.3 4.6 0 .2 0 .4.1.6z"/><path d="m248 64 .3.3c-.3.3-.7.4-1.1.4-.3 0-.5 0-.8 0h-29.7c-.9 0-1.9 0-2.8-.1-.3 0-.5-.2-.6-.4-.6-2.9 1.2-6.3 3.7-7 .4-.1.9-.2 1.3-.2 0-.2 0-.5 0-.7-.5-2.8.3-5.6 2-7.8 1.7-2.3 4.6-3.4 7.4-2.9.8.1 1.6.3 2.5.4.1-.3.2-.7.3-1.1.8-2.7 2.2-4.5 4.7-5 3.9-.8 6.5 1.8 7.2 5.1.2 1.5.3 3 .2 4.5l-.4.1c-.2-.8-.3-1.5-.4-2.3 0-1.5-.4-2.9-1.1-4.2-.8-1.5-2.3-2.4-4-2.4-1.9-.2-3.7.8-4.6 2.6-.5 1.1-.9 2.2-1.2 3.3-.2.6-.4.8-1 .6-.7-.3-1.5-.5-2.2-.6-4.1-.7-7.4 1.8-8.4 5.8-.4 1.6-.4 3.3 0 4.9.1.6-.2 1-.7.8-1-.3-2.2 0-2.9.9-1.3 1.5-2.3 3.1-1.6 5.2z"/><path d="m246.6 121c1.2 1.8.6 4.3-1.2 5.5-1.5 1.2-3.5 1.5-5.3.8-.2-.1-.3-.1-.5-.1 2.1 1.8 3.7 3.7 1.8 6.5-1.2 1.7-3.4 2.5-5.4 1.9-.9.7-1.6 1.3-2.4 1.8-.4.2-.3.5-.3.9.2 1.3.5 2.5 1 3.7l-.2.1.2.1c.5 1.2 1.1 2.2 1.9 3.2.1.1.1.2.2.4 0 .1 0 .1-.1.4l-.4-.2c.4-.7-.4-1.7-1.3-1.2-.5-.6-.9-1.4-1.2-2.1-.5-1.5-.9-3.1-1.2-4.6l-2.9-.3c.8 2.4 1 5 .7 7.5v-.3c-.2 0-.5 0-.6.2.2-1.4.2-2.7.1-4.1.1-.1.2-.3.2-.4h-.2c-.1-1-.3-2.1-.6-3.1-.3-.7-.7-1.4-1.1-2.1l.6-.2c.3.5.8.9 1.3 1.1 1.1.6 2.4.6 3.5.1.9-.4 1.6-1.2 1.9-2.1.2-.6.5-.7 1-.1.4.5 1.1.7 1.7.6.5-.1 1-.2 1.5-.5 1.7-.8 2.8-2.9 1.4-4.6-.5-.6-1-1.1-1.5-1.7-1.4 1.2-3.4 1.6-5.2 1.1-1.7-.4-3.3-3.3-3-5 .1-.6.3-1.1.7-1.6.2-.2.4-.4.7-.5-.1.2-.1.4-.2.6-.7 1.7-.3 3.5 1 4.8 1.5 1.5 5.6.6 5.9-1.6 0-.2.3-.4.4-.6.2.2.4.3.5.5.3.6.9 1 1.6.9h1c1.6-.2 2.9-1.2 3.6-2.6.3-1 .1-2.1-.5-3-.7-1.5-2-2.6-3.5-3.1-.3-.1-.5-.2-.7-.3.2-.3.3-.6.5-.8 1-.6.9-1.6.8-2.5-.1-1.2-.8-2.3-1.8-2.9-2.1-1.5-4.4-2.2-6.9-.7-.6.3-1 .7-.7 1.5 0 .1 0 .2-.1.5-.3-.2-.6-.3-.9-.5-.4-.4-1-.5-1.5-.3-1.2.4-2 1.3-2.3 2.5-.2 1-.3 1.9-.3 2.9 0 2 .8 3 2.7 3.4.5.1.9.3 1.3.5-.4.2-.8.4-1.2.3-1.4-.1-2.6-.8-3.3-2.1-.7-1.4-.4-2.8-.2-4.3.1-.6.2-1.1-.4-1.5l.3-.5.4.3c.6-1.3 1.7-2.2 3.1-2.6.1 0 .1-.1.1 0 .4.2.9.2 1.3 0 .5-.3.9-.5 1.4-.9.6-.4 1.3-.6 2-.8 2.1-.4 4 .3 5.8 1.7 1.1.7 1.8 1.9 2 3.2.1 1.1.2 2.2-.8 3.2 1.9.6 2.8 2.1 3.8 3.7z"/><path d="m244.4 148.5-3.4 2.7c-.2.2-.4.4-.5.6-.5 1-1 2-1.6 2.9-1.2 1.8-2.4 3.6-3.6 5.3l-.5-.3c.8-1.4 1.6-2.7 2.4-4.1.6-1.1 1.3-2.1 2-3.3-.7.3-1.5.6-2.3.9-1.4.3-2.6 1.1-3.3 2.4-1.2 2.1-2.5 4.1-3.8 6.2l-.6-.4c.6-1.2 1.1-2.4 1.8-3.5s1.3-2 2-3.1c-.8.2-1.6.5-2.4.8-.4.2-.8.5-1 .9-.8 1.2-1.4 2.5-2.2 3.6s-1.7 2.3-2.7 3.6l-.9-.1.1-.3c.2-.6.6-1.2.9-1.7 1.1-1.7 2.3-3.4 3.6-5.2-.8.3-1.4.5-2.1.8-.7.2-1.3.7-1.6 1.4l-.9-.1c-1 .2-2 .5-3 .9-.2.1-.4.3-.5.6-.7 1.5-1.6 3-2.8 4.2-.8.8-1.4 1.6-2.2 2.5l-.4-.1c.5-1.6 1.3-3 2.5-4.1.6-.7 1.1-1.6 1.7-2.5-.6.2-1.3.3-1.9.4-1.3.1-2.5.8-3.2 2-1.4 2-3.1 3.7-5 5.3.9-2.7 3.2-4.2 4.5-6.4-.1 0-.2 0-.3 0-2.5.6-4.9 1.3-7.4 1.8-3.6.8-7.3 1.5-11 2.1-4.1.7-8.2 1.3-12.4 1.9-2.9.4-5.9.7-8.8 1.1-3.3.4-6.6.8-9.9 1.2s-6.5.6-9.7.8c-4.8.3-9.5.6-14.3 1-1.1.1-2.1.2-3.2.3 0 1.4-.6 2.8-1.5 3.9l-.3-.1c.4-1.2.9-2.4 1.3-3.7l-2.2.1c.1 1.7-.6 3.3-2 4.4l-.4-.1 1.6-4.1c-.2 0-.4-.1-.7-.1-2.2.1-4.3.2-6.5.4-.2 0-.4.3-.5.5-.3.9-.6 1.9-1 2.8-.4.8-.8 1.6-1.3 2.3l-.4-.2c.4-1.9 1.5-3.6 2-5.5h-1.9l-.1.2-.4-.1h-3.2c-.6 2.2-1.7 4.3-3.1 6.1l-.8-.4c.4-.9.9-1.8 1.3-2.8s1-2 1.6-3h-8.1-.9c-.5 0-1.1 0-1.6 0-.9-.3-2 .2-2.3 1.1l-.8-.4.3-.7h-3.4c-.8 2.6-2.3 5-4.2 6.9l-.5-.3c.9-1.5 1.8-3 2.7-4.5.4-.7.7-1.4 1.1-2.1-2.1-.3-2.4-.1-3.2 1.6-.1.1-.1.2-.1.4-.7 1.6-1.6 3-2.9 4.2l-.1-.3c1-2 2.1-4 3.2-6.1-.7 0-1.3 0-2 0-.7-.1-.9.3-1.1.8-.5 1.7-1.9 2.8-2.9 4.2-.2.2-.5.4-.8.6.4-1.4 1.1-2.7 2-3.8.4-.5.8-1.1 1.1-1.7-1.1 0-2 0-2.9 0-.5-.1-1 .2-1.1.7-.7 1.5-1.9 2.7-3.5 3.2.9-1.3 1.8-2.6 2.8-4-1.2 0-2.1 0-3 0-.3.1-.6.3-.8.5-.6.7-1 1.5-1.6 2.1-.5.4-1 .7-1.6 1l-.2-.2 2.8-3.3c-2-.2-3.8-.3-5 1.4-.2.2-.5.3-.8.5l-.1-.2 1.2-1.6c-4.9-.3-9.8-.6-14.7-.8-2.4-.1-4.8-.2-7.1-.3-3.4-.3-6.7-.6-10.1-.9s-6.5-.8-9.7-1.2c-3.5-.5-7.1-1-10.6-1.6l-.5-.1c-1.1-.2-2.1-.5-3.2-.7l-.6-.1-3-.8-.7-.3-2.2-.8-2.9 3.7-.6-.4c.8-1.1 1.6-2.3 2.5-3.5-1.1-.5-2.1-1.1-3.2-1.5-1.2-.4-2.1-1.2-2.7-2.3l-.2.1c0 .6.1 1.1.2 1.7.4 1.4 1 2.7 1.4 4 .1.3.3.6 0 .9-.1.1-.2.2-.3.2-.9-2.1-2.40001-3.7-2.70001-6.1l.6.3c.1-.6 0-1.3-.2-1.9-.5-.9 0-1.6.4-2.2.4-.7 1.00001-1.3 1.70001-1.7 1-.6 2.1-1 3.1-1.5h.1l.2.4c-1.1.5-2.2 1.1-3.2 1.8-.7.5-1.60001 1.2-1.4 2.4.1.5.1.9.6 1.1.1 0 .1.1.2.1 1.1 2.1 3.3 2.4 5.2 3.3.5.1.9.2 1.4.2.2.2.5.4.8.5 1.8.6 3.6 1.1 5.4 1.6 3.7.7 7.5 1.3 11.3 1.9 4 .6 8.1 1 12.2 1.4 3.6.6 7.2.9 10.8 1 2.5 0 5.1.2 7.6.3s5.1.3 7.7.5 4.8.2 7.2.2c.5 0 .9-.4 1.4-.6v.7h4.1 7.1c.6-.1 1.2-.2 1.8-.4 0 0 .1.2.1.4h11.4c7 0 13.9 0 20.8-.1 3.2 0 6.4-.4 9.6-.6 2.4-.2 4.9-.3 7.4-.5s4.7-.4 7-.6c2-.1 4-.2 5.9-.4 2.7-.2 5.3-.5 8-.7 1.3-.1 2.5-.2 3.8-.4 3.1-.4 6.3-.8 9.4-1.2 2.1-.3 4.3-.5 6.4-.8 2.6-.4 5.2-.7 7.8-1.2 3.9-.7 7.9-1.4 11.8-2.2 1.5-.3 3-.7 4.5-1.1 3.8-.9 7.6-1.7 11.2-2.8s7.2-2.7 10.8-4.1c2.1-.8 4.2-1.4 6.3-2.2 2.5-.9 4.8-2.5 6.5-4.5.6-.7.6-1-.1-1.7-1.4-1.3-6.9-3.2-8.8-3.4-.1 0-.2 0-.2-.1l-.1-.2c2.4-.6 8.6 1.9 10.1 3 .8.6 1.4 1.4 1.7 2.3.1.4.2.8.2 1.2v5.2c0 .4-.1.8-.4 1.1-.2.2-.4.4-.6.6l-.6-.6c.3-.3.5-.7.6-1.1.1-1.8.2-3.7.1-5.5-.2.3-.3.5-.4.8l-.7-.4z"/></g><path d="m245.7 121c.6.9.8 2 .5 3-.6 1.4-2 2.4-3.6 2.6-.3 0-.6 0-1 0-.7.1-1.3-.3-1.6-.9-.1-.2-.4-.3-.5-.5-.2.2-.4.4-.4.6-.2 2.2-4.3 3.1-5.9 1.6-1.3-1.3-1.7-3.1-1-4.8.1-.2.2-.4.2-.6-.3.1-.5.3-.7.5l-.7-.8c.4 0 .9-.1 1.2-.3-.4-.2-.9-.4-1.3-.5-2-.5-2.8-1.4-2.7-3.4 0-1 .1-1.9.3-2.9.3-1.2 1.1-2.1 2.3-2.5.5-.2 1.1-.1 1.5.3.3.2.6.4.9.5.1-.3.1-.4.1-.5-.3-.8.1-1.2.7-1.5 2.5-1.5 4.8-.8 6.9.7 1 .6 1.7 1.7 1.8 2.9.1.9.2 1.9-.8 2.5-.2.2-.4.5-.5.8.2.1.5.2.7.3 1.6.3 2.9 1.4 3.6 2.9z" fill="#3caa49"/><path d="m245.6 148.2c.1 1.8.1 3.7-.1 5.5-.1.4-.3.8-.6 1.1-.3.4-.7.7-1 1-.6.7-1.4 1.2-2.3 1.5-.5.2-1 .5-1.5.9l5-9.1c.2-.4.3-.7.5-.9z" fill="#3caa49"/><path d="m244.9 154.8.6.6c-.7.8-1.4 1.5-2.1 2.2-.1.1-.3.2-.4.3-1.3.6-2.6 1.2-3.8 2-.4.2-.6.8-.9 1.2 0-.1 0-.3-.1-.6-1.8.6-3.5 1.2-5.2 1.8l-4.5 1.6c-1.7.6-3.3 1.2-5 1.7-.6.2-1.3.4-2 .6-2.7.8-5.4 1.7-8.1 2.5-1.6.5-3.3 1-4.9 1.4s-3.4.7-5 1.1c-2.5.6-4.9 1.2-7.4 1.7-2.3.4-4.6.7-7 1.1-3.4.5-6.8 1.1-10.2 1.6-3 .4-6 .6-9 1s-6 .8-8.9 1.2c-1.5.2-3 .3-4.4.4-2.9.2-5.9.4-8.9.6-2.8.2-5.6.4-8.4.5-3 .1-6 .1-9 .4-5.2.5-10.4-.1-15.6.3-1.1.1-2.2.1-3.3.2v-1c1.1-.1 2.1-.2 3.1-.3.2 0 .4-.2.4-.4l.2-.4.8.4-.3.4h1.3c1.2.2 2-.1 2.3-1.4 0-.2.1-.3.3-.5 1.4-1.2 1.4-3.2 2.8-4.6l.4.1c-.8 2.2-1.5 4.5-3.4 6.2.2.1.2.1.3.1l3.4-.1c2.2 0 4.4-.1 6.6-.1 3.6-.1 7.1-.3 10.7-.5 1.6-.1 3.3-.2 4.9-.3l9.2-.6c2.1-.1 4.1-.3 6.2-.5 1.5-.1 3-.4 4.5-.6 2.5-.3 5-.5 7.6-.8 2.9-.4 5.8-.8 8.8-1.2s5.8-.7 8.7-1.2c3.5-.6 7-1.2 10.5-2 2.9-.6 5.7-1.4 8.6-2.1l1.4-.3.5-.1c1.1-.3 2.2-.5 3.4-.9.2-.1.4-.2.5-.4v-.1l.4.1c1.1-.3 2.1-.5 3.1-.8.5-.2 1-.6 1.3-1.1.8-1.3 1.6-2.6 2.5-3.8l1.7-2.5.9.1c-.5 1.4-1.3 2.7-2.3 3.8-.7.8-1.2 1.7-1.9 2.8.7-.2 1.3-.4 1.8-.5.6-.1 1.2-.5 1.4-1.1l.9.1c1.3-.4 2.5-.7 3.6-1.1.3-.2.5-.4.6-.7.1-.2.2-.3.2-.5l.6.4-.1.2.1.2 4.4-1.7c.1 0 .1-.2.2-.2s.2-.3.3-.5l.5.3c.8-.1 1.5-.2 2.2-.4.5-.2 1-.5 1.4-1 1.9-3.3 3.7-6.6 5.6-10l.7.4-5 9.1 1.5-.9c.9-.3 1.7-.8 2.3-1.5.2-.8.6-1.1.9-1.4z" fill="#000"/><path d="m244.4 148.5c-1.9 3.3-3.7 6.7-5.6 10-.3.5-.8.8-1.4 1-.7.2-1.5.4-2.2.4 1.2-1.7 2.4-3.4 3.6-5.3.6-.9 1.1-1.9 1.6-2.9.1-.2.3-.4.5-.6z" fill="#3caa49"/><path d="m94.8 170.2c-.6.2-1.2.3-1.8.4-2.4.1-4.7 0-7.1 0-1.4 0-2.7 0-4.1 0v-.7c-.5.2-1 .6-1.4.6-2.4 0-4.8-.1-7.2-.2-2.6-.1-5.1-.3-7.7-.5s-5.1-.3-7.6-.3c-3.6-.1-7.2-.4-10.8-1-4.1-.5-8.1-.9-12.2-1.4-3.8-.5-7.5-1.2-11.3-1.9-1.8-.4-3.7-.9-5.5-1.6-.3-.1-.6-.3-.8-.5-.5 0-.9 0-1.4-.2-1.9-.9-4.1-1.2-5.2-3.3 0-.1-.1-.1-.2-.1-.5-.2-.5-.6-.6-1.1-.1-1.2.8-1.8 1.4-2.4 1-.7 2.1-1.3 3.2-1.8l.2-.1c1.5 1.6 2.8 3.1 5 3.1 3.1.1 6.1.3 9.2.4 1.1 0 1.9.2 2.1 1.4.1.3.2.5.4.7 2.1 3.2 6.6 3.8 9.9 1.8 1.3-.7 2.2-1.9 2.7-3.2.5.1 1.1.2 1.6.2 3 0 6.1-.1 9.1-.2.8 0 1.4 0 1.7.9.1.3.5.6.7.9 1.1 1.1 2.7 1.8 4.3 1.8 2.9.2 5.5-.4 7.3-2.9.1-.2.3-.3.5-.3 2.8-.3 5.6-.6 8.3-1 2.2-.3 4.3-.9 6.5-1.4.4-.1.7-.3 1-.5.1-.1.2-.2.2-.2.5-.7.9-1.4 1.2-2.1h4.7v.1l-1.1.1c-.1.5-.2.8-.2 1.2-.1 1.2.3 1.6 1.5 1.7l2.5.1c2.2.1 4.5.3 6.7.3 1.7 0 3.3-.1 5-.1h2c.4 0 .7-.1.6-.7-.2-.9-.3-1.7-.5-2.7.9 0 1.7.1 2.6 0 1.6-.1 3.2.1 4.8-.9 1.8-1.1 3.7-1.8 5.5-2.8s3.7-1.9 5.5-2.9c.8-.4 1.5-.9 2.4-1.5v2.1c0 1.9.3 2.3 2 2.3 2.3 0 4.6.1 6.9.1 21 0 42 0 63-.1 5.1 0 10.2-.1 15.3-.2h.1.1c.3.6.7.2.9 0 .4-.3.8-.6 1.1-.9.8-.8 1.7-1.5 2.6-2.2 1.8-1.1 3.8-2.1 5.6-3.2 1.2-.6 2.4-1.5 3.2-2.6.1 1.4 0 2.8-.1 4.1-.4.4-.3 1 .1 1.4.2.1.4.2.6.3.5.1.9.3 1.4.3.5.1 1.1.1 1.6 0 1-.1 1.9-.5 2.8-.9.1-.1.3-.2.3-.4l.4.2c.1-.3.1-.4.1-.4-.1-.1-.1-.2-.2-.4-.8-1-1.4-2.1-1.9-3.2.1 0 .1.1.2.1 1.9.3 7.4 2.2 8.8 3.4.7.6.8 1 .1 1.7-1.8 2-4 3.5-6.5 4.5-2.1.8-4.2 1.5-6.3 2.2-3.6 1.3-7.1 2.9-10.8 4.1s-7.5 1.9-11.2 2.8c-1.5.4-3 .8-4.5 1.1-3.9.8-7.9 1.5-11.8 2.2-2.6.4-5.2.8-7.8 1.2-2.1.3-4.3.6-6.4.8-3.1.4-6.3.8-9.4 1.2-1.3.2-2.5.3-3.8.4-2.7.2-5.3.5-8 .7-2 .2-4 .2-5.9.4-2.4.2-4.7.4-7 .6s-4.9.3-7.4.5c-3.2.2-6.4.6-9.6.6-6.9.1-13.9 0-20.8.1h-11.3c-.1.1-.1-.1-.1-.1zm59.8-15.5c.1-.7-.3-1.4-1-1.7-.6-.3-1.3-.5-1.8.3-.1-.2-.2-.3-.3-.4-.9-1-1.7-1.2-2.8-.4-.5.4-1.1.8-1.6 1.3-.8-1.1-1.9-.5-2.9-.4-.1 0-.2.1-.2.2-.8 1.2-.7 2.8.1 4 .1-.4.2-.7.2-.8-.5-.8-.1-1.4.1-2.1.1-.5.1-1 .8-.9.5 0 .9.2 1.4.4.5.5.8 1 1.2 1.6.2-.3.3-.7.4-1.1.2-.9.9-1.5 1.7-1.8.2 0 .4 0 .5.1.7.5.6.8-.2 1.7.5.7 1.3.6 1.9-.3.2-.2.7-.6.8-.5.3.2.5.5.7.9.1.3.1.6.1.9.1.2.2.3.4.4.1-.1.4-.3.4-.5.1-.2.2-.5.1-.9zm-23 1.1c0-1.1 0-2.3-.1-3.4-.1-.7-.7-1-1.4-1-.9-.1-1.7.4-2 1.2-.7-.5-1.2-1.1-2.1-.9s-1.2 1.2-1.3 2l-1.6-.5c-.8-.3-2.3.6-2.1 1.3.3 1 .8 1.9 1.3 2.8 0 .1.4.1.6.1 0-.2 0-.4-.1-.6-.3-.4-.6-.9-.9-1.4-.1-.4-.1-.8.2-1.2.4-.2.8-.3 1.2-.2.7.1 1.4.4 1.3 1.4 1-.4 1-1.1 1-1.9.1-.5.3-.9.7-1.1.5-.1 1 .2 1 .9 0 .2.2.4.3.6.2-.1.4-.1.5-.3l.9-1.2c.4-.3.8-.4 1.3-.4.1 0 .4.6.4 1v2.6c0 .2.3.4.4.6.2 0 .6-.2.5-.4zm-23.5 5.5c0-.1.1-.2.1-.2-.4-.7-1.2-1.1-2-1-.7.1-1.4.4-1.4 1.3-1.2 0-2.6-.6-2.9 1.3-.8-.4-1.4-.5-1.9.2-.4.7-.4 1.5 0 2.2.7.7 1.6 1 2.5.8-.3-.2-.5-.4-.8-.6s-.7-.3-.8-.5c-.2-.4-.3-.8-.4-1.3h.9c.6.2 1 .1 1.1-.6s.4-1 1.1-.8c.4.1.7.3 1.1.4s.6.2.9.3l.1-.2c-.1-.2-.3-.3-.4-.5-.1-.3-.2-.5-.1-.8.4-.6 1.2-.8 1.8-.4z" fill="#65bd4d"/><path d="m240.2 76.4c1.6 0 1.6-.2 1.6.7h-85.8c.4 1.6-.3 3.1-.6 4.7-.6 3.3-1.2 6.5-1.8 9.8-.8 4.8-1.5 9.6-2.2 14.5-.5 3-1.1 6-1.6 9-.4 2.5-.7 5-1 7.5-.2 1.8-.5 3.7-1 5.4l-.5-.1c.2-.6.3-1.2.3-1.9.4-3 .7-6 1.1-9 .5-3.7 1.1-7.4 1.7-11.1.7-4.2 1.3-8.4 2-12.6.5-2.9 1-5.7 1.5-8.6.2-1.1.3-2.2.5-3.4l-.4.6c-.1-.6-.3-1.1-.3-1.7 0-5.1-.1-10.2-.1-15.3 0-6.2.1-12.5.1-18.8 0 0 0 0-.1-.1h-15.3c-5.1 0-10.1.1-15.2-.3 0-.1 0-.2 0-.4.6-.1 1.2-.2 1.8-.2 1.6-.1 3.2-.1 4.8-.2.5 0 .8-.1.9-.6.9-3.1 1.9-6.2 2.8-9.3 1.2-4 2.3-8 3.4-12 .1-.3 0-.5-.1-.8-.5-.9-.6-2.1-.2-3.1.1.7.2 1.4.4 2.1s.9 1.1 1.6 1c.3-.1.5-.2.7-.5.8-.5 1-1.5.7-2.3-.3-.9-1.3-1.4-2.2-1.3-.4.1-.8.3-1.2.5.3-.7 1-1.2 1.8-1.3 1.1 0 2.1.7 2.5 1.8.5 1.1.2 2.3-.7 3 3.4 7.3 5 15.1 7.6 22.7 2 0 3.9.1 5.8-.1.6 0 .7 0 1 .4.5.6 1.1 1.1 1.7 1.6 1.4 1.4 2.7 2.8 4.1 4.2.2.3.4.6.6 1l-.3.3c-1.1-1.2-2.2-2.3-3.3-3.5-.9-.9-1.8-1.8-2.8-2.7v2.3c-.2.9.2 1.9 1 2.5.8.7 1.4 1.5 2.1 2.4 1 1.2 2 2.3 3 3.5-.2 0-.4-.1-.6-.2-1.7-1.2-3.2-2.7-4.4-4.4-.2-.4-.6-.7-1-1.3v1.8c-.1.6.1 1.2.6 1.6 1.3 1.4 2.7 2.8 4 4.2.4.5.8 1 1.1 1.6l-.2.2-5.3-5.5v3.3c0 .2.1.4.2.5.9 1 1.8 2 2.7 3.1s1.9 2.3 2.9 3.4c-.8-.5-1.6-1.1-2.3-1.8-1.2-1.2-2.4-2.5-3.6-3.8v3.3c0 .4.2.8.4 1.1.8 1 1.8 1.9 2.6 2.9 1 1.3 2.3 2.3 2.8 3.9-1.8-1.9-3.6-3.9-5.4-5.9l-.5-.6c0 1.2.1 2.3 0 3.3-.1.8.3 1.6 1.1 2 1.8 1.2 3.4 2.8 4.6 4.5-2.2-1-3.6-3.1-5.6-4.4v10.2l.9-3.6h6.5zm-94.4-31.4h1c-1.1-3.8-2.2-7.5-3.3-11.2s-2.4-7.4-3.6-11l-.4.1c.6 2.5 1.7 4.8 2.3 7.2s1.3 5 2 7.4 1.3 5 2 7.5zm-3.2-.7c.4.7 1.1 1 1.9.7-1.6-2.2-3.2-4.4-4.9-6.7l-.7.7c1.3 1.8 2.6 3.5 3.7 5.3zm1.9-.7c-.7-2.7-1.4-5.4-2.1-8.2l-2.3 2.5c1.5 1.9 3 3.8 4.4 5.7zm-11.3 1.4h8.9l-3.8-5.6zm8.6-9.4c.7-.7.4-1.2.1-1.9-.5.6-.9 1.1-1.4 1.6-2.1 2.3-4.3 4.6-6.4 6.9-.7.5-1.1 1.4-1.1 2.3.4-.4.7-.8 1-1.2 2.7-2.7 5.2-5.3 7.8-7.7zm-.2-2.1c.1-.2.2-.4.1-.6-.5-.8-1-1.6-1.6-2.4-.4 1.2.9 1.8.9 2.9l-.2.1-1.3-2.2c-.9 1-1.8 2.1-2.7 3.1l1.5 2.1c1.1-1.1 2.2-2.1 3.3-3zm-.8-4.4c-.1-.3-.2-.6-.4-1.1-1.5 2.3-4.1 3.8-4.4 6.8zm-1.2-.6c.2-.5.6-1 .6-1.3-.2-1.2-.7-2.3-1.1-3.7 0 .6-.2 1.2-.4 1.8-.6 1.2-.2 2.2.9 3.2zm-1 .7.5-.5-.9-1.2c-.5.7.3 1.1.4 1.7zm0-6c-.8-.4-.7.2-.8.5-1.5 5.1-3 10.2-4.5 15.3-.6 2-1.4 4-2 6h.7c.4-1.2.6-2.3 1-3.5 1.6-5 3.2-10 4.8-15.1.3-1 .6-2.1.8-3.2zm-1.5 7.6c1.5-1.6 1.4-1.2.7-2.2-.3.8-.5 1.5-.7 2.2zm.4 7 .5-.8c-.5-.8-1-1.5-1.5-2.3l-.5.5c.6.9 1.1 1.7 1.5 2.6l-2-2.1-1.6 5.4z" fill="#000"/><path d="m241.4 77.1h.5v.9c0 3.5-.4 7-1.3 10.4-1.2 5.4-2.4 10.8-3.6 16.2-.2 1.2-.5 2.3-.8 3.4-.1.3-.3.6-.5.9-.4-1-.4-2 0-3 .7-3.6 1.6-7.1 2.4-10.7.7-3.4 1.5-6.7 2.1-10.1.4-2 .6-4 .9-6-.1-.6.1-1.2.3-2z" fill="#000"/><path d="m198.1 77.1h43.3c-.2.8-.4 1.4-.4 2-.3 2-.5 4-.9 6-.6 3.4-1.4 6.8-2.1 10.1-.8 3.6-1.6 7.1-2.4 10.7-.4 1-.4 2 0 3l.1.2c-.7.2-1.4.4-2 .8-.4.3-.9.6-1.4.9l-.1-.4c.2-.4.4-.9.6-1.3.3-1.5.4-3 .7-4.5.3-1.8.7-3.6 1-5.4.5-2.9 1-5.8 1.5-8.6.3-1.5.7-3 .9-4.6s.2-3 .3-4.6c0-.2-.1-.5-.2-.7h-.4v.1h-.1c-.3-.2-.7-.3-1.1-.4h-38.1v-.3c.4 0 .7-.1 1-.3.5-.4.6-1 .4-1.6-.1-.3-.4-.5-.7-.5z" fill="#878787"/><path d="m240.6 129.6c1.4 1.8.4 3.8-1.4 4.6-.5.2-1 .4-1.5.5-.6.2-1.3 0-1.7-.6-.4-.5-.8-.4-1 .1-.3 1-1 1.8-1.9 2.1-1.1.6-2.4.6-3.5-.1-.5-.2-1-.6-1.3-1.1-.2-.4-.3-.8-.2-1.2-.8.6-1.7 1.2-2.6 1.6-2 .8-4.3.7-6.3-.3-1.4-.6-1.6-1.9-.4-3.1.4-.4.9-.7 1.4-1 .2-.2.3-.4.4-.6-.2-.1-.5-.3-.7-.3-1.6.3-3.2-.1-4.4-1.2-1.1-.7-1.1-2-1.1-3.2.1-.7.2-1.4.3-2.1.4-1.7 2-2.9 3.7-2.7.2 0 .3-.1.5-.1-.1-.2-.1-.5-.2-.6-.5-.2-.9-.4-1.3-.7-.5-.4-.9-.8-1.1-1.4-.8-3.4 1.1-5.9 4.5-6.2 2.2-.1 4.4.4 6.3 1.7h.1c.6.4.4.9.4 1.5-.1 1.4-.4 2.9.2 4.3.7 1.2 1.9 2 3.3 2.1l.7.8c-.4.4-.6 1-.7 1.5-.4 1.7 1.2 4.6 3 5 1.8.5 3.7.1 5.1-1.1.4.7.9 1.2 1.4 1.8z" fill="#098d45"/><path d="m239.2 152.3c-.7 1.2-1.4 2.2-2 3.3-.8 1.4-1.6 2.7-2.4 4.1-.1.1-.2.3-.3.5s-.1.2-.2.2l-4.4 1.7-.1-.2.1-.2c1.3-2.1 2.6-4.1 3.8-6.2.7-1.2 1.9-2.1 3.3-2.4.7-.2 1.5-.5 2.2-.8z" fill="#3caa49"/><path d="m237.1 80.8c.1.2.1.4.2.7-.1 1.5-.1 3.1-.3 4.6s-.6 3-.9 4.6c-.5 2.9-1 5.8-1.5 8.6-.3 1.8-.7 3.6-1 5.4-.3 1.5-.4 3-.7 4.5-.1.5-.3.9-.6 1.3-.5-.5-.6-1.3-.3-2 .4-2.7.9-5.4 1.4-8.1s.9-5.5 1.4-8.2c.3-1.6.8-3.1 1.1-4.6.2-.9.3-1.9.4-2.8.2-1.3.3-2.6.5-3.8v-.1z" fill="#000"/><path d="m236.9 45.6v16.4c0 .6-.2 1-.9.9-.9-.1-1.7-.1-2.6-.2-.4 0-.8-.2-.6-.8.1-.5.1-1.1.1-1.6 0-4.8 0-9.6.1-14.4 0-.8.1-1.7.2-2.5h2.5v.3l-2.1.2v18l2.5.5c.2-6.3-.2-12.5.2-18.7 0-.1 0-.1 0-.2h.3c.2.6.3 1.4.3 2.1z" fill="#000"/><path d="m236.7 80.9c-.2 1.3-.3 2.6-.5 3.8-.1.9-.2 1.9-.4 2.8-.3 1.5-.8 3.1-1.1 4.6-.5 2.7-1 5.5-1.4 8.2s-1 5.4-1.4 8.1c-.3.7-.2 1.5.3 2l.1.4c-.4.2-.9.2-1.3 0h-.1c-1.4.3-2.5 1.3-3.1 2.6l-.4-.3c-2.1-1.5-4.6-2.2-7.1-1.9-1.6.1-3.1.9-4.1 2.2-1.4 2.1-1.3 4.8.2 6.8-2.9 1.4-3 4.1-3.1 6.9h-60.6c2.2-15.2 4.7-30.5 7.6-45.6l.1-.5c.1 0 .3 0 .4.1h22 52.4c.4-.1.7-.2 1.1-.4zm-33.8 28.7-.2-.1c0-.5-.1-.9-.1-1.4 0-1.3-.3-2.6-1-3.7-1.9-3.3-5.1-5.7-8.9-6.4-2.5-.5-5.2-.5-7.7 0-3 .7-5.2 2.8-7.2 5-1.2 1.1-1.9 2.6-2 4.3 0 .6 0 1.1.6 1.3s1.3-.1 1.6-.6c2-3.4 5.3-5.8 9.1-6.6 2.8-.7 5.7-.3 8.2 1 2.5 1.4 4.3 3.9 4.8 6.7.1.5.3.9.6 1.3.3.3.8.5 1.3.5.4-.4.6-.9.9-1.3zm-5.5 1.8c.7-.2 1-.9.8-1.6-.3-1.9-1.1-3.6-2.3-5-1.7-1.9-4.1-2.5-6.6-2.6-3-.2-5.9 1.2-7.6 3.7-.8 1-1.1 2.2-1.1 3.4 0 .5.4 1 .9 1h.1c.7 0 1.2-.4 1.5-1 .8-1.5 2-2.7 3.6-3.4 2.4-.9 5.1-.3 6.9 1.5.7 1 1.3 2 1.7 3.1.4.8 1.3 1.2 2.1.9zm-8 2.7c1.6.1 2.9-1.1 3-2.6v-.1c-.1-1.7-1.4-3.1-3.1-3.1-1.6.1-2.8 1.5-2.7 3.1-.1 1.4.9 2.6 2.3 2.8.1-.1.3-.1.5-.1z" fill="#95d6f1"/><path d="m235.7 43.6h.6c-.4 6.2 0 12.4-.2 18.7l-2.5-.5v-18z" fill="#39a9e0"/><g fill="#000"><path d="m234.8 144.7c.9-.5 1.6.5 1.3 1.2-.3-.1-.5-.2-.7-.4-.2-.3-.4-.5-.6-.8z"/><path d="m236.1 145.9c-.1.1-.2.3-.3.4-.9.5-1.8.8-2.8.9-.5.1-1.1.1-1.6 0-.5 0-.9-.3-1.4-.3-.5-.1-1-.5-.9-1.1 0-.2.1-.4.3-.6-.1.5-.4 1.1.4 1.4.1-.2.4-.4.4-.6s.1-.7.2-1c.7.2 1.4.3 2.1.3.8-.1 1.7-.3 2.4-.7.2.3.4.6.6.8.1.3.3.4.6.5z"/><path d="m235.5 80.5c.4.1.7.2 1.1.4-.3.2-.7.3-1.1.4-17.5 0-35 0-52.4 0-7.4 0-14.7 0-22 0-.1 0-.3 0-.4-.1-.2-.1-.5-.1-.7-.2 0-.1 0-.2 0-.4.4-.1.9-.1 1.4-.2z"/></g><path d="m234.8 144.7c-.8.4-1.6.6-2.4.7-.7 0-1.4-.1-2.1-.3.3-2.5 0-5.1-.7-7.5l2.9.3c.3 1.6.7 3.1 1.2 4.6.2.8.6 1.5 1.1 2.2z" fill="#c6853e"/><path d="m233 154.7c-.7 1.1-1.4 2.1-2 3.1s-1.2 2.4-1.8 3.5c-.1.2-.2.3-.2.5-.1.3-.4.6-.6.7-1.1.4-2.3.7-3.6 1.1 1-1.3 1.9-2.4 2.7-3.6s1.4-2.4 2.2-3.6c.2-.4.6-.7 1-.9.7-.3 1.5-.6 2.3-.8z" fill="#3caa49"/><path d="m231.1 62c0 .6.1 1.2-.9.8-.1 0-.3-.1-.4-.1v-.4h.6v-13h.5c.1.7.2 1.4.2 2.2z" fill="#000"/><path d="m230.3 49.7v12.8h-.6l-1.2-.1v-12.6z" fill="#39a9e0"/><g fill="#000"><path d="m230.3 49.3v.4l-1.7.2v12.5l1.2.1v.4c-.6 0-1.2.1-2 .2-.2-4.6-.1-9.1.3-13.7z"/><path d="m230 145 .4.1c-.1.3-.1.7-.2 1s-.3.4-.4.6c-.8-.3-.5-1-.4-1.4.1-.3.4-.3.6-.3z"/><path d="m229.4 140.6v.4c-.9 1.1-2 1.9-3.2 2.6-1.9 1.1-3.8 2.1-5.6 3.2-.9.7-1.8 1.4-2.5 2.1-.3.3-.7.6-1.1.9-.3.2-.6.6-.9 0h-.1v-.6h.6c.1-1.1.3-2.2.3-3.4s-.3-2.9-.4-4.2c1.1.9 1.7 4.4 1.3 6.5 1-.8 2-1.6 3-2.3 1.7-1.1 3.5-2 5.2-3.1.6-.3 2.2-1.6 2.8-1.9.1 0 .4-.1.6-.2z"/></g><path d="m228.9 137.6c.3 1 .5 2 .6 3.1-.3 0-.6.1-.8.2-.6.4-2.2 1.6-2.8 1.9-1.7 1-3.5 2-5.2 3.1-1 .7-2 1.5-3 2.3.4-2.2-.2-5.6-1.3-6.5.8-.3 1.6-.6 2.3-1 2.6-1.4 5.2-2.8 7.8-4.3.5-.3.9-.6 1.3-.9.4.6.8 1.3 1.1 2.1z" fill="#9c9c9b"/><path d="m228.3 135.2-.6.2c-.4.3-.9.6-1.3.9-2.6 1.4-5.2 2.9-7.8 4.3-.7.4-1.5.7-2.3 1-.9.3-1.8.4-2.7.4-26.8-.1-53.6-.1-80.4-.1h-4.3-.6c0-.2 0-.4 0-.5l1.2-.6c2-1.1 3.9-2.2 6-3.2.5-.2.9-.8.8-1.3 0-7.2 0-14.4 0-21.6-.4.2-.8.4-1.2.6-2.4 1-4.8 2-7.1 3l-.2-.5 2.3-1c1.9-.8 3.7-1.8 5.5-2.7.8-.3 1.6-.6 2.3-.9.4.4.1.7-.3.8-.6.2-.7.7-.7 1.2.1 6.8.1 13.6.2 20.4v.8l8.7-4.3c-.4-1.4.2-2.4 1.1-3.5.2-.3.4-.6.5-1l.5.1c-.3 1-.7 1.9-1.2 2.8-.2.6-.3 1.2-.3 1.9h71c.3-.4.5-.8.8-1.1-1.1-.5-2.1-1-3.1-1.5-.4-.2-.7-.4-.9-.8-.3-.8-.8-.8-1.5-.8-18.8 0-37.6 0-56.4 0-1.1 0-2.2-.1-3.3-.1-.8-.1-1.1-.4-1-1.2.5-3.8 1-7.7 1.5-11.5.5-3.4 1-6.8 1.6-10.2.3-1.9.8-3.8 1.1-5.7.4-2.2.7-4.4 1.1-6.5.5-2.7 1.1-5.3 1.7-7.9.3-1.1.7-2.1 1.1-3.1.1-.2.2-.3.3-.5-2.9 15.2-5.4 30.4-7.6 45.6h60.6c.1-2.8.2-5.5 3.1-6.9-1.6-2-1.7-4.7-.2-6.8 1-1.3 2.5-2.1 4.1-2.2 2.5-.3 5.1.4 7.1 1.9l-.3.5h-.1c-1.9-1.2-4.1-1.8-6.3-1.7-3.5.3-5.3 2.8-4.5 6.2.2.6.6 1.1 1.1 1.4.4.3.9.5 1.3.7.1.1.2.4.2.6-.2.1-.3.1-.5.1-1.8-.2-3.4 1-3.7 2.7-.1.7-.3 1.4-.3 2.1-.1 1.2 0 2.4 1.1 3.2 1.2 1 2.8 1.5 4.4 1.2.2-.1.5.2.7.3-.1.2-.2.5-.4.6-.5.3-.9.6-1.4 1-1.1 1.2-1 2.5.4 3.1 1.9 1 4.3 1.1 6.3.3.9-.5 1.8-1 2.6-1.6 0 .6.1 1.1.2 1.4zm-5.8 2.2c.1 0 0-.1.1-.2-3.7-.3-5.3-1.3-5.7-3.6h-53.3c-5 0-10.1 0-15.1-.1-1.9-.1-3.8 0-5.4 1.2-.1.1-.2.1-.3.1-3.4 1.6-6.8 3.3-10 5.3-.6.4-1.3.7-1.9 1 .2.1.4.2.6.1 11.5 0 22.9-.1 34.4 0 1.5 0 2-.9 3-1.8h-.7c-1.2 0-2.3 0-3.5 0-1.2.1-2.4.1-3.6.1-1.1-.1-2 .4-3.1.1-1.1-.1-2.2-.2-3.3-.1-.3 0-.5-.1-.8-.2 1.3-.2 2.5-.3 3.8-.4.7 0 1.5-.1 2.1-.4 1-.8 1.9-1.7 2.7-2.6-3.1 0-6 .3-8.9-.4h2c1.5 0 3 0 4.4-.2 1.8-.2 3.7.3 5.1-1.3h.2c-.3.4-.6.7-.9 1.1h8.4c1.1.1 2.3-.3 3.1-1.2l.2.1c-.2.3-.3.6-.5 1h2.1c2.1 0 4.2.1 6.4.1 1.6 0 3.4.4 4.8-.8 0 0 .1 0 .1.1l-.7.8h.4c3.4.1 6.8.1 10.3.2.3 0 .5-.1.8-.3.6-.4 1.2-.9 1.7-1.3l.2.2-1.4 1.5h.7c2.5.1 4.9.2 7.4.3.7 0 1.5.2 2.1-.5l-.2.6 1.9.1c0 .1 0 .2.1.3-2.6-.6-3.9 1.1-5.5 2.7l3 .2v.2c-1.7 0-3.4.3-5.1.2-2.8-.1-5.7-.2-8.5-.3-.4 0-.7.2-1 .4-.5.3-1.1.7-1.6 1l-.1-.2c.3-.4.6-.7.9-1.1 0-.1 0-.2 0-.3-3.6 0-7.2 0-10.8 0-.3 0-.5.2-.8.3-.8.4-1.5.9-2.3 1.3-.1-.1-.1-.2-.2-.3l1.8-1.4h-.8c-3.2 0-6.4.1-9.5-.1-1.6-.1-2.5.8-3.6 1.8h25.4 21.5c.8 0 1.5-.2 2.2-.6 1.6-.4 3.4-1.6 5.2-2.7zm-13.9-.7c-.3-.1-.6-.1-.9-.1-2.8 0-5.6 0-8.4-.1-.2 0-.3 0-.4.1-.8.7-1.5 1.4-2.4 2.2l4.2.2c1.1 0 2.1.1 3.2.1.6.1 1.2.1 1.8-.1.9-.7 1.9-1.5 2.9-2.3zm-10.5-.2c-.1 0-.2-.1-.3-.1-3.4-.1-6.7-.1-10.1-.1-.4 0-.8.1-1.1.4-.8.6-1.6 1.3-2.3 2v.3h10.7c.1 0 .3 0 .4-.1zm-15 2.1c1-.7 2-1.5 3.1-2.4-1.8-.1-3.4-.2-4.9-.2-1.7 0-3.4 0-5.2 0-.9-.1-1.8.2-2.5.8-.7.7-1.6 1.2-2.4 1.9h11.5c.1.1.3 0 .4-.1zm-9.8-2.3c-.1-.1-.2-.1-.2-.1-3.1 0-6.2 0-9.2 0-.2 0-.4 0-.6.1-.9.8-1.7 1.7-2.5 2.6.1 0 .1.1.2.1l8.8-.2c.1 0 .3 0 .4-.1.9-.8 2-1.6 3.1-2.4z" fill="#000"/><path d="m226.3 157.1c.6-.3 1.3-.5 2.1-.8-1.3 1.8-2.4 3.5-3.6 5.2-.4.5-.7 1.1-.9 1.7l-.1.3c-.3.6-.8 1-1.4 1.1s-1.1.3-1.8.5c.7-1 1.2-1.9 1.9-2.8 1-1.1 1.8-2.4 2.3-3.8.2-.7.8-1.2 1.5-1.4z" fill="#3caa49"/><path d="m225.6 55.3c.1 2.2 0 4.4 0 6.6 0 .4-.1.8-.1 1.2h-3.2v-8.9c0-1.1 0-1.2 1.1-1.2 2.4.2 2-.2 2.2 2.3zm-.7 7.2v-8.8l-2-.2v9z" fill="#000"/><path d="m224.9 53.7v8.8h-2v-9z" fill="#39a9e0"/><path d="m223.8 158.4-1.7 2.5c-.9 1.3-1.7 2.5-2.5 3.8-.3.5-.7.9-1.3 1.1-1 .3-2 .5-3.1.8.8-.9 1.5-1.8 2.2-2.5 1.1-1.2 2.1-2.7 2.8-4.2.1-.3.3-.5.5-.6 1-.5 2.1-.8 3.1-.9z" fill="#3caa49"/><path d="m222.6 137.2c0 .1 0 .2-.1.2-1.8 1.1-3.6 2.2-5.5 3.3-.7.4-1.4.6-2.2.6-7.2 0-14.3 0-21.5 0v-.2c.5-.3 1-.7 1.6-1 .3-.2.6-.3 1-.4 2.8.1 5.7.2 8.5.3 1.7.1 3.4-.2 5.1-.2 0-.1 0-.2 0-.2l-3-.2c1.5-1.6 2.9-3.4 5.5-2.7 0-.1-.1-.2-.1-.3l-1.9-.1.2-.6c-.6.8-1.4.6-2.1.5-2.5-.1-4.9-.2-7.4-.3h-.7l1.4-1.5-.2-.2v-.3h15.5c.6 2 2.2 3 5.9 3.3z" fill="#b3b3b3"/><path d="m219 159.9c-.6.9-1.1 1.7-1.7 2.5-1.2 1.1-2 2.6-2.5 4.1v.1c0 .2-.3.4-.5.4-1.1.3-2.2.6-3.4.9l-.5.1-1.4.3-.2-.7c1.9-1.5 3.6-3.3 5-5.3.6-1.2 1.8-1.9 3.2-2 .8 0 1.4-.2 2-.4z" fill="#3caa49"/><path d="m218.1 131.5c-.2.3-.5.7-.8 1.1h-71c0-.6.1-1.3.3-1.9.5-.9.9-1.8 1.2-2.8.5-1.8.8-3.6 1-5.4.3-2.5.6-5 1-7.5.5-3 1.1-6 1.6-9 .8-4.8 1.5-9.7 2.2-14.5.5-3.3 1.2-6.5 1.8-9.8.3-1.6.9-3.1.6-4.7h42v.7c-.2 0-.4.1-.6.2.1.2.2.2.2.3.1.3.2.5.2.8 0 .2-.5.3-.6.3s-.3-.4-.4-.6-.2-.6-.4-1c-.5.9-.4 1.7 0 2.1.3.2.6.3 1 .3v.3h-36.1c-.5 0-.9.1-1.4.2v.4c.2 0 .5.1.7.2l-.1.5c-.1.1-.2.3-.3.5-.4 1-.8 2.1-1.1 3.1-.6 2.6-1.2 5.2-1.7 7.9-.4 2.2-.7 4.4-1.1 6.5-.3 1.9-.8 3.8-1.1 5.7-.6 3.4-1.1 6.8-1.6 10.2-.6 3.8-1 7.7-1.5 11.5-.1.8.1 1.1 1 1.2 1.1.1 2.2.1 3.3.1h56.4c.8 0 1.2.1 1.5.8.2.3.5.6.9.8.8.5 1.9 1 2.9 1.5z" fill="#878787"/><path d="m216.3 141.7c.1 1.3.4 3.1.4 4.2s-.2 2.3-.3 3.4h-.6c-28.8-.3-57.4-.2-85.9-.1-.3-2.4-.6-4.8-.9-7.1h4.3c26.8 0 53.6 0 80.4.1.8-.1 1.7-.2 2.6-.5zm-14.1 5.3c.5-.9.2-2-.7-2.5-.3-.2-.6-.2-.9-.2h-.2c-1.3-.1-2.6-.1-3.9-.1-7.5 0-14.9 0-22.4 0-7.1 0-14.1 0-21.2 0-2.1 0-4.1.1-6.2.2-.3 0-.8.1-.9.3s-.1.3-.2.4c-.2.5-.3.9-.2 1.4.1.6 1.3 1.1 2 1 .4-.1.8-.1 1.2-.1 3.3 0 6.7.1 10 .1h27.9c5 0 9.9.1 14.9.1.4-.2.6-.3.8-.6z" fill="#9c9c9b"/><path d="m215.8 149.3v.6h-.1c-5.1.1-10.2.2-15.3.2-21 0-42 .1-63 .1-2.3 0-4.6-.1-6.9-.1-1.7 0-2-.4-2-2.3 0-.6 0-1.2 0-2.1l-.3-.5.1-.1c-.1-.9-.1-1.9-.2-3h.6c.3 2.3.6 4.7.9 7.1 28.8-.1 57.4-.2 86.2.1z" fill="#000"/><path d="m213.1 161.2h.3c-1.3 2.2-3.6 3.7-4.5 6.4l.2.7c-2.9.7-5.7 1.5-8.6 2.1-3.5.8-7 1.4-10.5 2-2.9.5-5.8.8-8.7 1.2s-5.8.9-8.8 1.2c-2.5.3-5 .5-7.6.8-1.5.2-3 .5-4.5.6-2.1.2-4.1.3-6.2.5l-9.2.6c-1.6.1-3.3.2-4.9.3-3.6.2-7.1.4-10.7.5-2.2.1-4.4.1-6.6.1v-.7c.5-.8 1-1.5 1.4-2.3.4-.9.6-1.9 1-2.8.1-.2.3-.5.5-.5 2.2-.1 4.3-.2 6.5-.4.2 0 .4 0 .7.1l-1.6 4.1.4.1c1.4-1 2.1-2.7 2-4.4l2.2-.1c-.4 1.3-.9 2.5-1.3 3.7l.3.1c.9-1.1 1.5-2.4 1.5-3.9 1.1-.1 2.1-.2 3.2-.3 4.8-.3 9.5-.6 14.3-1 3.2-.2 6.5-.5 9.7-.8s6.6-.8 9.9-1.2c2.9-.4 5.9-.6 8.8-1.1 4.1-.6 8.3-1.2 12.4-1.9 3.7-.6 7.3-1.4 11-2.1 2.5-.3 4.9-1 7.4-1.6zm-3.7 1.1c-.5.1-1 .4-1.4.8-1.3 1.7-2.5 3.4-3.7 5.2 2.2-1.5 4-3.6 5.1-6zm-80.3 11.8c.3-.7.5-1.4.7-2.1-.4.1-.6.1-.6.1-.6 1.1-1.1 2.1-1.6 3.2 0 .1.1.4.2.4.2 0 .3 0 .5-.1.3-.5.6-1 .8-1.5z" fill="#3caa49"/><g fill="#000"><path d="m208.9 42c1.5 1.6 2.4 3.8 2.3 6-.1 1.4-.1 2.8-.1 4.3 0 .2-.1.5-.2.7-.2.2-.3.3-.6.5-.1-.1-.2-.3-.2-.4s-.1-.2-.1-.2c0-1.7.1-3.3.2-5 0-1.9-.7-3.8-2.1-5.1-.9-.9-2.2-1.4-3.4-1.2-1 0-2 .4-2.8 1.1-.3.2-.5.3-.8.4.3-2.8-.9-5-2.6-7-.2-.3-.6-.5-.8-.8-1.3-1.6-3.3-2.5-5.4-2.5-2.1-.2-4.3.1-6.2 1-2.8 1.3-4.9 3.8-5.6 6.9-.3 1.2-.7 2.5-1 3.7v.2l-.8-.1c.3-1.5.6-3 1-4.4.5-1.7 1.3-3.3 2.5-4.6 1.7-1.9 4-3.1 6.5-3.5 2.6-.5 5.2-.2 7.6.9.2.1.4.2.6.3 2.5 2.1 4.6 4.5 5.2 7.9 0 .1.1.1.1.2.9-.2 1.9-.4 2.9-.5 1.3-.4 2.8.1 3.8 1.2z"/><path d="m209.3 53.4c.4 0 .7.2.8.5-.5.2-1 .3-1.5.4-9.3 0-18.6 0-27.9-.1-3.5 0-7-.1-10.5-.1-.3 0-.6-.1-.8-.2l.1-.2h.9c5.9-.1 11.8-.2 17.8-.2 6.8 0 13.7-.1 20.5-.1.1.1.4 0 .6 0z"/><path d="m208.1 163.1c.4-.4.8-.7 1.4-.8-1.1 2.4-2.9 4.5-5.1 6 1.2-1.7 2.4-3.5 3.7-5.2z"/></g><path d="m207.7 136.6c.3 0 .6.1.9.1-1 .9-2 1.7-3 2.4-.6.2-1.2.2-1.8.1-1.1 0-2.1-.1-3.2-.1l-4.2-.2c.9-.8 1.6-1.5 2.4-2.2.1-.1.3-.1.4-.1 2.9-.1 5.7-.1 8.5 0z" fill="#b3b3b3"/><path d="m202.7 109.4.2.1c-.3.4-.5 1-.8 1.1-.5 0-1-.1-1.3-.5s-.5-.8-.6-1.3c-.6-2.8-2.4-5.2-4.8-6.7-2.5-1.3-5.5-1.7-8.2-1-3.8.8-7.1 3.2-9.1 6.6-.3.6-1 .8-1.6.6s-.7-.7-.6-1.3c.1-1.6.8-3.2 2-4.3 2-2.2 4.2-4.2 7.2-5 2.5-.5 5.2-.5 7.7 0 3.8.7 7 3 8.9 6.4.7 1.1 1 2.4 1 3.7-.1.7 0 1.2 0 1.6zm-.9 0c0-.2 0-.4 0-.6 0-2.7-1.3-5.3-3.5-7-1.3-1-2.6-2.3-4.3-2.6-1.8-.4-3.6-.6-5.5-.7-2-.1-4.1.4-5.8 1.4-1.8 1.2-3.4 2.6-4.8 4.3-.7.8-1.1 1.9-1.2 2.9 0 .2.2.4.3.6.2-.1.4-.2.6-.3.7-1.1 1.4-2.1 2.2-3 2.8-2.8 6.6-4.2 10.5-4.1 2 0 3.9.5 5.6 1.5 2.2 1.3 3.9 3.4 4.7 5.9.2.6.3 1.3.5 2 .1.2.4.3.5.4.2-.3.2-.5.2-.7z" fill="#000"/><path d="m200.5 144.3c1 0 1.9.8 1.9 1.8 0 .3-.1.6-.2.9-.2.3-.4.4-.7.5-5 0-9.9 0-14.9-.1-9.3 0-18.6 0-27.9 0-3.3 0-6.7-.1-10-.1-.4 0-.8 0-1.2.1-.7.1-1.9-.3-2-1 0-.5 0-1 .2-1.4l.4.1c-.1.3-.1.8 0 1 .3.3.7.5 1.1.6 1.3 0 2.5-.2 3.8-.2h50.3c.1-1-.3-1.5-1.1-1.6v-.6z" fill="#000"/><path d="m201.8 108.7c0 .2.1.4 0 .6 0 .2-.1.4-.2.6-.2-.1-.5-.3-.5-.4-.2-.7-.2-1.4-.5-2-.8-2.5-2.5-4.5-4.7-5.9-1.7-1-3.6-1.5-5.6-1.5-3.9-.1-7.7 1.4-10.5 4.1-.8.9-1.6 1.9-2.2 3-.1.2-.4.2-.6.3-.1-.2-.3-.4-.3-.6 0-1.1.5-2.1 1.2-2.9 1.4-1.7 3-3.1 4.8-4.3 1.7-1.1 3.8-1.6 5.8-1.4 1.8.1 3.7.4 5.5.7 1.7.3 3 1.6 4.3 2.6 2.1 1.8 3.4 4.4 3.5 7.1z" fill="#fbe908"/><path d="m200.3 145c.8.1 1.2.6 1.1 1.6h-50.3c-1.3 0-2.5.2-3.8.2-.4 0-.8-.2-1.1-.6-.2-.2-.1-.7 0-1 0-.1.4-.2.6-.2 6.8 0 13.6.1 20.4.2h29.4c1.2 0 2.4-.1 3.6-.1z" fill="#b3b3b3"/><path d="m201.4 133.6v.4c-.6.4-1.1.9-1.7 1.3-.2.2-.5.3-.8.3-3.4-.1-6.8-.1-10.3-.2h-.4l.7-.8-.1-.1v-.9z" fill="#b3b3b3"/><g fill="#000"><path d="m200.3 144.3v.6h-.2c-1.2 0-2.4.1-3.6.1-9.8 0-19.6 0-29.4 0-6.8 0-13.6-.1-20.4-.2-.2 0-.5.1-.6.2l-.4-.1c.1-.1.1-.3.2-.4s.6-.3.9-.3c2.1-.1 4.1-.2 6.2-.2h21.2 22.4c1.1.2 2.4.2 3.7.3z"/><path d="m198.8 78.3c.3.5.1 1.2-.4 1.6-.3.2-.6.3-1 .3s-.7-.1-1-.3c-.5-.4-.5-1.2 0-2.1.2.4.2.7.4 1s.3.5.4.6.6-.1.6-.3c0-.3-.1-.6-.2-.8 0-.1-.1-.2-.2-.3.2-.1.4-.1.6-.2.4 0 .7.2.8.5z"/><path d="m197.7 45.8c.5 0 .8.1.6.8-.3.9-.4 1.8-.6 2.7-.2.4-.4.8-.6 1.1-.3-.2-.7-.4-1-.6s-.5-.4-.8-.7c-2.7 1.8-6.3 1.6-8.9-.3-.5-.4-1.2-.8-.8-1.7.2.4.5.7.8 1 2 1.6 4.6 2 6.9 1.1 1.3-.5 2.5-1 3.5.7.2-1.3.4-2.3.6-3.5l-2 .2c.3.8.2 1.2-.7 1.4-1.2.3-2.5.5-3.7.5-1.2.1-2.4-.5-3.2-1.4-.4-.6-.7-.4-1.2-.2-.3.1-.7.2-1 .3.1-.2.3-.4.4-.6.8-.9 1.5-.9 2.3 0 .2.3.5.5.8.7 1.8.8 3.8.8 5.6 0 0-.1.1-.2.1-.2-.4-1.2-.4-1.2.9-1.2.7-.1 1.4-.1 2-.1z"/><path d="m198.2 109.8c.2.7-.2 1.4-.8 1.6-.8.3-1.7-.1-2-.8-.5-1.1-1-2.1-1.7-3.1-1.8-1.9-4.5-2.5-6.9-1.5-1.6.7-2.8 1.9-3.6 3.4-.2.6-.8 1-1.5 1-.5 0-1-.4-1-.9v-.1c-.1-1.2.3-2.4 1.1-3.4 1.7-2.5 4.6-3.9 7.6-3.7 2.5.1 4.8.7 6.6 2.6 1.1 1.3 1.9 3 2.2 4.9zm-1.4.7c.2 0 .5-.3.5-.5-.1-.7-.2-1.4-.4-2-.4-1.4-1.2-2.6-2.4-3.5-2.4-1.6-5.5-2-8.3-1-2.1.8-3.8 2.4-4.7 4.5-.4.8 0 1.4.8 1.5.2-.5.4-1 .6-1.5.3-.5.6-1 1-1.4 2.4-2.4 6-2.9 8.9-1.2 1.8.9 3 2.7 3.3 4.7.1.2.5.4.7.4z"/></g><path d="m197.8 136.4c.1 0 .2.1.3.1-1 .8-1.9 1.6-2.8 2.4-.1.1-.2.1-.4.1h-10.7c0-.1 0-.2 0-.3.8-.7 1.5-1.4 2.3-2 .3-.2.7-.4 1.1-.4 3.5-.1 6.8 0 10.2.1z" fill="#b3b3b3"/><path d="m197.3 110.1c0 .2-.3.5-.5.5s-.6-.2-.6-.4c-.3-2-1.5-3.7-3.3-4.7-2.9-1.7-6.6-1.2-8.9 1.2-.4.4-.7.9-1 1.4-.2.5-.4 1-.6 1.5-.8-.1-1.2-.7-.8-1.5.9-2.1 2.6-3.7 4.7-4.5 2.8-1 5.8-.6 8.3 1 1.1.9 2 2.1 2.4 3.5.1.6.2 1.3.3 2z" fill="#fbe908"/><path d="m197.3 42.5c0 .3-.1.6-.2.9l-.2-.1c-.3-.8-.5-1.5-.9-2.2-1.4-3.1-5.5-2.9-7.4-1.4-1 .7-1.8 1.6-2.3 2.8-.1.2-.6.2-1 .4.2.7.4 1.4.6 2.2l2.2-1.5-.2-.2c-.4-.3-.7-.6-.8-.9h.3l1.7 1.2-3.5 2.4c-.4-1.3-.8-2.5-1.2-3.9 1.3.4 1.6-.5 2.2-1.3 2-2.7 4.8-3.7 8-2.1 1.5.7 2.5 2.1 2.7 3.7z" fill="#000"/><path d="m197 43.7.5.1c-.6.6-1.6.7-2.4.3 0-.3 0-.7-.1-1-.8-2-3.2-3-5.2-2.2-.3.1-.6.3-.8.5l-1.5 1.1h-.3c-.1-.3.1-.7.6-1.1 2.6-2.6 6.2-1.9 7.6.9.2.4.3.9.4 1.4z" fill="#000"/><path d="m197.1 43.4v.2l-1.2-.1c-.1-.5-.2-.9-.4-1.4-1.5-2.7-5-3.4-7.6-.9-.5.5-.7.8-.6 1.1s.3.6.8.9l.2.2-2.2 1.5c-.2-.8-.4-1.5-.6-2.2.4-.1.9-.2 1-.4.5-1.1 1.3-2.1 2.3-2.8 1.8-1.5 5.9-1.8 7.4 1.4.3.7.6 1.5.9 2.2z" fill="#39a9e0"/><path d="m197.5 46.4c-.2 1.1-.4 2.2-.6 3.5-1-1.6-2.2-1.1-3.5-.7-2.3.9-5 .5-6.9-1.1-.3-.3-.6-.6-.8-1 .3-.1.7-.2 1-.3.5-.2.8-.4 1.2.2.8 1 2 1.5 3.3 1.5s2.5-.2 3.7-.5c1-.2 1-.5.7-1.4z" fill="#39a9e0"/><path d="m194.1 139.5v.3c-.3.4-.6.7-.9 1.1l.1.2v.2h-13v-.1c.8-.4 1.5-.9 2.3-1.3.2-.2.5-.3.8-.3 3.5-.1 7.1-.1 10.7-.1z" fill="#b3b3b3"/><path d="m192.4 111.3c0 1.6-1.3 2.8-2.9 2.7h-.1c-1.4.2-2.7-.9-2.8-2.3 0-.2 0-.4 0-.5-.1-1.6 1.1-2.9 2.7-3.1 1.7.2 3 1.6 3.1 3.2zm-1.4 0c-.1-.9-.8-1.7-1.8-1.7-1.2 0-1.8.5-1.8 1.3 0 1.3.5 1.9 1.8 1.9.9.1 1.7-.6 1.8-1.5z" fill="#000"/><path d="m189.3 109.6c.9 0 1.7.8 1.8 1.7-.1.9-.9 1.6-1.8 1.5-1.3 0-1.8-.5-1.8-1.9-.1-.8.6-1.3 1.8-1.3z" fill="#fbe908"/><path d="m188.8 133.6v.9c-1.4 1.3-3.2.8-4.8.8-2.1 0-4.2-.1-6.4-.1-.7 0-1.3 0-2.1 0 .2-.4.4-.7.5-1l-.2-.1v-.6z" fill="#b3b3b3"/><path d="m186.2 136.2c-1.1.9-2.1 1.7-3.1 2.4-.1.1-.3.1-.4.1h-11.5c.9-.7 1.7-1.2 2.4-1.9.7-.6 1.6-.9 2.5-.8 1.7.1 3.4 0 5.2 0 1.6.1 3.1.2 4.9.2z" fill="#b3b3b3"/><path d="m184.5 38.8-1.2 2.2c-.3-.9.2-1.9 1.2-2.2-.1 0 0 0 0 0z" fill="#000"/><path d="m183.4 38.3c-.4 1.1-.8 2.2-1.3 3.5-.6-1.5.2-3.3 1.3-3.5z" fill="#000"/><path d="m181.1 139.5h.8l-1.8 1.4c0 .1.1.2.2.3v.1h-12.3c1.1-1 2-1.9 3.6-1.8 3.2.2 6.3 0 9.5 0z" fill="#b3b3b3"/><path d="m178.6 44.2.8.1c-.2.5 0 1.2.5 1.5-.5.6-1.1.3-1.6.2-1-.2-2-.3-3.1-.3-1.8.1-3 1.3-4 2.6-1.2 1.6-1.8 3.5-1.8 5.5l-.1.2c-.7-.4-1-1.2-.8-2 .2-1.5.7-2.9 1.5-4.1 1.5-2 3.3-3.5 6-3.4.8.1 1.6.2 2.4.4.1-.3.1-.5.2-.7z" fill="#000"/><g fill="#b3b3b3"><path d="m175.9 133.6v.6c-.8.8-1.9 1.3-3.1 1.2-2.8 0-5.5 0-8.4 0 .3-.4.6-.7.9-1.1-.1 0-.1 0-.2 0v-.6z"/><path d="m173.1 136.2s.1 0 .2.1c-1.1.8-2.1 1.6-3.2 2.3-.1.1-.2.1-.4.1l-8.7.3c-.1 0-.1 0-.2-.1.8-.9 1.6-1.7 2.5-2.6.2-.1.4-.2.6-.1z"/><path d="m168.2 139.5h.7c-1 .9-1.5 1.8-3 1.8-11.5-.1-22.9 0-34.4 0-.2 0-.4 0-.6-.1.6-.3 1.3-.6 1.9-1 3.2-2 6.6-3.7 10-5.3.1 0 .2-.1.3-.1 1.6-1.3 3.4-1.3 5.4-1.2 5 .1 10.1.1 15.1.1h1.5v.6c-1.4 1.6-3.4 1.1-5.1 1.3-1.5.1-3 .1-4.4.2-.7 0-1.3 0-2 0 2.9.7 5.9.5 8.9.4-.8.9-1.7 1.8-2.7 2.6-.7.3-1.4.4-2.1.4-1.3.1-2.5.2-3.8.4.3.1.5.1.8.2 1.1-.1 2.2 0 3.3.1 1.1.2 2.1-.3 3.1-.1 1.2 0 2.4 0 3.6-.1 1.2-.2 2.3-.2 3.5-.2zm-17.6-1.8c.3-.7.1-1-.6-1-.5 0-1-.1-1.4-.2l1-1.1c0-.1-.1-.2-.1-.2h-2.8v-.6c.3-.2.5-.4.7-.6l-9.1 4.3h.2l.1 1.1c-.2 0-.5.1-.8.1.2.2.5.3.8.4h10.3c.2 0 .4-.1.5-.2.5-.7.9-1.3 1.2-2z"/></g><path d="m162.1 73.9c-.1.7-.2 1.4-.3 2.1h-.4c-.2-.4-.3-.9-.4-1.4 0-.1 0-.2 0-.4 0-.8 0-1.7-.1-2.5 0-.3-.1-.5-.2-.8.1-.1.2-.3.2-.4 0-1.5 0-3.1 0-4.6 0-.2-.1-.5-.3-.7.1-.2.2-.4.3-.7 0-1.5 0-2.9 0-4.3v-.6c0-.8 0-1.6-.1-2.4v-.2c.1-1.3.1-2.7.1-4 0-.1-.2-.3-.3-.4l.3-.3c.1-.5.3-1 .4-1.6h.3c.1.4.2.8.2 1.2.2 7.3.3 14.6.3 22z" fill="#1d1d1b"/><g fill="#a7c6c4"><path d="m161.4 76v.5h-5.6l-.9 3.6v-10.3c2 1.4 3.4 3.4 5.6 4.4h.6v.4c0 .5.1 1 .3 1.4z"/><path d="m160.7 52.6c.1.1.3.3.3.4 0 1.3-.1 2.6-.1 4h-.2c-1-1.2-2-2.3-3-3.5-.6-.9-1.3-1.7-2.1-2.4-.8-.6-1.2-1.5-1-2.5 0-.7 0-1.4 0-2.3 1 1 1.9 1.8 2.8 2.7 1.1 1.3 2.2 2.4 3.3 3.6z"/><path d="m161 74.3h-.6c-1.2-1.8-2.8-3.3-4.6-4.5-.8-.4-1.2-1.2-1.1-2 .1-1 0-2.1 0-3.3l.5.6c1.8 2 3.6 3.9 5.4 5.9.1.3.2.5.2.8.2.8.2 1.6.2 2.5z"/><path d="m161 60.2v4.3c0 .2-.1.5-.3.7-1-1.2-1.9-2.3-2.9-3.4s-1.8-2-2.7-3.1c-.1-.1-.2-.3-.2-.5 0-1.1 0-2.2 0-3.3l5.3 5.5.2-.2z"/><path d="m161 59.6v.6h-.6c-.3-.5-.7-1.1-1.1-1.6-1.3-1.4-2.6-2.8-4-4.2-.4-.4-.6-1-.6-1.6 0-.5 0-1.1 0-1.8.4.5.7.9 1 1.3 1.2 1.7 2.7 3.2 4.4 4.4.2.1.4.2.6.2h.2v.2c0 .9 0 1.7.1 2.5z"/><path d="m160.9 65.9v4.6c0 .1-.1.3-.2.4-.5-1.6-1.8-2.7-2.8-3.9-.8-1-1.8-1.9-2.6-2.9-.3-.3-.4-.7-.4-1.1-.1-1.1 0-2.2 0-3.3 1.2 1.3 2.4 2.6 3.6 3.8.7.6 1.5 1.2 2.3 1.8 0 .1.1.4.1.6z"/></g><path d="m153.7 153.1c.7.3 1.1 1 1 1.7 0 .3 0 .7-.1 1-.1.2-.3.3-.4.5-.1-.1-.3-.3-.4-.4 0-.3-.1-.6-.1-.9-.2-.3-.4-.6-.7-.8-.1-.1-.6.3-.8.5-.7.9-1.4 1-1.9.3.8-.9.8-1.2.2-1.7-.1-.1-.3-.2-.5-.1-.8.3-1.5 1-1.7 1.8-.1.4-.3.7-.4 1.1-.3-.6-.7-1.1-1.2-1.6-.4-.2-.9-.4-1.4-.4-.7-.1-.7.4-.8.9-.2.7-.6 1.4-.1 2.1.1.1-.1.4-.2.8-.8-1.2-.9-2.8-.1-4l.2-.2c1-.1 2.1-.7 2.9.4.5-.4 1.1-.9 1.6-1.3 1-.8 1.8-.6 2.8.4.1.1.1.2.3.4.5-1.1 1.2-.8 1.8-.5z" fill="#000"/><path d="m154.6 81.3c-.2 1.2-.3 2.3-.5 3.4-.5 2.9-1.1 5.7-1.5 8.6-.7 4.2-1.3 8.4-2 12.6-.6 3.7-1.2 7.4-1.7 11.1-.4 3-.7 6-1.1 9-.1.6-.2 1.3-.3 1.9-.1.4-.3.7-.5 1-.8 1-1.5 2.1-1.1 3.5l-8.7 4.3v-.8c0-6.8-.1-13.6-.2-20.4 0-.6.1-1 .7-1.2.3-.1.7-.3.3-.8-.2-.6-.5-1.1-.9-1.6-1.4-1.7-2.9-3.3-4.4-5s-3.1-3.5-4.7-5.2c-1.3-1.3-2.6-2.5-4-3.6-.4-.3-.7-.9-.6-1.4 0-8.1 0-16.2 0-24.2 0-.2 0-.5 0-.7l3.2-.3c-.9-1.2-2.1-1-3.2-1.1 0-2 0-3.8 0-5.7 0-.2.3-.5.5-.7s.7-.6 1-.9l-.1-.1-1.4.1c-.1-5.8.1-11.5-.3-17.2h.5c5 .4 10.1.3 15.2.3h15.3c0 .1.1.1.1.1 0 6.3-.1 12.5-.1 18.8 0 5.1 0 10.2.1 15.3.1.6.2 1.1.3 1.7zm-6.2 1.2c1.2-.2 1.9-.1 1.5-2 0-.2 0-.4 0-.6.1-.8.1-1.6 0-2.4-.4-2.5-.2-2.3-2.7-2.4-.7.1-1.5.2-2.2.2-.9 0-.9.4-.9 1.1 0 1.8-.1 3.5-.2 5.3 0 .7.3 1 .9 1 1.2 0 2.4 0 3.6-.2zm0-22.9c1.5-.2 1.6-.4 1.4-2 0-.2 0-.4 0-.5.1-.8.1-1.6 0-2.4-.4-2.5-.2-2.4-2.7-2.4-.8.1-1.5.2-2.3.2s-.8.4-.9 1c0 1.8-.1 3.6-.2 5.4 0 .7.3 1 .9 1 1.4-.1 2.6-.1 3.8-.3zm-.2 11.5c1.4-.2 1.6-.4 1.4-2 0-.2 0-.4 0-.6.1-.8.1-1.6 0-2.4-.4-2.5-.2-2.4-2.7-2.4-.7.1-1.5.2-2.2.2-.8 0-.9.4-.9 1.1 0 1.8-.1 3.5-.2 5.3 0 .6.2 1 .8 1 1.2-.1 2.5-.1 3.8-.2zm-.2 22.9c1.6-.2 1.8-.4 1.6-2 0-.1 0-.3 0-.4-.1-1.2-.1-2.5-.2-3.8-.1-.9-.4-1.2-1.4-1.1-1.2 0-2.3.2-3.5.2-.7 0-.8.4-.8.9 0 1.4 0 2.9-.1 4.3-.1 2.1-.1 2.1 2 2.1.8 0 1.6-.1 2.4-.2zm-7.4-12.4c0-.4 0-.8 0-1.2-.1-1.5-.2-3-.3-4.5-.1-.3-.4-.5-.6-.5-.6-.1-1.2-.1-1.7 0-1 .1-2 .2-3.1.3v6.4c0 .5.1.8.7.8h3.3c.3 0 .6-.1.9-.2v-.2l-.2-.1h.4l.3.1c.2-.4.3-.6.3-.9zm0-22.7s0-.1 0-.2c-.1-1.9-.2-3.8-.3-5.8-.1-.3-.3-.5-.6-.6-.6 0-1.2 0-1.8.1-1 .1-2 .2-2.8.3v3.7c0 1-.1 1.9-.2 2.9 0 .5.1.7.6.7h3.6c.3 0 .5-.1.8-.2-.1-.1-.3-.2-.5-.2l.6-.1.2.1zm-.3 34.1c0-.4 0-.8 0-1.2-.1-1.5-.2-3-.3-4.5-.1-.3-.3-.5-.6-.6-.6 0-1.2 0-1.8.1l-3 .3c.1 1.2.2 2.2.2 3.2s-.1 2.2-.2 3.3c0 .5.1.7.6.7h3.6c.3 0 .5-.1.8-.2-.1-.1-.3-.2-.5-.2h.6l.3.1c.1-.3.2-.6.3-1zm-.4-22.1c.1-.2.4-.5.4-.7 0-1.8-.1-3.6-.2-5.5 0-.7-.3-1.1-1.1-.8-.4 0-.9 0-1.3 0-1 .1-2 .2-3.1.3v6.4c0 .6.1.8.7.8h3.3c.3 0 .7-.1 1-.2 0-.1 0-.2 0-.3h.2zm-8.4-10.3c.2-.1.3-.3.4-.5 0-1.5-.1-2.9-.2-4.3-.1-.8-.2-1.6-.4-2.3h-.2l-.9-.1c.2 0 .5-.1.7-.2-1.2-.9-2.6-.1-4-.3v6.3.1l.4.4.3.6c1.2.3 2.5.4 3.9.3zm.4 22.4c0-1.5-.1-2.9-.2-4.4-.1-.8-.2-1.5-.4-2.3l-1-.1c.2 0 .4-.1.5-.1-1.2-.9-2.6-.1-4-.4v6.3c0 .2.2.3.4.5l.3.6c1.3.2 2.5.3 3.8.4.3-.1.5-.3.6-.5zm-.9-10.9c.4 0 .7-.2.6-.7-.1-1.4-.1-2.7-.2-4.1-.1-.8-.3-1.6-.4-2.4h-.3l-.2-.1v-.3c-1.2-.8-2.6.1-3.9-.2-.1.4-.1.8-.1 1.2v4.4c.1.4.2.8.4 1.2l.6.3c-.1 0-.2.1-.3.1v.3c1.2.1 2.5.2 3.8.3zm0 22.9c.4 0 .7-.2.6-.7-.1-1.4-.1-2.7-.2-4.1-.1-.8-.3-1.6-.4-2.4h-.3l-.1-.1c0-.1 0-.2 0-.3-1.3-.7-2.6.1-4-.1v6.2c0 .2.3.4.4.6l.4.5-.2.1c1.2.1 2.5.2 3.8.3z" fill="#c0e2e0"/><path d="m153.7 13.1c.1.5 0 1-.2 1.5-.2.6-.6.5-1.2.2-1.2-.5-1.4-1.5-1.8-2.5-.6-1.5-1.5-2.8-2.7-3.8-1.6-1.6-3.5-2.9-5.6-3.9-4.1-1.8-8.1-1.3-11.9.9-2.4 1.4-4.1 3.7-4.9 6.4-.2.7-.3 1.4-.4 2.2 0 .6-.5 1-1 .9-.2 0-.4-.1-.6-.2-.8-.4-1.3-1.3-1.3-2.2-.1-1.7.4-3.4 1.4-4.8 1.6-2.9 4.2-5.1 7.3-6.3 1.7-.6 3.4-1 5.1-1.5h3.5c1.2.4 2.5.6 3.6 1.1 3.6 1.4 6.6 3.5 8.4 7 1 1.6 1.7 3.3 2.3 5zm-.7 1.1c.1-.4.1-.9 0-1.3-.7-1.6-1.4-3.2-2.1-4.8-.4-.8-1-1.6-1.6-2.2-1.4-1.5-3.2-2.8-5.1-3.6-2.2-1.1-4.7-1.7-7.1-1.5-3.2.2-6.3 1.3-8.9 3.1s-4.5 4.5-5.2 7.6c-.3.9 0 2 .7 2.6.2.2.5.2.8.2.1 0 .2-.4.2-.7 0-.6 0-1.2.1-1.7.9-3.4 3.2-6.2 6.4-7.6 4.3-2 8.6-2.2 12.9.3 1.3.8 2.6 1.7 3.8 2.8 1.7 1.2 3 3 3.7 5-.1.8.5 1.5 1.4 1.8z" fill="#000"/><path d="m153 12.9c.1.4.1.9 0 1.3-.9-.3-1.5-1.1-1.7-2-.7-2-2-3.79998-3.7-4.99998-1.2-1-2.4-1.9-3.8-2.8-4.2-2.5-8.6-2.3-12.8-.3-3.1 1.5-5.4 4.3-6.3 7.59998-.1.6-.1 1.2-.1 1.7 0 .2-.1.6-.2.7-.3 0-.6 0-.8-.2-.7-.7-1-1.7-.7-2.6.7-3.09997 2.6-5.79998 5.2-7.59998s5.7-2.899996 8.9-3.099996c2.5-.1 4.9.399996 7.1 1.499996 1.9.8 3.6 2.1 5.1 3.6.6.7 1.2 1.4 1.6 2.2.8 1.8 1.5 3.39998 2.2 4.99998z" fill="#fbe908"/><g fill="#000"><path d="m150 136.7c.7.1 1 .4.6 1-.3.7-.7 1.3-1.1 1.9-.1.2-.3.2-.5.2-3.4 0-6.9 0-10.3 0-.3 0-.6-.1-.8-.4.2 0 .5-.1.8-.1h.3 10.1c.3-.7.6-1.3.9-2.1l-3.4-.2c0-.1 0-.2 0-.3l1.6-1.1-1.6-.5c0-.1 0-.1 0-.2h2.9c0 .1 0 .2.1.2l-1 1.1c.4.3.9.4 1.4.5z"/><path d="m149.9 80.6c.4 1.9-.3 1.8-1.5 2-1.2.1-2.4.2-3.6.2-.6 0-1-.3-.9-1 .1-1.8.1-3.5.2-5.3 0-.6.1-1.1.9-1.1.7 0 1.5-.1 2.2-.2 2.6 0 2.3-.1 2.7 2.4.1.8.1 1.6 0 2.4-.1.2 0 .4 0 .6zm-.7 1c0-.6 0-1.1-.1-1.6-.1-1.2-.1-2.3-.2-3.5-.1-.3-.4-.5-.6-.6-1.3-.1-2.5 0-3.6 0 .1 2 .2 4 .3 6z"/><path d="m149.9 57.7c.2 1.5.1 1.8-1.4 2-1.2.2-2.5.2-3.7.2-.7 0-.9-.3-.9-1 .1-1.8.1-3.6.2-5.4 0-.6.1-1 .9-1s1.5-.1 2.3-.2c2.5 0 2.3-.1 2.7 2.4.1.8.1 1.6 0 2.4-.2.2-.1.4-.1.6zm-.7 1c0-.6-.1-1.1-.1-1.6-.1-1.2-.1-2.3-.2-3.5 0-.5-.3-.7-.8-.7-1.2 0-2.4 0-3.5 0 .1 2.1.2 4 .3 6z"/><path d="m149.6 69.1c.2 1.5.1 1.8-1.4 2-1.3.1-2.6.2-3.9.2-.6 0-.9-.4-.8-1 .1-1.8.2-3.5.2-5.3 0-.7.1-1.1.9-1.1.7 0 1.5-.1 2.2-.2 2.5 0 2.3-.1 2.7 2.4.1.8.1 1.6 0 2.4 0 .3 0 .4.1.6zm-.8 1c0-.6-.1-1.1-.1-1.5-.1-1.2-.1-2.3-.2-3.5 0-.6-.3-.7-.8-.7-1.2 0-2.4 0-3.5 0 .1 2 .2 4 .3 6z"/><path d="m149.6 92c.2 1.6 0 1.8-1.6 2-.8.1-1.6.1-2.4.2-2.1 0-2.1 0-2-2.1.1-1.4.1-2.9.1-4.3 0-.6.1-.9.8-.9 1.2 0 2.3-.1 3.5-.2.9 0 1.3.2 1.4 1.1.1 1.2.1 2.5.2 3.8 0 .1-.1.3 0 .4zm-.8 1c0-.6-.1-1.1-.1-1.6-.1-1.2-.1-2.3-.2-3.5-.1-.3-.4-.5-.7-.6-1.3-.1-2.5 0-3.6 0 .1 2.1.2 4 .3 6.1z"/></g><path d="m150 137.3c-.3.8-.6 1.4-.9 2.1h-10.1-.3l-.1-1.1c1.3 0 6.2-2.3 8.2-3.8v.6h-.1v.2l1.6.5-1.6 1.1v.3z" fill="#b3b3b3"/><path d="m149.1 79.9c0 .5 0 1 .1 1.6l-4.3.4c-.1-2.1-.2-4-.3-6h3.6c.3.1.5.3.6.6.2 1.1.2 2.3.3 3.4z" fill="#fef386"/><path d="m149.1 57.1c0 .5 0 1 .1 1.6l-4.3.4c-.1-2-.2-4-.3-6h3.5c.5 0 .8.2.8.7.1 1 .1 2.1.2 3.3z" fill="#fef386"/><path d="m148.9 14.8c-.1.6 0 1.2-.8 1.4-.8.3-1.6 0-2.1-.7-.8-2-2.5-3.2-4.2-4.3-1.4-.8-3.1-1.1-4.7-.8-1.9 0-3.7.7-5.2 1.8-1.2.9-2.1 2.2-2.6 3.7-.1.2-.5.6-.6.5-.4-.1-.8-.3-1.1-.6-.4-.9-.4-2 0-2.9.4-1.4 1.3-2.6 2.4-3.50002 3.4-2.9 8.2-3.6 12.3-1.7 2.4.9 4.5 2.60002 5.7 4.90002.5.7.7 1.4.9 2.2zm-1.1 1c.2-.1.4-.4.4-.5-.2-.9-.5-1.7-.9-2.6-1.4-2.1-3.4-3.70002-5.8-4.50002-3.4-1.3-7.3-.8-10.2 1.4-1.7 1.10002-2.8 3.00002-3 5.00002-.1.6 0 1.1.8 1.3.3-1.6 1.1-3 2.4-4 2.9-2.20002 6.2-2.50002 9.7-1.7 1.4 1.1 2.9 2.1 4.3 3.3.5.6.9 1.3 1.2 2 .2.3.7.5 1.1.3z" fill="#000"/><path d="m148.8 91.4c0 .5.1 1.1.1 1.6l-4.3.4c-.1-2-.2-4-.3-6.1h3.6c.3.1.5.3.7.6.1 1.2.1 2.3.2 3.5z" fill="#fef386"/><path d="m148.8 68.6c0 .5.1 1 .1 1.5l-4.3.4c-.1-2-.2-4-.3-6h3.5c.5 0 .8.1.8.7 0 1.1.1 2.2.2 3.4z" fill="#fef386"/><path d="m148.2 15.2c0 .1-.2.5-.4.5-.4.2-.9.1-1.1-.3 0 0 0 0 0-.1-.3-.7-.7-1.4-1.2-2-1.4-1.2-2.9-2.2-4.3-3.3-3.5-.79998-6.8-.49998-9.7 1.7-1.3 1-2.2 2.4-2.4 4-.8-.1-.9-.7-.8-1.3.2-2 1.3-3.9 3-4.99998 2.9-2.2 6.8-2.7 10.2-1.4 2.4.8 4.5 2.39998 5.8 4.49998.4 1 .7 1.8.9 2.7z" fill="#fbe908"/><path d="m147.4 134c-.2.2-.4.4-.7.6-1.9 1.4-6.9 3.8-8.2 3.8-.1 0-.1 0-.2 0z" fill="#000"/><path d="m146.8 45h-1c-.7-2.5-1.3-5-2-7.5s-1.4-5-2-7.4-1.7-4.8-2.3-7.2l.4-.1c1.2 3.7 2.4 7.3 3.6 11s2.2 7.4 3.3 11.2z" fill="#585856"/><path d="m144 15.8c.3.6.1 1.2-.4 1.6-.6.5-1 .1-1.5-.2-.8-.6-1.7-1.1-2.6-1.6-2.2-.8-4.6.2-5.6 2.4 0 .1-.1.2-.2.2-.9-.3-1.5-1.2-1.2-2.2.1-.2.2-.4.3-.6 1.2-2.2 3.2-3 5.4-3.4 2.4-.4 5.2 1.9 5.8 3.8zm-.7 1.1c0-.4-.1-.7-.1-1.1-.6-1.4-1.7-2.5-3.2-2.9-1.7-.6-5.2.6-6.3 2.3-.5.6-.6 1.5-.4 2.2.2-.4.5-.8.8-1.2 1.7-1.8 4.3-2.2 6.5-1.1.7.4 1.3.8 1.9 1.3.2.1.4.3.8.5z" fill="#000"/><path d="m144.5 45c-.7.2-1.5-.1-1.9-.7-1.1-1.8-2.4-3.4-3.7-5.3l.7-.7c1.6 2.3 3.2 4.5 4.9 6.7z" fill="#585856"/><path d="m143.2 15.8c.1.4.1.7.1 1.1-.4-.2-.7-.4-.9-.5-.6-.4-1.2-.9-1.9-1.3-2.2-1.2-4.8-.7-6.5 1.1-.3.4-.6.8-.8 1.2-.2-.8-.1-1.6.4-2.2 1.1-1.7 4.6-3 6.3-2.3 1.6.4 2.8 1.5 3.3 2.9z" fill="#fbe908"/><path d="m142 33.6c.2.7.6 1.2-.1 1.9-2.6 2.5-5.2 5.1-7.7 7.7-.4.3-.6.8-1 1.2 0-.9.4-1.8 1.1-2.3 2.2-2.3 4.3-4.6 6.4-6.9.4-.5.8-1 1.3-1.6z" fill="#585856"/><path d="m140.6 80.4v1.2c-.1.3-.2.6-.4.8l-.3-.1c-.1-1-.2-1.9-.2-2.9s-.1-1.7-.1-2.5c0-.6-.1-.8-.8-.8-1.1 0-2.2 0-3.3 0 .1 2.1.2 4 .2 6.1 1.1.1 2.5-.4 3.7.1l.2.1v.2c-.3.1-.6.1-.9.2-1.1 0-2.2 0-3.3 0-.6 0-.7-.2-.7-.8 0-2.1 0-4.1 0-6.4 1-.1 2-.2 3.1-.3.6-.1 1.2-.1 1.7 0 .3.1.5.3.6.5.4 1.6.4 3.1.5 4.6z" fill="#000"/><path d="m140.6 58.8v.2l-.4.6-.2-.1c-.1-1-.2-2-.2-3-.1-.8-.1-1.6-.1-2.5 0-.5-.2-.7-.7-.7-1.1 0-2.3 0-3.5 0 .1 1 .2 2 .3 3s0 2 0 3c1.1.1 2.3-.3 3.5.2.2.1.3.1.5.2-.3.1-.5.2-.8.2-1.2 0-2.4 0-3.6 0-.5 0-.6-.2-.6-.7.1-1 .2-1.9.2-2.9 0-1.1 0-2.3 0-3.7.8-.1 1.8-.2 2.8-.3.6-.1 1.2-.1 1.8-.1.3.1.5.3.6.6.3 2.1.3 4.1.4 6z" fill="#000"/><path d="m140.4 27.9c.2.5.3.8.4 1.1l-4.8 5.7c.3-3 2.9-4.5 4.4-6.8z" fill="#585856"/><path d="m140.3 91.9v1.2c-.1.3-.2.6-.4.8l-.3-.1c-.1-1-.2-2-.2-3 0-.8-.1-1.6-.1-2.5 0-.5-.2-.7-.7-.7-1.1 0-2.3 0-3.4 0 .1 2 .2 4 .2 6.1 1.1.1 2.3-.3 3.5.1.2.1.3.1.5.2-.2.1-.5.2-.8.2-1.2 0-2.4 0-3.6 0-.5 0-.6-.2-.6-.7.1-1.1.2-2.2.2-3.3s-.1-2-.2-3.2l3-.3c.6-.1 1.2-.1 1.8-.1.3.1.5.3.6.6.3 1.7.4 3.2.5 4.7z" fill="#000"/><path d="m140.3 70.2c0 .2-.2.5-.4.7l-.3-.1c-.1-1-.2-1.9-.2-2.9s-.1-1.7-.1-2.5c0-.6-.2-.8-.8-.8-1.1 0-2.2 0-3.2 0 .1 2 .2 4 .2 6.1.6 0 1.2-.1 1.9-.1s1.3.1 2 .1v.1.3c-.3.1-.7.2-1 .2-1.1 0-2.2 0-3.3 0-.6 0-.7-.2-.7-.8 0-2.1 0-4.1 0-6.4 1.1-.1 2.1-.2 3.1-.3h1.3c.8-.2 1.1.2 1.1.8.3 2 .4 3.8.4 5.6z" fill="#000"/><path d="m140.2 19.6c.4.8.1 1.8-.7 2.3-.5.6-1.3.7-1.9.2-.2-.2-.4-.4-.5-.7-.2-.7-.3-1.4-.4-2.1v-.5c.4-.2.8-.3 1.3-.5.9-.1 1.8.4 2.2 1.3z" fill="#fbe908"/><g fill="#fef386"><path d="m140 82.3h-.4c-1.2-.6-2.6 0-3.7-.1-.1-2-.2-4-.2-6.1h3.3c.6 0 .8.2.8.8 0 .8 0 1.7.1 2.5s0 2 .1 2.9z"/><path d="m140 59.4-.6.1c-1.2-.5-2.4-.1-3.5-.2 0-1 0-2 0-3s-.2-2-.3-3h3.5c.5 0 .7.2.7.7 0 .8 0 1.6.1 2.5-.1.9 0 1.9.1 2.9z"/><path d="m139.6 70.9h-.2v-.1c-.7 0-1.3-.1-2-.1s-1.4.1-1.9.1c-.1-2-.2-4-.2-6.1h3.2c.6 0 .8.2.8.8 0 .8 0 1.7.1 2.5s.2 1.9.2 2.9z"/><path d="m139.6 93.8h-.6c-1.2-.5-2.4-.1-3.5-.1-.1-2.1-.2-4-.2-6.1h3.4c.5 0 .7.2.7.7 0 .8 0 1.6.1 2.5 0 1 .1 2 .1 3z"/></g><g fill="#585856"><path d="m139 28.7-.5.5c-.1-.6-.9-.9-.4-1.7z"/><path d="m137.8 23.7c.1-.3 0-.8.8-.5-.3 1-.5 2.1-.8 3.2-1.6 5-3.2 10-4.8 15.1-.4 1.2-.7 2.3-1 3.5h-.7c.7-2 1.4-4 2-6 1.5-5.1 3-10.2 4.5-15.3z"/><path d="m138.1 37-.5.8c-.4-.8-.9-1.7-1.4-2.6l.5-.5c.4.8.9 1.5 1.4 2.3z"/></g><path d="m137 111.8c.3.5.6 1 .9 1.6-.5-.2-1-.4-1.4-.7-1.4-1.4-2.6-2.9-3.9-4.3l-1.8-2c-1.7-1.8-3.3-3.7-5-5.5-1.6-1.6-3.5-3-5.5-4.2-.5-.4-1.3-.5-1.9-.3-4.1 1.4-8.2 2.7-12.2 4-1.5.5-3 .9-4.5 1.3l-1.1.4-.2-.4c2.6-.9 5.3-1.8 7.9-2.7 3.4-1.1 6.8-2.2 10.3-3.3.2-.1.3-.3.6-.6l3.2 1.9v-17.6c-1.2-.4-2.9.1-3.2-2l3.2 1c0-2.2.1-4.5 0-6.8s.2-4.4 0-6.7c-.6.1-1.3.6-2-.2.4-.3.9-.7 1.4-.9s.9-.8.8-1.3c0-3.7 0-7.5 0-11.2 0-1.8.1-3.5.2-5.3 0-.3.1-.5.3-.7v.6c.4 5.7.2 11.5.3 17.2l1.4-.1.1.1c-.3.3-.7.6-1 .9s-.5.5-.5.7v5.7c1.1.1 2.3-.1 3.2 1.1l-3.2.3v.7 24.2c0 .5.2 1.1.6 1.4 1.4 1.1 2.8 2.4 4.1 3.7 1.6 1.7 3.2 3.4 4.7 5.2s2.8 3.1 4.2 4.8z" fill="#000"/><path d="m136.5 112.6c.4.3.9.6 1.4.7-.8.3-1.6.5-2.3.9-1.9.9-3.6 1.8-5.5 2.7l-2.3 1c-3.4 1.5-6.9 3-10.3 4.5-6.6-6.5-13.2-13-20.2-19.2l3.3-1.2 1.1-.4c1.5-.5 3-.9 4.5-1.3 4.1-1.3 8.2-2.6 12.2-4 .6-.2 1.4-.1 1.9.3 2 1.2 3.8 2.6 5.5 4.2 1.7 1.8 3.4 3.7 5 5.5l1.8 2c1.2 1.4 2.5 2.9 3.9 4.3zm-4.6 1.4c.4-1-.1-2.2-1-2.7.1.7.2 1.2.3 1.7 0 .2 0 .4-.1.6-.2-.1-.4-.2-.6-.3-.3-.3-.5-.5-.8-.8l-.3.2c.3.5.7 1.1 1.2 1.5.3.3.7.3 1 0 .2 0 .3-.1.3-.2zm-4.7-8c.2-.5-.1-1.1-.7-1.3-.1 0-.2 0-.2 0 .1.2.2.4.2.7-.1.4-.1.8-.2 1.2-.3-.1-.6-.1-.9-.2-.4-.2-.7-.4-1.2-.7 0 .3.1.6.1.8 0 .4-.1.9-.1 1.3-.5-.1-.9-.2-1.4-.4-.2-.1-.4-.3-.6-.5-.2-.1-.4-.1-.7-.1.2.4.4.8.5 1.2 0 .4-.1.8-.2 1.1-.4-.1-.8-.2-1.1-.3-.5-.4-.9-.7-1.3-1.2.1 1.3 1.2 2.3 2.4 2.2.2 0 .3 0 .5-.1.2.9.9.9 1.7.9.3 0 .6.1.9.3.4.5 1.1.6 1.7.3s.6-.9.4-1.4c0-.3 0-.6 0-.9 0-.4.1-.9.2-1.3s0-1 0-1.6zm-5.7 12c0-.2-.2-.4-.2-.6.7-.6.8-1.6.2-2.3-.2-.2-.4-.4-.6-.5.1.4.2.9.3 1.3 0 .3-.1.6-.3.8-.3-.1-.5-.2-.8-.3-.2-.2-.3-.4-.5-.6-.1-.1-.3-.2-.4-.2-.1.2-.1.3-.2.5 0 .5.1 1 .2 1.5-1.4.3-1.6-.9-2.2-1.6-.2 1.1.5 2.2 1.3 2.3.5.1.9.3 1.2.7.5.3 1 .5 1.6.5.1-.2.3-1 .4-1.5zm-.9-16.4c.5-.4.5-1 .2-1.5-.2-.3-.3-.7-.2-1.1.1-.8-.2-1.2-1.1-1.1.1.2.2.3.2.4.1.4.1.7.1 1.1-.3 0-.7-.1-1-.2s-.6-.2-.9-.4c.1.3.2.6.2.9s-.1.7-.2 1c-.3 0-.7-.1-1-.3-.3-.3-.7-.6-.9-1 0 1.1.9 2 2 2 .4 0 .8.1 1.1.3.5.3 1.1.3 1.5-.1zm-6.9 6c.6-.7.6-1.8.1-2.6-.2-.2-.5-.3-.8-.4.1.6.4 1 .5 1.5 0 .4-.1.8-.4 1.1-.4.3-.9.3-1.3 0 0 0 0 0-.1-.1-.2-.3-.4-.6-.7-.9s-.3-.3-.5-.5l-.2.2c.1.4.3.8.4 1.1.2.5.4 1.1-.2 1.5s-1.1 0-1.4-.4-.8-.9-1.2-1.4c-.1 1.3 1 2.5 2.3 2.5.2 0 .5 0 .7-.1.6 1 1.2 1.2 2 .9.6-.2.8-.8.6-1.8 0-.2.1-.4.2-.6z" fill="#e65125"/><path d="m136.2 136.4c.1.6-.3 1.1-.8 1.3-2 1-4 2.1-6 3.2-.4.2-.8.4-1.2.6v.5c.1 1.1.1 2.1.2 3l-.1.1c-2.4 1.2-4.8 2.5-7.2 3.7s-5 2.5-7.5 3.8v-29.2c.9.4 1.8.4 2.7.1.3-.1.7-.3 1-.4 1.3-.7 2.8-1.1 4.2-1.8 2.1-1 4.2-2 6.4-3 2.4-1 4.7-2 7.1-3l1.2-.6zm-3.3-.6c1-.3 1.5-1.3 1.3-2.3-.1-.3-.2-.7-.4-1-.1-.2-.2-.4-.2-.6-.1-3.1-.1-6.2-.2-9.4 0-1.4-.3-1.6-1.6-1.1-4.4 1.7-8.8 3.5-13.2 5.3-.2.1-.4.3-.4.5-.1 3-.2 6-.2 9 0 .2.3.5.5.7l.3-.1c-.2.5-.4 1.1-.6 1.6-.2.7 0 1.5.5 2 .1.2.9.1 1.3-.1.8-.2 1.6-.6 2.5-.8 3.6-.9 7.1-2.2 10.4-3.7z" fill="#f8b232"/><path d="m134.2 133.5c.2 1-.3 2-1.3 2.3-3.4 1.5-6.8 2.8-10.3 3.9-.8.2-1.7.6-2.5.8-.4.1-1.2.2-1.3.1-.5-.5-.7-1.3-.5-2 .2-.5.4-1.1.6-1.6l-.3.1c-.2-.2-.5-.4-.5-.7 0-3 .1-6 .2-9 .1-.2.2-.4.4-.5 4.4-1.8 8.8-3.5 13.2-5.3 1.2-.5 1.6-.3 1.6 1.1.1 3.1.1 6.2.2 9.4 0 .2.1.4.2.6s.3.5.3.8zm-.3 1.3c-.1-.4-.1-.7-.1-1 0-.6-.4-1.1-1.1-1.2-.2 0-.4 0-.6.1-1.9.7-3.9 1.4-5.9 2.1-.5.2-1 .4-1.5.7-.3.1-.7.1-1 .2-1.4.6-2.8 1.2-4.1 1.8-.6.3-1 .7-.8 1.4.1.4.3.8.5 1.2zm-1.1-8.3c.1-1.6.2-3.1.3-4.7l-7.1 2.6v4.4zm0 2.7v-1.9c-2.2.8-4.2 1.5-6.2 2.2-.2.1-.5.2-.5.3v3.1c1.1-1.4 1.2-1.4 2.9-1.6.2 0 .4-.4.5-.6 0-.8.4-1.6 1.1-2 .7-.3 1.7-.2 2.2.5zm0 2c.1-1.1-.5-1.9-1.2-1.9s-1.3.5-1.5 1.5c1-.8 1.8-.4 2.7.4zm-.7.8c0-.1.1-.1.1-.2-.4-.2-.9-.5-1.2-.5-.7.1-1.2.7-1.1 1.3zm-2.7.9c-.3-.4-.6-.9-.9-.9-.9-.2-2 1-1.8 2zm-4.1-4.1c0-1.3 0-2.7 0-4.1l-6.7 2.5c.1 1.5.1 3.1.2 4.8h.2c2-.9 3.9-1.8 5.8-2.7.3-.1.4-.3.5-.5zm-.1 5.8v-4.6l-6.4 2.7v3.1l1.5-1.2c-.3-1.5.1-2 1.8-1.9.4 0 .7.5 1.1.6.9-.1 1.7.4 2 1.3zm-.8.1c-.1-.6-.7-1.1-1.3-1-.1 0-.3.1-.4.1-.8.3-1.3.6-.6 1.9zm-1.8-1.6c0-.1 0-.2 0-.2-.5.1-1.2.1-1.5.4s-.1 1-.1 1.5zm-.8 2.9c-.3-.6-.9-.9-1.6-.7-.7.3-1.1 1.1-.8 1.9z" fill="#000"/><path d="m133.1 121.8c-.1 1.6-.2 3.2-.3 4.7l-6.8 2.3v-4.4z" fill="#95d6f1"/><path d="m132.8 128v1.1c-.6-.6-1.5-.8-2.2-.4s-1.1 1.2-1.1 2c0 .2-.3.6-.5.6-1.7.2-1.8.2-2.9 1.6 0-1.2 0-2.1 0-3.1 0-.1.3-.3.5-.3 2-.7 4.1-1.4 6.2-2.2z" fill="#95d6f1"/><path d="m131.6 129.2c.8.1 1.3.8 1.2 1.9-.9-.7-1.7-1.1-2.7-.5.2-.9.8-1.5 1.5-1.4z" fill="#098d45"/><path d="m132.2 131.8c0 .1-.1.1-.1.2l-2.3.7c-.1-.7.4-1.3 1.1-1.3.4-.1.9.2 1.3.4z" fill="#098d45"/><g fill="#000"><path d="m130.9 111.3c.9.5 1.4 1.7 1 2.7-.2.4-.6.5-1 .4-.1 0-.2-.1-.2-.2-.4-.5-.8-1-1.2-1.5l.3-.2c.3.3.5.6.8.8l.6.3c.1-.2.1-.4.1-.6-.1-.5-.2-1-.4-1.7z"/><path d="m131.9 60c0 .2-.2.4-.4.5-1.3.2-2.7 0-4-.4 1.1-.7 2.3-.2 3.4-.3 0-1.2 0-2.3 0-3.4s-.3-2.1.1-3.1h.2c.2.8.3 1.5.4 2.3.2 1.6.2 3 .3 4.4z"/><path d="m131.7 78.6c.1 1.5.1 2.9.2 4.4-.1.3-.3.5-.6.5-1.3 0-2.6-.2-3.8-.4 1.1-.8 2.4-.2 3.5-.4v-6.5h.3c.2.9.3 1.6.4 2.4z"/><path d="m131.5 152.4c.1 1.1.2 2.3.1 3.4 0 .2-.3.4-.5.6-.1-.2-.4-.4-.4-.6 0-.9 0-1.7 0-2.6 0-.3-.3-1-.4-1-.5 0-.9.2-1.3.4-.3.4-.7.7-.9 1.2-.2.1-.3.2-.5.3-.1-.2-.3-.4-.3-.6 0-.7-.5-1-1-.9-.4.2-.7.6-.7 1.1 0 .8-.1 1.4-1 1.9.1-1.1-.6-1.3-1.3-1.4-.4-.1-.8 0-1.2.2-.2.3-.3.8-.2 1.2.3.5.6.9.9 1.4.1.2.1.4.1.6-.2 0-.6 0-.6-.1-.5-.9-1-1.8-1.3-2.8-.2-.7 1.3-1.6 2.1-1.3l1.6.5c.2-.9.3-1.8 1.3-2s1.4.3 2.1.9c.3-.8 1.1-1.4 2-1.2.7-.2 1.3.1 1.4.8z"/><path d="m131.6 71.4c.1.6-.2.8-.6.7-1.3-.1-2.5-.2-3.8-.3v-.3c.1-.1.2-.1.3-.1 1-.3 2.1.1 3.2 0 .1-2.2-.2-4.3 0-6.5h.3c.1.8.3 1.6.4 2.4.1 1.3 0 2.7.2 4.1z"/><path d="m131.6 94.3c.1.6-.2.8-.6.7-1.3 0-2.5-.2-3.8-.4l.2-.1c1.1-.6 2.2-.1 3.3-.2.1-2.3-.1-4.4 0-6.5h.3c.1.8.3 1.6.4 2.4.1 1.4 0 2.7.2 4.1z"/></g><g fill="#fef386"><path d="m131.3 76.3h-.3v6.5c-1.1.2-2.4-.4-3.5.4l-.3-.6c.1-.2.3-.4.3-.5 0-1 0-2 0-2.9s-.2-1.9-.3-2.8c1-.1 2 .1 3-.1z"/><path d="m130.1 53.3.9.1c-.5 1-.1 2.1-.1 3.1v3.4c-1.1.1-2.3-.4-3.4.3l-.3-.6c.1-.1.2-.3.3-.5 0-.2 0-.4 0-.6-.1-1.7-.1-3.4-.2-5.2.9-.1 1.9.1 2.8 0z"/><path d="m130.5 64.8.2.1c-.2 2.1 0 4.3 0 6.5-1 .1-2.1-.3-3.2 0l-.6-.3c.2-.4.3-.7.4-1.2 0-1.7-.1-3.4-.2-5.2z"/><path d="m130.5 87.6.1.1c-.2 2.1 0 4.2 0 6.5-1 .1-2.2-.3-3.2.2l-.4-.5c.1-.2.2-.4.3-.6 0-.2 0-.4 0-.6-.1-1.7-.1-3.4-.2-5.1z"/></g><g fill="#000"><path d="m130.5 87.3v.3h-3.5c.1 1.8.2 3.4.2 5.1v.6c-.1.2-.2.4-.3.6-.1-.2-.4-.4-.4-.6 0-2 0-4.1 0-6.2 1.4.3 2.7-.4 4 .2z"/><path d="m130.5 64.4v.3h-3.5c.1 1.8.2 3.4.2 5.2-.1.4-.2.8-.4 1.2-.2-.4-.3-.8-.4-1.2 0-1.5 0-3 0-4.4 0-.4.1-.8.1-1.2 1.4.2 2.7-.6 4 .1z"/><path d="m130.8 76c-.2.1-.4.1-.5.1-1 .2-2-.1-3 .1.1.9.2 1.8.3 2.8s0 2 0 2.9c0 .2-.2.4-.3.5-.1-.2-.4-.3-.4-.5 0-2.1 0-4.1 0-6.3 1.4.4 2.7-.5 3.9.4z"/><path d="m130.8 53.1c-.2.1-.5.1-.7.2-.9.1-1.9-.1-2.8 0 .1 1.8.1 3.5.2 5.2v.6c-.1.2-.2.3-.3.5l-.4-.4v-.1-6.3c1.5.3 2.8-.6 4 .3z"/><path d="m129.8 172c-.2.7-.4 1.4-.7 2.1-.2.5-.5 1-.9 1.5-.1.1-.3.2-.5.1-.1 0-.2-.3-.2-.4.5-1.1 1-2.2 1.6-3.2.1 0 .3 0 .7-.1z"/></g><path d="m128.5 131.9c.3.1.6.6.9.9l-2.7 1c-.2-.9.9-2 1.8-1.9z" fill="#098d45"/><g fill="#000"><path d="m128.3 145.2.3.5c-.9.6-1.6 1.1-2.4 1.5-1.8 1-3.6 1.9-5.5 2.9-1.8.9-3.8 1.7-5.5 2.8-1.5.9-3.2.7-4.8.9-.8.1-1.7 0-2.6 0 .2.9.3 1.8.5 2.7.1.6-.1.7-.6.7-.7 0-1.3 0-2 0-1.7 0-3.3.1-5 .1-2.2 0-4.5-.2-6.7-.3l-2.5-.1c-1.2-.1-1.6-.5-1.5-1.7 0-.4.1-.8.2-1.2l1.1-.1v-.1h-4.7c-.4.7-.8 1.5-1.2 2.1-.1.1-.2.2-.2.2l-.3-.3c.8-2.1.9-4.4.4-6.6-1.7 0-3.4.1-5 0-1.8-.1-2.8-1.4-2.2-2.8.3-.7.9-1.3 1.7-1.4.6-.1 1.2-.2 1.8-.3v-.2c-1.3-.2-2.6-.3-3.9-.3-3.6.1-7.2-.4-10.7-1.4l-.2.1-.2-.4c-.4-.3-.8-.6-1.2-.8-.7-.4-1.3-.6-2-1-1.3-.8-2.6-1.7-3.9-2.6-.2-.2-.5-.3-.7-.3-1.3 0-2.5.1-3.8.1-3.2 0-6.4-.1-9.5-.1-.6 0-1.2-.1-1.8-.2 0-.1 0-.2 0-.3 4.6-.6 9.2-.2 13.8-.3-.7-.4-1.5-.6-2.2-.8-3.2-.6-6.4-.9-9.7-.6-2.3.1-4.6.2-6.9.3-3.7.2-7.4.4-11 .6-1 0-2 .5-2.6 1.3-1 1.2-1.9 2.5-2.8 3.8-.6.9-1.2 1.8-1.9 2.6-1.5 1.5-3.4 2.4-5.5 2.8-.4.1-.7.2-.7.7h-.4c0-1.1.7-1.4 1.6-1.7 1.3-.5 2.5-1.1 3.7-1.7 1.6-.9 2.3-2.6 3.3-4 .8-1 1.5-2.1 2.4-3.1.3-.3.6-.5 1-.6-.2-.9.6-.9 1.1-.9 2.4-.2 4.9-.3 7.3-.5 1.1-.1 2.2-.2 3.6-.4v-4.7c-1.4.4-2.9.1-4-.8-1.8 1.3-3.5 2.7-5.9 2.6-1.4 0-2.8-.8-3.4-2.1-.1-.3-.4-.5-.7-.4h-.1c-.4.1-.8.2-1.1.3-2.5.4-3.9-.9-4.6-3.3-.6-2.5.7-5 3-6.1-.7-1.4-.5-3.1.5-4.3.9-1.3 2.4-2 3.9-2.1v.4c-.3 0-.7.1-1 .2-2 .6-3.3 2.6-2.9 4.7.1.3.5.6.8.9.2.2.4.3.6.5-.2.2-.4.4-.6.5-.1.1-.3.1-.5.1-1.9.5-3.1 2.4-2.9 4.3.3 1.8 1.4 3.6 4 2.8.5-.2 1-.3 1.5-.3.4 0 .7.3.8.6.2.9.8 1.6 1.7 1.8 1.8.8 5-.9 6-2.1.5-.7.7-.8 1.5-.2.4.3.8.6 1.2.7 2 .3 3.9-1 4.2-3 0-.2 0-.3 0-.5 0-.3-.2-.5-.4-.7-1.8-1.2-3-2.7-2.5-5.1-2.9.3-5.1-.9-5.4-3.8h.8c.1.6.4 1.2.8 1.7.8.8 2 1.2 3.2 1 .7-.1 1.5-.3 2.5-.5-.2.6-.3.9-.3 1.2-.3.6-.4 1.2-.4 1.8.2 1.4 1.3 2.6 2.7 2.9 1.3.5 2.9.1 3.8-.9.3-.4.7-.8 1.1-1.2.2-.2.3-.5.3-.8 0-8 0-16 0-24.1 0-.4-.2-.8-.5-1.1-1.2-1.5-3.1-2.1-4.9-1.6-.8.3-1.5.9-2 1.7-.2.2-.3.5-.4.8l-.9-.6c.3-1.7 1.6-3 3.3-3.2 1.9-.3 3.9.3 5.2 1.7 0-2.4 0-4.6 0-6.8 0-3.5.1-7 .2-10.5 0-.4.1-.8.2-1.1h.3c.1 1.1.2 2.1.2 3.2v18.8 34.8.8h3.1c.1-19.3-.1-38.6.2-58h-3.8-41.60001c-.8 0-1.7-.1-2.5-.1-.5 0-.6-.3-.7-.6l.5-.1h66.00001v.7h-.1l-15.3.2h-1.5c.4 19.4.2 38.7.3 57.9 2.3-.1 4.6-.3 6.9-.3h23.6.8v-10h.6v.2c.2 5 .1 10 .2 15v2.2l1.1-1.7h.2c.1.4.2.8.1 1.1-.3.7-.6 1.4-1.1 2.1s-.4 1.6.2 2.1c0 0 .1 0 .1.1.9.5 1.5 1.3 1.8 2.2s.5 1.8.6 2.7c.1 1.2.2 2.4.2 3.5h4.7c.1-.5.1-.9.1-1.4 0-5.9 0-11.7 0-17.6 0-1.1.1-2.1.1-3.2 0-.8.5-1.1 1.2-1.1s1.6 0 2.4-.1c2.1 0 4.2-.1 6.2-.1.5 0 .8.3.8.8 0 1 .1 2 .1 2.9v16.3 1h1.8c2.1 0 2.4.3 2.8 2.1 0 .1.1.1.2.2h5.3v-.4c0-9.7.1-19.4.1-29.1 0-.3-.1-.6-.3-.8-1.2-1.1-2.4-2.2-3.6-3.3-2.9-2.7-5.8-5.3-8.7-8.1-1.4-1.4-2.8-2.9-4.1-4.4v-.5c.2.1.5.2.6.4l5.2 4.8c4.2 3.8 8.4 7.6 12.5 11.4.5.4 1.2.6 1.8.4l.2.4c-.9.3-1.9.3-2.7-.1v29.2c2.6-1.3 5-2.5 7.5-3.8s5.1-2.4 7.5-3.6zm-20.4 11.3c-.2-1-.4-1.8-.6-2.6-5.6.6-11.1.2-16.6.3v2zm-1.5-3.4c-.1-.6-.2-1.2-.2-1.8h-14.1c.1.7.2 1.4.3 2.1zm-5.1-2.7c.4-.4.7-16.4.4-20.4h-9.5v20.8l.9-.2v-19.6h7.7c.1 0 .4.3.4.4v2.5 15.6c.1.3.1.6.1.9zm-.7-11.1v-7.5h-6.9v19l6.8-.3v-8.3c-.6-.2-1.2-.5-1.7-.9-.2-.3-.3-1.2-.1-1.4.7-.3 1.3-.5 1.9-.6zm-.2 1.4c0-.1 0-.2 0-.3-.3-.2-.5-.3-.8-.4-.1 0-.3.2-.4.3.2.2.4.5.7.7.1.1.4-.1.5-.3zm-15.3 7c-.1-1.1-.8-2.1-1.8-2.7-.8-.5-1.4.1-2.2.1-.1 0-.2 0-.3 0-.3.1-.7.2-1 .3-.6.2-1 .8-.9 1.5.2.8.9.9 1.5.9 1.5.2 3.1.1 4.7-.1zm-2.5-4.3v-9.3h-27.6c3.1.6 5.5 2.5 8 4.3.1-.1.1-.1.2-.1 0-.1.1-.3.1-.4 0-.9.7-1.7 1.6-1.9l.3-.1.1.6c-.5.1-.9.4-1.1.8-.4.7-.3 1.6.3 2.2l.9.9c.3.3.6.5.8.8.2.2.5.4.8.5 2.4.4 4.9.8 7.4.9 2.8.3 5.6-.2 8.2.8zm-36.9-9.7v-11.1c-1.3 1.9-3.1 2.2-5 2.1.3 1.5-.4 3-1.7 3.9-.2.2-.4.5-.3.8.5 1.4.6 2.9.2 4.4h4.2c.3 0 .5 0 .8-.1.5-.5 1.1-.8 1.8 0z"/><path d="m127.7 117.9.2.5c-2.1.9-4.2 2-6.4 3-1.4.6-2.9 1.1-4.2 1.8-.3.2-.7.3-1 .4l-.2-.4h.2c-.6-.5-1.2-.9-1.6-1.3-1.8-1.8-3.7-3.6-5.5-5.4-2.2-2.1-4.4-4.1-6.6-6.2-1.9-1.9-3.9-3.8-5.8-5.7-.4-.5-.7-.9-1-1.4 0-.1 0-.2 0-.2.6 0 1.1-.1 1.7-.3l2.8-1 .2.4-3.3 1.2c7 6.2 13.7 12.7 20.2 19.2 3.4-1.6 6.8-3.1 10.3-4.6z"/><path d="m126.3 104.7c.6 0 1 .5.9 1.1v.2c-.1.6-.1 1.2-.2 1.8s-.1.9-.2 1.3v.9c.1.6.2 1.1-.4 1.4-.5.3-1.3.2-1.7-.3-.2-.2-.5-.3-.9-.3-.8 0-1.5-.1-1.7-.9-1.2.3-2.5-.4-2.8-1.6 0-.2-.1-.3-.1-.5.4.4.8.8 1.3 1.2.4.2.7.3 1.1.3.1-.4.2-.8.2-1.1-.1-.4-.3-.8-.5-1.2.2 0 .4 0 .7.1.2.1.4.4.6.5.4.2.9.3 1.4.4 0-.4.1-.9.1-1.3 0-.3 0-.6-.1-.8.5.3.8.5 1.2.7.3.1.6.2.9.2.1-.4.2-.8.2-1.2.2-.5.2-.7 0-.9zm-.1 4.4c.7-.4.4-1.1.3-1.7l-1.2-.4c-.2.5-.3.9-.4 1.4.3.4.6 1.1 1.3.7zm-.1 1.7s.2-.5.2-.6c-.2-.3-.5-.5-.8-.7l-.6 1c.4.2.8.3 1.2.3zm-2-.7c.3-.1.5-.3.5-.6-.1-.3-.3-.6-.6-.8-.4-.1-.8-.2-1.2-.3-.1.3-.1.6-.2.8 0 .2.1.7.2.7.5.2.9.3 1.3.2z"/></g><path d="m126.5 107.4c.1.6.4 1.2-.3 1.7s-1-.3-1.4-.7c.2-.5.3-.9.4-1.4z" fill="#e6352c"/><path d="m126.3 110.2c.1.1-.1.6-.2.6-.4-.1-.8-.1-1.2-.3l.6-1c.3.2.6.5.8.7z" fill="#e6352c"/><path d="m125.3 124.7v4.1c-.1.2-.2.4-.4.5-1.9.9-3.9 1.8-5.8 2.7-.1 0-.1 0-.2 0-.1-1.6-.1-3.3-.2-4.8z" fill="#95d6f1"/><path d="m125.2 130v4.6c-.3-.8-1.1-1.4-2-1.4-.4 0-.7-.5-1.1-.6-1.7-.1-2.1.4-1.8 1.9l-1.5 1.2v-3.1z" fill="#95d6f1"/><path d="m124.7 109.5c-.1.3-.3.5-.5.6-.4.1-.8 0-1.2-.1-.1 0-.2-.5-.2-.7 0-.3.1-.6.2-.8.4 0 .8.1 1.2.3.2.1.4.4.5.7z" fill="#e6352c"/><path d="m122.7 171.9h1.9c-.5 1.9-1.6 3.6-2 5.5l.4.2v.7l-3.4.1c-.1 0-.1 0-.3-.1 1.9-1.7 2.6-4 3.4-6.2z" fill="#3caa49"/><path d="m122.7 133.8c.6-.3 1.3-.1 1.6.5.1.1.1.3.1.4l-2.3 1c-.7-1.3-.1-1.6.6-1.9z" fill="#098d45"/><path d="m122.6 132.8v.2l-1.7 1.6c0-.5-.1-1.2.1-1.5s1-.1 1.6-.3z" fill="#098d45"/><path d="m119 171.9h3.2c-1.3 1.4-1.4 3.4-2.8 4.6-.1.1-.2.3-.3.5-.2 1.3-1.1 1.6-2.3 1.4-.4 0-.9 0-1.3 0l.3-.4c1.5-1.8 2.6-3.8 3.2-6.1z" fill="#3caa49"/><path d="m121.3 117.4c.1.2.3.4.2.6-.1.5-.3 1.3-.4 1.3-.6 0-1.1-.1-1.6-.5-.3-.4-.7-.6-1.2-.7-.8-.1-1.5-1.2-1.3-2.3.6.7.8 1.9 2.2 1.6-.1-.5-.1-1-.2-1.5 0-.2.1-.3.2-.5.2 0 .3.1.4.2.2.2.3.5.5.6.3.1.5.3.8.3.1-.3.2-.5.3-.8-.1-.4-.2-.9-.3-1.3.8.4 1.2 1.3.9 2.2-.1.4-.3.6-.5.8zm-.7 1.4c.1-.4.3-.8.4-1.2l-1.1-.3-.4 1z" fill="#000"/><path d="m121 117.6c-.1.4-.3.8-.4 1.2l-1.1-.5.4-1z" fill="#e6352c"/><path d="m120.8 100.1c.4.5.3 1.1-.2 1.5-.4.4-1.1.4-1.5.1-.3-.2-.7-.3-1.1-.3-1.1 0-2-.9-2-2 .3.4.6.7.9 1 .3.1.7.2 1 .3.1-.3.2-.7.2-1s-.1-.6-.2-.9c.3.2.6.3.9.4s.7.1 1 .2c0-.4 0-.7-.1-1.1 0-.1-.1-.2-.2-.4.9-.1 1.2.2 1.1 1.1-.1.4 0 .8.2 1.1zm-.8 1.1c.2-.4.3-.8.3-1.2l-1.6.2c.2.4.2.7.4.9s.9.2.9.1z" fill="#000"/><path d="m120.2 135.3c.6-.2 1.3.1 1.6.7l-2.4 1.2c-.3-.8.1-1.6.8-1.9z" fill="#098d45"/><path d="m120.3 100c0 .4-.1.8-.3 1.2-.1.1-.6 0-.8-.1s-.3-.5-.4-.9z" fill="#e6352c"/><path d="m113.8 61.8c4.7 1.9 7 7.2 5.1 11.9-.3.7-.7 1.4-1.1 2-1.5 2.2-2.9 4.6-4.3 6.9-.6 1.1-1 2.3-1.2 3.6l.9.4h-1.4v-.3c-.2-1.5.1-3.1 1-4.3 1.4-2.3 2.8-4.7 4.3-7 2.5-3.7 1.6-8.7-2.1-11.3-.5-.4-1.1-.7-1.8-.9-2.9-1.2-6.1-1.4-9.2-.7-2.4.6-4.4 2.1-5.6 4.3-1.9 3.4-1.3 6.9.5 10.1 1.2 1.7 2.5 3.4 3.8 5 1.1 1.5 2.4 2.9 1.9 5h.2l.1.4-1 .2c-.7.1-1.3.3-1.2 1.2 0-.1 0-.3 0-.4.1-.2-.3-.3-.3-.1 0-.4.5-.8 1.7-1.2 0-2.8-1.8-4.6-3.5-6.4-1.9-2-3.2-4.5-3.9-7.1-1-4.6 1.3-9.3 5.6-11.2 3.8-1.7 7.9-1.6 11.5-.1z" fill="#000"/><path d="m114.5 171.9h3.5c-.6 1-1.1 2-1.6 3s-.9 1.8-1.3 2.8l-.2.4c-.1.2-.3.4-.4.4-1 .1-2 .2-3.1.3 1.3-2.2 3.1-4.1 3.1-6.9z" fill="#3caa49"/><path d="m117.4 55.5c1.3 1.1.8 3.2-1.2 4.6-.3-1.8.6-3.1 1.2-4.6z" fill="#000"/><path d="m113.2 62.7c4.2 1.5 6.4 6.2 4.8 10.4-.2.6-.5 1.2-.9 1.8-1.5 2.3-2.9 4.7-4.3 7-.9 1.2-1.2 2.8-1 4.3h-.7c.8-5 1.7-9.9 2.5-14.8l-.4-.1c-.9 1.4-.7 3.1-1.4 4.7l-1.1-.3c.4-.6.7-1.2 1-1.7.3-.4.1-1-.3-1.2 0 0-.1 0-.1-.1-.2-.1-.8.3-1 .7-.3.6-.4 1.3-.6 2l-1.4-.1.6-.7c.5-.7.8-1.5.7-2.4 0-.6-.4-1-1-1-.5-.1-.9.1-1.1.6v.2c-.1.8-.1 1.5-.1 2.3v.9c-.4.1-.8.1-1.3.1.1-.7.2-1.3.2-2 0-.4-.2-.8-.4-1.1-.2-.2-.6-.4-.9-.3s-.5.4-.5.8c.1.9.3 1.8.6 2.6-.1.1-.3.2-.5.3-.7.2-1.4-.2-1.7-.8-.5-1-1-2-1.5-3l-.3.1c1.7 4.8 3.4 9.6 5.2 14.4l-1.4.3h-.2c.5-2.1-.8-3.5-1.9-5-1.4-1.6-2.7-3.3-3.8-5-1.8-3.2-2.4-6.6-.5-10.1 1.2-2.1 3.2-3.6 5.5-4.2 3.1-1 6.3-.8 9.2.4z" fill="#fbe948"/><path d="m116.4 123.1h-.2c-.6.2-1.3 0-1.8-.4-4.1-3.8-8.3-7.6-12.5-11.4l-5.2-4.8c-.2-.2-.4-.3-.6-.4-.2 0-.5.1-.8.5-2.5 2.9-5.2 5.8-7.7 8.7-2.4 2.8-4.7 5.6-7 8.4-.4.8-1.3 1.3-2.2 1.2h-.3c-.2 0-.4 0-.5 0 .6-.8 1.2-1.6 1.8-2.3 2.7-3.4 5.4-6.9 8.4-10.2.4-.5.9-.9 1.3-1.4 1.5-1.5 3-3.1 4.4-4.7.9-1 1.6-2.2 2.3-3.3.3.5.6 1 1 1.4 1.9 1.9 3.8 3.8 5.8 5.7 2.2 2.1 4.4 4.1 6.6 6.2 1.9 1.8 3.7 3.6 5.5 5.4.6.5 1.1.9 1.7 1.4z" fill="#e65125"/><path d="m114.8 90.2c.2.7-.4 1-.9 1.4-.2.1-.5.2-.7.2-.2.1-.4.2-.4.3-.1 1-.9 1.3-1.7 1.5-1.8.5-3.7.5-5.5-.2-.2-.1-.6-.2-.6-.4-.3-.8-1-.8-1.7-.8s-1-.3-.9-1.1c0-.5 0-1 0-1.5.2.6.3 1.2.5 1.7 0 .1.3.2.4.2.4.1.8.1 1.3.1 3-.1 6.1-.3 9.2-.5.2 0 .4-.4.4-.5-.1-.3-.3-.7-.5-.7-.8-.1-1.6-.2-2.4-.2-1.8 0-3.6.2-5.4.1-1.1 0-2.2-.2-3.4-.3l.3-.1c.1.1.2.1.3 0h1.3c2.5 0 5.1-.1 7.6-.2.4 0 .8 0 1.2-.2-.2-.1-.3-.2-.5-.2-1.6 0-3.2.1-4.8.2s-3.2 0-4.7 0v-.1c0-.1-.1-.2-.2-.1-.1 0-.1.1-.1.2h-.1v-.2c.1.2.3.1.3-.1l10.7-.4c-.1-.6-.2-1.1-.3-1.6.3.3.6.6.8 1 .2.6.1 1.2-.8 1.3.1.2.2.4.3.4.3-.1.9.2 1 .8zm-9.5 2.2c1.3 1.1 5.7 1 6.9-.4z" fill="#000"/><path d="m114.5 171.9c.1 2.8-1.8 4.7-3.1 6.9v1c-3.3.1-6.6 0-9.9.1-.1 0-.1 0-.2 0-.4-.1-.9 0-1.3.1h-.6c-6.3 0-12.5.1-18.8 0-3.6-.1-7.2-.3-10.8-.5-1.6-.1-3.3-.1-4.9-.2-3-.2-6-.4-9-.8s-6.1-.9-9.1-1.5-5.9-1.2-8.8-1.8c-3.3-.6-6.5-1.1-9.8-1.7-1.5-.3-2.9-.9-4.4-1.1-2.2-.5-4.3-1.2-6.4-2.1-1.7-.6-3.3-1.4-4.8-2.4-.3-.2-.5-.4-.7-.6l.1-.2 1.7.7v-.1l.6.4c.6.3 1.3.6 2 .9.2 0 .4 0 .5-.2.9-1.2 1.8-2.4 2.7-3.7l.7.3-2.5 4 2.3.8 3.1-4 .6.1c-.6 1.7-1.7 3.2-3 4.4 1 .1 2 .3 3 .6l.5.1c3.6.9 7.3 1.7 11 2.2 3.2.6 6.4 1.2 9.5 1.8s6.5 1.2 9.7 1.7c2.9.4 5.9.7 8.8 1 2.4.2 4.8.2 7.2.3 3.4.1 6.8.4 10.2.4 4.5.1 9.1 0 13.6 0h1.8c.2 0 .4-.1.6-.3l.4.5h3.1c.5.1.9-.2 1.1-.6.7-1.2 1.4-2.4 2.1-3.7.3-.6.7-1.3 1-1.9l.8.4c-.1.2-.2.4-.2.6-.8 1.8-1.7 3.6-2.7 5.3h3.1c.2 0 .4-.2.5-.4 1-1.7 2-3.4 3-5.2.2-.4.3-.9.4-1.3h.9c0 2.8-1.7 4.8-3.2 6.9h3.1c.2 0 .4-.1.5-.2.9-1.5 1.8-3.1 2.7-4.7.3-.6.6-1.3.8-2z" fill="#000"/><path d="m114.2 90.7c0 .1-.2.5-.4.5-3.1.2-6.1.3-9.2.5-.4 0-.8 0-1.3-.1-.1 0-.4-.1-.4-.2-.2-.6-.3-1.2-.5-1.7 1.1.1 2.2.3 3.4.3 1.8 0 3.6-.1 5.4-.1.8 0 1.6.1 2.4.2.3-.1.5.3.6.6z" fill="#9c9c9b"/><path d="m113.8 105.1c.6.8.5 1.8-.1 2.6-.2.2-.2.4-.2.6.2 1.1 0 1.6-.6 1.8-.9.3-1.4.1-2-.9-1.3.3-2.6-.5-2.9-1.7-.1-.2-.1-.5-.1-.7.4.5.8 1 1.2 1.4s.9.8 1.4.4.4-1 .2-1.5c-.2-.4-.3-.7-.4-1.1l.2-.2c.2.2.4.3.5.5s.4.6.7.9c.3.4.9.5 1.3.2 0 0 .1 0 .1-.1.3-.3.5-.7.4-1.1s-.4-.9-.5-1.5c.3 0 .6.2.8.4zm-1.1 4.3c.1-.4.2-.9.2-1.3l-1.3-.1c-.2.5-.6 1.1.2 1.5.2.1.9.1.9-.1z" fill="#000"/><path d="m109.9 171.9h3.9c-.2.7-.5 1.4-.8 2-.9 1.6-1.8 3.1-2.7 4.7-.1.1-.3.2-.5.2-1 0-2 0-3.1 0 1.5-2.1 3.2-4.1 3.2-6.9z" fill="#3caa49"/><path d="m113.2 71.3.4.1c-.8 5-1.6 9.9-2.5 14.8h.7v.3h-1.8v-.4c.6-3.3 1.2-6.5 1.7-9.8-1 0-1.7-.9-2.8-.6-.2 0-.4-.2-.6-.2s-.3 0-.5 0h-1.6c-.2 0-.3 0-.5 0l-.9.2-.1-.3c.2-.1.3-.1.5-.3-.2-.9-.4-1.7-.6-2.6 0-.3.2-.6.5-.8.3 0 .7.1.9.3.3.3.4.7.4 1.1 0 .7-.1 1.3-.2 2 .4 0 .8 0 1.3-.1 0-.3 0-.6 0-.9 0-.8 0-1.5.1-2.3 0-.5.4-.8.9-.8h.2c.6 0 1 .4 1 1 .1.9-.2 1.7-.7 2.4l-.6.7 1.4.1c.1-.7.3-1.4.6-2 .2-.3.8-.7 1-.7.4.2.6.7.4 1.2 0 0 0 .1-.1.1-.3.6-.6 1.1-1 1.7l1.1.3c.7-1.4.5-3.1 1.4-4.5zm-2.9 3.6c.7-.3 1.1-1.1.8-1.8 0-.1-.1-.1-.1-.2-.3.7-.4 1.3-.7 2zm-2.2-.1c.8-.6 1.2-1.6 1.1-2.6 0-.2-.3-.5-.6-.6s-.5.3-.5.5zm-2.5-.2.5-.1c0-.6-.1-1.2-.2-1.8 0-.2-.3-.3-.5-.4-.1.2-.3.4-.3.6.1.5.3 1.1.5 1.7z" fill="#000"/><path d="m113.3 86.6c.1.5.2 1 .3 1.6l-10.7.4v-.1c0-.1-.1-.2-.1-.3-.1-.9.5-1.1 1.2-1.2l1-.2c.3-.1.7-.1 1-.1 1.3-.1 2.7-.1 4-.1h1.7z" fill="#9c9c9b"/><path d="m112.9 108.1c0 .4-.1.9-.2 1.3-.1.1-.7.2-1 0-.7-.4-.3-1-.2-1.5z" fill="#e6352c"/><path d="m112.4 122.3c.2.2.3.5.3.8 0 9.7 0 19.4-.1 29.1v.4h-5.3c-.1-.1-.2-.1-.2-.2-.4-1.8-.7-2.1-2.8-2.1h-1.8v-1c0-5.4 0-10.9 0-16.3 0-1-.1-2-.1-2.9 0-.5-.2-.8-.8-.8-2.1 0-4.2 0-6.2.1-.8 0-1.6.1-2.4.1s-1.2.2-1.2 1.1c0 1.1-.1 2.1-.1 3.2v17.6c0 .5-.1.9-.1 1.4h-4.8c-.1-1.2-.1-2.4-.2-3.5-.1-.9-.3-1.8-.6-2.7s-.9-1.7-1.8-2.2c-.7-.5-.9-1.4-.4-2.1 0 0 0-.1.1-.1.4-.7.8-1.4 1.1-2.1.1-.3-.1-.7-.1-1.1h-.2l-1.1 1.7v-2.2c0-5 0-10-.2-15 0-.1 0-.1 0-.2 0-1 .4-1.9 1.1-2.6 2.2-2.5 4.4-5.2 6.6-7.7 1.1-1.2 2.2-2.4 3.3-3.7.6-.8 1.2-1.6 1.8-2.5 1.4 1.5 2.7 3 4.1 4.4 2.8 2.7 5.8 5.4 8.7 8.1 1 .9 2.2 1.9 3.4 3zm-.6 16.9h.2c-.2-3.1-.4-6.3-.6-9.4-.1-1.5-1-2.7-2.4-3.3-.9-.5-2-.5-2.9.1-1.6 1.1-2.4 3-2.1 4.9 0 .2.1.4.1.6.1 3.3.2 6.7.4 10 0 .6-.1 1.3.2 1.7s1.1.1 1.6.2l4.8.2c.4 0 1 .1.5-.7 0-.1 0-.1 0-.2zm-23.5 8.5c-.1 1.4.6 1.9 2 1.6zm1.3-1.7c-.6-.7-1.6-.7-2.2-.2.4.7 1.1.8 2.2.2zm-4.4-2.5c.9.4 2-.1 2.4-1 .1-.3.2-.7.1-1z" fill="#f8b232"/><path d="m112.6 88.8c.2 0 .4.1.5.2-.4.1-.8.2-1.2.2-2.5.1-5.1.2-7.6.2-.4 0-.8 0-1.3 0v-.1c0-.1 0-.2 0-.3h4.7c1.5 0 3.3-.2 4.9-.2z" fill="#878787"/><path d="m112 139.2h-.2v4.1.2c.5.8-.1.7-.5.7l-4.8-.2c-.6 0-1.3.1-1.6-.2s-.2-1.1-.2-1.7c-.1-3.3-.3-6.7-.4-10 0-.2-.1-.4-.1-.6-.3-1.9.5-3.8 2.1-4.9.9-.6 2-.6 2.9-.1 1.4.5 2.3 1.8 2.4 3.3 0 3.1.2 6.3.4 9.4zm-1.1 4.1v-7.3h-2.9v7.3zm-.1-8.1v-3.4l-1.2 2.4-.4-.2c.2-.7.5-1.4.9-2.1.5-.7.6-1.5.5-2.2 0-1.5-1.2-2.7-2.6-2.8.1 1.1.2 2.2.2 3.2v4.4c0 .5.1.8.7.7s1.3 0 1.9 0zm-3.5-.1v-8.3c-.9.2-1.6.8-2 1.7-.5 1-.7 2-.6 3.1.1 1.2.2 2.5.2 3.7zm-.2 8.1v-7.4h-2.3c.2 2.4.4 4.8.6 7.2z" fill="#000"/><path d="m108.9 75.8c1.1-.3 1.9.6 2.8.6-.6 3.3-1.1 6.5-1.7 9.8h-2.7c-1.3-3.5-2.5-6.9-3.7-10.2l1.2-.3.9-.2h.5 1.6.5c.3.2.5.4.6.3z" fill="#fbe948"/><path d="m111 72.9c.4.7.2 1.5-.5 1.9-.1 0-.1.1-.2.1.3-.7.4-1.3.7-2z" fill="#fbe948"/><path d="m110.9 136v7.3h-2.9v-7.3zm-1.9 6.2c.9-.7 1.4-1.8 1.4-2.9-.9.7-1.4 1.7-1.4 2.9zm-.6-1.2 1.7-3.5c-1.2.8-1.9 2.1-1.7 3.5z" fill="#95d6f1"/><path d="m110.7 131.8v3.4c-.6 0-1.3 0-1.9 0s-.7-.2-.7-.7c0-1.4.1-2.9 0-4.4 0-1.1-.2-2.1-.2-3.2 1.5.1 2.6 1.4 2.6 2.8.1.8 0 1.6-.5 2.2-.4.7-.7 1.4-.9 2.1l.4.2zm-.5-1.5-.3-.1-1.5 2.9.3.1c.6-.8 1.4-1.7 1.5-2.9z" fill="#95d6f1"/><g fill="#000"><path d="m109.9 130.2.3.1c0 1.2-.9 2-1.5 3l-.3-.1z"/><path d="m110.5 139.3c0 1.1-.6 2.2-1.4 2.9-.1-1.2.5-2.2 1.4-2.9z"/><path d="m110 86.2v.4c-1.3 0-2.7 0-4 .1-.3 0-.7.1-1 .1l-.1-.4 1.4-.3c-1.7-4.8-3.4-9.6-5.2-14.4l.3-.1 1.5 3c.3.6 1 1 1.7.8l.1.3-1.2.3c1.2 3.3 2.4 6.7 3.7 10.2z"/></g><path d="m109.2 72.2c.1 1-.4 1.9-1.1 2.6 0-1 0-1.8 0-2.7 0-.2.4-.5.5-.5s.6.4.6.6z" fill="#fbe948"/><path d="m109 171.9c-.1.5-.2.9-.4 1.3-1 1.8-2 3.5-3 5.2-.1.2-.3.4-.5.4-1 0-2 0-3.1 0 1-1.7 1.9-3.5 2.7-5.3.1-.2.2-.4.2-.6.4-.9 1.4-1.4 2.3-1.1.7.1 1.2.1 1.8.1z" fill="#3caa49"/><path d="m110.2 137.6-1.7 3.4c-.3-1.4.4-2.8 1.7-3.4z" fill="#000"/><path d="m112.2 92c-1.2 1.4-5.6 1.5-6.9.4z" fill="#878787"/><path d="m107.3 52.8c1.2 1.5 1.6 3.7.9 4.9-.9-.9-1.5-4-.9-4.9z" fill="#000"/><path d="m108.2 161.1c0 .1-.1.2-.1.2l-.8-.5c-.6-.4-1.5-.2-1.8.4 0 .3 0 .6.1.8s.2.4.4.5l-.1.2c-.3-.1-.6-.2-.9-.3s-.7-.3-1.1-.4c-.7-.2-1 .2-1.1.8s-.6.7-1.1.6c-.3 0-.6 0-.9 0 .1.4.2.9.4 1.3.2.2.6.4.8.5s.5.4.8.6c-.9.2-1.9-.2-2.5-.8-.4-.7-.4-1.5 0-2.2.5-.6 1.1-.6 1.9-.2.3-1.9 1.7-1.3 2.9-1.3 0-.9.7-1.2 1.4-1.3.5 0 1.3.4 1.7 1.1z" fill="#000"/><path d="m107.2 153.9c.2.8.4 1.6.6 2.6l-17.2-.3v-2c5.6-.1 11.1.3 16.6-.3z" fill="#b3b3b3"/><path d="m107.2 130.9v4.2l-2.4.1c0-1.2-.1-2.5-.2-3.7-.1-1.1.1-2.2.6-3.1.4-.8 1.1-1.5 2-1.7zm-1.7 1.4 1.5-2.6-.3-.2-1.5 2.6zm.3 1.2c.9-.7 1.1-1.2.6-2.1-.2.7-.4 1.4-.6 2.1zm-.6-2.9 1.9-3.1c-1.3.5-2.1 1.8-1.9 3.1z" fill="#95d6f1"/><path d="m107.1 135.9v7.4l-1.7-.2c-.2-2.4-.4-4.8-.6-7.2z" fill="#95d6f1"/><path d="m107 129.7-1.5 2.6-.3-.2 1.5-2.6z" fill="#000"/><path d="m106.4 131.4c.5.9.3 1.4-.6 2.1.2-.7.4-1.4.6-2.1z" fill="#000"/><path d="m106.2 151.4c.1.5.2 1.1.2 1.8l-14.1.4c-.1-.8-.2-1.4-.3-2.1h14.2z" fill="#b3b3b3"/><path d="m106.1 74.5-.5.1c-.2-.6-.3-1.2-.4-1.8 0-.2.2-.4.3-.6.2.1.5.3.5.4 0 .7 0 1.3.1 1.9z" fill="#fbe948"/><path d="m107.1 127.6-1.9 3.1c-.2-1.4.6-2.7 1.9-3.1z" fill="#000"/><path d="m104.6 171.9-.3.7c-.3.7-.6 1.3-1 1.9-.7 1.2-1.5 2.4-2.1 3.7-.2.4-.6.7-1.1.6-1 0-2 0-3.1 0 2-1.9 3.4-4.3 4.2-6.9z" fill="#3caa49"/><g fill="#000"><path d="m103.1 89.3s0 .1 0 0l-.3.1c-.1 0-.1-.1-.1-.2s0-.2 0-.3h.3.1c.1.1.1.3 0 .4z"/><path d="m103.1 88.9c-.2 0-.3 0-.4 0 0-.1.1-.2.2-.2z"/><path d="m103.1 89.4c-.1.1-.2.1-.3 0z"/><path d="m102.9 88.5v.1h-.3c-.2-.3-.2-.7-.1-1 0 .2.2.5.4.6v-.1c-.1.1 0 .2 0 .4z"/><path d="m102.6 88.6h.3c0 .1-.2.2-.3 0z"/><path d="m102.8 88.1v.1c-.2-.2-.3-.4-.4-.6.1-.2.4-.1.3.1.1.2.1.3.1.4z"/></g><path d="m101.8 130.1c.3 4 0 20-.4 20.4 0-.4 0-.6 0-.9 0-5.2 0-10.4 0-15.6 0-.9 0-1.7 0-2.5 0-.2-.2-.4-.4-.4-2.5 0-5 0-7.7 0v19.7l-.9.2v-20.8z" fill="#585856"/><path d="m100.6 131.8v7.5c-.6.1-1.3.3-1.8.6-.2.2-.1 1.1.1 1.4.5.4 1.1.7 1.7.9v8.3l-6.8.3v-19z" fill="#bd7a31"/><path d="m100.3 172c-.4.7-.7 1.4-1.1 2.1-.9 1.5-1.8 3-2.7 4.5-.1.2-.3.3-.6.3h-1.9v-.7c1.2-1.2 2.2-2.6 2.9-4.2 0-.1.1-.2.1-.4.9-1.8 1.2-2 3.3-1.6z" fill="#3caa49"/><path d="m95.9 56.5c1.4.4 2.7 1.9 2.7 3.1-1.3-.4-2.9-2.2-2.7-3.1z" fill="#000"/><path d="m94.4 80.2c1.1-1.5 3-2.1 3.9-1.2-1.1 1.2-2.4 1.2-3.9 1.2z" fill="#000"/><path d="m95.1 171.8h2c-1.1 2.2-2.1 4.2-3.1 6.2l.2.1v.7c-4.6 0-9.1 0-13.6 0-3.4 0-6.8-.3-10.2-.4-2.4-.1-4.8-.1-7.2-.3-2.9-.2-5.9-.5-8.8-1-3.2-.5-6.5-1.1-9.7-1.7s-6.4-1.2-9.5-1.8c-3.7-.5-7.3-1.3-11-2.2l.2-.6c.1 0 .3 0 .4-.1.9-1 2-1.9 2.2-3.4l.1-.4.5.1c3.5.5 7 1.1 10.6 1.6 3.2.4 6.4.9 9.7 1.2s6.7.7 10.1.9c2.4.2 4.8.2 7.1.3 4.9.3 9.8.5 14.7.8l-1.2 1.6.1.2c.3-.1.6-.2.8-.5 1.2-1.7 3-1.6 5-1.4l-2.9 3.3.2.2c.6-.3 1.1-.6 1.6-1 .6-.6 1.1-1.4 1.6-2.1.2-.3.5-.5.8-.5.9-.1 1.8 0 3 0-1 1.4-1.9 2.7-2.8 4 1.5-.6 2.8-1.7 3.5-3.2.1-.5.6-.8 1.1-.7h2.9c-.3.6-.7 1.2-1.1 1.7-.9 1.1-1.6 2.4-2 3.8.3-.1.6-.3.8-.6 1-1.4 2.4-2.4 2.9-4.2.1-.3.3-.6 1-.6z" fill="#3caa49"/><g fill="#000"><path d="m96.1 106.1v.5c-.7.9-1.2 1.7-1.8 2.5-1.1 1.2-2.2 2.4-3.3 3.7-2.2 2.6-4.4 5.2-6.6 7.7-.7.7-1.1 1.6-1.1 2.6h-.6v-.6c-.7.9-1.4 1.8-2 2.8-.3.5-.8.9-1.4.8l.1-.2c-.2-.2-.5-.3-.7-.4h-.2v-.5c.9.1 1.8-.4 2.2-1.2 2.2-2.9 4.6-5.7 7-8.4 2.5-2.9 5.2-5.7 7.7-8.7.2-.5.4-.6.7-.6z"/><path d="m95.8 103c-.8 1.1-1.5 2.3-2.3 3.3-1.4 1.6-2.9 3.2-4.4 4.7-.4.4-.9.9-1.3 1.4l-.6-.7c.8-1 1.8-1.5 1.8-2.9-.1-11.2 0-22.4 0-33.7 0-1.8.2-3.7.3-5.5 0-3-.9-4.8-4.5-4.9-5.2-.1-10.3 0-15.5 0-.4 0-.7-.1-.8-.3s-.1-.4 0-.6h4.2c3.8 0 7.5.1 11.3 0 2.1 0 4.1.6 5.8 1.9 1.4.9 2.5 2.1 3.3 3.6.3.5.2 1-.2 1.4-.2.4-.2.8 0 1.2 0 .1.5.2.8.2.6.1 1.1.1 1.7.2v.4h-2.4v32.8zm-5.2-23.4c.6-2.1 1.1-4.2 1.6-6.2-.1 0-.2-.1-.3-.1-.4 1.1-.7 2.2-1.2 3.4-.3-2.1.4-3.8 1.1-5.5.4-.7.3-1.6-.2-2.3-.2.5-.3.9-.4 1.3-.5 1.2-.8 2.5-1 3.8-.1 6 .1 11.9.1 17.9v.9c1.7-3.9 1.8-4.2 1.5-5.5l-1.1 2.2c-.3-1.2.3-2.2.7-3.2.3-.8.5-1.6.7-2.4l-.3-.1c-.2.3-.4.7-.7 1l-.4-.1c1.5-2.3 1.1-4.7 1.1-7.3l-1.2 2.4zm-.2 21.5c.7-1.6 1.9-2.9 1.4-4.8-1.4 2.1-1.7 3.1-1.4 4.8zm0-4c.2-1.8 1.9-3.3 1.4-5.4-.8 1.8-2 3.4-1.4 5.4zm.8 7.5c.6-1.1.8-2.4.6-3.6-1.4 1.7-1.9 4-1.4 6.1.2-.8.4-1.7.8-2.5zm-.4 3.1c.8-.5 1.5-.9 1-2.1zm0-38.5c.4-.7.2-1.6-.5-2h-.1c-.1 1.3-.1 2.5-.2 3.8h.2c.2-.6.4-1.2.6-1.8z"/><path d="m95.2 65.1c-1.3.4-3.5-1-3.6-2.5 1.3.5 2.6 1.4 3.6 2.5z"/></g><g fill="#878787"><path d="m92.2 73.3c-.6 2.1-1.1 4.2-1.6 6.2l.2.1 1.2-2.4c0 2.6.3 5-1.1 7.3l.4.1c.2-.3.4-.7.7-1l.3.1c-.2.8-.4 1.6-.7 2.4-.4 1-1 2-.7 3.2l1.1-2.2c.3 1.4.2 1.7-1.5 5.5 0-.4 0-.7 0-.9 0-6-.2-11.9-.1-17.9.2-1.3.5-2.6 1-3.8.1-.4.3-.8.4-1.3.5.6.6 1.5.2 2.3-.7 1.7-1.4 3.4-1.1 5.5.4-1.3.8-2.3 1.2-3.4-.1.2 0 .2.1.2z"/><path d="m91.8 96.4c.5 1.8-.7 3.2-1.4 4.8-.3-1.8 0-2.8 1.4-4.8z"/><path d="m91.8 91.7c.5 2.2-1.2 3.6-1.4 5.4-.6-2 .6-3.6 1.4-5.4z"/><path d="m91.8 101c.2 1.3 0 2.5-.6 3.6-.3.8-.6 1.6-.8 2.5-.5-2.1 0-4.4 1.4-6.1z"/><path d="m91.8 105.7c.5 1.2-.2 1.6-1 2.1z"/><path d="m90.2 67.2c.7.3 1 1.2.7 1.9v.1c-.2.6-.4 1.2-.6 1.8h-.3c.1-1.2.2-2.5.2-3.8z"/></g><path d="m90.3 149.3c-1.4.3-2.1-.2-2-1.6z" fill="#000"/><path d="m84.9 64.7c3.6 0 4.5 1.9 4.5 4.9 0 1.8-.3 3.7-.3 5.5 0 11.2-.1 22.4 0 33.7 0 1.4-1 1.9-1.8 2.9v-1.1c0-9.9-.1-19.8-.1-29.8.1-1.6-.3-3.3-1.1-4.7-1-1.5-2-3-3.9-3.3-1-.2-2-.3-3-.4-3.1 0-6.2.1-9.2.1-.6 0-.8.2-.9.8h-.3c.2-1.3.3-2.5.3-3.8 0-1.7-.2-3.4-.8-5l.4-.2c.1.3.4.3.8.3 5 .1 10.2.1 15.4.1z" fill="#9c9c9b"/><g fill="#000"><path d="m87.4 145.8c.7-.5 1.7-.5 2.2.2-1.1.6-1.8.5-2.2-.2z"/><path d="m87.3 111.7.6.7c-3 3.2-5.7 6.7-8.4 10.2-.6.8-1.2 1.5-1.8 2.3h.5.3v.6c-.5 0-.9 0-1.4 0-.3-.1-.6-.2-.8-.3 1.8-2.2 3.4-4.3 5.1-6.4 1.5-1.9 3.1-3.7 4.6-5.6.1-.2.2-.5.2-.7 0-9.5 0-19 0-28.5 0-1.2 0-2.3.1-3.5.2-1.8-.7-3.2-1.6-4.7-1.1-1.8-2.8-2.3-4.7-2.3l-10.2-.2c-.2 0-.4 0-.7 0 0-.6.3-.8.9-.8 3.1 0 6.2-.1 9.2-.1 1 0 2 .1 3 .4 1.9.4 2.9 1.8 3.9 3.3.8 1.4 1.2 3.1 1.1 4.7.1 9.9.1 19.8.1 29.8z"/><path d="m87.6 141.5c.2 1-.5 2-1.5 2.1-.3.1-.7 0-1-.1z"/></g><path d="m84.6 75.8c.9 1.5 1.8 2.9 1.6 4.7-.1 1.2-.1 2.3-.1 3.5v28.5c0 .3 0 .5-.2.7-1.5 1.9-3.1 3.7-4.6 5.6-1.7 2.1-3.3 4.2-5.1 6.4.3.1.5.2.8.3h1.4.2c.3.1.5.2.7.4l-.1.2c.6 0 1.2-.3 1.4-.8.6-1 1.3-1.9 2-2.8v10.6h-.8c-7.9 0-15.8 0-23.6 0-2.3 0-4.6.2-6.9.3-.1-19.2.1-38.5-.3-57.9h1.5l15.3-.2h.1c.3 0 .5-.1.8-.1 0-.5 0-1 0-1.4 0-.2 0-.4 0-.7h.3.7l10.2.2c1.9.2 3.6.7 4.7 2.5zm-1.9 31.2c0-1 0-2-.2-2.9-.5-2.3-1.8-4.4-3.7-5.8-1.1-1-2.4-1.8-3.7-2.4-2-.7-4.2-1.1-6.3-1.2-1.3.2-2.6.3-3.8.6-3 .7-5.2 2.8-7.2 5-1.2 1.1-1.9 2.6-2 4.2 0 .6 0 1.1.6 1.3s1.3 0 1.6-.6c2-3.4 5.3-5.8 9.1-6.6 2.8-.6 5.7-.3 8.2 1 2.5 1.4 4.3 3.9 4.9 6.7.2.6.5 1.1.9 1.5.3.2.7.3 1.1.1.2-.2.4-.5.5-.9zm-5.3 1.6c.6-.3 1-1 .8-1.6-.3-1.8-1-3.4-2.2-4.8-1.8-2-4.1-2.6-6.7-2.7s-5.2 1-6.9 2.9c-1.1 1.1-1.7 2.6-1.7 4.1 0 .5.4 1 .9 1h.2c.6 0 1.2-.4 1.4-1 .7-1.6 2.1-2.8 3.7-3.5 2.4-.9 5-.3 6.8 1.6.7.9 1.3 2 1.7 3.1.3.8 1.2 1.2 2 .9zm-8 2.7c1.6.1 2.9-1.1 3-2.7v-.1c-.1-1.7-1.4-3-3.1-3.1-1.6.1-2.9 1.4-2.8 3.1-.1 1.4.9 2.7 2.3 2.8.2.1.4.1.6 0z" fill="#95d6f1"/><path d="m85.3 149.1c.5 2.2.3 4.5-.4 6.6l-15.4 2.2c.3-1.4.2-2.8-.3-4.2-1.6-4.6-7.5-5.9-10.5-3.4-1.6 1.4-2.7 3.4-3 5.5 0 .6 0 1.1.2 1.7h-8.7c.7-2 .6-4.1-.1-6.1-.5-1.2-1.2-2.2-1.9-3.3-.4-.7-.6-1.5-.6-2.2 0-.6.4-1.2 1-1.4 1-.4 2.1-.6 3.2-.5 2.3.2 4.7.2 7.1.1 2.6-.1 5.2-.4 7.8-.7.8-.1 1.6-.2 2.3-.4.4-.1.7-.3 1-.5l.2-.1c3.4 1.1 7 1.6 10.7 1.4 1.3 0 2.6.2 3.9.3v.2c-.6.1-1.2.2-1.8.3-.8.2-1.4.7-1.7 1.4-.6 1.4.3 2.7 2.2 2.8 1.4.4 3.1.3 4.8.3zm-32.7-1.4c.2-.2.3-.4.3-.7-.2-.6-.7-.8-1.3-.4-.8-.6-1.7-.2-2.5 0-.2.1-.4.3-.6.5.2.2.4.4.6.6 1.1.3 2.3.3 3.5 0z" fill="#e6352c"/><path d="m84.8 155.6.3.3c-.3.2-.6.4-1 .5-2.2.5-4.3 1-6.5 1.4-2.8.4-5.5.7-8.3 1-.2 0-.4.2-.5.3-1.8 2.6-4.4 3.2-7.3 2.9-1.6 0-3.1-.7-4.3-1.8-.2-.3-.6-.5-.7-.9-.3-.9-.9-.9-1.7-.9-3 .1-6.1.1-9.1.2-.6 0-1.1-.1-1.6-.2l.2-.9h1.8c.1-.5.2-.9.3-1.4.1-1.1.1-2.2 0-3.2-.3-1.6-1-3.2-2.1-4.5-.8-1.1-.8-2.7.1-3.8l.4.2c-.2.3-.3.6-.3 1-.1.8.1 1.6.6 2.2.7 1 1.4 2.1 1.9 3.2.8 1.9.8 4.1.1 6.1h8.7c-.1-.5-.2-1.1-.2-1.7.3-2.1 1.4-4.1 3-5.5 3-2.4 8.9-1.1 10.5 3.4.5 1.3.6 2.8.3 4.2zm-19.4 4.4c1.6-.6 2.6-2.1 2.5-3.8 0-2.2-1.4-4.2-3.5-5-1.7-.7-3.6-.8-5 .5s-2.8 2.8-2.3 5.1c.2 1.7 1.4 3.1 3 3.6 1.7.5 3.6.4 5.3-.4z" fill="#000"/><path d="m83.2 145.1c1 .5 1.7 1.5 1.8 2.7-1.6.1-3.1.2-4.7.1-.6 0-1.3-.1-1.5-.9-.1-.7.3-1.3.9-1.5.3-.1.7-.2 1-.3h.3c.8-.1 1.4-.6 2.2-.1z" fill="#f29220"/><path d="m82.4 104.1c.2 1 .3 1.9.2 2.9 0 .4-.2.7-.6.9-.4.1-.8.1-1.1-.1-.4-.4-.7-1-.9-1.5-.6-2.8-2.4-5.3-4.9-6.7-2.5-1.3-5.4-1.6-8.2-1-3.8.8-7.1 3.2-9.1 6.6-.3.6-1 .9-1.6.6-.6-.2-.6-.8-.6-1.3.1-1.6.8-3.1 2-4.2 2-2.2 4.2-4.3 7.2-5 1.3-.3 2.6-.4 3.8-.6 2.2.1 4.3.5 6.3 1.2 1.3.6 2.6 1.5 3.7 2.4 2.1 1.4 3.4 3.5 3.8 5.8zm-.6 2.6c0-.2 0-.4-.1-.6 0-2.7-1.3-5.3-3.5-7-1.4-1.1-2.7-2.3-4.4-2.7-1.5-.3-3-.5-3.9-.7-3-.1-5.4.2-7.4 1.5-1.8 1.1-3.4 2.6-4.7 4.2-.7.8-1.1 1.8-1.1 2.8 0 .2.2.4.3.7.2-.1.4-.2.6-.4.7-1.1 1.5-2.1 2.4-3.1 2.8-2.8 6.7-4.2 10.7-3.9 1.9.1 3.8.6 5.4 1.6 2.1 1.4 3.7 3.4 4.5 5.8.2.6.3 1.3.5 1.9.1.2.3.3.5.5.1-.2.2-.4.2-.6z" fill="#000"/><path d="m82.6 134.2v9.3c-2.7-1-5.4-.6-8.1-.8-2.5-.2-4.9-.6-7.4-.9-.3-.1-.6-.3-.8-.5-.3-.3-.6-.5-.8-.8l.2-.2c.3.2.6.3.9.4.8.1 1.7.1 2.5.1l8.4.1c1.5-.2 2.5-1.6 2.3-3.1-.1-.6-.4-1.1-.8-1.5-.6-.5-1.4-.7-2.2-.7-3.2.1-6.4.1-9.6.2-.7 0-1.4.1-2.1.3l-.3.1c-.9.2-1.6 1-1.6 1.9 0 .1-.1.3-.1.4 0 0 0 0-.2.1-2.5-1.8-4.9-3.6-8-4.3z" fill="#c7c6c5"/><path d="m81.7 106.1c0 .2.1.4.1.6s-.1.4-.2.6c-.2-.2-.5-.3-.5-.5-.2-.6-.2-1.3-.5-1.9-.8-2.4-2.4-4.5-4.5-5.8-1.6-1-3.5-1.5-5.4-1.6-4-.3-7.8 1.2-10.7 3.9-.9 1-1.7 2-2.4 3.1-.2.2-.4.3-.6.4-.1-.2-.3-.5-.3-.7.1-1 .5-2 1.1-2.8 1.3-1.7 2.9-3.1 4.7-4.2 2-1.3 4.4-1.6 7.4-1.5.9.2 2.4.4 3.9.7 1.8.3 3.1 1.6 4.4 2.7 2.2 1.6 3.5 4.2 3.5 7z" fill="#fbe908"/><path d="m79.1 136.1c1.1 1.1 1.1 2.8 0 3.9-.4.4-.9.7-1.5.8l-8.4-.1c-.8 0-1.7 0-2.5-.1-.3-.1-.6-.2-.9-.4 0-.1 0-.2 0-.3.7-.1 1.4-.2 2.1-.2h9.4c.7.1 1.3-.4 1.5-1 .2-.5.1-1.1-.1-1.5-.4-.6-1.1-.8-1.7-.6-.4.1-.8.1-1.2.1-3.3 0-6.6-.1-9.9-.2-.1 0-.3 0-.4 0l-.1-.6c.7-.2 1.4-.3 2.1-.3 3.2-.1 6.4-.1 9.6-.2.5 0 1.3.2 2 .7z" fill="#000"/><path d="m78.6 137.1c.2.5.3 1 .1 1.5-.2.6-.8 1.1-1.5 1-3.1 0-6.3 0-9.4 0-.7 0-1.4.1-2.1.2v.3l-.2.2c-.3-.3-.6-.6-.9-.9-.6-.6-.7-1.5-.3-2.2.2-.4.6-.8 1.1-.8h.4c3.3.1 6.6.1 9.9.2.4 0 .8 0 1.2-.1.6-.1 1.3.1 1.7.6z" fill="#c7c6c5"/><path d="m78.2 107c.2.7-.1 1.4-.8 1.6-.8.3-1.7-.1-2-.9-.4-1.1-1-2.1-1.7-3.1-1.7-1.9-4.4-2.5-6.8-1.6-1.7.6-3 1.9-3.7 3.5-.2.6-.8 1-1.4 1-.5.1-1-.3-1.1-.8 0-.1 0-.1 0-.2 0-1.6.6-3 1.7-4.1 1.7-2 4.3-3.1 6.9-2.9 2.6.1 4.9.7 6.7 2.7 1.1 1.4 1.9 3 2.2 4.8zm-1.4.8c.2 0 .5-.3.5-.5-.1-.7-.2-1.4-.4-2-.4-1.4-1.2-2.6-2.4-3.5-2.4-1.6-5.5-2-8.3-1-2.1.8-3.8 2.4-4.7 4.5-.4.8 0 1.4.6 1.5.5-1 1.1-2 1.9-2.8 2.3-2.4 6-2.9 8.9-1.2 1.8.9 3 2.7 3.3 4.7 0 .1.3.3.6.3z" fill="#000"/><path d="m77.2 107.4c0 .1-.3.5-.5.5s-.6-.2-.6-.4c-.3-2-1.5-3.7-3.3-4.7-2.9-1.7-6.6-1.2-8.9 1.2-.7.9-1.4 1.8-1.9 2.8-.6 0-1-.6-.6-1.5.8-2.1 2.6-3.7 4.7-4.5 2.8-1 5.8-.6 8.3 1 1.1.9 2 2.1 2.4 3.5.2.7.4 1.4.4 2.1z" fill="#fbe908"/><path d="m72.4 108.6c0 1.6-1.3 2.8-2.9 2.8h-.1c-1.4.2-2.7-.8-2.8-2.3 0-.2 0-.3 0-.5-.1-1.6 1.1-3 2.8-3.1 1.6.1 2.9 1.5 3 3.1zm-3.3 1.5c1.1 0 1.8-.6 1.8-1.5-.1-.9-.8-1.6-1.8-1.7-1.2 0-1.8.5-1.8 1.3.1 1.3.6 1.9 1.8 1.9z" fill="#000"/><path d="m71 108.6c0 .9-.8 1.5-1.8 1.5-1.2 0-1.7-.6-1.7-1.9 0-.8.7-1.3 1.8-1.3.9.1 1.6.8 1.7 1.7z" fill="#fbe908"/><path d="m69 69.5c0 1.3-.1 2.5-.3 3.8v.7 1.4c-.2 0-.5.1-.8.1v-.7c0-1.7.1-3.4 0-5.1 0-2.1-.6-4.2-1.7-6-1.7-2.4-4-2.8-6.5-2.7-1.2.1-2.4.2-3.6.5l-.1-.6c1.5-1.1 3.3-1.6 5.1-1.3 2.4 0 4.7 1.2 6.1 3.2.4.6.7 1.2 1 1.8.6 1.5.9 3.2.8 4.9z" fill="#000"/><path d="m67.9 156.1c.1 1.7-.9 3.3-2.5 3.9-1.7.8-3.6.9-5.4.3-1.6-.5-2.8-1.9-3-3.6-.4-2.3.9-3.8 2.3-5.1s3.3-1.2 5-.5c2.1.8 3.5 2.8 3.6 5zm-3.1-.5c0-1-.9-1.9-1.9-1.9-1.1.2-2 1-2.3 2.1.2 1 1 1.8 2 1.9 1.1-.2 2-1 2.2-2.1z" fill="#3d3d3c"/><g fill="#000"><path d="m66.6 142.1.2.4c-.3.2-.6.4-1 .5-.8.2-1.6.3-2.3.4-2.6.2-5.2.6-7.8.7-2.4.1-4.7.1-7.1-.1-1.1-.1-2.1.1-3.2.5-.3.1-.5.2-.7.4l-.4-.2c.5-.5 1.1-.9 1.8-1-1.9-1.6-3.4-5-2.8-6.3.1 0 .1.1.2.2.8 1.4 1.6 2.8 2.4 4.1.3.4.7.7 1.2.9.6.2 1.3.2 1.9.2 2.4 0 4.8.1 7.2 0 3.5-.2 6.9-.5 10.4-.7z"/><path d="m65.6 66.7c1 .6 1.2 1.7.7 3.3h-.3c-.1-1-.2-2.1-.4-3.3z"/><path d="m63.6 65.5c1.5 1 2.1 2.9 1.3 4.6-.5-1.5-.9-3-1.3-4.6z"/><path d="m62.8 153.6c1 0 1.9.9 1.9 1.9-.2 1.1-1.1 1.9-2.2 2-1-.1-1.8-.9-2-1.9.4-1 1.3-1.8 2.3-2zm.3 2.3c.3-.5.1-.9-1-1.4-.7.7-.7 1.2-.2 1.6s.9.3 1.2-.2z"/></g><path d="m62.1 154.4c1.1.6 1.3 1 1 1.4s-.8.4-1.2.1-.4-.7.2-1.5z" fill="#1d1d1b"/><path d="m57.6 136.5c-4.6 0-9.2-.3-13.8.3v.3l-.3.2c-.6 1.3.9 4.8 2.8 6.3-.7.1-1.3.5-1.8 1-.9 1.1-.9 2.6-.1 3.8 1.1 1.3 1.8 2.8 2.1 4.5.1 1.1 0 2.2 0 3.2-.1.5-.1 1-.3 1.4h-1.8c.3-2.6-.1-5-1.9-6.9-1.3-1.5-3.2-2.3-5.2-2.3-4 .2-7.1 2.6-6.9 8.5-.4 0-.7-.1-1.1-.1l-8.5-.2c-.7 0-1.4-.1-2.1-.2-1.3-.1-1.9-1.2-2.5-2.2-.3-.5-.6-1.1-.9-1.6-.8-1.7-1.2-3.6-1.1-5.5 0-.5.3-.6.7-.7 2.1-.3 4-1.3 5.5-2.8.7-.8 1.3-1.7 1.9-2.6.9-1.3 1.8-2.6 2.8-3.9.6-.8 1.6-1.2 2.6-1.3 3.7-.1 7.3-.4 11-.6l6.9-.3c3.2-.2 6.5 0 9.7.6.8.5 1.6.8 2.3 1.1zm-15.7 7c1.2-.1 1.5-.7.9-1.7s-1.2-2-1.8-3c-.2-.3-.6-.6-.3-1.1 0-.1-.2-.5-.4-.5-.5-.1-.9-.2-1.4-.2-2 .1-3.9.3-5.8.2-3.2-.1-5.3 1.5-6.8 4.1-.6 1.1-.3 1.6 1 1.6h2.1c3 .2 6 .5 8.9.7v-.1c1.1.1 2.4.1 3.6 0z" fill="#be2126"/><path d="m56 60.9.1.6h-.1c-.6.1-.9-.1-1-.6-.2-1-.5-2.1-.8-3.1-.7-2.4-1.9-4.7-3.6-6.6-3.7-4.3-8-7.1-13.9-6.3-2.4.3-4.6 1.4-6.3 3-1.5 1.5-2.7 3.4-3.3 5.5-.3 1.1-.7 2.1-1.2 3.3-.3-.4-.5-.6-.6-.8s-.5-.7-.8-.8c-2.8-.8-5.7-.9-8.5-.2-2.2.5-4.1 1.9-5.3 3.8-.79999 1.6-1.19999 3.4-.89999 5.2 0 .4-.1.7-.1 1.1-1-1.4-2.2-.9-3.3-.7-.6.2-1.1.4-1.7.6-2.6.9-3.5 3-3.5 5.4.1 1.4.4 2.9.8 4.2l-.5.1c0-.1-.1-.2-.1-.3-.4-.3-.699999-.8-.999999-1.4-.7-2.1-.40000015-4.4.799999-6.3.6-.9 1.4-1.6 2.3-2.1 1.3-.7 2.7-1.1 4.2-1.1.3 0 .6.1 1 .1v-1.1c-.1-2.9 1.39999-5.5 3.79999-7 3.3-2.1 6.9-2.4 10.6-1.6.7.2 1.5.4 2.2.6.4-1.2.8-2.4 1.4-3.5 1.4-3.3 4.2-5.8 7.6-6.8 4.9-1.6 9.3-.5 13.4 2.4 2.3 1.7 4.3 3.9 5.9 6.4 1.5 2.3 2.3 5.1 2.4 8z" fill="#000"/><path d="m52.9 147c0 .3-.1.5-.3.7-1.2.4-2.4.4-3.6 0-.2-.1-.4-.4-.6-.6.2-.2.4-.4.6-.5.8-.2 1.7-.6 2.5 0l-2 .3v.3l2.5-.2c0-.1 0-.1 0-.2l-.5-.3c.6-.3 1.2-.1 1.4.5z" fill="#000"/><path d="m52.1 147v.2l-2.5.2c0-.1 0-.2 0-.3l2-.3z" fill="#585856"/><path d="m49.2 75.6h.8c-.3 19.4 0 38.7-.2 58h-3c0-.3 0-.5 0-.8 0-11.6 0-23.2 0-34.8 0-6.3 0-12.6 0-18.8 0-1.1-.1-2.1-.2-3.2-.1 0-.2 0-.3 0v-.4z" fill="#9c9c9b"/><path d="m45.8 96.3v24.1c0 .3-.1.6-.3.8-.3.4-.7.8-1.1 1.2-1 1.1-2.5 1.4-3.8.9-1.4-.3-2.5-1.5-2.7-2.9 0-.6.2-1.2.4-1.8.1-.3.2-.6.3-1.2-1 .2-1.7.5-2.5.5-1.2.2-2.3-.2-3.2-1-.4-.5-.7-1-.8-1.7 0-.4 0-.9.2-1.3.2-.5.7-.8 1-1.4-.9.2-1.9.4-2.8.7-2.5.7-5.1-.6-6.1-3-.4-1.1-.2-2.3.5-3.1 1-1.5 2.6-2.5 4.4-2.6.2 0 .4-.1.6-.3 0 0-.1-.4-.2-.4-.9-.4-.7-1.2-.6-1.9.4-2.8 3.8-5.3 6.6-4.6.8.1 1.6.4 2.1 1 .2.2.4.2.7.1.1-.1.2-.4.2-.7 0-.1 0-.3-.1-.4-.6-.2-.9-.8-.7-1.4.1-.3.2-.6.4-.8.5-.8 1.2-1.4 2-1.7 1.8-.5 3.8.1 4.9 1.6.3.6.5.9.6 1.3z" fill="#3caa49"/><path d="m45.7 122.7v11.1c-.7-.9-1.3-.6-1.9-.1-.2.1-.5.2-.8.1-1.4 0-2.8 0-4.2 0 .4-1.4.3-3-.2-4.4 0-.3.1-.6.3-.8 1.3-.8 2-2.3 1.8-3.9 1.9.1 3.7-.1 5-2zm-1.7 9c.3-2 .7-4.1-.5-6 0 2-.5 4 .5 6zm-1 1c-.3-2.3-.1-4.5-1.1-6.6-.4 1.9.3 6.2 1.1 6.6zm-2.1.8c.8-1.4.5-4.8-.5-5.6.3 1.9 0 3.8.5 5.6z" fill="#c6853e"/><path d="m42.5 150.6c1.8 1.9 2.2 4.3 1.9 6.9l-.2.9c-.5 1.4-1.4 2.5-2.7 3.2-3.3 2-7.8 1.5-9.9-1.8-.2-.2-.3-.4-.4-.7-.2-1.3-1-1.4-2.1-1.4-3.1-.1-6.1-.3-9.2-.4-2.2-.1-3.5-1.5-5-3.1l-.2.1-.2-.4.2-.1c-.4-1.6-.8-3-1-4.5 0-.8.1-1.6.2-2.4h.4c-.1 1.9.3 3.8 1.1 5.5.3.5.5 1.1.9 1.6.6 1 1.2 2 2.5 2.2.7.1 1.4.1 2.1.2l8.5.2c.4 0 .7.1 1.1.1-.2-5.8 2.9-8.2 6.9-8.5 1.9.1 3.8.9 5.1 2.4zm.4 7.1c.1-1 .1-2-.1-3.1-.5-3.1-3.3-5.2-6.4-4.8h-.1c-2.8.6-4.9 2.9-5.1 5.8.1.9.3 1.8.5 2.6.8 2.2 2.9 3.6 5.3 3.6 2.7.2 5.6-1.7 5.9-4.1z" fill="#000"/><path d="m43.6 125.7c1.1 1.9.7 4 .5 6-1.1-2-.6-4-.5-6z" fill="#000"/><path d="m42.9 154.6c.2 1 .2 2 .1 3.1-.3 2.4-3.3 4.2-6 4.1-2.3 0-4.4-1.4-5.3-3.6-.2-.9-.4-1.7-.5-2.6.3-2.8 2.3-5.2 5.2-5.8 3.1-.5 6 1.5 6.5 4.6-.1.2 0 .2 0 .2zm-2.3 1.3c.4-1.3-.4-2.7-1.7-3.1-.1 0-.3-.1-.4-.1-2.4-.2-3.3.3-4 2.6-.6 1.6.3 3.3 1.8 3.8.3.1.7.2 1 .2.5-.2 1.1-.4 1.5-.7 1-.6 1.6-1.6 1.8-2.7z" fill="#3d3d3c"/><g fill="#000"><path d="m42.8 141.8c.6 1 .2 1.6-.9 1.7s-2.5.1-3.7.2v.1c-3-.2-5.9-.5-8.9-.7-.7-.1-1.4 0-2.1 0-1.2 0-1.5-.6-1-1.6 1.5-2.7 3.6-4.2 6.8-4.1 2 0 3.9-.2 5.8-.2.5 0 1 .1 1.4.2.2.1.5.4.4.5-.3.5.1.8.3 1.1.7.8 1.3 1.8 1.9 2.8zm-.8.6c0-.2 0-.3-.1-.5-.6-1.2-1.2-2.4-1.8-3.5-.2-.2-.4-.3-.7-.3-.7 0-1.4 0-2.1.1-1.9.1-3.9.1-5.8.3-1.9.3-3.5 1.6-4.2 3.5 4.8.1 9.7 1 14.7.4z"/><path d="m42 126.1c.9 2.1.8 4.3 1.1 6.6-.9-.4-1.6-4.7-1.1-6.6z"/><path d="m41.2 81.4c0 .1-.1.4-.3.5-1.3 1-2.7 2-3.9 3-1 .8-1.9 1.8-2.8 2.7-.3.3-.7.6-1.1.9-.2.1-.6-.1-.8-.2-2.5-2-5.1-4-7.6-6-.3-.3-.6-.6-.9-1l.2-.3.5.1c0-.1 0-.3 0-.3 1-.1 2-.2 2.9-.2 2 0 4.1.2 6.1.2 1.5 0 3 0 4.5.1h2.8c.1.1.3.3.4.5zm-2 .4c-.4 0-.7 0-.9 0-1.1 0-2.2.1-3.3.1-3.3-.2-6.6-.4-9.9-.6v.2l7.7 6.1c2.1-1.9 4.2-3.8 6.4-5.8z"/><path d="m40.5 127.9c1 .8 1.3 4.3.5 5.6-.6-1.8-.3-3.7-.5-5.6z"/><path d="m38.5 152.7c1.4.2 2.3 1.4 2.2 2.8 0 .1 0 .3-.1.4-.2 1.1-.8 2.1-1.8 2.7-.5.3-1 .5-1.5.7-1.7 0-3-1.3-3-3 0-.3.1-.7.2-1 .7-2.2 1.6-2.8 4-2.6zm.7 3.4c.5-1.2-.2-2.1-1.6-2.1-1-.1-1.7.6-2.2 1.5-.5.7-.3 1.7.5 2.2.1.1.2.1.3.2 1.3.5 2.4-.1 3-1.8z"/></g><path d="m39.7 124.9c0 2-1.7 3.6-3.7 3.6-.2 0-.3 0-.5 0-.4-.2-.8-.4-1.2-.7-.7-.5-.9-.5-1.5.2-1 1.2-4.1 2.9-6 2.1-.9-.2-1.5-.9-1.7-1.8-.2-.3-.5-.6-.8-.6-.5 0-1.1.1-1.5.3-2.5.8-3.7-1-4-2.8-.2-2 1-3.8 2.9-4.3.2 0 .3-.1.5-.1.2-.2.4-.3.6-.5-.2-.1-.4-.3-.6-.5-.3-.3-.7-.5-.8-.9-.4-2.1.9-4.1 2.9-4.7.3-.1.7-.2 1-.2.6-.1 1.2.1 1.7.3 1.4.6 3 .6 4.4 0v1.3c.2 2.9 2.5 4.1 5.4 3.8-.5 2.3.7 3.9 2.5 5.1.2-.2.3.1.4.4z" fill="#098d45"/><path d="m39.4 79.1c0 .4-.1.7-.7.7-3.1 0-6.2-.1-9.3-.1-.9 0-1.7.1-2.5 0-.2 0-.6-.3-.6-.4 0-.8 0-1.6 0-2.4 0-.1.1-.2.1-.2h1.7l8.7-.2h2.5c0 .9 0 1.8.1 2.6zm-1-.1c0-.6 0-1 .1-1.4l-11.3-.3c.1.6.1 1.2.2 1.7z" fill="#000"/><path d="m37.6 154c1.4 0 2.1.9 1.6 2.1-.6 1.6-1.8 2.3-3.1 1.7-.8-.3-1.2-1.2-.9-2 0-.1.1-.2.2-.3.5-.9 1.2-1.6 2.2-1.5z" fill="#1d1d1b"/><path d="m38.3 81.8h.9c-2.2 2-4.3 3.9-6.3 5.8l-7.7-6.1c0-.1 0-.1 0-.2l9.9.6c1 .1 2.1-.1 3.2-.1z" fill="#95c13d"/><path d="m38.7 97.4c.1.1.1.2.1.4s0 .6-.2.7-.5 0-.7-.1c-.6-.6-1.3-.9-2.1-1-2.8-.8-6.1 1.8-6.6 4.6-.1.7-.3 1.5.6 1.9.1 0 .2.4.2.4-.2.2-.4.3-.6.3-1.8.1-3.4 1.1-4.4 2.6-.7.9-.9 2.1-.5 3.1 1 2.4 3.6 3.7 6.1 3 .9-.2 1.9-.5 2.8-.7-.3.6-.8 1-1 1.4s-.3.8-.2 1.3h-.8c0-.4 0-.8 0-1.3-1.4.6-3 .6-4.4 0-.5-.3-1.1-.4-1.7-.3v-.4l.3-.3c-.3-.1-.5-.2-.8-.4-1.9-1.7-2-4.5-.4-6.4l.1-.1c.9-1 2-1.8 3.2-2.3.2-.1.4-.4.5-.7-.1-2 .8-3.9 2.3-5.1 1.9-1.7 3.7-2.1 6.7-1.4 0-.2.1-.4.1-.6l.8.2c-.2.5.1 1 .6 1.2z" fill="#000"/><path d="m38.5 77.5c0 .4 0 .9-.1 1.4h-11c0-.5-.1-1.1-.2-1.7z" fill="#95c13d"/><path d="m26.8 167-.1.4c-1 .2-2.7 2.3-2.7 3.1 0 .1.1.3.1.3l-.2.6-.5-.1c-1-.2-2-.4-3-.6 1.3-1.2 2.4-2.7 3-4.4 1.3.2 2.4.5 3.4.7z" fill="#3caa49"/><path d="m26.8 167.4c-.2 1.5-1.3 2.4-2.2 3.4-.1.1-.2.1-.4.1-.1 0-.1-.2-.1-.3-.1-1 1.7-3.1 2.7-3.2z" fill="#000"/><path d="m20.1 165.5 3 .8-3.1 4-2.3-.8z" fill="#3caa49"/><path d="m16.7 58.6c.6-.6 1.4-.7 2.1-.3-2 .8-3 2.5-4.4 3.9.2-1.7 1.2-2.6 2.3-3.6z" fill="#000"/><path d="m17.2 164.5 2.2.8c-.9 1.3-1.8 2.5-2.7 3.7-.1.1-.3.2-.5.2-.7-.3-1.4-.6-2-.9z" fill="#3caa49"/><path d="m13.1 58.7c1.1-1 2.1-2.2 4-1.5-2.4.7-4.3 2.7-4.9 5.1-.5-1.3-.2-2.8.9-3.6z" fill="#000"/><path d="m16.2 164.3c-.8 1.2-1.7 2.3-2.5 3.5v.1l-1.7-.7-.3-.1c.3-.3.1-.6 0-.9-.4-1.4-1-2.7-1.4-4-.1-.6-.2-1.1-.2-1.7l.2-.1c.6 1.1 1.5 1.9 2.7 2.3 1 .5 2.1 1.1 3.2 1.6z" fill="#3caa49"/></g></svg>