<svg fill="none" height="180" viewBox="0 0 183 180" width="183" xmlns="http://www.w3.org/2000/svg" xmlns:xlink="http://www.w3.org/1999/xlink"><linearGradient id="a"><stop offset="0" stop-color="#ff9085"/><stop offset="1" stop-color="#fb6fbb"/></linearGradient><linearGradient id="b" gradientUnits="userSpaceOnUse" x1="118.488" x2="150.644" xlink:href="#a" y1="33.3729" y2="135.686"/><linearGradient id="c"><stop offset="0" stop-color="#e38ddd"/><stop offset="1" stop-color="#9571f6"/></linearGradient><linearGradient id="d" gradientUnits="userSpaceOnUse" x1="176.595" x2="218.941" xlink:href="#c" y1="47.9285" y2="-28.7823"/><linearGradient id="e"><stop offset="0" stop-color="#aa80f9"/><stop offset="1" stop-color="#6165d7"/></linearGradient><linearGradient id="f" gradientUnits="userSpaceOnUse" x1="174.697" x2="103.188" xlink:href="#e" y1="97.7061" y2="165.235"/><linearGradient id="g" gradientUnits="userSpaceOnUse" x1="309920" x2="454885" xlink:href="#c" y1="1108780" y2="1302900"/><linearGradient id="h" gradientUnits="userSpaceOnUse" x1="-125439" x2="-64607.9" xlink:href="#a" y1="67171" y2="126398"/><linearGradient id="i"><stop offset="0" stop-color="#ab316d"/><stop offset="1" stop-color="#792d3d"/></linearGradient><linearGradient id="j" gradientUnits="userSpaceOnUse" x1="29.3481" x2="74.7189" xlink:href="#i" y1="36.9794" y2="35.0067"/><linearGradient id="k"><stop offset="0" stop-color="#ffc444"/><stop offset="1" stop-color="#f36f56"/></linearGradient><linearGradient id="l" gradientUnits="userSpaceOnUse" x1="24.6056" x2="67.0398" xlink:href="#k" y1="110.865" y2="110.865"/><linearGradient id="m" gradientUnits="userSpaceOnUse" x1="30598.4" x2="46140.2" xlink:href="#k" y1="251265" y2="251265"/><linearGradient id="n" gradientUnits="userSpaceOnUse" x1="175426" x2="310335" xlink:href="#k" y1="194580" y2="435899"/><linearGradient id="o" gradientUnits="userSpaceOnUse" x1="196654" x2="309954" xlink:href="#k" y1="211567" y2="465371"/><linearGradient id="p" gradientUnits="userSpaceOnUse" x1="102523" x2="85553.5" xlink:href="#i" y1="15963.7" y2="158014"/><linearGradient id="q" gradientUnits="userSpaceOnUse" x1="12782.1" x2="5368.51" xlink:href="#i" y1="-1282.5" y2="11848.5"/><linearGradient id="r" gradientUnits="userSpaceOnUse" x1="17012.8" x2="9599.18" xlink:href="#i" y1="1258.72" y2="14389.6"/><linearGradient id="s" gradientUnits="userSpaceOnUse" x1="41090.30000000001" x2="58156.2" xlink:href="#e" y1="157021" y2="160829"/><linearGradient id="t" gradientUnits="userSpaceOnUse" x1="106950" x2="153770" xlink:href="#e" y1="156943" y2="234815"/><linearGradient id="u" gradientUnits="userSpaceOnUse" x1="40.6888" x2="111.302" y1="156.828" y2="179.126"><stop offset="0" stop-color="#444b8c"/><stop offset="1" stop-color="#26264f"/></linearGradient><linearGradient id="v" gradientUnits="userSpaceOnUse" x1="30049.3" x2="50667.2" xlink:href="#a" y1="84485.1" y2="84897.4"/><linearGradient id="w" gradientUnits="userSpaceOnUse" x1="99925.9" x2="142785" xlink:href="#e" y1="117636" y2="191084"/><linearGradient id="x" gradientUnits="userSpaceOnUse" x1="53212.1" x2="73203.1" xlink:href="#e" y1="90359.3" y2="90359.3"/><linearGradient id="y"><stop offset="0" stop-color="#fcb148"/><stop offset=".05" stop-color="#fdba46"/><stop offset=".14" stop-color="#ffc244"/><stop offset=".32" stop-color="#ffc444"/><stop offset=".48" stop-color="#fdb946"/><stop offset=".78" stop-color="#f99c4d"/><stop offset=".87" stop-color="#f8924f"/><stop offset="1" stop-color="#f8924f"/></linearGradient><linearGradient id="z" gradientUnits="userSpaceOnUse" x1="15.6398" x2="50.8092" xlink:href="#y" y1="176.797" y2="176.797"/><linearGradient id="A"><stop offset="0" stop-color="#ffdb44"/><stop offset="1" stop-color="#feef06"/></linearGradient><linearGradient id="B" gradientUnits="userSpaceOnUse" x1="33.3863" x2="35.2404" xlink:href="#A" y1="172.835" y2="188.357"/><linearGradient id="C" gradientUnits="userSpaceOnUse" x1="28833.5" x2="28835.2" xlink:href="#A" y1="7444.51" y2="7624.61"/><linearGradient id="D"><stop offset="0" stop-color="#f36f56"/><stop offset=".31" stop-color="#f99c4c"/><stop offset=".55" stop-color="#fdb946"/><stop offset=".68" stop-color="#ffc444"/><stop offset=".8" stop-color="#ffc244"/><stop offset=".87" stop-color="#feba46"/><stop offset=".92" stop-color="#fcad49"/><stop offset=".96" stop-color="#f99a4d"/><stop offset="1" stop-color="#f57e53"/></linearGradient><linearGradient id="E" gradientUnits="userSpaceOnUse" x1="33.8412" x2="33.2738" xlink:href="#D" y1="176.41" y2="171.66"/><linearGradient id="F" gradientUnits="userSpaceOnUse" x1="17959.9" x2="35372.6" xlink:href="#y" y1="17254.4" y2="17254.4"/><linearGradient id="G" gradientUnits="userSpaceOnUse" x1="26746.3" x2="26762" xlink:href="#A" y1="12524.8" y2="13536"/><linearGradient id="H" gradientUnits="userSpaceOnUse" x1="26724.1" x2="26725.7" xlink:href="#A" y1="7308.31" y2="7488.39"/><linearGradient id="I" gradientUnits="userSpaceOnUse" x1="23755.1" x2="23756.3" xlink:href="#D" y1="2034.91" y2="2187.33"/><linearGradient id="J" gradientUnits="userSpaceOnUse" x1="19779.2" x2="37192.5" xlink:href="#y" y1="16939.8" y2="16939.8"/><linearGradient id="K" gradientUnits="userSpaceOnUse" x1="28565.8" x2="28581.5" xlink:href="#A" y1="12293.1" y2="13304.4"/><linearGradient id="L" gradientUnits="userSpaceOnUse" x1="28543.9" x2="28545.5" xlink:href="#A" y1="7172.49" y2="7352.56"/><linearGradient id="M" gradientUnits="userSpaceOnUse" x1="21968.5" x2="21969.6" xlink:href="#D" y1="2143.71" y2="2296.13"/><linearGradient id="N" gradientUnits="userSpaceOnUse" x1="20882.8" x2="38295.5" xlink:href="#y" y1="16628.3" y2="16628.3"/><linearGradient id="O" gradientUnits="userSpaceOnUse" x1="17362.7" x2="17378.3" xlink:href="#A" y1="10582" y2="11593.4"/><linearGradient id="P" gradientUnits="userSpaceOnUse" x1="29649" x2="29650.6" xlink:href="#A" y1="7036.26" y2="7216.36"/><linearGradient id="Q" gradientUnits="userSpaceOnUse" x1="20884" x2="20885.1" xlink:href="#D" y1="2252.79" y2="2405.22"/><linearGradient id="R" gradientUnits="userSpaceOnUse" x1="20067.9" x2="37480.7" xlink:href="#y" y1="16288.2" y2="16288.2"/><linearGradient id="S" gradientUnits="userSpaceOnUse" x1="28854.4" x2="28870.1" xlink:href="#A" y1="11810" y2="12821.3"/><linearGradient id="T" gradientUnits="userSpaceOnUse" x1="28833.5" x2="28835.2" xlink:href="#A" y1="6889.32" y2="7069.4"/><linearGradient id="U" gradientUnits="userSpaceOnUse" x1="21684.4" x2="21685.6" xlink:href="#D" y1="2369.82" y2="2522.2"/><linearGradient id="V" gradientUnits="userSpaceOnUse" x1="17959.9" x2="35372.6" xlink:href="#y" y1="15974.7" y2="15974.7"/><linearGradient id="W" gradientUnits="userSpaceOnUse" x1="14439.7" x2="14455.4" xlink:href="#A" y1="10098.9" y2="11110.3"/><linearGradient id="X" gradientUnits="userSpaceOnUse" x1="26724.1" x2="26725.7" xlink:href="#A" y1="6753.09" y2="6933.2"/><linearGradient id="Y" gradientUnits="userSpaceOnUse" x1="23755.1" x2="23756.3" xlink:href="#D" y1="2479.64" y2="2632.07"/><linearGradient id="Z" gradientUnits="userSpaceOnUse" x1="19779.2" x2="37192.5" xlink:href="#y" y1="15663.9" y2="15663.9"/><linearGradient id="aa" gradientUnits="userSpaceOnUse" x1="16259" x2="16274.6" xlink:href="#A" y1="9867.17" y2="10878.5"/><linearGradient id="ab" gradientUnits="userSpaceOnUse" x1="28543.9" x2="28545.5" xlink:href="#A" y1="6617.3" y2="6797.37"/><linearGradient id="ac" gradientUnits="userSpaceOnUse" x1="21968.5" x2="21969.7" xlink:href="#D" y1="2588.42" y2="2740.85"/><linearGradient id="ad" gradientUnits="userSpaceOnUse" x1="18834" x2="36247.80000000001" xlink:href="#y" y1="15348.6" y2="15348.6"/><linearGradient id="ae" gradientUnits="userSpaceOnUse" x1="15312.7" x2="15328.4" xlink:href="#A" y1="9634.75" y2="10646.2"/><linearGradient id="af" gradientUnits="userSpaceOnUse" x1="27597.8" x2="27599.4" xlink:href="#A" y1="6481.07" y2="6661.15"/><linearGradient id="ag" gradientUnits="userSpaceOnUse" x1="22897.4" x2="22898.6" xlink:href="#D" y1="2697.56" y2="2849.99"/><linearGradient id="ah" gradientUnits="userSpaceOnUse" x1="-34763.80000000001" x2="-27948.1" xlink:href="#y" y1="72348.5" y2="81866.9"/><linearGradient id="ai" gradientUnits="userSpaceOnUse" x1="-29240.8" x2="-33671.4" xlink:href="#A" y1="68742.6" y2="73177.1"/><linearGradient id="aj" gradientUnits="userSpaceOnUse" x1="-29086.1" x2="-30449.3" xlink:href="#A" y1="68674" y2="70038.5"/><linearGradient id="ak" gradientUnits="userSpaceOnUse" x1="35248.4" x2="36578.7" xlink:href="#D" y1="-14508.1" y2="-15845.1"/><linearGradient id="al" gradientUnits="userSpaceOnUse" x1="43658.2" x2="51247.9" xlink:href="#e" y1="75586.6" y2="82797.9"/><linearGradient id="am" gradientUnits="userSpaceOnUse" x1="62893.7" x2="51494.1" xlink:href="#e" y1="81025.9" y2="94440.2"/><linearGradient id="an" gradientUnits="userSpaceOnUse" x1="85772.6" x2="85770.3" xlink:href="#c" y1="2674.92" y2="2916.73"/><linearGradient id="ao" gradientUnits="userSpaceOnUse" x1="52056.5" x2="40644.80000000001" xlink:href="#c" y1="79776" y2="91031.4"/><linearGradient id="ap" gradientUnits="userSpaceOnUse" x1="16117.7" x2="26628.1" xlink:href="#i" y1="69026.5" y2="80954.4"/><linearGradient id="aq" gradientUnits="userSpaceOnUse" x1="15531.8" x2="17106" xlink:href="#i" y1="75324.6" y2="75274.5"/><linearGradient id="ar" gradientUnits="userSpaceOnUse" x1="12960.5" x2="14401.9" xlink:href="#i" y1="74367.1" y2="74322.6"/><linearGradient id="as" gradientUnits="userSpaceOnUse" x1="51809" x2="52874.4" xlink:href="#i" y1="2565.28" y2="-854.242"/><linearGradient id="at" gradientUnits="userSpaceOnUse" x1="33209.1" x2="31943.1" xlink:href="#i" y1="25535.5" y2="27016.1"/><linearGradient id="au" gradientUnits="userSpaceOnUse" x1="33320.4" x2="32884.7" xlink:href="#i" y1="12464.2" y2="13518.3"/><linearGradient id="av" gradientUnits="userSpaceOnUse" x1="39775.80000000001" x2="44842.4" xlink:href="#i" y1="32975.9" y2="32086.7"/><linearGradient id="aw" gradientUnits="userSpaceOnUse" x1="37886.7" x2="42563.9" xlink:href="#i" y1="22400.4" y2="21237.3"/><linearGradient id="ax" gradientUnits="userSpaceOnUse" x1="27624.4" x2="27863.7" xlink:href="#i" y1="1268.5" y2="349.487"/><path d="m161.169 38.1087c-37.401-47.09956-125.9477-49.7323-151.98086-12.3716-14.34745 20.5805-8.350872 51.35-5.39457 66.531 5.44459 27.9369 18.86653 45.9239 21.79563 49.7389 7.1129 9.256 24.3889 31.744 50.3763 36.884 44.4065 8.783 99.8175-35.935 102.8875-86.3803 1.769-29.0888-14.451-50.33-17.684-54.402z" fill="#f4f7fa"/><path d="m137.024 152.941c-5.351-6.133-12.329-16-14.651-29.25-2.666-15.214 3.244-20.984 3.334-38.4926.132-24.9921-16.625-35.9665-9.961-46.4074 3.25-5.0914 10.456-8.1428 16.239-6.8579 16.5 3.667 29.663 44.4699 16.043 68.3289-6.161 10.79-14.448 13.324-17.474 25.195-2.677 10.488 2.226 20.759 6.47 27.484z" fill="url(#b)"/><g fill="#fff"><path d="m127.78 135.66c-.507-3.334-.727-6.706-.657-10.077.162-7.718 1.858-12.637 4.005-18.864 1.394-4.045 2.975-8.6302 4.411-14.8497 2.684-11.6338 3.363-15.6064 3.025-21.39-.669-11.4547-4.989-20.1502-7.505-24.3142-3.564-5.9021-8.253-11.0462-13.8-15.1396l.132-.1797c5.572 4.1114 10.281 9.2777 13.859 15.2051 2.526 4.1813 6.865 12.9138 7.537 24.4161.34 5.8119-.34 9.7956-3.031 21.4535-1.438 6.2312-3.021 10.8225-4.417 14.8725-2.141 6.209-3.831 11.114-3.993 18.796-.069 3.359.15 6.717.655 10.039z"/><path d="m137.55 62.644-.074-.168c-3.231-7.2753-9.923-10.0389-14.968-11.0762-5.478-1.1269-10.254-.5193-10.302-.5131l-.029-.2211c.048-.0061 4.855-.6174 10.373.5137 5.058 1.0392 11.757 3.7985 15.055 11.0343.545-.7317 2.947-4.1368 4.317-9.0764 1.425-5.1327 1.996-13.0199-3.376-21.4461l.188-.1204c5.418 8.499 4.841 16.456 3.401 21.6351-1.559 5.6088-4.439 9.2616-4.467 9.2949z"/><path d="m136.543 88.7537c-.097 0-.15 0-.154 0h-.094l-.013-.0932c-1.157-7.9965-5.038-12.6069-8.088-15.0656-3.309-2.6667-6.386-3.4521-6.416-3.4576l.053-.2168c.031.0081 3.149.8027 6.494 3.496 3.075 2.4753 6.981 7.1049 8.166 15.1205h.03c1.396 0 14.16-.3149 20.337-11.377l.195.1087c-3.436 6.1534-8.871 8.9529-12.825 10.2124-3.78 1.1985-6.962 1.2726-7.685 1.2726z"/><path d="m135.548 105.8c-2.392 0-3.823-.494-3.842-.499l-.075-.026v-.08c.099-8.6616-9.417-18.745-9.514-18.8456l.162-.1544c.096.1013 9.615 10.1878 9.576 18.92.435.133 2.728.758 6.156.292 3.511-.478 8.964-2.229 15.004-7.8634l.153.1636c-6.091 5.6808-11.597 7.4438-15.143 7.9228-.821.112-1.648.169-2.477.17z"/></g><path d="m125.054 144.841c-2.815-4.449-6.43-11.731-5.363-20.059 1.863-14.532 15.883-15.904 22.454-33.408 5.298-14.1177-1.026-20.6725 6.736-31.8488 1.296-1.8708 8.06-12.0005 16.598-11.2337 4.812.4322 8.052 4.127 8.661 4.8204 9.193 10.4835 4.85 34.8236-7.642 50.3991-7.178 8.949-10.871 8.579-24.76 21.351-6.408 5.904-12.017 12.621-16.684 19.979z" fill="url(#d)"/><g fill="#fff"><path d="m125.888 151.226c-2.457-12.448-1.191-22.046 3.766-28.526 2.427-3.173 4.85-4.538 7.415-5.983 2.756-1.551 5.605-3.156 8.544-7.215 2.857-3.944 3.288-6.762 3.833-10.3291.491-3.2107 1.102-7.208 3.697-13.2855 2.275-5.3266 4.339-8.2422 6.16-10.8144 1.971-2.7841 3.528-4.9834 4.616-9.2172 1.778-6.9153 1.028-14.5018-2.231-22.5476l.207-.084c3.277 8.0884 4.031 15.7243 2.24 22.6878-1.098 4.2727-2.666 6.4868-4.65 9.29-1.814 2.563-3.871 5.4687-6.136 10.7737-2.585 6.0509-3.193 10.0322-3.683 13.2312-.549 3.5961-.984 6.4381-3.872 10.4261-2.968 4.099-5.839 5.716-8.615 7.279-2.545 1.433-4.949 2.786-7.347 5.924-4.915 6.428-6.168 15.967-3.723 28.349z"/><path d="m158.503 76.4166-.012-.1488c-.015-.1815-1.596-18.2176-10.21-22.3007l.095-.2019c8.309 3.9386 10.152 20.5799 10.323 22.3359 8.783-3.446 13.851-9.4666 16.559-13.9227 2.949-4.8518 3.812-8.9393 3.821-8.98l.218.045c-.008.0408-.879 4.1659-3.848 9.0511-2.74 4.5073-7.881 10.6088-16.807 14.0684z"/><path d="m151.019 92.5207h-.089-.096l-.013-.0951c-.634-4.8265-2.852-10.0803-4.601-13.6374-1.896-3.8572-3.663-6.6066-3.681-6.6319l.185-.1235c.018.0278 1.791 2.7865 3.694 6.6547 1.744 3.5491 3.952 8.7807 4.609 13.6103.711 0 5.306-.0809 11.121-1.9079s14.064-5.8188 20.384-14.4771l.18.1315c-6.359 8.7102-14.66 12.7267-20.506 14.5617-5.865 1.8418-10.501 1.9147-11.187 1.9147z"/><path d="m145.999 116.032c-4.013 0-6.393-.542-6.446-.556l-.115-.027.034-.113c3.036-10.32-4.769-21.954-4.848-22.0707l.185-.1235c.079.1167 7.887 11.7502 4.911 22.1442 1.281.265 13.075 2.414 28.376-4.451l.091.203c-9.126 4.093-17.015 4.994-22.188 4.994z"/></g><path d="m123.169 140.846c2.746-4.519 6.118-8.627 10.015-12.202 8.858-8.102 14.554-7.943 17.103-14.214 2.638-6.491-2.222-9.73 1.093-17.1347.278-.623 3.894-8.4318 10.044-8.6948 4.301-.1852 7.532 3.4243 9.049 5.1167 5.885 6.5698 9.306 18.9268 3.551 28.1698-5.455 8.762-16.4 10.316-19.881 10.787-6.113.826-8.315-.761-14.458.247-7.475 1.222-13.05 5.015-16.516 7.925z" fill="url(#f)"/><path d="m60.0591 163.339c2.8149-4.45 6.4306-11.732 5.3631-20.06-1.8628-14.532-15.8831-15.903-22.4532-33.408-5.2989-14.1175 1.0262-20.6722-6.7357-31.8485-1.2966-1.8708-8.06-12.0006-16.5992-11.2337-4.8118.4322-8.0515 4.127-8.6596 4.8203-9.19372 10.4836-4.85003 34.8239 7.6414 50.3989 7.1777 8.949 10.8706 8.579 24.7593 21.351 6.4083 5.904 12.0171 12.621 16.6839 19.98z" fill="url(#g)"/><g fill="#fff"><path d="m59.2255 169.724-.2192-.043c2.445-12.382 1.1923-21.919-3.7226-28.349-2.3987-3.138-4.8024-4.491-7.3475-5.924-2.7785-1.563-5.6477-3.18-8.6158-7.279-2.8877-3.988-3.3224-6.83-3.8719-10.426-.489-3.199-1.0978-7.18-3.6824-13.231-2.2654-5.3053-4.3221-8.2122-6.1362-10.774-1.9844-2.8031-3.5515-5.0166-4.6505-9.29-1.7906-6.9634-1.0361-14.5962 2.2407-22.6878l.2068.084c-3.2582 8.0458-4.009 15.6323-2.2314 22.5477 1.0885 4.2337 2.6457 6.4331 4.6166 9.2171 1.8208 2.5723 3.8849 5.4878 6.1596 10.814 2.5932 6.078 3.2063 10.075 3.6972 13.286.5452 3.567.9762 6.385 3.8324 10.329 2.9397 4.059 5.7885 5.664 8.5442 7.215 2.5654 1.445 4.9883 2.81 7.4148 5.983 4.9562 6.485 6.2232 16.081 3.7652 28.528z"/><path d="m26.611 94.9151-.1395-.0538c-8.9263-3.4576-14.0665-9.5598-16.80671-14.0683-2.96927-4.8852-3.83986-9.0103-3.84851-9.0511l.21919-.0451c.00803.0408.87307 4.1369 3.82505 8.9881 2.70808 4.453 7.77478 10.4699 16.55358 13.9146.1716-1.756 2.0141-18.3997 10.323-22.3358l.0957.2019c-8.6152 4.0868-10.194 22.1191-10.21 22.3013z"/><path d="m34.0951 111.019c-.686 0-5.3223-.073-11.1917-1.914-5.8453-1.835-14.14803-5.851-20.50643-14.5616l.18091-.1315c6.32197 8.6611 14.57902 12.6571 20.39222 14.4801s10.4001 1.904 11.1139 1.905c.6551-4.83 2.8649-10.061 4.6092-13.6104 1.9017-3.8682 3.6762-6.627 3.6935-6.6547l.1852.1234c-.0179.0272-1.7862 2.7785-3.6817 6.6344-1.7486 3.5563-3.9659 8.8093-4.6 13.6353l-.0123.095h-.0963z"/><path d="m39.1142 134.53c-5.1729 0-13.0607-.9-22.1871-4.995l.0914-.204c15.3008 6.866 27.0939 4.717 28.3757 4.453-2.9754-10.394 4.8315-22.028 4.9111-22.145l.1853.124c-.0791.116-7.8841 11.751-4.8482 22.071l.0333.113-.1142.027c-.0543.015-2.4339.556-6.4473.556z"/></g><path d="m61.9453 159.345c-2.7469-4.519-6.119-8.627-10.0161-12.203-8.8566-8.102-14.5537-7.942-17.1031-14.213-2.6371-6.491 2.2228-9.731-1.0923-17.135-.2784-.623-3.8948-8.432-10.0439-8.695-4.3017-.185-7.5327 3.424-9.0492 5.117-5.88231 6.569-9.30354 18.926-3.5496 28.169 5.4563 8.763 16.3998 10.316 19.8816 10.787 6.1126.827 8.3144-.76 14.4579.247 7.4729 1.222 13.0484 5.016 16.5147 7.926z" fill="url(#h)"/><path d="m105.795 59.758c-.041.0042-.083.0062-.124.0062-.655 0-1.214-.5347-1.278-1.2491-1.13-12.6804-4.9772-24.7303-10.8422-33.929-5.1958-8.1502-11.3819-13.0119-16.5474-13.0119h-.0173c-18.8245.0395-22.7625 46.4611-22.8002 46.9304-.0618.7594-.6792 1.3219-1.3905 1.2571s-1.2312-.7341-1.17-1.4936c.1611-2.0172 4.1918-49.41002 25.3558-49.45694h.0228c6.1065 0 12.9101 5.17844 18.6708 14.21224 6.1062 9.5783 10.1122 22.0895 11.2782 35.2293.064.7644-.454 1.4355-1.158 1.5053z" fill="url(#j)"/><path d="m27.244 155.306 24.7809 13.476 15.0149-49.488-24.7402-66.3464-7.0166 1.8474-10.6428 95.285c-.2408 2.157.7996 4.245 2.6038 5.226z" fill="url(#l)"/><path d="m67.0399 119.293-24.7403-66.3454-4.1368 1.0898c-.5736 8.8584-.3217 16.1492.0685 21.4567 1.6585 22.589 7.166 28.8749 4.4981 44.6329-2.2185 13.103-7.0641 14.88-6.6406 23.697.4619 9.601 6.6962 17.641 14.1091 23.964l1.8283.994z" fill="url(#m)" opacity=".3"/><path d="m42.2996 52.9476 93.3214 5.0809 29.657 100.9525-113.2525 9.801z" fill="url(#n)"/><path d="m135.621 58.029-48.6682-2.6494c-.8212 1.291-1.9091 3.3959-2.1116 6.0781-1.1978 15.8682 31.5508 21.0096 34.4868 40.4913 2.234 14.833-11.512 31.947-23.7767 39.571-12.9218 8.034-21.6771 3.966-30.4163 12.885-3.8399 3.918-6.1781 8.818-7.5686 13.898l107.7116-9.324z" fill="url(#o)" opacity=".09"/><path d="m70.9229 62.0358c-.5829 0-1.1114-.4322-1.2497-1.0657-.263-1.2022-6.3337-29.6143 2.224-43.5573 2.4531-3.9967 5.8805-6.4362 10.1878-7.2525 22.128-4.18748 35.75 46.8581 36.32 49.0334.192.7335-.206 1.496-.889 1.7023-.684.2062-1.393-.2217-1.585-.9558-.134-.5082-13.544-50.82646-33.3996-47.0607-3.6337.6885-6.4103 2.668-8.488 6.0509-7.9569 12.9613-1.9313 41.1246-1.8696 41.408.1618.7409-.2667 1.4819-.9576 1.6591-.0959.0246-.1944.0375-.2933.0383z" fill="url(#p)"/><path d="m70.9321 66.1016c1.9836 0 3.5916-1.7272 3.5916-3.8578s-1.608-3.8578-3.5916-3.8578-3.5916 1.7272-3.5916 3.8578 1.608 3.8578 3.5916 3.8578z" fill="url(#q)"/><path d="m117.774 65.7441c1.983 0 3.591-1.7272 3.591-3.8578s-1.608-3.8577-3.591-3.8577c-1.984 0-3.592 1.7271-3.592 3.8577s1.608 3.8578 3.592 3.8578z" fill="url(#r)"/><path d="m142.762 106.606-28.973-28.2526c-.289-.2887-.658-.4839-1.059-.5603s-.816-.0305-1.191.1318l-15.4617 6.7505c-1.3028.5687-1.7516 2.308-.9076 3.5194l25.2343 36.1292c.698.999 2.009 1.219 2.957.494l19.202-14.629c1.116-.851 1.214-2.594.199-3.583zm-33.131-18.3223c-.976.7045-2.515.0828-3.436-1.3898-.922-1.4726-.878-3.2379.098-3.943s2.515-.0827 3.437 1.3898c.921 1.4726.881 3.2398-.099 3.943z" fill="#d8dee8"/><path d="m142.762 106.22-28.973-28.2518c-.289-.2896-.658-.4853-1.06-.5616s-.817-.0298-1.192.1337l-15.4621 6.7504c-1.3028.5687-1.7517 2.308-.9076 3.5194l25.2337 36.1299c.698.999 2.01 1.219 2.957.494l19.203-14.628c1.118-.853 1.216-2.597.201-3.586zm-33.131-18.3203c-.976.7051-2.515.0827-3.436-1.3899s-.878-3.2378.098-3.9423 2.515-.0828 3.437 1.3898c.921 1.4726.881 3.2373-.099 3.9424z" fill="#f4f7fa"/><path d="m103.61 80.9615c-.047 0-.093-.0138-.132-.0396s-.069-.0625-.087-.1055c-1.004-2.366-2.357-4.4098-4.0239-6.0744-4.569-4.5616-10.4613-5.2785-16.1627-5.9725-5.6737-.6903-11.0324-1.3417-14.2338-5.857-.8101-1.1429-2.0691-3.2107-1.3936-4.2023.271-.3989.8119-.5823 1.6053-.544.0316.0009.0628.008.0916.021s.0547.0317.0763.0548c.0215.0232.0382.0504.049.0801.0109.0297.0158.0613.0143.0929s-.0093.0625-.0229.0911c-.0136.0285-.0327.0541-.0563.0751-.0236.0211-.0512.0372-.0811.0475-.0299.0102-.0615.0145-.0931.0123-.4254-.0197-.9768.0216-1.1904.3365-.3587.5279.1852 1.9647 1.3886 3.6602 3.0792 4.3431 8.3354 4.9828 13.9029 5.6601 5.7811.7033 11.7598 1.4306 16.4412 6.1077 1.7096 1.7085 3.0976 3.8028 4.1256 6.2257.023.0574.024.1218.001.1794-.024.0577-.068.1041-.125.1293-.03.0134-.062.0207-.094.0216z" fill="#26264f"/><path d="m106.084 85.7424c-.047.0001-.093-.0138-.132-.0399s-.07-.0633-.088-.1068c-.017-.0435-.022-.0914-.013-.1375.01-.0461.032-.0884.066-.1215.02-.0204 2.004-2.0277 1.994-4.7055-.006-1.6449-.754-3.2107-2.223-4.6537-3.117-3.0612-11.387-6.6066-18.6833-9.7333-4.453-1.9091-8.6596-3.712-11.4226-5.2667-.6261-.3526-1.2886-.6879-1.9697-.9954-.0301-.0117-.0575-.0294-.0805-.0521s-.0411-.0498-.0533-.0798c-.0122-.0299-.0181-.062-.0175-.0943.0007-.0323.0079-.0641.0212-.0936.0134-.0294.0326-.0558.0565-.0775s.052-.0384.0826-.0489c.0305-.0105.0629-.0147.0951-.0123.0323.0024.0636.0114.0923.0263.6928.3131 1.3682.6545 2.0067 1.0139 2.7402 1.5436 6.9351 3.3403 11.3763 5.2439 7.3346 3.144 15.6482 6.7079 18.8322 9.8309 1.565 1.5374 2.361 3.2181 2.366 4.9963.008 2.8785-2.047 4.9525-2.135 5.0395-.022.0222-.049.0396-.078.0512-.03.0117-.061.0174-.093.0168z" fill="#26264f"/><path d="m142.762 106.22-28.973-28.2518c-.289-.2896-.658-.4853-1.06-.5616s-.817-.0298-1.192.1337l-1.377.6007c.406 1.4949.983 2.9377 1.722 4.2993 4.279 7.8476 11.299 7.5093 12.923 12.9551 1.438 4.8276-3.385 7.4166-4.02 14.1896-.318 3.384.407 7.886 4.29 13.54l17.484-13.32c1.12-.852 1.218-2.596.203-3.585z" fill="#fff"/><path d="m116.764 96.6032c1.587 2.6247 1.259 4.8018-.006 5.6838-1.331.926-3.244.233-4.668-2.121-1.353-2.2391-1.426-4.6032.067-5.6449 1.507-1.0508 3.312-.0598 4.607 2.0821zm-3.201 2.424c.794 1.3128 1.675 2.0418 2.267 1.6298.579-.404.348-1.4501-.504-2.8591-.77-1.2732-1.606-2.0888-2.24-1.6479-.606.4229-.281 1.6238.477 2.8772zm6.477 8.4338-2.823-16.4685 1.103-.7694 2.811 16.4779zm6.17-10.0391c1.587 2.6251 1.259 4.8021-.006 5.6801-1.318.92-3.231.224-4.668-2.121-1.354-2.239-1.425-4.6032.068-5.6448 1.506-1.0472 3.31-.0562 4.606 2.0857zm-3.189 2.416c.78 1.3211 1.661 2.0511 2.253 1.6391.578-.404.347-1.45-.504-2.8591-.771-1.2738-1.594-2.0993-2.227-1.6572-.616.4315-.279 1.6226.478 2.8772z" fill="#d8dee8"/><path d="m120.647 116.572c-.202-.003-.4-.059-.573-.163-.173-.105-.314-.254-.41-.431-.329-.582-.157-1.341.386-1.695l13.954-9.097c.542-.354 1.249-.168 1.578.414.329.583.157 1.342-.386 1.695l-13.954 9.098c-.177.116-.384.178-.595.179z" fill="#d8dee8"/><path d="m102.232 169.152c0 1.267-.9 2.356-2.003 2.422l-77.7572 4.749c-1.4732.087-3.136-1.159-3.136-2.631v-54.417c0-1.473 1.7029-2.711 3.1761-2.65l77.7171 3.327c1.103.046 2.003 1.12 2.003 2.387z" fill="url(#s)"/><path d="m103.674 169.241c0 1.273-.904 2.367-2.013 2.434l-78.5879 4.656c-.3465.024-.6943-.023-1.0216-.14-.3273-.116-.627-.299-.8803-.536-.2533-.238-.4547-.526-.5915-.845s-.2061-.663-.2035-1.011v-54.676c-.0013-.349.0685-.695.2052-1.016.1366-.321.3371-.611.5894-.853.2523-.241.5511-.428.8781-.55.3271-.123.6756-.177 1.0242-.16l78.5879 3.259c1.111.045 2.013 1.125 2.013 2.398z" fill="url(#t)"/><path d="m103.674 156.422-83.2972 4.273v10.015l83.2972-4.89z" fill="url(#u)"/><path d="m44.9601 134.626c-.0944 6.214-3.9806 9.443-8.3082 9.427-4.7142-.018-8.4935-3.633-8.404-9.571.0858-5.643 3.6429-9.664 8.9232-9.269 5.1254.385 7.8675 4.341 7.789 9.413zm-11.1923-.119c-.0494 3.241 1.0114 5.597 3.0835 5.636 1.995.037 2.989-1.995 3.0403-5.396.0469-3.075-.7409-5.5-2.9199-5.631-2.1209-.127-3.157 2.292-3.2039 5.391zm4.3746 19.978 15.0161-27.187c.1406-.255.3513-.463.6071-.602.2558-.138.5459-.2.8359-.179.2533.019.4979.102.7113.24.2134.137.3888.327.5102.55.1213.223.1848.473.1846.727-.0003.254-.0643.504-.1861.727l-14.8494 27.179c-.1253.23-.3076.423-.5295.561-.2219.139-.4757.218-.7369.229l-.1661.007c-.2696.012-.5376-.048-.7763-.174-.2388-.126-.4396-.313-.5819-.543-.1423-.229-.2209-.492-.2278-.762-.0068-.27.0583-.537.1888-.773zm25.6929-7.662c-.0883 5.756-3.4225 8.905-7.1271 9.07-3.9819.175-7.1938-2.999-7.1537-8.469.0791-5.202 3.1094-9.068 7.6168-8.947 4.3881.115 6.735 3.648 6.664 8.346zm-9.5351.378c-.0865 2.993.8162 5.125 2.5864 5.071 1.7048-.05 2.5581-1.97 2.6056-5.115.0432-2.844-.5903-5.05-2.4518-5.073-1.8511-.021-2.6989 2.257-2.7402 5.117z" fill="url(#v)" opacity=".0225"/><path d="m45.685 134.336c-.0938 6.215-3.9806 9.444-8.3076 9.427-4.7148-.018-8.4942-3.632-8.404-9.57.0852-5.644 3.6429-9.664 8.9226-9.269 5.1254.385 7.8662 4.34 7.789 9.412zm-11.1923-.119c-.0488 3.242 1.012 5.598 3.0841 5.637 1.9943.037 2.989-1.995 3.0403-5.396.0463-3.075-.741-5.501-2.9205-5.631-2.1191-.127-3.1545 2.292-3.2039 5.39zm4.3752 19.978 15.0155-27.186c.1407-.255.3515-.464.6074-.602.2558-.138.546-.201.8362-.179.2533.019.4979.101.7113.239s.3887.327.5101.551c.1214.223.1848.473.1846.727-.0003.254-.0642.504-.186.727l-14.8494 27.179c-.1255.23-.3079.423-.5297.561s-.4756.217-.7367.228l-.1661.008c-.2697.012-.5376-.048-.7764-.174-.2387-.126-.4395-.314-.5818-.543-.1423-.23-.2209-.493-.2278-.763-.0069-.269.0583-.536.1888-.773zm25.6923-7.661c-.0871 5.755-3.4231 8.904-7.1253 9.067-3.9813.175-7.1938-3-7.153-8.47.0784-5.202 3.1094-9.068 7.6167-8.947 4.3863.118 6.7326 3.652 6.6616 8.35zm-9.537.378c-.0859 2.993.8168 5.124 2.5864 5.071 1.7054-.05 2.5581-1.971 2.6056-5.116.0433-2.84-.5896-5.049-2.4512-5.072-1.8499-.022-2.6976 2.257-2.7408 5.117z" fill="#fff"/><path d="m101.661 119.803-77.6827-3.221c3.5064 10.383 8.5274 15.034 12.8427 17.31 8.212 4.335 14.0999.195 21.1375 5.804 7.224 5.757 4.4727 12.865 12.0789 17.653 5.7169 3.6 9.4018.927 15.3305 4.182 4.3912 2.408 7.1345 6.491 8.8911 10.58l7.409-.439c1.112-.067 2.013-1.161 2.013-2.434v-47.037c-.007-1.273-.912-2.352-2.02-2.398z" fill="url(#w)" opacity=".3"/><path d="m102.58 144.689-1.896-1.799-1.7984 1.896-1.8956-1.797-1.7986 1.895-1.8955-1.798-1.7986 1.895-1.8956-1.798-1.7979 1.895-1.8956-1.798-1.7986 1.895-1.8955-1.798-1.7962 1.896-1.8955-1.798-1.7986 1.895-1.8955-1.798-1.798 1.895-2.4222-2.298v28.393s-.0988 1.626-2.0648 2.054l33.5237-2.458c.371-.028.732-.131 1.062-.303.356-.462.548-1.028.547-1.611v-25.709z" fill="url(#x)" opacity=".3"/><path d="m107.969 143.747v25.863c0 1.444-1.15 2.643-2.589 2.749l-10.6301.779-22.9688 1.679c1.966-.428 2.0086-2.054 2.0086-2.054v-28.393l2.4697 2.299 1.2936-1.338.5408-.556 1.9011 1.799 1.8017-1.896 1.8968 1.799 1.7992-1.896 1.8956 1.798 1.7986-1.895 1.8955 1.798 1.7986-1.895 1.8956 1.798 1.7998-1.895 1.8949 1.798 1.7988-1.895 1.895 1.8 1.799-1.897 1.931 1.799z" fill="#fff"/><g fill="#d8dee8"><path d="m104.099 158.768-4.1465.185c-.1342.006-.2608.063-.3536.16-.0928.098-.1447.227-.1447.361v1.903c0 .071.0145.141.0426.206.028.066.0692.125.1208.173.0516.049.1126.087.1794.111.0667.025.1377.035.209.031l4.146-.233c.133-.008.259-.066.35-.163.092-.097.144-.225.144-.358v-1.855c0-.07-.015-.14-.043-.205-.027-.065-.068-.124-.119-.173-.051-.048-.112-.086-.178-.111s-.137-.036-.207-.032z"/><path d="m104.092 162.445-4.1452.234c-.1334.007-.259.065-.3508.162-.0919.097-.1432.226-.1431.359v1.987c-.0001.071.0145.142.0429.207.0283.066.0698.125.1219.174.0521.048.1137.086.1809.11s.1387.034.2104.03l4.146-.265c.132-.008.256-.067.347-.164.091-.096.141-.224.141-.357v-1.956c0-.071-.015-.141-.043-.206s-.069-.124-.12-.173c-.052-.049-.113-.086-.179-.111-.067-.024-.138-.035-.209-.031z"/><path d="m104.644 153.494v-3.404c0-.071-.014-.14-.042-.205-.027-.064-.067-.122-.117-.171-.051-.049-.111-.087-.176-.112-.066-.025-.135-.037-.205-.034l-4.1466.149c-.1351.005-.263.062-.3568.159s-.1463.227-.1464.362v3.443c0 .07.0143.14.0421.205.0277.065.0683.123.1193.172s.1114.087.1775.112c.066.024.1364.035.2069.032l4.146-.185c.134-.006.261-.064.354-.161.093-.098.144-.227.144-.362z"/><path d="m95.4835 159.156-16.8809.761c-.1342.006-.261.064-.3538.161s-.1446.227-.1444.361v2.143c-.0001.071.0144.141.0425.207.0281.065.0692.124.1208.173.0517.048.1127.086.1794.11.0667.025.1377.035.2086.031l16.8809-.951c.1333-.007.2589-.065.3508-.162s.1431-.226.1431-.359v-1.953c0-.071-.0143-.141-.0422-.206-.0278-.065-.0685-.123-.1196-.172-.0512-.049-.1117-.087-.1779-.112-.0662-.024-.1368-.035-.2073-.032z"/><path d="m95.4791 162.932-16.8808.952c-.1334.007-.259.065-.3509.162s-.1431.226-.143.359v2.147c0 .071.0146.142.043.207.0284.066.07.125.122.173.0521.049.1137.087.1808.111.0672.024.1387.034.2099.029l16.8808-1.077c.1324-.009.2567-.067.3475-.164.0909-.097.1414-.225.1415-.357v-2.02c0-.071-.0144-.141-.0425-.207-.028-.065-.0691-.124-.1206-.172-.0516-.049-.1125-.087-.1792-.112-.0666-.024-.1376-.035-.2085-.031z"/><path d="m96.0305 153.882v-3.484c0-.07-.0141-.139-.0415-.204s-.0675-.123-.118-.172c-.0505-.048-.1103-.086-.1758-.111-.0656-.026-.1355-.037-.2056-.035l-16.8808.608c-.1351.005-.263.062-.3568.159-.0939.098-.1463.228-.1464.363v3.636c0 .07.0143.14.0421.205.0277.065.0683.124.1193.172.051.049.1114.087.1774.112.0661.025.1365.036.207.033l16.8808-.762c.134-.006.2604-.063.3532-.16s.1447-.226.1451-.36z"/></g><path d="m94.732 173.138-22.9583 1.679c1.9665-.428 2.0178-2.054 2.0178-2.054v-28.393l2.4697 2.299 1.2936-1.338c1.0793.976 1.9461 2.544 2.1869 5.028.8027 8.274 4.6778 7.727 9.2518 8.037 4.574.311 6.6794 5.605 4.8283 9.694-.8298 1.83-.4921 3.672.9102 5.048z" fill="#f4f7fa" opacity=".4"/><path d="m18.2534 174.108v3.39c0 1.096 6.8431 1.984 15.2854 1.984 8.4422 0 15.2847-.888 15.2847-1.984v-3.39z" fill="url(#z)"/><path d="m48.8235 174.108c0 1.095-6.8431 1.984-15.2847 1.984-8.4417 0-15.2854-.887-15.2854-1.984s6.8419-1.982 15.2854-1.982 15.2847.888 15.2847 1.982z" fill="url(#B)"/><path d="m33.5387 176.23c-7.4765 0-15.2946-.714-15.2946-2.091 0-.076.0272-.209.1032-.209.0759 0 .0426.104.0426.18 0 .873 6.2213 1.847 15.1488 1.847 8.9276 0 15.1483-.974 15.1483-1.847 0-.076.013-.147.0883-.147s.0574.101.0574.177c0 1.377-7.818 2.09-15.294 2.09z" fill="url(#C)"/><path d="m32.0939 174.22c.1499-.103.31-.206.4804-.308.2075-.117.428-.209.657-.274.3299-.094.6669-.16 1.0076-.199.501-.057 1.0049-.084 1.5091-.082.5911-.002 1.1467.016 1.667.056.4592.033.9159.094 1.3677.182.3309.061.6534.16.9607.297.247.119.3915.255.439.407l1.7208.018c.1109-.001.2215.01.3303.031.0957.019.1427.044.1427.074v.142l-2.2123-.021c-.0778.173-.2756.332-.5934.476-.39.167-.7967.292-1.2132.374l-.8027-.112c-.0605-.008-.12-.022-.1778-.042-.047-.017-.0692-.036-.0692-.055 0-.02.0617-.062.1852-.094.1235-.031.2655-.078.4224-.13.1573-.053.3116-.115.4618-.185.1253-.049.2314-.138.3026-.252l-5.2223-.052c-.1481.108-.3021.207-.4613.298-.2149.115-.443.203-.6792.263-.3446.09-.6955.153-1.0496.19-.5264.054-1.0552.08-1.5844.078-.4791 0-.9446-.016-1.4016-.055-.4085-.032-.8146-.089-1.2157-.173-.3013-.06-.5943-.156-.8724-.286-.226-.113-.3532-.243-.3798-.391l-1.4201-.015c-.1122.001-.2242-.009-.3346-.029-.0976-.019-.1476-.044-.1476-.076v-.141l1.9369.018c.0858-.149.2612-.279.5298-.39.3187-.126.6475-.225.9829-.296l.649.089c.1969.028.2951.062.2951.098 0 .02-.0395.044-.1235.075-.0839.03-.179.064-.2908.106-.1107.041-.2186.09-.3229.146-.0917.044-.1723.109-.2359.188zm-4.7759.197c.0548.107.1457.192.2569.24.1569.076.3229.132.494.166.2186.046.4402.078.6631.096.247.019.5046.029.773.028.2743 0 .5483-.013.8212-.041.2079-.021.4142-.055.6175-.103.158-.038.3125-.089.4618-.153.1224-.054.2405-.117.3532-.189zm11.369-.124c-.0389-.094-.134-.177-.2816-.247-.1809-.081-.3707-.141-.5656-.178-.2649-.053-.5331-.089-.8026-.108-.3046-.023-.6409-.034-1.0089-.032-.2824-.001-.5646.013-.8453.043-.2069.023-.412.06-.6137.112-.1525.038-.3005.093-.4415.163-.1168.059-.2298.126-.3384.199z" fill="#fcb048"/><path d="m33.5405 172.341c-6.8153 0-13.9115.599-15.047 1.761.044.04.0852.084.1235.13.9571-.806 6.8166-1.618 14.9229-1.618 8.3145 0 14.2684.854 14.989 1.68.0355-.045.0738-.089.1148-.129-.9372-1.202-8.1668-1.824-15.1032-1.824z" fill="url(#E)"/><path d="m14.0042 170.548v3.391c0 1.096 6.843 1.984 15.2853 1.984s15.2847-.888 15.2847-1.984v-3.391z" fill="url(#F)"/><path d="m44.5742 170.548c0 1.096-6.8431 1.984-15.2847 1.984s-15.2853-.888-15.2853-1.984 6.843-1.983 15.2853-1.983 15.2847.888 15.2847 1.983z" fill="url(#G)"/><path d="m29.2895 172.669c-7.4766 0-15.2946-.714-15.2946-2.092 0-.075.0271-.208.1031-.208.0759 0 .0426.104.0426.179 0 .874 6.2213 1.847 15.1489 1.847 8.9275 0 15.1483-.973 15.1483-1.847 0-.075.0129-.146.0882-.146.0754 0 .0575.101.0575.177 0 1.377-7.8187 2.09-15.294 2.09z" fill="url(#H)"/><path d="m27.8447 170.659c.1503-.104.3104-.207.4804-.309.2073-.117.4279-.209.657-.274.3298-.094.6669-.16 1.0076-.199.5009-.057 1.0049-.084 1.5091-.081.5906-.004 1.1453.015 1.664.056.4591.032.9158.093 1.3676.181.3309.061.6535.161.9607.298.247.119.3921.254.439.407l1.7208.017c.1109 0 .2215.01.3304.031.0963.019.1426.044.1426.074v.142l-2.2123-.021c-.0778.173-.2756.332-.5934.476-.3901.167-.7968.293-1.2132.374l-.8027-.112c-.0605-.008-.1201-.022-.1778-.042-.047-.017-.0692-.035-.0692-.056 0-.02.0618-.058.1852-.093.1235-.035.2656-.078.4224-.129.1575-.053.3117-.115.4618-.186.1254-.048.2316-.137.3026-.251l-5.2223-.052c-.1482.108-.3022.207-.4613.298-.2148.115-.4429.203-.6791.263-.3447.089-.6955.153-1.0497.19-.5264.054-1.0552.079-1.5843.077-.4792 0-.9447-.016-1.4016-.054-.4093-.03-.8163-.087-1.2182-.169-.3014-.06-.5943-.155-.8725-.286-.226-.113-.3532-.247-.3797-.391l-1.4201-.014c-.1123 0-.2243-.01-.3347-.03-.0975-.019-.1476-.044-.1476-.075v-.142l1.937.018c.0858-.149.2611-.279.5297-.39.3188-.126.6476-.225.983-.296l.6489.09c.197.027.2952.062.2952.097 0 .02-.0396.045-.1235.075-.084.029-.1791.065-.2908.106-.1109.041-.2188.09-.323.146-.0918.045-.1724.109-.2358.189zm-4.7789.193c.0545.108.1455.193.2568.24.1568.077.3228.133.494.166.218.047.4389.079.6612.096.247.02.5047.03.7731.029.2742 0 .5483-.013.8212-.041.2068-.021.412-.056.6143-.104.158-.038.3125-.089.4619-.152.123-.054.2417-.117.355-.189zm11.3689-.126c-.0389-.095-.134-.177-.2816-.247-.1808-.082-.3707-.142-.5655-.179-.265-.053-.5331-.089-.8027-.108-.3042-.023-.6405-.034-1.0089-.033-.2824 0-.5645.015-.8453.044-.207.023-.4121.06-.6137.112-.1526.038-.3006.093-.4415.163-.1168.059-.2298.126-.3384.199z" fill="#fcb048"/><path d="m29.2938 168.779c-6.8153 0-13.9115.601-15.047 1.761.0441.041.0854.085.1235.131.957-.806 6.8166-1.617 14.9229-1.617 8.3145 0 14.2684.853 14.9896 1.679.0352-.045.0734-.089.1142-.129-.9397-1.202-8.1693-1.825-15.1032-1.825z" fill="url(#I)"/><path d="m17.6705 166.998v3.39c0 1.096 6.8437 1.984 15.2854 1.984 8.4416 0 15.2853-.888 15.2853-1.984v-3.39z" fill="url(#J)"/><path d="m48.2412 166.998c0 1.095-6.8437 1.983-15.2853 1.983-8.4417 0-15.2854-.888-15.2854-1.983s6.8437-1.984 15.2854-1.984c8.4416 0 15.2853.888 15.2853 1.984z" fill="url(#K)"/><path d="m32.9559 169.118c-7.4766 0-15.294-.714-15.294-2.091 0-.076.0265-.209.1025-.209.0759 0 .0432.104.0432.18 0 .873 6.2213 1.847 15.1483 1.847 8.9269 0 15.1482-.974 15.1482-1.847 0-.076.013-.147.0883-.147s.0574.101.0574.177c-.0006 1.377-7.818 2.09-15.2939 2.09z" fill="url(#L)"/><path d="m31.5117 167.109c.1494-.104.3095-.207.4804-.309.2072-.117.4275-.209.6563-.274.3298-.094.6669-.16 1.0077-.199.5009-.057 1.0048-.084 1.509-.082.5907-.002 1.1453.016 1.664.057.4594.032.9163.093 1.3682.181.3307.061.6531.161.9601.298.247.118.3934.254.439.407l1.7215.017c.1106 0 .221.01.3297.031.0963.02.1426.044.1426.074v.142l-2.2123-.022c-.0778.174-.2756.333-.5933.477-.3902.167-.7968.292-1.2133.374l-.8027-.112c-.0605-.008-.1201-.022-.1778-.042-.0463-.017-.0692-.035-.0692-.055s.0618-.062.1853-.093c.1235-.032.2649-.079.4217-.131.1575-.052.3117-.114.4618-.185.1255-.049.2318-.137.3032-.251l-5.2229-.052c-.1481.108-.3021.207-.4613.297-.2148.116-.4429.204-.6791.264-.3446.089-.6955.153-1.0497.19-.5264.053-1.0552.079-1.5843.077-.4792 0-.9447-.016-1.401-.054-.4087-.032-.815-.09-1.2164-.173-.3013-.06-.5942-.156-.8724-.286-.226-.114-.3532-.244-.3797-.391l-1.4164-.015c-.1125.001-.2247-.009-.3353-.03-.0976-.018-.147-.043-.1476-.075v-.141l1.9375.018c.0859-.149.2612-.279.5292-.39.3188-.126.6479-.225.9836-.296l.6489.089c.197.028.2945.062.2945.097 0 .021-.0395.045-.1235.075l-.2908.107c-.1107.041-.2186.09-.3229.145-.0916.045-.1722.11-.2359.189zm-4.7796.193c.0548.108.146.193.2575.24.157.076.3229.132.4939.166.2187.047.4402.078.6631.095.247.02.5049.03.7737.029.274 0 .5479-.013.8206-.041.2067-.021.4119-.056.6143-.103.158-.038.3125-.09.4619-.153.1224-.054.2405-.117.3531-.189zm11.3689-.127c-.0389-.094-.1334-.177-.2809-.247-.1812-.081-.3712-.141-.5662-.179-.265-.053-.5331-.089-.8027-.108-.3042-.023-.6405-.034-1.0089-.032-.2821-.001-.5641.014-.8446.044-.2073.022-.4126.059-.6144.111-.1524.039-.3003.094-.4415.163-.1166.06-.2296.126-.3383.199z" fill="#fcb048"/><path d="m32.9578 165.229c-6.8153 0-13.9116.6-15.047 1.76.0439.041.0852.085.1235.131.957-.806 6.8165-1.617 14.9229-1.617 8.3144 0 14.2684.854 14.9896 1.68.035-.046.0732-.089.1142-.13-.9373-1.202-8.1669-1.824-15.1032-1.824z" fill="url(#M)"/><path d="m19.8958 163.437v3.39c0 1.095 6.843 1.984 15.2847 1.984 8.4416 0 15.2853-.889 15.2853-1.984v-3.39z" fill="url(#N)"/><path d="m35.1811 165.421c8.4419 0 15.2853-.889 15.2853-1.984 0-1.096-6.8434-1.984-15.2853-1.984s-15.2853.888-15.2853 1.984c0 1.095 6.8434 1.984 15.2853 1.984z" fill="url(#O)"/><path d="m35.1805 165.557c-7.476 0-15.294-.714-15.294-2.091 0-.076.0271-.209.1025-.209.0753 0 .0432.104.0432.18 0 .873 6.2213 1.846 15.1483 1.846 8.9269 0 15.1482-.973 15.1482-1.846 0-.076.013-.147.0889-.147.076 0 .0575.101.0575.177 0 1.379-7.8181 2.09-15.2946 2.09z" fill="url(#P)"/><path d="m33.7395 163.55c.15-.104.3087-.207.4803-.309.2074-.117.4277-.208.6564-.274.3299-.093.6669-.16 1.0076-.199.5012-.057 1.0053-.084 1.5097-.082.5911-.002 1.1455.017 1.6634.057.4593.033.9162.093 1.3682.181.331.061.6536.161.9607.298.247.119.3934.254.439.407l1.7209.018c.1106-.001.221.009.3297.03.0963.02.1432.044.1432.075v.141l-2.2129-.021c-.0772.173-.2754.332-.5927.476-.3901.167-.7968.293-1.2133.375l-.8027-.113c-.0606-.008-.1204-.022-.1784-.042-.0463-.017-.0685-.035-.0692-.055-.0006-.02.0618-.058.1853-.093.1235-.036.2655-.079.4223-.13.1572-.053.3112-.115.4612-.185.1255-.05.2318-.138.3032-.252l-5.2236-.05c-.1482.107-.3021.207-.4612.297-.215.115-.443.203-.6792.263-.3446.09-.6955.153-1.0496.19-.5266.054-1.0557.08-1.585.078-.4785 0-.9447-.016-1.401-.055-.4085-.031-.8146-.089-1.2157-.173-.3012-.06-.5942-.155-.8724-.285-.2268-.114-.3534-.244-.3798-.392l-1.417-.015c-.1122.001-.2242-.009-.3346-.029-.0976-.019-.1476-.044-.1476-.075v-.142l1.9369.019c.0858-.15.2612-.28.5298-.391.3186-.126.6475-.225.9829-.295l.649.089c.1971.027.2955.06.2951.097 0 .02-.0401.045-.1235.075l-.2908.106c-.1104.042-.2181.09-.3223.146-.0918.044-.1724.109-.2359.189zm-4.7796.193c.0549.108.1461.193.2574.24.157.076.323.132.494.166.2188.047.4406.079.6637.096.247.02.5047.03.7731.028.2742.001.5483-.012.8212-.04.2079-.021.4141-.056.6174-.104.158-.038.3125-.089.4619-.153.122-.052.2399-.114.3525-.185zm11.3695-.127c-.0389-.094-.134-.177-.2815-.247-.181-.081-.3711-.142-.5662-.179-.265-.053-.5331-.089-.8027-.107-.3038-.024-.6399-.034-1.0083-.033-.2823-.001-.5645.014-.8453.044-.2072.023-.4125.06-.6143.112-.1523.038-.3001.093-.4409.163-.117.059-.23.125-.3383.199z" fill="#fcb048"/><path d="m35.183 161.668c-6.8153 0-13.9122.599-15.047 1.761.044.04.0852.084.1235.13.9564-.806 6.8165-1.618 14.9229-1.618 8.3144 0 14.2678.854 14.989 1.68.0355-.045.0737-.088.1142-.129-.9367-1.203-8.1663-1.824-15.1026-1.824z" fill="url(#Q)"/><path d="m18.2534 159.598v3.39c0 1.096 6.8431 1.984 15.2854 1.984 8.4422 0 15.2847-.888 15.2847-1.984v-3.39z" fill="url(#R)"/><path d="m48.8235 159.598c0 1.095-6.8431 1.983-15.2847 1.983-8.4417 0-15.2854-.891-15.2854-1.983s6.8431-1.984 15.2854-1.984c8.4422 0 15.2847.885 15.2847 1.984z" fill="url(#S)"/><path d="m33.5387 161.715c-7.4765 0-15.2946-.714-15.2946-2.092 0-.075.0272-.208.1032-.208.0759 0 .0426.104.0426.18 0 .873 6.2213 1.846 15.1488 1.846 8.9276 0 15.1483-.973 15.1483-1.846 0-.076.013-.147.0883-.147s.0574.101.0574.177c0 1.377-7.818 2.09-15.294 2.09z" fill="url(#T)"/><path d="m32.094 159.705c.15-.104.3087-.206.4803-.308.2074-.117.428-.209.657-.274.3299-.094.6669-.16 1.0077-.199.5009-.057 1.0048-.084 1.509-.082.5911-.003 1.1468.016 1.6671.056.4591.033.9158.093 1.3676.181.3309.062.6534.162.9607.299.247.118.3915.254.439.407l1.7208.017c.1109-.001.2215.01.3304.031.0957.019.1426.044.1426.074v.142l-2.2154-.019c-.0778.174-.2756.333-.5933.477-.3902.167-.7968.292-1.2133.374l-.8027-.112c-.0605-.008-.1201-.022-.1778-.042-.0469-.017-.0691-.035-.0691-.056 0-.02.0617-.058.1852-.092.1235-.035.2655-.079.4223-.131.1575-.052.3117-.114.4619-.185.1253-.049.2315-.137.3025-.251l-5.2223-.052c-.1481.108-.302.207-.4612.297-.2149.115-.443.204-.6792.263-.3446.09-.6955.154-1.0497.191-.5263.053-1.0552.079-1.5843.077-.4791 0-.9447-.016-1.4016-.054-.4085-.032-.8146-.09-1.2157-.173-.3014-.06-.5944-.156-.8725-.286-.226-.114-.3532-.244-.3797-.392l-1.4201-.014c-.1122.001-.2243-.009-.3347-.03-.0975-.018-.1475-.043-.1475-.075v-.141l1.9369.018c.0858-.149.2611-.279.5297-.391.3188-.125.6477-.224.983-.295l.6489.089c.1972.028.2956.06.2952.097 0 .021-.0396.045-.1235.075-.084.029-.1791.065-.2908.107-.1109.041-.2188.089-.323.145-.0917.045-.1723.11-.2358.189zm-4.779.193c.0545.108.1455.193.2568.24.1569.077.3229.133.494.167.2187.046.4402.078.6631.095.247.021.5047.03.7731.028.2742.001.5483-.012.8212-.04.2078-.021.4141-.056.6174-.104.158-.038.3125-.089.4618-.153.1224-.052.2404-.114.3532-.185zm11.3689-.126c-.0389-.094-.134-.177-.2815-.247-.1809-.082-.3707-.142-.5656-.179-.2649-.053-.5331-.089-.8027-.108-.3046-.023-.6409-.034-1.0089-.033-.2823 0-.5645.015-.8453.044-.2069.023-.4121.06-.6137.112-.1524.039-.3003.094-.4415.163-.1168.059-.2298.126-.3383.199z" fill="#fcb048"/><path d="m33.5405 157.826c-6.8153 0-13.9115.6-15.047 1.76.044.041.0853.085.1235.131.9571-.806 6.8166-1.617 14.9229-1.617 8.3145 0 14.2684.853 14.989 1.679.0356-.045.074-.088.1148-.129-.9372-1.202-8.1668-1.824-15.1032-1.824z" fill="url(#U)"/><path d="m14.0042 156.034v3.39c0 1.095 6.843 1.983 15.2853 1.983s15.2847-.888 15.2847-1.983v-3.39z" fill="url(#V)"/><path d="m29.2895 158.017c8.4419 0 15.2853-.888 15.2853-1.983 0-1.096-6.8434-1.984-15.2853-1.984s-15.2853.888-15.2853 1.984c0 1.095 6.8434 1.983 15.2853 1.983z" fill="url(#W)"/><path d="m29.2895 158.154c-7.4766 0-15.2946-.714-15.2946-2.091 0-.076.0271-.209.1031-.209.0759 0 .0426.104.0426.18 0 .873 6.2213 1.846 15.1489 1.846 8.9275 0 15.1483-.973 15.1483-1.846 0-.076.0129-.147.0882-.147.0754 0 .0575.101.0575.177 0 1.377-7.8187 2.09-15.294 2.09z" fill="url(#X)"/><path d="m27.8447 156.144c.1503-.104.3104-.207.4804-.309.2075-.116.428-.208.6569-.273.33-.094.667-.161 1.0077-.2.501-.056 1.0048-.084 1.509-.081.5907-.003 1.1454.016 1.664.057.4592.032.9159.093 1.3677.181.3309.06.6534.16.9607.297.247.119.3921.255.439.407l1.7208.018c.1108-.001.2215.009.3303.03.0963.02.1427.045.1427.075v.141l-2.2123-.021c-.0778.174-.2756.333-.5934.476-.39.168-.7967.293-1.2133.375l-.8026-.112c-.0605-.009-.12-.023-.1779-.042-.0469-.017-.0691-.036-.0691-.056 0-.019.0617-.058.1852-.093s.2655-.078.4223-.13c.1575-.052.3117-.113.4619-.182.1253-.05.2314-.138.3025-.252l-5.2223-.052c-.148.108-.302.207-.4612.297-.2149.115-.443.204-.6792.264-.3446.089-.6955.153-1.0496.19-.5264.054-1.0553.08-1.5844.077-.4791 0-.9447-.016-1.4016-.054-.4085-.032-.8145-.09-1.2157-.173-.3014-.06-.5943-.156-.8725-.286-.2259-.113-.3531-.244-.3797-.391l-1.4201-.015c-.1122 0-.2242-.009-.3346-.029-.0976-.019-.1476-.044-.1476-.076v-.141l1.9369.018c.0858-.149.2612-.279.5298-.39.3187-.126.6475-.225.9829-.296l.649.089c.1969.028.2951.062.2951.098 0 .02-.0395.044-.1235.074-.084.031-.1791.062-.2908.107-.1108.041-.2186.09-.3229.145-.0918.045-.1723.11-.2359.189zm-4.779.193c.0548.108.1457.193.2569.241.1569.076.3229.132.4939.166.2187.046.4403.078.6632.095.2469.021.5046.03.773.029.2742 0 .5483-.014.8212-.041.2068-.021.4121-.056.6143-.104.1581-.037.3126-.088.4619-.152.1224-.054.2405-.117.3532-.189zm11.3689-.126c-.0388-.095-.1339-.177-.2815-.247-.181-.081-.3708-.141-.5656-.179-.265-.053-.5331-.089-.8027-.107-.3041-.024-.6404-.034-1.0088-.033-.2824-.001-.5646.014-.8453.044-.207.023-.412.06-.6138.111-.1525.039-.3004.094-.4414.164-.1168.059-.2298.125-.3384.199z" fill="#fcb048"/><path d="m29.2938 154.265c-6.8153 0-13.9115.599-15.047 1.761.044.04.0852.084.1235.13.957-.806 6.8166-1.618 14.9229-1.618 8.3145 0 14.2684.854 14.9896 1.68.0351-.046.0732-.089.1142-.129-.9397-1.203-8.1693-1.824-15.1032-1.824z" fill="url(#Y)"/><path d="m17.6705 152.483v3.39c0 1.095 6.8437 1.984 15.2854 1.984 8.4416 0 15.2853-.889 15.2853-1.984v-3.39z" fill="url(#Z)"/><path d="m32.9559 154.467c8.4418 0 15.2853-.889 15.2853-1.984 0-1.096-6.8435-1.984-15.2853-1.984-8.4419 0-15.2854.888-15.2854 1.984 0 1.095 6.8435 1.984 15.2854 1.984z" fill="url(#aa)"/><path d="m32.9559 154.603c-7.4766 0-15.294-.714-15.294-2.091 0-.076.0265-.209.1025-.209.0759 0 .0432.104.0432.18 0 .873 6.2213 1.846 15.1483 1.846 8.9269 0 15.1482-.973 15.1482-1.846 0-.076.013-.147.0883-.147s.0574.101.0574.177c-.0006 1.377-7.818 2.09-15.2939 2.09z" fill="url(#ab)"/><path d="m31.5117 152.593c.1494-.104.3095-.206.4804-.309.2071-.117.4274-.209.6563-.274.3299-.093.6669-.16 1.0077-.198.5009-.058 1.0048-.085 1.509-.082.5907-.003 1.1453.016 1.664.056.4593.033.9162.093 1.3682.181.3309.061.6532.161.9601.298.247.119.3934.255.439.407l1.7215.018c.1106-.001.221.009.3297.03.0963.02.1426.044.1426.074v.143l-2.2123-.022c-.0778.174-.2756.332-.5933.476-.39.168-.7967.293-1.2133.375l-.8027-.113c-.0605-.008-.1201-.022-.1778-.042-.0463-.016-.0692-.035-.0692-.055 0-.021.0618-.058.1853-.093.1235-.036.2649-.079.4217-.13.1574-.053.3116-.115.4618-.185.1253-.05.2316-.138.3032-.252l-5.2229-.051c-.1482.107-.3022.206-.4613.297-.2148.115-.4429.204-.6791.263-.3447.089-.6956.153-1.0497.19-.5263.054-1.0552.08-1.5843.077-.4792 0-.9447-.016-1.401-.054-.4088-.032-.815-.09-1.2164-.173-.3012-.06-.5941-.156-.8724-.286-.226-.113-.3532-.244-.3797-.391l-1.4164-.014c-.1125 0-.2247-.01-.3353-.03-.0976-.019-.147-.044-.1476-.075v-.142l1.9375.018c.0859-.149.2612-.279.5292-.39.319-.126.648-.225.9836-.296l.6489.089c.197.028.2945.062.2945.098 0 .02-.0395.045-.1235.074-.0839.03-.179.066-.2908.107-.1107.041-.2186.09-.3229.145-.0916.045-.1722.11-.2359.189zm-4.7796.193c.0546.109.1459.194.2575.241.1568.076.3228.132.4939.166.2186.047.4402.079.6631.095.247.021.5049.03.7737.029.274.001.5479-.013.8206-.04.2068-.022.412-.057.6143-.105.158-.037.3125-.088.4619-.152.1223-.054.2404-.117.3531-.188zm11.3689-.123c-.0389-.095-.1334-.177-.2809-.247-.181-.082-.3711-.142-.5662-.178-.2649-.054-.5331-.09-.8027-.108-.3042-.024-.6405-.035-1.0089-.033-.2821-.001-.5641.014-.8446.044-.2062.022-.4104.058-.6113.11-.1526.038-.3006.093-.4415.163-.1168.059-.2298.126-.3383.199z" fill="#fcb048"/><path d="m32.9578 150.714c-6.8153 0-13.9116.6-15.047 1.761.0439.04.0852.084.1235.13.957-.803 6.8165-1.617 14.9229-1.617 8.3144 0 14.2684.854 14.9896 1.679.0353-.045.0735-.089.1142-.129-.9373-1.202-8.1669-1.824-15.1032-1.824z" fill="url(#ac)"/><path d="m15.7633 148.922v3.39c0 1.096 6.8437 1.984 15.2854 1.984 8.4416 0 15.2865-.888 15.2865-1.984v-3.39z" fill="url(#ad)"/><path d="m31.0493 150.906c8.4418 0 15.2853-.888 15.2853-1.984s-6.8435-1.984-15.2853-1.984c-8.4419 0-15.2854.888-15.2854 1.984s6.8435 1.984 15.2854 1.984z" fill="url(#ae)"/><path d="m31.0486 151.042c-7.4759 0-15.294-.714-15.294-2.091 0-.076.0272-.209.1025-.209.0754 0 .0433.104.0433.18 0 .873 6.2213 1.847 15.1482 1.847 8.927 0 15.1483-.974 15.1483-1.847 0-.076.013-.147.0889-.147.076 0 .0574.101.0574.177 0 1.377-7.818 2.09-15.2946 2.09z" fill="url(#af)"/><path d="m29.6025 149.032c.1501-.103.3088-.206.4804-.308.2073-.117.4276-.209.6563-.274.3299-.094.6669-.16 1.0077-.199.5012-.057 1.0053-.084 1.5096-.082.5903-.003 1.1448.016 1.6634.056.4594.033.9164.093 1.3683.182.3307.061.653.161.9601.298.247.118.3933.254.439.406l1.7214.018c.1107-.001.2211.01.3297.031.0964.019.1427.044.1433.074v.142l-2.2129-.022c-.077.174-.2748.333-.5934.477-.3901.167-.7968.292-1.2133.374l-.8026-.112c-.0605-.008-.1201-.022-.1779-.042-.0463-.017-.0691-.036-.0691-.055 0-.02.0617-.059.1852-.094.1235-.034.2655-.078.4217-.13.1576-.052.3118-.114.4619-.185.1254-.049.2317-.137.3031-.251l-5.2235-.049c-.1481.107-.3021.207-.4612.297-.2149.115-.443.204-.6792.263-.3446.09-.6955.154-1.0497.191-.5263.053-1.0552.079-1.5843.077-.4785 0-.9447-.016-1.401-.055-.4087-.031-.815-.089-1.2163-.172-.3012-.06-.5939-.156-.8719-.286-.2266-.114-.3538-.247-.3797-.391l-1.4201-.015c-.1122.001-.2243-.009-.3347-.03-.0981-.018-.1475-.043-.1475-.075v-.141l1.9375.018c.0858-.149.2612-.279.5298-.39.3185-.127.6474-.226.9829-.296l.649.089c.1969.028.2945.062.2951.097 0 .02-.0401.045-.1235.075l-.2908.107c-.1105.041-.2182.09-.3223.145-.0919.045-.1727.11-.2365.189zm-4.7777.193c.055.108.1461.193.2575.24.157.076.3229.132.4939.166.2187.047.4402.079.6631.095.247.021.5049.03.7737.029.2742.001.5483-.013.8212-.04.2068-.022.412-.056.6143-.104.158-.038.3125-.089.4619-.153.1224-.053.2403-.116.3525-.188zm11.3695-.123c-.0389-.094-.134-.177-.2815-.247-.1812-.082-.3712-.142-.5662-.179-.265-.053-.5331-.089-.8027-.108-.3042-.023-.6403-.034-1.0083-.032-.2823-.001-.5645.014-.8452.044-.2083.022-.4147.059-.6175.111-.1522.039-.2999.094-.4408.163-.1168.06-.2298.126-.3384.199z" fill="#fcb048"/><path d="m31.051 147.153c-6.8159 0-13.9121.599-15.047 1.76.0438.041.0851.085.1235.131.9564-.806 6.8159-1.618 14.9229-1.618 8.3145 0 14.2678.854 14.989 1.681.0352-.046.0734-.089.1142-.13-.9366-1.202-8.1662-1.824-15.1026-1.824z" fill="url(#ag)"/><path d="m50.682 151.312-2.7631 1.965c-.8928.635 2.3506 6.726 7.2438 13.605 4.8933 6.879 9.5833 11.941 10.4762 11.306l2.7624-1.965z" fill="url(#ah)"/><path d="m68.4013 176.223c-.8928.635-5.5829-4.427-10.4761-11.306s-8.136-12.97-7.2432-13.605 5.5829 4.426 10.4761 11.306c4.8932 6.879 8.136 12.972 7.2432 13.605z" fill="url(#ai)"/><path d="m57.8134 164.996c-4.3332-6.092-8.2829-12.876-7.1623-13.675.0618-.044.1853-.099.2297-.037.0445.062-.0617.095-.1235.139-.7119.506 2.0993 6.14 7.2759 13.415 5.1767 7.274 9.5704 11.78 10.2854 11.273.0617-.043.1265-.074.1704-.012.0438.061-.0488.105-.1106.149-1.1188.798-6.2312-5.159-10.565-11.252z" fill="url(#aj)"/><path d="m58.6142 162.654c.1717.062.3476.133.5292.214.2151.101.4176.227.6032.376.2678.214.5175.45.7465.706.3371.375.6515.77.9416 1.183.3445.479.6506.942.9181 1.388.2398.393.4553.8.6453 1.22.1425.305.248.625.3142.955.0457.269.02.467-.0772.593l.983 1.413c.0649.09.1207.186.1667.287.0395.09.0463.142.0222.159l-.1154.083-1.2651-1.816c-.1853.038-.4323-.031-.7317-.207-.3624-.221-.7003-.479-1.0083-.771l-.376-.722c-.0283-.054-.0513-.111-.0686-.169-.0129-.048-.0111-.077.005-.089.016-.011.084.017.1852.099.1013.081.2174.17.3501.268.1338.098.2729.188.4168.271.1126.073.246.109.3803.1l-2.9847-4.285c-.1736-.059-.3439-.126-.51-.204-.2177-.108-.4215-.242-.6069-.399-.2733-.229-.5288-.478-.7644-.745-.3491-.398-.6768-.814-.9817-1.246-.28-.389-.536-.78-.7681-1.173-.2109-.352-.399-.716-.5632-1.091-.1262-.28-.2178-.574-.2729-.877-.0391-.25-.0063-.429.0982-.536l-.8094-1.163c-.0653-.091-.1221-.188-.1698-.29-.0414-.091-.0494-.146-.0241-.164l.1148-.083 1.1114 1.59c.1708-.017.3791.051.6249.205.2876.187.5588.397.8107.63l.3037.58c.0914.177.1235.275.0914.297-.016.012-.0617-.007-.1309-.055-.0691-.049-.1574-.108-.2556-.176-.0986-.066-.2018-.126-.3087-.178-.0896-.049-.1889-.077-.2908-.083zm-2.9279-3.782c-.0561.107-.0725.231-.0463.349.0286.171.079.339.1501.497.0898.206.1929.405.3087.596.1268.213.2686.428.4254.647.1584.224.3282.439.5088.646.1371.156.2844.303.4408.44.1223.107.2535.203.3921.288.1146.068.2343.128.3581.178zm6.6937 9.191c.0537-.086.0661-.212.0383-.37-.0395-.195-.1016-.385-.1853-.565-.1102-.247-.2364-.486-.3778-.717-.1569-.261-.3421-.542-.5557-.84-.1631-.231-.3387-.452-.5261-.664-.1381-.155-.2873-.301-.4464-.436-.1197-.102-.2501-.19-.389-.264-.116-.061-.2356-.115-.3581-.161z" fill="#fcb048"/><path d="m60.9839 162.747c-3.9516-5.554-8.5521-10.99-10.1562-11.241-.0075.06-.0191.119-.0346.177 1.2114.312 5.2692 4.617 9.9679 11.223 4.8198 6.775 7.5748 12.121 7.3198 13.188.0575.002.1148.008.1716.017.4341-1.463-3.2477-7.715-7.2685-13.364z" fill="url(#ak)"/><path d="m140.063 169.431-1.384.109c-.358.029-.718.014-1.073-.044l-5.486-.894-.09-.015-6.375-1.04h-.039l-4.996-.809v-28.11h5.025.01l6.375.317.095.047 7.71.297z" fill="url(#al)"/><path d="m159.461 140.417v26.235c.002.45-.168.883-.476 1.21-.308.328-.729.525-1.178.551l-18.296 1.089c-.741.044-1.372-.571-1.372-1.334v-27.332c0-.764.599-1.397 1.341-1.42l18.429-.513c.202-.007.404.028.593.101.188.074.36.185.505.326s.26.311.338.497c.078.187.117.388.116.59z" fill="url(#am)"/><path d="m120.659 138.629 17.48.827 19.77-.551-20.269-.66z" fill="url(#an)"/><path d="m157.883 138.906-14.433.402c-.401.016-.78.186-1.058.476s-.433.676-.432 1.078c0 1.4.235 2.847.851 4.243 2.055 4.654 6.647 4.825 7.603 9.097.796 3.559-2.023 5.09-2.322 9.638-.08 1.298.049 2.6.381 3.858.09.349.298.657.589.871s.647.321 1.008.302l7.946-.473c.392-.022.76-.195 1.029-.481s.418-.665.416-1.057v-26.417c.001-.205-.04-.409-.119-.599-.079-.189-.196-.361-.343-.505-.148-.143-.322-.256-.514-.33-.192-.075-.396-.11-.602-.103z" fill="url(#ao)" opacity=".3"/><path d="m144.553 169.202 6.783-.404v-29.71l-6.783.19z" fill="url(#ap)"/><path d="m144.858 169.184 6.478-.386v-29.71l-6.478.181z" fill="url(#aq)"/><path d="m131.938 139.032v29.57l-6.214-1.055v-28.683l1.979-.037z" fill="url(#ar)"/><path d="m132.576 138.359 18.91 1.075h-6.798l-16.534-.975z" fill="url(#as)"/><path d="m141.777 137.451c.44-2.697.763-4.669 2.524-6.49.741-.767 1.554-1.605 2.884-1.828 1.53-.256 3.483.348 4.018 1.597.508 1.186-.689 1.959-.18 3.322s2 1.34 2.161 2.446c.138.937-.776 2-1.699 2.499-1.595.86-2.5-.351-5.615-.155-2.146.135-3.385.814-3.966.129-.274-.326-.247-.78-.127-1.52z" fill="url(#at)"/><path d="m150.302 136.395c-1.923-.735-2.909-2.335-3.761-1.957-.756.337-.294 1.741-1.184 2.885-.812 1.044-2.302 1.292-3.626 1.293.03.13.09.252.175.355.581.685 1.82.006 3.966-.129 3.114-.196 4.02 1.015 5.615.155.847-.457 1.684-1.39 1.71-2.265-.899.097-1.897.045-2.895-.337z" fill="url(#au)" opacity=".09"/><path d="m130.163 130.782c1.296-1.022 2.655.117 4.249-1.005 1.613-1.137 1.144-2.96 2.395-3.477 1.453-.601 3.606 1.232 4.636 2.395 2.616 2.954 3.844 8.199 1.777 10.044-.777.692-2.974.407-7.338-.192-4.988-.685-5.705-1.173-6.183-1.817-1.286-1.73-.997-4.793.464-5.948z" fill="url(#av)"/><path d="m138.352 132.996c-.718-.227-1.049.596-2.524.926-.271.062-2.876.605-4.274-1.03-.556-.649-.816-1.521-.786-2.447-.219.077-.424.191-.605.336-1.464 1.155-1.75 4.219-.464 5.948.478.642 1.195 1.133 6.183 1.817 4.364.599 6.561.884 7.338.192.103-.094.199-.198.285-.308-1.049-.035-2.145-.288-2.938-1.059-1.53-1.483-.993-3.99-2.215-4.375z" fill="url(#aw)" opacity=".09"/><path d="m138.662 138.916-6.632.251-6.385-.303 2.064-.037 9.038-.161z" fill="url(#ax)"/></svg>