<svg fill="none" height="180" viewBox="0 0 265 180" width="265" xmlns="http://www.w3.org/2000/svg"><path d="m228.198 95.6237c0 35.0413-19.166 67.2813-49.985 84.0513-14.292.203-29.722.325-45.842.325-15.998 0-31.306-.122-45.4772-.325-30.7783-16.77-49.9436-49.01-49.9436-84.0513 0-52.8265 42.7972-95.6237 95.6238-95.6237 52.826 0 95.624 42.7972 95.624 95.6237z" fill="#c0db77"/><path d="m195.836 120.677-49.01 14.171c-1.421.406-2.964-.406-3.37-1.868l-24.85-85.7975-3.614-12.4656-1.096-3.7356c-.406-1.4618.406-2.9642 1.867-3.3702l15.105-4.3853 18.069-5.238 15.836-4.5883c1.421-.4061 2.964.406 3.37 1.8678l20.262 70.0835 9.258 31.9962c.446 1.421-.406 2.924-1.827 3.33z" fill="#4eba6e"/><path d="m146.054 135.782c-.568 0-1.177-.163-1.705-.447-.812-.447-1.421-1.218-1.705-2.111l-24.85-85.7979-4.71-16.2012c-.528-1.8678.527-3.8168 2.395-4.3853l49.01-14.171c1.868-.5278 3.817.5279 4.385 2.3957l20.262 70.0022 9.258 31.9965c.528 1.868-.528 3.817-2.396 4.385l-49.01 14.171c-.284.122-.609.163-.934.163zm19.491-121.611c-.163 0-.366.0406-.528.0812l-49.01 14.171c-1.015.2842-1.584 1.3399-1.299 2.355l4.71 16.2013 24.809 85.7975c.284 1.015 1.34 1.583 2.355 1.299l49.01-14.171c1.015-.284 1.584-1.34 1.299-2.355l-9.258-31.9962-20.261-70.0023c-.244-.8527-1.015-1.3805-1.827-1.3805z" fill="#6e4940"/><path d="m189.786 116.088-40.28 11.654c-.609.162-1.259-.162-1.421-.772l-27.043-93.3088c-.162-.6091.163-1.2588.772-1.4212l40.279-11.6535c.609-.1624 1.259.1624 1.421.7715l27.002 93.309c.244.609-.121 1.259-.73 1.421z" fill="#fff"/><path d="m149.14 128.595c-.324 0-.649-.082-.933-.244-.447-.244-.813-.69-.934-1.178l-27.002-93.2682c-.285-1.0557.284-2.152 1.34-2.4363l40.279-11.6535c1.056-.2842 2.152.2843 2.437 1.34l27.002 93.309c.162.488.081 1.056-.163 1.503-.243.446-.69.812-1.177.934l-40.28 11.653c-.203.041-.366.041-.569.041zm13.278-107.237c-.04 0-.081 0-.081 0l-40.28 11.6535c-.203.0406-.284.2436-.243.4467l27.002 93.3088c.04.122.121.163.162.203.041.041.122.082.244.041l40.279-11.653c.122-.041.163-.122.203-.163.041-.04.082-.162.041-.243l-26.961-93.3504c-.041-.1624-.203-.2436-.366-.2436z" fill="#6e4940"/><path d="m195.836 120.677-49.01 14.171c-1.421.406-2.964-.406-3.37-1.868l-24.85-85.7975-3.614-12.4656 2.558-.9339s29.56 31.0625 66.104 49.2127l4.751 2.2739 9.258 31.9964c.447 1.502-.406 3.005-1.827 3.411z" fill="#e4d7db"/><path d="m155.109 85.7568c7.692 0 13.928-6.2355 13.928-13.9273 0-7.6919-6.236-13.9274-13.928-13.9274-7.691 0-13.927 6.2355-13.927 13.9274 0 7.6918 6.236 13.9273 13.927 13.9273z" fill="#4eba6e"/><path d="m155.109 86.5689c-8.121 0-14.739-6.6185-14.739-14.7394s6.618-14.7395 14.739-14.7395 14.74 6.6186 14.74 14.7395-6.578 14.7394-14.74 14.7394zm0-27.8547c-7.227 0-13.115 5.8877-13.115 13.1153s5.888 13.1152 13.115 13.1152c7.228 0 13.116-5.8876 13.116-13.1152s-5.847-13.1153-13.116-13.1153z" fill="#6e4940"/><path d="m172.529 30.4534c-6.659 4.7914-15.998 3.289-20.79-3.3702-1.908-2.6393-2.883-5.8064-2.801-9.0142l15.835-4.5883c1.421-.406 2.964.4061 3.371 1.8678z" fill="#4eba6e"/><path d="m163.839 34.0672c-4.872 0-9.704-2.2738-12.749-6.5373-1.99-2.7611-3.046-6.1313-2.965-9.5015v-.6091l16.445-4.7507c1.868-.5278 3.817.5279 4.386 2.3957l4.547 15.6733-.446.3249c-2.843 2.0302-6.05 3.0047-9.218 3.0047zm-14.089-15.3891c.081 2.8423.974 5.644 2.639 7.9179 2.193 3.0453 5.441 5.0755 9.177 5.6846 3.532.5685 7.065-.203 10.029-2.152l-4.223-14.5771c-.284-1.0151-1.34-1.5835-2.355-1.2993z" fill="#6e4940"/><path d="m132.087 39.5082c-2.68 4.8726-7.878 7.8773-13.441 7.7149l-4.71-16.2012c-.406-1.4618.406-2.9641 1.868-3.3702l15.105-4.3853c3.533 4.7101 4.02 11.0851 1.178 16.2418z" fill="#4eba6e"/><path d="m119.053 48.0352c-.163 0-.285 0-.447 0h-.609l-4.873-16.7697c-.528-1.8678.528-3.8168 2.396-4.3853l15.673-4.5477.325.4467c3.776 4.9537 4.264 11.6535 1.259 17.0945-2.761 5.0756-7.999 8.1615-13.724 8.1615zm11.491-23.8349-14.537 4.2229c-1.015.2842-1.583 1.34-1.299 2.3551l4.507 15.6327c5.076-.0812 9.664-2.8423 12.141-7.3088 2.598-4.7101 2.274-10.5166-.812-14.9019z" fill="#6e4940"/><path d="m190.354 101.268-36.057 36.057c-1.056 1.055-2.761 1.055-3.857 0l-63.1809-63.1405-9.1767-9.1766-2.7611-2.7611c-1.0557-1.0557-1.0557-2.7611 0-3.8575l11.1257-11.1256 13.2777-13.2777 11.6943-11.6535c1.055-1.0557 2.761-1.0557 3.857 0l51.527 51.5272 23.551 23.5506c1.056 1.0963 1.056 2.8017 0 3.8577z" fill="#4eba6e"/><path d="m152.348 138.949c-.893 0-1.827-.325-2.477-1.015l-63.1804-63.181-11.8971-11.9377c-1.3806-1.3806-1.3806-3.6138 0-4.9944l36.0565-36.0568c1.381-1.3806 3.614-1.3806 4.995 0l51.527 51.5271 23.551 23.5507c1.38 1.3805 1.38 3.6141 0 4.9941l-36.057 36.057c-.731.69-1.625 1.056-2.518 1.056zm-39.021-116.6165c-.487 0-.974.203-1.34.5685l-36.0566 36.0974c-.7309.7309-.7309 1.949 0 2.6799l2.7611 2.7611 9.1766 9.1767 63.1809 63.1399c.365.366.853.569 1.34.569.528 0 .974-.203 1.34-.569l36.057-36.057c.73-.7306.73-1.9487 0-2.6796l-23.551-23.5506-51.568-51.5678c-.365-.3655-.853-.5685-1.34-.5685z" fill="#6e4940"/><path d="m182.802 100.171-29.682 29.682c-.447.447-1.178.447-1.624 0l-68.6627-68.7025c-.4467-.4466-.4467-1.1775 0-1.6242l29.6817-29.6819c.447-.4467 1.178-.4467 1.624 0l68.663 68.6623c.487.4466.487 1.1775 0 1.6643z" fill="#fff"/><path d="m152.348 130.95c-.527 0-1.015-.203-1.38-.569l-68.7031-68.6621c-.7715-.7714-.7715-2.0302 0-2.8017l29.6821-29.6819c.771-.7715 2.03-.7715 2.802 0l68.662 68.6623c.771.7715.771 2.0302 0 2.8014l-29.682 29.682c-.366.366-.853.569-1.381.569zm-39.021-100.6184c-.081 0-.162.0406-.243.0812l-29.6822 29.682c-.1218.1218-.1218.3654 0 .4872l68.6622 68.662c.081.082.203.082.244.082.04 0 .162 0 .243-.082l29.682-29.6816c.122-.1218.122-.3655 0-.4873l-68.662-68.6623c-.081-.0812-.162-.0812-.244-.0812z" fill="#6e4940"/><path d="m190.354 101.268-36.057 36.057c-1.055 1.055-2.761 1.055-3.857 0l-63.1809-63.1405-9.1766-9.1766 1.7866-2.0708s40.8889 12.9528 81.6559 11.2474l5.278-.2842 23.551 23.5506c1.015 1.0558 1.015 2.7611 0 3.8171z" fill="#e4d7db"/><path d="m131.112 92.0505c7.692 0 13.928-6.2355 13.928-13.9273 0-7.6919-6.236-13.9274-13.928-13.9274s-13.927 6.2355-13.927 13.9274c0 7.6918 6.235 13.9273 13.927 13.9273z" fill="#4eba6e"/><path d="m131.112 92.8626c-8.121 0-14.739-6.6185-14.739-14.7394s6.618-14.7395 14.739-14.7395 14.74 6.6186 14.74 14.7395-6.619 14.7394-14.74 14.7394zm0-27.8547c-7.227 0-13.115 5.8877-13.115 13.1153s5.888 13.1152 13.115 13.1152c7.228 0 13.116-5.8876 13.116-13.1152s-5.888-13.1153-13.116-13.1153z" fill="#6e4940"/><path d="m126.402 33.4581c-3.533 7.4307-12.425 10.5978-19.856 7.0652-2.923-1.3805-5.319-3.695-6.8211-6.5373l11.6941-11.6535c1.056-1.0557 2.761-1.0557 3.857 0z" fill="#4eba6e"/><path d="m112.921 42.7972c-2.233 0-4.547-.4872-6.7-1.5024-3.045-1.4617-5.603-3.898-7.1865-6.9027l-.2843-.5279 12.0998-12.1001c1.381-1.3806 3.614-1.3806 4.995 0l11.531 11.5316-.243.5279c-2.68 5.644-8.324 8.9736-14.212 8.9736zm-12.181-8.6488c1.421 2.4363 3.573 4.4665 6.172 5.6847 3.411 1.6242 7.227 1.7866 10.76.5278 3.37-1.2181 6.091-3.5732 7.755-6.7403l-10.719-10.7196c-.731-.7309-1.949-.7309-2.68 0z" fill="#6e4940"/><path d="m95.3395 60.9474c0 5.5628-3.1265 10.679-8.0803 13.2371l-11.8971-11.9377c-1.0557-1.0558-1.0557-2.7612 0-3.8575l11.1256-11.1256c5.3598 2.4362 8.8518 7.7554 8.8518 13.6837z" fill="#4eba6e"/><path d="m87.0967 75.159-12.3438-12.3438c-1.3805-1.3805-1.3805-3.6138 0-4.9943l11.4911-11.4911.5279.2436c5.6846 2.5175 9.339 8.1615 9.339 14.374 0 5.9283-3.2483 11.2475-8.5269 13.968zm-.4466-26.8802-10.7196 10.7196c-.7309.7309-.7309 1.949 0 2.6799l11.4911 11.4911c4.3853-2.5175 7.1058-7.1464 7.1058-12.222 0-5.4004-3.086-10.3135-7.8773-12.6686z" fill="#6e4940"/><path d="m264.782 174.397c0 2.395-36.016 4.466-86.569 5.278-14.292.203-29.722.325-45.842.325-15.998 0-31.306-.122-45.4772-.325-50.6745-.771-86.8938-2.842-86.8938-5.278 0-2.152 29.1541-4.061 71.7483-4.995 18.1908-.406 38.7777-.609 60.6627-.609 22.008 0 42.716.244 60.989.609 42.431.975 71.382 2.843 71.382 4.995z" fill="#d3c9c7"/><path d="m251.18 171.554h-240.3385c-.5684 0-1.01508-.446-1.01508-1.015 0-.568.44668-1.015 1.01508-1.015h240.3385c.568 0 1.015.447 1.015 1.015 0 .569-.447 1.015-1.015 1.015z" fill="#6e4940"/><path d="m206.149 79.3819v82.6301c0 4.385-3.532 7.918-7.917 7.918h-134.4015c-4.3853 0-7.9179-3.533-7.9179-7.918v-82.6301c0-4.3853 3.5326-7.9178 7.9179-7.9178h134.4015c4.385 0 7.917 3.5325 7.917 7.9178z" fill="#6e4940"/><path d="m204.119 79.3819v82.6301c0 3.249-2.639 5.888-5.888 5.888h-134.4007c-3.2484 0-5.8877-2.599-5.8877-5.847v-.041-82.6301c0-3.2483 2.6393-5.8876 5.8877-5.8876h134.4007c3.249 0 5.888 2.6393 5.888 5.8876z" fill="#ec974d"/><path d="m204.119 79.4225v82.5895c0 3.289-2.639 5.928-5.928 5.928h-135.3758c-2.0708-.487-3.492-1.461-4.3853-3.532h87.9901c22.008 0 39.874-17.866 39.874-39.874v-51.0397h11.937c3.249 0 5.888 2.6393 5.888 5.9282z" fill="#d3894b"/><path d="m201.317 74.4282h-134.6443c-3.2484 0-5.8877 2.6393-5.8877 5.8876v82.6712c0 .771.1624 1.502.4467 2.233-1.0557-.081-2.0709-.487-2.9642-1.137-.2436-.65-.3654-1.34-.3654-2.03v-82.6711c0-3.2483 2.6393-5.8876 5.8877-5.8876h134.4012c1.056 0 2.111.2842 3.005.8121.081.0406.081.0812.121.1218z" fill="#f6c9a2"/><g fill="#6e4940"><path d="m59.9325 84.8635h-2.8424c-.609 0-1.0557-.4872-1.0557-1.0557s.4873-1.0557 1.0557-1.0557h2.8424c.609 0 1.0557.4872 1.0557 1.0557s-.4873 1.0557-1.0557 1.0557z"/><path d="m194.78 84.8635h-5.603c-.61 0-1.097-.4872-1.097-1.0557s.487-1.0557 1.097-1.0557h5.603c.609 0 1.096.4872 1.096 1.0557s-.487 1.0557-1.096 1.0557zm-11.247 0h-5.604c-.609 0-1.096-.4872-1.096-1.0557s.487-1.0557 1.096-1.0557h5.604c.609 0 1.096.4872 1.096 1.0557s-.487 1.0557-1.096 1.0557zm-11.207 0h-5.604c-.609 0-1.096-.4872-1.096-1.0557s.487-1.0557 1.096-1.0557h5.604c.609 0 1.096.4872 1.096 1.0557s-.528 1.0557-1.096 1.0557zm-11.248 0h-5.603c-.609 0-1.097-.4872-1.097-1.0557s.488-1.0557 1.097-1.0557h5.603c.609 0 1.097.4872 1.097 1.0557s-.528 1.0557-1.097 1.0557zm-11.247 0h-5.604c-.609 0-1.096-.4872-1.096-1.0557s.487-1.0557 1.096-1.0557h5.604c.609 0 1.096.4872 1.096 1.0557s-.487 1.0557-1.096 1.0557zm-11.248 0h-5.603c-.609 0-1.056-.4872-1.056-1.0557s.487-1.0557 1.056-1.0557h5.603c.609 0 1.097.4872 1.097 1.0557s-.488 1.0557-1.097 1.0557zm-11.247 0h-5.604c-.609 0-1.055-.4872-1.055-1.0557s.487-1.0557 1.055-1.0557h5.604c.609 0 1.056.4872 1.056 1.0557s-.447 1.0557-1.056 1.0557zm-11.207 0h-5.603c-.61 0-1.056-.4872-1.056-1.0557s.487-1.0557 1.056-1.0557h5.603c.609 0 1.056.4872 1.056 1.0557s-.488 1.0557-1.056 1.0557zm-11.247 0h-5.6039c-.6091 0-1.0557-.4872-1.0557-1.0557s.4872-1.0557 1.0557-1.0557h5.6039c.609 0 1.055.4872 1.055 1.0557s-.487 1.0557-1.055 1.0557zm-11.2479 0h-5.6035c-.609 0-1.0557-.4872-1.0557-1.0557s.4873-1.0557 1.0557-1.0557h5.6035c.609 0 1.0557.4872 1.0557 1.0557s-.4467 1.0557-1.0557 1.0557zm-11.2475 0h-5.6034c-.6091 0-1.0558-.4872-1.0558-1.0557s.4873-1.0557 1.0558-1.0557h5.6034c.6091 0 1.0557.4872 1.0557 1.0557s-.4466 1.0557-1.0557 1.0557zm-11.2475 0h-5.6034c-.6091 0-1.0557-.4872-1.0557-1.0557s.4872-1.0557 1.0557-1.0557h5.6034c.6091 0 1.0557.4872 1.0557 1.0557s-.4466 1.0557-1.0557 1.0557z"/><path d="m203.266 84.8635h-2.842c-.609 0-1.096-.4872-1.096-1.0557s.487-1.0557 1.096-1.0557h2.842c.609 0 1.097.4872 1.097 1.0557s-.528 1.0557-1.097 1.0557z"/><path d="m59.9325 158.642h-2.8424c-.609 0-1.0557-.487-1.0557-1.096s.4873-1.097 1.0557-1.097h2.8424c.609 0 1.0557.488 1.0557 1.097s-.4873 1.096-1.0557 1.096z"/><path d="m194.78 158.642h-5.603c-.61 0-1.097-.487-1.097-1.096s.487-1.097 1.097-1.097h5.603c.609 0 1.096.488 1.096 1.097s-.487 1.096-1.096 1.096zm-11.247 0h-5.604c-.609 0-1.096-.487-1.096-1.096s.487-1.097 1.096-1.097h5.604c.609 0 1.096.488 1.096 1.097s-.487 1.096-1.096 1.096zm-11.207 0h-5.604c-.609 0-1.096-.487-1.096-1.096s.487-1.097 1.096-1.097h5.604c.609 0 1.096.488 1.096 1.097s-.528 1.096-1.096 1.096zm-11.248 0h-5.603c-.609 0-1.097-.487-1.097-1.096s.488-1.097 1.097-1.097h5.603c.609 0 1.097.488 1.097 1.097s-.528 1.096-1.097 1.096zm-11.247 0h-5.604c-.609 0-1.096-.487-1.096-1.096s.487-1.097 1.096-1.097h5.604c.609 0 1.096.488 1.096 1.097s-.487 1.096-1.096 1.096zm-11.248 0h-5.603c-.609 0-1.056-.487-1.056-1.096s.487-1.097 1.056-1.097h5.603c.609 0 1.097.488 1.097 1.097s-.488 1.096-1.097 1.096zm-11.247 0h-5.604c-.609 0-1.055-.487-1.055-1.096s.487-1.097 1.055-1.097h5.604c.609 0 1.056.488 1.056 1.097s-.447 1.096-1.056 1.096zm-11.207 0h-5.603c-.61 0-1.056-.487-1.056-1.096s.487-1.097 1.056-1.097h5.603c.609 0 1.056.488 1.056 1.097s-.488 1.096-1.056 1.096zm-11.247 0h-5.6039c-.6091 0-1.0557-.487-1.0557-1.096s.4872-1.097 1.0557-1.097h5.6039c.609 0 1.055.488 1.055 1.097s-.487 1.096-1.055 1.096zm-11.2479 0h-5.6035c-.609 0-1.0557-.487-1.0557-1.096s.4873-1.097 1.0557-1.097h5.6035c.609 0 1.0557.488 1.0557 1.097s-.4467 1.096-1.0557 1.096zm-11.2475 0h-5.6034c-.6091 0-1.0558-.487-1.0558-1.096s.4873-1.097 1.0558-1.097h5.6034c.6091 0 1.0557.488 1.0557 1.097s-.4466 1.096-1.0557 1.096zm-11.2475 0h-5.6034c-.6091 0-1.0557-.487-1.0557-1.096s.4872-1.097 1.0557-1.097h5.6034c.6091 0 1.0557.488 1.0557 1.097s-.4466 1.096-1.0557 1.096z"/><path d="m203.266 158.642h-2.842c-.609 0-1.096-.487-1.096-1.096s.487-1.097 1.096-1.097h2.842c.609 0 1.097.488 1.097 1.097s-.528 1.096-1.097 1.096z"/></g><path d="m57.4556 109.267h26.8802c6.2937 0 11.4099 5.116 11.4099 11.41 0 6.293-5.1162 11.41-11.4099 11.41h-26.8802z" fill="#c0653a"/><path d="m84.295 133.183h-26.8396c-.6091 0-1.0557-.487-1.0557-1.096v-22.82c0-.609.4872-1.096 1.0557-1.096h26.8396c6.9028 0 12.4656 5.603 12.4656 12.465s-5.5628 12.547-12.4656 12.547zm-25.7839-2.152h25.7839c5.6846 0 10.3136-4.629 10.3136-10.314 0-5.684-4.629-10.313-10.3136-10.313h-25.7839z" fill="#6e4940"/><path d="m78.9759 132.087h-21.8858v-22.82h21.8858c6.2937 0 11.4099 5.116 11.4099 11.41 0 6.334-5.1162 11.41-11.4099 11.41z" fill="#dc762d"/><path d="m78.976 133.183h-21.8859c-.609 0-1.0557-.487-1.0557-1.096v-22.82c0-.609.4873-1.096 1.0557-1.096h21.8859c6.8622 0 12.4656 5.603 12.4656 12.465s-5.6034 12.547-12.4656 12.547zm-20.8301-2.152h20.8301c5.6846 0 10.3136-4.629 10.3136-10.314 0-5.684-4.629-10.313-10.3136-10.313h-20.8301z" fill="#6e4940"/><path d="m80.0723 126.158c1.9286 0 3.492-2.181 3.492-4.872s-1.5634-4.873-3.492-4.873-3.492 2.182-3.492 4.873 1.5634 4.872 3.492 4.872z" fill="#f6b27a"/><path d="m78.1231 125.062c1.794 0 3.2484-1.909 3.2484-4.263 0-2.355-1.4544-4.264-3.2484-4.264s-3.2483 1.909-3.2483 4.264c0 2.354 1.4543 4.263 3.2483 4.263z" fill="#fedc5b"/><path d="m78.1233 126.158c-2.3957 0-4.3447-2.395-4.3447-5.319 0-2.923 1.949-5.319 4.3447-5.319 2.3956 0 4.3446 2.396 4.3446 5.319 0 2.924-1.949 5.319-4.3446 5.319zm0-8.527c-1.1776 0-2.1927 1.462-2.1927 3.168 0 1.705 1.0151 3.167 2.1927 3.167 1.1775 0 2.1926-1.462 2.1926-3.167 0-1.706-1.0151-3.168-2.1926-3.168z" fill="#6e4940"/><path d="m203.876 132.818 20.464 13.074c2.152 1.381 2.802 4.264 1.421 6.416-1.38 2.152-4.263 2.801-6.415 1.421l-20.465-13.075c-2.152-1.38-2.802-4.263-1.421-6.415s4.263-2.802 6.416-1.421z" fill="#6e4940"/><g fill="#feda3b"><path d="m202.82 133.63-3.655 5.725c-1.461-1.218-1.624-3.37-.406-4.832.975-1.178 2.64-1.543 4.061-.893z"/><path d="m203.551 134.032-3.698 5.781 2.703 1.728 3.697-5.781z"/><path d="m206.992 136.2-3.697 5.781 2.702 1.728 3.698-5.781z"/><path d="m210.414 138.397-3.697 5.781 2.702 1.728 3.697-5.781z"/><path d="m213.833 140.597-3.697 5.781 2.702 1.728 3.698-5.781z"/><path d="m217.251 142.797-3.698 5.782 2.703 1.728 3.697-5.781z"/><path d="m220.659 144.942-3.698 5.781 2.703 1.728 3.697-5.781z"/><path d="m224.706 151.658c-.934 1.462-2.761 1.99-4.304 1.259l3.654-5.725c1.299 1.136 1.584 3.045.65 4.466z"/></g><path d="m200.465 153.851h24.281c2.558 0 4.629 2.07 4.629 4.629 0 2.558-2.071 4.628-4.629 4.628h-24.281c-2.558 0-4.629-2.07-4.629-4.628 0-2.559 2.071-4.629 4.629-4.629z" fill="#6e4940"/><g fill="#feda3b"><path d="m200.018 155.109v6.781c-1.868-.243-3.167-1.989-2.923-3.857.203-1.543 1.421-2.721 2.923-2.924z"/><path d="m204.079 155.069h-3.208v6.862h3.208z"/><path d="m208.139 155.069h-3.208v6.862h3.208z"/><path d="m212.199 155.069h-3.207v6.862h3.207z"/><path d="m216.26 155.069h-3.208v6.862h3.208z"/><path d="m220.32 155.069h-3.207v6.862h3.207z"/><path d="m224.381 155.069h-3.208v6.862h3.208z"/><path d="m228.198 158.48c0 1.705-1.259 3.167-2.965 3.37v-6.741c1.706.203 2.965 1.665 2.965 3.371z"/></g><path d="m200.465 161.89h24.281c2.558 0 4.629 2.071 4.629 4.629s-2.071 4.629-4.629 4.629h-24.281c-2.558 0-4.629-2.071-4.629-4.629 0-2.517 2.071-4.629 4.629-4.629z" fill="#6e4940"/><g fill="#feda3b"><path d="m200.018 163.149v6.781c-1.868-.244-3.167-1.99-2.923-3.857.203-1.503 1.421-2.721 2.923-2.924z"/><path d="m204.079 163.109h-3.208v6.862h3.208z"/><path d="m208.139 163.109h-3.208v6.862h3.208z"/><path d="m212.199 163.109h-3.207v6.862h3.207z"/><path d="m216.26 163.109h-3.208v6.862h3.208z"/><path d="m220.32 163.109h-3.207v6.862h3.207z"/><path d="m224.381 163.109h-3.208v6.862h3.208z"/><path d="m228.198 166.56c0 1.705-1.259 3.167-2.965 3.37v-6.781c1.706.244 2.965 1.665 2.965 3.411z"/></g><path d="m41.2948 137.731h24.2815c2.5581 0 4.6289 2.07 4.6289 4.629 0 2.558-2.0708 4.628-4.6289 4.628h-24.2815c-2.5581 0-4.6289-2.07-4.6289-4.628-.0406-2.559 2.0302-4.629 4.6289-4.629z" fill="#6e4940"/><g fill="#feda3b"><path d="m40.8481 138.989v6.781c-1.7054-.203-2.9641-1.664-2.9641-3.37-.0406-1.746 1.2587-3.208 2.9641-3.411z"/><path d="m44.8682 138.949h-3.2078v6.862h3.2078z"/><path d="m48.9285 138.949h-3.2078v6.862h3.2078z"/><path d="m52.989 138.949h-3.2078v6.862h3.2078z"/><path d="m57.0493 138.949h-3.2077v6.862h3.2077z"/><path d="m61.1099 138.949h-3.2078v6.862h3.2078z"/><path d="m65.1704 138.949h-3.2078v6.862h3.2078z"/><path d="m68.9871 142.4c0 1.706-1.2588 3.167-2.9642 3.37v-6.781c1.7054.203 3.0048 1.665 2.9642 3.411z"/></g><path d="m41.2948 145.77h24.2815c2.5581 0 4.6289 2.071 4.6289 4.629s-2.0708 4.629-4.6289 4.629h-24.2815c-2.5581 0-4.6289-2.071-4.6289-4.629-.0406-2.558 2.0302-4.629 4.6289-4.629z" fill="#6e4940"/><g fill="#feda3b"><path d="m40.8482 147.029v6.781c-1.7054-.244-2.9642-1.665-2.9642-3.37 0-1.746 1.2588-3.167 2.9642-3.411z"/><path d="m44.8682 146.989h-3.2078v6.862h3.2078z"/><path d="m48.9285 146.989h-3.2078v6.862h3.2078z"/><path d="m52.989 146.989h-3.2078v6.862h3.2078z"/><path d="m57.0493 146.988h-3.2077v6.863h3.2077z"/><path d="m61.1099 146.989h-3.2078v6.862h3.2078z"/><path d="m65.1704 146.989h-3.2078v6.862h3.2078z"/><path d="m68.9871 150.44c0 1.705-1.2588 3.167-2.9642 3.37v-6.781c1.7054.244 2.9642 1.665 2.9642 3.411z"/></g><path d="m41.2948 153.851h24.2815c2.5581 0 4.6289 2.071 4.6289 4.629s-2.0708 4.629-4.6289 4.629h-24.2815c-2.5581 0-4.6289-2.071-4.6289-4.629-.0406-2.558 2.0302-4.629 4.6289-4.629z" fill="#6e4940"/><g fill="#feda3b"><path d="m40.8482 155.109v6.781c-1.7054-.243-2.9642-1.664-2.9642-3.37 0-1.746 1.2588-3.208 2.9642-3.411z"/><path d="m44.8682 155.069h-3.2078v6.862h3.2078z"/><path d="m48.9285 155.069h-3.2078v6.862h3.2078z"/><path d="m52.989 155.069h-3.2078v6.862h3.2078z"/><path d="m57.0493 155.069h-3.2077v6.862h3.2077z"/><path d="m61.1099 155.069h-3.2078v6.862h3.2078z"/><path d="m65.1704 155.069h-3.2078v6.862h3.2078z"/><path d="m68.9871 158.48c0 1.705-1.2588 3.167-2.9642 3.37v-6.741c1.7054.203 2.9642 1.665 2.9642 3.371z"/></g><path d="m41.2948 161.89h24.2815c2.5581 0 4.6289 2.071 4.6289 4.629s-2.0708 4.629-4.6289 4.629h-24.2815c-2.5581 0-4.6289-2.071-4.6289-4.629-.0406-2.517 2.0302-4.629 4.6289-4.629z" fill="#6e4940"/><g fill="#feda3b"><path d="m40.8482 163.149v6.781c-1.7054-.244-2.9642-1.665-2.9642-3.37 0-1.746 1.2588-3.167 2.9642-3.411z"/><path d="m44.8682 163.109h-3.2078v6.862h3.2078z"/><path d="m48.9285 163.109h-3.2078v6.862h3.2078z"/><path d="m52.989 163.109h-3.2078v6.862h3.2078z"/><path d="m57.0493 163.109h-3.2077v6.862h3.2077z"/><path d="m61.1099 163.109h-3.2078v6.862h3.2078z"/><path d="m65.1704 163.109h-3.2078v6.862h3.2078z"/><path d="m68.9871 166.56c0 1.705-1.2588 3.167-2.9642 3.37v-6.781c1.7054.244 2.9642 1.665 2.9642 3.411z"/></g></svg>