<svg width="20" height="20" viewBox="0 0 20 20" fill="none" xmlns="http://www.w3.org/2000/svg">
<path d="M11.3631 10.9035L14.5449 7.26711M4.54492 9.99438C4.54479 9.03684 4.79672 8.09614 5.2754 7.26684C5.75408 6.43753 6.44264 5.74885 7.27186 5.27003C8.10108 4.7912 9.04174 4.5391 9.99928 4.53906C10.9568 4.53903 11.8975 4.79106 12.7267 5.26983M11.8176 12.7217C11.8176 13.2039 11.6261 13.6663 11.2851 14.0073C10.9441 14.3483 10.4817 14.5398 9.99947 14.5398C9.51726 14.5398 9.05479 14.3483 8.71382 14.0073C8.37284 13.6663 8.18129 13.2039 8.18129 12.7217C8.18129 12.2394 8.37284 11.777 8.71382 11.436C9.05479 11.095 9.51726 10.9035 9.99947 10.9035C10.4817 10.9035 10.9441 11.095 11.2851 11.436C11.6261 11.777 11.8176 12.2394 11.8176 12.7217Z" stroke="white" stroke-width="1.36364" stroke-linecap="round" stroke-linejoin="round"/>
<path d="M1.36328 9.99574C1.36328 5.92483 1.36328 3.88847 2.62783 2.62392C3.89237 1.35938 5.92783 1.35938 9.99965 1.35938C14.0706 1.35938 16.1069 1.35938 17.3715 2.62392C18.636 3.88847 18.636 5.92392 18.636 9.99574C18.636 14.0666 18.636 16.103 17.3715 17.3676C16.1069 18.6321 14.0715 18.6321 9.99965 18.6321C5.92874 18.6321 3.89237 18.6321 2.62783 17.3676C1.36328 16.103 1.36328 14.0676 1.36328 9.99574Z" stroke="white" stroke-width="1.36364" stroke-linecap="round" stroke-linejoin="round"/>
</svg>
