<svg fill="none" height="22" viewBox="0 0 22 22" width="22" xmlns="http://www.w3.org/2000/svg"><rect height="2.48447" rx="1.24224" stroke="#d1d5db" width="14.7412" x="1" y="18.5156"/><rect height="1.79286" rx=".896429" stroke="#d1d5db" transform="matrix(.70710678 .70710678 -.70710678 .70710678 7.004937 -1.005173)" width="7.96396" x="4.71582" y="7.95312"/><path d="m11.377 12.0762.3965.3966c.4381.438 1.1484.438 1.5864 0l1.5913-1.5913c.4381-.4381.4381-1.14831 0-1.58638l-.3966-.39659" stroke="#d1d5db"/><path d="m18.8299 16.429c.1953-.1953.1953-.5119 0-.7071-.1953-.1953-.5119-.1953-.7071 0zm1.802-.5149-2.3169 2.3169.7071.7071 2.3169-2.3169zm-2.9604 1.6733 1.1584-1.1584-.7071-.7071-1.1584 1.1584zm2.0753-2.0753.2415-.2416-.7071-.7071-.2415.2416zm-1.4318 2.7189c-.1777.1777-.4658.1777-.6435 0l-.7071.7071c.5682.5682 1.4895.5682 2.0577 0zm2.3169-2.9605c.1777.1778.1777.4659 0 .6436l.7071.7071c.5682-.5682.5682-1.4895 0-2.0578zm.7071-.7071c-.5682-.5682-1.4895-.5682-2.0578 0l.7071.7071c.1777-.1777.4659-.1777.6436 0zm-3.6675 3.6676c-.1777-.1778-.1777-.4659 0-.6436l-.7071-.7071c-.5683.5682-.5683 1.4895 0 2.0578z" fill="#d1d5db"/><g stroke="#d1d5db"><rect height="1.79286" rx=".896429" transform="matrix(.70710678 .70710678 -.70710678 .70710678 4.124292 -7.956922)" width="7.96396" x="11.667" y="1"/><path d="m2.65625 18.5153c0-1.1206.90841-2.029 2.02899-2.029h7.24636c1.1206 0 2.029.9084 2.029 2.029" stroke-linecap="round"/><path d="m5.28613 8.51526c.70394-1.31815 2.84472-4.28986 5.77637-5.63147"/><path d="m9.77832 13.0285c1.19388-.6004 4.28568-2.8281 5.69358-5.69354"/><path d="m13.1533 12.6357 4.265 4.6584"/><path d="m15.1406 10.6484 4.617 4.1615"/></g></svg>