<svg width="20" height="20" viewBox="0 0 20 20" fill="none" xmlns="http://www.w3.org/2000/svg">
<g clip-path="url(#clip0_4310_35756)">
<path d="M10.001 1C5.03064 1 1.00098 5.02966 1.00098 10C1.00098 11.7497 1.50081 13.3829 2.36471 14.7644L1.00098 19L5.23657 17.6363C6.6181 18.5002 8.25132 19 10.001 19C14.9713 19 19.001 14.9703 19.001 10C19.001 5.02966 14.9713 1 10.001 1Z" stroke="#D1D5DB" stroke-width="1.5" stroke-miterlimit="10" stroke-linecap="round" stroke-linejoin="round"/>
<path d="M10.9541 9.99973C10.9541 10.5265 10.5275 10.9531 10.0008 10.9531C9.47397 10.9531 9.04736 10.5265 9.04736 9.99973C9.04736 9.47296 9.47397 9.04634 10.0008 9.04634C10.5275 9.04634 10.9541 9.47296 10.9541 9.99973Z" fill="#D1D5DB"/>
<path d="M14.7681 9.99973C14.7681 10.5265 14.3415 10.9531 13.8147 10.9531C13.2879 10.9531 12.8613 10.5265 12.8613 9.99973C12.8613 9.47296 13.2879 9.04634 13.8147 9.04634C14.3415 9.04634 14.7681 9.47296 14.7681 9.99973Z" fill="#D1D5DB"/>
<path d="M7.14067 9.99973C7.14067 10.5265 6.71406 10.9531 6.18728 10.9531C5.6605 10.9531 5.23389 10.526 5.23389 9.99973C5.23389 9.47296 5.6605 9.04634 6.18728 9.04634C6.71406 9.04634 7.14067 9.47296 7.14067 9.99973Z" fill="#D1D5DB"/>
</g>
<defs>
<clipPath id="clip0_4310_35756">
<rect width="20" height="20" fill="white" transform="translate(0.000976562)"/>
</clipPath>
</defs>
</svg>
