<svg width="20" height="20" viewBox="0 0 20 20" fill="none" xmlns="http://www.w3.org/2000/svg">
<path d="M15.0985 3.68551V7.85716H14.3261V8.93882C14.0943 9.01595 13.8626 9.09344 13.6696 9.20932L12.8972 8.43691L11.8155 9.51857L12.5879 10.2522C12.472 10.4452 12.3949 10.677 12.3174 10.9088H11.2357V12.4539H12.3174C12.3945 12.6857 12.472 12.9174 12.5879 13.1105L11.8155 13.8829L12.8972 14.9645L13.6312 14.2305C13.8242 14.3464 14.0559 14.4235 14.2877 14.501V15.5827H15.0601V16.3167C15.0601 16.7415 14.7125 17.0891 14.2877 17.0891H1.77241C1.34764 17.0891 1 16.7415 1 16.3163V3.68551C1 3.26074 1.34764 2.91311 1.77241 2.91311H14.3261C14.7509 2.87436 15.0985 3.222 15.0985 3.68551Z" stroke="#D1D5DB" stroke-width="0.75" stroke-miterlimit="106.667" stroke-linecap="round" stroke-linejoin="round"/>
<path d="M15.0985 6.1577H1V3.68549C1 3.26072 1.34764 2.91309 1.77241 2.91309H14.3261C14.7509 2.91309 15.0985 3.26072 15.0985 3.68549V6.1577Z" stroke="#D1D5DB" stroke-width="0.75" stroke-miterlimit="106.667" stroke-linecap="round" stroke-linejoin="round"/>
<path d="M13.3526 4.63378C13.4073 4.2968 13.1784 3.97928 12.8414 3.92459C12.5044 3.8699 12.1869 4.09874 12.1322 4.43573C12.0775 4.77272 12.3064 5.09023 12.6434 5.14492C12.9804 5.19962 13.2979 4.97077 13.3526 4.63378Z" stroke="#D1D5DB" stroke-width="0.75" stroke-miterlimit="106.667" stroke-linecap="round" stroke-linejoin="round"/>
<path d="M10.3476 5.15328C10.689 5.15328 10.9658 4.87653 10.9658 4.53513C10.9658 4.19374 10.689 3.91699 10.3476 3.91699C10.0062 3.91699 9.72949 4.19374 9.72949 4.53513C9.72949 4.87653 10.0062 5.15328 10.3476 5.15328Z" stroke="#D1D5DB" stroke-width="0.75" stroke-miterlimit="106.667" stroke-linecap="round" stroke-linejoin="round"/>
<path d="M7.95213 5.15328C8.29352 5.15328 8.57027 4.87653 8.57027 4.53513C8.57027 4.19374 8.29352 3.91699 7.95213 3.91699C7.61074 3.91699 7.33398 4.19374 7.33398 4.53513C7.33398 4.87653 7.61074 5.15328 7.95213 5.15328Z" stroke="#D1D5DB" stroke-width="0.75" stroke-miterlimit="106.667" stroke-linecap="round" stroke-linejoin="round"/>
<path d="M2.50684 10.4061H5.28793V15.6207H2.50684V10.4061ZM6.67848 10.4061H9.45958V15.6207H6.67848V10.4061ZM17.88 12.4148C17.8029 12.6466 17.7254 12.8783 17.6095 13.0713L18.3823 13.8054L17.3006 14.887L16.5282 14.153C16.3352 14.2689 16.1034 14.346 15.8717 14.4235V15.5052H14.3265V14.4235C14.0947 14.3464 13.863 14.2689 13.67 14.153L12.936 14.887L11.8543 13.8054L12.6267 13.033C12.5108 12.84 12.4337 12.6082 12.3562 12.3764H11.2745V10.8313H12.3562C12.4333 10.5995 12.5108 10.3677 12.6267 10.1747L11.8543 9.44071L12.936 8.35905L13.7084 9.13146C13.9014 9.01558 14.1331 8.93845 14.3649 8.86096V7.7793H15.9101V8.86096C16.1418 8.93809 16.3736 9.01558 16.5666 9.13146L17.339 8.35905L18.4206 9.44071L17.6482 10.1747C17.7641 10.3677 17.8413 10.5995 17.9187 10.8313H19.0004V12.3764H17.8804L17.88 12.4148Z" stroke="#D1D5DB" stroke-width="0.75" stroke-miterlimit="106.667" stroke-linecap="round" stroke-linejoin="round"/>
<path d="M16.2573 11.4106C16.4119 12.2605 15.6779 12.9558 14.8667 12.8011C14.4032 12.724 14.0168 12.3376 13.9397 11.8741C13.7851 11.0242 14.5191 10.3289 15.3302 10.4836C15.7938 10.5607 16.1801 10.9471 16.2573 11.4106Z" stroke="#D1D5DB" stroke-width="0.75" stroke-miterlimit="106.667" stroke-linecap="round" stroke-linejoin="round"/>
</svg>
