<svg width="28" height="23" viewBox="0 0 28 23" fill="none" xmlns="http://www.w3.org/2000/svg">
<path d="M19.3908 21.6895V19.3907C19.3908 18.1713 18.9064 17.0018 18.0442 16.1396C17.1819 15.2774 16.0125 14.793 14.7931 14.793H5.5977C4.37831 14.793 3.20887 15.2774 2.34664 16.1396C1.4844 17.0018 1 18.1713 1 19.3907V21.6895" stroke="#D1D5DB" stroke-width="1.5" stroke-linecap="round" stroke-linejoin="round"/>
<path d="M10.1954 10.1954C12.7346 10.1954 14.7931 8.13694 14.7931 5.5977C14.7931 3.05846 12.7346 1 10.1954 1C7.65612 1 5.59766 3.05846 5.59766 5.5977C5.59766 8.13694 7.65612 10.1954 10.1954 10.1954Z" stroke="#D1D5DB" stroke-width="1.5" stroke-linecap="round" stroke-linejoin="round"/>
<path d="M26.2871 21.6895V19.3907C26.2864 18.372 25.9473 17.3824 25.3232 16.5772C24.6991 15.7721 23.8252 15.1971 22.8389 14.9424" stroke="#D1D5DB" stroke-width="1.5" stroke-linecap="round" stroke-linejoin="round"/>
<path d="M18.2412 1.14941C19.2302 1.40263 20.1068 1.97781 20.7327 2.78425C21.3587 3.5907 21.6985 4.58255 21.6985 5.60344C21.6985 6.62432 21.3587 7.61617 20.7327 8.42262C20.1068 9.22907 19.2302 9.80424 18.2412 10.0575" stroke="#D1D5DB" stroke-width="1.5" stroke-linecap="round" stroke-linejoin="round"/>
</svg>
