<svg width="23" height="23" viewBox="0 0 23 23" fill="none" xmlns="http://www.w3.org/2000/svg">
<path d="M18.2414 1C17.3268 1 16.4498 1.3633 15.8031 2.00998C15.1564 2.65665 14.7931 3.53374 14.7931 4.44828V18.2414C14.7931 19.1559 15.1564 20.033 15.8031 20.6797C16.4498 21.3264 17.3268 21.6897 18.2414 21.6897C19.1559 21.6897 20.033 21.3264 20.6797 20.6797C21.3264 20.033 21.6897 19.1559 21.6897 18.2414C21.6897 17.3268 21.3264 16.4498 20.6797 15.8031C20.033 15.1564 19.1559 14.7931 18.2414 14.7931H4.44828C3.53374 14.7931 2.65665 15.1564 2.00998 15.8031C1.3633 16.4498 1 17.3268 1 18.2414C1 19.1559 1.3633 20.033 2.00998 20.6797C2.65665 21.3264 3.53374 21.6897 4.44828 21.6897C5.36282 21.6897 6.2399 21.3264 6.88658 20.6797C7.53325 20.033 7.89655 19.1559 7.89655 18.2414V4.44828C7.89655 3.53374 7.53325 2.65665 6.88658 2.00998C6.2399 1.3633 5.36282 1 4.44828 1C3.53374 1 2.65665 1.3633 2.00998 2.00998C1.3633 2.65665 1 3.53374 1 4.44828C1 5.36282 1.3633 6.2399 2.00998 6.88658C2.65665 7.53325 3.53374 7.89655 4.44828 7.89655H18.2414C19.1559 7.89655 20.033 7.53325 20.6797 6.88658C21.3264 6.2399 21.6897 5.36282 21.6897 4.44828C21.6897 3.53374 21.3264 2.65665 20.6797 2.00998C20.033 1.3633 19.1559 1 18.2414 1Z" stroke="#D1D5DB" stroke-width="1.5" stroke-linecap="round" stroke-linejoin="round"/>
</svg>
