<svg width="20" height="20" viewBox="0 0 20 20" fill="none" xmlns="http://www.w3.org/2000/svg">
<path fill-rule="evenodd" clip-rule="evenodd" d="M3 3.53846C3 2.86522 3.26744 2.21955 3.7435 1.7435C4.21955 1.26744 4.86522 1 5.53846 1H12.9111C13.1675 1.00015 13.4202 1.06134 13.6483 1.17851C13.8764 1.29569 14.0733 1.46548 14.2228 1.67385L17.0049 5.548C17.2015 5.82308 17.3077 6.15262 17.3077 6.48954V16.4615C17.3077 17.1348 17.0402 17.7804 16.5642 18.2565C16.0881 18.7326 15.4425 19 14.7692 19H5.53846C4.86522 19 4.21955 18.7326 3.7435 18.2565C3.26744 17.7804 3 17.1348 3 16.4615V3.53846ZM5.53846 2.38462C4.90154 2.38462 4.38462 2.90154 4.38462 3.53846V16.4615C4.38462 17.0985 4.90154 17.6154 5.53846 17.6154H14.7692C15.4062 17.6154 15.9231 17.0985 15.9231 16.4615V7.13569H12.9231C12.7395 7.13569 12.5634 7.06275 12.4335 6.93292C12.3037 6.80309 12.2308 6.627 12.2308 6.44339V2.38462H5.53846Z" fill="#D1D5DB"/>
<path d="M13.0027 11.1237C12.9459 11.1948 12.8756 11.254 12.7959 11.2979C12.7162 11.3418 12.6286 11.3696 12.5382 11.3796C12.4477 11.3897 12.3562 11.3818 12.2688 11.3564C12.1814 11.331 12.0999 11.2886 12.0288 11.2317L10.8473 10.2847V13.46C10.8473 13.6436 10.7744 13.8197 10.6445 13.9496C10.5147 14.0794 10.3386 14.1523 10.155 14.1523C9.97139 14.1523 9.7953 14.0794 9.66546 13.9496C9.53563 13.8197 9.46269 13.6436 9.46269 13.46V10.2847L8.27931 11.2317C8.13585 11.3464 7.9527 11.3994 7.77015 11.3791C7.58761 11.3588 7.42062 11.2667 7.30592 11.1233C7.19123 10.9798 7.13822 10.7967 7.15856 10.6141C7.1789 10.4316 7.27092 10.2646 7.41438 10.1499L9.71931 8.30557C9.84088 8.20732 9.99223 8.15329 10.1485 8.15234H10.1559C10.3221 8.15234 10.4735 8.21142 10.5925 8.30927L12.8947 10.1499C12.9658 10.2067 13.025 10.277 13.0689 10.3567C13.1128 10.4364 13.1406 10.524 13.1506 10.6144C13.1606 10.7049 13.1527 10.7964 13.1273 10.8838C13.102 10.9712 13.0596 11.0527 13.0027 11.1237Z" fill="#D1D5DB"/>
</svg>
