<svg width="20" height="20" viewBox="0 0 20 20" fill="none" xmlns="http://www.w3.org/2000/svg">
<path d="M19 3.997C18.9992 3.20252 18.6833 2.4408 18.1216 1.87894C17.5599 1.31709 16.7982 1.00099 16.0037 1H3.99625C3.20177 1.00099 2.44013 1.31709 1.87841 1.87894C1.3167 2.4408 1.00079 3.20252 1 3.997V16.0037C1.00099 16.7981 1.31699 17.5596 1.87868 18.1213C2.44037 18.683 3.2019 18.999 3.99625 19H16.0037C16.7981 18.999 17.5596 18.683 18.1213 18.1213C18.683 17.5596 18.999 16.7981 19 16.0037V3.997ZM2.5 3.997C2.5 3.17125 3.17125 2.5 3.99625 2.5H16.0037C16.8287 2.5 17.5 3.17125 17.5 3.997V6.18775H2.5V3.997ZM17.5 16.0037C17.5 16.8287 16.8287 17.5 16.0037 17.5H3.99625C3.17125 17.5 2.5 16.8287 2.5 16.0037V7.68775H17.5V16.0037Z" fill="#D1D5DB"/>
<path d="M5.35588 15.309H9.99988C10.1988 15.309 10.3896 15.23 10.5302 15.0894C10.6709 14.9487 10.7499 14.7579 10.7499 14.559C10.7499 14.3601 10.6709 14.1694 10.5302 14.0287C10.3896 13.888 10.1988 13.809 9.99988 13.809H5.35588C5.15697 13.809 4.96621 13.888 4.82555 14.0287C4.6849 14.1694 4.60588 14.3601 4.60588 14.559C4.60588 14.7579 4.6849 14.9487 4.82555 15.0894C4.96621 15.23 5.15697 15.309 5.35588 15.309ZM5.35588 11.376H14.6439C14.8428 11.376 15.0336 11.297 15.1742 11.1564C15.3149 11.0157 15.3939 10.8249 15.3939 10.626C15.3939 10.4271 15.3149 10.2364 15.1742 10.0957C15.0336 9.95505 14.8428 9.87603 14.6439 9.87603H5.35588C5.15697 9.87603 4.96621 9.95505 4.82555 10.0957C4.6849 10.2364 4.60588 10.4271 4.60588 10.626C4.60588 10.8249 4.6849 11.0157 4.82555 11.1564C4.96621 11.297 5.15697 11.376 5.35588 11.376ZM4.11838 3.81003C3.79213 4.17378 3.86563 4.62153 4.11838 4.87503C4.39588 5.13753 4.86388 5.18703 5.17588 4.87503C5.24691 4.80573 5.30336 4.72291 5.3419 4.63146C5.38043 4.54001 5.40029 4.44177 5.40029 4.34253C5.40029 4.24329 5.38043 4.14506 5.3419 4.05361C5.30336 3.96216 5.24691 3.87934 5.17588 3.81003C4.89838 3.52053 4.40338 3.52278 4.11838 3.81003ZM7.99588 3.81003C7.68238 3.49653 7.19863 3.54978 6.93838 3.81003C6.62938 4.11603 6.66613 4.60203 6.93838 4.87503C7.07948 5.01364 7.26935 5.0913 7.46713 5.0913C7.66492 5.0913 7.85479 5.01364 7.99588 4.87503C8.33413 4.53753 8.25088 4.03728 7.99588 3.81003ZM9.75913 3.81003C9.6197 3.9522 9.54159 4.1434 9.54159 4.34253C9.54159 4.54167 9.6197 4.73286 9.75913 4.87503C10.0216 5.13753 10.5054 5.18253 10.8166 4.87503C10.8877 4.80573 10.9441 4.72291 10.9826 4.63146C11.0212 4.54001 11.041 4.44177 11.041 4.34253C11.041 4.24329 11.0212 4.14506 10.9826 4.05361C10.9441 3.96216 10.8877 3.87934 10.8166 3.81003C10.5391 3.53253 10.0366 3.53253 9.75913 3.81003Z" fill="#D1D5DB"/>
</svg>
