<svg width="20" height="20" viewBox="0 0 20 20" fill="none" xmlns="http://www.w3.org/2000/svg">
<path d="M19.3607 14.1817H17.0647V6.57313C17.0647 6.21954 16.7784 5.93318 16.4248 5.93318C16.0712 5.93318 15.7845 6.21954 15.7845 6.57313V14.9478C15.7845 15.3066 15.4273 15.6098 15.0023 15.615C14.9986 15.6149 14.995 15.6145 14.9913 15.6145C14.9844 15.6145 14.9776 15.6153 14.9707 15.6155H12.517C12.5101 15.6153 12.5034 15.6145 12.4964 15.6145C12.4894 15.6145 12.4827 15.6153 12.4758 15.6155H10.0213C10.0144 15.6153 10.0077 15.6145 10.0008 15.6145C9.99381 15.6145 9.98709 15.6153 9.98018 15.6155H7.52608C7.51916 15.6153 7.51245 15.6145 7.50549 15.6145C7.49854 15.6145 7.49182 15.6153 7.48491 15.6155H5.03081C5.0239 15.6153 5.01718 15.6145 5.01022 15.6145C5.00651 15.6145 5.00292 15.615 4.99925 15.615C4.5739 15.6098 4.21707 15.3066 4.21707 14.9478V4.71539C4.21707 4.35348 4.58039 4.04771 5.01022 4.04771H14.9913C15.4212 4.04771 15.7845 4.35348 15.7845 4.71539V4.84089C15.7845 5.19448 16.0712 5.48084 16.4248 5.48084H19.3607C19.7143 5.48084 20.001 5.19448 20.001 4.84089C20.001 4.48731 19.7143 4.20094 19.3607 4.20094H16.9912C16.8067 3.56916 16.2912 3.06503 15.6316 2.86331V0.831356C15.6316 0.477768 15.3449 0.191406 14.9913 0.191406C14.6377 0.191406 14.3513 0.477768 14.3513 0.831356V2.76781H13.1363V0.831356C13.1363 0.477768 12.8499 0.191406 12.4963 0.191406C12.1428 0.191406 11.856 0.477768 11.856 0.831356V2.76781H10.6406V0.831356C10.6406 0.477768 10.354 0.191406 10.0007 0.191406C9.64741 0.191406 9.36073 0.477768 9.36073 0.831356V2.76781H8.14532V0.831356C8.14532 0.477768 7.85865 0.191406 7.50538 0.191406C7.1521 0.191406 6.86543 0.477768 6.86543 0.831356V2.76781H5.65002V0.831356C5.65002 0.477768 5.36366 0.191406 5.01007 0.191406C4.65648 0.191406 4.37012 0.477768 4.37012 0.831356V2.8632C3.7106 3.06475 3.19541 3.56885 3.01096 4.20059H0.640926C0.287651 4.20059 0.000976562 4.48692 0.000976562 4.84054C0.000976562 5.19413 0.287651 5.48049 0.640926 5.48049H2.93721V14.1817H0.640926C0.287651 14.1817 0.000976562 14.468 0.000976562 14.8216C0.000976562 15.1752 0.287651 15.4616 0.640926 15.4616H3.01108C3.19549 16.0933 3.71068 16.5976 4.37027 16.7993V18.8305C4.37027 19.184 4.65664 19.4704 5.01022 19.4704C5.36346 19.4704 5.65017 19.184 5.65017 18.8305V16.8947H6.86558V18.8304C6.86558 19.184 7.15194 19.4704 7.50553 19.4704C7.85877 19.4704 8.14548 19.184 8.14548 18.8304V16.8947H9.36089V18.8304C9.36089 19.184 9.64725 19.4704 10.0008 19.4704C10.3544 19.4704 10.6408 19.184 10.6408 18.8304V16.8947H11.8562V18.8304C11.8562 19.184 12.1429 19.4704 12.4965 19.4704C12.8497 19.4704 13.1364 19.184 13.1364 18.8304V16.8947H14.3515V18.8304C14.3515 19.184 14.6379 19.4704 14.9915 19.4704C15.345 19.4704 15.6318 19.184 15.6318 18.8304V16.7992C16.2914 16.5975 16.8065 16.0933 16.9909 15.4616H19.3608C19.714 15.4616 20.0011 15.1752 20.0011 14.8216C20.001 14.468 19.7143 14.1817 19.3607 14.1817Z" fill="#D1D5DB"/>
<path d="M19.3607 11.6849H18.1196C17.7661 11.6849 17.4797 11.9713 17.4797 12.3249C17.4797 12.6784 17.7661 12.9648 18.1196 12.9648H19.3607C19.7139 12.9648 20.001 12.6784 20.001 12.3249C20.001 11.9713 19.7143 11.6849 19.3607 11.6849ZM19.3607 9.18929H18.1196C17.7661 9.18929 17.4797 9.47565 17.4797 9.82924C17.4797 10.1828 17.7661 10.4692 18.1196 10.4692H19.3607C19.7139 10.4692 20.001 10.1828 20.001 9.82924C20.001 9.47565 19.7143 9.18929 19.3607 9.18929ZM19.3607 6.69402H18.1196C17.7661 6.69402 17.4797 6.98038 17.4797 7.33397C17.4797 7.68756 17.7661 7.97392 18.1196 7.97392H19.3607C19.7139 7.97392 20.001 7.68756 20.001 7.33397C20.001 6.98038 19.7143 6.69402 19.3607 6.69402ZM0.640926 12.9648H1.88231C2.23555 12.9648 2.52226 12.6784 2.52226 12.3249C2.52226 11.9713 2.2359 11.6849 1.88231 11.6849H0.640926C0.287651 11.6849 0.000976562 11.9716 0.000976562 12.3249C0.000976562 12.6781 0.287651 12.9648 0.640926 12.9648ZM0.640926 10.4692H1.88231C2.23555 10.4692 2.52226 10.1832 2.52226 9.82959C2.52226 9.476 2.2359 9.18964 1.88231 9.18964H0.640926C0.287651 9.18964 0.000976562 9.47631 0.000976562 9.82959C0.000976562 10.1828 0.287651 10.4692 0.640926 10.4692ZM0.640926 7.97392H1.88231C2.23555 7.97392 2.52226 7.68756 2.52226 7.33397C2.52226 6.98038 2.2359 6.69402 1.88231 6.69402H0.640926C0.287651 6.69402 0.000976562 6.98038 0.000976562 7.33397C0.000976562 7.68756 0.287651 7.97392 0.640926 7.97392ZM7.93365 6.48047C7.80479 6.48039 7.67892 6.51924 7.57252 6.59193C7.46612 6.66461 7.38416 6.76774 7.33737 6.88781L5.22448 12.3058C5.0962 12.6355 5.25881 13.0064 5.58814 13.1346C5.91783 13.2629 6.28876 13.1 6.417 12.771L6.75226 11.9113H9.11504L9.4503 12.771C9.54874 13.0241 9.79037 13.1787 10.0465 13.1787C10.1238 13.1787 10.2026 13.1645 10.2792 13.1346C10.6081 13.0064 10.7714 12.6351 10.6428 12.3058L8.52993 6.88781C8.4831 6.76777 8.40113 6.66467 8.29474 6.59199C8.18835 6.51931 8.06249 6.48044 7.93365 6.48047ZM7.25136 10.6314L7.93365 8.88179L8.61594 10.6314H7.25136ZM13.6227 7.76037C13.976 7.76037 14.263 7.47401 14.263 7.12042C14.263 6.76683 13.9764 6.48047 13.6227 6.48047H11.8308C11.4773 6.48047 11.1909 6.76683 11.1909 7.12042C11.1909 7.47401 11.4773 7.76037 11.8308 7.76037H12.0867V11.8988H11.8308C11.4773 11.8988 11.1909 12.1852 11.1909 12.5388C11.1909 12.8923 11.4773 13.1787 11.8308 13.1787H13.6227C13.976 13.1787 14.263 12.8923 14.263 12.5388C14.263 12.1852 13.9764 11.8988 13.6227 11.8988H13.3672V7.76037H13.6227Z" fill="#D1D5DB"/>
</svg>
