<svg width="19" height="23" viewBox="0 0 19 23" fill="none" xmlns="http://www.w3.org/2000/svg">
<path d="M13.4138 3.20703H15.4828C16.0315 3.20703 16.5577 3.42501 16.9457 3.81302C17.3337 4.20102 17.5517 4.72727 17.5517 5.276V19.7588C17.5517 20.3075 17.3337 20.8337 16.9457 21.2217C16.5577 21.6097 16.0315 21.8277 15.4828 21.8277H3.06897C2.52024 21.8277 1.99399 21.6097 1.60599 21.2217C1.21798 20.8337 1 20.3075 1 19.7588V5.276C1 4.72727 1.21798 4.20102 1.60599 3.81302C1.99399 3.42501 2.52024 3.20703 3.06897 3.20703H5.13793" stroke="#D1D5DB" stroke-width="1.5" stroke-linecap="round" stroke-linejoin="round"/>
<path d="M12.3791 1.13818H6.17218C5.60085 1.13818 5.1377 1.60134 5.1377 2.17267V4.24163C5.1377 4.81296 5.60085 5.27611 6.17218 5.27611H12.3791C12.9504 5.27611 13.4136 4.81296 13.4136 4.24163V2.17267C13.4136 1.60134 12.9504 1.13818 12.3791 1.13818Z" stroke="#D1D5DB" stroke-width="1.5" stroke-linecap="round" stroke-linejoin="round"/>
</svg>
