<svg width="20" height="20" viewBox="0 0 20 20" fill="none" xmlns="http://www.w3.org/2000/svg">
<path d="M17.078 6.11932H16.1505C15.9887 6.11932 15.8335 6.18361 15.7191 6.29804C15.6046 6.41247 15.5403 6.56766 15.5403 6.72949C15.5403 6.89132 15.6046 7.04652 15.7191 7.16095C15.8335 7.27538 15.9887 7.33966 16.1505 7.33966H17.078C17.2641 7.33966 17.4425 7.41359 17.5741 7.54518C17.7057 7.67678 17.7797 7.85525 17.7797 8.04136V16.5837C17.7809 16.8892 17.6675 17.1841 17.4619 17.41C17.2563 17.636 16.9734 17.7766 16.6692 17.8041H16.4983C16.194 17.7766 15.9112 17.636 15.7056 17.41C15.4999 17.1841 15.3866 16.8892 15.3878 16.5837V2.83051C15.3878 2.34503 15.1949 1.87943 14.8517 1.53614C14.5084 1.19286 14.0428 1 13.5573 1H2.83051C2.34503 1 1.87943 1.19286 1.53614 1.53614C1.19286 1.87943 1 2.34503 1 2.83051V17.1695C1 17.655 1.19286 18.1206 1.53614 18.4639C1.87943 18.8071 2.34503 19 2.83051 19H16.7424C17.3522 18.9542 17.9226 18.681 18.3407 18.2347C18.7588 17.7884 18.9941 17.2014 19 16.5898V8.04746C19.0008 7.79454 18.9517 7.54395 18.8554 7.31005C18.7592 7.07616 18.6178 6.86355 18.4392 6.68443C18.2607 6.5053 18.0485 6.36318 17.8149 6.26621C17.5813 6.16924 17.3309 6.11932 17.078 6.11932ZM2.83051 17.7797C2.66868 17.7797 2.51348 17.7154 2.39905 17.6009C2.28462 17.4865 2.22034 17.3313 2.22034 17.1695V2.83051C2.22034 2.66868 2.28462 2.51348 2.39905 2.39905C2.51348 2.28462 2.66868 2.22034 2.83051 2.22034H13.5573C13.7191 2.22034 13.8743 2.28462 13.9887 2.39905C14.1032 2.51348 14.1675 2.66868 14.1675 2.83051V16.5837C14.1645 17.0113 14.2739 17.4321 14.4847 17.8041L2.83051 17.7797Z" fill="#D1D5DB"/>
<path d="M12.7959 4.40234H8.1708C8.00897 4.40234 7.85378 4.46663 7.73935 4.58106C7.62492 4.69549 7.56063 4.85069 7.56063 5.01251C7.56063 5.17434 7.62492 5.32954 7.73935 5.44397C7.85378 5.5584 8.00897 5.62268 8.1708 5.62268H12.8203C12.9821 5.62268 13.1373 5.5584 13.2517 5.44397C13.3662 5.32954 13.4305 5.17434 13.4305 5.01251C13.4305 4.85069 13.3662 4.69549 13.2517 4.58106C13.1373 4.46663 12.9821 4.40234 12.8203 4.40234H12.7959ZM12.5945 7.55692H3.54572C3.38389 7.55692 3.22869 7.62121 3.11426 7.73563C2.99983 7.85006 2.93555 8.00526 2.93555 8.16709C2.93555 8.32892 2.99983 8.48412 3.11426 8.59854C3.22869 8.71297 3.38389 8.77726 3.54572 8.77726H12.5945C12.7564 8.77726 12.9116 8.71297 13.026 8.59854C13.1404 8.48412 13.2047 8.32892 13.2047 8.16709C13.2047 8.00526 13.1404 7.85006 13.026 7.73563C12.9116 7.62121 12.7564 7.55692 12.5945 7.55692ZM12.5945 10.6078H3.54572C3.38389 10.6078 3.22869 10.6721 3.11426 10.7865C2.99983 10.9009 2.93555 11.0561 2.93555 11.2179C2.93555 11.3798 2.99983 11.535 3.11426 11.6494C3.22869 11.7638 3.38389 11.8281 3.54572 11.8281H12.5945C12.7564 11.8281 12.9116 11.7638 13.026 11.6494C13.1404 11.535 13.2047 11.3798 13.2047 11.2179C13.2047 11.0561 13.1404 10.9009 13.026 10.7865C12.9116 10.6721 12.7564 10.6078 12.5945 10.6078ZM12.5945 13.8783H3.54572C3.38389 13.8783 3.22869 13.9426 3.11426 14.057C2.99983 14.1714 2.93555 14.3266 2.93555 14.4884C2.93555 14.6503 2.99983 14.8055 3.11426 14.9199C3.22869 15.0343 3.38389 15.0986 3.54572 15.0986H12.5945C12.7564 15.0986 12.9116 15.0343 13.026 14.9199C13.1404 14.8055 13.2047 14.6503 13.2047 14.4884C13.2047 14.3266 13.1404 14.1714 13.026 14.057C12.9116 13.9426 12.7564 13.8783 12.5945 13.8783Z" fill="#D1D5DB"/>
</svg>
