<svg width="32" height="44" viewBox="0 0 32 44" fill="none" xmlns="http://www.w3.org/2000/svg">
<path d="M21.9699 16.3809L15.8992 21.9697L16.7665 22.8369C19.6572 25.4386 21.1026 27.1731 21.1026 27.944C21.1026 28.7148 20.3318 29.5821 18.0191 31.7983C14.4539 35.0745 13.5866 35.6527 12.4303 35.1709C11.4667 34.7855 9.82862 33.4364 7.51601 31.3165L6.64878 30.4493L6.07062 31.0275L0 36.6163L1.34903 37.869C10.2141 46.0595 14.8393 46.0595 23.8007 37.7726C33.5329 28.8112 32.3766 24.9568 23.0298 16.3809L22.4517 15.8027L21.9699 16.3809Z" fill="#24459C"/>
<path d="M7.80501 6.26334C-1.92726 15.2247 -0.770946 19.0791 8.57588 27.655L9.15403 28.2332L15.8028 22.0662L14.8392 21.199C11.9484 18.5973 10.5031 16.8628 10.5031 16.092C10.5031 15.3211 11.2739 14.3575 13.5865 12.2376C17.1518 8.96139 18.0191 8.38324 19.1754 8.86503C20.139 9.25047 21.7771 10.5995 24.0897 12.7194L24.9569 13.5866L25.5351 13.0085L31.6057 7.41965L30.2567 6.16698C25.5351 1.83082 22.2589 0 19.079 0C15.321 0 11.8521 2.50533 7.80501 6.26334Z" fill="#E50000"/>
</svg>
