<svg width="167" height="44" viewBox="0 0 167 44" fill="none" xmlns="http://www.w3.org/2000/svg">
<path d="M21.9699 16.3809L15.8992 21.9697L16.7665 22.8369C19.6572 25.4386 21.1026 27.1731 21.1026 27.944C21.1026 28.7148 20.3318 29.5821 18.0191 31.7983C14.4539 35.0745 13.5866 35.6527 12.4303 35.1709C11.4667 34.7855 9.82862 33.4364 7.51601 31.3165L6.64878 30.4493L6.07062 31.0275L0 36.6163L1.34903 37.869C10.2141 46.0595 14.8393 46.0595 23.8007 37.7726C33.5329 28.8112 32.3766 24.9568 23.0298 16.3809L22.4517 15.8027L21.9699 16.3809Z" fill="#24459C"/>
<path d="M7.80501 6.26334C-1.92726 15.2247 -0.770946 19.0791 8.57588 27.655L9.15403 28.2332L15.8028 22.0662L14.8392 21.199C11.9484 18.5973 10.5031 16.8628 10.5031 16.092C10.5031 15.3211 11.2739 14.3575 13.5865 12.2376C17.1518 8.96139 18.0191 8.38324 19.1754 8.86503C20.139 9.25047 21.7771 10.5995 24.0897 12.7194L24.9569 13.5866L25.5351 13.0085L31.6057 7.41965L30.2567 6.16698C25.5351 1.83082 22.2589 0 19.079 0C15.321 0 11.8521 2.50533 7.80501 6.26334Z" fill="#E50000"/>
<path d="M68.3448 12.1394H66.666V12.3259V32.0983H71.1428C71.1428 32.0983 71.1428 20.1603 71.1428 19.9737C71.3293 19.9737 84.3865 19.9737 84.3865 19.9737H84.5731C84.7596 19.9737 84.7596 20.1603 84.7596 20.1603V31.9118H89.2364V19.4142C89.0498 18.1084 88.1172 16.8027 86.6249 16.2431H86.4384C86.0653 16.0566 85.6923 16.0566 85.3192 15.87L84.7596 15.6835C84.7596 15.6835 71.1428 15.6835 70.9562 15.6835C70.9562 15.497 70.9562 11.9529 70.9562 11.9529H70.7697C70.2101 12.1394 69.2775 12.1394 68.3448 12.1394Z" fill="white"/>
<path d="M50.4379 16.2432C55.2877 16.2432 60.3241 16.2432 65.1739 16.2432V20.1603H57.5261H48.013C47.6399 20.1603 47.0803 20.5334 46.8938 20.9064C46.8938 21.466 47.0803 21.8391 47.4534 22.0256C48.5726 22.3987 50.4379 22.2122 51.7436 22.2122C54.7281 22.3987 58.0857 22.0256 61.0702 22.2122C62.9355 22.5852 64.4278 23.891 64.8008 25.7563C64.9874 26.6889 65.1739 27.8081 64.8008 28.7408C64.6143 28.9273 64.6143 29.3004 64.4278 29.4869C64.0547 30.233 63.3086 30.6061 62.5624 31.1657C61.8163 31.7253 60.5106 31.9118 59.5779 32.0984H43.5362C43.3497 32.2849 42.6035 32.0984 42.2305 32.0984V28.3677H48.1995C48.1995 28.1812 48.386 28.3677 48.5726 28.3677C50.0648 28.3677 51.7436 28.3677 53.2358 28.3677C53.2358 28.5543 53.4224 28.3677 53.4224 28.3677C55.4742 28.1812 57.5261 28.5543 59.5779 28.3677C59.951 28.1812 60.3241 27.9947 60.3241 27.6216C60.5106 27.2485 60.3241 26.8755 60.1375 26.5024C59.7645 25.9428 58.8318 26.1293 58.0857 26.1293H47.4534C46.7072 26.1293 45.588 25.9428 45.0284 25.3832C43.7227 24.8236 42.7901 23.5179 42.417 22.2122L42.2305 20.5334C42.417 20.5334 42.2305 20.3469 42.417 20.3469C42.7901 18.6681 44.0958 17.1758 45.7746 16.6162C47.6399 16.0566 49.1321 16.0566 50.4379 16.2432Z" fill="white"/>
<path d="M121.32 26.3156C121.693 26.8752 121.88 27.6214 122.626 27.9944C123.558 28.554 124.864 28.554 125.797 28.181C126.916 27.6214 127.662 26.6887 127.662 25.5695V16.2429H127.849H131.952V23.7042C131.766 25.383 131.952 27.2483 133.631 28.181C134.377 28.554 135.496 28.7406 136.429 28.181L136.616 27.9944C137.548 27.4348 138.108 26.5022 138.294 25.383V16.0564H142.585V26.8752C142.398 27.0618 142.398 27.4348 142.398 27.6214C141.652 30.2328 138.854 32.0981 136.056 32.4712C133.818 32.6577 131.579 31.9116 129.9 30.6059C127.849 32.2847 124.678 33.0308 121.88 32.0981C119.268 31.352 117.03 28.9271 117.03 26.3156V16.2429H121.32V26.3156Z" fill="white"/>
<path fill-rule="evenodd" clip-rule="evenodd" d="M108.099 15.7768C107.936 15.7768 107.796 15.7768 107.703 15.6835C107.654 15.6835 107.591 15.6705 107.516 15.6548C107.307 15.611 106.996 15.5462 106.584 15.6835C105.838 15.6835 105.091 15.6718 104.345 15.6602C102.107 15.6252 99.8685 15.5902 97.6301 15.87C94.4591 16.4296 91.1015 19.0411 90.5419 22.3986C89.9823 25.7562 91.288 29.4868 94.4591 31.1656C95.3917 31.7252 96.3244 32.0983 97.2571 32.2848C98.6027 32.7334 100.188 32.7025 101.725 32.6726C102.105 32.6652 102.483 32.6579 102.853 32.6579C102.915 32.6579 102.977 32.6786 103.04 32.6993C103.164 32.7408 103.288 32.7822 103.413 32.6579C106.584 32.8444 109.568 32.4714 111.993 30.606H112.18C112.273 30.5128 112.459 30.3729 112.646 30.233C112.832 30.0931 113.019 29.9532 113.112 29.8599C115.351 27.435 115.91 23.8909 114.791 20.9064C114.045 18.4815 111.247 16.4296 108.636 15.87C108.449 15.7768 108.262 15.7768 108.099 15.7768ZM110.314 22.0257C109.755 20.5334 108.076 19.7873 106.584 19.6008C105.667 19.6973 104.6 19.6565 103.49 19.614C100.309 19.4922 96.7744 19.3569 95.3917 22.3988C94.8321 24.0775 95.2052 26.3159 96.5109 27.4351C97.257 28.1812 98.5627 28.5543 99.6819 28.7408C100.651 28.6388 101.718 28.6903 102.803 28.7425C105.683 28.8814 108.688 29.0263 110.314 26.3159C111.06 25.1967 111.06 23.3314 110.314 22.0257Z" fill="white"/>
<path fill-rule="evenodd" clip-rule="evenodd" d="M166.274 19.0411C165.901 17.5489 164.409 16.4297 162.917 16.2432L143.89 16.4297V20.5334H161.797H161.984V22.3987H149.3C147.621 22.3987 145.942 22.9583 145.01 24.0775C143.89 25.5698 143.517 28.1812 144.637 29.86C145.569 31.3522 147.248 32.0984 148.927 32.2849H158.44H166.461V20.7199L166.274 19.0411ZM161.984 27.808V25.9427C159.51 26.0664 157.037 26.026 154.509 25.9848C153.224 25.9639 151.925 25.9427 150.605 25.9427C150.357 26.0049 150.087 26.0049 149.818 26.0049C149.279 26.0049 148.74 26.0049 148.367 26.5023C148.367 26.5546 148.352 26.6217 148.335 26.6994C148.292 26.8983 148.233 27.1666 148.367 27.4349C148.46 27.5282 148.6 27.5748 148.74 27.6215C148.88 27.6681 149.02 27.7147 149.113 27.808C150.461 27.808 151.829 27.7879 153.217 27.7675C156.055 27.7257 158.977 27.6827 161.984 27.808Z" fill="white"/>
</svg>
