<svg width="190" height="50" viewBox="0 0 190 50" fill="none" xmlns="http://www.w3.org/2000/svg">
<path d="M24.9658 18.6179L18.0674 24.9689L19.0529 25.9544C22.3378 28.9109 23.9803 30.8818 23.9803 31.7578C23.9803 32.6338 23.1043 33.6193 20.4764 36.1378C16.4249 39.8608 15.4394 40.5178 14.1254 39.9703C13.0304 39.5323 11.1689 37.9993 8.54094 35.5903L7.55545 34.6048L6.89845 35.2618L0 41.6128L1.53299 43.0363C11.6069 52.3437 16.8629 52.3437 27.0463 42.9268C38.1057 32.7433 36.7917 28.3634 26.1703 18.6179L25.5133 17.9609L24.9658 18.6179Z" fill="#24459C"/>
<path d="M8.86926 7.11745C-2.19016 17.3009 -0.876169 21.6808 9.74525 31.4263L10.4022 32.0833L17.9577 25.0753L16.8627 24.0898C13.5777 21.1333 11.9352 19.1624 11.9352 18.2864C11.9352 17.4104 12.8112 16.3154 15.4392 13.9064C19.4907 10.1834 20.4762 9.52643 21.7902 10.0739C22.8852 10.5119 24.7466 12.0449 27.3746 14.4539L28.3601 15.4394L29.0171 14.7824L35.9156 8.43144L34.3826 7.00795C29.0171 2.08049 25.2941 0 21.6807 0C17.4102 0 13.4682 2.84698 8.86926 7.11745Z" fill="#E50000"/>
<path d="M77.6655 13.7979H75.7578V14.0099V36.4785H80.8451C80.8451 36.4785 80.8451 22.9126 80.8451 22.7006C81.057 22.7006 95.8948 22.7006 95.8948 22.7006H96.1068C96.3188 22.7006 96.3188 22.9126 96.3188 22.9126V36.2666H101.406V22.0647C101.194 20.5809 100.134 19.0971 98.4385 18.4612H98.2265C97.8025 18.2492 97.3786 18.2492 96.9547 18.0373L96.3188 17.8253C96.3188 17.8253 80.8451 17.8253 80.6331 17.8253C80.6331 17.6133 80.6331 13.5859 80.6331 13.5859H80.4211C79.7852 13.7979 78.7254 13.7979 77.6655 13.7979Z" fill="black"/>
<path d="M57.3169 18.4627C62.828 18.4627 68.5512 18.4627 74.0624 18.4627V22.914H65.3717H54.5613C54.1373 22.914 53.5014 23.338 53.2894 23.7619C53.2894 24.3978 53.5014 24.8218 53.9254 25.0337C55.1972 25.4577 57.3169 25.2457 58.8006 25.2457C62.1921 25.4577 66.0076 25.0337 69.3991 25.2457C71.5187 25.6696 73.2145 27.1534 73.6384 29.2731C73.8504 30.3329 74.0624 31.6048 73.6384 32.6646C73.4265 32.8766 73.4265 33.3005 73.2145 33.5125C72.7906 34.3603 71.9427 34.7843 71.0948 35.4202C70.2469 36.0561 68.7632 36.2681 67.7033 36.48H49.474C49.262 36.692 48.4142 36.48 47.9902 36.48V32.2407H54.7732C54.7732 32.0287 54.9852 32.2407 55.1972 32.2407C56.8929 32.2407 58.8006 32.2407 60.4964 32.2407C60.4964 32.4526 60.7084 32.2407 60.7084 32.2407C63.04 32.0287 65.3717 32.4526 67.7033 32.2407C68.1273 32.0287 68.5512 31.8167 68.5512 31.3928C68.7632 30.9689 68.5512 30.5449 68.3392 30.121C67.9153 29.4851 66.8554 29.697 66.0076 29.697H53.9254C53.0775 29.697 51.8057 29.4851 51.1698 28.8492C49.686 28.2133 48.6261 26.7295 48.2022 25.2457L47.9902 23.338C48.2022 23.338 47.9902 23.126 48.2022 23.126C48.6261 21.2183 50.1099 19.5226 52.0176 18.8866C54.1373 18.2507 55.8331 18.2507 57.3169 18.4627Z" fill="black"/>
<path d="M137.866 29.9083C138.289 30.5442 138.501 31.3921 139.349 31.816C140.409 32.4519 141.893 32.4519 142.953 32.028C144.225 31.3921 145.072 30.3322 145.072 29.0604V18.462H145.284H149.948V26.9407C149.736 28.8484 149.948 30.9681 151.855 32.028C152.703 32.4519 153.975 32.6639 155.035 32.028L155.247 31.816C156.307 31.1801 156.943 30.1202 157.155 28.8484V18.25H162.03V30.5442C161.818 30.7562 161.818 31.1801 161.818 31.3921C160.97 34.3596 157.791 36.4793 154.611 36.9032C152.067 37.1152 149.524 36.2673 147.616 34.7836C145.284 36.6913 141.681 37.5391 138.501 36.4793C135.534 35.6314 132.99 32.8758 132.99 29.9083V18.462H137.866V29.9083Z" fill="black"/>
<path fill-rule="evenodd" clip-rule="evenodd" d="M122.841 17.9346C122.655 17.9346 122.496 17.9346 122.39 17.8286C122.334 17.8286 122.264 17.8138 122.178 17.796C121.94 17.7463 121.587 17.6725 121.118 17.8286C120.271 17.8286 119.423 17.8153 118.575 17.8021C116.031 17.7623 113.488 17.7226 110.944 18.0405C107.341 18.6765 103.525 21.644 102.889 25.4594C102.253 29.2749 103.737 33.5143 107.341 35.422C108.4 36.0579 109.46 36.4818 110.52 36.6938C112.049 37.2035 113.851 37.1685 115.597 37.1345C116.03 37.1261 116.458 37.1177 116.879 37.1177C116.95 37.1177 117.02 37.1413 117.091 37.1648C117.232 37.2119 117.374 37.259 117.515 37.1177C121.118 37.3297 124.51 36.9058 127.266 34.7861H127.478C127.584 34.6801 127.795 34.5211 128.007 34.3621C128.219 34.2032 128.431 34.0442 128.537 33.9382C131.081 31.1826 131.717 27.1552 130.445 23.7637C129.597 21.0081 126.418 18.6765 123.45 18.0405C123.238 17.9346 123.026 17.9346 122.841 17.9346ZM125.358 25.0357C124.722 23.3399 122.814 22.492 121.118 22.2801C120.076 22.3898 118.864 22.3433 117.602 22.2951C113.988 22.1567 109.971 22.0029 108.4 25.4596C107.764 27.3673 108.188 29.9109 109.672 31.1828C110.52 32.0306 112.003 32.4546 113.275 32.6665C114.377 32.5506 115.589 32.609 116.821 32.6685C120.095 32.8263 123.51 32.9909 125.358 29.9109C126.205 28.6391 126.205 26.5194 125.358 25.0357Z" fill="black"/>
<path fill-rule="evenodd" clip-rule="evenodd" d="M188.95 21.6405C188.526 19.9447 186.83 18.6729 185.134 18.4609L163.514 18.6729V23.3362H183.863H184.075V25.4559H169.661C167.753 25.4559 165.845 26.0918 164.785 27.3636C163.514 29.0594 163.09 32.0269 164.362 33.9346C165.421 35.6304 167.329 36.4783 169.237 36.6902H180.047H189.162V23.5482L188.95 21.6405ZM184.074 31.6028V29.4831C181.263 29.6236 178.452 29.5778 175.58 29.531C174.12 29.5071 172.644 29.4831 171.144 29.4831C170.862 29.5537 170.555 29.5537 170.249 29.5537C169.637 29.5537 169.025 29.5537 168.601 30.119C168.601 30.1785 168.584 30.2547 168.565 30.343C168.515 30.569 168.448 30.8739 168.601 31.1788C168.707 31.2848 168.866 31.3378 169.025 31.3908C169.183 31.4438 169.342 31.4968 169.448 31.6028C170.98 31.6028 172.534 31.5799 174.112 31.5567C177.337 31.5093 180.658 31.4604 184.074 31.6028Z" fill="black"/>
</svg>
