<svg width="22" height="24" viewBox="0 0 22 24" fill="none" xmlns="http://www.w3.org/2000/svg">
<path d="M17.5029 7.60117C17.5029 5.85043 16.8074 4.1714 15.5695 2.93344C14.3315 1.69548 12.6525 1 10.9018 1C9.15102 1 7.47198 1.69548 6.23402 2.93344C4.99606 4.1714 4.30058 5.85043 4.30058 7.60117C4.30058 15.3025 1 17.5029 1 17.5029H20.8035C20.8035 17.5029 17.5029 15.3025 17.5029 7.60117Z" stroke="#D1D5DB" stroke-width="2" stroke-linecap="round" stroke-linejoin="round"/>
<path d="M12.8052 21.9038C12.6118 22.2373 12.3342 22.514 12.0001 22.7064C11.6661 22.8988 11.2874 23.0001 10.9019 23.0001C10.5164 23.0001 10.1377 22.8988 9.80363 22.7064C9.46959 22.514 9.19196 22.2373 8.99854 21.9038" stroke="#D1D5DB" stroke-width="2" stroke-linecap="round" stroke-linejoin="round"/>
</svg>
