<svg width="21" height="23" viewBox="0 0 21 23" fill="none" xmlns="http://www.w3.org/2000/svg">
<path d="M19.5483 15.1826V6.93896C19.5479 6.57755 19.4525 6.22259 19.2717 5.90969C19.0908 5.5968 18.8308 5.33696 18.5178 5.15626L11.3046 1.03441C10.9913 0.853528 10.6359 0.758301 10.2742 0.758301C9.91239 0.758301 9.55699 0.853528 9.24369 1.03441L2.03046 5.15626C1.71747 5.33696 1.4575 5.5968 1.27664 5.90969C1.09577 6.22259 1.00037 6.57755 1 6.93896V15.1826C1.00037 15.5441 1.09577 15.899 1.27664 16.2119C1.4575 16.5248 1.71747 16.7846 2.03046 16.9653L9.24369 21.0872C9.55699 21.2681 9.91239 21.3633 10.2742 21.3633C10.6359 21.3633 10.9913 21.2681 11.3046 21.0872L18.5178 16.9653C18.8308 16.7846 19.0908 16.5248 19.2717 16.2119C19.4525 15.899 19.5479 15.5441 19.5483 15.1826Z" stroke="#D1D5DB" stroke-width="1.5" stroke-linecap="round" stroke-linejoin="round"/>
<path d="M5.63672 3.03369L10.2738 5.71289L14.9109 3.03369" stroke="#D1D5DB" stroke-width="1.5" stroke-linecap="round" stroke-linejoin="round"/>
<path d="M5.63708 19.0883V13.7402L1 11.061" stroke="#D1D5DB" stroke-width="1.5" stroke-linecap="round" stroke-linejoin="round"/>
<path d="M19.5482 11.061L14.9111 13.7402V19.0883" stroke="#D1D5DB" stroke-width="1.5" stroke-linecap="round" stroke-linejoin="round"/>
<path d="M1.27832 5.86743L10.2742 11.0713L19.2702 5.86743" stroke="#D1D5DB" stroke-width="1.5" stroke-linecap="round" stroke-linejoin="round"/>
<path d="M10.2739 21.4481V11.061" stroke="#D1D5DB" stroke-width="1.5" stroke-linecap="round" stroke-linejoin="round"/>
</svg>
