<svg width="20" height="20" viewBox="0 0 20 20" fill="none" xmlns="http://www.w3.org/2000/svg">
<path fill-rule="evenodd" clip-rule="evenodd" d="M6.19693 2.68279C6.24651 2.22066 6.46518 1.79317 6.8109 1.48253C7.15663 1.17189 7.60499 1.00003 8.06977 1H12.2558C12.7206 1.00003 13.169 1.17189 13.5147 1.48253C13.8604 1.79317 14.0791 2.22066 14.1287 2.68279C14.7683 2.69619 15.32 2.72884 15.7922 2.81591C16.4268 2.93312 16.9668 3.15414 17.4063 3.59451C17.9103 4.09767 18.1263 4.73312 18.2285 5.4866C18.3256 6.21163 18.3256 7.13507 18.3256 8.27953V13.3949C18.3256 14.5393 18.3256 15.4628 18.2285 16.1887C18.1263 16.9421 17.9103 17.5767 17.4063 18.0807C16.9023 18.5847 16.2677 18.8007 15.5142 18.9029C14.7884 19 13.8649 19 12.7205 19H7.60512C6.46065 19 5.53721 19 4.81135 18.9029C4.05786 18.8007 3.42326 18.5847 2.91926 18.0807C2.41526 17.5767 2.19926 16.9421 2.09795 16.1887C2 15.4628 2 14.5393 2 13.3949V8.27953C2 7.13507 2 6.21163 2.09795 5.48577C2.19842 4.73228 2.41609 4.09767 2.91926 3.59367C3.35879 3.15414 3.89879 2.93228 4.5334 2.81591C5.00558 2.72884 5.55814 2.69619 6.19693 2.68279ZM6.1986 3.9386C5.59749 3.952 5.13367 3.98214 4.76028 4.05079C4.28642 4.13786 4.01098 4.27851 3.80753 4.48195C3.57563 4.71386 3.42493 5.0387 3.34205 5.65405C3.25749 6.2853 3.25581 7.12419 3.25581 8.32558V13.3488C3.25581 14.5502 3.25749 15.3883 3.34205 16.0212C3.42493 16.6357 3.57647 16.9606 3.80753 17.1925C4.03944 17.4244 4.36428 17.5751 4.97963 17.658C5.61088 17.7425 6.44977 17.7442 7.65116 17.7442H12.6744C13.8758 17.7442 14.7139 17.7425 15.3468 17.658C15.9613 17.5751 16.2861 17.4235 16.518 17.1925C16.75 16.9606 16.9007 16.6357 16.9835 16.0204C17.0681 15.3883 17.0698 14.5502 17.0698 13.3488V8.32558C17.0698 7.12419 17.0681 6.2853 16.9835 5.65321C16.9007 5.0387 16.7491 4.71386 16.518 4.48195C16.3138 4.27851 16.0392 4.1387 15.5653 4.05079C15.1919 3.98214 14.7281 3.952 14.127 3.93944C14.0734 4.39811 13.8532 4.82112 13.5083 5.12811C13.1633 5.4351 12.7176 5.60469 12.2558 5.60465H8.06977C7.60786 5.60467 7.16204 5.43496 6.81706 5.1278C6.47208 4.82063 6.25198 4.39742 6.1986 3.9386ZM8.06977 2.25581C7.90324 2.25581 7.74353 2.32197 7.62577 2.43972C7.50802 2.55748 7.44186 2.71719 7.44186 2.88372V3.72093C7.44186 4.06753 7.72316 4.34884 8.06977 4.34884H12.2558C12.4223 4.34884 12.5821 4.28268 12.6998 4.16493C12.8176 4.04717 12.8837 3.88746 12.8837 3.72093V2.88372C12.8837 2.71719 12.8176 2.55748 12.6998 2.43972C12.5821 2.32197 12.4223 2.25581 12.2558 2.25581H8.06977ZM5.34884 8.74419C5.34884 8.57765 5.41499 8.41794 5.53275 8.30019C5.6505 8.18243 5.81021 8.11628 5.97674 8.11628H14.3488C14.5154 8.11628 14.6751 8.18243 14.7928 8.30019C14.9106 8.41794 14.9767 8.57765 14.9767 8.74419C14.9767 8.91072 14.9106 9.07043 14.7928 9.18818C14.6751 9.30594 14.5154 9.37209 14.3488 9.37209H5.97674C5.81021 9.37209 5.6505 9.30594 5.53275 9.18818C5.41499 9.07043 5.34884 8.91072 5.34884 8.74419ZM6.18605 11.6744C6.18605 11.5079 6.2522 11.3482 6.36996 11.2304C6.48771 11.1127 6.64742 11.0465 6.81395 11.0465H13.5116C13.6782 11.0465 13.8379 11.1127 13.9556 11.2304C14.0734 11.3482 14.1395 11.5079 14.1395 11.6744C14.1395 11.841 14.0734 12.0007 13.9556 12.1184C13.8379 12.2362 13.6782 12.3023 13.5116 12.3023H6.81395C6.64742 12.3023 6.48771 12.2362 6.36996 12.1184C6.2522 12.0007 6.18605 11.841 6.18605 11.6744ZM7.02326 14.6047C7.02326 14.4381 7.08941 14.2784 7.20717 14.1607C7.32492 14.0429 7.48463 13.9767 7.65116 13.9767H12.6744C12.841 13.9767 13.0007 14.0429 13.1184 14.1607C13.2362 14.2784 13.3023 14.4381 13.3023 14.6047C13.3023 14.7712 13.2362 14.9309 13.1184 15.0486C13.0007 15.1664 12.841 15.2326 12.6744 15.2326H7.65116C7.48463 15.2326 7.32492 15.1664 7.20717 15.0486C7.08941 14.9309 7.02326 14.7712 7.02326 14.6047Z" fill="#D1D5DB"/>
</svg>
