<svg width="20" height="20" viewBox="0 0 20 20" fill="none" xmlns="http://www.w3.org/2000/svg">
<g clip-path="url(#clip0_6448_47289)">
<path d="M9.96094 6.25C10.1766 6.25 10.3516 6.425 10.3516 6.64063C10.3516 6.85625 10.1766 7.03125 9.96094 7.03125C9.74531 7.03125 9.57031 6.85625 9.57031 6.64063C9.57031 6.425 9.74531 6.25 9.96094 6.25Z" fill="#D1D5DB"/>
<path d="M9.96094 7.8125C10.1766 7.8125 10.3516 7.9875 10.3516 8.20313C10.3516 8.41875 10.1766 8.59375 9.96094 8.59375C9.74531 8.59375 9.57031 8.41875 9.57031 8.20313C9.57031 7.9875 9.74531 7.8125 9.96094 7.8125Z" fill="#D1D5DB"/>
<path d="M19.4141 4.29688H15.5078V0.390635" stroke="#D1D5DB" stroke-miterlimit="10" stroke-linecap="round" stroke-linejoin="round"/>
<path d="M9.80469 2.73438H13.9453" stroke="#D1D5DB" stroke-miterlimit="10" stroke-linecap="round" stroke-linejoin="round"/>
<path d="M9.80469 4.29688H13.9453" stroke="#D1D5DB" stroke-miterlimit="10" stroke-linecap="round" stroke-linejoin="round"/>
<path d="M8.39842 6.64063C8.39842 8.53073 7.05623 10.1073 5.27343 10.4688C5.02082 10.5198 4.75989 10.5469 4.49218 10.5469C2.33489 10.5469 0.585938 8.79792 0.585938 6.64063C0.585938 4.48335 2.33489 2.73439 4.49218 2.73439C4.75989 2.73439 5.02134 2.76148 5.27343 2.81252C7.05623 3.17398 8.39842 4.75054 8.39842 6.64063Z" stroke="#D1D5DB" stroke-miterlimit="10" stroke-linecap="round" stroke-linejoin="round"/>
<path d="M4.49218 8.98438C3.19948 8.98438 2.14844 7.93334 2.14844 6.64063" stroke="#D1D5DB" stroke-miterlimit="10" stroke-linecap="round" stroke-linejoin="round"/>
<path d="M4.49219 2.73438V6.64062H8.39843" stroke="#D1D5DB" stroke-miterlimit="10" stroke-linecap="round" stroke-linejoin="round"/>
<path d="M4.88281 10.4688V18.8281C4.88281 19.2599 5.23229 19.6094 5.66406 19.6094H18.6328C19.0645 19.6094 19.414 19.2599 19.414 18.8281V4.29691L15.5078 0.390672H5.66406C5.23229 0.390672 4.88281 0.740151 4.88281 1.17192V2.81254" stroke="#D1D5DB" stroke-miterlimit="10" stroke-linecap="round" stroke-linejoin="round"/>
<path d="M8.00781 16.25C8.00781 16.6818 7.65833 17.0312 7.22656 17.0312C6.79479 17.0312 6.44531 16.6818 6.44531 16.25C6.44531 15.8182 6.79479 15.4688 7.22656 15.4688C7.44219 15.4688 7.6375 15.5563 7.77916 15.6979C7.92031 15.8391 8.00781 16.0344 8.00781 16.25Z" stroke="#D1D5DB" stroke-miterlimit="10" stroke-linecap="round" stroke-linejoin="round"/>
<path d="M9.64323 13.6771C9.49635 13.5307 9.41406 13.3318 9.41406 13.1245C9.41406 12.6927 9.76354 12.3432 10.1953 12.3432C10.6271 12.3432 10.9766 12.6927 10.9766 13.1245C10.9766 13.3401 10.8891 13.5354 10.7474 13.6771C10.601 13.824 10.4021 13.9062 10.1948 13.9062C9.97969 13.9062 9.78437 13.8188 9.64323 13.6771Z" stroke="#D1D5DB" stroke-miterlimit="10" stroke-linecap="round" stroke-linejoin="round"/>
<path d="M13.7109 16.25C13.7109 16.6818 13.3615 17.0312 12.9297 17.0312C12.4979 17.0312 12.1484 16.6818 12.1484 16.25C12.1484 16.0344 12.2359 15.8391 12.3776 15.6974C12.5193 15.5563 12.7146 15.4682 12.9302 15.4682C13.3615 15.4688 13.7109 15.8182 13.7109 16.25Z" stroke="#D1D5DB" stroke-miterlimit="10" stroke-linecap="round" stroke-linejoin="round"/>
<path d="M17.7344 11.5625C17.7344 11.9943 17.3849 12.3438 16.9531 12.3438C16.5214 12.3438 16.1719 11.9943 16.1719 11.5625C16.1719 11.1307 16.5214 10.7813 16.9531 10.7813C17.3849 10.7813 17.7344 11.1307 17.7344 11.5625Z" stroke="#D1D5DB" stroke-miterlimit="10" stroke-linecap="round" stroke-linejoin="round"/>
<path d="M7.7793 15.6973L9.64335 13.677" stroke="#D1D5DB" stroke-miterlimit="10" stroke-linecap="round" stroke-linejoin="round"/>
<path d="M10.748 13.677L12.3777 15.6973" stroke="#D1D5DB" stroke-miterlimit="10" stroke-linecap="round" stroke-linejoin="round"/>
<path d="M13.3633 15.5996L16.5195 12.2121" stroke="#D1D5DB" stroke-miterlimit="10" stroke-linecap="round" stroke-linejoin="round"/>
<path d="M11.5234 6.64062H17.4609" stroke="#D1D5DB" stroke-miterlimit="10" stroke-linecap="round" stroke-linejoin="round"/>
<path d="M11.5234 8.20312H17.4609" stroke="#D1D5DB" stroke-miterlimit="10" stroke-linecap="round" stroke-linejoin="round"/>
</g>
<defs>
<clipPath id="clip0_6448_47289">
<rect width="20" height="20" fill="white"/>
</clipPath>
</defs>
</svg>
