<svg width="22" height="23" viewBox="0 0 22 23" fill="none" xmlns="http://www.w3.org/2000/svg">
<path d="M20.5129 10.4576L11.2877 19.6829C10.1575 20.813 8.62467 21.448 7.02638 21.448C5.42808 21.448 3.89525 20.813 2.76508 19.6829C1.63492 18.5527 1 17.0199 1 15.4216C1 13.8233 1.63492 12.2905 2.76508 11.1603L11.9904 1.93502C12.7438 1.18158 13.7657 0.758301 14.8312 0.758301C15.8967 0.758301 16.9186 1.18158 17.6721 1.93502C18.4255 2.68847 18.8488 3.71035 18.8488 4.77588C18.8488 5.84141 18.4255 6.8633 17.6721 7.61674L8.43677 16.842C8.06005 17.2187 7.5491 17.4304 7.01634 17.4304C6.48357 17.4304 5.97263 17.2187 5.59591 16.842C5.21918 16.4653 5.00754 15.9543 5.00754 15.4216C5.00754 14.8888 5.21918 14.3779 5.59591 14.0012L14.1185 5.48861" stroke="#D1D5DB" stroke-width="1.5" stroke-linecap="round" stroke-linejoin="round"/>
</svg>
