<svg width="20" height="20" viewBox="0 0 20 20" fill="none" xmlns="http://www.w3.org/2000/svg">
<g clip-path="url(#clip0_7318_25587)">
<path d="M8.29242 15.2443L5.93573 17.601C4.95869 18.5781 3.37646 18.5781 2.40024 17.6012C1.42383 16.6248 1.42383 15.0424 2.40004 14.0662L7.11425 9.35199C8.09047 8.37573 9.67286 8.37573 10.6491 9.35199C10.9745 9.67742 11.5022 9.67742 11.8276 9.35199C12.153 9.02656 12.153 8.4989 11.8276 8.17346C10.2005 6.54635 7.56285 6.54635 5.93573 8.17346L1.22156 12.8876C-0.405559 14.5148 -0.405559 17.1524 1.22156 18.7795C2.84848 20.4075 5.48631 20.4075 7.11429 18.7795L9.47098 16.4228C9.79641 16.0974 9.79641 15.5697 9.47098 15.2443C9.14555 14.9189 8.61785 14.9189 8.29242 15.2443Z" fill="#D1D5DB"/>
<path d="M18.7804 1.22034C17.1533 -0.40678 14.5148 -0.40678 12.8877 1.22034L10.0602 4.04786C9.73477 4.37329 9.73477 4.90095 10.0602 5.22638C10.3856 5.55181 10.9133 5.55181 11.2387 5.22638L14.0662 2.39886C15.0425 1.42261 16.6257 1.42261 17.6019 2.39886C18.5781 3.37508 18.5781 4.95747 17.6019 5.93369L12.4169 11.1188C11.4406 12.095 9.85829 12.095 8.88207 11.1188C8.55664 10.7933 8.02898 10.7933 7.70355 11.1188C7.37811 11.4442 7.37811 11.9718 7.70355 12.2973C9.33067 13.9244 11.9683 13.9244 13.5954 12.2973L18.7804 7.11225C20.4076 5.48513 20.4076 2.84746 18.7804 1.22034Z" fill="#D1D5DB"/>
</g>
<defs>
<clipPath id="clip0_7318_25587">
<rect width="20" height="20" fill="white" transform="translate(0.000976562)"/>
</clipPath>
</defs>
</svg>
