<svg width="20" height="20" viewBox="0 0 20 20" fill="none" xmlns="http://www.w3.org/2000/svg">
<g clip-path="url(#clip0_7318_32751)">
<path fill-rule="evenodd" clip-rule="evenodd" d="M15.5512 17.0854C14.0221 18.2848 12.0951 19 10.001 19C5.03041 19 1.00098 14.9706 1.00098 10C1.00098 7.90591 1.71617 5.97887 2.91562 4.4498L7.31866 8.85284L4.29475 11.8768C3.23715 12.9344 3.23715 14.6488 4.29475 15.7064C5.35222 16.7645 7.06677 16.7645 8.12493 15.7064L9.65674 14.1746C9.86827 13.963 9.86827 13.6201 9.65674 13.4085C9.44522 13.197 9.10222 13.197 8.8907 13.4086L7.35888 14.9404C6.72382 15.5754 5.6954 15.5754 5.06087 14.9405C4.42622 14.3059 4.42622 13.2773 5.06074 12.6428L8.08468 9.61886L9.06195 10.5961C8.8735 10.5334 8.6574 10.577 8.5074 10.727C8.29587 10.9385 8.29587 11.2815 8.5074 11.493C9.11568 12.1013 9.94124 12.3597 10.7341 12.2683L15.5512 17.0854ZM16.3042 16.4241L11.7939 11.9139C11.9878 11.7998 12.1705 11.6595 12.337 11.493L15.7072 8.12285C16.7648 7.06525 16.7648 5.35081 15.7072 4.2932C14.6496 3.2356 12.9346 3.2356 11.877 4.2932L10.0392 6.13104C9.82766 6.34257 9.82766 6.68554 10.0392 6.89707C10.2507 7.10859 10.5937 7.10859 10.8052 6.89707L12.643 5.05922C13.2776 4.42467 14.3066 4.42467 14.9412 5.05922C15.5757 5.69375 15.5757 6.72228 14.9412 7.35681L11.571 10.727C11.3989 10.8991 11.1977 11.0246 10.9834 11.1033L9.00501 9.12498C9.50507 9.04155 10.0366 9.19277 10.4225 9.57864C10.634 9.79017 10.977 9.79017 11.1885 9.57864C11.4 9.36712 11.4 9.02415 11.1885 8.81262C10.3654 7.98956 9.14458 7.80703 8.14508 8.26504L3.57683 3.6968C5.21004 2.03245 7.48494 1 10.001 1C14.9715 1 19.001 5.02944 19.001 10C19.001 12.516 17.9685 14.7909 16.3042 16.4241ZM20.001 10C20.001 15.5228 15.5238 20 10.001 20C4.47813 20 0.000976562 15.5228 0.000976562 10C0.000976562 4.47715 4.47813 0 10.001 0C15.5238 0 20.001 4.47715 20.001 10Z" fill="#D1D5DB"/>
</g>
<defs>
<clipPath id="clip0_7318_32751">
<rect width="20" height="20" fill="white" transform="translate(0.000976562)"/>
</clipPath>
</defs>
</svg>
