<svg width="21" height="23" viewBox="0 0 21 23" fill="none" xmlns="http://www.w3.org/2000/svg">
<path d="M4.10345 1.1377L1 5.27563V19.7584C1 20.3071 1.21798 20.8334 1.60599 21.2214C1.99399 21.6094 2.52024 21.8273 3.06897 21.8273H17.5517C18.1004 21.8273 18.6267 21.6094 19.0147 21.2214C19.4027 20.8334 19.6207 20.3071 19.6207 19.7584V5.27563L16.5172 1.1377H4.10345Z" stroke="#D1D5DB" stroke-width="1.5" stroke-linecap="round" stroke-linejoin="round"/>
<path d="M1 5.27563H19.6207" stroke="#D1D5DB" stroke-width="1.5" stroke-linecap="round" stroke-linejoin="round"/>
<path d="M14.4482 9.41357C14.4482 10.511 14.0123 11.5635 13.2363 12.3395C12.4602 13.1155 11.4077 13.5515 10.3103 13.5515C9.21285 13.5515 8.16035 13.1155 7.38433 12.3395C6.60832 11.5635 6.17236 10.511 6.17236 9.41357" stroke="#D1D5DB" stroke-width="1.5" stroke-linecap="round" stroke-linejoin="round"/>
</svg>
