<svg width="20" height="20" viewBox="0 0 20 20" fill="none" xmlns="http://www.w3.org/2000/svg">
<path d="M18.4889 9.43839L10.463 17.4644C9.47972 18.4476 8.14616 19 6.75564 19C5.36513 19 4.03156 18.4476 3.04832 17.4644C2.06508 16.4811 1.5127 15.1476 1.5127 13.7571C1.5127 12.3665 2.06508 11.033 3.04832 10.0497L11.0743 2.02375C11.7298 1.36825 12.6188 1 13.5458 1C14.4729 1 15.3619 1.36825 16.0174 2.02375C16.6729 2.67924 17.0411 3.56829 17.0411 4.4953C17.0411 5.42231 16.6729 6.31135 16.0174 6.96685L7.98268 14.9928C7.65493 15.3206 7.21041 15.5047 6.74691 15.5047C6.2834 15.5047 5.83888 15.3206 5.51113 14.9928C5.18339 14.6651 4.99926 14.2206 4.99926 13.7571C4.99926 13.2935 5.18339 12.849 5.51113 12.5213L12.9258 5.11537" stroke="#D1D5DB" stroke-width="1.5" stroke-linecap="round" stroke-linejoin="round"/>
</svg>
