<svg width="20" height="20" viewBox="0 0 20 20" fill="none" xmlns="http://www.w3.org/2000/svg">
<path d="M7.14571 3.85429C7.14571 3.09728 7.44643 2.37128 7.98172 1.836C8.517 1.30072 9.243 1 10 1C10.757 1 11.483 1.30072 12.0183 1.836C12.5536 2.37128 12.8543 3.09728 12.8543 3.85429C12.8543 4.61129 12.5536 5.33729 12.0183 5.87257C11.483 6.40785 10.757 6.70857 10 6.70857C9.243 6.70857 8.517 6.40785 7.98172 5.87257C7.44643 5.33729 7.14571 4.61129 7.14571 3.85429ZM10 2.42857C9.81277 2.42857 9.62738 2.46545 9.4544 2.5371C9.28143 2.60875 9.12426 2.71376 8.99187 2.84615C8.85948 2.97854 8.75446 3.13571 8.68281 3.30869C8.61116 3.48166 8.57429 3.66706 8.57429 3.85429C8.57429 4.04151 8.61116 4.22691 8.68281 4.39988C8.75446 4.57286 8.85948 4.73003 8.99187 4.86242C9.12426 4.99481 9.28143 5.09982 9.4544 5.17147C9.62738 5.24312 9.81277 5.28 10 5.28C10.3781 5.28 10.7408 5.12979 11.0081 4.86242C11.2755 4.59504 11.4257 4.23241 11.4257 3.85429C11.4257 3.47616 11.2755 3.11353 11.0081 2.84615C10.7408 2.57878 10.3781 2.42857 10 2.42857ZM14.2857 4.56857C14.2857 4.28717 14.3411 4.00852 14.4488 3.74854C14.5565 3.48855 14.7144 3.25233 14.9133 3.05334C15.1123 2.85436 15.3486 2.69652 15.6085 2.58883C15.8685 2.48114 16.1472 2.42571 16.4286 2.42571C16.71 2.42571 16.9886 2.48114 17.2486 2.58883C17.5086 2.69652 17.7448 2.85436 17.9438 3.05334C18.1428 3.25233 18.3006 3.48855 18.4083 3.74854C18.516 4.00852 18.5714 4.28717 18.5714 4.56857C18.5714 5.13689 18.3457 5.68194 17.9438 6.0838C17.5419 6.48566 16.9969 6.71143 16.4286 6.71143C15.8603 6.71143 15.3152 6.48566 14.9133 6.0838C14.5115 5.68194 14.2857 5.13689 14.2857 4.56857ZM16.4286 3.85429C16.2391 3.85429 16.0574 3.92954 15.9235 4.06349C15.7895 4.19745 15.7143 4.37913 15.7143 4.56857C15.7143 4.75801 15.7895 4.93969 15.9235 5.07365C16.0574 5.2076 16.2391 5.28286 16.4286 5.28286C16.618 5.28286 16.7997 5.2076 16.9336 5.07365C17.0676 4.93969 17.1429 4.75801 17.1429 4.56857C17.1429 4.37913 17.0676 4.19745 16.9336 4.06349C16.7997 3.92954 16.618 3.85429 16.4286 3.85429ZM3.57143 2.42571C3.00311 2.42571 2.45806 2.65148 2.0562 3.05334C1.65434 3.45521 1.42857 4.00025 1.42857 4.56857C1.42857 5.13689 1.65434 5.68194 2.0562 6.0838C2.45806 6.48566 3.00311 6.71143 3.57143 6.71143C4.13975 6.71143 4.68479 6.48566 5.08666 6.0838C5.48852 5.68194 5.71429 5.13689 5.71429 4.56857C5.71429 4.00025 5.48852 3.45521 5.08666 3.05334C4.68479 2.65148 4.13975 2.42571 3.57143 2.42571ZM2.85714 4.56857C2.85714 4.37913 2.9324 4.19745 3.06635 4.06349C3.20031 3.92954 3.38199 3.85429 3.57143 3.85429C3.76087 3.85429 3.94255 3.92954 4.07651 4.06349C4.21046 4.19745 4.28571 4.37913 4.28571 4.56857C4.28571 4.75801 4.21046 4.93969 4.07651 5.07365C3.94255 5.2076 3.76087 5.28286 3.57143 5.28286C3.38199 5.28286 3.20031 5.2076 3.06635 5.07365C2.9324 4.93969 2.85714 4.75801 2.85714 4.56857ZM4.66857 8.14C4.41715 8.57407 4.28506 9.06694 4.28571 9.56857H1.42857V13.14C1.42846 13.4953 1.51671 13.8451 1.68538 14.1579C1.85406 14.4706 2.09786 14.7365 2.39484 14.9316C2.69182 15.1267 3.03266 15.2449 3.38668 15.2756C3.74069 15.3062 4.09677 15.2483 4.42286 15.1071C4.52857 15.58 4.69429 16.0314 4.90857 16.4529C4.36638 16.6718 3.77873 16.7542 3.19722 16.693C2.61572 16.6317 2.05815 16.4286 1.57349 16.1015C1.08882 15.7744 0.691885 15.3333 0.417533 14.8169C0.14318 14.3005 -0.000194354 13.7247 1.97733e-07 13.14V9.56857C1.97733e-07 9.18969 0.15051 8.82633 0.418419 8.55842C0.686328 8.29051 1.04969 8.14 1.42857 8.14H4.66857ZM15.0914 16.4529C15.6336 16.6718 16.2213 16.7542 16.8028 16.693C17.3843 16.6317 17.9418 16.4286 18.4265 16.1015C18.9112 15.7744 19.3081 15.3333 19.5825 14.8169C19.8568 14.3005 20.0002 13.7247 20 13.14V9.56857C20 9.18969 19.8495 8.82633 19.5816 8.55842C19.3137 8.29051 18.9503 8.14 18.5714 8.14H15.3314C15.5743 8.56 15.7143 9.04714 15.7143 9.56857H18.5714V13.14C18.5715 13.4953 18.4833 13.8451 18.3146 14.1579C18.1459 14.4706 17.9021 14.7365 17.6052 14.9316C17.3082 15.1267 16.9673 15.2449 16.6133 15.2756C16.2593 15.3062 15.9032 15.2483 15.5771 15.1071C15.47 15.58 15.3057 16.0314 15.0914 16.4529ZM7.14286 8.13857C6.76398 8.13857 6.40061 8.28908 6.13271 8.55699C5.8648 8.8249 5.71429 9.18826 5.71429 9.56714V13.8543C5.71429 14.9909 6.16582 16.081 6.96954 16.8847C7.77327 17.6885 8.86336 18.14 10 18.14C11.1366 18.14 12.2267 17.6885 13.0305 16.8847C13.8342 16.081 14.2857 14.9909 14.2857 13.8543V9.56857C14.2857 9.18969 14.1352 8.82633 13.8673 8.55842C13.5994 8.29051 13.236 8.14 12.8571 8.14H7.14286V8.13857ZM7.14286 9.56714H12.8571V13.8543C12.8571 14.612 12.5561 15.3388 12.0203 15.8746C11.4845 16.4104 10.7578 16.7114 10 16.7114C9.24224 16.7114 8.51551 16.4104 7.97969 15.8746C7.44388 15.3388 7.14286 14.612 7.14286 13.8543V9.56857V9.56714Z" fill="#D1D5DB"/>
</svg>
