<svg width="19" height="21" viewBox="0 0 19 21" fill="none" xmlns="http://www.w3.org/2000/svg">
<path d="M15.1644 6.03232C15.1644 2.74432 12.4625 0.0803223 9.12784 0.0803223C5.79315 0.0803223 3.09133 2.74432 3.09133 6.03232C3.09133 8.01952 4.07956 9.78112 5.59843 10.8611C5.58869 10.8659 5.58139 10.8683 5.57652 10.8707C4.48849 11.3243 3.51242 11.9747 2.67267 12.8051C1.83291 13.6331 1.17571 14.5979 0.715668 15.6731C0.265364 16.7243 0.0243903 17.8403 4.95089e-05 18.9875C-0.00238457 19.0955 0.0852422 19.1843 0.194776 19.1843H1.65279C1.75745 19.1843 1.84508 19.1003 1.84751 18.9971C1.8962 17.1443 2.64833 15.4091 3.97977 14.0939C5.35502 12.7331 7.18058 11.9843 9.12784 11.9843C12.4625 11.9843 15.1644 9.32032 15.1644 6.03232ZM9.12784 10.1603C6.81547 10.1603 4.94123 8.31232 4.94123 6.03232C4.94123 3.75232 6.81547 1.90432 9.12784 1.90432C11.4402 1.90432 13.3145 3.75232 13.3145 6.03232C13.3145 8.31232 11.4402 10.1603 9.12784 10.1603ZM11.6836 15.4643H18.1096C18.2167 15.4643 18.3043 15.3779 18.3043 15.2723V13.9283C18.3043 13.8227 18.2167 13.7363 18.1096 13.7363H13.8134L14.9623 12.2939C14.9891 12.2603 15.0037 12.2171 15.0037 12.1763C15.0037 12.0707 14.9161 11.9843 14.809 11.9843H13.0418C12.9226 11.9843 12.8106 12.0395 12.7351 12.1307L11.0678 14.2211C10.9607 14.3555 10.9023 14.5235 10.9023 14.6963C10.9047 15.1211 11.2528 15.4643 11.6836 15.4643ZM17.5254 17.0003H11.0994C10.9923 17.0003 10.9047 17.0867 10.9047 17.1923V18.5363C10.9047 18.6419 10.9923 18.7283 11.0994 18.7283H15.3956L14.2467 20.1707C14.2199 20.2043 14.2053 20.2475 14.2053 20.2883C14.2053 20.3939 14.293 20.4803 14.4001 20.4803H16.1672C16.2865 20.4803 16.3984 20.4251 16.4739 20.3339L18.1412 18.2435C18.2483 18.1091 18.3067 17.9411 18.3067 17.7683C18.3043 17.3435 17.9562 17.0003 17.5254 17.0003Z" fill="#D1D5DB"/>
</svg>
