<svg width="23" height="23" viewBox="0 0 23 23" fill="none" xmlns="http://www.w3.org/2000/svg">
<path d="M20.6007 5.01758H2.08893C1.48753 5.01758 1 5.59652 1 6.31068V20.5348C1 21.249 1.48753 21.8279 2.08893 21.8279H20.6007C21.2021 21.8279 21.6897 21.249 21.6897 20.5348V6.31068C21.6897 5.59652 21.2021 5.01758 20.6007 5.01758Z" stroke="#D1D5DB" stroke-width="1.5" stroke-linecap="round" stroke-linejoin="round"/>
<path d="M15.7005 5.01749C15.7005 1.78474 13.7948 1.13818 12.9781 1.13818H5.08339C3.12332 1.13818 2.6333 2.9912 2.6333 3.91771V5.01749M11.8892 9.54336H21.6896V16.6554H11.8892V9.54336ZM21.6896 8.25025V17.9485V8.25025Z" stroke="#D1D5DB" stroke-width="1.5" stroke-linecap="round" stroke-linejoin="round"/>
<path d="M16.6726 14.0693C17.2097 14.0693 17.645 13.6351 17.645 13.0995C17.645 12.5638 17.2097 12.1296 16.6726 12.1296C16.1356 12.1296 15.7002 12.5638 15.7002 13.0995C15.7002 13.6351 16.1356 14.0693 16.6726 14.0693Z" fill="#D1D5DB"/>
</svg>
