<svg width="42" height="58" viewBox="0 0 42 58" fill="none" xmlns="http://www.w3.org/2000/svg">
<path d="M28.879 21.5334L20.8993 28.8798L22.0392 30.0198C25.8391 33.4397 27.739 35.7196 27.739 36.7329C27.739 37.7462 26.7257 38.8861 23.6858 41.7994C18.9993 46.1059 17.8594 46.8659 16.3394 46.2325C15.0728 45.7259 12.9195 43.9526 9.87965 41.1661L8.73969 40.0261L7.97972 40.7861L0 48.1325L1.77327 49.7791C13.4262 60.5454 19.506 60.5454 31.2856 49.6524C44.0785 37.8728 42.5585 32.8063 30.2723 21.5334L29.5123 20.7734L28.879 21.5334Z" fill="#24459C"/>
<path d="M10.2594 8.23304C-2.53353 20.0126 -1.01358 25.0791 11.2727 36.3521L12.0326 37.112L20.7723 29.0056L19.5057 27.8657C15.7058 24.4458 13.8059 22.1659 13.8059 21.1526C13.8059 20.1393 14.8192 18.8727 17.8591 16.0861C22.5456 11.7796 23.6855 11.0196 25.2055 11.6529C26.4721 12.1596 28.6254 13.9328 31.6653 16.7194L32.8052 17.8594L33.5652 17.0994L41.5449 9.75299L39.7716 8.10638C33.5652 2.40658 29.2587 0 25.0788 0C20.139 0 15.5792 3.29322 10.2594 8.23304Z" fill="#E50000"/>
</svg>
